<svg width="1629" height="1363" viewBox="0 0 1629 1363" fill="none" xmlns="http://www.w3.org/2000/svg">
<path d="M1628.94 237.83V792.29C1628.91 833.981 1617.93 874.933 1597.09 911.041C1576.25 947.15 1546.28 977.145 1510.19 998.023L1473.44 1019.19L1473.24 1019.39H1473.05C1472.86 1019.39 1472.67 1019.58 1472.28 1019.77L933.217 1330.97C897.067 1351.77 856.087 1362.72 814.377 1362.72C772.666 1362.72 731.687 1351.77 695.536 1330.97L118.944 998.023C78.6544 974.784 46.1179 940.171 25.4116 898.524C25.2005 898.11 24.942 897.723 24.6416 897.369C24.5608 897.148 24.4291 896.952 24.2569 896.792V896.6C24.147 896.5 24.0783 896.363 24.0643 896.215C8.24273 863.854 0.0149305 828.309 0.00747377 792.29V245.913C-0.0853924 235.601 0.687334 225.301 2.31713 215.12C102.414 412.341 270.417 566.743 475.369 649.874V654.877L720.171 796.331C748.879 812.878 781.433 821.589 814.569 821.589C847.706 821.589 880.26 812.878 908.968 796.331L1153.77 654.877V653.53C1357.71 573.269 1526.2 422.672 1628.75 228.977C1628.94 232.056 1628.94 234.847 1628.94 237.83Z" fill="url(#paint0_linear)"/>
<path d="M475.363 237.823V649.867C270.411 566.736 102.409 412.334 2.31177 215.113C3.44944 205.329 5.18457 195.625 7.50781 186.052C13.3619 161.867 22.8349 138.703 35.6062 117.346C54.7796 84.201 81.7526 56.2359 114.184 35.8783C146.615 15.5207 183.525 3.3859 221.709 0.526733C254.201 -1.63931 286.793 2.89028 317.463 13.8349C348.134 24.7794 376.228 41.9059 400.01 64.1528C423.79 86.3999 442.748 113.293 455.712 143.167C468.674 173.041 475.361 205.257 475.363 237.823Z" fill="url(#paint1_linear)"/>
<path d="M1628.74 229.064C1526.19 422.759 1357.71 573.357 1153.76 653.617V246C1153.03 184.665 1175.48 125.314 1216.62 79.8188C1257.76 34.3236 1314.57 6.03822 1375.66 0.620649C1418.95 -2.3195 1462.22 6.66684 1500.76 26.602C1500.81 26.602 1500.86 26.6224 1500.9 26.6584C1500.93 26.6946 1500.95 26.7434 1500.95 26.7944C1501.13 26.8978 1501.33 26.9636 1501.53 26.9871C1532.79 43.4402 1560.01 66.6338 1581.21 94.8916C1602.41 123.149 1617.07 155.765 1624.12 190.38C1626.75 203.121 1628.29 216.062 1628.74 229.064Z" fill="url(#paint2_linear)"/>
<g style="mix-blend-mode:multiply" opacity="0.08">
<g style="mix-blend-mode:multiply" opacity="0.08">
<path d="M475.363 461.156V649.953C270.411 566.823 102.409 412.421 2.31177 215.2C3.44944 205.416 5.18457 195.71 7.50781 186.139C107.392 259.657 285.7 380.71 475.363 461.156Z" fill="black"/>
</g>
</g>
<g style="mix-blend-mode:multiply" opacity="0.08">
<g style="mix-blend-mode:multiply" opacity="0.08">
<path d="M1628.74 229.071C1526.19 422.766 1357.71 573.363 1153.77 653.624V461.94C1319.87 388.611 1477.57 297.567 1624.12 190.387C1626.75 203.128 1628.29 216.068 1628.74 229.071Z" fill="black"/>
</g>
</g>
<g style="mix-blend-mode:screen" opacity="0.4">
<g style="mix-blend-mode:screen" opacity="0.4">
<path d="M1571.2 791.617V792.385C1571.12 823.927 1562.78 854.894 1547.01 882.209C1531.24 909.526 1508.59 932.236 1481.32 948.081L904.347 1281.03C876.98 1296.79 845.955 1305.08 814.375 1305.08C782.795 1305.08 751.768 1296.79 724.403 1281.03L275.985 1022.18L274.445 1021.21L147.81 948.081C122.616 933.487 101.322 913.021 85.7405 888.426C70.1588 863.83 60.7513 835.834 58.3188 806.819C272.725 959.643 528.894 1042.93 792.179 1045.41C1055.46 1047.89 1313.16 969.437 1530.4 820.676L1532.32 819.331L1533.29 818.753C1546.28 809.901 1558.69 800.855 1571.2 791.617Z" fill="white"/>
</g>
</g>
<g style="mix-blend-mode:screen" opacity="0.6">
<g style="mix-blend-mode:screen" opacity="0.6">
<path d="M24.2634 896.678C24.4559 896.87 24.4557 897.063 24.6481 897.448C24.5673 897.228 24.4357 897.03 24.2634 896.87V896.678Z" fill="white"/>
</g>
</g>
<g style="mix-blend-mode:multiply" opacity="0.25">
<g style="mix-blend-mode:multiply" opacity="0.25">
<path d="M1472.28 1019.84L933.215 1331.04C897.065 1351.84 856.085 1362.79 814.375 1362.79C772.664 1362.79 731.685 1351.84 695.535 1331.04L118.943 998.093C78.6527 974.855 46.1164 940.244 25.4099 898.595C26.9495 901.289 29.8364 905.908 34.0703 912.259C44.1775 926.668 55.7195 940.017 68.5194 952.097C88.3016 970.53 110.914 985.671 135.494 996.939C163.977 1011.57 196.116 1028.12 230.758 1046.78C300.619 1083.35 381.45 1127.04 467.477 1174.77C510.394 1198.82 555.043 1223.07 599.885 1248.86C622.402 1261.76 644.919 1274.65 667.629 1287.54L701.693 1306.98C712.053 1313.11 722.861 1318.45 734.025 1322.96C777.838 1341.15 826.467 1344.2 872.207 1331.62C895.034 1325.06 916.857 1315.42 937.064 1302.94C959.197 1290.62 980.944 1278.5 1002.5 1266.57C1088.72 1218.84 1169.55 1175.15 1239.22 1138.58C1369.89 1069.21 1461.31 1024.94 1472.28 1019.84Z" fill="black"/>
</g>
</g>
<g style="mix-blend-mode:multiply" opacity="0.25">
<g style="mix-blend-mode:multiply" opacity="0.25">
<path d="M1628.74 229.052L1610.84 265.618L1591.21 301.607L1569.85 336.441L1546.75 370.313L1521.93 403.03L1495.75 434.785L1467.85 465.193L1438.6 494.253L1408 521.967L1376.05 548.333L1342.95 573.16L1308.69 596.447L1273.28 618.194L1236.9 638.402L1199.57 656.685L1172.43 668.424L1164.35 673.236C1109.69 705.76 1055.23 738.67 1000.19 770.617L917.238 818.731C885.812 836.262 850.452 845.532 814.467 845.674C796.542 845.588 778.698 843.259 761.35 838.746C752.726 836.417 744.243 833.588 735.946 830.278C727.765 826.987 719.795 823.196 712.082 818.923L628.942 770.617C573.9 738.67 519.435 705.76 464.778 673.428L454.001 667.077V663.613L428.982 652.451L391.646 633.59L355.272 612.805L319.861 590.48L285.604 566.424L252.309 541.02L220.554 514.076L190.147 485.593L161.086 455.955L133.373 424.778L107.392 392.445L82.7574 359.151L60.048 324.509L38.8779 289.098L19.6325 252.531L2.31177 215.195L23.6742 250.414L46.3836 284.286L70.4403 317.388L95.6518 349.336L122.21 380.128L149.924 409.766L178.984 438.057L208.815 465.193L239.992 490.982L272.324 515.231L305.234 538.325L339.298 559.688L374.133 579.703L409.929 598.179L446.303 615.115L475.363 627.047V654.953L720.165 796.406C748.873 812.953 781.427 821.664 814.564 821.664C847.7 821.664 880.254 812.953 908.962 796.406L1153.76 654.953V630.896L1183.02 619.156L1219.2 602.798L1254.8 585.092L1289.64 565.654L1323.51 544.676L1356.61 522.352L1388.94 498.68L1420.12 473.661L1450.14 447.102L1479.2 419.389L1507.3 390.521L1534.05 360.305L1559.65 329.128L1583.9 296.796L1606.99 263.309L1628.74 229.052Z" fill="black"/>
</g>
</g>
<g style="mix-blend-mode:screen" opacity="0.4">
<g style="mix-blend-mode:screen" opacity="0.4">
<path d="M1530.4 820.66L1493.45 847.411L1452.26 874.355C1424.17 891.675 1395.62 907.97 1366.62 923.238C1337.37 938.442 1307.47 952.298 1276.94 964.808C1246.4 977.317 1215.48 988.736 1184.18 999.065C1121.43 1019.83 1057.06 1035.28 991.721 1045.25C959.004 1050.45 926.094 1054.11 892.992 1056.61C859.313 1059.3 827.366 1060.27 793.879 1060.07C760.777 1060.07 727.674 1058.53 694.572 1056.03L645.112 1051.03L596.036 1044.1L547.153 1035.05L498.654 1024.28L450.733 1011.57L403.197 996.755L356.431 980.204L310.434 961.729L265.015 941.521L220.558 919.581L177.256 895.525L134.723 869.928L93.3457 842.792L70.0585 826.241C78.5562 870.517 103.433 909.962 139.727 936.71C150.697 944.408 162.052 950.951 173.599 958.264L207.856 979.242L274.445 1021.2L147.81 948.064C122.616 933.471 101.322 913.005 85.7405 888.409C70.1588 863.814 60.7513 835.818 58.3188 806.803C272.725 959.627 528.894 1042.91 792.179 1045.39C1055.46 1047.87 1313.16 969.421 1530.4 820.66Z" fill="white"/>
</g>
</g>
<g style="mix-blend-mode:screen" opacity="0.5">
<g style="mix-blend-mode:screen" opacity="0.5">
<path d="M475.373 237.823V422.001C475.373 422.001 468.829 371.771 464.403 296.521C463.056 277.853 461.901 257.26 460.939 235.898C459.472 214.82 455.4 194.005 448.814 173.928C434.195 130.697 407.15 92.7394 371.063 64.8062C352.832 50.8154 332.67 39.536 311.21 31.3192C290.398 23.8976 268.739 19.1131 246.737 17.0775C240.771 17.0775 234.998 16.8851 229.224 16.8851L221.526 16.6928L213.635 17.2701C203.345 17.8083 193.112 19.1595 183.035 21.3114C164.255 25.312 146.03 31.5808 128.763 39.9796C102.362 53.0488 78.4053 70.5608 57.9399 91.7498C50.4342 99.6404 44.6604 105.991 41.0038 110.61C38.3094 114.074 36.3851 116.384 35.6152 117.346C54.7887 84.201 81.7615 56.2359 114.193 35.8783C146.624 15.5207 183.534 3.3859 221.718 0.526733C254.21 -1.63931 286.801 2.89028 317.472 13.8349C348.141 24.7794 376.238 41.9059 400.019 64.1528C423.799 86.3999 442.758 113.293 455.719 143.167C468.681 173.041 475.371 205.257 475.373 237.823Z" fill="white"/>
</g>
</g>
<g style="mix-blend-mode:screen" opacity="0.5">
<g style="mix-blend-mode:screen" opacity="0.5">
<path d="M1500.76 26.602C1498.45 25.8322 1489.98 23.1378 1476.51 19.8661C1455.02 14.6489 1432.99 12.0001 1410.88 11.9754C1396.42 12.0463 1382 13.3989 1367.77 16.017C1360.09 17.2193 1352.5 18.9556 1345.06 21.2133C1341.41 22.368 1337.56 23.3303 1333.71 24.485C1329.86 25.6397 1326.01 27.3718 1322.16 28.719C1306.66 35.0307 1291.78 42.7618 1277.7 51.8135C1263.39 61.4581 1250.17 72.621 1238.25 85.108C1226.07 97.3404 1215.29 110.896 1206.11 125.523C1197.1 139.83 1189.49 154.976 1183.4 170.75C1180.38 178.222 1177.81 185.87 1175.7 193.652C1173.41 200.964 1171.61 208.423 1170.32 215.977C1168.74 223.477 1167.59 231.058 1166.85 238.687L1166.27 244.268C1166.08 245.038 1165.89 246.577 1165.89 246.577L1165.7 249.272C1165.31 252.928 1165.12 256.585 1164.73 260.049C1160.12 316.631 1153.76 354.159 1153.76 354.159V246C1153.03 184.665 1175.48 125.314 1216.62 79.8188C1257.76 34.3236 1314.57 6.03822 1375.66 0.620649C1418.95 -2.3195 1462.22 6.66684 1500.76 26.602Z" fill="white"/>
</g>
</g>
<defs>
<linearGradient id="paint0_linear" x1="814.469" y1="1382.23" x2="814.469" y2="392.998" gradientUnits="userSpaceOnUse">
<stop stop-color="#00F3FF"/>
<stop offset="0.238" stop-color="#00EFFC"/>
<stop offset="0.44" stop-color="#00E5F4"/>
<stop offset="0.629" stop-color="#00D3E7"/>
<stop offset="0.81" stop-color="#00BAD4"/>
<stop offset="0.983" stop-color="#009BBC"/>
<stop offset="1" stop-color="#0098BA"/>
</linearGradient>
<linearGradient id="paint1_linear" x1="238.837" y1="10.3979" x2="238.837" y2="685.609" gradientUnits="userSpaceOnUse">
<stop stop-color="#FCFC53"/>
<stop offset="1" stop-color="#F8A700"/>
</linearGradient>
<linearGradient id="paint2_linear" x1="1391.24" y1="10.5319" x2="1391.24" y2="685.64" gradientUnits="userSpaceOnUse">
<stop stop-color="#FCFC53"/>
<stop offset="1" stop-color="#F8A700"/>
</linearGradient>
</defs>
</svg>
