<svg width="1050" height="600" viewBox="0 0 1050 600" fill="none" xmlns="http://www.w3.org/2000/svg">
<g clip-path="url(#clip0)">
<rect width="1050" height="600" fill="#03ADEC"/>
<g filter="url(#filter0_d)">
<path d="M720.304 214.18C701 374.627 562.644 535.367 462 600H787.73C948 530.846 934 345.771 1050 214.18V0H938.944C744 22.3881 720.304 135.323 720.304 214.18Z" fill="#292F38"/>
</g>
<g filter="url(#filter1_d)">
<path d="M460.405 600C563.021 387.778 447.123 113.574 376.348 3H3V600H460.405Z" fill="#292F38"/>
</g>
<path d="M886.939 246.321V282.041C886.938 284.727 886.23 287.365 884.888 289.691C883.545 292.017 881.615 293.95 879.29 295.295L876.922 296.658L876.909 296.671H876.897C876.884 296.671 876.872 296.683 876.847 296.696L842.12 316.744C839.791 318.084 837.151 318.789 834.464 318.789C831.777 318.789 829.137 318.084 826.808 316.744L789.663 295.295C787.067 293.797 784.971 291.568 783.637 288.885C783.623 288.858 783.607 288.833 783.587 288.81C783.582 288.796 783.574 288.783 783.563 288.773V288.761C783.556 288.754 783.551 288.745 783.55 288.736C782.531 286.651 782.001 284.361 782 282.041V246.842C781.994 246.178 782.044 245.514 782.149 244.858C788.598 257.564 799.421 267.511 812.624 272.866V273.188L828.395 282.301C830.244 283.367 832.341 283.928 834.476 283.928C836.611 283.928 838.708 283.367 840.557 282.301L856.328 273.188V273.102C869.466 267.931 880.321 258.229 886.927 245.751C886.939 245.949 886.939 246.129 886.939 246.321Z" fill="#0088C9"/>
<path d="M812.624 246.321V272.866C799.42 267.51 788.597 257.563 782.149 244.858C782.222 244.228 782.334 243.603 782.484 242.986C782.861 241.428 783.471 239.936 784.294 238.56C785.529 236.424 787.267 234.623 789.356 233.311C791.445 232 793.823 231.218 796.283 231.034C798.376 230.894 800.476 231.186 802.452 231.891C804.427 232.596 806.237 233.7 807.769 235.133C809.301 236.566 810.523 238.299 811.358 240.223C812.193 242.148 812.624 244.223 812.624 246.321Z" fill="white"/>
<path d="M886.926 245.757C880.32 258.235 869.466 267.937 856.327 273.107V246.848C856.28 242.897 857.726 239.073 860.377 236.142C863.027 233.211 866.686 231.389 870.622 231.04C873.411 230.851 876.199 231.43 878.681 232.714C878.685 232.714 878.688 232.715 878.69 232.717C878.693 232.72 878.694 232.723 878.694 232.726C878.705 232.733 878.718 232.737 878.731 232.739C880.745 233.799 882.498 235.293 883.864 237.113C885.23 238.934 886.174 241.035 886.629 243.265C886.798 244.085 886.897 244.919 886.926 245.757Z" fill="white"/>
<g style="mix-blend-mode:multiply" opacity="0.08">
<g style="mix-blend-mode:multiply" opacity="0.08">
<path d="M812.624 260.708V272.871C799.42 267.516 788.597 257.569 782.149 244.863C782.222 244.233 782.334 243.608 782.484 242.991C788.918 247.727 800.405 255.526 812.624 260.708Z" fill="#0088C9"/>
</g>
</g>
<g style="mix-blend-mode:multiply" opacity="0.08">
<g style="mix-blend-mode:multiply" opacity="0.08">
<path d="M886.927 245.757C880.321 258.235 869.466 267.937 856.328 273.108V260.759C867.029 256.035 877.188 250.17 886.629 243.265C886.799 244.086 886.898 244.92 886.927 245.757Z" fill="#0088C9"/>
</g>
</g>
<g style="mix-blend-mode:screen" opacity="0.4">
<g style="mix-blend-mode:screen" opacity="0.4">
<path d="M883.22 281.998V282.047C883.215 284.079 882.677 286.074 881.661 287.834C880.646 289.593 879.187 291.056 877.43 292.077L840.26 313.526C838.497 314.542 836.498 315.076 834.464 315.076C832.429 315.076 830.43 314.542 828.667 313.526L799.78 296.851L799.68 296.789L791.522 292.077C789.899 291.137 788.527 289.819 787.524 288.234C786.52 286.65 785.914 284.846 785.757 282.977C799.57 292.822 816.072 298.187 833.034 298.347C849.995 298.507 866.596 293.453 880.591 283.87L880.715 283.783L880.777 283.746C881.614 283.175 882.414 282.593 883.22 281.998Z" fill="white"/>
</g>
</g>
<g style="mix-blend-mode:screen" opacity="0.6">
<g style="mix-blend-mode:screen" opacity="0.6">
<path d="M783.563 288.766C783.575 288.778 783.575 288.79 783.588 288.815C783.582 288.801 783.574 288.788 783.563 288.778V288.766Z" fill="white"/>
</g>
</g>
<g style="mix-blend-mode:multiply" opacity="0.25">
<g style="mix-blend-mode:multiply" opacity="0.25">
<path d="M876.847 296.701L842.12 316.749C839.791 318.089 837.151 318.794 834.464 318.794C831.777 318.794 829.137 318.089 826.808 316.749L789.663 295.3C787.067 293.802 784.971 291.573 783.637 288.89C783.736 289.063 783.922 289.361 784.195 289.77C784.846 290.698 785.59 291.558 786.414 292.336C787.689 293.524 789.145 294.499 790.729 295.225C792.564 296.167 794.634 297.234 796.866 298.436C801.366 300.792 806.574 303.606 812.116 306.681C814.881 308.231 817.757 309.793 820.646 311.454C822.096 312.285 823.547 313.116 825.01 313.947L827.204 315.199C827.872 315.594 828.568 315.938 829.287 316.228C832.11 317.4 835.243 317.596 838.189 316.786C839.66 316.364 841.066 315.742 842.368 314.938C843.793 314.145 845.194 313.364 846.583 312.595C852.137 309.52 857.345 306.706 861.833 304.35C870.251 299.881 876.14 297.029 876.847 296.701Z" fill="#0088C9"/>
</g>
</g>
<g style="mix-blend-mode:multiply" opacity="0.25">
<g style="mix-blend-mode:multiply" opacity="0.25">
<path d="M886.927 245.755L885.774 248.111L884.509 250.43L883.133 252.674L881.645 254.856L880.046 256.963L878.359 259.009L876.562 260.968L874.677 262.84L872.706 264.626L870.648 266.324L868.515 267.924L866.308 269.424L864.027 270.825L861.684 272.127L859.278 273.304L857.53 274.061L857.01 274.371C853.488 276.466 849.98 278.586 846.434 280.644L841.09 283.744C839.066 284.873 836.788 285.47 834.47 285.479C833.315 285.474 832.165 285.324 831.048 285.033C830.492 284.883 829.946 284.701 829.411 284.488C828.884 284.276 828.371 284.031 827.874 283.756L822.518 280.644C818.972 278.586 815.463 276.466 811.942 274.383L811.248 273.974V273.751L809.636 273.032L807.231 271.817L804.887 270.478L802.606 269.039L800.399 267.49L798.254 265.853L796.209 264.117L794.25 262.282L792.377 260.373L790.592 258.364L788.918 256.282L787.331 254.137L785.868 251.905L784.505 249.624L783.265 247.268L782.149 244.863L783.525 247.132L784.988 249.314L786.538 251.446L788.162 253.504L789.873 255.488L791.658 257.397L793.531 259.22L795.452 260.968L797.461 262.629L799.544 264.192L801.664 265.679L803.858 267.056L806.102 268.345L808.408 269.535L810.752 270.626L812.624 271.395V273.193L828.394 282.306C830.244 283.372 832.341 283.933 834.476 283.933C836.61 283.933 838.708 283.372 840.557 282.306L856.328 273.193V271.643L858.212 270.887L860.543 269.833L862.837 268.692L865.081 267.44L867.263 266.089L869.395 264.65L871.478 263.125L873.487 261.514L875.421 259.803L877.293 258.017L879.103 256.158L880.827 254.211L882.476 252.203L884.038 250.12L885.526 247.962L886.927 245.755Z" fill="#0088C9"/>
</g>
</g>
<g style="mix-blend-mode:screen" opacity="0.4">
<g style="mix-blend-mode:screen" opacity="0.4">
<path d="M880.591 283.868L878.211 285.592L875.558 287.327C873.748 288.443 871.909 289.493 870.04 290.477C868.156 291.456 866.23 292.349 864.263 293.155C862.296 293.96 860.304 294.696 858.287 295.361C854.245 296.699 850.098 297.695 845.889 298.337C843.781 298.672 841.661 298.907 839.528 299.069C837.359 299.242 835.301 299.304 833.143 299.292C831.011 299.292 828.878 299.193 826.746 299.031L823.559 298.709L820.398 298.263L817.249 297.68L814.124 296.986L811.037 296.167L807.975 295.213L804.962 294.146L801.999 292.956L799.073 291.654L796.209 290.241L793.419 288.691L790.679 287.042L788.014 285.294L786.513 284.228C787.061 287.08 788.663 289.621 791.002 291.344C791.708 291.84 792.44 292.262 793.184 292.733L795.391 294.084L799.68 296.787L791.522 292.076C789.899 291.136 788.527 289.817 787.524 288.233C786.52 286.648 785.914 284.845 785.757 282.976C799.57 292.821 816.072 298.186 833.034 298.346C849.995 298.505 866.596 293.452 880.591 283.868Z" fill="white"/>
</g>
</g>
<g style="mix-blend-mode:screen" opacity="0.5">
<g style="mix-blend-mode:screen" opacity="0.5">
<path d="M812.625 246.321V258.186C812.625 258.186 812.203 254.95 811.918 250.102C811.831 248.9 811.757 247.573 811.695 246.197C811.6 244.839 811.338 243.498 810.914 242.205C809.972 239.42 808.23 236.974 805.905 235.175C804.73 234.274 803.432 233.547 802.049 233.018C800.708 232.54 799.313 232.231 797.896 232.1C797.511 232.1 797.139 232.088 796.767 232.088L796.271 232.075L795.763 232.113C795.1 232.147 794.441 232.234 793.792 232.373C792.582 232.631 791.408 233.034 790.295 233.576C788.595 234.418 787.051 235.546 785.733 236.911C785.249 237.419 784.877 237.828 784.642 238.126C784.468 238.349 784.344 238.498 784.295 238.56C785.53 236.424 787.268 234.623 789.357 233.311C791.446 232 793.824 231.218 796.284 231.034C798.377 230.894 800.477 231.186 802.452 231.891C804.428 232.596 806.238 233.7 807.77 235.133C809.302 236.566 810.524 238.299 811.359 240.223C812.194 242.148 812.625 244.223 812.625 246.321Z" fill="white"/>
</g>
</g>
<g style="mix-blend-mode:screen" opacity="0.5">
<g style="mix-blend-mode:screen" opacity="0.5">
<path d="M878.681 232.714C878.533 232.664 877.987 232.491 877.119 232.28C875.735 231.944 874.316 231.773 872.891 231.772C871.96 231.776 871.03 231.863 870.114 232.032C869.619 232.109 869.13 232.221 868.651 232.367C868.416 232.441 868.168 232.503 867.92 232.577C867.672 232.652 867.424 232.763 867.176 232.85C866.177 233.257 865.219 233.755 864.312 234.338C863.39 234.959 862.538 235.678 861.77 236.483C860.985 237.271 860.291 238.144 859.7 239.086C859.119 240.008 858.629 240.984 858.237 242C858.042 242.481 857.876 242.974 857.741 243.476C857.593 243.947 857.477 244.427 857.394 244.914C857.292 245.397 857.218 245.885 857.17 246.377L857.133 246.736C857.121 246.786 857.108 246.885 857.108 246.885L857.096 247.059C857.071 247.294 857.059 247.53 857.034 247.753C856.736 251.398 856.327 253.816 856.327 253.816V246.848C856.28 242.897 857.726 239.073 860.377 236.142C863.027 233.211 866.686 231.389 870.622 231.04C873.411 230.851 876.199 231.43 878.681 232.714Z" fill="white"/>
</g>
</g>
<path d="M751.832 353.458C751.628 355.33 750.957 356.762 749.817 357.755C748.686 358.748 747.177 359.244 745.289 359.244C743.97 359.244 742.802 358.915 741.785 358.255C740.776 357.596 739.995 356.664 739.441 355.46C738.888 354.247 738.607 352.864 738.599 351.31V349.002C738.599 347.424 738.876 346.024 739.429 344.803C739.983 343.583 740.776 342.643 741.81 341.983C742.851 341.316 744.048 340.982 745.398 340.982C747.303 340.982 748.804 341.499 749.903 342.533C751.01 343.558 751.653 344.978 751.832 346.793H750.318C749.944 343.774 748.304 342.264 745.398 342.264C743.787 342.264 742.501 342.866 741.541 344.071C740.589 345.275 740.113 346.939 740.113 349.063V351.236C740.113 353.287 740.577 354.923 741.504 356.144C742.44 357.364 743.702 357.975 745.289 357.975C746.859 357.975 748.043 357.6 748.841 356.852C749.638 356.095 750.131 354.964 750.318 353.458H751.832ZM768.616 351.078C768.616 352.713 768.331 354.15 767.762 355.387C767.2 356.624 766.395 357.576 765.345 358.243C764.295 358.91 763.082 359.244 761.707 359.244C759.632 359.244 757.955 358.504 756.678 357.022C755.4 355.533 754.761 353.527 754.761 351.004V349.173C754.761 347.554 755.046 346.122 755.616 344.876C756.194 343.623 757.007 342.663 758.057 341.996C759.107 341.32 760.315 340.982 761.683 340.982C763.05 340.982 764.254 341.312 765.296 341.971C766.346 342.63 767.155 343.562 767.725 344.767C768.295 345.971 768.592 347.367 768.616 348.954V351.078ZM767.115 349.149C767.115 347.009 766.631 345.332 765.662 344.12C764.694 342.907 763.367 342.301 761.683 342.301C760.031 342.301 758.712 342.911 757.728 344.132C756.751 345.344 756.263 347.041 756.263 349.222V351.078C756.263 353.185 756.751 354.858 757.728 356.095C758.704 357.324 760.031 357.938 761.707 357.938C763.408 357.938 764.734 357.332 765.687 356.119C766.639 354.898 767.115 353.202 767.115 351.029V349.149ZM774.39 341.227L780.945 356.913L787.525 341.227H789.527V359H788.025V351.261L788.147 343.326L781.531 359H780.372L773.78 343.387L773.902 351.212V359H772.4V341.227H774.39ZM795.533 351.761V359H794.031V341.227H800.086C801.933 341.227 803.39 341.699 804.456 342.643C805.53 343.587 806.067 344.885 806.067 346.537C806.067 348.205 805.551 349.495 804.517 350.406C803.492 351.31 802.002 351.761 800.049 351.761H795.533ZM795.533 350.492H800.086C801.543 350.492 802.653 350.146 803.418 349.454C804.183 348.762 804.566 347.798 804.566 346.561C804.566 345.332 804.183 344.356 803.418 343.631C802.662 342.899 801.583 342.525 800.184 342.508H795.533V350.492ZM817.347 354.02H809.278L807.447 359H805.872L812.598 341.227H814.026L820.752 359H819.19L817.347 354.02ZM809.742 352.738H816.871L813.306 343.058L809.742 352.738ZM836.609 359H835.108L824.891 343.79V359H823.377V341.227H824.891L835.12 356.449V341.227H836.609V359ZM845.997 350.919L851.429 341.227H853.162L846.741 352.311V359H845.24V352.311L838.831 341.227H840.613L845.997 350.919ZM863.343 357.73H872.12V359H861.829V341.227H863.343V357.73ZM887.342 351.078C887.342 352.713 887.057 354.15 886.487 355.387C885.926 356.624 885.12 357.576 884.07 358.243C883.021 358.91 881.808 359.244 880.433 359.244C878.357 359.244 876.681 358.504 875.403 357.022C874.126 355.533 873.487 353.527 873.487 351.004V349.173C873.487 347.554 873.772 346.122 874.341 344.876C874.919 343.623 875.733 342.663 876.783 341.996C877.833 341.32 879.041 340.982 880.408 340.982C881.775 340.982 882.98 341.312 884.021 341.971C885.071 342.63 885.881 343.562 886.451 344.767C887.02 345.971 887.317 347.367 887.342 348.954V351.078ZM885.84 349.149C885.84 347.009 885.356 345.332 884.388 344.12C883.419 342.907 882.093 342.301 880.408 342.301C878.756 342.301 877.438 342.911 876.453 344.132C875.477 345.344 874.988 347.041 874.988 349.222V351.078C874.988 353.185 875.477 354.858 876.453 356.095C877.43 357.324 878.756 357.938 880.433 357.938C882.133 357.938 883.46 357.332 884.412 356.119C885.364 354.898 885.84 353.202 885.84 351.029V349.149ZM903.956 356.888C903.435 357.629 902.617 358.207 901.502 358.622C900.395 359.037 899.154 359.244 897.779 359.244C896.387 359.244 895.15 358.91 894.068 358.243C892.986 357.576 892.147 356.632 891.553 355.411C890.959 354.19 890.658 352.791 890.65 351.212V348.966C890.65 346.5 891.272 344.555 892.518 343.131C893.763 341.699 895.435 340.982 897.535 340.982C899.366 340.982 900.839 341.45 901.954 342.386C903.069 343.314 903.732 344.596 903.943 346.231H902.442C902.222 344.929 901.689 343.945 900.843 343.277C900.005 342.602 898.906 342.264 897.547 342.264C895.887 342.264 894.572 342.854 893.604 344.034C892.636 345.214 892.151 346.878 892.151 349.027V351.126C892.151 352.477 892.379 353.674 892.835 354.715C893.299 355.749 893.958 356.55 894.812 357.12C895.675 357.69 896.664 357.975 897.779 357.975C899.073 357.975 900.184 357.771 901.111 357.364C901.714 357.096 902.161 356.782 902.454 356.424V351.834H897.681V350.565H903.956V356.888ZM921.351 351.078C921.351 352.713 921.066 354.15 920.496 355.387C919.935 356.624 919.129 357.576 918.079 358.243C917.029 358.91 915.817 359.244 914.441 359.244C912.366 359.244 910.69 358.504 909.412 357.022C908.134 355.533 907.496 353.527 907.496 351.004V349.173C907.496 347.554 907.78 346.122 908.35 344.876C908.928 343.623 909.742 342.663 910.792 341.996C911.841 341.32 913.05 340.982 914.417 340.982C915.784 340.982 916.989 341.312 918.03 341.971C919.08 342.63 919.89 343.562 920.459 344.767C921.029 345.971 921.326 347.367 921.351 348.954V351.078ZM919.849 349.149C919.849 347.009 919.365 345.332 918.396 344.12C917.428 342.907 916.102 342.301 914.417 342.301C912.765 342.301 911.447 342.911 910.462 344.132C909.485 345.344 908.997 347.041 908.997 349.222V351.078C908.997 353.185 909.485 354.858 910.462 356.095C911.438 357.324 912.765 357.938 914.441 357.938C916.142 357.938 917.469 357.332 918.421 356.119C919.373 354.898 919.849 353.202 919.849 351.029V349.149Z" fill="white"/>
<path d="M747.383 376.378C747.383 375.787 747.175 375.321 746.76 374.979C746.345 374.632 745.586 374.305 744.482 373.998C743.379 373.685 742.573 373.346 742.065 372.979C741.343 372.462 740.981 371.783 740.981 370.943C740.981 370.128 741.316 369.466 741.985 368.958C742.659 368.446 743.518 368.189 744.563 368.189C745.271 368.189 745.903 368.326 746.46 368.6C747.021 368.873 747.456 369.254 747.764 369.742C748.071 370.23 748.225 370.775 748.225 371.375H747.317C747.317 370.648 747.068 370.064 746.57 369.625C746.072 369.181 745.403 368.958 744.563 368.958C743.748 368.958 743.098 369.142 742.615 369.508C742.131 369.869 741.89 370.343 741.89 370.929C741.89 371.471 742.107 371.913 742.542 372.254C742.976 372.596 743.672 372.899 744.629 373.163C745.586 373.421 746.311 373.692 746.804 373.976C747.297 374.254 747.668 374.588 747.917 374.979C748.167 375.37 748.291 375.831 748.291 376.363C748.291 377.203 747.954 377.877 747.28 378.385C746.611 378.893 745.728 379.146 744.629 379.146C743.877 379.146 743.186 379.012 742.556 378.744C741.931 378.475 741.455 378.099 741.128 377.616C740.806 377.132 740.645 376.578 740.645 375.953H741.545C741.545 376.705 741.826 377.298 742.388 377.733C742.949 378.167 743.696 378.385 744.629 378.385C745.459 378.385 746.125 378.202 746.628 377.835C747.131 377.469 747.383 376.983 747.383 376.378ZM754.795 378.238H760.061V379H753.887V368.336H754.795V378.238ZM773.325 374.247C773.325 375.228 773.154 376.09 772.812 376.832C772.476 377.574 771.992 378.146 771.362 378.546C770.732 378.946 770.005 379.146 769.18 379.146C767.935 379.146 766.929 378.702 766.162 377.813C765.396 376.92 765.012 375.716 765.012 374.203V373.104C765.012 372.132 765.183 371.273 765.525 370.526C765.872 369.774 766.36 369.198 766.99 368.797C767.62 368.392 768.345 368.189 769.165 368.189C769.985 368.189 770.708 368.387 771.333 368.783C771.963 369.178 772.449 369.737 772.791 370.46C773.132 371.183 773.311 372.02 773.325 372.972V374.247ZM772.424 373.089C772.424 371.805 772.134 370.799 771.553 370.072C770.972 369.344 770.176 368.98 769.165 368.98C768.174 368.98 767.383 369.347 766.792 370.079C766.206 370.807 765.913 371.825 765.913 373.133V374.247C765.913 375.511 766.206 376.515 766.792 377.257C767.378 377.994 768.174 378.363 769.18 378.363C770.2 378.363 770.996 377.999 771.567 377.271C772.139 376.539 772.424 375.521 772.424 374.217V373.089ZM786.941 377.733C786.628 378.177 786.138 378.524 785.469 378.773C784.805 379.022 784.06 379.146 783.235 379.146C782.4 379.146 781.658 378.946 781.008 378.546C780.359 378.146 779.856 377.579 779.5 376.847C779.143 376.114 778.962 375.274 778.958 374.327V372.979C778.958 371.5 779.331 370.333 780.078 369.479C780.825 368.619 781.829 368.189 783.088 368.189C784.187 368.189 785.071 368.47 785.74 369.032C786.409 369.588 786.807 370.357 786.934 371.339H786.033C785.901 370.558 785.581 369.967 785.073 369.566C784.57 369.161 783.911 368.958 783.096 368.958C782.1 368.958 781.311 369.312 780.73 370.021C780.149 370.729 779.858 371.727 779.858 373.016V374.276C779.858 375.086 779.995 375.804 780.269 376.429C780.547 377.049 780.942 377.53 781.455 377.872C781.973 378.214 782.566 378.385 783.235 378.385C784.011 378.385 784.678 378.263 785.234 378.019C785.596 377.857 785.864 377.669 786.04 377.455V374.701H783.176V373.939H786.941V377.733ZM798.901 376.012H794.06L792.961 379H792.017L796.052 368.336H796.909L800.945 379H800.007L798.901 376.012ZM794.338 375.243H798.616L796.477 369.435L794.338 375.243ZM814.106 379H813.206L807.075 369.874V379H806.167V368.336H807.075L813.213 377.469V368.336H814.106V379ZM828.162 377.733C827.849 378.177 827.358 378.524 826.689 378.773C826.025 379.022 825.281 379.146 824.456 379.146C823.621 379.146 822.878 378.946 822.229 378.546C821.58 378.146 821.077 377.579 820.72 376.847C820.364 376.114 820.183 375.274 820.178 374.327V372.979C820.178 371.5 820.552 370.333 821.299 369.479C822.046 368.619 823.049 368.189 824.309 368.189C825.408 368.189 826.292 368.47 826.96 369.032C827.629 369.588 828.027 370.357 828.154 371.339H827.253C827.122 370.558 826.802 369.967 826.294 369.566C825.791 369.161 825.132 368.958 824.316 368.958C823.32 368.958 822.532 369.312 821.951 370.021C821.37 370.729 821.079 371.727 821.079 373.016V374.276C821.079 375.086 821.216 375.804 821.489 376.429C821.768 377.049 822.163 377.53 822.676 377.872C823.193 378.214 823.787 378.385 824.456 378.385C825.232 378.385 825.898 378.263 826.455 378.019C826.816 377.857 827.085 377.669 827.261 377.455V374.701H824.397V373.939H828.162V377.733ZM842.246 374.247C842.246 375.228 842.075 376.09 841.733 376.832C841.396 377.574 840.913 378.146 840.283 378.546C839.653 378.946 838.926 379.146 838.101 379.146C836.855 379.146 835.85 378.702 835.083 377.813C834.316 376.92 833.933 375.716 833.933 374.203V373.104C833.933 372.132 834.104 371.273 834.446 370.526C834.792 369.774 835.281 369.198 835.911 368.797C836.541 368.392 837.266 368.189 838.086 368.189C838.906 368.189 839.629 368.387 840.254 368.783C840.884 369.178 841.37 369.737 841.711 370.46C842.053 371.183 842.231 372.02 842.246 372.972V374.247ZM841.345 373.089C841.345 371.805 841.055 370.799 840.474 370.072C839.893 369.344 839.097 368.98 838.086 368.98C837.095 368.98 836.304 369.347 835.713 370.079C835.127 370.807 834.834 371.825 834.834 373.133V374.247C834.834 375.511 835.127 376.515 835.713 377.257C836.299 377.994 837.095 378.363 838.101 378.363C839.121 378.363 839.917 377.999 840.488 377.271C841.06 376.539 841.345 375.521 841.345 374.217V373.089ZM854.053 373.888H849.065V378.238H854.8V379H848.164V368.336H854.763V369.105H849.065V373.126H854.053V373.888ZM866.387 376.378C866.387 375.787 866.179 375.321 865.764 374.979C865.349 374.632 864.59 374.305 863.486 373.998C862.383 373.685 861.577 373.346 861.069 372.979C860.347 372.462 859.985 371.783 859.985 370.943C859.985 370.128 860.32 369.466 860.989 368.958C861.663 368.446 862.522 368.189 863.567 368.189C864.275 368.189 864.907 368.326 865.464 368.6C866.025 368.873 866.46 369.254 866.768 369.742C867.075 370.23 867.229 370.775 867.229 371.375H866.321C866.321 370.648 866.072 370.064 865.574 369.625C865.076 369.181 864.407 368.958 863.567 368.958C862.751 368.958 862.102 369.142 861.619 369.508C861.135 369.869 860.894 370.343 860.894 370.929C860.894 371.471 861.111 371.913 861.545 372.254C861.98 372.596 862.676 372.899 863.633 373.163C864.59 373.421 865.315 373.692 865.808 373.976C866.301 374.254 866.672 374.588 866.921 374.979C867.17 375.37 867.295 375.831 867.295 376.363C867.295 377.203 866.958 377.877 866.284 378.385C865.615 378.893 864.731 379.146 863.633 379.146C862.881 379.146 862.19 379.012 861.56 378.744C860.935 378.475 860.459 378.099 860.132 377.616C859.81 377.132 859.648 376.578 859.648 375.953H860.549C860.549 376.705 860.83 377.298 861.392 377.733C861.953 378.167 862.7 378.385 863.633 378.385C864.463 378.385 865.129 378.202 865.632 377.835C866.135 377.469 866.387 376.983 866.387 376.378ZM880.793 379H879.885V373.888H873.792V379H872.891V368.336H873.792V373.126H879.885V368.336H880.793V379ZM893.047 373.888H888.059V378.238H893.794V379H887.158V368.336H893.757V369.105H888.059V373.126H893.047V373.888ZM903.33 374.562H900.232V379H899.324V368.336H902.788C903.926 368.336 904.814 368.612 905.454 369.164C906.094 369.715 906.414 370.487 906.414 371.478C906.414 372.162 906.213 372.765 905.813 373.287C905.413 373.81 904.875 374.171 904.202 374.371L906.868 378.905V379H905.908L903.33 374.562ZM900.232 373.792H902.993C903.75 373.792 904.358 373.578 904.817 373.148C905.276 372.718 905.505 372.162 905.505 371.478C905.505 370.726 905.266 370.143 904.788 369.728C904.309 369.312 903.638 369.105 902.773 369.105H900.232V373.792ZM918.403 373.888H913.416V378.238H919.15V379H912.515V368.336H919.114V369.105H913.416V373.126H918.403V373.888Z" fill="white"/>
<path d="M120.456 90H115.329L105.349 73.6279V90H100.222V65.1172H105.349L115.346 81.5234V65.1172H120.456V90ZM139.289 84.873H130.3L128.591 90H123.139L132.402 65.1172H137.153L146.467 90H141.015L139.289 84.873ZM131.684 80.7202H137.905L134.777 71.4062L131.684 80.7202ZM155.49 65.1172L161.882 83.1641L168.239 65.1172H174.973V90H169.829V83.1982L170.341 71.4575L163.625 90H160.104L153.405 71.4746L153.918 83.1982V90H148.791V65.1172H155.49ZM194.421 79.2163H184.577V85.8813H196.13V90H179.45V65.1172H196.096V69.27H184.577V75.2002H194.421V79.2163Z" fill="white"/>
<path d="M208.187 87.3169H219.979V90H204.888V65.1172H208.187V87.3169ZM237.803 83.5059H227.378L225.037 90H221.653L231.155 65.1172H234.026L243.545 90H240.179L237.803 83.5059ZM228.37 80.8057H236.829L232.591 69.1675L228.37 80.8057ZM254.227 78.9087C251.412 78.0998 249.362 77.1086 248.074 75.9351C246.798 74.7502 246.16 73.2918 246.16 71.5601C246.16 69.6004 246.941 67.9826 248.501 66.7065C250.074 65.4191 252.113 64.7754 254.62 64.7754C256.329 64.7754 257.85 65.1058 259.183 65.7666C260.527 66.4274 261.564 67.3389 262.293 68.501C263.034 69.6631 263.404 70.9334 263.404 72.312H260.105C260.105 70.8081 259.627 69.6289 258.67 68.7744C257.713 67.9085 256.363 67.4756 254.62 67.4756C253.002 67.4756 251.737 67.8345 250.826 68.5522C249.926 69.2586 249.476 70.2441 249.476 71.5088C249.476 72.5228 249.903 73.383 250.757 74.0894C251.623 74.7843 253.087 75.4224 255.149 76.0034C257.223 76.5845 258.841 77.2282 260.003 77.9346C261.176 78.6296 262.042 79.4442 262.601 80.3784C263.17 81.3127 263.455 82.4121 263.455 83.6768C263.455 85.6934 262.669 87.3112 261.097 88.5303C259.524 89.738 257.422 90.3418 254.791 90.3418C253.082 90.3418 251.486 90.0171 250.005 89.3677C248.524 88.7069 247.379 87.8068 246.57 86.6675C245.773 85.5282 245.374 84.235 245.374 82.7881H248.672C248.672 84.292 249.225 85.4826 250.33 86.3599C251.447 87.2257 252.933 87.6587 254.791 87.6587C256.522 87.6587 257.85 87.3055 258.772 86.5991C259.695 85.8927 260.157 84.93 260.157 83.7109C260.157 82.4919 259.729 81.5519 258.875 80.8911C258.021 80.2189 256.471 79.5581 254.227 78.9087ZM284.869 67.8174H276.871V90H273.606V67.8174H265.625V65.1172H284.869V67.8174ZM307.684 90H304.385L291.858 70.8252V90H288.56V65.1172H291.858L304.419 84.3774V65.1172H307.684V90ZM327.559 83.5059H317.134L314.793 90H311.409L320.911 65.1172H323.782L333.301 90H329.935L327.559 83.5059ZM318.125 80.8057H326.585L322.347 69.1675L318.125 80.8057ZM340.889 65.1172L349.024 85.4199L357.159 65.1172H361.414V90H358.133V80.3101L358.44 69.8511L350.271 90H347.759L339.607 69.9023L339.932 80.3101V90H336.651V65.1172H340.889ZM381.272 78.4985H370.489V87.3169H383.016V90H367.208V65.1172H382.845V67.8174H370.489V75.8154H381.272V78.4985Z" fill="#03ADEC"/>
<circle cx="51" cy="90" r="32" fill="#0088C9"/>
<path d="M38 108.8H64.2857V102.229C64.2829 99.7897 63.3127 97.4512 61.588 95.7265C59.8633 94.0018 57.5248 93.0316 55.0857 93.0288H47.2C44.7609 93.0316 42.4224 94.0018 40.6977 95.7265C38.973 97.4512 38.0028 99.7897 38 102.229V108.8Z" fill="white"/>
<path d="M41.9429 81.2C41.9429 83.0196 42.4824 84.7983 43.4933 86.3112C44.5043 87.8242 45.9411 89.0034 47.6222 89.6997C49.3033 90.396 51.1531 90.5782 52.9377 90.2232C54.7223 89.8682 56.3616 88.992 57.6482 87.7054C58.9349 86.4187 59.8111 84.7795 60.1661 82.9948C60.5211 81.2102 60.3389 79.3604 59.6426 77.6793C58.9462 75.9982 57.767 74.5614 56.2541 73.5505C54.7412 72.5396 52.9625 72 51.1429 72C48.7029 72 46.3628 72.9693 44.6375 74.6946C42.9122 76.42 41.9429 78.76 41.9429 81.2Z" fill="white"/>
<path d="M101.389 102.781L106.633 115.33L111.896 102.781H113.498V117H112.297V110.809L112.395 104.461L107.102 117H106.174L100.9 104.51L100.998 110.77V117H99.7969V102.781H101.389ZM124.953 113.016H118.498L117.033 117H115.773L121.154 102.781H122.297L127.678 117H126.428L124.953 113.016ZM118.869 111.99H124.572L121.721 104.246L118.869 111.99ZM140.363 117H139.162L130.988 104.832V117H129.777V102.781H130.988L139.172 114.959V102.781H140.363V117ZM151.828 113.016H145.373L143.908 117H142.648L148.029 102.781H149.172L154.553 117H153.303L151.828 113.016ZM145.744 111.99H151.447L148.596 104.246L145.744 111.99ZM166.799 115.311C166.382 115.903 165.728 116.365 164.836 116.697C163.951 117.029 162.958 117.195 161.857 117.195C160.744 117.195 159.755 116.928 158.889 116.395C158.023 115.861 157.352 115.105 156.877 114.129C156.402 113.152 156.161 112.033 156.154 110.77V108.973C156.154 107 156.652 105.444 157.648 104.305C158.645 103.159 159.982 102.586 161.662 102.586C163.127 102.586 164.305 102.96 165.197 103.709C166.089 104.451 166.62 105.477 166.789 106.785H165.588C165.412 105.743 164.986 104.956 164.309 104.422C163.638 103.882 162.759 103.611 161.672 103.611C160.344 103.611 159.292 104.083 158.518 105.027C157.743 105.971 157.355 107.303 157.355 109.021V110.701C157.355 111.782 157.538 112.739 157.902 113.572C158.273 114.399 158.801 115.04 159.484 115.496C160.174 115.952 160.965 116.18 161.857 116.18C162.893 116.18 163.781 116.017 164.523 115.691C165.005 115.477 165.363 115.226 165.598 114.939V111.268H161.779V110.252H166.799V115.311ZM178.059 110.184H171.408V115.984H179.055V117H170.207V102.781H179.006V103.807H171.408V109.168H178.059V110.184ZM186.906 111.082H182.775V117H181.564V102.781H186.184C187.701 102.781 188.885 103.149 189.738 103.885C190.591 104.62 191.018 105.649 191.018 106.971C191.018 107.882 190.751 108.686 190.217 109.383C189.683 110.079 188.967 110.561 188.068 110.828L191.623 116.873V117H190.344L186.906 111.082ZM182.775 110.057H186.457C187.466 110.057 188.277 109.77 188.889 109.197C189.501 108.624 189.807 107.882 189.807 106.971C189.807 105.968 189.488 105.19 188.85 104.637C188.212 104.083 187.316 103.807 186.164 103.807H182.775V110.057Z" fill="white"/>
<path d="M105.119 266H103.303V253.959L99.6602 255.297V253.656L104.836 251.713H105.119V266ZM119.729 266H110.412V264.701L115.334 259.232C116.063 258.406 116.564 257.735 116.838 257.221C117.118 256.7 117.258 256.163 117.258 255.609C117.258 254.867 117.033 254.258 116.584 253.783C116.135 253.308 115.536 253.07 114.787 253.07C113.889 253.07 113.189 253.327 112.688 253.842C112.193 254.35 111.945 255.059 111.945 255.971H110.139C110.139 254.662 110.559 253.604 111.398 252.797C112.245 251.99 113.374 251.586 114.787 251.586C116.109 251.586 117.154 251.934 117.922 252.631C118.69 253.321 119.074 254.242 119.074 255.395C119.074 256.794 118.182 258.461 116.398 260.395L112.59 264.525H119.729V266ZM124.27 258.012H125.627C126.48 257.999 127.15 257.774 127.639 257.338C128.127 256.902 128.371 256.312 128.371 255.57C128.371 253.904 127.541 253.07 125.881 253.07C125.1 253.07 124.475 253.295 124.006 253.744C123.544 254.187 123.312 254.776 123.312 255.512H121.506C121.506 254.385 121.916 253.451 122.736 252.709C123.563 251.96 124.611 251.586 125.881 251.586C127.222 251.586 128.273 251.941 129.035 252.65C129.797 253.36 130.178 254.346 130.178 255.609C130.178 256.228 129.976 256.827 129.572 257.406C129.175 257.986 128.632 258.419 127.941 258.705C128.723 258.952 129.325 259.363 129.748 259.936C130.178 260.508 130.393 261.208 130.393 262.035C130.393 263.311 129.976 264.324 129.143 265.072C128.309 265.821 127.225 266.195 125.891 266.195C124.556 266.195 123.469 265.834 122.629 265.111C121.796 264.389 121.379 263.435 121.379 262.25H123.195C123.195 262.999 123.439 263.598 123.928 264.047C124.416 264.496 125.07 264.721 125.891 264.721C126.763 264.721 127.43 264.493 127.893 264.037C128.355 263.581 128.586 262.927 128.586 262.074C128.586 261.247 128.332 260.613 127.824 260.17C127.316 259.727 126.584 259.499 125.627 259.486H124.27V258.012ZM146.154 262.289H140.197L138.859 266H136.926L142.355 251.781H143.996L149.436 266H147.512L146.154 262.289ZM140.764 260.746H145.598L143.176 254.096L140.764 260.746ZM155.197 263.51L159.26 251.781H161.311L156.037 266H154.377L149.113 251.781H151.154L155.197 263.51ZM171.262 259.428H165.1V264.467H172.258V266H163.225V251.781H172.16V253.324H165.1V257.895H171.262V259.428ZM184.768 260.248H181.428V266H179.543V251.781H184.25C185.852 251.781 187.082 252.146 187.941 252.875C188.807 253.604 189.24 254.665 189.24 256.059C189.24 256.944 188.999 257.715 188.518 258.373C188.042 259.031 187.378 259.522 186.525 259.848L189.865 265.883V266H187.854L184.768 260.248ZM181.428 258.715H184.309C185.24 258.715 185.979 258.474 186.525 257.992C187.079 257.51 187.355 256.866 187.355 256.059C187.355 255.18 187.092 254.506 186.564 254.037C186.044 253.568 185.288 253.331 184.299 253.324H181.428V258.715ZM201.887 251.781V261.449C201.88 262.79 201.457 263.887 200.617 264.74C199.784 265.593 198.651 266.072 197.219 266.176L196.721 266.195C195.165 266.195 193.924 265.775 193 264.936C192.076 264.096 191.607 262.94 191.594 261.469V251.781H193.449V261.41C193.449 262.439 193.732 263.24 194.299 263.812C194.865 264.379 195.673 264.662 196.721 264.662C197.782 264.662 198.592 264.379 199.152 263.812C199.719 263.246 200.002 262.449 200.002 261.42V251.781H201.887ZM209.035 259.662C207.427 259.2 206.255 258.633 205.52 257.963C204.79 257.286 204.426 256.452 204.426 255.463C204.426 254.343 204.872 253.419 205.764 252.689C206.662 251.954 207.827 251.586 209.26 251.586C210.236 251.586 211.105 251.775 211.867 252.152C212.635 252.53 213.228 253.051 213.645 253.715C214.068 254.379 214.279 255.105 214.279 255.893H212.395C212.395 255.033 212.121 254.359 211.574 253.871C211.027 253.376 210.256 253.129 209.26 253.129C208.335 253.129 207.613 253.334 207.092 253.744C206.577 254.148 206.32 254.711 206.32 255.434C206.32 256.013 206.564 256.505 207.053 256.908C207.548 257.305 208.384 257.67 209.562 258.002C210.747 258.334 211.672 258.702 212.336 259.105C213.007 259.503 213.501 259.968 213.82 260.502C214.146 261.036 214.309 261.664 214.309 262.387C214.309 263.539 213.859 264.464 212.961 265.16C212.062 265.85 210.861 266.195 209.357 266.195C208.381 266.195 207.469 266.01 206.623 265.639C205.777 265.261 205.122 264.747 204.66 264.096C204.204 263.445 203.977 262.706 203.977 261.879H205.861C205.861 262.738 206.177 263.419 206.809 263.92C207.447 264.415 208.296 264.662 209.357 264.662C210.347 264.662 211.105 264.46 211.633 264.057C212.16 263.653 212.424 263.103 212.424 262.406C212.424 261.71 212.18 261.173 211.691 260.795C211.203 260.411 210.318 260.033 209.035 259.662ZM226.545 253.324H221.975V266H220.109V253.324H215.549V251.781H226.545V253.324ZM235.725 262.289H229.768L228.43 266H226.496L231.926 251.781H233.566L239.006 266H237.082L235.725 262.289ZM230.334 260.746H235.168L232.746 254.096L230.334 260.746ZM244.768 263.51L248.83 251.781H250.881L245.607 266H243.947L238.684 251.781H240.725L244.768 263.51ZM260.832 259.428H254.67V264.467H261.828V266H252.795V251.781H261.73V253.324H254.67V257.895H260.832V259.428ZM266.047 264.467H272.785V266H264.162V251.781H266.047V264.467ZM276.936 266H275.061V251.781H276.936V266ZM109.475 276.324H104.904V289H103.039V276.324H98.4785V274.781H109.475V276.324ZM111.584 289V274.781H116.232C117.775 274.781 118.934 275.1 119.709 275.738C120.49 276.376 120.881 277.32 120.881 278.57C120.881 279.234 120.692 279.824 120.314 280.338C119.937 280.846 119.423 281.24 118.771 281.52C119.54 281.734 120.145 282.145 120.588 282.75C121.037 283.349 121.262 284.065 121.262 284.898C121.262 286.174 120.848 287.177 120.021 287.906C119.195 288.635 118.026 289 116.516 289H111.584ZM113.459 282.35V287.467H116.555C117.427 287.467 118.114 287.242 118.615 286.793C119.123 286.337 119.377 285.712 119.377 284.918C119.377 283.206 118.446 282.35 116.584 282.35H113.459ZM113.459 280.846H116.291C117.111 280.846 117.766 280.641 118.254 280.23C118.749 279.82 118.996 279.264 118.996 278.561C118.996 277.779 118.768 277.213 118.312 276.861C117.857 276.503 117.163 276.324 116.232 276.324H113.459V280.846ZM126.057 289H124.182V274.781H126.057V289ZM131.379 287.467H138.117V289H129.494V274.781H131.379V287.467ZM142.268 289H140.393V274.781H142.268V289ZM149.895 282.662C148.286 282.2 147.115 281.633 146.379 280.963C145.65 280.286 145.285 279.452 145.285 278.463C145.285 277.343 145.731 276.419 146.623 275.689C147.521 274.954 148.687 274.586 150.119 274.586C151.096 274.586 151.965 274.775 152.727 275.152C153.495 275.53 154.087 276.051 154.504 276.715C154.927 277.379 155.139 278.105 155.139 278.893H153.254C153.254 278.033 152.98 277.359 152.434 276.871C151.887 276.376 151.115 276.129 150.119 276.129C149.195 276.129 148.472 276.334 147.951 276.744C147.437 277.148 147.18 277.711 147.18 278.434C147.18 279.013 147.424 279.505 147.912 279.908C148.407 280.305 149.243 280.67 150.422 281.002C151.607 281.334 152.531 281.702 153.195 282.105C153.866 282.503 154.361 282.968 154.68 283.502C155.005 284.036 155.168 284.664 155.168 285.387C155.168 286.539 154.719 287.464 153.82 288.16C152.922 288.85 151.721 289.195 150.217 289.195C149.24 289.195 148.329 289.01 147.482 288.639C146.636 288.261 145.982 287.747 145.52 287.096C145.064 286.445 144.836 285.706 144.836 284.879H146.721C146.721 285.738 147.036 286.419 147.668 286.92C148.306 287.415 149.156 287.662 150.217 287.662C151.206 287.662 151.965 287.46 152.492 287.057C153.02 286.653 153.283 286.103 153.283 285.406C153.283 284.71 153.039 284.173 152.551 283.795C152.062 283.411 151.177 283.033 149.895 282.662ZM159.592 289H157.717V274.781H159.592V289Z" fill="white"/>
<path d="M104.543 369.373H108.508V371.082H104.543V375.574H102.727V371.082H98.7617V369.373H102.727V365.223H104.543V369.373ZM117.453 370.75C117.076 371.199 116.623 371.561 116.096 371.834C115.575 372.107 115.002 372.244 114.377 372.244C113.557 372.244 112.84 372.042 112.229 371.639C111.623 371.235 111.154 370.669 110.822 369.939C110.49 369.204 110.324 368.393 110.324 367.508C110.324 366.557 110.503 365.701 110.861 364.939C111.226 364.178 111.74 363.595 112.404 363.191C113.068 362.788 113.843 362.586 114.729 362.586C116.135 362.586 117.242 363.113 118.049 364.168C118.863 365.216 119.27 366.648 119.27 368.465V368.992C119.27 371.759 118.723 373.781 117.629 375.057C116.535 376.326 114.885 376.977 112.678 377.01H112.326V375.486H112.707C114.198 375.46 115.344 375.073 116.145 374.324C116.945 373.569 117.382 372.378 117.453 370.75ZM114.67 370.75C115.275 370.75 115.832 370.564 116.34 370.193C116.854 369.822 117.229 369.363 117.463 368.816V368.094C117.463 366.909 117.206 365.945 116.691 365.203C116.177 364.461 115.526 364.09 114.738 364.09C113.944 364.09 113.306 364.396 112.824 365.008C112.342 365.613 112.102 366.414 112.102 367.41C112.102 368.38 112.333 369.181 112.795 369.812C113.264 370.438 113.889 370.75 114.67 370.75ZM128.684 370.75C128.306 371.199 127.854 371.561 127.326 371.834C126.805 372.107 126.232 372.244 125.607 372.244C124.787 372.244 124.071 372.042 123.459 371.639C122.854 371.235 122.385 370.669 122.053 369.939C121.721 369.204 121.555 368.393 121.555 367.508C121.555 366.557 121.734 365.701 122.092 364.939C122.456 364.178 122.971 363.595 123.635 363.191C124.299 362.788 125.074 362.586 125.959 362.586C127.365 362.586 128.472 363.113 129.279 364.168C130.093 365.216 130.5 366.648 130.5 368.465V368.992C130.5 371.759 129.953 373.781 128.859 375.057C127.766 376.326 126.115 376.977 123.908 377.01H123.557V375.486H123.938C125.428 375.46 126.574 375.073 127.375 374.324C128.176 373.569 128.612 372.378 128.684 370.75ZM125.9 370.75C126.506 370.75 127.062 370.564 127.57 370.193C128.085 369.822 128.459 369.363 128.693 368.816V368.094C128.693 366.909 128.436 365.945 127.922 365.203C127.408 364.461 126.757 364.09 125.969 364.09C125.174 364.09 124.536 364.396 124.055 365.008C123.573 365.613 123.332 366.414 123.332 367.41C123.332 368.38 123.563 369.181 124.025 369.812C124.494 370.438 125.119 370.75 125.9 370.75ZM133.82 369.871L134.543 362.781H141.828V364.451H136.076L135.646 368.328C136.343 367.918 137.134 367.713 138.02 367.713C139.315 367.713 140.344 368.143 141.105 369.002C141.867 369.855 142.248 371.01 142.248 372.469C142.248 373.934 141.851 375.089 141.057 375.936C140.269 376.775 139.165 377.195 137.746 377.195C136.49 377.195 135.464 376.847 134.67 376.15C133.876 375.454 133.423 374.49 133.312 373.26H135.021C135.132 374.074 135.422 374.689 135.891 375.105C136.359 375.516 136.978 375.721 137.746 375.721C138.586 375.721 139.243 375.434 139.719 374.861C140.201 374.288 140.441 373.497 140.441 372.488C140.441 371.538 140.181 370.776 139.66 370.203C139.146 369.624 138.459 369.334 137.6 369.334C136.812 369.334 136.193 369.507 135.744 369.852L135.266 370.242L133.82 369.871ZM158.498 377H149.182V375.701L154.104 370.232C154.833 369.406 155.334 368.735 155.607 368.221C155.887 367.7 156.027 367.163 156.027 366.609C156.027 365.867 155.803 365.258 155.354 364.783C154.904 364.308 154.305 364.07 153.557 364.07C152.658 364.07 151.958 364.327 151.457 364.842C150.962 365.35 150.715 366.059 150.715 366.971H148.908C148.908 365.662 149.328 364.604 150.168 363.797C151.014 362.99 152.144 362.586 153.557 362.586C154.878 362.586 155.923 362.934 156.691 363.631C157.46 364.321 157.844 365.242 157.844 366.395C157.844 367.794 156.952 369.461 155.168 371.395L151.359 375.525H158.498V377ZM163.039 369.012H164.396C165.249 368.999 165.92 368.774 166.408 368.338C166.896 367.902 167.141 367.312 167.141 366.57C167.141 364.904 166.311 364.07 164.65 364.07C163.869 364.07 163.244 364.295 162.775 364.744C162.313 365.187 162.082 365.776 162.082 366.512H160.275C160.275 365.385 160.686 364.451 161.506 363.709C162.333 362.96 163.381 362.586 164.65 362.586C165.992 362.586 167.043 362.941 167.805 363.65C168.566 364.36 168.947 365.346 168.947 366.609C168.947 367.228 168.745 367.827 168.342 368.406C167.945 368.986 167.401 369.419 166.711 369.705C167.492 369.952 168.094 370.363 168.518 370.936C168.947 371.508 169.162 372.208 169.162 373.035C169.162 374.311 168.745 375.324 167.912 376.072C167.079 376.821 165.995 377.195 164.66 377.195C163.326 377.195 162.238 376.834 161.398 376.111C160.565 375.389 160.148 374.435 160.148 373.25H161.965C161.965 373.999 162.209 374.598 162.697 375.047C163.186 375.496 163.84 375.721 164.66 375.721C165.533 375.721 166.2 375.493 166.662 375.037C167.124 374.581 167.355 373.927 167.355 373.074C167.355 372.247 167.102 371.613 166.594 371.17C166.086 370.727 165.354 370.499 164.396 370.486H163.039V369.012ZM179.27 372.225H181.242V373.699H179.27V377H177.453V373.699H170.979V372.635L177.346 362.781H179.27V372.225ZM173.029 372.225H177.453V365.252L177.238 365.643L173.029 372.225ZM192.189 377H182.873V375.701L187.795 370.232C188.524 369.406 189.025 368.735 189.299 368.221C189.579 367.7 189.719 367.163 189.719 366.609C189.719 365.867 189.494 365.258 189.045 364.783C188.596 364.308 187.997 364.07 187.248 364.07C186.35 364.07 185.65 364.327 185.148 364.842C184.654 365.35 184.406 366.059 184.406 366.971H182.6C182.6 365.662 183.02 364.604 183.859 363.797C184.706 362.99 185.835 362.586 187.248 362.586C188.57 362.586 189.615 362.934 190.383 363.631C191.151 364.321 191.535 365.242 191.535 366.395C191.535 367.794 190.643 369.461 188.859 371.395L185.051 375.525H192.189V377ZM196.73 369.012H198.088C198.941 368.999 199.611 368.774 200.1 368.338C200.588 367.902 200.832 367.312 200.832 366.57C200.832 364.904 200.002 364.07 198.342 364.07C197.561 364.07 196.936 364.295 196.467 364.744C196.005 365.187 195.773 365.776 195.773 366.512H193.967C193.967 365.385 194.377 364.451 195.197 363.709C196.024 362.96 197.072 362.586 198.342 362.586C199.683 362.586 200.734 362.941 201.496 363.65C202.258 364.36 202.639 365.346 202.639 366.609C202.639 367.228 202.437 367.827 202.033 368.406C201.636 368.986 201.092 369.419 200.402 369.705C201.184 369.952 201.786 370.363 202.209 370.936C202.639 371.508 202.854 372.208 202.854 373.035C202.854 374.311 202.437 375.324 201.604 376.072C200.77 376.821 199.686 377.195 198.352 377.195C197.017 377.195 195.93 376.834 195.09 376.111C194.257 375.389 193.84 374.435 193.84 373.25H195.656C195.656 373.999 195.9 374.598 196.389 375.047C196.877 375.496 197.531 375.721 198.352 375.721C199.224 375.721 199.891 375.493 200.354 375.037C200.816 374.581 201.047 373.927 201.047 373.074C201.047 372.247 200.793 371.613 200.285 371.17C199.777 370.727 199.045 370.499 198.088 370.486H196.73V369.012ZM212.961 372.225H214.934V373.699H212.961V377H211.145V373.699H204.67V372.635L211.037 362.781H212.961V372.225ZM206.721 372.225H211.145V365.252L210.93 365.643L206.721 372.225ZM222.502 377H220.686V364.959L217.043 366.297V364.656L222.219 362.713H222.502V377ZM237.111 377H227.795V375.701L232.717 370.232C233.446 369.406 233.947 368.735 234.221 368.221C234.501 367.7 234.641 367.163 234.641 366.609C234.641 365.867 234.416 365.258 233.967 364.783C233.518 364.308 232.919 364.07 232.17 364.07C231.271 364.07 230.572 364.327 230.07 364.842C229.576 365.35 229.328 366.059 229.328 366.971H227.521C227.521 365.662 227.941 364.604 228.781 363.797C229.628 362.99 230.757 362.586 232.17 362.586C233.492 362.586 234.536 362.934 235.305 363.631C236.073 364.321 236.457 365.242 236.457 366.395C236.457 367.794 235.565 369.461 233.781 371.395L229.973 375.525H237.111V377ZM241.652 369.012H243.01C243.863 368.999 244.533 368.774 245.021 368.338C245.51 367.902 245.754 367.312 245.754 366.57C245.754 364.904 244.924 364.07 243.264 364.07C242.482 364.07 241.857 364.295 241.389 364.744C240.926 365.187 240.695 365.776 240.695 366.512H238.889C238.889 365.385 239.299 364.451 240.119 363.709C240.946 362.96 241.994 362.586 243.264 362.586C244.605 362.586 245.656 362.941 246.418 363.65C247.18 364.36 247.561 365.346 247.561 366.609C247.561 367.228 247.359 367.827 246.955 368.406C246.558 368.986 246.014 369.419 245.324 369.705C246.105 369.952 246.708 370.363 247.131 370.936C247.561 371.508 247.775 372.208 247.775 373.035C247.775 374.311 247.359 375.324 246.525 376.072C245.692 376.821 244.608 377.195 243.273 377.195C241.939 377.195 240.852 376.834 240.012 376.111C239.178 375.389 238.762 374.435 238.762 373.25H240.578C240.578 373.999 240.822 374.598 241.311 375.047C241.799 375.496 242.453 375.721 243.273 375.721C244.146 375.721 244.813 375.493 245.275 375.037C245.738 374.581 245.969 373.927 245.969 373.074C245.969 372.247 245.715 371.613 245.207 371.17C244.699 370.727 243.967 370.499 243.01 370.486H241.652V369.012ZM256.193 377H254.377V364.959L250.734 366.297V364.656L255.91 362.713H256.193V377ZM270.803 377H261.486V375.701L266.408 370.232C267.137 369.406 267.639 368.735 267.912 368.221C268.192 367.7 268.332 367.163 268.332 366.609C268.332 365.867 268.107 365.258 267.658 364.783C267.209 364.308 266.61 364.07 265.861 364.07C264.963 364.07 264.263 364.327 263.762 364.842C263.267 365.35 263.02 366.059 263.02 366.971H261.213C261.213 365.662 261.633 364.604 262.473 363.797C263.319 362.99 264.449 362.586 265.861 362.586C267.183 362.586 268.228 362.934 268.996 363.631C269.764 364.321 270.148 365.242 270.148 366.395C270.148 367.794 269.257 369.461 267.473 371.395L263.664 375.525H270.803V377ZM275.344 369.012H276.701C277.554 368.999 278.225 368.774 278.713 368.338C279.201 367.902 279.445 367.312 279.445 366.57C279.445 364.904 278.615 364.07 276.955 364.07C276.174 364.07 275.549 364.295 275.08 364.744C274.618 365.187 274.387 365.776 274.387 366.512H272.58C272.58 365.385 272.99 364.451 273.811 363.709C274.637 362.96 275.686 362.586 276.955 362.586C278.296 362.586 279.348 362.941 280.109 363.65C280.871 364.36 281.252 365.346 281.252 366.609C281.252 367.228 281.05 367.827 280.646 368.406C280.249 368.986 279.706 369.419 279.016 369.705C279.797 369.952 280.399 370.363 280.822 370.936C281.252 371.508 281.467 372.208 281.467 373.035C281.467 374.311 281.05 375.324 280.217 376.072C279.383 376.821 278.299 377.195 276.965 377.195C275.63 377.195 274.543 376.834 273.703 376.111C272.87 375.389 272.453 374.435 272.453 373.25H274.27C274.27 373.999 274.514 374.598 275.002 375.047C275.49 375.496 276.145 375.721 276.965 375.721C277.837 375.721 278.505 375.493 278.967 375.037C279.429 374.581 279.66 373.927 279.66 373.074C279.66 372.247 279.406 371.613 278.898 371.17C278.391 370.727 277.658 370.499 276.701 370.486H275.344V369.012ZM293.264 377H283.947V375.701L288.869 370.232C289.598 369.406 290.1 368.735 290.373 368.221C290.653 367.7 290.793 367.163 290.793 366.609C290.793 365.867 290.568 365.258 290.119 364.783C289.67 364.308 289.071 364.07 288.322 364.07C287.424 364.07 286.724 364.327 286.223 364.842C285.728 365.35 285.48 366.059 285.48 366.971H283.674C283.674 365.662 284.094 364.604 284.934 363.797C285.78 362.99 286.91 362.586 288.322 362.586C289.644 362.586 290.689 362.934 291.457 363.631C292.225 364.321 292.609 365.242 292.609 366.395C292.609 367.794 291.717 369.461 289.934 371.395L286.125 375.525H293.264V377Z" fill="white"/>
<path d="M103.986 472.92L107.697 465.781H109.826L104.924 474.697V480H103.049V474.697L98.1465 465.781H100.295L103.986 472.92ZM122.307 473.35C122.307 474.743 122.072 475.96 121.604 477.002C121.135 478.037 120.471 478.828 119.611 479.375C118.752 479.922 117.749 480.195 116.604 480.195C115.484 480.195 114.491 479.922 113.625 479.375C112.759 478.822 112.085 478.037 111.604 477.021C111.128 475.999 110.884 474.818 110.871 473.477V472.451C110.871 471.084 111.109 469.876 111.584 468.828C112.059 467.78 112.73 466.979 113.596 466.426C114.468 465.866 115.464 465.586 116.584 465.586C117.723 465.586 118.726 465.863 119.592 466.416C120.464 466.963 121.135 467.76 121.604 468.809C122.072 469.85 122.307 471.064 122.307 472.451V473.35ZM120.441 472.432C120.441 470.745 120.103 469.453 119.426 468.555C118.749 467.65 117.801 467.197 116.584 467.197C115.399 467.197 114.465 467.65 113.781 468.555C113.104 469.453 112.756 470.703 112.736 472.305V473.35C112.736 474.984 113.078 476.27 113.762 477.207C114.452 478.138 115.399 478.604 116.604 478.604C117.814 478.604 118.752 478.164 119.416 477.285C120.08 476.4 120.422 475.133 120.441 473.486V472.432ZM135.129 465.781V475.449C135.122 476.79 134.699 477.887 133.859 478.74C133.026 479.593 131.893 480.072 130.461 480.176L129.963 480.195C128.407 480.195 127.167 479.775 126.242 478.936C125.318 478.096 124.849 476.94 124.836 475.469V465.781H126.691V475.41C126.691 476.439 126.975 477.24 127.541 477.812C128.107 478.379 128.915 478.662 129.963 478.662C131.024 478.662 131.835 478.379 132.395 477.812C132.961 477.246 133.244 476.449 133.244 475.42V465.781H135.129ZM143.303 474.248H139.963V480H138.078V465.781H142.785C144.387 465.781 145.617 466.146 146.477 466.875C147.342 467.604 147.775 468.665 147.775 470.059C147.775 470.944 147.535 471.715 147.053 472.373C146.577 473.031 145.913 473.522 145.061 473.848L148.4 479.883V480H146.389L143.303 474.248ZM139.963 472.715H142.844C143.775 472.715 144.514 472.474 145.061 471.992C145.614 471.51 145.891 470.866 145.891 470.059C145.891 469.18 145.627 468.506 145.1 468.037C144.579 467.568 143.824 467.331 142.834 467.324H139.963V472.715ZM158.449 473.428H152.287V478.467H159.445V480H150.412V465.781H159.348V467.324H152.287V471.895H158.449V473.428ZM164.201 465.781L168.85 477.383L173.498 465.781H175.93V480H174.055V474.463L174.23 468.486L169.562 480H168.127L163.469 468.516L163.654 474.463V480H161.779V465.781H164.201ZM187.268 476.289H181.311L179.973 480H178.039L183.469 465.781H185.109L190.549 480H188.625L187.268 476.289ZM181.877 474.746H186.711L184.289 468.096L181.877 474.746ZM194.475 480H192.6V465.781H194.475V480ZM199.797 478.467H206.535V480H197.912V465.781H199.797V478.467ZM223.996 475.098C223.918 476.673 223.527 477.917 222.824 478.828C222.121 479.74 221.18 480.195 220.002 480.195C218.785 480.195 218.003 479.648 217.658 478.555C217.307 479.108 216.903 479.521 216.447 479.795C215.998 480.062 215.533 480.195 215.051 480.195C214.126 480.195 213.426 479.818 212.951 479.062C212.476 478.307 212.3 477.262 212.424 475.928C212.521 474.854 212.766 473.896 213.156 473.057C213.553 472.21 214.061 471.546 214.68 471.064C215.305 470.583 215.959 470.342 216.643 470.342C217.17 470.342 217.642 470.413 218.059 470.557C218.475 470.693 218.944 470.967 219.465 471.377L218.957 476.787C218.833 478.291 219.25 479.043 220.207 479.043C220.943 479.043 221.538 478.678 221.994 477.949C222.45 477.22 222.697 476.27 222.736 475.098C222.86 472.565 222.388 470.635 221.32 469.307C220.259 467.979 218.641 467.314 216.467 467.314C215.158 467.314 213.996 467.64 212.98 468.291C211.965 468.936 211.164 469.87 210.578 471.094C209.992 472.318 209.663 473.73 209.592 475.332C209.514 476.947 209.709 478.35 210.178 479.541C210.646 480.726 211.359 481.631 212.316 482.256C213.28 482.887 214.442 483.203 215.803 483.203C216.389 483.203 216.975 483.132 217.561 482.988C218.153 482.845 218.645 482.66 219.035 482.432L219.396 483.555C218.993 483.809 218.456 484.017 217.785 484.18C217.121 484.342 216.447 484.424 215.764 484.424C214.136 484.424 212.736 484.056 211.564 483.32C210.393 482.591 209.514 481.536 208.928 480.156C208.348 478.783 208.098 477.174 208.176 475.332C208.254 473.542 208.654 471.934 209.377 470.508C210.1 469.076 211.079 467.972 212.316 467.197C213.553 466.416 214.95 466.025 216.506 466.025C218.127 466.025 219.517 466.39 220.676 467.119C221.835 467.848 222.697 468.9 223.264 470.273C223.83 471.647 224.074 473.255 223.996 475.098ZM213.977 475.928C213.885 476.852 213.97 477.562 214.23 478.057C214.497 478.551 214.917 478.799 215.49 478.799C215.881 478.799 216.255 478.633 216.613 478.301C216.978 477.969 217.277 477.493 217.512 476.875L217.521 476.787L217.971 471.875C217.606 471.686 217.215 471.592 216.799 471.592C216.037 471.592 215.406 471.979 214.904 472.754C214.41 473.529 214.1 474.587 213.977 475.928ZM237.141 478.135C236.659 478.825 235.985 479.342 235.119 479.688C234.26 480.026 233.257 480.195 232.111 480.195C230.952 480.195 229.924 479.925 229.025 479.385C228.127 478.838 227.43 478.063 226.936 477.061C226.447 476.058 226.197 474.896 226.184 473.574V472.334C226.184 470.192 226.682 468.532 227.678 467.354C228.68 466.175 230.087 465.586 231.896 465.586C233.381 465.586 234.576 465.967 235.48 466.729C236.385 467.484 236.939 468.558 237.141 469.951H235.266C234.914 468.07 233.794 467.129 231.906 467.129C230.65 467.129 229.696 467.572 229.045 468.457C228.4 469.336 228.075 470.612 228.068 472.285V473.447C228.068 475.042 228.433 476.312 229.162 477.256C229.891 478.193 230.878 478.662 232.121 478.662C232.824 478.662 233.439 478.584 233.967 478.428C234.494 478.271 234.93 478.008 235.275 477.637V474.443H231.984V472.92H237.141V478.135ZM242.697 465.781L247.346 477.383L251.994 465.781H254.426V480H252.551V474.463L252.727 468.486L248.059 480H246.623L241.965 468.516L242.15 474.463V480H240.275V465.781H242.697ZM265.764 476.289H259.807L258.469 480H256.535L261.965 465.781H263.605L269.045 480H267.121L265.764 476.289ZM260.373 474.746H265.207L262.785 468.096L260.373 474.746ZM272.971 480H271.096V465.781H272.971V480ZM278.293 478.467H285.031V480H276.408V465.781H278.293V478.467ZM286.926 479.053C286.926 478.74 287.017 478.48 287.199 478.271C287.388 478.063 287.668 477.959 288.039 477.959C288.41 477.959 288.69 478.063 288.879 478.271C289.074 478.48 289.172 478.74 289.172 479.053C289.172 479.352 289.074 479.603 288.879 479.805C288.69 480.007 288.41 480.107 288.039 480.107C287.668 480.107 287.388 480.007 287.199 479.805C287.017 479.603 286.926 479.352 286.926 479.053ZM302.902 475.488C302.727 476.992 302.17 478.154 301.232 478.975C300.301 479.788 299.061 480.195 297.512 480.195C295.832 480.195 294.484 479.593 293.469 478.389C292.46 477.184 291.955 475.573 291.955 473.555V472.188C291.955 470.866 292.189 469.704 292.658 468.701C293.133 467.699 293.804 466.93 294.67 466.396C295.536 465.856 296.538 465.586 297.678 465.586C299.188 465.586 300.399 466.009 301.311 466.855C302.222 467.695 302.753 468.861 302.902 470.352H301.018C300.855 469.219 300.5 468.398 299.953 467.891C299.413 467.383 298.654 467.129 297.678 467.129C296.48 467.129 295.539 467.572 294.855 468.457C294.178 469.342 293.84 470.602 293.84 472.236V473.613C293.84 475.156 294.162 476.383 294.807 477.295C295.451 478.206 296.353 478.662 297.512 478.662C298.553 478.662 299.351 478.428 299.904 477.959C300.464 477.484 300.835 476.66 301.018 475.488H302.902ZM316.408 473.35C316.408 474.743 316.174 475.96 315.705 477.002C315.236 478.037 314.572 478.828 313.713 479.375C312.854 479.922 311.851 480.195 310.705 480.195C309.585 480.195 308.592 479.922 307.727 479.375C306.861 478.822 306.187 478.037 305.705 477.021C305.23 475.999 304.986 474.818 304.973 473.477V472.451C304.973 471.084 305.21 469.876 305.686 468.828C306.161 467.78 306.831 466.979 307.697 466.426C308.57 465.866 309.566 465.586 310.686 465.586C311.825 465.586 312.827 465.863 313.693 466.416C314.566 466.963 315.236 467.76 315.705 468.809C316.174 469.85 316.408 471.064 316.408 472.451V473.35ZM314.543 472.432C314.543 470.745 314.204 469.453 313.527 468.555C312.85 467.65 311.903 467.197 310.686 467.197C309.501 467.197 308.566 467.65 307.883 468.555C307.206 469.453 306.857 470.703 306.838 472.305V473.35C306.838 474.984 307.18 476.27 307.863 477.207C308.553 478.138 309.501 478.604 310.705 478.604C311.916 478.604 312.854 478.164 313.518 477.285C314.182 476.4 314.523 475.133 314.543 473.486V472.432ZM321.643 465.781L326.291 477.383L330.939 465.781H333.371V480H331.496V474.463L331.672 468.486L327.004 480H325.568L320.91 468.516L321.096 474.463V480H319.221V465.781H321.643Z" fill="white"/>
<circle cx="51" cy="266" r="32" fill="#0088C9"/>
<path d="M65.7234 264.305L62.6667 261.167V252.906C62.6667 252.649 62.5789 252.403 62.4226 252.221C62.2663 252.04 62.0543 251.938 61.8333 251.938H58.5C58.279 251.938 58.067 252.04 57.9107 252.221C57.7545 252.403 57.6667 252.649 57.6667 252.906V256.035L52.3948 250.624C52.0677 250.279 51.4443 250 51 250C50.5557 250 49.9344 250.279 49.6073 250.624L36.274 264.307C36.1097 264.5 36.0122 264.757 36 265.028C36.0106 265.265 36.0852 265.491 36.213 265.676L37.3281 267.117C37.5019 267.298 37.7208 267.41 37.9531 267.438C38.1546 267.414 38.3469 267.328 38.5099 267.189L39.338 266.341V279.062C39.338 279.576 39.5136 280.069 39.8262 280.433C40.1387 280.796 40.5627 281 41.0047 281H61C61.442 281 61.8659 280.796 62.1785 280.433C62.4911 280.069 62.6667 279.576 62.6667 279.062V266.34L63.4953 267.188C63.6591 267.327 63.8518 267.413 64.0536 267.438C64.2839 267.41 64.5005 267.297 64.6719 267.116L65.787 265.674C65.9067 265.485 65.9802 265.261 66 265.027C65.9761 264.759 65.8792 264.506 65.7234 264.305ZM51 260.656C51.6593 260.656 52.3037 260.884 52.8519 261.309C53.4001 261.735 53.8273 262.34 54.0796 263.048C54.3319 263.756 54.3979 264.536 54.2693 265.287C54.1407 266.039 53.8232 266.729 53.357 267.271C52.8908 267.813 52.2969 268.182 51.6503 268.332C51.0037 268.481 50.3335 268.405 49.7244 268.111C49.1153 267.818 48.5947 267.321 48.2284 266.684C47.8622 266.047 47.6667 265.298 47.6667 264.531C47.6667 263.504 48.0179 262.518 48.643 261.791C49.2681 261.065 50.1159 260.656 51 260.656ZM56.8333 277.125H45.1667C44.9457 277.125 44.7337 277.023 44.5774 276.841C44.4211 276.66 44.3333 276.413 44.3333 276.156C44.3333 274.615 44.8601 273.136 45.7978 272.046C46.7355 270.956 48.0073 270.344 49.3333 270.344H52.6667C53.9927 270.344 55.2645 270.956 56.2022 272.046C57.1399 273.136 57.6667 274.615 57.6667 276.156C57.6667 276.413 57.5789 276.66 57.4226 276.841C57.2663 277.023 57.0543 277.125 56.8333 277.125Z" fill="white"/>
<circle cx="51" cy="368" r="32" fill="#0088C9"/>
<path d="M58.2035 372.19L58.5865 371.787C59.6207 370.79 60.0995 370.962 61.0762 371.94L66.3429 377.157C67.9133 378.71 68.6602 378.998 67.2621 380.475L66.8791 380.877L58.2035 372.19ZM57.3416 373.206L65.7683 381.645C63.9681 382.987 59.1227 386.132 55.5414 384.579C52.3431 383.179 52.1899 382.488 49.7959 380.743C45.755 377.195 41.4267 372.727 38.171 369.236C36.4282 366.82 35.6238 366.724 34.3407 363.483C32.9809 360.031 36.0452 355.044 37.3283 353.165L45.755 361.603L42.6524 363.866C41.7715 364.518 42.7673 366.168 43.9164 367.318C45.9273 369.313 50.0066 373.417 51.7111 374.99C52.841 376.121 54.4881 377.138 55.1584 376.255L57.3416 373.206ZM38.0944 352.072L38.4965 351.669C39.9138 350.365 40.2202 351.113 41.7523 352.666L46.9615 357.921C47.8999 358.899 48.1106 359.359 47.1722 360.357L46.77 360.74L38.0944 352.072Z" fill="white"/>
<circle cx="51" cy="470" r="32" fill="#0088C9"/>
<path d="M37 459V462.905L51 470.826L65 462.905V459H37ZM37 465.403V476.854L44.1316 469.437L37 465.403ZM65 465.403L57.8684 469.437L65 476.854V465.403ZM46.0901 470.546L37 480H65L55.9099 470.546L51 473.324L46.0901 470.546Z" fill="white"/>
</g>
<defs>
<filter id="filter0_d" x="462" y="0" width="596" height="608" filterUnits="userSpaceOnUse" color-interpolation-filters="sRGB">
<feFlood flood-opacity="0" result="BackgroundImageFix"/>
<feColorMatrix in="SourceAlpha" type="matrix" values="0 0 0 0 0 0 0 0 0 0 0 0 0 0 0 0 0 0 127 0"/>
<feOffset dx="4" dy="4"/>
<feGaussianBlur stdDeviation="2"/>
<feColorMatrix type="matrix" values="0 0 0 0 0 0 0 0 0 0 0 0 0 0 0 0 0 0 0.25 0"/>
<feBlend mode="normal" in2="BackgroundImageFix" result="effect1_dropShadow"/>
<feBlend mode="normal" in="SourceGraphic" in2="effect1_dropShadow" result="shape"/>
</filter>
<filter id="filter1_d" x="-1" y="3" width="506" height="608" filterUnits="userSpaceOnUse" color-interpolation-filters="sRGB">
<feFlood flood-opacity="0" result="BackgroundImageFix"/>
<feColorMatrix in="SourceAlpha" type="matrix" values="0 0 0 0 0 0 0 0 0 0 0 0 0 0 0 0 0 0 127 0"/>
<feOffset dy="7"/>
<feGaussianBlur stdDeviation="2"/>
<feColorMatrix type="matrix" values="0 0 0 0 0 0 0 0 0 0 0 0 0 0 0 0 0 0 0.25 0"/>
<feBlend mode="normal" in2="BackgroundImageFix" result="effect1_dropShadow"/>
<feBlend mode="normal" in="SourceGraphic" in2="effect1_dropShadow" result="shape"/>
</filter>
<clipPath id="clip0">
<rect width="1050" height="600" fill="white"/>
</clipPath>
</defs>
</svg>
