<svg width="1050" height="600" viewBox="0 0 1050 600" fill="none" xmlns="http://www.w3.org/2000/svg">
<rect width="1050" height="600" fill="#F47123"/>
<rect y="413" width="1050" height="187" fill="#F5F5F5"/>
<path d="M357 214V353.636V358H449.578C479.273 323.44 509.113 343.6 520.321 358H626V214.873L357 214Z" stroke="#F5F5F5" stroke-width="5"/>
<path d="M355.77 357.057C352.272 359.261 347.777 363.496 347.09 368.373M714.705 359.052C685.237 320.052 639.331 345.773 637.044 381H526.199C510.865 316.569 446.023 336.599 441.642 380.129L353.141 379.259C348.04 375.639 346.601 371.843 347.09 368.373M714.705 359.052C717.842 364.867 720.235 372.122 721.601 381H748.326C753.73 376.937 760.944 366.72 746.574 358.362L743.945 358.419M714.705 359.052L743.945 358.419M743.945 358.419V350.96M626.529 243L686.99 243.437C698.819 243.436 701.74 248.08 706.267 250.837L743.945 313.959V328.758M347.09 368.373H375.047M743.945 350.96V333.113V328.758M743.945 350.96C735.183 347.042 722.915 337.116 743.945 328.758M626.529 358.36H645.806" stroke="#F5F5F5" stroke-width="6"/>
<path d="M637 323V329H657V323" stroke="#F5F5F5" stroke-width="6"/>
<path d="M718.247 296.614C726.632 312.239 713.879 314.37 706.455 313.482L648.808 313.926C640.073 314.636 637.307 310.079 637.016 307.711V266.429C636.667 256.841 642.111 254.444 644.877 254.444L687.676 254C691.17 254 694.955 258.143 696.41 260.215L718.247 296.614Z" stroke="#F5F5F5" stroke-width="6"/>
<rect x="642.203" y="293.85" width="39.1676" height="6.40932" rx="3.20466" transform="rotate(-38.0359 642.203 293.85)" fill="#F5F5F5"/>
<rect x="266" y="234" width="72" height="6" rx="3" fill="#F5F5F5"/>
<rect x="279" y="266" width="60" height="6" rx="3" fill="#F5F5F5"/>
<rect x="298" y="299" width="41" height="6" rx="3" fill="#F5F5F5"/>
<rect x="314" y="331" width="24" height="6" rx="3" fill="#F5F5F5"/>
<rect x="664.075" y="298.025" width="30.8428" height="6.40932" rx="3.20466" transform="rotate(-38.0359 664.075 298.025)" fill="#F5F5F5"/>
<rect x="688.573" y="303.395" width="23.8604" height="6.40932" rx="3.20466" transform="rotate(-38.0359 688.573 303.395)" fill="#F5F5F5"/>
<circle cx="485" cy="381" r="29" stroke="#F5F5F5" stroke-width="6"/>
<circle cx="484.5" cy="380.5" r="16" stroke="#F5F5F5" stroke-width="5"/>
<path d="M479.486 386C477.882 382.994 476.214 376.81 482.374 376.123C490.075 375.264 491.519 379.129 492 380.418" stroke="#F5F5F5" stroke-width="6"/>
<path d="M709 380C709 396.061 696.196 409 680.5 409C664.804 409 652 396.061 652 380C652 363.939 664.804 351 680.5 351C696.196 351 709 363.939 709 380Z" stroke="#F5F5F5" stroke-width="6"/>
<path d="M696.5 380C696.5 389.176 689.274 396.5 680.5 396.5C671.726 396.5 664.5 389.176 664.5 380C664.5 370.824 671.726 363.5 680.5 363.5C689.274 363.5 696.5 370.824 696.5 380Z" stroke="#F5F5F5" stroke-width="5"/>
<path d="M675.486 385C673.882 382.295 672.214 376.729 678.374 376.111C686.075 375.338 687.519 378.816 688 379.976" stroke="#F5F5F5" stroke-width="6"/>
<path d="M406.1 269.2C404.487 269.2 403.213 268.727 402.28 267.78C401.36 266.82 400.9 265.473 400.9 263.74C400.9 261.993 401.287 260.673 402.06 259.78C402.833 258.887 403.847 258.44 405.1 258.44C405.887 258.44 406.52 258.573 407 258.84C407.48 259.107 407.867 259.467 408.16 259.92H408.26C408.22 259.707 408.18 259.473 408.14 259.22C408.113 258.953 408.1 258.667 408.1 258.36V257.58C408.1 257.073 407.953 256.64 407.66 256.28C407.367 255.92 406.9 255.74 406.26 255.74C405.713 255.74 405.287 255.873 404.98 256.14C404.687 256.407 404.54 256.74 404.54 257.14C404.54 257.207 404.54 257.273 404.54 257.34C404.553 257.407 404.567 257.473 404.58 257.54H401.66C401.62 257.407 401.593 257.28 401.58 257.16C401.567 257.027 401.56 256.907 401.56 256.8C401.56 256.133 401.767 255.56 402.18 255.08C402.607 254.6 403.173 254.233 403.88 253.98C404.587 253.727 405.38 253.6 406.26 253.6C407.26 253.6 408.12 253.787 408.84 254.16C409.56 254.52 410.113 255.027 410.5 255.68C410.9 256.333 411.1 257.087 411.1 257.94V263.74C411.1 265.473 410.667 266.82 409.8 267.78C408.947 268.727 407.713 269.2 406.1 269.2ZM406.1 266.8C406.847 266.8 407.4 266.547 407.76 266.04C408.12 265.52 408.3 264.853 408.3 264.04V263.64C408.3 262.773 408.14 262.073 407.82 261.54C407.5 261.007 406.907 260.74 406.04 260.74C405.373 260.74 404.853 261.02 404.48 261.58C404.12 262.127 403.94 262.867 403.94 263.8C403.94 264.667 404.1 265.387 404.42 265.96C404.753 266.52 405.313 266.8 406.1 266.8ZM414.345 269C413.971 268.093 413.685 267.22 413.485 266.38C413.298 265.527 413.205 264.567 413.205 263.5C413.205 262.38 413.391 261.4 413.765 260.56C414.138 259.707 414.698 259.047 415.445 258.58C416.205 258.113 417.151 257.88 418.285 257.88C419.418 257.88 420.358 258.113 421.105 258.58C421.865 259.047 422.431 259.707 422.805 260.56C423.191 261.4 423.385 262.38 423.385 263.5C423.385 264.567 423.285 265.527 423.085 266.38C422.898 267.22 422.611 268.093 422.225 269H419.365C420.045 267.24 420.385 265.427 420.385 263.56C420.385 262.467 420.198 261.647 419.825 261.1C419.451 260.553 418.938 260.28 418.285 260.28C417.631 260.28 417.118 260.547 416.745 261.08C416.385 261.613 416.205 262.447 416.205 263.58C416.205 265.433 416.545 267.24 417.225 269H414.345ZM432.037 274C429.851 274 428.157 273.293 426.957 271.88C425.771 270.467 425.177 268.42 425.177 265.74C425.177 263.553 425.651 261.793 426.597 260.46C427.557 259.113 428.944 258.293 430.757 258C430.717 257.747 430.677 257.493 430.637 257.24C430.611 256.987 430.597 256.747 430.597 256.52V255.58H433.437V256.52C433.437 256.733 433.417 256.973 433.377 257.24C433.351 257.493 433.317 257.74 433.277 257.98C435.117 258.26 436.517 259.08 437.477 260.44C438.437 261.787 438.917 263.56 438.917 265.76C438.917 268.347 438.331 270.367 437.157 271.82C435.984 273.273 434.277 274 432.037 274ZM432.037 271.6C433.291 271.6 434.244 271.127 434.897 270.18C435.551 269.233 435.877 267.76 435.877 265.76C435.877 264.107 435.651 262.827 435.197 261.92C434.757 261 434.117 260.42 433.277 260.18C433.317 260.447 433.351 260.733 433.377 261.04C433.417 261.347 433.437 261.72 433.437 262.16V265.6H430.597V262.14C430.597 261.713 430.611 261.36 430.637 261.08C430.677 260.787 430.717 260.507 430.757 260.24C429.931 260.453 429.297 261.02 428.857 261.94C428.417 262.86 428.197 264.133 428.197 265.76C428.197 267.747 428.531 269.213 429.197 270.16C429.864 271.12 430.811 271.6 432.037 271.6ZM445.584 269.2C444.624 269.2 443.771 269.04 443.024 268.72C442.278 268.387 441.691 267.907 441.264 267.28C440.838 266.653 440.624 265.887 440.624 264.98C440.624 264.607 440.651 264.287 440.704 264.02C440.758 263.74 440.838 263.473 440.944 263.22H443.804C443.738 263.46 443.684 263.713 443.644 263.98C443.618 264.233 443.604 264.493 443.604 264.76C443.604 265.307 443.771 265.787 444.104 266.2C444.451 266.6 444.944 266.8 445.584 266.8C446.198 266.8 446.671 266.6 447.004 266.2C447.351 265.8 447.524 265.333 447.524 264.8C447.524 264.187 447.364 263.687 447.044 263.3C446.724 262.913 446.358 262.527 445.944 262.14C445.624 261.833 445.304 261.507 444.984 261.16C444.664 260.8 444.398 260.38 444.184 259.9C443.971 259.407 443.864 258.8 443.864 258.08H446.844C446.844 258.627 447.011 259.107 447.344 259.52C447.678 259.933 448.058 260.347 448.484 260.76C448.818 261.08 449.144 261.427 449.464 261.8C449.784 262.16 450.044 262.58 450.244 263.06C450.458 263.54 450.564 264.107 450.564 264.76C450.564 265.64 450.358 266.413 449.944 267.08C449.531 267.747 448.951 268.267 448.204 268.64C447.471 269.013 446.598 269.2 445.584 269.2ZM457.685 269.2C456.072 269.2 454.832 268.72 453.965 267.76C453.098 266.8 452.665 265.413 452.665 263.6V257.82C452.665 256.847 452.852 256.067 453.225 255.48C453.598 254.88 454.092 254.453 454.705 254.2C455.318 253.933 455.985 253.8 456.705 253.8H461.825V256.1H457.025C456.612 256.1 456.278 256.207 456.025 256.42C455.785 256.633 455.665 256.987 455.665 257.48V257.88C455.665 258.107 455.645 258.387 455.605 258.72C455.578 259.053 455.552 259.333 455.525 259.56H455.605C455.912 259.107 456.305 258.747 456.785 258.48C457.265 258.213 457.898 258.08 458.685 258.08C459.938 258.08 460.952 258.54 461.725 259.46C462.498 260.367 462.885 261.733 462.885 263.56C462.885 265.373 462.418 266.767 461.485 267.74C460.565 268.713 459.298 269.2 457.685 269.2ZM457.685 266.8C458.472 266.8 459.025 266.513 459.345 265.94C459.678 265.353 459.845 264.58 459.845 263.62C459.845 262.593 459.658 261.807 459.285 261.26C458.925 260.7 458.412 260.42 457.745 260.42C456.878 260.42 456.285 260.693 455.965 261.24C455.645 261.773 455.485 262.5 455.485 263.42V263.86C455.485 264.78 455.665 265.5 456.025 266.02C456.385 266.54 456.938 266.8 457.685 266.8ZM465.829 269C465.456 268.093 465.169 267.22 464.969 266.38C464.782 265.527 464.689 264.567 464.689 263.5C464.689 262.38 464.876 261.4 465.249 260.56C465.622 259.707 466.182 259.047 466.929 258.58C467.689 258.113 468.636 257.88 469.769 257.88C470.902 257.88 471.842 258.113 472.589 258.58C473.349 259.047 473.916 259.707 474.289 260.56C474.676 261.4 474.869 262.38 474.869 263.5C474.869 264.567 474.769 265.527 474.569 266.38C474.382 267.22 474.096 268.093 473.709 269H470.849C471.529 267.24 471.869 265.427 471.869 263.56C471.869 262.467 471.682 261.647 471.309 261.1C470.936 260.553 470.422 260.28 469.769 260.28C469.116 260.28 468.602 260.547 468.229 261.08C467.869 261.613 467.689 262.447 467.689 263.58C467.689 265.433 468.029 267.24 468.709 269H465.829ZM482.162 269.2C480.455 269.2 479.162 268.72 478.282 267.76C477.402 266.8 476.962 265.433 476.962 263.66V253.8H479.942V263.86C479.942 264.767 480.122 265.487 480.482 266.02C480.855 266.54 481.408 266.8 482.142 266.8C482.875 266.8 483.422 266.547 483.782 266.04C484.142 265.533 484.322 264.927 484.322 264.22C484.322 263.673 484.255 263.22 484.122 262.86C484.002 262.5 483.848 262.167 483.662 261.86C483.355 261.38 483.068 260.847 482.802 260.26C482.548 259.66 482.422 258.933 482.422 258.08H485.402C485.415 258.693 485.528 259.227 485.742 259.68C485.968 260.133 486.242 260.607 486.562 261.1C486.788 261.46 486.975 261.887 487.122 262.38C487.282 262.873 487.362 263.447 487.362 264.1C487.362 265.127 487.148 266.027 486.722 266.8C486.308 267.56 485.708 268.153 484.922 268.58C484.148 268.993 483.228 269.2 482.162 269.2ZM499.857 269.2C498.15 269.2 496.857 268.72 495.977 267.76C495.097 266.8 494.657 265.433 494.657 263.66V253.8H497.637V263.86C497.637 264.767 497.817 265.487 498.177 266.02C498.55 266.54 499.104 266.8 499.837 266.8C500.57 266.8 501.117 266.547 501.477 266.04C501.837 265.533 502.017 264.927 502.017 264.22C502.017 263.673 501.95 263.22 501.817 262.86C501.697 262.5 501.544 262.167 501.357 261.86C501.05 261.38 500.764 260.847 500.497 260.26C500.244 259.66 500.117 258.933 500.117 258.08H503.097C503.11 258.693 503.224 259.227 503.437 259.68C503.664 260.133 503.937 260.607 504.257 261.1C504.484 261.46 504.67 261.887 504.817 262.38C504.977 262.873 505.057 263.447 505.057 264.1C505.057 265.127 504.844 266.027 504.417 266.8C504.004 267.56 503.404 268.153 502.617 268.58C501.844 268.993 500.924 269.2 499.857 269.2ZM511.192 274C510.152 274 509.252 273.793 508.492 273.38C507.745 272.967 507.165 272.393 506.752 271.66C506.352 270.927 506.152 270.087 506.152 269.14C506.152 268.38 506.292 267.693 506.572 267.08H509.372C509.305 267.347 509.245 267.647 509.192 267.98C509.152 268.313 509.132 268.627 509.132 268.92C509.132 269.653 509.292 270.28 509.612 270.8C509.945 271.333 510.472 271.6 511.192 271.6C511.965 271.6 512.498 271.333 512.792 270.8C513.098 270.28 513.252 269.58 513.252 268.7V262.62C513.252 261.873 513.105 261.3 512.812 260.9C512.518 260.487 512.065 260.28 511.452 260.28C510.878 260.28 510.425 260.453 510.092 260.8C509.772 261.147 509.612 261.633 509.612 262.26C509.612 262.513 509.625 262.767 509.652 263.02C509.678 263.273 509.732 263.553 509.812 263.86H506.952C506.858 263.607 506.778 263.347 506.712 263.08C506.658 262.8 506.632 262.473 506.632 262.1C506.632 261.193 506.838 260.427 507.252 259.8C507.678 259.173 508.252 258.7 508.972 258.38C509.705 258.047 510.518 257.88 511.412 257.88C512.892 257.88 514.065 258.3 514.932 259.14C515.798 259.98 516.232 261.14 516.232 262.62V268.76C516.232 270.413 515.792 271.7 514.912 272.62C514.045 273.54 512.805 274 511.192 274ZM519.602 269C519.162 268.04 518.835 267.12 518.622 266.24C518.422 265.36 518.322 264.407 518.322 263.38V262.6C518.322 260.96 518.522 259.573 518.922 258.44C519.335 257.293 520.002 256.38 520.922 255.7C521.842 255.02 523.062 254.54 524.582 254.26C525.249 254.14 525.969 254.027 526.742 253.92C527.515 253.8 528.322 253.693 529.162 253.6L529.482 256.04C528.629 256.16 527.775 256.28 526.922 256.4C526.082 256.507 525.382 256.607 524.822 256.7C524.275 256.793 523.729 256.927 523.182 257.1C522.635 257.26 522.142 257.5 521.702 257.82C521.275 258.14 520.955 258.573 520.742 259.12H520.822C521.142 258.72 521.489 258.453 521.862 258.32C522.235 258.187 522.609 258.12 522.982 258.12C523.675 258.12 524.275 258.313 524.782 258.7C525.289 259.087 525.655 259.613 525.882 260.28H526.002C526.242 259.6 526.622 259.073 527.142 258.7C527.662 258.313 528.329 258.12 529.142 258.12C530.102 258.12 530.909 258.353 531.562 258.82C532.229 259.287 532.729 259.927 533.062 260.74C533.409 261.553 533.582 262.473 533.582 263.5C533.582 264.207 533.535 264.86 533.442 265.46C533.349 266.047 533.202 266.627 533.002 267.2C532.815 267.76 532.575 268.36 532.282 269H529.322C529.735 268.12 530.042 267.24 530.242 266.36C530.442 265.48 530.542 264.547 530.542 263.56C530.542 262.68 530.409 261.953 530.142 261.38C529.875 260.807 529.435 260.52 528.822 260.52C528.315 260.52 527.942 260.74 527.702 261.18C527.475 261.607 527.362 262.2 527.362 262.96V265.48H524.502V262.96C524.502 262.213 524.389 261.62 524.162 261.18C523.935 260.74 523.575 260.52 523.082 260.52C522.522 260.52 522.089 260.773 521.782 261.28C521.475 261.773 521.322 262.54 521.322 263.58C521.322 264.567 521.415 265.5 521.602 266.38C521.802 267.247 522.115 268.12 522.542 269H519.602ZM540.082 274C538.989 274 538.055 273.8 537.282 273.4C536.509 273.013 535.915 272.487 535.502 271.82C535.089 271.167 534.882 270.433 534.882 269.62C534.882 269.26 534.909 268.927 534.962 268.62C535.029 268.313 535.109 268.04 535.202 267.8H538.062C537.929 268.267 537.862 268.753 537.862 269.26C537.862 269.887 538.035 270.433 538.382 270.9C538.742 271.367 539.315 271.6 540.102 271.6C540.875 271.6 541.429 271.36 541.762 270.88C542.095 270.4 542.262 269.8 542.262 269.08C542.262 268.333 542.062 267.74 541.662 267.3C541.262 266.86 540.695 266.64 539.962 266.64H539.182V264.26H540.022C540.729 264.26 541.222 264.053 541.502 263.64C541.782 263.213 541.922 262.72 541.922 262.16C541.922 261.573 541.775 261.113 541.482 260.78C541.189 260.447 540.749 260.28 540.162 260.28C538.975 260.28 538.382 260.873 538.382 262.06C538.382 262.407 538.429 262.76 538.522 263.12H535.622C535.555 262.907 535.502 262.7 535.462 262.5C535.422 262.3 535.402 262.073 535.402 261.82C535.402 261.033 535.609 260.347 536.022 259.76C536.435 259.16 537.002 258.7 537.722 258.38C538.442 258.047 539.262 257.88 540.182 257.88C541.155 257.88 541.995 258.06 542.702 258.42C543.409 258.767 543.955 259.24 544.342 259.84C544.729 260.427 544.922 261.087 544.922 261.82C544.922 262.82 544.662 263.613 544.142 264.2C543.635 264.773 542.955 265.16 542.102 265.36V265.42C542.675 265.513 543.202 265.72 543.682 266.04C544.162 266.36 544.549 266.787 544.842 267.32C545.149 267.853 545.302 268.5 545.302 269.26C545.302 270.193 545.089 271.013 544.662 271.72C544.249 272.44 543.655 273 542.882 273.4C542.109 273.8 541.175 274 540.082 274ZM547.938 269C547.565 268.093 547.278 267.22 547.078 266.38C546.892 265.527 546.798 264.567 546.798 263.5C546.798 262.38 546.985 261.4 547.358 260.56C547.732 259.707 548.292 259.047 549.038 258.58C549.798 258.113 550.745 257.88 551.878 257.88C553.012 257.88 553.952 258.113 554.698 258.58C555.458 259.047 556.025 259.707 556.398 260.56C556.785 261.4 556.978 262.38 556.978 263.5C556.978 264.567 556.878 265.527 556.678 266.38C556.492 267.22 556.205 268.093 555.818 269H552.958C553.638 267.24 553.978 265.427 553.978 263.56C553.978 262.467 553.792 261.647 553.418 261.1C553.045 260.553 552.532 260.28 551.878 260.28C551.225 260.28 550.712 260.547 550.338 261.08C549.978 261.613 549.798 262.447 549.798 263.58C549.798 265.433 550.138 267.24 550.818 269H547.938ZM564.271 269.2C562.564 269.2 561.271 268.72 560.391 267.76C559.511 266.8 559.071 265.433 559.071 263.66V253.8H562.051V263.86C562.051 264.767 562.231 265.487 562.591 266.02C562.964 266.54 563.518 266.8 564.251 266.8C564.984 266.8 565.531 266.547 565.891 266.04C566.251 265.533 566.431 264.927 566.431 264.22C566.431 263.673 566.364 263.22 566.231 262.86C566.111 262.5 565.958 262.167 565.771 261.86C565.464 261.38 565.178 260.847 564.911 260.26C564.658 259.66 564.531 258.933 564.531 258.08H567.511C567.524 258.693 567.638 259.227 567.851 259.68C568.078 260.133 568.351 260.607 568.671 261.1C568.898 261.46 569.084 261.887 569.231 262.38C569.391 262.873 569.471 263.447 569.471 264.1C569.471 265.127 569.258 266.027 568.831 266.8C568.418 267.56 567.818 268.153 567.031 268.58C566.258 268.993 565.338 269.2 564.271 269.2ZM572.411 269C572.038 268.093 571.751 267.22 571.551 266.38C571.364 265.527 571.271 264.567 571.271 263.5C571.271 262.38 571.458 261.4 571.831 260.56C572.204 259.707 572.764 259.047 573.511 258.58C574.271 258.113 575.218 257.88 576.351 257.88C577.484 257.88 578.424 258.113 579.171 258.58C579.931 259.047 580.498 259.707 580.871 260.56C581.258 261.4 581.451 262.38 581.451 263.5C581.451 264.567 581.351 265.527 581.151 266.38C580.964 267.22 580.678 268.093 580.291 269H577.431C578.111 267.24 578.451 265.427 578.451 263.56C578.451 262.467 578.264 261.647 577.891 261.1C577.518 260.553 577.004 260.28 576.351 260.28C575.698 260.28 575.184 260.547 574.811 261.08C574.451 261.613 574.271 262.447 574.271 263.58C574.271 265.433 574.611 267.24 575.291 269H572.411Z" fill="white"/>
<path d="M86.435 541.75C83.3917 541.75 80.7883 541.182 78.625 540.045C76.4983 538.908 74.8667 537.332 73.73 535.315C72.5933 533.298 72.025 530.988 72.025 528.385C72.025 526.295 72.41 524.407 73.18 522.72H80.88C80.6967 523.453 80.5317 524.278 80.385 525.195C80.275 526.112 80.22 526.973 80.22 527.78C80.22 529.797 80.6967 531.52 81.65 532.95C82.6033 534.417 84.1983 535.15 86.435 535.15C88.635 535.15 90.175 534.398 91.055 532.895C91.9717 531.392 92.43 529.485 92.43 527.175V508.97C92.43 505.597 91.33 503.91 89.13 503.91C88.14 503.91 87.3333 504.313 86.71 505.12C86.1233 505.927 85.83 507.173 85.83 508.86V515.02H78.02V508.695C78.02 505.688 76.8467 504.185 74.5 504.185H70.87V497.75H74.665C76.6083 497.75 78.1667 498.153 79.34 498.96C80.5133 499.73 81.4117 500.885 82.035 502.425H82.255C82.915 500.885 83.9417 499.675 85.335 498.795C86.7283 497.878 88.3783 497.42 90.285 497.42C93.585 497.42 96.1333 498.41 97.93 500.39C99.7267 502.37 100.625 504.973 100.625 508.2V527.34C100.625 531.887 99.3967 535.425 96.94 537.955C94.52 540.485 91.0183 541.75 86.435 541.75ZM133.447 541.75C128.314 541.75 124.262 540.833 121.292 539C118.322 537.167 116.837 534.6 116.837 531.3C116.837 530.933 116.855 530.567 116.892 530.2C116.965 529.833 117.02 529.467 117.057 529.1H124.922C124.885 529.32 124.867 529.522 124.867 529.705C124.867 529.888 124.867 530.053 124.867 530.2C124.867 531.813 125.655 533.042 127.232 533.885C128.845 534.728 130.935 535.15 133.502 535.15C135.299 535.15 136.765 534.838 137.902 534.215C139.075 533.628 139.937 532.858 140.487 531.905C141.074 530.952 141.367 529.943 141.367 528.88C141.367 527.377 140.945 526.13 140.102 525.14C139.295 524.15 138.104 523.655 136.527 523.655H135.537V517.055H137.407C139.094 517.055 140.359 516.432 141.202 515.185C142.045 513.938 142.467 512.343 142.467 510.4C142.467 508.677 142.119 507.192 141.422 505.945C140.725 504.662 139.589 504.02 138.012 504.02C136.509 504.02 135.354 504.57 134.547 505.67C133.777 506.77 133.392 508.31 133.392 510.29V511.83C133.392 514.47 132.842 516.817 131.742 518.87C130.642 520.923 129.065 522.537 127.012 523.71C124.995 524.883 122.612 525.47 119.862 525.47C117.222 525.47 114.875 524.883 112.822 523.71C110.805 522.537 109.229 520.905 108.092 518.815C106.955 516.688 106.387 514.232 106.387 511.445C106.387 508.622 106.937 506.165 108.037 504.075C109.174 501.948 110.732 500.317 112.712 499.18C114.692 498.007 117.002 497.42 119.642 497.42C121.805 497.42 123.767 497.915 125.527 498.905C127.324 499.895 128.607 501.343 129.377 503.25H129.707C130.44 501.417 131.577 499.987 133.117 498.96C134.694 497.933 136.729 497.42 139.222 497.42C141.605 497.42 143.64 497.988 145.327 499.125C147.05 500.225 148.37 501.673 149.287 503.47C150.204 505.23 150.662 507.082 150.662 509.025C150.662 511.298 150.314 513.187 149.617 514.69C148.92 516.193 147.985 517.385 146.812 518.265C145.639 519.108 144.337 519.713 142.907 520.08V520.3C145.07 520.777 146.739 521.858 147.912 523.545C149.122 525.195 149.727 527.083 149.727 529.21C149.727 531.63 149.104 533.775 147.857 535.645C146.61 537.552 144.777 539.037 142.357 540.1C139.974 541.2 137.004 541.75 133.447 541.75ZM119.972 518.87C121.219 518.87 122.209 518.522 122.942 517.825C123.712 517.128 124.28 516.23 124.647 515.13C125.014 513.993 125.197 512.765 125.197 511.445C125.197 509.392 124.775 507.65 123.932 506.22C123.125 504.753 121.787 504.02 119.917 504.02C118.01 504.02 116.635 504.753 115.792 506.22C114.985 507.65 114.582 509.392 114.582 511.445C114.582 512.765 114.765 513.993 115.132 515.13C115.499 516.23 116.067 517.128 116.837 517.825C117.644 518.522 118.689 518.87 119.972 518.87ZM167.877 528.55C165.237 528.55 162.89 528.11 160.837 527.23C158.784 526.313 157.17 524.993 155.997 523.27C154.824 521.547 154.237 519.438 154.237 516.945C154.237 515.918 154.31 515.038 154.457 514.305C154.604 513.535 154.824 512.802 155.117 512.105H162.982C162.799 512.765 162.652 513.462 162.542 514.195C162.469 514.892 162.432 515.607 162.432 516.34C162.432 517.843 162.89 519.163 163.807 520.3C164.76 521.4 166.117 521.95 167.877 521.95C169.564 521.95 170.865 521.4 171.782 520.3C172.735 519.2 173.212 517.917 173.212 516.45C173.212 514.763 172.772 513.388 171.892 512.325C171.012 511.262 170.004 510.198 168.867 509.135C167.987 508.292 167.107 507.393 166.227 506.44C165.347 505.45 164.614 504.295 164.027 502.975C163.44 501.618 163.147 499.95 163.147 497.97H171.342C171.342 499.473 171.8 500.793 172.717 501.93C173.634 503.067 174.679 504.203 175.852 505.34C176.769 506.22 177.667 507.173 178.547 508.2C179.427 509.19 180.142 510.345 180.692 511.665C181.279 512.985 181.572 514.543 181.572 516.34C181.572 518.76 181.004 520.887 179.867 522.72C178.73 524.553 177.135 525.983 175.082 527.01C173.065 528.037 170.664 528.55 167.877 528.55ZM201.649 528.55C196.955 528.55 193.399 527.23 190.979 524.59C188.559 521.95 187.349 518.192 187.349 513.315V486.2H195.544V513.865C195.544 516.358 196.039 518.338 197.029 519.805C198.055 521.235 199.577 521.95 201.594 521.95C203.61 521.95 205.114 521.253 206.104 519.86C207.094 518.467 207.589 516.798 207.589 514.855C207.589 513.352 207.405 512.105 207.039 511.115C206.709 510.125 206.287 509.208 205.774 508.365C204.93 507.045 204.142 505.578 203.409 503.965C202.712 502.315 202.364 500.317 202.364 497.97H210.559C210.595 499.657 210.907 501.123 211.494 502.37C212.117 503.617 212.869 504.918 213.749 506.275C214.372 507.265 214.885 508.438 215.289 509.795C215.729 511.152 215.949 512.728 215.949 514.525C215.949 517.348 215.362 519.823 214.189 521.95C213.052 524.04 211.402 525.672 209.239 526.845C207.112 527.982 204.582 528.55 201.649 528.55ZM224.474 528C223.264 525.36 222.365 522.867 221.779 520.52C221.192 518.137 220.899 515.478 220.899 512.545C220.899 509.575 221.357 506.953 222.274 504.68C223.227 502.407 224.62 500.628 226.454 499.345C228.287 498.062 230.524 497.42 233.164 497.42C235.51 497.42 237.417 497.97 238.884 499.07C240.35 500.133 241.395 501.582 242.019 503.415H242.349C243.009 501.545 244.054 500.078 245.484 499.015C246.95 497.952 248.82 497.42 251.094 497.42C253.807 497.42 256.08 498.062 257.914 499.345C259.747 500.628 261.122 502.407 262.039 504.68C262.992 506.953 263.469 509.575 263.469 512.545C263.469 515.478 263.175 518.137 262.589 520.52C262.039 522.867 261.14 525.36 259.894 528H251.864C253.037 525.58 253.88 523.105 254.394 520.575C254.944 518.045 255.219 515.423 255.219 512.71C255.219 510.18 254.834 508.108 254.064 506.495C253.33 504.845 252.065 504.02 250.269 504.02C248.802 504.02 247.739 504.588 247.079 505.725C246.419 506.862 246.089 508.512 246.089 510.675V518.43H238.279V510.675C238.279 508.548 237.949 506.917 237.289 505.78C236.665 504.607 235.602 504.02 234.099 504.02C232.485 504.02 231.257 504.717 230.414 506.11C229.57 507.467 229.149 509.703 229.149 512.82C229.149 515.533 229.405 518.137 229.919 520.63C230.469 523.123 231.33 525.58 232.504 528H224.474Z" fill="#F47123"/>
<circle cx="327.5" cy="513.5" r="14.5" fill="#F47123"/>
<path d="M405.775 528.55C401.338 528.55 397.837 527.248 395.27 524.645C392.74 522.005 391.475 518.302 391.475 513.535C391.475 508.732 392.538 505.102 394.665 502.645C396.792 500.188 399.578 498.96 403.025 498.96C405.188 498.96 406.93 499.327 408.25 500.06C409.57 500.793 410.633 501.783 411.44 503.03H411.715C411.605 502.443 411.495 501.802 411.385 501.105C411.312 500.372 411.275 499.583 411.275 498.74V496.595C411.275 495.202 410.872 494.01 410.065 493.02C409.258 492.03 407.975 491.535 406.215 491.535C404.712 491.535 403.538 491.902 402.695 492.635C401.888 493.368 401.485 494.285 401.485 495.385C401.485 495.568 401.485 495.752 401.485 495.935C401.522 496.118 401.558 496.302 401.595 496.485H393.565C393.455 496.118 393.382 495.77 393.345 495.44C393.308 495.073 393.29 494.743 393.29 494.45C393.29 492.617 393.858 491.04 394.995 489.72C396.168 488.4 397.727 487.392 399.67 486.695C401.613 485.998 403.795 485.65 406.215 485.65C408.965 485.65 411.33 486.163 413.31 487.19C415.29 488.18 416.812 489.573 417.875 491.37C418.975 493.167 419.525 495.238 419.525 497.585V513.535C419.525 518.302 418.333 522.005 415.95 524.645C413.603 527.248 410.212 528.55 405.775 528.55ZM405.775 521.95C407.828 521.95 409.35 521.253 410.34 519.86C411.33 518.43 411.825 516.597 411.825 514.36V513.26C411.825 510.877 411.385 508.952 410.505 507.485C409.625 506.018 407.993 505.285 405.61 505.285C403.777 505.285 402.347 506.055 401.32 507.595C400.33 509.098 399.835 511.133 399.835 513.7C399.835 516.083 400.275 518.063 401.155 519.64C402.072 521.18 403.612 521.95 405.775 521.95ZM428.448 528C427.421 525.507 426.633 523.105 426.083 520.795C425.57 518.448 425.313 515.808 425.313 512.875C425.313 509.795 425.826 507.1 426.853 504.79C427.88 502.443 429.42 500.628 431.473 499.345C433.563 498.062 436.166 497.42 439.283 497.42C442.4 497.42 444.985 498.062 447.038 499.345C449.128 500.628 450.686 502.443 451.713 504.79C452.776 507.1 453.308 509.795 453.308 512.875C453.308 515.808 453.033 518.448 452.483 520.795C451.97 523.105 451.181 525.507 450.118 528H442.253C444.123 523.16 445.058 518.173 445.058 513.04C445.058 510.033 444.545 507.778 443.518 506.275C442.491 504.772 441.08 504.02 439.283 504.02C437.486 504.02 436.075 504.753 435.048 506.22C434.058 507.687 433.563 509.978 433.563 513.095C433.563 518.192 434.498 523.16 436.368 528H428.448ZM477.103 541.75C471.089 541.75 466.433 539.807 463.133 535.92C459.869 532.033 458.238 526.405 458.238 519.035C458.238 513.022 459.539 508.182 462.143 504.515C464.783 500.812 468.596 498.557 473.583 497.75C473.473 497.053 473.363 496.357 473.253 495.66C473.179 494.963 473.143 494.303 473.143 493.68V491.095H480.953V493.68C480.953 494.267 480.898 494.927 480.788 495.66C480.714 496.357 480.623 497.035 480.513 497.695C485.573 498.465 489.423 500.72 492.063 504.46C494.703 508.163 496.023 513.04 496.023 519.09C496.023 526.203 494.409 531.758 491.183 535.755C487.956 539.752 483.263 541.75 477.103 541.75ZM477.103 535.15C480.549 535.15 483.171 533.848 484.968 531.245C486.764 528.642 487.663 524.59 487.663 519.09C487.663 514.543 487.039 511.023 485.793 508.53C484.583 506 482.823 504.405 480.513 503.745C480.623 504.478 480.714 505.267 480.788 506.11C480.898 506.953 480.953 507.98 480.953 509.19V518.65H473.143V509.135C473.143 507.962 473.179 506.99 473.253 506.22C473.363 505.413 473.473 504.643 473.583 503.91C471.309 504.497 469.568 506.055 468.358 508.585C467.148 511.115 466.543 514.617 466.543 519.09C466.543 524.553 467.459 528.587 469.293 531.19C471.126 533.83 473.729 535.15 477.103 535.15ZM514.357 528.55C511.717 528.55 509.37 528.11 507.317 527.23C505.263 526.313 503.65 524.993 502.477 523.27C501.303 521.547 500.717 519.438 500.717 516.945C500.717 515.918 500.79 515.038 500.937 514.305C501.083 513.535 501.303 512.802 501.597 512.105H509.462C509.278 512.765 509.132 513.462 509.022 514.195C508.948 514.892 508.912 515.607 508.912 516.34C508.912 517.843 509.37 519.163 510.287 520.3C511.24 521.4 512.597 521.95 514.357 521.95C516.043 521.95 517.345 521.4 518.262 520.3C519.215 519.2 519.692 517.917 519.692 516.45C519.692 514.763 519.252 513.388 518.372 512.325C517.492 511.262 516.483 510.198 515.347 509.135C514.467 508.292 513.587 507.393 512.707 506.44C511.827 505.45 511.093 504.295 510.507 502.975C509.92 501.618 509.627 499.95 509.627 497.97H517.822C517.822 499.473 518.28 500.793 519.197 501.93C520.113 503.067 521.158 504.203 522.332 505.34C523.248 506.22 524.147 507.173 525.027 508.2C525.907 509.19 526.622 510.345 527.172 511.665C527.758 512.985 528.052 514.543 528.052 516.34C528.052 518.76 527.483 520.887 526.347 522.72C525.21 524.553 523.615 525.983 521.562 527.01C519.545 528.037 517.143 528.55 514.357 528.55ZM547.633 528.55C543.197 528.55 539.787 527.23 537.403 524.59C535.02 521.95 533.828 518.137 533.828 513.15V497.255C533.828 494.578 534.342 492.433 535.368 490.82C536.395 489.17 537.752 487.997 539.438 487.3C541.125 486.567 542.958 486.2 544.938 486.2H559.018V492.525H545.818C544.682 492.525 543.765 492.818 543.068 493.405C542.408 493.992 542.078 494.963 542.078 496.32V497.42C542.078 498.043 542.023 498.813 541.913 499.73C541.84 500.647 541.767 501.417 541.693 502.04H541.913C542.757 500.793 543.838 499.803 545.158 499.07C546.478 498.337 548.22 497.97 550.383 497.97C553.83 497.97 556.617 499.235 558.743 501.765C560.87 504.258 561.933 508.017 561.933 513.04C561.933 518.027 560.65 521.858 558.083 524.535C555.553 527.212 552.07 528.55 547.633 528.55ZM547.633 521.95C549.797 521.95 551.318 521.162 552.198 519.585C553.115 517.972 553.573 515.845 553.573 513.205C553.573 510.382 553.06 508.218 552.033 506.715C551.043 505.175 549.632 504.405 547.798 504.405C545.415 504.405 543.783 505.157 542.903 506.66C542.023 508.127 541.583 510.125 541.583 512.655V513.865C541.583 516.395 542.078 518.375 543.068 519.805C544.058 521.235 545.58 521.95 547.633 521.95ZM570.03 528C569.003 525.507 568.215 523.105 567.665 520.795C567.152 518.448 566.895 515.808 566.895 512.875C566.895 509.795 567.408 507.1 568.435 504.79C569.462 502.443 571.002 500.628 573.055 499.345C575.145 498.062 577.748 497.42 580.865 497.42C583.982 497.42 586.567 498.062 588.62 499.345C590.71 500.628 592.268 502.443 593.295 504.79C594.358 507.1 594.89 509.795 594.89 512.875C594.89 515.808 594.615 518.448 594.065 520.795C593.552 523.105 592.763 525.507 591.7 528H583.835C585.705 523.16 586.64 518.173 586.64 513.04C586.64 510.033 586.127 507.778 585.1 506.275C584.073 504.772 582.662 504.02 580.865 504.02C579.068 504.02 577.657 504.753 576.63 506.22C575.64 507.687 575.145 509.978 575.145 513.095C575.145 518.192 576.08 523.16 577.95 528H570.03ZM614.945 528.55C610.251 528.55 606.695 527.23 604.275 524.59C601.855 521.95 600.645 518.192 600.645 513.315V486.2H608.84V513.865C608.84 516.358 609.335 518.338 610.325 519.805C611.351 521.235 612.873 521.95 614.89 521.95C616.906 521.95 618.41 521.253 619.4 519.86C620.39 518.467 620.885 516.798 620.885 514.855C620.885 513.352 620.701 512.105 620.335 511.115C620.005 510.125 619.583 509.208 619.07 508.365C618.226 507.045 617.438 505.578 616.705 503.965C616.008 502.315 615.66 500.317 615.66 497.97H623.855C623.891 499.657 624.203 501.123 624.79 502.37C625.413 503.617 626.165 504.918 627.045 506.275C627.668 507.265 628.181 508.438 628.585 509.795C629.025 511.152 629.245 512.728 629.245 514.525C629.245 517.348 628.658 519.823 627.485 521.95C626.348 524.04 624.698 525.672 622.535 526.845C620.408 527.982 617.878 528.55 614.945 528.55Z" fill="#F47123"/>
<path d="M752.6 528.55C747.907 528.55 744.35 527.23 741.93 524.59C739.51 521.95 738.3 518.192 738.3 513.315V486.2H746.495V513.865C746.495 516.358 746.99 518.338 747.98 519.805C749.007 521.235 750.528 521.95 752.545 521.95C754.562 521.95 756.065 521.253 757.055 519.86C758.045 518.467 758.54 516.798 758.54 514.855C758.54 513.352 758.357 512.105 757.99 511.115C757.66 510.125 757.238 509.208 756.725 508.365C755.882 507.045 755.093 505.578 754.36 503.965C753.663 502.315 753.315 500.317 753.315 497.97H761.51C761.547 499.657 761.858 501.123 762.445 502.37C763.068 503.617 763.82 504.918 764.7 506.275C765.323 507.265 765.837 508.438 766.24 509.795C766.68 511.152 766.9 512.728 766.9 514.525C766.9 517.348 766.313 519.823 765.14 521.95C764.003 524.04 762.353 525.672 760.19 526.845C758.063 527.982 755.533 528.55 752.6 528.55ZM783.77 541.75C780.91 541.75 778.435 541.182 776.345 540.045C774.292 538.908 772.697 537.332 771.56 535.315C770.46 533.298 769.91 530.988 769.91 528.385C769.91 526.295 770.295 524.407 771.065 522.72H778.765C778.582 523.453 778.417 524.278 778.27 525.195C778.16 526.112 778.105 526.973 778.105 527.78C778.105 529.797 778.545 531.52 779.425 532.95C780.342 534.417 781.79 535.15 783.77 535.15C785.897 535.15 787.363 534.417 788.17 532.95C789.013 531.52 789.435 529.595 789.435 527.175V510.455C789.435 508.402 789.032 506.825 788.225 505.725C787.418 504.588 786.172 504.02 784.485 504.02C782.908 504.02 781.662 504.497 780.745 505.45C779.865 506.403 779.425 507.742 779.425 509.465C779.425 510.162 779.462 510.858 779.535 511.555C779.608 512.252 779.755 513.022 779.975 513.865H772.11C771.853 513.168 771.633 512.453 771.45 511.72C771.303 510.95 771.23 510.052 771.23 509.025C771.23 506.532 771.798 504.423 772.935 502.7C774.108 500.977 775.685 499.675 777.665 498.795C779.682 497.878 781.918 497.42 784.375 497.42C788.445 497.42 791.672 498.575 794.055 500.885C796.438 503.195 797.63 506.385 797.63 510.455V527.34C797.63 531.887 796.42 535.425 794 537.955C791.617 540.485 788.207 541.75 783.77 541.75ZM806.898 528C805.688 525.36 804.79 522.83 804.203 520.41C803.653 517.99 803.378 515.368 803.378 512.545V510.4C803.378 505.89 803.928 502.077 805.028 498.96C806.165 495.807 807.998 493.295 810.528 491.425C813.058 489.555 816.413 488.235 820.593 487.465C822.427 487.135 824.407 486.823 826.533 486.53C828.66 486.2 830.878 485.907 833.188 485.65L834.068 492.36C831.722 492.69 829.375 493.02 827.028 493.35C824.718 493.643 822.793 493.918 821.253 494.175C819.75 494.432 818.247 494.798 816.743 495.275C815.24 495.715 813.883 496.375 812.673 497.255C811.5 498.135 810.62 499.327 810.033 500.83H810.253C811.133 499.73 812.087 498.997 813.113 498.63C814.14 498.263 815.167 498.08 816.193 498.08C818.1 498.08 819.75 498.612 821.143 499.675C822.537 500.738 823.545 502.187 824.168 504.02H824.498C825.158 502.15 826.203 500.702 827.633 499.675C829.063 498.612 830.897 498.08 833.133 498.08C835.773 498.08 837.992 498.722 839.788 500.005C841.622 501.288 842.997 503.048 843.913 505.285C844.867 507.522 845.343 510.052 845.343 512.875C845.343 514.818 845.215 516.615 844.958 518.265C844.702 519.878 844.298 521.473 843.748 523.05C843.235 524.59 842.575 526.24 841.768 528H833.628C834.765 525.58 835.608 523.16 836.158 520.74C836.708 518.32 836.983 515.753 836.983 513.04C836.983 510.62 836.617 508.622 835.883 507.045C835.15 505.468 833.94 504.68 832.253 504.68C830.86 504.68 829.833 505.285 829.173 506.495C828.55 507.668 828.238 509.3 828.238 511.39V518.32H820.373V511.39C820.373 509.337 820.062 507.705 819.438 506.495C818.815 505.285 817.825 504.68 816.468 504.68C814.928 504.68 813.737 505.377 812.893 506.77C812.05 508.127 811.628 510.235 811.628 513.095C811.628 515.808 811.885 518.375 812.398 520.795C812.948 523.178 813.81 525.58 814.983 528H806.898ZM863.219 541.75C860.212 541.75 857.645 541.2 855.519 540.1C853.392 539.037 851.76 537.588 850.624 535.755C849.487 533.958 848.919 531.942 848.919 529.705C848.919 528.715 848.992 527.798 849.139 526.955C849.322 526.112 849.542 525.36 849.799 524.7H857.664C857.297 525.983 857.114 527.322 857.114 528.715C857.114 530.438 857.59 531.942 858.544 533.225C859.534 534.508 861.11 535.15 863.274 535.15C865.4 535.15 866.922 534.49 867.839 533.17C868.755 531.85 869.214 530.2 869.214 528.22C869.214 526.167 868.664 524.535 867.564 523.325C866.464 522.115 864.905 521.51 862.889 521.51H860.744V514.965H863.054C864.997 514.965 866.354 514.397 867.124 513.26C867.894 512.087 868.279 510.73 868.279 509.19C868.279 507.577 867.875 506.312 867.069 505.395C866.262 504.478 865.052 504.02 863.439 504.02C860.175 504.02 858.544 505.652 858.544 508.915C858.544 509.868 858.672 510.84 858.929 511.83H850.954C850.77 511.243 850.624 510.675 850.514 510.125C850.404 509.575 850.349 508.952 850.349 508.255C850.349 506.092 850.917 504.203 852.054 502.59C853.19 500.94 854.749 499.675 856.729 498.795C858.709 497.878 860.964 497.42 863.494 497.42C866.17 497.42 868.48 497.915 870.424 498.905C872.367 499.858 873.87 501.16 874.934 502.81C875.997 504.423 876.529 506.238 876.529 508.255C876.529 511.005 875.814 513.187 874.384 514.8C872.99 516.377 871.12 517.44 868.774 517.99V518.155C870.35 518.412 871.799 518.98 873.119 519.86C874.439 520.74 875.502 521.913 876.309 523.38C877.152 524.847 877.574 526.625 877.574 528.715C877.574 531.282 876.987 533.537 875.814 535.48C874.677 537.46 873.045 539 870.919 540.1C868.792 541.2 866.225 541.75 863.219 541.75ZM884.824 528C883.797 525.507 883.009 523.105 882.459 520.795C881.946 518.448 881.689 515.808 881.689 512.875C881.689 509.795 882.202 507.1 883.229 504.79C884.256 502.443 885.796 500.628 887.849 499.345C889.939 498.062 892.542 497.42 895.659 497.42C898.776 497.42 901.361 498.062 903.414 499.345C905.504 500.628 907.062 502.443 908.089 504.79C909.152 507.1 909.684 509.795 909.684 512.875C909.684 515.808 909.409 518.448 908.859 520.795C908.346 523.105 907.557 525.507 906.494 528H898.629C900.499 523.16 901.434 518.173 901.434 513.04C901.434 510.033 900.921 507.778 899.894 506.275C898.867 504.772 897.456 504.02 895.659 504.02C893.862 504.02 892.451 504.753 891.424 506.22C890.434 507.687 889.939 509.978 889.939 513.095C889.939 518.192 890.874 523.16 892.744 528H884.824ZM929.739 528.55C925.045 528.55 921.489 527.23 919.069 524.59C916.649 521.95 915.439 518.192 915.439 513.315V486.2H923.634V513.865C923.634 516.358 924.129 518.338 925.119 519.805C926.145 521.235 927.667 521.95 929.684 521.95C931.7 521.95 933.204 521.253 934.194 519.86C935.184 518.467 935.679 516.798 935.679 514.855C935.679 513.352 935.495 512.105 935.129 511.115C934.799 510.125 934.377 509.208 933.864 508.365C933.02 507.045 932.232 505.578 931.499 503.965C930.802 502.315 930.454 500.317 930.454 497.97H938.649C938.685 499.657 938.997 501.123 939.584 502.37C940.207 503.617 940.959 504.918 941.839 506.275C942.462 507.265 942.975 508.438 943.379 509.795C943.819 511.152 944.039 512.728 944.039 514.525C944.039 517.348 943.452 519.823 942.279 521.95C941.142 524.04 939.492 525.672 937.329 526.845C935.202 527.982 932.672 528.55 929.739 528.55ZM952.124 528C951.097 525.507 950.309 523.105 949.759 520.795C949.245 518.448 948.989 515.808 948.989 512.875C948.989 509.795 949.502 507.1 950.529 504.79C951.555 502.443 953.095 500.628 955.149 499.345C957.239 498.062 959.842 497.42 962.959 497.42C966.075 497.42 968.66 498.062 970.714 499.345C972.804 500.628 974.362 502.443 975.389 504.79C976.452 507.1 976.984 509.795 976.984 512.875C976.984 515.808 976.709 518.448 976.159 520.795C975.645 523.105 974.857 525.507 973.794 528H965.929C967.799 523.16 968.734 518.173 968.734 513.04C968.734 510.033 968.22 507.778 967.194 506.275C966.167 504.772 964.755 504.02 962.959 504.02C961.162 504.02 959.75 504.753 958.724 506.22C957.734 507.687 957.239 509.978 957.239 513.095C957.239 518.192 958.174 523.16 960.044 528H952.124Z" fill="#F47123"/>
<circle cx="683.5" cy="513.5" r="14.5" fill="#F47123"/>
</svg>
