<svg width="1050" height="600" viewBox="0 0 1050 600" fill="none" xmlns="http://www.w3.org/2000/svg">
<rect width="1050" height="600" fill="#387BA5"/>
<path d="M898 344C976.75 509.46 969.416 583.608 955.905 600H1050C1016.42 475.037 934.673 377.266 898 344Z" fill="white"/>
<path d="M1050 360.967V455C968.619 314.467 834.091 231.111 777 207C917.341 240.067 1017.48 323.422 1050 360.967Z" fill="white"/>
<path d="M679 131.257C844.297 168.688 995.207 141.349 1050 123V223C870.745 211.991 727.977 157.251 679 131.257Z" fill="white"/>
<path d="M856 136.428C687.194 145.278 613.664 49.1634 598 0H695.671C722.946 101.031 813.921 133.049 856 136.428Z" fill="white"/>
<path d="M87.5273 146H83.8521L69.8936 124.634V146H66.2183V118.273H69.8936L83.8901 139.735V118.273H87.5273V146ZM106.189 146C105.986 145.594 105.821 144.87 105.694 143.829C104.057 145.53 102.102 146.381 99.8291 146.381C97.7979 146.381 96.1284 145.81 94.8208 144.667C93.5259 143.512 92.8784 142.052 92.8784 140.287C92.8784 138.142 93.6909 136.479 95.3159 135.298C96.9536 134.104 99.2515 133.508 102.209 133.508H105.637V131.889C105.637 130.658 105.269 129.68 104.533 128.957C103.796 128.22 102.711 127.852 101.276 127.852C100.02 127.852 98.9658 128.169 98.1152 128.804C97.2646 129.439 96.8394 130.207 96.8394 131.108H93.2974C93.2974 130.08 93.6592 129.09 94.3828 128.138C95.1191 127.173 96.1094 126.411 97.3535 125.853C98.6104 125.294 99.9878 125.015 101.486 125.015C103.86 125.015 105.72 125.611 107.065 126.805C108.411 127.985 109.109 129.617 109.16 131.699V141.182C109.16 143.074 109.401 144.578 109.884 145.695V146H106.189ZM100.343 143.315C101.448 143.315 102.495 143.029 103.485 142.458C104.476 141.887 105.193 141.144 105.637 140.23V136.002H102.876C98.5596 136.002 96.4014 137.266 96.4014 139.792C96.4014 140.896 96.7695 141.76 97.5059 142.382C98.2422 143.004 99.188 143.315 100.343 143.315ZM117.996 125.396L118.091 127.681C119.602 125.903 121.64 125.015 124.204 125.015C127.086 125.015 129.047 126.119 130.088 128.328C130.774 127.338 131.663 126.538 132.754 125.929C133.859 125.319 135.16 125.015 136.658 125.015C141.178 125.015 143.476 127.408 143.552 132.194V146H140.029V132.403C140.029 130.931 139.692 129.833 139.02 129.109C138.347 128.373 137.217 128.004 135.63 128.004C134.322 128.004 133.237 128.398 132.374 129.185C131.51 129.959 131.009 131.007 130.869 132.327V146H127.327V132.499C127.327 129.502 125.861 128.004 122.928 128.004C120.618 128.004 119.037 128.988 118.187 130.956V146H114.664V125.396H117.996ZM157.434 146.381C154.641 146.381 152.369 145.467 150.617 143.639C148.865 141.798 147.989 139.341 147.989 136.269V135.622C147.989 133.578 148.376 131.756 149.15 130.156C149.938 128.544 151.029 127.287 152.426 126.386C153.835 125.472 155.358 125.015 156.996 125.015C159.675 125.015 161.757 125.897 163.242 127.662C164.728 129.426 165.47 131.953 165.47 135.241V136.707H151.512C151.562 138.738 152.153 140.382 153.283 141.639C154.425 142.883 155.873 143.505 157.625 143.505C158.869 143.505 159.922 143.251 160.786 142.744C161.649 142.236 162.404 141.563 163.052 140.725L165.204 142.401C163.477 145.054 160.887 146.381 157.434 146.381ZM156.996 127.909C155.574 127.909 154.381 128.43 153.416 129.471C152.451 130.499 151.854 131.946 151.626 133.812H161.947V133.546C161.846 131.756 161.363 130.372 160.5 129.395C159.637 128.404 158.469 127.909 156.996 127.909ZM183.466 143.01H196.605V146H179.791V118.273H183.466V143.01ZM212.944 146C212.741 145.594 212.576 144.87 212.449 143.829C210.812 145.53 208.856 146.381 206.584 146.381C204.553 146.381 202.883 145.81 201.576 144.667C200.281 143.512 199.633 142.052 199.633 140.287C199.633 138.142 200.446 136.479 202.071 135.298C203.708 134.104 206.006 133.508 208.964 133.508H212.392V131.889C212.392 130.658 212.024 129.68 211.288 128.957C210.551 128.22 209.466 127.852 208.031 127.852C206.774 127.852 205.721 128.169 204.87 128.804C204.02 129.439 203.594 130.207 203.594 131.108H200.052C200.052 130.08 200.414 129.09 201.138 128.138C201.874 127.173 202.864 126.411 204.108 125.853C205.365 125.294 206.743 125.015 208.241 125.015C210.615 125.015 212.475 125.611 213.82 126.805C215.166 127.985 215.864 129.617 215.915 131.699V141.182C215.915 143.074 216.156 144.578 216.639 145.695V146H212.944ZM207.098 143.315C208.203 143.315 209.25 143.029 210.24 142.458C211.23 141.887 211.948 141.144 212.392 140.23V136.002H209.631C205.314 136.002 203.156 137.266 203.156 139.792C203.156 140.896 203.524 141.76 204.261 142.382C204.997 143.004 205.943 143.315 207.098 143.315ZM233.435 140.535C233.435 139.583 233.073 138.846 232.349 138.326C231.638 137.792 230.388 137.335 228.598 136.955C226.82 136.574 225.405 136.117 224.351 135.583C223.31 135.05 222.536 134.416 222.028 133.679C221.533 132.943 221.285 132.067 221.285 131.051C221.285 129.363 221.996 127.935 223.418 126.767C224.853 125.599 226.681 125.015 228.902 125.015C231.238 125.015 233.13 125.618 234.577 126.824C236.037 128.03 236.767 129.572 236.767 131.451H233.225C233.225 130.486 232.812 129.655 231.987 128.957C231.175 128.258 230.146 127.909 228.902 127.909C227.62 127.909 226.617 128.188 225.894 128.747C225.17 129.306 224.808 130.036 224.808 130.937C224.808 131.788 225.145 132.429 225.817 132.86C226.49 133.292 227.703 133.705 229.455 134.098C231.219 134.492 232.647 134.961 233.739 135.507C234.831 136.053 235.637 136.713 236.158 137.488C236.691 138.25 236.958 139.183 236.958 140.287C236.958 142.128 236.221 143.607 234.749 144.724C233.276 145.829 231.365 146.381 229.017 146.381C227.366 146.381 225.906 146.089 224.637 145.505C223.367 144.921 222.371 144.108 221.647 143.067C220.936 142.014 220.581 140.877 220.581 139.659H224.104C224.167 140.839 224.637 141.779 225.513 142.477C226.401 143.163 227.569 143.505 229.017 143.505C230.35 143.505 231.416 143.239 232.216 142.706C233.028 142.16 233.435 141.436 233.435 140.535ZM246.327 120.406V125.396H250.173V128.119H246.327V140.896C246.327 141.722 246.498 142.344 246.841 142.763C247.184 143.169 247.768 143.372 248.593 143.372C248.999 143.372 249.558 143.296 250.269 143.144V146C249.342 146.254 248.44 146.381 247.564 146.381C245.99 146.381 244.803 145.905 244.003 144.953C243.204 144 242.804 142.648 242.804 140.896V128.119H239.052V125.396H242.804V120.406H246.327ZM257.638 125.396L257.752 127.985C259.327 126.005 261.383 125.015 263.922 125.015C268.277 125.015 270.473 127.471 270.511 132.384V146H266.988V132.365C266.976 130.88 266.633 129.782 265.96 129.071C265.3 128.36 264.265 128.004 262.856 128.004C261.713 128.004 260.71 128.309 259.847 128.918C258.984 129.528 258.311 130.328 257.829 131.318V146H254.306V125.396H257.638ZM288.545 146C288.342 145.594 288.177 144.87 288.05 143.829C286.412 145.53 284.457 146.381 282.185 146.381C280.153 146.381 278.484 145.81 277.176 144.667C275.881 143.512 275.234 142.052 275.234 140.287C275.234 138.142 276.046 136.479 277.671 135.298C279.309 134.104 281.607 133.508 284.565 133.508H287.993V131.889C287.993 130.658 287.625 129.68 286.888 128.957C286.152 128.22 285.066 127.852 283.632 127.852C282.375 127.852 281.321 128.169 280.471 128.804C279.62 129.439 279.195 130.207 279.195 131.108H275.653C275.653 130.08 276.015 129.09 276.738 128.138C277.475 127.173 278.465 126.411 279.709 125.853C280.966 125.294 282.343 125.015 283.841 125.015C286.215 125.015 288.075 125.611 289.421 126.805C290.767 127.985 291.465 129.617 291.516 131.699V141.182C291.516 143.074 291.757 144.578 292.239 145.695V146H288.545ZM282.699 143.315C283.803 143.315 284.851 143.029 285.841 142.458C286.831 141.887 287.548 141.144 287.993 140.23V136.002H285.231C280.915 136.002 278.757 137.266 278.757 139.792C278.757 140.896 279.125 141.76 279.861 142.382C280.598 143.004 281.543 143.315 282.699 143.315ZM300.352 125.396L300.447 127.681C301.958 125.903 303.995 125.015 306.56 125.015C309.441 125.015 311.403 126.119 312.444 128.328C313.129 127.338 314.018 126.538 315.11 125.929C316.214 125.319 317.516 125.015 319.014 125.015C323.533 125.015 325.831 127.408 325.907 132.194V146H322.384V132.403C322.384 130.931 322.048 129.833 321.375 129.109C320.702 128.373 319.572 128.004 317.985 128.004C316.678 128.004 315.592 128.398 314.729 129.185C313.866 129.959 313.364 131.007 313.225 132.327V146H309.683V132.499C309.683 129.502 308.216 128.004 305.284 128.004C302.973 128.004 301.393 128.988 300.542 130.956V146H297.019V125.396H300.352ZM339.79 146.381C336.997 146.381 334.724 145.467 332.972 143.639C331.22 141.798 330.344 139.341 330.344 136.269V135.622C330.344 133.578 330.731 131.756 331.506 130.156C332.293 128.544 333.385 127.287 334.781 126.386C336.19 125.472 337.714 125.015 339.352 125.015C342.03 125.015 344.112 125.897 345.598 127.662C347.083 129.426 347.826 131.953 347.826 135.241V136.707H333.867C333.918 138.738 334.508 140.382 335.638 141.639C336.781 142.883 338.228 143.505 339.98 143.505C341.224 143.505 342.278 143.251 343.141 142.744C344.004 142.236 344.76 141.563 345.407 140.725L347.559 142.401C345.833 145.054 343.243 146.381 339.79 146.381ZM339.352 127.909C337.93 127.909 336.736 128.43 335.771 129.471C334.807 130.499 334.21 131.946 333.981 133.812H344.303V133.546C344.201 131.756 343.719 130.372 342.855 129.395C341.992 128.404 340.824 127.909 339.352 127.909Z" fill="white"/>
<path d="M80.1367 179.36C79.917 181.24 79.2212 182.693 78.0493 183.718C76.8856 184.736 75.3353 185.244 73.3984 185.244C71.2988 185.244 69.6143 184.491 68.3447 182.986C67.0833 181.48 66.4526 179.466 66.4526 176.943V175.234C66.4526 173.582 66.7456 172.13 67.3315 170.876C67.9256 169.623 68.7638 168.663 69.8462 167.996C70.9285 167.32 72.1818 166.982 73.606 166.982C75.494 166.982 77.0076 167.511 78.147 168.569C79.2863 169.619 79.9495 171.076 80.1367 172.939H77.7808C77.5773 171.523 77.1338 170.498 76.4502 169.863C75.7747 169.229 74.8267 168.911 73.606 168.911C72.1086 168.911 70.9326 169.465 70.0781 170.571C69.2318 171.678 68.8086 173.253 68.8086 175.295V177.017C68.8086 178.945 69.2114 180.479 70.0171 181.619C70.8228 182.758 71.9499 183.328 73.3984 183.328C74.7005 183.328 75.6974 183.035 76.3892 182.449C77.089 181.855 77.5529 180.825 77.7808 179.36H80.1367ZM93.3936 176.785H85.6909V183.083H94.6387V185H83.3472V167.227H94.5166V169.155H85.6909V174.868H93.3936V176.785ZM111.228 176.687C111.228 178.429 110.935 179.95 110.349 181.252C109.763 182.546 108.933 183.535 107.859 184.219C106.785 184.902 105.531 185.244 104.099 185.244C102.699 185.244 101.458 184.902 100.376 184.219C99.2936 183.527 98.4513 182.546 97.8491 181.277C97.255 179.999 96.9499 178.522 96.9336 176.846V175.564C96.9336 173.855 97.2306 172.345 97.8247 171.035C98.4188 169.725 99.257 168.724 100.339 168.032C101.43 167.332 102.675 166.982 104.075 166.982C105.499 166.982 106.752 167.328 107.834 168.02C108.925 168.704 109.763 169.701 110.349 171.011C110.935 172.313 111.228 173.831 111.228 175.564V176.687ZM108.896 175.54C108.896 173.432 108.473 171.816 107.627 170.693C106.781 169.562 105.597 168.997 104.075 168.997C102.594 168.997 101.426 169.562 100.571 170.693C99.7249 171.816 99.2896 173.379 99.2651 175.381V176.687C99.2651 178.73 99.6924 180.337 100.547 181.509C101.41 182.673 102.594 183.254 104.099 183.254C105.613 183.254 106.785 182.705 107.615 181.606C108.445 180.5 108.872 178.917 108.896 176.858V175.54ZM130.747 177.151H123.289V185H120.945V167.227H131.956V169.155H123.289V175.234H130.747V177.151ZM133.542 178.274C133.542 176.98 133.795 175.816 134.299 174.783C134.812 173.749 135.52 172.952 136.423 172.39C137.335 171.829 138.372 171.548 139.536 171.548C141.335 171.548 142.787 172.17 143.894 173.416C145.009 174.661 145.566 176.317 145.566 178.384V178.542C145.566 179.828 145.318 180.984 144.822 182.009C144.333 183.027 143.63 183.82 142.71 184.39C141.799 184.959 140.749 185.244 139.561 185.244C137.77 185.244 136.318 184.622 135.203 183.376C134.096 182.131 133.542 180.483 133.542 178.433V178.274ZM135.813 178.542C135.813 180.007 136.151 181.183 136.826 182.07C137.51 182.957 138.421 183.401 139.561 183.401C140.708 183.401 141.619 182.953 142.295 182.058C142.97 181.155 143.308 179.893 143.308 178.274C143.308 176.825 142.962 175.653 142.271 174.758C141.587 173.855 140.675 173.403 139.536 173.403C138.421 173.403 137.522 173.847 136.838 174.734C136.155 175.621 135.813 176.89 135.813 178.542ZM156.553 183.694C155.674 184.727 154.384 185.244 152.683 185.244C151.275 185.244 150.201 184.837 149.46 184.023C148.728 183.201 148.358 181.989 148.35 180.386V171.792H150.608V180.325C150.608 182.327 151.422 183.328 153.049 183.328C154.775 183.328 155.922 182.685 156.492 181.399V171.792H158.75V185H156.602L156.553 183.694ZM164.329 171.792L164.402 173.452C165.411 172.183 166.729 171.548 168.357 171.548C171.148 171.548 172.556 173.123 172.581 176.272V185H170.322V176.26C170.314 175.308 170.094 174.604 169.663 174.148C169.24 173.692 168.577 173.464 167.673 173.464C166.941 173.464 166.298 173.66 165.745 174.05C165.191 174.441 164.76 174.954 164.451 175.588V185H162.192V171.792H164.329ZM175.437 178.286C175.437 176.26 175.917 174.632 176.877 173.403C177.838 172.166 179.095 171.548 180.649 171.548C182.196 171.548 183.42 172.077 184.324 173.135V166.25H186.582V185H184.507L184.397 183.584C183.494 184.691 182.236 185.244 180.625 185.244C179.095 185.244 177.846 184.618 176.877 183.364C175.917 182.111 175.437 180.475 175.437 178.457V178.286ZM177.695 178.542C177.695 180.04 178.005 181.212 178.623 182.058C179.242 182.904 180.096 183.328 181.187 183.328C182.619 183.328 183.665 182.685 184.324 181.399V175.332C183.648 174.087 182.611 173.464 181.211 173.464C180.104 173.464 179.242 173.892 178.623 174.746C178.005 175.601 177.695 176.866 177.695 178.542ZM195.579 185.244C193.788 185.244 192.332 184.658 191.208 183.486C190.085 182.306 189.524 180.732 189.524 178.762V178.347C189.524 177.037 189.772 175.869 190.269 174.844C190.773 173.81 191.473 173.005 192.368 172.427C193.271 171.841 194.248 171.548 195.298 171.548C197.015 171.548 198.35 172.113 199.302 173.245C200.254 174.376 200.73 175.995 200.73 178.103V179.043H191.782C191.815 180.345 192.193 181.399 192.917 182.205C193.65 183.002 194.578 183.401 195.701 183.401C196.498 183.401 197.174 183.238 197.727 182.913C198.28 182.587 198.765 182.156 199.18 181.619L200.559 182.693C199.452 184.394 197.792 185.244 195.579 185.244ZM195.298 173.403C194.386 173.403 193.621 173.737 193.003 174.404C192.384 175.063 192.002 175.991 191.855 177.188H198.472V177.017C198.407 175.869 198.097 174.982 197.544 174.355C196.991 173.721 196.242 173.403 195.298 173.403ZM209.739 173.818C209.397 173.761 209.027 173.733 208.628 173.733C207.147 173.733 206.142 174.364 205.613 175.625V185H203.354V171.792H205.552L205.588 173.318C206.329 172.138 207.379 171.548 208.738 171.548C209.177 171.548 209.511 171.605 209.739 171.719V173.818Z" fill="white"/>
<path d="M137.899 317H135.628V301.949L131.075 303.621V301.57L137.545 299.141H137.899V317ZM156.161 317H144.515V315.376L150.667 308.541C151.579 307.507 152.206 306.669 152.547 306.026C152.897 305.375 153.072 304.703 153.072 304.012C153.072 303.084 152.792 302.323 152.23 301.729C151.668 301.135 150.92 300.838 149.984 300.838C148.861 300.838 147.986 301.159 147.359 301.802C146.741 302.437 146.432 303.324 146.432 304.463H144.173C144.173 302.828 144.698 301.505 145.748 300.496C146.806 299.487 148.218 298.982 149.984 298.982C151.636 298.982 152.942 299.418 153.902 300.289C154.863 301.151 155.343 302.303 155.343 303.743C155.343 305.493 154.228 307.576 151.998 309.993L147.237 315.157H156.161V317ZM161.837 307.015H163.534C164.6 306.998 165.438 306.718 166.048 306.172C166.659 305.627 166.964 304.891 166.964 303.963C166.964 301.88 165.926 300.838 163.851 300.838C162.875 300.838 162.093 301.119 161.507 301.68C160.93 302.234 160.641 302.97 160.641 303.89H158.382C158.382 302.482 158.895 301.314 159.92 300.386C160.954 299.45 162.264 298.982 163.851 298.982C165.528 298.982 166.842 299.426 167.794 300.313C168.746 301.2 169.222 302.433 169.222 304.012C169.222 304.785 168.97 305.534 168.465 306.258C167.969 306.982 167.289 307.523 166.427 307.881C167.403 308.191 168.156 308.703 168.685 309.419C169.222 310.136 169.491 311.01 169.491 312.044C169.491 313.639 168.97 314.904 167.928 315.84C166.887 316.776 165.532 317.244 163.863 317.244C162.195 317.244 160.836 316.792 159.786 315.889C158.744 314.986 158.224 313.794 158.224 312.312H160.494C160.494 313.248 160.799 313.997 161.41 314.559C162.02 315.12 162.838 315.401 163.863 315.401C164.954 315.401 165.788 315.116 166.366 314.546C166.944 313.977 167.232 313.159 167.232 312.093C167.232 311.059 166.915 310.266 166.28 309.712C165.646 309.159 164.73 308.874 163.534 308.858H161.837V307.015ZM191.17 301.155H185.458V317H183.126V301.155H177.425V299.227H191.17V301.155ZM204.635 310.542C204.635 312.561 204.171 314.184 203.243 315.413C202.315 316.634 201.07 317.244 199.508 317.244C197.84 317.244 196.55 316.654 195.638 315.474L195.528 317H193.453V298.25H195.711V305.245C196.623 304.113 197.88 303.548 199.483 303.548C201.087 303.548 202.344 304.154 203.255 305.367C204.175 306.579 204.635 308.239 204.635 310.347V310.542ZM202.376 310.286C202.376 308.748 202.079 307.56 201.485 306.722C200.891 305.883 200.037 305.464 198.922 305.464C197.433 305.464 196.362 306.156 195.711 307.54V313.252C196.403 314.636 197.481 315.328 198.946 315.328C200.029 315.328 200.871 314.909 201.473 314.07C202.075 313.232 202.376 311.971 202.376 310.286ZM209.945 317H207.687V303.792H209.945V317ZM207.503 300.289C207.503 299.922 207.613 299.613 207.833 299.361C208.061 299.109 208.395 298.982 208.834 298.982C209.273 298.982 209.607 299.109 209.835 299.361C210.063 299.613 210.177 299.922 210.177 300.289C210.177 300.655 210.063 300.96 209.835 301.204C209.607 301.448 209.273 301.57 208.834 301.57C208.395 301.57 208.061 301.448 207.833 301.204C207.613 300.96 207.503 300.655 207.503 300.289ZM216.024 317H213.766V298.25H216.024V317ZM222.103 317H219.845V303.792H222.103V317ZM219.662 300.289C219.662 299.922 219.771 299.613 219.991 299.361C220.219 299.109 220.553 298.982 220.992 298.982C221.432 298.982 221.765 299.109 221.993 299.361C222.221 299.613 222.335 299.922 222.335 300.289C222.335 300.655 222.221 300.96 221.993 301.204C221.765 301.448 221.432 301.57 220.992 301.57C220.553 301.57 220.219 301.448 219.991 301.204C219.771 300.96 219.662 300.655 219.662 300.289ZM233.419 313.497C233.419 312.886 233.187 312.414 232.723 312.081C232.267 311.739 231.466 311.446 230.318 311.202C229.179 310.958 228.272 310.665 227.596 310.323C226.929 309.981 226.432 309.574 226.107 309.102C225.79 308.63 225.631 308.069 225.631 307.417C225.631 306.335 226.087 305.42 226.998 304.671C227.918 303.922 229.09 303.548 230.514 303.548C232.011 303.548 233.224 303.934 234.151 304.708C235.087 305.481 235.555 306.469 235.555 307.674H233.285C233.285 307.055 233.02 306.522 232.491 306.075C231.97 305.627 231.311 305.403 230.514 305.403C229.692 305.403 229.049 305.582 228.585 305.94C228.121 306.299 227.889 306.766 227.889 307.344C227.889 307.889 228.105 308.3 228.536 308.577C228.967 308.854 229.745 309.118 230.868 309.371C231.999 309.623 232.914 309.924 233.614 310.274C234.314 310.624 234.831 311.047 235.165 311.543C235.506 312.032 235.677 312.63 235.677 313.338C235.677 314.518 235.205 315.466 234.261 316.182C233.317 316.89 232.092 317.244 230.587 317.244C229.529 317.244 228.593 317.057 227.779 316.683C226.965 316.308 226.327 315.787 225.863 315.12C225.407 314.445 225.179 313.716 225.179 312.935H227.438C227.478 313.692 227.779 314.294 228.341 314.742C228.91 315.181 229.659 315.401 230.587 315.401C231.441 315.401 232.125 315.23 232.638 314.888C233.159 314.538 233.419 314.074 233.419 313.497ZM241.073 317H238.814V303.792H241.073V317ZM238.631 300.289C238.631 299.922 238.741 299.613 238.961 299.361C239.189 299.109 239.522 298.982 239.962 298.982C240.401 298.982 240.735 299.109 240.963 299.361C241.191 299.613 241.305 299.922 241.305 300.289C241.305 300.655 241.191 300.96 240.963 301.204C240.735 301.448 240.401 301.57 239.962 301.57C239.522 301.57 239.189 301.448 238.961 301.204C238.741 300.96 238.631 300.655 238.631 300.289ZM264.327 311.36C264.107 313.24 263.412 314.693 262.24 315.718C261.076 316.736 259.526 317.244 257.589 317.244C255.489 317.244 253.805 316.491 252.535 314.986C251.274 313.48 250.643 311.466 250.643 308.943V307.234C250.643 305.582 250.936 304.13 251.522 302.876C252.116 301.623 252.954 300.663 254.037 299.996C255.119 299.32 256.372 298.982 257.796 298.982C259.684 298.982 261.198 299.511 262.337 300.569C263.477 301.619 264.14 303.076 264.327 304.939H261.971C261.768 303.523 261.324 302.498 260.641 301.863C259.965 301.229 259.017 300.911 257.796 300.911C256.299 300.911 255.123 301.465 254.269 302.571C253.422 303.678 252.999 305.253 252.999 307.295V309.017C252.999 310.945 253.402 312.479 254.208 313.619C255.013 314.758 256.14 315.328 257.589 315.328C258.891 315.328 259.888 315.035 260.58 314.449C261.279 313.855 261.743 312.825 261.971 311.36H264.327ZM269.442 305.391C270.443 304.162 271.745 303.548 273.348 303.548C276.139 303.548 277.547 305.123 277.572 308.272V317H275.313V308.26C275.305 307.308 275.086 306.604 274.654 306.148C274.231 305.692 273.568 305.464 272.665 305.464C271.932 305.464 271.289 305.66 270.736 306.05C270.182 306.441 269.751 306.954 269.442 307.588V317H267.184V298.25H269.442V305.391ZM289.107 317C288.977 316.74 288.871 316.276 288.79 315.608C287.74 316.699 286.487 317.244 285.03 317.244C283.728 317.244 282.658 316.878 281.82 316.146C280.99 315.405 280.575 314.469 280.575 313.338C280.575 311.963 281.096 310.896 282.137 310.14C283.187 309.375 284.66 308.992 286.556 308.992H288.753V307.955C288.753 307.165 288.517 306.539 288.045 306.075C287.573 305.603 286.878 305.367 285.958 305.367C285.152 305.367 284.477 305.57 283.932 305.977C283.386 306.384 283.114 306.876 283.114 307.454H280.843C280.843 306.795 281.075 306.16 281.539 305.55C282.011 304.931 282.646 304.443 283.443 304.085C284.249 303.727 285.132 303.548 286.092 303.548C287.614 303.548 288.806 303.93 289.669 304.695C290.532 305.452 290.979 306.498 291.012 307.833V313.912C291.012 315.124 291.166 316.089 291.476 316.805V317H289.107ZM285.36 315.279C286.068 315.279 286.739 315.096 287.374 314.729C288.009 314.363 288.469 313.887 288.753 313.301V310.591H286.983C284.216 310.591 282.833 311.401 282.833 313.021C282.833 313.729 283.069 314.282 283.541 314.681C284.013 315.079 284.619 315.279 285.36 315.279ZM298.714 313.936L301.986 303.792H304.293L299.557 317H297.835L293.05 303.792H295.357L298.714 313.936ZM311.593 315.401C312.398 315.401 313.102 315.157 313.705 314.668C314.307 314.18 314.64 313.57 314.706 312.837H316.842C316.801 313.594 316.541 314.314 316.061 314.998C315.58 315.682 314.938 316.227 314.132 316.634C313.334 317.041 312.488 317.244 311.593 317.244C309.794 317.244 308.362 316.646 307.296 315.45C306.238 314.245 305.709 312.601 305.709 310.518V310.14C305.709 308.854 305.945 307.71 306.417 306.709C306.889 305.708 307.564 304.931 308.443 304.378C309.33 303.825 310.376 303.548 311.581 303.548C313.062 303.548 314.291 303.991 315.267 304.878C316.252 305.765 316.777 306.917 316.842 308.333H314.706C314.64 307.479 314.315 306.779 313.729 306.233C313.151 305.68 312.435 305.403 311.581 305.403C310.433 305.403 309.542 305.818 308.907 306.648C308.281 307.47 307.967 308.663 307.967 310.225V310.652C307.967 312.174 308.281 313.346 308.907 314.168C309.534 314.99 310.429 315.401 311.593 315.401ZM321.639 305.391C322.64 304.162 323.942 303.548 325.545 303.548C328.337 303.548 329.745 305.123 329.769 308.272V317H327.511V308.26C327.503 307.308 327.283 306.604 326.852 306.148C326.428 305.692 325.765 305.464 324.862 305.464C324.129 305.464 323.486 305.66 322.933 306.05C322.38 306.441 321.948 306.954 321.639 307.588V317H319.381V298.25H321.639V305.391ZM341.305 317C341.174 316.74 341.069 316.276 340.987 315.608C339.938 316.699 338.684 317.244 337.228 317.244C335.925 317.244 334.855 316.878 334.017 316.146C333.187 315.405 332.772 314.469 332.772 313.338C332.772 311.963 333.293 310.896 334.334 310.14C335.384 309.375 336.857 308.992 338.753 308.992H340.951V307.955C340.951 307.165 340.715 306.539 340.243 306.075C339.771 305.603 339.075 305.367 338.155 305.367C337.35 305.367 336.674 305.57 336.129 305.977C335.584 306.384 335.311 306.876 335.311 307.454H333.041C333.041 306.795 333.272 306.16 333.736 305.55C334.208 304.931 334.843 304.443 335.641 304.085C336.446 303.727 337.329 303.548 338.29 303.548C339.811 303.548 341.004 303.93 341.866 304.695C342.729 305.452 343.176 306.498 343.209 307.833V313.912C343.209 315.124 343.364 316.089 343.673 316.805V317H341.305ZM337.557 315.279C338.265 315.279 338.937 315.096 339.571 314.729C340.206 314.363 340.666 313.887 340.951 313.301V310.591H339.181C336.414 310.591 335.03 311.401 335.03 313.021C335.03 313.729 335.266 314.282 335.738 314.681C336.21 315.079 336.817 315.279 337.557 315.279ZM350.912 313.936L354.183 303.792H356.49L351.754 317H350.033L345.248 303.792H347.555L350.912 313.936ZM366.622 317C366.492 316.74 366.386 316.276 366.305 315.608C365.255 316.699 364.002 317.244 362.545 317.244C361.243 317.244 360.173 316.878 359.334 316.146C358.504 315.405 358.089 314.469 358.089 313.338C358.089 311.963 358.61 310.896 359.652 310.14C360.702 309.375 362.175 308.992 364.071 308.992H366.268V307.955C366.268 307.165 366.032 306.539 365.56 306.075C365.088 305.603 364.392 305.367 363.473 305.367C362.667 305.367 361.992 305.57 361.446 305.977C360.901 306.384 360.628 306.876 360.628 307.454H358.358C358.358 306.795 358.59 306.16 359.054 305.55C359.526 304.931 360.16 304.443 360.958 304.085C361.764 303.727 362.647 303.548 363.607 303.548C365.129 303.548 366.321 303.93 367.184 304.695C368.046 305.452 368.494 306.498 368.526 307.833V313.912C368.526 315.124 368.681 316.089 368.99 316.805V317H366.622ZM362.875 315.279C363.583 315.279 364.254 315.096 364.889 314.729C365.523 314.363 365.983 313.887 366.268 313.301V310.591H364.498C361.731 310.591 360.348 311.401 360.348 313.021C360.348 313.729 360.584 314.282 361.056 314.681C361.528 315.079 362.134 315.279 362.875 315.279ZM371.517 310.286C371.517 308.26 371.997 306.632 372.958 305.403C373.918 304.166 375.175 303.548 376.729 303.548C378.276 303.548 379.5 304.077 380.404 305.135V298.25H382.662V317H380.587L380.477 315.584C379.574 316.691 378.316 317.244 376.705 317.244C375.175 317.244 373.926 316.618 372.958 315.364C371.997 314.111 371.517 312.475 371.517 310.457V310.286ZM373.775 310.542C373.775 312.04 374.085 313.212 374.703 314.058C375.322 314.904 376.176 315.328 377.267 315.328C378.699 315.328 379.745 314.685 380.404 313.399V307.332C379.728 306.087 378.691 305.464 377.291 305.464C376.184 305.464 375.322 305.892 374.703 306.746C374.085 307.601 373.775 308.866 373.775 310.542ZM388.302 315.157H396.029V317H385.543V315.34L392.831 305.66H385.653V303.792H395.663V305.391L388.302 315.157ZM403.866 317.244C402.075 317.244 400.619 316.658 399.496 315.486C398.373 314.306 397.811 312.732 397.811 310.762V310.347C397.811 309.037 398.059 307.869 398.556 306.844C399.06 305.81 399.76 305.005 400.655 304.427C401.559 303.841 402.535 303.548 403.585 303.548C405.302 303.548 406.637 304.113 407.589 305.245C408.541 306.376 409.017 307.995 409.017 310.103V311.043H400.069C400.102 312.345 400.48 313.399 401.205 314.205C401.937 315.002 402.865 315.401 403.988 315.401C404.785 315.401 405.461 315.238 406.014 314.913C406.568 314.587 407.052 314.156 407.467 313.619L408.846 314.693C407.739 316.394 406.079 317.244 403.866 317.244ZM403.585 305.403C402.674 305.403 401.909 305.737 401.29 306.404C400.672 307.063 400.289 307.991 400.143 309.188H406.759V309.017C406.694 307.869 406.384 306.982 405.831 306.355C405.278 305.721 404.529 305.403 403.585 305.403Z" fill="white"/>
<path d="M137.179 383.466H142.135V385.603H137.179V391.218H134.908V385.603H129.952V383.466H134.908V378.278H137.179V383.466ZM153.316 385.188C152.844 385.749 152.279 386.201 151.62 386.542C150.969 386.884 150.252 387.055 149.471 387.055C148.446 387.055 147.551 386.803 146.786 386.298C146.029 385.794 145.443 385.086 145.028 384.174C144.613 383.255 144.405 382.242 144.405 381.135C144.405 379.947 144.629 378.876 145.077 377.924C145.532 376.972 146.175 376.244 147.005 375.739C147.835 375.235 148.804 374.982 149.911 374.982C151.668 374.982 153.052 375.642 154.061 376.96C155.078 378.27 155.587 380.061 155.587 382.331V382.99C155.587 386.449 154.903 388.976 153.536 390.571C152.169 392.158 150.106 392.972 147.347 393.012H146.908V391.108H147.384C149.247 391.075 150.68 390.591 151.681 389.655C152.682 388.711 153.227 387.222 153.316 385.188ZM149.837 385.188C150.594 385.188 151.29 384.956 151.925 384.492C152.568 384.028 153.036 383.454 153.329 382.771V381.867C153.329 380.386 153.007 379.182 152.364 378.254C151.721 377.326 150.908 376.862 149.923 376.862C148.93 376.862 148.132 377.245 147.53 378.01C146.928 378.767 146.627 379.768 146.627 381.013C146.627 382.225 146.916 383.226 147.494 384.016C148.08 384.797 148.861 385.188 149.837 385.188ZM167.354 385.188C166.882 385.749 166.317 386.201 165.658 386.542C165.007 386.884 164.291 387.055 163.509 387.055C162.484 387.055 161.589 386.803 160.824 386.298C160.067 385.794 159.481 385.086 159.066 384.174C158.651 383.255 158.443 382.242 158.443 381.135C158.443 379.947 158.667 378.876 159.115 377.924C159.57 376.972 160.213 376.244 161.043 375.739C161.874 375.235 162.842 374.982 163.949 374.982C165.707 374.982 167.09 375.642 168.099 376.96C169.116 378.27 169.625 380.061 169.625 382.331V382.99C169.625 386.449 168.941 388.976 167.574 390.571C166.207 392.158 164.144 392.972 161.385 393.012H160.946V391.108H161.422C163.285 391.075 164.718 390.591 165.719 389.655C166.72 388.711 167.265 387.222 167.354 385.188ZM163.875 385.188C164.632 385.188 165.328 384.956 165.963 384.492C166.606 384.028 167.074 383.454 167.367 382.771V381.867C167.367 380.386 167.045 379.182 166.402 378.254C165.759 377.326 164.946 376.862 163.961 376.862C162.968 376.862 162.171 377.245 161.568 378.01C160.966 378.767 160.665 379.768 160.665 381.013C160.665 382.225 160.954 383.226 161.532 384.016C162.118 384.797 162.899 385.188 163.875 385.188ZM173.775 384.089L174.679 375.227H183.785V377.314H176.595L176.058 382.16C176.929 381.647 177.918 381.391 179.024 381.391C180.644 381.391 181.93 381.928 182.882 383.002C183.834 384.069 184.31 385.513 184.31 387.336C184.31 389.167 183.814 390.611 182.821 391.669C181.836 392.719 180.457 393.244 178.683 393.244C177.112 393.244 175.83 392.809 174.837 391.938C173.845 391.067 173.279 389.863 173.141 388.325H175.277C175.415 389.342 175.777 390.111 176.363 390.632C176.949 391.145 177.722 391.401 178.683 391.401C179.732 391.401 180.554 391.043 181.148 390.327C181.751 389.611 182.052 388.622 182.052 387.36C182.052 386.172 181.726 385.22 181.075 384.504C180.432 383.78 179.574 383.417 178.5 383.417C177.515 383.417 176.742 383.633 176.18 384.064L175.582 384.553L173.775 384.089ZM196.261 383.015H197.958C199.024 382.998 199.862 382.718 200.472 382.172C201.083 381.627 201.388 380.891 201.388 379.963C201.388 377.88 200.35 376.838 198.275 376.838C197.298 376.838 196.517 377.119 195.931 377.68C195.353 378.234 195.064 378.97 195.064 379.89H192.806C192.806 378.482 193.319 377.314 194.344 376.386C195.378 375.45 196.688 374.982 198.275 374.982C199.951 374.982 201.266 375.426 202.218 376.313C203.17 377.2 203.646 378.433 203.646 380.012C203.646 380.785 203.394 381.534 202.889 382.258C202.393 382.982 201.713 383.523 200.851 383.881C201.827 384.191 202.58 384.703 203.109 385.419C203.646 386.136 203.915 387.01 203.915 388.044C203.915 389.639 203.394 390.904 202.352 391.84C201.31 392.776 199.955 393.244 198.287 393.244C196.619 393.244 195.26 392.792 194.21 391.889C193.168 390.986 192.647 389.794 192.647 388.312H194.918C194.918 389.248 195.223 389.997 195.833 390.559C196.444 391.12 197.262 391.401 198.287 391.401C199.378 391.401 200.212 391.116 200.79 390.546C201.367 389.977 201.656 389.159 201.656 388.093C201.656 387.059 201.339 386.266 200.704 385.712C200.069 385.159 199.154 384.874 197.958 384.858H196.261V383.015ZM218.661 393H207.015V391.376L213.167 384.541C214.079 383.507 214.706 382.669 215.047 382.026C215.397 381.375 215.572 380.703 215.572 380.012C215.572 379.084 215.292 378.323 214.73 377.729C214.168 377.135 213.42 376.838 212.484 376.838C211.361 376.838 210.486 377.159 209.859 377.802C209.241 378.437 208.932 379.324 208.932 380.463H206.673C206.673 378.828 207.198 377.505 208.248 376.496C209.306 375.487 210.718 374.982 212.484 374.982C214.136 374.982 215.442 375.418 216.402 376.289C217.363 377.151 217.843 378.303 217.843 379.743C217.843 381.493 216.728 383.576 214.498 385.993L209.737 391.157H218.661V393ZM230.587 387.031H233.053V388.874H230.587V393H228.316V388.874H220.223V387.543L228.182 375.227H230.587V387.031ZM222.787 387.031H228.316V378.315L228.048 378.803L222.787 387.031ZM246.737 393H235.091V391.376L241.244 384.541C242.155 383.507 242.782 382.669 243.124 382.026C243.473 381.375 243.648 380.703 243.648 380.012C243.648 379.084 243.368 378.323 242.806 377.729C242.245 377.135 241.496 376.838 240.56 376.838C239.437 376.838 238.562 377.159 237.936 377.802C237.317 378.437 237.008 379.324 237.008 380.463H234.75C234.75 378.828 235.274 377.505 236.324 376.496C237.382 375.487 238.794 374.982 240.56 374.982C242.212 374.982 243.518 375.418 244.479 376.289C245.439 377.151 245.919 378.303 245.919 379.743C245.919 381.493 244.804 383.576 242.574 385.993L237.813 391.157H246.737V393ZM252.413 383.015H254.11C255.176 382.998 256.014 382.718 256.625 382.172C257.235 381.627 257.54 380.891 257.54 379.963C257.54 377.88 256.502 376.838 254.427 376.838C253.451 376.838 252.669 377.119 252.083 377.68C251.506 378.234 251.217 378.97 251.217 379.89H248.958C248.958 378.482 249.471 377.314 250.497 376.386C251.53 375.45 252.84 374.982 254.427 374.982C256.104 374.982 257.418 375.426 258.37 376.313C259.322 377.2 259.798 378.433 259.798 380.012C259.798 380.785 259.546 381.534 259.042 382.258C258.545 382.982 257.866 383.523 257.003 383.881C257.979 384.191 258.732 384.703 259.261 385.419C259.798 386.136 260.067 387.01 260.067 388.044C260.067 389.639 259.546 390.904 258.504 391.84C257.463 392.776 256.108 393.244 254.439 393.244C252.771 393.244 251.412 392.792 250.362 391.889C249.321 390.986 248.8 389.794 248.8 388.312H251.07C251.07 389.248 251.375 389.997 251.986 390.559C252.596 391.12 253.414 391.401 254.439 391.401C255.53 391.401 256.364 391.116 256.942 390.546C257.52 389.977 257.809 389.159 257.809 388.093C257.809 387.059 257.491 386.266 256.856 385.712C256.222 385.159 255.306 384.874 254.11 384.858H252.413V383.015ZM278.902 387.031H281.368V388.874H278.902V393H276.632V388.874H268.539V387.543L276.498 375.227H278.902V387.031ZM271.102 387.031H276.632V378.315L276.363 378.803L271.102 387.031ZM290.829 393H288.558V377.949L284.005 379.621V377.57L290.475 375.141H290.829V393ZM313.18 387.031H315.646V388.874H313.18V393H310.909V388.874H302.816V387.543L310.775 375.227H313.18V387.031ZM305.379 387.031H310.909V378.315L310.641 378.803L305.379 387.031ZM320.968 383.015H322.665C323.731 382.998 324.569 382.718 325.179 382.172C325.79 381.627 326.095 380.891 326.095 379.963C326.095 377.88 325.057 376.838 322.982 376.838C322.005 376.838 321.224 377.119 320.638 377.68C320.06 378.234 319.771 378.97 319.771 379.89H317.513C317.513 378.482 318.026 377.314 319.051 376.386C320.085 375.45 321.395 374.982 322.982 374.982C324.658 374.982 325.973 375.426 326.925 376.313C327.877 377.2 328.353 378.433 328.353 380.012C328.353 380.785 328.101 381.534 327.596 382.258C327.1 382.982 326.42 383.523 325.558 383.881C326.534 384.191 327.287 384.703 327.816 385.419C328.353 386.136 328.622 387.01 328.622 388.044C328.622 389.639 328.101 390.904 327.059 391.84C326.017 392.776 324.662 393.244 322.994 393.244C321.326 393.244 319.967 392.792 318.917 391.889C317.875 390.986 317.354 389.794 317.354 388.312H319.625C319.625 389.248 319.93 389.997 320.541 390.559C321.151 391.12 321.969 391.401 322.994 391.401C324.085 391.401 324.919 391.116 325.497 390.546C326.074 389.977 326.363 389.159 326.363 388.093C326.363 387.059 326.046 386.266 325.411 385.712C324.776 385.159 323.861 384.874 322.665 384.858H320.968V383.015ZM335.006 383.015H336.703C337.769 382.998 338.607 382.718 339.217 382.172C339.828 381.627 340.133 380.891 340.133 379.963C340.133 377.88 339.095 376.838 337.02 376.838C336.043 376.838 335.262 377.119 334.676 377.68C334.098 378.234 333.81 378.97 333.81 379.89H331.551C331.551 378.482 332.064 377.314 333.089 376.386C334.123 375.45 335.433 374.982 337.02 374.982C338.696 374.982 340.011 375.426 340.963 376.313C341.915 377.2 342.391 378.433 342.391 380.012C342.391 380.785 342.139 381.534 341.634 382.258C341.138 382.982 340.458 383.523 339.596 383.881C340.572 384.191 341.325 384.703 341.854 385.419C342.391 386.136 342.66 387.01 342.66 388.044C342.66 389.639 342.139 390.904 341.097 391.84C340.056 392.776 338.701 393.244 337.032 393.244C335.364 393.244 334.005 392.792 332.955 391.889C331.913 390.986 331.393 389.794 331.393 388.312H333.663C333.663 389.248 333.968 389.997 334.579 390.559C335.189 391.12 336.007 391.401 337.032 391.401C338.123 391.401 338.957 391.116 339.535 390.546C340.112 389.977 340.401 389.159 340.401 388.093C340.401 387.059 340.084 386.266 339.449 385.712C338.814 385.159 337.899 384.874 336.703 384.858H335.006V383.015ZM355.294 387.031H357.76V388.874H355.294V393H353.023V388.874H344.93V387.543L352.889 375.227H355.294V387.031ZM347.494 387.031H353.023V378.315L352.755 378.803L347.494 387.031Z" fill="white"/>
<path d="M142.403 530.887L144.942 520.792H147.201L143.355 534H141.524L138.314 523.99L135.189 534H133.358L129.525 520.792H131.771L134.371 530.68L137.447 520.792H139.266L142.403 530.887ZM161.202 530.887L163.741 520.792H166L162.154 534H160.323L157.113 523.99L153.988 534H152.157L148.324 520.792H150.57L153.17 530.68L156.246 520.792H158.065L161.202 530.887ZM180.001 530.887L182.54 520.792H184.798L180.953 534H179.122L175.912 523.99L172.787 534H170.956L167.123 520.792H169.369L171.969 530.68L175.045 520.792H176.864L180.001 530.887ZM185.641 532.816C185.641 532.425 185.755 532.1 185.982 531.839C186.218 531.579 186.568 531.449 187.032 531.449C187.496 531.449 187.846 531.579 188.082 531.839C188.326 532.1 188.448 532.425 188.448 532.816C188.448 533.19 188.326 533.504 188.082 533.756C187.846 534.008 187.496 534.134 187.032 534.134C186.568 534.134 186.218 534.008 185.982 533.756C185.755 533.504 185.641 533.19 185.641 532.816ZM203.878 530.887L206.417 520.792H208.675L204.83 534H202.999L199.789 523.99L196.664 534H194.833L191 520.792H193.246L195.846 530.68L198.922 520.792H200.741L203.878 530.887ZM216.463 534.244C214.673 534.244 213.216 533.658 212.093 532.486C210.97 531.306 210.409 529.732 210.409 527.762V527.347C210.409 526.037 210.657 524.869 211.153 523.844C211.658 522.81 212.358 522.005 213.253 521.427C214.156 520.841 215.133 520.548 216.183 520.548C217.9 520.548 219.234 521.113 220.187 522.245C221.139 523.376 221.615 524.995 221.615 527.103V528.043H212.667C212.7 529.345 213.078 530.399 213.802 531.205C214.535 532.002 215.462 532.401 216.585 532.401C217.383 532.401 218.058 532.238 218.612 531.913C219.165 531.587 219.649 531.156 220.064 530.619L221.444 531.693C220.337 533.394 218.677 534.244 216.463 534.244ZM216.183 522.403C215.271 522.403 214.506 522.737 213.888 523.404C213.269 524.063 212.887 524.991 212.74 526.188H219.356V526.017C219.291 524.869 218.982 523.982 218.429 523.355C217.875 522.721 217.127 522.403 216.183 522.403ZM235.421 527.542C235.421 529.561 234.957 531.184 234.029 532.413C233.102 533.634 231.856 534.244 230.294 534.244C228.626 534.244 227.336 533.654 226.424 532.474L226.314 534H224.239V515.25H226.498V522.245C227.409 521.113 228.666 520.548 230.27 520.548C231.873 520.548 233.13 521.154 234.042 522.367C234.961 523.579 235.421 525.239 235.421 527.347V527.542ZM233.163 527.286C233.163 525.748 232.866 524.56 232.271 523.722C231.677 522.883 230.823 522.464 229.708 522.464C228.219 522.464 227.149 523.156 226.498 524.54V530.252C227.189 531.636 228.268 532.328 229.732 532.328C230.815 532.328 231.657 531.909 232.259 531.07C232.861 530.232 233.163 528.971 233.163 527.286ZM245.968 530.497C245.968 529.886 245.736 529.414 245.272 529.081C244.816 528.739 244.015 528.446 242.867 528.202C241.728 527.958 240.82 527.665 240.145 527.323C239.478 526.981 238.981 526.574 238.656 526.102C238.338 525.63 238.18 525.069 238.18 524.417C238.18 523.335 238.635 522.42 239.547 521.671C240.466 520.922 241.638 520.548 243.062 520.548C244.56 520.548 245.772 520.934 246.7 521.708C247.636 522.481 248.104 523.469 248.104 524.674H245.833C245.833 524.055 245.569 523.522 245.04 523.075C244.519 522.627 243.86 522.403 243.062 522.403C242.241 522.403 241.598 522.582 241.134 522.94C240.67 523.299 240.438 523.766 240.438 524.344C240.438 524.889 240.654 525.3 241.085 525.577C241.516 525.854 242.293 526.118 243.417 526.371C244.548 526.623 245.463 526.924 246.163 527.274C246.863 527.624 247.38 528.047 247.713 528.543C248.055 529.032 248.226 529.63 248.226 530.338C248.226 531.518 247.754 532.466 246.81 533.182C245.866 533.89 244.641 534.244 243.136 534.244C242.078 534.244 241.142 534.057 240.328 533.683C239.514 533.308 238.875 532.787 238.412 532.12C237.956 531.445 237.728 530.716 237.728 529.935H239.986C240.027 530.692 240.328 531.294 240.89 531.742C241.459 532.181 242.208 532.401 243.136 532.401C243.99 532.401 244.674 532.23 245.187 531.888C245.707 531.538 245.968 531.074 245.968 530.497ZM253.622 534H251.363V520.792H253.622V534ZM251.18 517.289C251.18 516.922 251.29 516.613 251.51 516.361C251.738 516.109 252.071 515.982 252.511 515.982C252.95 515.982 253.284 516.109 253.512 516.361C253.74 516.613 253.854 516.922 253.854 517.289C253.854 517.655 253.74 517.96 253.512 518.204C253.284 518.448 252.95 518.57 252.511 518.57C252.071 518.57 251.738 518.448 251.51 518.204C251.29 517.96 251.18 517.655 251.18 517.289ZM260.311 517.594V520.792H262.777V522.538H260.311V530.729C260.311 531.257 260.421 531.656 260.641 531.925C260.86 532.185 261.235 532.315 261.764 532.315C262.024 532.315 262.382 532.267 262.838 532.169V534C262.244 534.163 261.666 534.244 261.104 534.244C260.095 534.244 259.334 533.939 258.822 533.329C258.309 532.718 258.053 531.852 258.053 530.729V522.538H255.648V520.792H258.053V517.594H260.311ZM270.907 534.244C269.116 534.244 267.66 533.658 266.537 532.486C265.414 531.306 264.852 529.732 264.852 527.762V527.347C264.852 526.037 265.1 524.869 265.597 523.844C266.101 522.81 266.801 522.005 267.696 521.427C268.6 520.841 269.576 520.548 270.626 520.548C272.343 520.548 273.678 521.113 274.63 522.245C275.582 523.376 276.058 524.995 276.058 527.103V528.043H267.11C267.143 529.345 267.521 530.399 268.246 531.205C268.978 532.002 269.906 532.401 271.029 532.401C271.826 532.401 272.502 532.238 273.055 531.913C273.609 531.587 274.093 531.156 274.508 530.619L275.887 531.693C274.78 533.394 273.12 534.244 270.907 534.244ZM270.626 522.403C269.715 522.403 268.95 522.737 268.331 523.404C267.713 524.063 267.33 524.991 267.184 526.188H273.8V526.017C273.735 524.869 273.425 523.982 272.872 523.355C272.319 522.721 271.57 522.403 270.626 522.403ZM278.731 532.816C278.731 532.425 278.845 532.1 279.073 531.839C279.309 531.579 279.659 531.449 280.123 531.449C280.587 531.449 280.937 531.579 281.173 531.839C281.417 532.1 281.539 532.425 281.539 532.816C281.539 533.19 281.417 533.504 281.173 533.756C280.937 534.008 280.587 534.134 280.123 534.134C279.659 534.134 279.309 534.008 279.073 533.756C278.845 533.504 278.731 533.19 278.731 532.816ZM290.572 532.401C291.378 532.401 292.082 532.157 292.684 531.668C293.286 531.18 293.62 530.57 293.685 529.837H295.821C295.781 530.594 295.52 531.314 295.04 531.998C294.56 532.682 293.917 533.227 293.111 533.634C292.314 534.041 291.467 534.244 290.572 534.244C288.774 534.244 287.341 533.646 286.275 532.45C285.217 531.245 284.688 529.601 284.688 527.518V527.14C284.688 525.854 284.924 524.71 285.396 523.709C285.868 522.708 286.544 521.931 287.423 521.378C288.31 520.825 289.356 520.548 290.56 520.548C292.041 520.548 293.27 520.991 294.247 521.878C295.231 522.765 295.756 523.917 295.821 525.333H293.685C293.62 524.479 293.294 523.779 292.708 523.233C292.131 522.68 291.415 522.403 290.56 522.403C289.413 522.403 288.521 522.818 287.887 523.648C287.26 524.47 286.947 525.663 286.947 527.225V527.652C286.947 529.174 287.26 530.346 287.887 531.168C288.513 531.99 289.409 532.401 290.572 532.401ZM297.762 527.274C297.762 525.98 298.014 524.816 298.519 523.783C299.032 522.749 299.74 521.952 300.643 521.39C301.555 520.829 302.592 520.548 303.756 520.548C305.554 520.548 307.007 521.17 308.114 522.416C309.229 523.661 309.786 525.317 309.786 527.384V527.542C309.786 528.828 309.538 529.984 309.042 531.009C308.553 532.027 307.849 532.82 306.93 533.39C306.018 533.959 304.968 534.244 303.78 534.244C301.99 534.244 300.537 533.622 299.422 532.376C298.316 531.131 297.762 529.483 297.762 527.433V527.274ZM300.033 527.542C300.033 529.007 300.37 530.183 301.046 531.07C301.729 531.957 302.641 532.401 303.78 532.401C304.928 532.401 305.839 531.953 306.515 531.058C307.19 530.155 307.528 528.893 307.528 527.274C307.528 525.825 307.182 524.653 306.49 523.758C305.807 522.855 304.895 522.403 303.756 522.403C302.641 522.403 301.742 522.847 301.058 523.734C300.375 524.621 300.033 525.89 300.033 527.542ZM314.742 520.792L314.803 522.257C315.772 521.118 317.078 520.548 318.722 520.548C320.569 520.548 321.826 521.256 322.494 522.672C322.933 522.037 323.503 521.524 324.203 521.134C324.911 520.743 325.745 520.548 326.705 520.548C329.602 520.548 331.075 522.082 331.124 525.15V534H328.866V525.284C328.866 524.34 328.65 523.636 328.219 523.172C327.787 522.7 327.063 522.464 326.046 522.464C325.208 522.464 324.512 522.717 323.958 523.221C323.405 523.718 323.084 524.389 322.994 525.235V534H320.724V525.345C320.724 523.425 319.784 522.464 317.904 522.464C316.423 522.464 315.41 523.095 314.864 524.356V534H312.606V520.792H314.742Z" fill="white"/>
<path d="M136.483 456.15L141.122 447.227H143.783L137.655 458.372V465H135.311V458.372L129.183 447.227H131.869L136.483 456.15ZM144.32 458.274C144.32 456.98 144.572 455.816 145.077 454.783C145.589 453.749 146.297 452.952 147.201 452.39C148.112 451.829 149.15 451.548 150.313 451.548C152.112 451.548 153.565 452.17 154.671 453.416C155.786 454.661 156.344 456.317 156.344 458.384V458.542C156.344 459.828 156.096 460.984 155.599 462.009C155.111 463.027 154.407 463.82 153.487 464.39C152.576 464.959 151.526 465.244 150.338 465.244C148.548 465.244 147.095 464.622 145.98 463.376C144.873 462.131 144.32 460.483 144.32 458.433V458.274ZM146.59 458.542C146.59 460.007 146.928 461.183 147.604 462.07C148.287 462.957 149.199 463.401 150.338 463.401C151.485 463.401 152.397 462.953 153.072 462.058C153.748 461.155 154.085 459.893 154.085 458.274C154.085 456.825 153.74 455.653 153.048 454.758C152.364 453.855 151.453 453.403 150.313 453.403C149.199 453.403 148.299 453.847 147.616 454.734C146.932 455.621 146.59 456.89 146.59 458.542ZM167.33 463.694C166.451 464.727 165.161 465.244 163.46 465.244C162.053 465.244 160.978 464.837 160.238 464.023C159.505 463.201 159.135 461.989 159.127 460.386V451.792H161.385V460.325C161.385 462.327 162.199 463.328 163.827 463.328C165.552 463.328 166.699 462.685 167.269 461.399V451.792H169.527V465H167.379L167.33 463.694ZM179.354 453.818C179.012 453.761 178.642 453.733 178.243 453.733C176.762 453.733 175.757 454.364 175.228 455.625V465H172.97V451.792H175.167L175.204 453.318C175.944 452.138 176.994 451.548 178.353 451.548C178.792 451.548 179.126 451.605 179.354 451.719V453.818ZM183.565 451.792L183.626 453.257C184.595 452.118 185.901 451.548 187.545 451.548C189.392 451.548 190.65 452.256 191.317 453.672C191.756 453.037 192.326 452.524 193.026 452.134C193.734 451.743 194.568 451.548 195.528 451.548C198.425 451.548 199.898 453.082 199.947 456.15V465H197.689V456.284C197.689 455.34 197.473 454.636 197.042 454.172C196.611 453.7 195.886 453.464 194.869 453.464C194.031 453.464 193.335 453.717 192.782 454.221C192.228 454.718 191.907 455.389 191.817 456.235V465H189.547V456.345C189.547 454.425 188.607 453.464 186.727 453.464C185.246 453.464 184.233 454.095 183.688 455.356V465H181.429V451.792H183.565ZM211.52 465C211.389 464.74 211.284 464.276 211.202 463.608C210.152 464.699 208.899 465.244 207.442 465.244C206.14 465.244 205.07 464.878 204.232 464.146C203.402 463.405 202.987 462.469 202.987 461.338C202.987 459.963 203.508 458.896 204.549 458.14C205.599 457.375 207.072 456.992 208.968 456.992H211.166V455.955C211.166 455.165 210.93 454.539 210.458 454.075C209.986 453.603 209.29 453.367 208.37 453.367C207.564 453.367 206.889 453.57 206.344 453.977C205.799 454.384 205.526 454.876 205.526 455.454H203.255C203.255 454.795 203.487 454.16 203.951 453.55C204.423 452.931 205.058 452.443 205.855 452.085C206.661 451.727 207.544 451.548 208.504 451.548C210.026 451.548 211.218 451.93 212.081 452.695C212.944 453.452 213.391 454.498 213.424 455.833V461.912C213.424 463.124 213.578 464.089 213.888 464.805V465H211.52ZM207.772 463.279C208.48 463.279 209.151 463.096 209.786 462.729C210.421 462.363 210.881 461.887 211.166 461.301V458.591H209.396C206.629 458.591 205.245 459.401 205.245 461.021C205.245 461.729 205.481 462.282 205.953 462.681C206.425 463.079 207.031 463.279 207.772 463.279ZM219.417 465H217.159V451.792H219.417V465ZM216.976 448.289C216.976 447.922 217.086 447.613 217.306 447.361C217.534 447.109 217.867 446.982 218.307 446.982C218.746 446.982 219.08 447.109 219.308 447.361C219.535 447.613 219.649 447.922 219.649 448.289C219.649 448.655 219.535 448.96 219.308 449.204C219.08 449.448 218.746 449.57 218.307 449.57C217.867 449.57 217.534 449.448 217.306 449.204C217.086 448.96 216.976 448.655 216.976 448.289ZM225.497 465H223.238V446.25H225.497V465ZM248.629 458.872C248.531 460.841 248.043 462.396 247.164 463.535C246.285 464.674 245.109 465.244 243.636 465.244C242.114 465.244 241.138 464.561 240.707 463.193C240.267 463.885 239.763 464.402 239.193 464.744C238.631 465.077 238.049 465.244 237.447 465.244C236.292 465.244 235.417 464.772 234.823 463.828C234.229 462.884 234.009 461.578 234.164 459.91C234.286 458.567 234.591 457.371 235.079 456.321C235.576 455.263 236.21 454.433 236.983 453.831C237.765 453.228 238.583 452.927 239.437 452.927C240.096 452.927 240.686 453.017 241.207 453.196C241.728 453.367 242.314 453.708 242.965 454.221L242.33 460.984C242.175 462.864 242.696 463.804 243.893 463.804C244.812 463.804 245.557 463.348 246.126 462.437C246.696 461.525 247.005 460.337 247.054 458.872C247.209 455.706 246.619 453.293 245.284 451.633C243.958 449.973 241.935 449.143 239.217 449.143C237.582 449.143 236.129 449.55 234.859 450.364C233.59 451.169 232.589 452.337 231.856 453.867C231.124 455.397 230.713 457.163 230.624 459.165C230.526 461.183 230.77 462.937 231.356 464.426C231.942 465.907 232.833 467.039 234.029 467.82C235.234 468.609 236.686 469.004 238.387 469.004C239.12 469.004 239.852 468.914 240.584 468.735C241.325 468.556 241.939 468.324 242.428 468.04L242.879 469.443C242.375 469.761 241.703 470.021 240.865 470.225C240.035 470.428 239.193 470.53 238.338 470.53C236.304 470.53 234.554 470.07 233.089 469.15C231.625 468.239 230.526 466.921 229.793 465.195C229.069 463.478 228.756 461.468 228.854 459.165C228.951 456.927 229.452 454.917 230.355 453.135C231.258 451.344 232.483 449.965 234.029 448.997C235.576 448.02 237.321 447.532 239.266 447.532C241.292 447.532 243.03 447.987 244.479 448.899C245.927 449.81 247.005 451.125 247.713 452.842C248.421 454.559 248.727 456.569 248.629 458.872ZM236.104 459.91C235.991 461.065 236.096 461.952 236.422 462.571C236.756 463.189 237.28 463.499 237.997 463.499C238.485 463.499 238.953 463.291 239.4 462.876C239.856 462.461 240.23 461.867 240.523 461.094L240.536 460.984L241.097 454.844C240.641 454.608 240.153 454.49 239.632 454.49C238.68 454.49 237.891 454.974 237.264 455.942C236.646 456.911 236.259 458.233 236.104 459.91ZM251.046 458.286C251.046 456.227 251.522 454.591 252.474 453.379C253.426 452.158 254.688 451.548 256.258 451.548C257.87 451.548 259.127 452.118 260.03 453.257L260.14 451.792H262.203V464.683C262.203 466.392 261.694 467.738 260.677 468.723C259.668 469.708 258.309 470.2 256.6 470.2C255.648 470.2 254.716 469.997 253.805 469.59C252.893 469.183 252.197 468.625 251.717 467.917L252.889 466.562C253.858 467.759 255.042 468.357 256.441 468.357C257.54 468.357 258.395 468.048 259.005 467.429C259.623 466.811 259.933 465.94 259.933 464.817V463.682C259.029 464.723 257.796 465.244 256.234 465.244C254.688 465.244 253.434 464.622 252.474 463.376C251.522 462.131 251.046 460.435 251.046 458.286ZM253.316 458.542C253.316 460.032 253.622 461.204 254.232 462.058C254.842 462.904 255.697 463.328 256.795 463.328C258.22 463.328 259.265 462.681 259.933 461.387V455.356C259.241 454.095 258.203 453.464 256.82 453.464C255.721 453.464 254.863 453.892 254.244 454.746C253.626 455.601 253.316 456.866 253.316 458.542ZM267.745 451.792L267.806 453.257C268.775 452.118 270.081 451.548 271.725 451.548C273.572 451.548 274.829 452.256 275.497 453.672C275.936 453.037 276.506 452.524 277.206 452.134C277.914 451.743 278.748 451.548 279.708 451.548C282.605 451.548 284.078 453.082 284.127 456.15V465H281.869V456.284C281.869 455.34 281.653 454.636 281.222 454.172C280.79 453.7 280.066 453.464 279.049 453.464C278.211 453.464 277.515 453.717 276.961 454.221C276.408 454.718 276.087 455.389 275.997 456.235V465H273.727V456.345C273.727 454.425 272.787 453.464 270.907 453.464C269.426 453.464 268.412 454.095 267.867 455.356V465H265.609V451.792H267.745ZM295.699 465C295.569 464.74 295.463 464.276 295.382 463.608C294.332 464.699 293.079 465.244 291.622 465.244C290.32 465.244 289.25 464.878 288.412 464.146C287.582 463.405 287.167 462.469 287.167 461.338C287.167 459.963 287.687 458.896 288.729 458.14C289.779 457.375 291.252 456.992 293.148 456.992H295.345V455.955C295.345 455.165 295.109 454.539 294.637 454.075C294.165 453.603 293.469 453.367 292.55 453.367C291.744 453.367 291.069 453.57 290.523 453.977C289.978 454.384 289.706 454.876 289.706 455.454H287.435C287.435 454.795 287.667 454.16 288.131 453.55C288.603 452.931 289.238 452.443 290.035 452.085C290.841 451.727 291.724 451.548 292.684 451.548C294.206 451.548 295.398 451.93 296.261 452.695C297.123 453.452 297.571 454.498 297.604 455.833V461.912C297.604 463.124 297.758 464.089 298.067 464.805V465H295.699ZM291.952 463.279C292.66 463.279 293.331 463.096 293.966 462.729C294.601 462.363 295.06 461.887 295.345 461.301V458.591H293.575C290.808 458.591 289.425 459.401 289.425 461.021C289.425 461.729 289.661 462.282 290.133 462.681C290.605 463.079 291.211 463.279 291.952 463.279ZM303.597 465H301.339V451.792H303.597V465ZM301.156 448.289C301.156 447.922 301.266 447.613 301.485 447.361C301.713 447.109 302.047 446.982 302.486 446.982C302.926 446.982 303.259 447.109 303.487 447.361C303.715 447.613 303.829 447.922 303.829 448.289C303.829 448.655 303.715 448.96 303.487 449.204C303.259 449.448 302.926 449.57 302.486 449.57C302.047 449.57 301.713 449.448 301.485 449.204C301.266 448.96 301.156 448.655 301.156 448.289ZM309.676 465H307.418V446.25H309.676V465ZM313.351 463.816C313.351 463.425 313.465 463.1 313.692 462.839C313.928 462.579 314.278 462.449 314.742 462.449C315.206 462.449 315.556 462.579 315.792 462.839C316.036 463.1 316.158 463.425 316.158 463.816C316.158 464.19 316.036 464.504 315.792 464.756C315.556 465.008 315.206 465.134 314.742 465.134C314.278 465.134 313.928 465.008 313.692 464.756C313.465 464.504 313.351 464.19 313.351 463.816ZM325.191 463.401C325.997 463.401 326.701 463.157 327.303 462.668C327.905 462.18 328.239 461.57 328.304 460.837H330.44C330.4 461.594 330.139 462.314 329.659 462.998C329.179 463.682 328.536 464.227 327.73 464.634C326.933 465.041 326.087 465.244 325.191 465.244C323.393 465.244 321.961 464.646 320.895 463.45C319.837 462.245 319.308 460.601 319.308 458.518V458.14C319.308 456.854 319.544 455.71 320.016 454.709C320.488 453.708 321.163 452.931 322.042 452.378C322.929 451.825 323.975 451.548 325.179 451.548C326.66 451.548 327.889 451.991 328.866 452.878C329.85 453.765 330.375 454.917 330.44 456.333H328.304C328.239 455.479 327.914 454.779 327.328 454.233C326.75 453.68 326.034 453.403 325.179 453.403C324.032 453.403 323.141 453.818 322.506 454.648C321.879 455.47 321.566 456.663 321.566 458.225V458.652C321.566 460.174 321.879 461.346 322.506 462.168C323.132 462.99 324.028 463.401 325.191 463.401ZM332.381 458.274C332.381 456.98 332.634 455.816 333.138 454.783C333.651 453.749 334.359 452.952 335.262 452.39C336.174 451.829 337.211 451.548 338.375 451.548C340.174 451.548 341.626 452.17 342.733 453.416C343.848 454.661 344.405 456.317 344.405 458.384V458.542C344.405 459.828 344.157 460.984 343.661 462.009C343.172 463.027 342.468 463.82 341.549 464.39C340.637 464.959 339.588 465.244 338.399 465.244C336.609 465.244 335.156 464.622 334.042 463.376C332.935 462.131 332.381 460.483 332.381 458.433V458.274ZM334.652 458.542C334.652 460.007 334.99 461.183 335.665 462.07C336.349 462.957 337.26 463.401 338.399 463.401C339.547 463.401 340.458 462.953 341.134 462.058C341.809 461.155 342.147 459.893 342.147 458.274C342.147 456.825 341.801 455.653 341.109 454.758C340.426 453.855 339.514 453.403 338.375 453.403C337.26 453.403 336.361 453.847 335.677 454.734C334.994 455.621 334.652 456.89 334.652 458.542ZM349.361 451.792L349.422 453.257C350.391 452.118 351.697 451.548 353.341 451.548C355.188 451.548 356.445 452.256 357.113 453.672C357.552 453.037 358.122 452.524 358.822 452.134C359.53 451.743 360.364 451.548 361.324 451.548C364.221 451.548 365.694 453.082 365.743 456.15V465H363.485V456.284C363.485 455.34 363.269 454.636 362.838 454.172C362.407 453.7 361.682 453.464 360.665 453.464C359.827 453.464 359.131 453.717 358.578 454.221C358.024 454.718 357.703 455.389 357.613 456.235V465H355.343V456.345C355.343 454.425 354.403 453.464 352.523 453.464C351.042 453.464 350.029 454.095 349.483 455.356V465H347.225V451.792H349.361Z" fill="white"/>
<path d="M86.8214 288C91.548 288 96.0809 289.878 99.4231 293.22C102.765 296.562 104.643 301.095 104.643 305.821C104.643 313.199 99.0192 320.93 88.0095 329.187C87.6668 329.444 87.2499 329.583 86.8214 329.583C86.393 329.583 85.9761 329.444 85.6333 329.187C74.6236 320.93 69 313.199 69 305.821C69 301.095 70.8776 296.562 74.2198 293.22C77.5619 289.878 82.0949 288 86.8214 288ZM86.8214 299.881C85.2459 299.881 83.7349 300.507 82.6209 301.621C81.5068 302.735 80.881 304.246 80.881 305.821C80.881 307.397 81.5068 308.908 82.6209 310.022C83.7349 311.136 85.2459 311.762 86.8214 311.762C88.3969 311.762 89.9079 311.136 91.022 310.022C92.136 308.908 92.7619 307.397 92.7619 305.821C92.7619 304.246 92.136 302.735 91.022 301.621C89.9079 300.507 88.3969 299.881 86.8214 299.881Z" fill="white"/>
<path d="M73 367.7C73 366.188 73.6005 364.738 74.6695 363.669C75.7384 362.601 77.1883 362 78.7 362H95.8C97.3117 362 98.7616 362.601 99.8305 363.669C100.899 364.738 101.5 366.188 101.5 367.7V401.9C101.5 403.412 100.899 404.862 99.8305 405.931C98.7616 406.999 97.3117 407.6 95.8 407.6H78.7C77.1883 407.6 75.7384 406.999 74.6695 405.931C73.6005 404.862 73 403.412 73 401.9V367.7ZM90.1 399.05C90.1 398.294 89.7997 397.569 89.2653 397.035C88.7308 396.5 88.0059 396.2 87.25 396.2C86.4941 396.2 85.7692 396.5 85.2347 397.035C84.7003 397.569 84.4 398.294 84.4 399.05C84.4 399.806 84.7003 400.531 85.2347 401.065C85.7692 401.6 86.4941 401.9 87.25 401.9C88.0059 401.9 88.7308 401.6 89.2653 401.065C89.7997 400.531 90.1 399.806 90.1 399.05Z" fill="white"/>
<path d="M65 445.625C65 444.133 65.5926 442.702 66.6475 441.648C67.7024 440.593 69.1332 440 70.625 440H104.375C105.867 440 107.298 440.593 108.352 441.648C109.407 442.702 110 444.133 110 445.625V468.125C110 469.617 109.407 471.048 108.352 472.102C107.298 473.157 105.867 473.75 104.375 473.75H70.625C69.1332 473.75 67.7024 473.157 66.6475 472.102C65.5926 471.048 65 469.617 65 468.125V445.625ZM70.625 442.812C69.8791 442.812 69.1637 443.109 68.6363 443.636C68.1088 444.164 67.8125 444.879 67.8125 445.625V446.235L87.5 458.048L107.188 446.235V445.625C107.188 444.879 106.891 444.164 106.364 443.636C105.836 443.109 105.121 442.812 104.375 442.812H70.625ZM107.188 449.515L93.8056 457.544L107.188 465.633V449.517V449.515ZM107.092 468.859L91.0747 459.181L87.5 461.327L83.9225 459.181L67.9081 468.856C68.069 469.454 68.4224 469.981 68.9136 470.358C69.4047 470.734 70.0063 470.938 70.625 470.938H104.375C104.993 470.938 105.595 470.735 106.086 470.359C106.577 469.983 106.93 469.456 107.092 468.859ZM67.8125 465.633L81.1944 457.544L67.8125 449.515V465.63V465.633Z" fill="white"/>
<path d="M96.6857 519.618L87.0009 525.245L77.3156 519.618L87.0009 514.258L96.6857 519.618ZM87.8578 526.74V537.029L97.51 531.689V521.132L87.8578 526.74ZM70.2618 536.963L86.1422 546V538.999L76.2129 533.506L70.2618 536.963ZM86.1422 537.029V526.739L76.49 521.132V531.689L86.1422 537.029V537.029ZM87.8578 506V512.763L98.4222 518.609L104.157 515.277L87.8578 506V506ZM97.7888 533.505L87.8578 538.999V546L103.74 536.962L97.7888 533.505ZM99.2256 520.135V532.347L105 535.701V516.781L99.2256 520.135ZM75.579 518.609L86.1422 512.764V506L69.8426 515.277L75.579 518.609ZM74.7744 532.348V520.135L69 516.781V535.703L74.7744 532.348Z" fill="white"/>
</svg>
