<svg width="1050" height="600" viewBox="0 0 1050 600" fill="none" xmlns="http://www.w3.org/2000/svg">
<g clip-path="url(#clip0)">
<rect width="1050" height="600" fill="#211F22"/>
<rect x="328" y="259" width="722" height="135" fill="#00BEF2"/>
<g filter="url(#filter0_d)">
<path d="M701 0L136.874 600H0V0H701Z" fill="#29272A"/>
</g>
<path d="M217.064 197.113V239.342C217.062 242.518 216.226 245.637 214.638 248.387C213.051 251.137 210.769 253.421 208.02 255.012L205.22 256.624L205.206 256.639H205.191C205.176 256.639 205.162 256.653 205.132 256.668L164.076 280.369C161.323 281.954 158.202 282.788 155.025 282.788C151.848 282.788 148.727 281.954 145.974 280.369L102.059 255.012C98.9905 253.242 96.5125 250.605 94.9354 247.433C94.9193 247.402 94.8996 247.373 94.8768 247.346C94.8706 247.329 94.8606 247.314 94.8475 247.302V247.287C94.8391 247.279 94.8339 247.269 94.8328 247.258C93.6278 244.793 93.0011 242.086 93.0006 239.342V197.729C92.9935 196.944 93.0523 196.159 93.1765 195.384C100.8 210.405 113.596 222.164 129.205 228.496V228.877L147.85 239.65C150.036 240.91 152.516 241.574 155.04 241.574C157.563 241.574 160.043 240.91 162.229 239.65L180.874 228.877V228.774C196.407 222.661 209.239 211.191 217.049 196.439C217.064 196.674 217.064 196.886 217.064 197.113Z" fill="#00BEF2"/>
<path d="M129.205 197.113V228.495C113.595 222.164 100.8 210.404 93.1763 195.384C93.2629 194.638 93.3951 193.899 93.572 193.17C94.0179 191.328 94.7394 189.564 95.7121 187.937C97.1723 185.413 99.2267 183.283 101.697 181.733C104.167 180.182 106.978 179.258 109.886 179.04C112.361 178.875 114.843 179.22 117.179 180.054C119.515 180.887 121.655 182.192 123.466 183.886C125.277 185.58 126.721 187.629 127.708 189.904C128.696 192.179 129.205 194.633 129.205 197.113Z" fill="white"/>
<path d="M217.049 196.446C209.238 211.198 196.406 222.668 180.873 228.781V197.736C180.817 193.065 182.527 188.544 185.661 185.079C188.794 181.614 193.12 179.46 197.774 179.047C201.071 178.823 204.366 179.508 207.301 181.026C207.305 181.026 207.309 181.028 207.312 181.03C207.314 181.033 207.316 181.037 207.316 181.041C207.329 181.049 207.344 181.054 207.36 181.056C209.741 182.309 211.814 184.075 213.428 186.227C215.043 188.379 216.16 190.864 216.697 193.5C216.897 194.47 217.015 195.456 217.049 196.446Z" fill="white"/>
<g style="mix-blend-mode:multiply" opacity="0.08">
<g style="mix-blend-mode:multiply" opacity="0.08">
<path d="M129.205 214.123V228.502C113.595 222.171 100.8 210.411 93.1763 195.39C93.2629 194.645 93.3951 193.906 93.572 193.177C101.179 198.776 114.76 207.996 129.205 214.123Z" fill="#00BEF2"/>
</g>
</g>
<g style="mix-blend-mode:multiply" opacity="0.08">
<g style="mix-blend-mode:multiply" opacity="0.08">
<path d="M217.049 196.446C209.239 211.199 196.406 222.668 180.874 228.781V214.182C193.524 208.597 205.535 201.663 216.697 193.5C216.897 194.47 217.015 195.456 217.049 196.446Z" fill="#00BEF2"/>
</g>
</g>
<g style="mix-blend-mode:screen" opacity="0.4">
<g style="mix-blend-mode:screen" opacity="0.4">
<path d="M212.666 239.291V239.35C212.66 241.752 212.025 244.11 210.824 246.191C209.623 248.271 207.898 250.001 205.821 251.208L161.877 276.566C159.793 277.766 157.43 278.398 155.025 278.398C152.62 278.398 150.256 277.766 148.172 276.566L114.02 256.851L113.902 256.778L104.258 251.208C102.339 250.096 100.717 248.537 99.5303 246.664C98.3435 244.791 97.627 242.659 97.4418 240.449C113.771 252.088 133.282 258.431 153.334 258.62C173.387 258.809 193.013 252.834 209.559 241.504L209.706 241.402L209.779 241.358C210.768 240.684 211.714 239.995 212.666 239.291Z" fill="#00BEF2"/>
</g>
</g>
<g style="mix-blend-mode:screen" opacity="0.6">
<g style="mix-blend-mode:screen" opacity="0.6">
<path d="M94.8477 247.294C94.8623 247.309 94.8623 247.323 94.877 247.353C94.8708 247.336 94.8608 247.321 94.8477 247.309V247.294Z" fill="#00BEF2"/>
</g>
</g>
<g style="mix-blend-mode:multiply" opacity="0.25">
<g style="mix-blend-mode:multiply" opacity="0.25">
<path d="M205.132 256.674L164.076 280.375C161.323 281.96 158.202 282.794 155.025 282.794C151.848 282.794 148.727 281.96 145.974 280.375L102.059 255.018C98.9904 253.248 96.5124 250.612 94.9353 247.439C95.0526 247.645 95.2724 247.996 95.5949 248.48C96.3647 249.578 97.2438 250.594 98.2186 251.514C99.7253 252.918 101.447 254.071 103.32 254.93C105.489 256.044 107.937 257.304 110.575 258.726C115.896 261.511 122.052 264.838 128.604 268.473C131.873 270.306 135.273 272.152 138.689 274.117C140.404 275.099 142.119 276.081 143.848 277.063L146.443 278.543C147.232 279.01 148.055 279.417 148.905 279.76C152.242 281.145 155.946 281.377 159.429 280.419C161.168 279.92 162.83 279.186 164.369 278.235C166.055 277.297 167.711 276.374 169.353 275.465C175.919 271.83 182.076 268.503 187.382 265.718C197.334 260.434 204.297 257.062 205.132 256.674Z" fill="#00BEF2"/>
</g>
</g>
<g style="mix-blend-mode:multiply" opacity="0.25">
<g style="mix-blend-mode:multiply" opacity="0.25">
<path d="M217.049 196.446L215.686 199.231L214.191 201.972L212.564 204.625L210.805 207.205L208.914 209.697L206.92 212.115L204.795 214.431L202.567 216.644L200.237 218.755L197.803 220.763L195.282 222.654L192.673 224.428L189.976 226.084L187.206 227.623L184.362 229.016L182.295 229.91L181.68 230.276C177.517 232.753 173.369 235.26 169.177 237.693L162.859 241.357C160.466 242.693 157.773 243.399 155.032 243.409C153.667 243.403 152.308 243.225 150.986 242.882C150.33 242.704 149.684 242.489 149.052 242.237C148.429 241.986 147.822 241.697 147.234 241.372L140.902 237.693C136.71 235.26 132.562 232.753 128.399 230.291L127.578 229.807V229.543L125.672 228.693L122.829 227.257L120.059 225.674L117.362 223.973L114.752 222.141L112.217 220.206L109.798 218.154L107.482 215.985L105.269 213.727L103.158 211.353L101.179 208.89L99.3032 206.355L97.5736 203.716L95.9612 201.019L94.4955 198.234L93.1763 195.391L94.8033 198.073L96.5329 200.653L98.3651 203.174L100.285 205.607L102.308 207.952L104.419 210.21L106.632 212.364L108.904 214.431L111.279 216.395L113.741 218.242L116.248 220.001L118.842 221.628L121.495 223.152L124.221 224.56L126.992 225.849L129.205 226.758V228.884L147.85 239.657C150.036 240.917 152.516 241.581 155.039 241.581C157.563 241.581 160.042 240.917 162.229 239.657L180.874 228.884V227.051L183.102 226.157L185.857 224.911L188.569 223.563L191.222 222.082L193.802 220.485L196.323 218.784L198.785 216.982L201.16 215.076L203.447 213.053L205.66 210.943L207.8 208.744L209.837 206.443L211.787 204.068L213.634 201.606L215.393 199.055L217.049 196.446Z" fill="#00BEF2"/>
</g>
</g>
<g style="mix-blend-mode:screen" opacity="0.4">
<g style="mix-blend-mode:screen" opacity="0.4">
<path d="M209.559 241.504L206.745 243.541L203.608 245.593C201.468 246.912 199.294 248.153 197.085 249.316C194.857 250.474 192.581 251.53 190.255 252.482C187.929 253.435 185.574 254.305 183.19 255.091C178.411 256.673 173.508 257.85 168.532 258.609C166.04 259.005 163.534 259.283 161.013 259.474C158.447 259.679 156.014 259.753 153.464 259.738C150.943 259.738 148.422 259.621 145.9 259.43L142.133 259.049L138.396 258.521L134.673 257.832L130.979 257.012L127.329 256.044L123.709 254.915L120.147 253.655L116.643 252.248L113.184 250.709L109.798 249.038L106.5 247.205L103.261 245.256L100.109 243.189L98.3359 241.929C98.9831 245.301 100.878 248.305 103.642 250.342C104.478 250.929 105.342 251.427 106.222 251.984L108.831 253.582L113.902 256.777L104.258 251.207C102.339 250.096 100.717 248.537 99.5303 246.664C98.3435 244.79 97.627 242.658 97.4418 240.448C113.771 252.088 133.282 258.431 153.334 258.619C173.387 258.808 193.013 252.834 209.559 241.504Z" fill="#00BEF2"/>
</g>
</g>
<g style="mix-blend-mode:screen" opacity="0.5">
<g style="mix-blend-mode:screen" opacity="0.5">
<path d="M129.206 197.113V211.141C129.206 211.141 128.708 207.315 128.37 201.584C128.268 200.162 128.18 198.594 128.107 196.967C127.995 195.361 127.685 193.776 127.183 192.247C126.07 188.954 124.01 186.063 121.261 183.936C119.873 182.87 118.337 182.011 116.703 181.385C115.118 180.82 113.468 180.456 111.792 180.301C111.338 180.301 110.898 180.286 110.459 180.286L109.872 180.271L109.271 180.315C108.488 180.356 107.708 180.459 106.941 180.623C105.51 180.928 104.122 181.405 102.807 182.045C100.796 183.04 98.9719 184.374 97.4132 185.988C96.8415 186.589 96.4018 187.073 96.1233 187.424C95.9181 187.688 95.7715 187.864 95.7129 187.937C97.1732 185.413 99.2275 183.283 101.698 181.733C104.168 180.182 106.979 179.258 109.887 179.04C112.362 178.875 114.844 179.22 117.18 180.054C119.516 180.887 121.656 182.192 123.467 183.886C125.278 185.58 126.722 187.629 127.709 189.904C128.696 192.179 129.206 194.633 129.206 197.113Z" fill="#00BEF2"/>
</g>
</g>
<g style="mix-blend-mode:screen" opacity="0.5">
<g style="mix-blend-mode:screen" opacity="0.5">
<path d="M207.301 181.026C207.125 180.968 206.48 180.762 205.454 180.513C203.818 180.116 202.14 179.914 200.456 179.912C199.355 179.918 198.256 180.021 197.173 180.22C196.588 180.312 196.01 180.444 195.443 180.616C195.165 180.704 194.871 180.777 194.578 180.865C194.285 180.953 193.992 181.085 193.699 181.187C192.518 181.668 191.385 182.257 190.313 182.946C189.223 183.681 188.215 184.531 187.308 185.482C186.38 186.414 185.559 187.446 184.86 188.56C184.174 189.65 183.594 190.803 183.131 192.005C182.9 192.574 182.704 193.156 182.544 193.749C182.369 194.306 182.232 194.874 182.134 195.449C182.014 196.021 181.926 196.598 181.87 197.179L181.826 197.604C181.811 197.663 181.797 197.78 181.797 197.78L181.782 197.985C181.753 198.264 181.738 198.542 181.709 198.806C181.357 203.115 180.873 205.974 180.873 205.974V197.736C180.817 193.065 182.527 188.544 185.661 185.079C188.794 181.614 193.12 179.46 197.774 179.047C201.071 178.823 204.366 179.508 207.301 181.026Z" fill="#00BEF2"/>
</g>
</g>
<path d="M55.4424 321.057C55.2275 323.332 54.3877 325.109 52.9229 326.389C51.458 327.658 49.5098 328.293 47.0781 328.293C45.3789 328.293 43.8799 327.893 42.5811 327.092C41.292 326.281 40.2959 325.134 39.5928 323.649C38.8896 322.165 38.5234 320.441 38.4941 318.479V316.486C38.4941 314.475 38.8506 312.702 39.5635 311.169C40.2764 309.636 41.2969 308.454 42.625 307.624C43.9629 306.794 45.5059 306.379 47.2539 306.379C49.6074 306.379 51.502 307.019 52.9375 308.298C54.373 309.577 55.208 311.384 55.4424 313.718H51.751C51.5752 312.185 51.126 311.081 50.4033 310.407C49.6904 309.724 48.6406 309.382 47.2539 309.382C45.6426 309.382 44.4023 309.973 43.5332 311.154C42.6738 312.326 42.2344 314.05 42.2148 316.325V318.215C42.2148 320.52 42.625 322.277 43.4453 323.488C44.2754 324.699 45.4863 325.305 47.0781 325.305C48.5332 325.305 49.627 324.978 50.3594 324.323C51.0918 323.669 51.5557 322.58 51.751 321.057H55.4424ZM75.7891 317.893C75.7891 319.982 75.4277 321.818 74.7051 323.4C73.9824 324.973 72.9473 326.184 71.5996 327.033C70.2617 327.873 68.7188 328.293 66.9707 328.293C65.2422 328.293 63.6992 327.873 62.3418 327.033C60.9941 326.184 59.9492 324.978 59.207 323.415C58.4746 321.853 58.1035 320.051 58.0938 318.01V316.809C58.0938 314.729 58.46 312.893 59.1924 311.301C59.9346 309.709 60.9746 308.493 62.3125 307.653C63.6602 306.804 65.2031 306.379 66.9414 306.379C68.6797 306.379 70.2178 306.799 71.5557 307.639C72.9033 308.469 73.9434 309.67 74.6758 311.242C75.4082 312.805 75.7793 314.626 75.7891 316.706V317.893ZM72.083 316.779C72.083 314.416 71.6338 312.604 70.7354 311.345C69.8467 310.085 68.582 309.455 66.9414 309.455C65.3398 309.455 64.085 310.085 63.1768 311.345C62.2783 312.595 61.8193 314.367 61.7998 316.662V317.893C61.7998 320.236 62.2539 322.048 63.1621 323.327C64.0801 324.606 65.3496 325.246 66.9707 325.246C68.6113 325.246 69.8711 324.621 70.75 323.371C71.6387 322.121 72.083 320.295 72.083 317.893V316.779ZM84.2852 306.672L90.4375 323.02L96.5752 306.672H101.365V328H97.6738V320.969L98.04 311.564L91.7412 328H89.0898L82.8057 311.579L83.1719 320.969V328H79.4805V306.672H84.2852ZM109.466 320.075V328H105.76V306.672H113.919C116.302 306.672 118.191 307.292 119.588 308.532C120.994 309.772 121.697 311.413 121.697 313.454C121.697 315.544 121.009 317.17 119.632 318.332C118.265 319.494 116.346 320.075 113.875 320.075H109.466ZM109.466 317.102H113.919C115.237 317.102 116.243 316.794 116.937 316.179C117.63 315.554 117.977 314.655 117.977 313.483C117.977 312.331 117.625 311.413 116.922 310.729C116.219 310.036 115.252 309.68 114.021 309.66H109.466V317.102ZM134.28 323.034H126.019L124.29 328H120.438L128.494 306.672H131.819L139.891 328H136.023L134.28 323.034ZM127.059 320.046H133.24L130.149 311.198L127.059 320.046ZM159.241 328H155.535L146.028 312.868V328H142.322V306.672H146.028L155.564 321.862V306.672H159.241V328ZM170.169 316.779L175.076 306.672H179.178L172.029 320.148V328H168.309V320.148L161.146 306.672H165.262L170.169 316.779ZM205.882 328H202.176L192.669 312.868V328H188.963V306.672H192.669L202.205 321.862V306.672H205.882V328ZM222.464 323.034H214.202L212.474 328H208.621L216.678 306.672H220.003L228.074 328H224.207L222.464 323.034ZM215.242 320.046H221.424L218.333 311.198L215.242 320.046ZM235.311 306.672L241.463 323.02L247.601 306.672H252.391V328H248.699V320.969L249.065 311.564L242.767 328H240.115L233.831 311.579L234.197 320.969V328H230.506V306.672H235.311ZM269.251 318.479H260.491V325.041H270.73V328H256.785V306.672H270.628V309.66H260.491V315.549H269.251V318.479Z" fill="white"/>
<path d="M66.3179 346.122L66.6475 347.777L67.0503 346.195L69.3647 338.336H70.1777L72.4629 346.195L72.8584 347.792L73.21 346.122L75.1362 338.336H76.0591L73.3271 349H72.4629L70.0459 340.658L69.7749 339.603L69.5112 340.658L67.0356 349H66.1714L63.4468 338.336H64.3696L66.3179 346.122ZM79.7651 346.122L80.0947 347.777L80.4976 346.195L82.812 338.336H83.625L85.9102 346.195L86.3057 347.792L86.6572 346.122L88.5835 338.336H89.5063L86.7744 349H85.9102L83.4932 340.658L83.2222 339.603L82.9585 340.658L80.4829 349H79.6187L76.894 338.336H77.8169L79.7651 346.122ZM93.2124 346.122L93.542 347.777L93.9448 346.195L96.2593 338.336H97.0723L99.3574 346.195L99.7529 347.792L100.104 346.122L102.031 338.336H102.954L100.222 349H99.3574L96.9404 340.658L96.6694 339.603L96.4058 340.658L93.9302 349H93.0659L90.3413 338.336H91.2642L93.2124 346.122ZM103.496 348.473C103.496 348.302 103.549 348.158 103.657 348.041C103.769 347.918 103.923 347.857 104.118 347.857C104.313 347.857 104.467 347.918 104.58 348.041C104.692 348.158 104.748 348.302 104.748 348.473C104.748 348.644 104.692 348.785 104.58 348.897C104.467 349.005 104.313 349.059 104.118 349.059C103.923 349.059 103.769 349.005 103.657 348.897C103.549 348.785 103.496 348.644 103.496 348.473ZM109.34 346.122L109.67 347.777L110.073 346.195L112.387 338.336H113.2L115.485 346.195L115.881 347.792L116.232 346.122L118.159 338.336H119.082L116.35 349H115.485L113.068 340.658L112.797 339.603L112.534 340.658L110.058 349H109.194L106.469 338.336H107.392L109.34 346.122ZM126.706 343.888H121.718V348.238H127.453V349H120.817V338.336H127.417V339.105H121.718V343.126H126.706V343.888ZM129.357 349V338.336H132.507C133.649 338.336 134.516 338.573 135.107 339.046C135.698 339.515 135.993 340.208 135.993 341.126C135.993 341.678 135.842 342.159 135.539 342.569C135.241 342.975 134.831 343.265 134.309 343.441C134.929 343.578 135.427 343.883 135.803 344.356C136.184 344.83 136.374 345.377 136.374 345.997C136.374 346.939 136.069 347.677 135.458 348.209C134.853 348.736 134.008 349 132.924 349H129.357ZM130.258 343.873V348.238H132.961C133.732 348.238 134.343 348.043 134.792 347.652C135.246 347.257 135.473 346.71 135.473 346.012C135.473 345.353 135.256 344.833 134.821 344.452C134.392 344.066 133.796 343.873 133.034 343.873H130.258ZM130.258 343.119H132.719C133.471 343.104 134.052 342.928 134.462 342.591C134.877 342.25 135.085 341.754 135.085 341.104C135.085 340.421 134.87 339.918 134.44 339.596C134.016 339.269 133.371 339.105 132.507 339.105H130.258V343.119ZM144.592 346.378C144.592 345.787 144.384 345.321 143.969 344.979C143.554 344.632 142.795 344.305 141.691 343.998C140.588 343.685 139.782 343.346 139.274 342.979C138.552 342.462 138.19 341.783 138.19 340.943C138.19 340.128 138.525 339.466 139.194 338.958C139.868 338.446 140.727 338.189 141.772 338.189C142.48 338.189 143.112 338.326 143.669 338.6C144.23 338.873 144.665 339.254 144.973 339.742C145.28 340.23 145.434 340.775 145.434 341.375H144.526C144.526 340.648 144.277 340.064 143.779 339.625C143.281 339.181 142.612 338.958 141.772 338.958C140.957 338.958 140.307 339.142 139.824 339.508C139.34 339.869 139.099 340.343 139.099 340.929C139.099 341.471 139.316 341.913 139.75 342.254C140.185 342.596 140.881 342.899 141.838 343.163C142.795 343.421 143.52 343.692 144.013 343.976C144.506 344.254 144.877 344.588 145.126 344.979C145.375 345.37 145.5 345.831 145.5 346.363C145.5 347.203 145.163 347.877 144.489 348.385C143.82 348.893 142.937 349.146 141.838 349.146C141.086 349.146 140.395 349.012 139.765 348.744C139.14 348.475 138.664 348.099 138.337 347.616C138.015 347.132 137.854 346.578 137.854 345.953H138.754C138.754 346.705 139.035 347.298 139.597 347.733C140.158 348.167 140.905 348.385 141.838 348.385C142.668 348.385 143.334 348.202 143.837 347.835C144.34 347.469 144.592 346.983 144.592 346.378ZM148.547 349H147.646V338.336H148.547V349ZM158.464 339.105H154.809V349H153.908V339.105H150.261V338.336H158.464V339.105ZM166.081 343.888H161.093V348.238H166.828V349H160.192V338.336H166.792V339.105H161.093V343.126H166.081V343.888ZM176.672 349H175.771L169.641 339.874V349H168.732V338.336H169.641L175.778 347.469V338.336H176.672V349ZM185.271 346.012H180.429L179.331 349H178.386L182.421 338.336H183.278L187.314 349H186.376L185.271 346.012ZM180.708 345.243H184.985L182.846 339.435L180.708 345.243ZM190.083 338.336L194.016 347.748L197.963 338.336H199.165V349H198.264V344.356L198.337 339.596L194.367 349H193.671L189.716 339.632L189.79 344.327V349H188.889V338.336H190.083ZM207.756 343.888H202.768V348.238H208.503V349H201.867V338.336H208.466V339.105H202.768V343.126H207.756V343.888ZM210.122 348.473C210.122 348.302 210.175 348.158 210.283 348.041C210.395 347.918 210.549 347.857 210.744 347.857C210.939 347.857 211.093 347.918 211.206 348.041C211.318 348.158 211.374 348.302 211.374 348.473C211.374 348.644 211.318 348.785 211.206 348.897C211.093 349.005 210.939 349.059 210.744 349.059C210.549 349.059 210.395 349.005 210.283 348.897C210.175 348.785 210.122 348.644 210.122 348.473ZM221.547 345.675C221.425 346.798 221.022 347.657 220.339 348.253C219.66 348.849 218.754 349.146 217.622 349.146C216.831 349.146 216.13 348.949 215.52 348.553C214.914 348.158 214.445 347.599 214.113 346.876C213.781 346.148 213.613 345.318 213.608 344.386V343.001C213.608 342.054 213.774 341.214 214.106 340.482C214.438 339.75 214.914 339.186 215.534 338.79C216.159 338.39 216.877 338.189 217.688 338.189C218.83 338.189 219.731 338.5 220.39 339.12C221.054 339.735 221.44 340.587 221.547 341.676H220.639C220.415 339.864 219.431 338.958 217.688 338.958C216.721 338.958 215.949 339.32 215.373 340.042C214.802 340.765 214.516 341.764 214.516 343.038V344.342C214.516 345.572 214.794 346.554 215.351 347.286C215.913 348.019 216.669 348.385 217.622 348.385C218.564 348.385 219.274 348.16 219.753 347.711C220.231 347.257 220.527 346.578 220.639 345.675H221.547ZM231.618 344.247C231.618 345.228 231.447 346.09 231.105 346.832C230.769 347.574 230.285 348.146 229.655 348.546C229.025 348.946 228.298 349.146 227.473 349.146C226.228 349.146 225.222 348.702 224.455 347.813C223.688 346.92 223.305 345.716 223.305 344.203V343.104C223.305 342.132 223.476 341.273 223.818 340.526C224.165 339.774 224.653 339.198 225.283 338.797C225.913 338.392 226.638 338.189 227.458 338.189C228.278 338.189 229.001 338.387 229.626 338.783C230.256 339.178 230.742 339.737 231.083 340.46C231.425 341.183 231.604 342.02 231.618 342.972V344.247ZM230.717 343.089C230.717 341.805 230.427 340.799 229.846 340.072C229.265 339.344 228.469 338.98 227.458 338.98C226.467 338.98 225.676 339.347 225.085 340.079C224.499 340.807 224.206 341.825 224.206 343.133V344.247C224.206 345.511 224.499 346.515 225.085 347.257C225.671 347.994 226.467 348.363 227.473 348.363C228.493 348.363 229.289 347.999 229.86 347.271C230.432 346.539 230.717 345.521 230.717 344.217V343.089ZM235.083 338.336L239.016 347.748L242.963 338.336H244.165V349H243.264V344.356L243.337 339.596L239.367 349H238.671L234.716 339.632L234.79 344.327V349H233.889V338.336H235.083Z" fill="white"/>
<path d="M647.78 328.965C647.78 332.302 646.978 334.772 645.375 336.375C643.815 337.978 641.302 338.78 637.835 338.78C637.142 338.78 636.34 338.715 635.43 338.585C634.563 338.498 633.978 338.412 633.675 338.325V333.71C634.888 333.927 636.362 334.035 638.095 334.035C639.482 334.035 640.522 333.688 641.215 332.995C641.908 332.258 642.255 331.067 642.255 329.42V295.425H647.78V328.965ZM671.382 294.645C676.235 294.645 679.81 295.858 682.107 298.285C684.404 300.712 685.552 304.157 685.552 308.62V324.805C685.552 329.268 684.404 332.713 682.107 335.14C679.81 337.567 676.235 338.78 671.382 338.78C666.529 338.78 662.954 337.567 660.657 335.14C658.36 332.713 657.212 329.268 657.212 324.805V308.62C657.212 304.157 658.36 300.712 660.657 298.285C662.954 295.858 666.529 294.645 671.382 294.645ZM671.382 299.52C668.522 299.52 666.355 300.235 664.882 301.665C663.452 303.095 662.737 305.197 662.737 307.97V325.39C662.737 328.163 663.452 330.287 664.882 331.76C666.355 333.19 668.522 333.905 671.382 333.905C674.242 333.905 676.387 333.19 677.817 331.76C679.29 330.287 680.027 328.163 680.027 325.39V308.035C680.027 305.262 679.29 303.16 677.817 301.73C676.387 300.257 674.242 299.52 671.382 299.52ZM722.938 295.425V338H717.413V318.5H700.513V338H694.988V295.425H700.513V313.56H717.413V295.425H722.938ZM752.193 338L738.153 302.055V338H732.693V295.425H741.533L755.313 331.37V295.425H760.773V338H752.193ZM794.1 294.645C799.257 294.645 803.222 296.118 805.995 299.065C808.812 301.968 810.22 306.172 810.22 311.675V322.335C810.22 327.622 808.812 331.695 805.995 334.555C803.222 337.372 799.148 338.78 793.775 338.78C790.092 338.78 786.235 338.65 782.205 338.39V294.905C786.105 294.732 790.07 294.645 794.1 294.645ZM793.775 299.325C792.432 299.325 790.417 299.368 787.73 299.455V333.645C790.287 333.905 792.302 334.035 793.775 334.035C797.112 334.035 799.755 333.082 801.705 331.175C803.698 329.225 804.695 326.43 804.695 322.79V311.285C804.695 307.342 803.742 304.373 801.835 302.38C799.928 300.343 797.242 299.325 793.775 299.325ZM833.184 294.645C838.037 294.645 841.612 295.858 843.909 298.285C846.206 300.712 847.354 304.157 847.354 308.62V324.805C847.354 329.268 846.206 332.713 843.909 335.14C841.612 337.567 838.037 338.78 833.184 338.78C828.331 338.78 824.756 337.567 822.459 335.14C820.162 332.713 819.014 329.268 819.014 324.805V308.62C819.014 304.157 820.162 300.712 822.459 298.285C824.756 295.858 828.331 294.645 833.184 294.645ZM833.184 299.52C830.324 299.52 828.157 300.235 826.684 301.665C825.254 303.095 824.539 305.197 824.539 307.97V325.39C824.539 328.163 825.254 330.287 826.684 331.76C828.157 333.19 830.324 333.905 833.184 333.905C836.044 333.905 838.189 333.19 839.619 331.76C841.092 330.287 841.829 328.163 841.829 325.39V308.035C841.829 305.262 841.092 303.16 839.619 301.73C838.189 300.257 836.044 299.52 833.184 299.52ZM879.215 295.425V300.43H862.315V313.885H877.915V318.825H862.315V332.995H879.215V338H856.79V295.425H879.215Z" fill="white"/>
<path d="M690.65 365L690.525 351.55L687.05 363.3H684.425L680.95 351.55L680.825 365H678.75L678.9 348.625H682.05L685.75 361.4L689.425 348.625H692.575L692.725 365H690.65ZM699.955 352.5C701.389 352.5 702.43 352.825 703.08 353.475C703.747 354.108 704.08 355.125 704.08 356.525V365H702.055V363.05C701.089 364.55 699.997 365.3 698.78 365.3C697.814 365.3 697.039 364.967 696.455 364.3C695.889 363.633 695.605 362.725 695.605 361.575V360.875C695.605 359.875 695.947 359.05 696.63 358.4C697.314 357.733 698.23 357.4 699.38 357.4C700.014 357.4 700.872 357.508 701.955 357.725V356.35C701.955 355.633 701.789 355.117 701.455 354.8C701.139 354.483 700.639 354.325 699.955 354.325C699.155 354.325 698.03 354.45 696.58 354.7V352.875C698.147 352.625 699.272 352.5 699.955 352.5ZM699.905 359.05C699.205 359.05 698.672 359.233 698.305 359.6C697.939 359.967 697.755 360.483 697.755 361.15V361.425C697.755 362.042 697.897 362.525 698.18 362.875C698.464 363.225 698.822 363.4 699.255 363.4C699.705 363.4 700.164 363.208 700.63 362.825C701.114 362.425 701.555 361.867 701.955 361.15V359.225C701.322 359.108 700.639 359.05 699.905 359.05ZM712.786 352.5C713.019 352.5 713.203 352.517 713.336 352.55V354.95C713.086 354.9 712.761 354.875 712.361 354.875C711.194 354.875 710.269 355.458 709.586 356.625V365H707.461V352.8H709.461V354.625C709.911 353.942 710.411 353.417 710.961 353.05C711.528 352.683 712.136 352.5 712.786 352.5ZM717.716 347.925V358.15L721.716 352.8H724.091L719.941 358.15L724.391 365H721.841L717.716 358.45V365H715.591V347.925H717.716ZM729.894 352.5C731.294 352.5 732.36 352.883 733.094 353.65C733.827 354.417 734.194 355.525 734.194 356.975V359.55H727.769V361.025C727.769 361.875 727.969 362.492 728.369 362.875C728.785 363.242 729.435 363.425 730.319 363.425C731.185 363.425 732.269 363.292 733.569 363.025L733.619 364.875C732.069 365.158 730.96 365.3 730.294 365.3C728.644 365.3 727.452 364.942 726.719 364.225C726.002 363.508 725.644 362.4 725.644 360.9V356.975C725.644 355.525 725.994 354.417 726.694 353.65C727.41 352.883 728.477 352.5 729.894 352.5ZM729.894 354.275C729.244 354.275 728.727 354.483 728.344 354.9C727.96 355.3 727.769 355.883 727.769 356.65V357.85H732.069V356.725C732.069 355.925 731.869 355.317 731.469 354.9C731.085 354.483 730.56 354.275 729.894 354.275ZM739.575 352.8H742.825V354.55H739.575V361.7C739.575 362.333 739.7 362.792 739.95 363.075C740.217 363.342 740.625 363.475 741.175 363.475C741.875 363.475 742.559 363.392 743.225 363.225L743.275 365C742.542 365.2 741.875 365.3 741.275 365.3C739.942 365.3 738.967 365.008 738.35 364.425C737.75 363.825 737.45 362.858 737.45 361.525V354.55H735.7V352.8H737.45L737.85 349.55H739.575V352.8ZM747.647 352.8V365H745.522V352.8H747.647ZM746.572 347.875C747.022 347.875 747.364 347.975 747.597 348.175C747.847 348.375 747.972 348.658 747.972 349.025V349.75C747.972 350.117 747.847 350.4 747.597 350.6C747.364 350.783 747.022 350.875 746.572 350.875C746.139 350.875 745.797 350.783 745.547 350.6C745.314 350.4 745.197 350.117 745.197 349.75V349.025C745.197 348.658 745.314 348.375 745.547 348.175C745.797 347.975 746.139 347.875 746.572 347.875ZM756.463 352.5C757.529 352.5 758.346 352.867 758.913 353.6C759.496 354.317 759.788 355.342 759.788 356.675V365H757.663V356.975C757.663 355.308 757.121 354.475 756.038 354.475C755.554 354.475 755.063 354.658 754.563 355.025C754.063 355.392 753.629 355.892 753.263 356.525V365H751.138V352.8H753.138V354.625C753.588 353.942 754.088 353.417 754.638 353.05C755.204 352.683 755.813 352.5 756.463 352.5ZM767.296 352.5C768.029 352.5 768.696 352.608 769.296 352.825L773.196 352.775V354.65L771.146 354.6C771.429 355.2 771.571 355.825 771.571 356.475V357.025C771.571 358.242 771.196 359.225 770.446 359.975C769.696 360.708 768.646 361.075 767.296 361.075C766.429 361.075 765.721 360.992 765.171 360.825C764.804 361.125 764.621 361.467 764.621 361.85V362C764.621 362.267 764.704 362.467 764.871 362.6C765.038 362.717 765.363 362.792 765.846 362.825L769.571 363.1C770.338 363.167 770.954 363.458 771.421 363.975C771.904 364.475 772.146 365.108 772.146 365.875V366.8C772.146 367.517 772.004 368.1 771.721 368.55C771.438 369 770.913 369.342 770.146 369.575C769.396 369.808 768.313 369.925 766.896 369.925C766.363 369.925 765.729 369.867 764.996 369.75C764.279 369.633 763.596 369.483 762.946 369.3L763.021 367.325C764.571 367.842 765.888 368.1 766.971 368.1C767.871 368.1 768.538 368.042 768.971 367.925C769.421 367.825 769.713 367.667 769.846 367.45C769.996 367.233 770.071 366.908 770.071 366.475V366.275C770.071 365.892 769.963 365.592 769.746 365.375C769.546 365.158 769.254 365.042 768.871 365.025L765.121 364.775C764.321 364.725 763.713 364.5 763.296 364.1C762.879 363.7 762.671 363.158 762.671 362.475V361.975C762.671 361.608 762.763 361.25 762.946 360.9C763.146 360.55 763.429 360.242 763.796 359.975C763.513 359.658 763.304 359.258 763.171 358.775C763.054 358.275 762.996 357.667 762.996 356.95V356.4C762.996 355.217 763.363 354.275 764.096 353.575C764.829 352.858 765.896 352.5 767.296 352.5ZM767.296 354.275C766.596 354.275 766.054 354.458 765.671 354.825C765.304 355.175 765.121 355.683 765.121 356.35V357.175C765.121 357.792 765.171 358.25 765.271 358.55C765.388 358.833 765.588 359.033 765.871 359.15C766.154 359.25 766.579 359.3 767.146 359.3C767.913 359.3 768.488 359.117 768.871 358.75C769.254 358.383 769.446 357.858 769.446 357.175V356.425C769.446 355.725 769.346 355.117 769.146 354.6C768.946 354.517 768.671 354.442 768.321 354.375C767.988 354.308 767.646 354.275 767.296 354.275ZM783.678 352.5C785.078 352.5 786.144 352.883 786.878 353.65C787.611 354.417 787.978 355.525 787.978 356.975V359.55H781.553V361.025C781.553 361.875 781.753 362.492 782.153 362.875C782.569 363.242 783.219 363.425 784.103 363.425C784.969 363.425 786.053 363.292 787.353 363.025L787.403 364.875C785.853 365.158 784.744 365.3 784.078 365.3C782.428 365.3 781.236 364.942 780.503 364.225C779.786 363.508 779.428 362.4 779.428 360.9V356.975C779.428 355.525 779.778 354.417 780.478 353.65C781.194 352.883 782.261 352.5 783.678 352.5ZM783.678 354.275C783.028 354.275 782.511 354.483 782.128 354.9C781.744 355.3 781.553 355.883 781.553 356.65V357.85H785.853V356.725C785.853 355.925 785.653 355.317 785.253 354.9C784.869 354.483 784.344 354.275 783.678 354.275ZM799.234 352.8L795.659 358.65L799.509 365H797.084L794.334 360.225L791.659 365H789.234L793.034 358.725L789.484 352.8H791.909L794.384 357.175L796.884 352.8H799.234ZM806.682 352.5C807.732 352.5 808.549 352.858 809.132 353.575C809.715 354.292 810.007 355.325 810.007 356.675V361.125C810.007 362.425 809.665 363.45 808.982 364.2C808.315 364.933 807.407 365.3 806.257 365.3C805.824 365.3 805.357 365.208 804.857 365.025C804.374 364.858 803.924 364.658 803.507 364.425V369.625H801.382V352.8H803.382V354.575C804.299 353.192 805.399 352.5 806.682 352.5ZM806.257 354.4C805.774 354.4 805.282 354.583 804.782 354.95C804.299 355.3 803.874 355.783 803.507 356.4V362.525C803.857 362.808 804.24 363.033 804.657 363.2C805.09 363.35 805.482 363.425 805.832 363.425C807.199 363.425 807.882 362.558 807.882 360.825V356.975C807.882 355.258 807.34 354.4 806.257 354.4ZM817.247 352.5C818.647 352.5 819.714 352.883 820.447 353.65C821.18 354.417 821.547 355.525 821.547 356.975V359.55H815.122V361.025C815.122 361.875 815.322 362.492 815.722 362.875C816.139 363.242 816.789 363.425 817.672 363.425C818.539 363.425 819.622 363.292 820.922 363.025L820.972 364.875C819.422 365.158 818.314 365.3 817.647 365.3C815.997 365.3 814.805 364.942 814.072 364.225C813.355 363.508 812.997 362.4 812.997 360.9V356.975C812.997 355.525 813.347 354.417 814.047 353.65C814.764 352.883 815.83 352.5 817.247 352.5ZM817.247 354.275C816.597 354.275 816.08 354.483 815.697 354.9C815.314 355.3 815.122 355.883 815.122 356.65V357.85H819.422V356.725C819.422 355.925 819.222 355.317 818.822 354.9C818.439 354.483 817.914 354.275 817.247 354.275ZM829.754 352.5C829.987 352.5 830.17 352.517 830.304 352.55V354.95C830.054 354.9 829.729 354.875 829.329 354.875C828.162 354.875 827.237 355.458 826.554 356.625V365H824.429V352.8H826.429V354.625C826.879 353.942 827.379 353.417 827.929 353.05C828.495 352.683 829.104 352.5 829.754 352.5ZM835.645 352.8H838.895V354.55H835.645V361.7C835.645 362.333 835.77 362.792 836.02 363.075C836.286 363.342 836.695 363.475 837.245 363.475C837.945 363.475 838.628 363.392 839.295 363.225L839.345 365C838.611 365.2 837.945 365.3 837.345 365.3C836.011 365.3 835.036 365.008 834.42 364.425C833.82 363.825 833.52 362.858 833.52 361.525V354.55H831.77V352.8H833.52L833.92 349.55H835.645V352.8Z" fill="white"/>
<path d="M491.2 444.325C493.167 444.325 494.625 444.725 495.575 445.525C496.542 446.308 497.025 447.433 497.025 448.9V449.5C497.025 451.067 496.558 452.275 495.625 453.125C494.692 453.975 493.283 454.4 491.4 454.4C490.65 454.4 489.85 454.333 489 454.2V461H486.875V444.45C488.292 444.367 489.733 444.325 491.2 444.325ZM491.15 446.125C490.417 446.125 489.7 446.142 489 446.175V452.375C490 452.508 490.767 452.575 491.3 452.575C493.7 452.575 494.9 451.517 494.9 449.4V448.975C494.9 448.025 494.6 447.317 494 446.85C493.4 446.367 492.45 446.125 491.15 446.125ZM501.644 450.425C502.56 449.142 503.627 448.5 504.844 448.5C505.91 448.5 506.727 448.867 507.294 449.6C507.877 450.317 508.169 451.342 508.169 452.675V461H506.044V452.975C506.044 451.308 505.502 450.475 504.419 450.475C503.935 450.475 503.444 450.658 502.944 451.025C502.444 451.392 502.01 451.892 501.644 452.525V461H499.519V443.925H501.644V450.425ZM515.705 448.5C517.188 448.5 518.288 448.9 519.005 449.7C519.738 450.483 520.105 451.6 520.105 453.05V456.75C520.105 458.2 519.738 459.325 519.005 460.125C518.288 460.908 517.188 461.3 515.705 461.3C514.221 461.3 513.113 460.908 512.38 460.125C511.663 459.325 511.305 458.2 511.305 456.75V453.05C511.305 451.6 511.663 450.483 512.38 449.7C513.113 448.9 514.221 448.5 515.705 448.5ZM515.705 450.275C514.988 450.275 514.43 450.5 514.03 450.95C513.63 451.4 513.43 452.042 513.43 452.875V456.925C513.43 457.758 513.63 458.4 514.03 458.85C514.43 459.3 514.988 459.525 515.705 459.525C516.421 459.525 516.98 459.3 517.38 458.85C517.78 458.4 517.98 457.758 517.98 456.925V452.85C517.98 452.017 517.78 451.383 517.38 450.95C516.98 450.5 516.421 450.275 515.705 450.275ZM528.672 448.5C529.738 448.5 530.555 448.867 531.122 449.6C531.705 450.317 531.997 451.342 531.997 452.675V461H529.872V452.975C529.872 451.308 529.33 450.475 528.247 450.475C527.763 450.475 527.272 450.658 526.772 451.025C526.272 451.392 525.838 451.892 525.472 452.525V461H523.347V448.8H525.347V450.625C525.797 449.942 526.297 449.417 526.847 449.05C527.413 448.683 528.022 448.5 528.672 448.5ZM539.505 448.5C540.905 448.5 541.972 448.883 542.705 449.65C543.438 450.417 543.805 451.525 543.805 452.975V455.55H537.38V457.025C537.38 457.875 537.58 458.492 537.98 458.875C538.397 459.242 539.047 459.425 539.93 459.425C540.797 459.425 541.88 459.292 543.18 459.025L543.23 460.875C541.68 461.158 540.572 461.3 539.905 461.3C538.255 461.3 537.063 460.942 536.33 460.225C535.613 459.508 535.255 458.4 535.255 456.9V452.975C535.255 451.525 535.605 450.417 536.305 449.65C537.022 448.883 538.088 448.5 539.505 448.5ZM539.505 450.275C538.855 450.275 538.338 450.483 537.955 450.9C537.572 451.3 537.38 451.883 537.38 452.65V453.85H541.68V452.725C541.68 451.925 541.48 451.317 541.08 450.9C540.697 450.483 540.172 450.275 539.505 450.275ZM547.712 458.25C548.662 458.25 549.137 458.642 549.137 459.425V460.15C549.137 460.517 549.012 460.8 548.762 461C548.528 461.2 548.178 461.3 547.712 461.3C547.262 461.3 546.912 461.2 546.662 461C546.428 460.8 546.312 460.517 546.312 460.15V459.425C546.312 459.042 546.428 458.75 546.662 458.55C546.912 458.35 547.262 458.25 547.712 458.25ZM547.712 449.05C548.662 449.05 549.137 449.442 549.137 450.225V450.95C549.137 451.317 549.012 451.6 548.762 451.8C548.528 452 548.178 452.1 547.712 452.1C547.262 452.1 546.912 452 546.662 451.8C546.428 451.6 546.312 451.317 546.312 450.95V450.225C546.312 449.842 546.428 449.55 546.662 449.35C546.912 449.15 547.262 449.05 547.712 449.05ZM560.771 448.8V452.6H564.271V454.375H560.771V458.175H558.871V454.375H555.371V452.6H558.871V448.8H560.771ZM570.463 445.675C571.963 445.675 573.104 446.083 573.888 446.9C574.671 447.717 575.063 448.9 575.063 450.45V455.8C575.063 457.7 574.638 459.092 573.788 459.975C572.954 460.858 571.679 461.3 569.963 461.3C569.479 461.3 568.913 461.25 568.263 461.15C567.629 461.067 567.121 460.983 566.738 460.9V459.125C567.238 459.208 567.821 459.3 568.488 459.4C569.154 459.483 569.646 459.525 569.963 459.525C570.979 459.525 571.729 459.25 572.213 458.7C572.696 458.133 572.938 457.217 572.938 455.95V454.05C571.771 455.167 570.638 455.725 569.538 455.725C568.354 455.725 567.438 455.35 566.788 454.6C566.138 453.85 565.813 452.75 565.813 451.3V450.325C565.813 448.825 566.204 447.675 566.988 446.875C567.771 446.075 568.929 445.675 570.463 445.675ZM570.463 447.475C568.779 447.475 567.938 448.383 567.938 450.2V451.375C567.938 452.192 568.113 452.817 568.463 453.25C568.813 453.667 569.313 453.875 569.963 453.875C570.763 453.875 571.754 453.333 572.938 452.25V450.325C572.938 448.425 572.113 447.475 570.463 447.475ZM582.328 445.675C583.828 445.675 584.969 446.083 585.753 446.9C586.536 447.717 586.928 448.9 586.928 450.45V455.8C586.928 457.7 586.503 459.092 585.653 459.975C584.819 460.858 583.544 461.3 581.828 461.3C581.344 461.3 580.778 461.25 580.128 461.15C579.494 461.067 578.986 460.983 578.603 460.9V459.125C579.103 459.208 579.686 459.3 580.353 459.4C581.019 459.483 581.511 459.525 581.828 459.525C582.844 459.525 583.594 459.25 584.078 458.7C584.561 458.133 584.803 457.217 584.803 455.95V454.05C583.636 455.167 582.503 455.725 581.403 455.725C580.219 455.725 579.303 455.35 578.653 454.6C578.003 453.85 577.678 452.75 577.678 451.3V450.325C577.678 448.825 578.069 447.675 578.853 446.875C579.636 446.075 580.794 445.675 582.328 445.675ZM582.328 447.475C580.644 447.475 579.803 448.383 579.803 450.2V451.375C579.803 452.192 579.978 452.817 580.328 453.25C580.678 453.667 581.178 453.875 581.828 453.875C582.628 453.875 583.619 453.333 584.803 452.25V450.325C584.803 448.425 583.978 447.475 582.328 447.475ZM597.368 447.725H591.718V452.6C592.668 451.833 593.801 451.45 595.118 451.45C596.268 451.45 597.126 451.792 597.693 452.475C598.276 453.142 598.568 454.217 598.568 455.7V456.6C598.568 459.733 596.943 461.3 593.693 461.3C593.11 461.3 592.468 461.242 591.768 461.125C591.068 461.025 590.451 460.9 589.918 460.75V459.025C590.401 459.125 591.043 459.233 591.843 459.35C592.643 459.45 593.243 459.5 593.643 459.5C594.56 459.5 595.251 459.258 595.718 458.775C596.201 458.275 596.443 457.55 596.443 456.6V455.625C596.443 454.025 595.826 453.225 594.593 453.225C593.926 453.225 593.335 453.35 592.818 453.6C592.318 453.85 591.81 454.267 591.293 454.85H589.668V445.9H597.368V447.725ZM607.72 445.675C609.337 445.675 610.529 446 611.295 446.65C612.062 447.3 612.445 448.275 612.445 449.575V450.125C612.445 450.908 612.312 451.633 612.045 452.3C611.779 452.967 611.22 453.8 610.37 454.8L606.745 459.175H612.62V461H604.195V459.375L609.195 453.05C609.662 452.467 609.962 451.992 610.095 451.625C610.245 451.242 610.32 450.75 610.32 450.15V449.7C610.32 448.9 610.112 448.333 609.695 448C609.295 447.65 608.637 447.475 607.72 447.475C607.27 447.475 606.754 447.533 606.17 447.65C605.587 447.75 605.054 447.875 604.57 448.025V446.2C605.854 445.85 606.904 445.675 607.72 445.675ZM618.197 445.675C619.614 445.675 620.697 446.017 621.447 446.7C622.197 447.383 622.572 448.342 622.572 449.575V449.825C622.572 450.592 622.405 451.267 622.072 451.85C621.755 452.417 621.28 452.85 620.647 453.15C621.33 453.433 621.872 453.892 622.272 454.525C622.689 455.158 622.897 455.875 622.897 456.675V456.925C622.897 458.242 622.497 459.3 621.697 460.1C620.914 460.9 619.772 461.3 618.272 461.3C617.489 461.3 616.414 461.192 615.047 460.975V459.2C616.314 459.417 617.389 459.525 618.272 459.525C619.072 459.525 619.689 459.308 620.122 458.875C620.555 458.425 620.772 457.817 620.772 457.05V456.65C620.772 454.95 619.897 454.1 618.147 454.1H615.922V452.4H618.147C618.93 452.4 619.505 452.208 619.872 451.825C620.255 451.425 620.447 450.792 620.447 449.925V449.45C620.447 448.1 619.697 447.425 618.197 447.425C617.464 447.425 616.414 447.542 615.047 447.775V446C616.414 445.783 617.464 445.675 618.197 445.675ZM633.179 445.975V456.025H634.704V457.775H633.179V461H631.104V457.775H624.304V456.3L630.754 445.975H633.179ZM631.129 448.4L626.579 456.025H631.129V448.4ZM648.193 445.975V456.025H649.718V457.775H648.193V461H646.118V457.775H639.318V456.3L645.768 445.975H648.193ZM646.143 448.4L641.593 456.025H646.143V448.4ZM658.233 445.675C659.85 445.675 661.041 446 661.808 446.65C662.575 447.3 662.958 448.275 662.958 449.575V450.125C662.958 450.908 662.825 451.633 662.558 452.3C662.291 452.967 661.733 453.8 660.883 454.8L657.258 459.175H663.133V461H654.708V459.375L659.708 453.05C660.175 452.467 660.475 451.992 660.608 451.625C660.758 451.242 660.833 450.75 660.833 450.15V449.7C660.833 448.9 660.625 448.333 660.208 448C659.808 447.65 659.15 447.475 658.233 447.475C657.783 447.475 657.266 447.533 656.683 447.65C656.1 447.75 655.566 447.875 655.083 448.025V446.2C656.366 445.85 657.416 445.675 658.233 445.675ZM668.71 445.675C670.126 445.675 671.21 446.017 671.96 446.7C672.71 447.383 673.085 448.342 673.085 449.575V449.825C673.085 450.592 672.918 451.267 672.585 451.85C672.268 452.417 671.793 452.85 671.16 453.15C671.843 453.433 672.385 453.892 672.785 454.525C673.201 455.158 673.41 455.875 673.41 456.675V456.925C673.41 458.242 673.01 459.3 672.21 460.1C671.426 460.9 670.285 461.3 668.785 461.3C668.001 461.3 666.926 461.192 665.56 460.975V459.2C666.826 459.417 667.901 459.525 668.785 459.525C669.585 459.525 670.201 459.308 670.635 458.875C671.068 458.425 671.285 457.817 671.285 457.05V456.65C671.285 454.95 670.41 454.1 668.66 454.1H666.435V452.4H668.66C669.443 452.4 670.018 452.208 670.385 451.825C670.768 451.425 670.96 450.792 670.96 449.925V449.45C670.96 448.1 670.21 447.425 668.71 447.425C667.976 447.425 666.926 447.542 665.56 447.775V446C666.926 445.783 667.976 445.675 668.71 445.675ZM683.691 445.975V456.025H685.216V457.775H683.691V461H681.616V457.775H674.816V456.3L681.266 445.975H683.691ZM681.641 448.4L677.091 456.025H681.641V448.4ZM690.411 445.675C692.027 445.675 693.219 446 693.986 446.65C694.752 447.3 695.136 448.275 695.136 449.575V450.125C695.136 450.908 695.002 451.633 694.736 452.3C694.469 452.967 693.911 453.8 693.061 454.8L689.436 459.175H695.311V461H686.886V459.375L691.886 453.05C692.352 452.467 692.652 451.992 692.786 451.625C692.936 451.242 693.011 450.75 693.011 450.15V449.7C693.011 448.9 692.802 448.333 692.386 448C691.986 447.65 691.327 447.475 690.411 447.475C689.961 447.475 689.444 447.533 688.861 447.65C688.277 447.75 687.744 447.875 687.261 448.025V446.2C688.544 445.85 689.594 445.675 690.411 445.675ZM700.887 445.675C702.304 445.675 703.387 446.017 704.137 446.7C704.887 447.383 705.262 448.342 705.262 449.575V449.825C705.262 450.592 705.096 451.267 704.762 451.85C704.446 452.417 703.971 452.85 703.337 453.15C704.021 453.433 704.562 453.892 704.962 454.525C705.379 455.158 705.587 455.875 705.587 456.675V456.925C705.587 458.242 705.187 459.3 704.387 460.1C703.604 460.9 702.462 461.3 700.962 461.3C700.179 461.3 699.104 461.192 697.737 460.975V459.2C699.004 459.417 700.079 459.525 700.962 459.525C701.762 459.525 702.379 459.308 702.812 458.875C703.246 458.425 703.462 457.817 703.462 457.05V456.65C703.462 454.95 702.587 454.1 700.837 454.1H698.612V452.4H700.837C701.621 452.4 702.196 452.208 702.562 451.825C702.946 451.425 703.137 450.792 703.137 449.925V449.45C703.137 448.1 702.387 447.425 700.887 447.425C700.154 447.425 699.104 447.542 697.737 447.775V446C699.104 445.783 700.154 445.675 700.887 445.675ZM715.869 445.975V456.025H717.394V457.775H715.869V461H713.794V457.775H706.994V456.3L713.444 445.975H715.869ZM713.819 448.4L709.269 456.025H713.819V448.4ZM725.909 445.675C727.525 445.675 728.717 446 729.484 446.65C730.25 447.3 730.634 448.275 730.634 449.575V450.125C730.634 450.908 730.5 451.633 730.234 452.3C729.967 452.967 729.409 453.8 728.559 454.8L724.934 459.175H730.809V461H722.384V459.375L727.384 453.05C727.85 452.467 728.15 451.992 728.284 451.625C728.434 451.242 728.509 450.75 728.509 450.15V449.7C728.509 448.9 728.3 448.333 727.884 448C727.484 447.65 726.825 447.475 725.909 447.475C725.459 447.475 724.942 447.533 724.359 447.65C723.775 447.75 723.242 447.875 722.759 448.025V446.2C724.042 445.85 725.092 445.675 725.909 445.675Z" fill="white"/>
<path d="M495.5 498.625V500.55H489V505.725H495V507.625H489V513.075H495.5V515H486.875V498.625H495.5ZM510.609 502.5C511.675 502.5 512.492 502.867 513.059 503.6C513.625 504.317 513.909 505.342 513.909 506.675V515H511.784V506.975C511.784 505.308 511.25 504.475 510.184 504.475C509.717 504.475 509.234 504.658 508.734 505.025C508.25 505.392 507.825 505.892 507.459 506.525V515H505.334V506.975C505.334 505.308 504.8 504.475 503.734 504.475C503.267 504.475 502.784 504.658 502.284 505.025C501.8 505.392 501.375 505.892 501.009 506.525V515H498.884V502.8H500.884V504.625C501.317 503.942 501.817 503.417 502.384 503.05C502.95 502.683 503.542 502.5 504.159 502.5C504.925 502.5 505.567 502.7 506.084 503.1C506.6 503.483 506.975 504.05 507.209 504.8C507.659 504.05 508.175 503.483 508.759 503.1C509.342 502.7 509.959 502.5 510.609 502.5ZM521.139 502.5C522.572 502.5 523.614 502.825 524.264 503.475C524.931 504.108 525.264 505.125 525.264 506.525V515H523.239V513.05C522.272 514.55 521.181 515.3 519.964 515.3C518.997 515.3 518.222 514.967 517.639 514.3C517.072 513.633 516.789 512.725 516.789 511.575V510.875C516.789 509.875 517.131 509.05 517.814 508.4C518.497 507.733 519.414 507.4 520.564 507.4C521.197 507.4 522.056 507.508 523.139 507.725V506.35C523.139 505.633 522.972 505.117 522.639 504.8C522.322 504.483 521.822 504.325 521.139 504.325C520.339 504.325 519.214 504.45 517.764 504.7V502.875C519.331 502.625 520.456 502.5 521.139 502.5ZM521.089 509.05C520.389 509.05 519.856 509.233 519.489 509.6C519.122 509.967 518.939 510.483 518.939 511.15V511.425C518.939 512.042 519.081 512.525 519.364 512.875C519.647 513.225 520.006 513.4 520.439 513.4C520.889 513.4 521.347 513.208 521.814 512.825C522.297 512.425 522.739 511.867 523.139 511.15V509.225C522.506 509.108 521.822 509.05 521.089 509.05ZM530.77 502.8V515H528.645V502.8H530.77ZM529.695 497.875C530.145 497.875 530.486 497.975 530.72 498.175C530.97 498.375 531.095 498.658 531.095 499.025V499.75C531.095 500.117 530.97 500.4 530.72 500.6C530.486 500.783 530.145 500.875 529.695 500.875C529.261 500.875 528.92 500.783 528.67 500.6C528.436 500.4 528.32 500.117 528.32 499.75V499.025C528.32 498.658 528.436 498.375 528.67 498.175C528.92 497.975 529.261 497.875 529.695 497.875ZM536.385 497.925V515H534.26V497.925H536.385ZM540.9 512.25C541.85 512.25 542.325 512.642 542.325 513.425V514.15C542.325 514.517 542.2 514.8 541.95 515C541.717 515.2 541.367 515.3 540.9 515.3C540.45 515.3 540.1 515.2 539.85 515C539.617 514.8 539.5 514.517 539.5 514.15V513.425C539.5 513.042 539.617 512.75 539.85 512.55C540.1 512.35 540.45 512.25 540.9 512.25ZM540.9 503.05C541.85 503.05 542.325 503.442 542.325 504.225V504.95C542.325 505.317 542.2 505.6 541.95 505.8C541.717 506 541.367 506.1 540.9 506.1C540.45 506.1 540.1 506 539.85 505.8C539.617 505.6 539.5 505.317 539.5 504.95V504.225C539.5 503.842 539.617 503.55 539.85 503.35C540.1 503.15 540.45 503.05 540.9 503.05ZM553.885 502.5C555.285 502.5 556.351 502.883 557.085 503.65C557.818 504.417 558.185 505.525 558.185 506.975V509.55H551.76V511.025C551.76 511.875 551.96 512.492 552.36 512.875C552.776 513.242 553.426 513.425 554.31 513.425C555.176 513.425 556.26 513.292 557.56 513.025L557.61 514.875C556.06 515.158 554.951 515.3 554.285 515.3C552.635 515.3 551.443 514.942 550.71 514.225C549.993 513.508 549.635 512.4 549.635 510.9V506.975C549.635 505.525 549.985 504.417 550.685 503.65C551.401 502.883 552.468 502.5 553.885 502.5ZM553.885 504.275C553.235 504.275 552.718 504.483 552.335 504.9C551.951 505.3 551.76 505.883 551.76 506.65V507.85H556.06V506.725C556.06 505.925 555.86 505.317 555.46 504.9C555.076 504.483 554.551 504.275 553.885 504.275ZM572.791 502.5C573.858 502.5 574.675 502.867 575.241 503.6C575.808 504.317 576.091 505.342 576.091 506.675V515H573.966V506.975C573.966 505.308 573.433 504.475 572.366 504.475C571.9 504.475 571.416 504.658 570.916 505.025C570.433 505.392 570.008 505.892 569.641 506.525V515H567.516V506.975C567.516 505.308 566.983 504.475 565.916 504.475C565.45 504.475 564.966 504.658 564.466 505.025C563.983 505.392 563.558 505.892 563.191 506.525V515H561.066V502.8H563.066V504.625C563.5 503.942 564 503.417 564.566 503.05C565.133 502.683 565.725 502.5 566.341 502.5C567.108 502.5 567.75 502.7 568.266 503.1C568.783 503.483 569.158 504.05 569.391 504.8C569.841 504.05 570.358 503.483 570.941 503.1C571.525 502.7 572.141 502.5 572.791 502.5ZM583.322 502.5C584.755 502.5 585.797 502.825 586.447 503.475C587.113 504.108 587.447 505.125 587.447 506.525V515H585.422V513.05C584.455 514.55 583.363 515.3 582.147 515.3C581.18 515.3 580.405 514.967 579.822 514.3C579.255 513.633 578.972 512.725 578.972 511.575V510.875C578.972 509.875 579.313 509.05 579.997 508.4C580.68 507.733 581.597 507.4 582.747 507.4C583.38 507.4 584.238 507.508 585.322 507.725V506.35C585.322 505.633 585.155 505.117 584.822 504.8C584.505 504.483 584.005 504.325 583.322 504.325C582.522 504.325 581.397 504.45 579.947 504.7V502.875C581.513 502.625 582.638 502.5 583.322 502.5ZM583.272 509.05C582.572 509.05 582.038 509.233 581.672 509.6C581.305 509.967 581.122 510.483 581.122 511.15V511.425C581.122 512.042 581.263 512.525 581.547 512.875C581.83 513.225 582.188 513.4 582.622 513.4C583.072 513.4 583.53 513.208 583.997 512.825C584.48 512.425 584.922 511.867 585.322 511.15V509.225C584.688 509.108 584.005 509.05 583.272 509.05ZM592.952 502.8V515H590.827V502.8H592.952ZM591.877 497.875C592.327 497.875 592.669 497.975 592.902 498.175C593.152 498.375 593.277 498.658 593.277 499.025V499.75C593.277 500.117 593.152 500.4 592.902 500.6C592.669 500.783 592.327 500.875 591.877 500.875C591.444 500.875 591.102 500.783 590.852 500.6C590.619 500.4 590.502 500.117 590.502 499.75V499.025C590.502 498.658 590.619 498.375 590.852 498.175C591.102 497.975 591.444 497.875 591.877 497.875ZM598.567 497.925V515H596.442V497.925H598.567ZM611.683 497.625C615.183 497.625 617.783 498.417 619.483 500C621.199 501.567 622.058 503.917 622.058 507.05V508.3C622.058 509.533 621.841 510.625 621.408 511.575C620.991 512.525 620.374 513.275 619.558 513.825C618.758 514.358 617.816 514.625 616.733 514.625C615.799 514.625 615.066 514.425 614.533 514.025C613.999 513.608 613.683 513.025 613.583 512.275C612.983 513.008 612.341 513.583 611.658 514C610.991 514.417 610.349 514.625 609.733 514.625C608.816 514.625 608.108 514.35 607.608 513.8C607.124 513.25 606.883 512.458 606.883 511.425C606.883 511.125 606.908 510.8 606.958 510.45L607.408 507C607.574 505.65 607.999 504.617 608.683 503.9C609.383 503.167 610.274 502.8 611.358 502.8C611.908 502.8 612.458 502.933 613.008 503.2C613.574 503.467 614.041 503.783 614.408 504.15L614.533 503.125H616.533L615.508 511.125C615.474 511.675 615.541 512.083 615.708 512.35C615.891 512.617 616.241 512.75 616.758 512.75C617.341 512.75 617.874 512.558 618.358 512.175C618.841 511.792 619.224 511.267 619.508 510.6C619.791 509.917 619.933 509.15 619.933 508.3V507.05C619.933 504.583 619.241 502.717 617.858 501.45C616.474 500.167 614.416 499.525 611.683 499.525C609.233 499.525 607.324 500.242 605.958 501.675C604.608 503.108 603.933 505.15 603.933 507.8V510.3C603.933 512.733 604.583 514.575 605.883 515.825C607.183 517.092 609.116 517.725 611.683 517.725H615.058V519.625H611.683C605.099 519.625 601.808 516.517 601.808 510.3V507.8C601.808 504.683 602.633 502.208 604.283 500.375C605.933 498.542 608.399 497.625 611.683 497.625ZM611.683 504.7C611.099 504.7 610.616 504.917 610.233 505.35C609.849 505.767 609.599 506.417 609.483 507.3L609.108 510.175C609.074 510.375 609.058 510.642 609.058 510.975C609.058 512.142 609.499 512.725 610.383 512.725C610.883 512.725 611.399 512.533 611.933 512.15C612.483 511.75 612.999 511.183 613.483 510.45L614.033 505.925C613.733 505.558 613.358 505.267 612.908 505.05C612.474 504.817 612.066 504.7 611.683 504.7ZM629.3 502.5C630.033 502.5 630.7 502.608 631.3 502.825L635.2 502.775V504.65L633.15 504.6C633.433 505.2 633.575 505.825 633.575 506.475V507.025C633.575 508.242 633.2 509.225 632.45 509.975C631.7 510.708 630.65 511.075 629.3 511.075C628.433 511.075 627.725 510.992 627.175 510.825C626.808 511.125 626.625 511.467 626.625 511.85V512C626.625 512.267 626.708 512.467 626.875 512.6C627.041 512.717 627.366 512.792 627.85 512.825L631.575 513.1C632.341 513.167 632.958 513.458 633.425 513.975C633.908 514.475 634.15 515.108 634.15 515.875V516.8C634.15 517.517 634.008 518.1 633.725 518.55C633.441 519 632.916 519.342 632.15 519.575C631.4 519.808 630.316 519.925 628.9 519.925C628.366 519.925 627.733 519.867 627 519.75C626.283 519.633 625.6 519.483 624.95 519.3L625.025 517.325C626.575 517.842 627.891 518.1 628.975 518.1C629.875 518.1 630.541 518.042 630.975 517.925C631.425 517.825 631.716 517.667 631.85 517.45C632 517.233 632.075 516.908 632.075 516.475V516.275C632.075 515.892 631.966 515.592 631.75 515.375C631.55 515.158 631.258 515.042 630.875 515.025L627.125 514.775C626.325 514.725 625.716 514.5 625.3 514.1C624.883 513.7 624.675 513.158 624.675 512.475V511.975C624.675 511.608 624.766 511.25 624.95 510.9C625.15 510.55 625.433 510.242 625.8 509.975C625.516 509.658 625.308 509.258 625.175 508.775C625.058 508.275 625 507.667 625 506.95V506.4C625 505.217 625.366 504.275 626.1 503.575C626.833 502.858 627.9 502.5 629.3 502.5ZM629.3 504.275C628.6 504.275 628.058 504.458 627.675 504.825C627.308 505.175 627.125 505.683 627.125 506.35V507.175C627.125 507.792 627.175 508.25 627.275 508.55C627.391 508.833 627.591 509.033 627.875 509.15C628.158 509.25 628.583 509.3 629.15 509.3C629.916 509.3 630.491 509.117 630.875 508.75C631.258 508.383 631.45 507.858 631.45 507.175V506.425C631.45 505.725 631.35 505.117 631.15 504.6C630.95 504.517 630.675 504.442 630.325 504.375C629.991 504.308 629.65 504.275 629.3 504.275ZM648.914 502.5C649.981 502.5 650.798 502.867 651.364 503.6C651.931 504.317 652.214 505.342 652.214 506.675V515H650.089V506.975C650.089 505.308 649.556 504.475 648.489 504.475C648.023 504.475 647.539 504.658 647.039 505.025C646.556 505.392 646.131 505.892 645.764 506.525V515H643.639V506.975C643.639 505.308 643.106 504.475 642.039 504.475C641.573 504.475 641.089 504.658 640.589 505.025C640.106 505.392 639.681 505.892 639.314 506.525V515H637.189V502.8H639.189V504.625C639.623 503.942 640.123 503.417 640.689 503.05C641.256 502.683 641.848 502.5 642.464 502.5C643.231 502.5 643.873 502.7 644.389 503.1C644.906 503.483 645.281 504.05 645.514 504.8C645.964 504.05 646.481 503.483 647.064 503.1C647.648 502.7 648.264 502.5 648.914 502.5ZM659.445 502.5C660.878 502.5 661.92 502.825 662.57 503.475C663.236 504.108 663.57 505.125 663.57 506.525V515H661.545V513.05C660.578 514.55 659.486 515.3 658.27 515.3C657.303 515.3 656.528 514.967 655.945 514.3C655.378 513.633 655.095 512.725 655.095 511.575V510.875C655.095 509.875 655.436 509.05 656.12 508.4C656.803 507.733 657.72 507.4 658.87 507.4C659.503 507.4 660.361 507.508 661.445 507.725V506.35C661.445 505.633 661.278 505.117 660.945 504.8C660.628 504.483 660.128 504.325 659.445 504.325C658.645 504.325 657.52 504.45 656.07 504.7V502.875C657.636 502.625 658.761 502.5 659.445 502.5ZM659.395 509.05C658.695 509.05 658.161 509.233 657.795 509.6C657.428 509.967 657.245 510.483 657.245 511.15V511.425C657.245 512.042 657.386 512.525 657.67 512.875C657.953 513.225 658.311 513.4 658.745 513.4C659.195 513.4 659.653 513.208 660.12 512.825C660.603 512.425 661.045 511.867 661.445 511.15V509.225C660.811 509.108 660.128 509.05 659.395 509.05ZM669.075 502.8V515H666.95V502.8H669.075ZM668 497.875C668.45 497.875 668.792 497.975 669.025 498.175C669.275 498.375 669.4 498.658 669.4 499.025V499.75C669.4 500.117 669.275 500.4 669.025 500.6C668.792 500.783 668.45 500.875 668 500.875C667.567 500.875 667.225 500.783 666.975 500.6C666.742 500.4 666.625 500.117 666.625 499.75V499.025C666.625 498.658 666.742 498.375 666.975 498.175C667.225 497.975 667.567 497.875 668 497.875ZM674.69 497.925V515H672.565V497.925H674.69ZM679.206 512.25C680.156 512.25 680.631 512.642 680.631 513.425V514.15C680.631 514.517 680.506 514.8 680.256 515C680.022 515.2 679.672 515.3 679.206 515.3C678.756 515.3 678.406 515.2 678.156 515C677.922 514.8 677.806 514.517 677.806 514.15V513.425C677.806 513.042 677.922 512.75 678.156 512.55C678.406 512.35 678.756 512.25 679.206 512.25ZM687.9 502.5C688.65 502.5 689.5 502.608 690.45 502.825L690.4 504.7C689.433 504.483 688.6 504.375 687.9 504.375C687.117 504.375 686.517 504.592 686.1 505.025C685.7 505.458 685.5 506.075 685.5 506.875V510.9C685.5 511.733 685.708 512.367 686.125 512.8C686.558 513.217 687.15 513.425 687.9 513.425C688.367 513.425 688.775 513.4 689.125 513.35C689.475 513.3 689.9 513.217 690.4 513.1L690.45 514.975C689.433 515.192 688.575 515.3 687.875 515.3C684.875 515.3 683.375 513.783 683.375 510.75V507.05C683.375 504.017 684.883 502.5 687.9 502.5ZM697.516 502.5C699 502.5 700.1 502.9 700.816 503.7C701.55 504.483 701.916 505.6 701.916 507.05V510.75C701.916 512.2 701.55 513.325 700.816 514.125C700.1 514.908 699 515.3 697.516 515.3C696.033 515.3 694.925 514.908 694.191 514.125C693.475 513.325 693.116 512.2 693.116 510.75V507.05C693.116 505.6 693.475 504.483 694.191 503.7C694.925 502.9 696.033 502.5 697.516 502.5ZM697.516 504.275C696.8 504.275 696.241 504.5 695.841 504.95C695.441 505.4 695.241 506.042 695.241 506.875V510.925C695.241 511.758 695.441 512.4 695.841 512.85C696.241 513.3 696.8 513.525 697.516 513.525C698.233 513.525 698.791 513.3 699.191 512.85C699.591 512.4 699.791 511.758 699.791 510.925V506.85C699.791 506.017 699.591 505.383 699.191 504.95C698.791 504.5 698.233 504.275 697.516 504.275ZM716.883 502.5C717.95 502.5 718.767 502.867 719.333 503.6C719.9 504.317 720.183 505.342 720.183 506.675V515H718.058V506.975C718.058 505.308 717.525 504.475 716.458 504.475C715.992 504.475 715.508 504.658 715.008 505.025C714.525 505.392 714.1 505.892 713.733 506.525V515H711.608V506.975C711.608 505.308 711.075 504.475 710.008 504.475C709.542 504.475 709.058 504.658 708.558 505.025C708.075 505.392 707.65 505.892 707.283 506.525V515H705.158V502.8H707.158V504.625C707.592 503.942 708.092 503.417 708.658 503.05C709.225 502.683 709.817 502.5 710.433 502.5C711.2 502.5 711.842 502.7 712.358 503.1C712.875 503.483 713.25 504.05 713.483 504.8C713.933 504.05 714.45 503.483 715.033 503.1C715.617 502.7 716.233 502.5 716.883 502.5Z" fill="white"/>
<path d="M505.575 548.625L501.8 565H498.95L495.6 551.05L492.275 565H489.425L485.625 548.625H487.875L490.925 562.675L494.15 548.625H497.05L500.3 562.675L503.325 548.625H505.575ZM511.307 552.5C512.707 552.5 513.773 552.883 514.507 553.65C515.24 554.417 515.607 555.525 515.607 556.975V559.55H509.182V561.025C509.182 561.875 509.382 562.492 509.782 562.875C510.198 563.242 510.848 563.425 511.732 563.425C512.598 563.425 513.682 563.292 514.982 563.025L515.032 564.875C513.482 565.158 512.373 565.3 511.707 565.3C510.057 565.3 508.865 564.942 508.132 564.225C507.415 563.508 507.057 562.4 507.057 560.9V556.975C507.057 555.525 507.407 554.417 508.107 553.65C508.823 552.883 509.89 552.5 511.307 552.5ZM511.307 554.275C510.657 554.275 510.14 554.483 509.757 554.9C509.373 555.3 509.182 555.883 509.182 556.65V557.85H513.482V556.725C513.482 555.925 513.282 555.317 512.882 554.9C512.498 554.483 511.973 554.275 511.307 554.275ZM520.488 554.425C520.922 553.808 521.422 553.333 521.988 553C522.555 552.667 523.147 552.5 523.763 552.5C524.797 552.5 525.597 552.867 526.163 553.6C526.73 554.317 527.013 555.367 527.013 556.75V560.7C527.013 562.217 526.655 563.367 525.938 564.15C525.222 564.917 524.113 565.3 522.613 565.3C521.147 565.3 520.072 564.925 519.388 564.175C518.705 563.425 518.363 562.283 518.363 560.75V547.925H520.488V554.425ZM523.263 554.4C522.78 554.4 522.288 554.583 521.788 554.95C521.288 555.317 520.855 555.817 520.488 556.45V561C520.488 561.817 520.672 562.442 521.038 562.875C521.422 563.308 521.947 563.525 522.613 563.525C524.13 563.525 524.888 562.667 524.888 560.95V557.05C524.888 555.283 524.347 554.4 523.263 554.4ZM533.756 552.5C534.456 552.5 535.298 552.6 536.281 552.8L536.231 554.6C535.364 554.4 534.573 554.3 533.856 554.3C532.356 554.3 531.606 554.783 531.606 555.75V555.975C531.606 556.275 531.681 556.517 531.831 556.7C531.998 556.883 532.289 557.075 532.706 557.275L535.056 558.375C536.473 559.042 537.181 560.017 537.181 561.3V561.85C537.164 563 536.814 563.867 536.131 564.45C535.464 565.017 534.406 565.3 532.956 565.3C532.206 565.3 531.131 565.125 529.731 564.775L529.831 562.875C531.081 563.242 532.106 563.425 532.906 563.425C533.723 563.425 534.289 563.317 534.606 563.1C534.923 562.867 535.081 562.492 535.081 561.975V561.725C535.081 561.325 534.998 561.008 534.831 560.775C534.681 560.542 534.423 560.342 534.056 560.175L531.631 559.1C530.898 558.767 530.356 558.367 530.006 557.9C529.673 557.433 529.506 556.892 529.506 556.275V555.925C529.539 554.792 529.889 553.942 530.556 553.375C531.239 552.792 532.306 552.5 533.756 552.5ZM542.049 552.8V565H539.924V552.8H542.049ZM540.974 547.875C541.424 547.875 541.765 547.975 541.999 548.175C542.249 548.375 542.374 548.658 542.374 549.025V549.75C542.374 550.117 542.249 550.4 541.999 550.6C541.765 550.783 541.424 550.875 540.974 550.875C540.54 550.875 540.199 550.783 539.949 550.6C539.715 550.4 539.599 550.117 539.599 549.75V549.025C539.599 548.658 539.715 548.375 539.949 548.175C540.199 547.975 540.54 547.875 540.974 547.875ZM548.039 552.8H551.289V554.55H548.039V561.7C548.039 562.333 548.164 562.792 548.414 563.075C548.681 563.342 549.089 563.475 549.639 563.475C550.339 563.475 551.022 563.392 551.689 563.225L551.739 565C551.006 565.2 550.339 565.3 549.739 565.3C548.406 565.3 547.431 565.008 546.814 564.425C546.214 563.825 545.914 562.858 545.914 561.525V554.55H544.164V552.8H545.914L546.314 549.55H548.039V552.8ZM557.986 552.5C559.386 552.5 560.453 552.883 561.186 553.65C561.92 554.417 562.286 555.525 562.286 556.975V559.55H555.861V561.025C555.861 561.875 556.061 562.492 556.461 562.875C556.878 563.242 557.528 563.425 558.411 563.425C559.278 563.425 560.361 563.292 561.661 563.025L561.711 564.875C560.161 565.158 559.053 565.3 558.386 565.3C556.736 565.3 555.545 564.942 554.811 564.225C554.095 563.508 553.736 562.4 553.736 560.9V556.975C553.736 555.525 554.086 554.417 554.786 553.65C555.503 552.883 556.57 552.5 557.986 552.5ZM557.986 554.275C557.336 554.275 556.82 554.483 556.436 554.9C556.053 555.3 555.861 555.883 555.861 556.65V557.85H560.161V556.725C560.161 555.925 559.961 555.317 559.561 554.9C559.178 554.483 558.653 554.275 557.986 554.275ZM566.193 562.25C567.143 562.25 567.618 562.642 567.618 563.425V564.15C567.618 564.517 567.493 564.8 567.243 565C567.01 565.2 566.66 565.3 566.193 565.3C565.743 565.3 565.393 565.2 565.143 565C564.91 564.8 564.793 564.517 564.793 564.15V563.425C564.793 563.042 564.91 562.75 565.143 562.55C565.393 562.35 565.743 562.25 566.193 562.25ZM566.193 553.05C567.143 553.05 567.618 553.442 567.618 554.225V554.95C567.618 555.317 567.493 555.6 567.243 555.8C567.01 556 566.66 556.1 566.193 556.1C565.743 556.1 565.393 556 565.143 555.8C564.91 555.6 564.793 555.317 564.793 554.95V554.225C564.793 553.842 564.91 553.55 565.143 553.35C565.393 553.15 565.743 553.05 566.193 553.05ZM589.878 552.8L587.053 565H584.378L581.903 554.65L579.403 565H576.728L573.928 552.8H576.178L578.153 563.125L580.528 552.8H583.278L585.628 563.125L587.628 552.8H589.878ZM607.065 552.8L604.24 565H601.565L599.09 554.65L596.59 565H593.915L591.115 552.8H593.365L595.34 563.125L597.715 552.8H600.465L602.815 563.125L604.815 552.8H607.065ZM624.253 552.8L621.428 565H618.753L616.278 554.65L613.778 565H611.103L608.303 552.8H610.553L612.528 563.125L614.903 552.8H617.653L620.003 563.125L622.003 552.8H624.253ZM626.276 562.25C627.226 562.25 627.701 562.642 627.701 563.425V564.15C627.701 564.517 627.576 564.8 627.326 565C627.093 565.2 626.743 565.3 626.276 565.3C625.826 565.3 625.476 565.2 625.226 565C624.993 564.8 624.876 564.517 624.876 564.15V563.425C624.876 563.042 624.993 562.75 625.226 562.55C625.476 562.35 625.826 562.25 626.276 562.25ZM644.272 552.8L641.447 565H638.772L636.297 554.65L633.797 565H631.122L628.322 552.8H630.572L632.547 563.125L634.922 552.8H637.672L640.022 563.125L642.022 552.8H644.272ZM650.516 552.5C651.916 552.5 652.982 552.883 653.716 553.65C654.449 554.417 654.816 555.525 654.816 556.975V559.55H648.391V561.025C648.391 561.875 648.591 562.492 648.991 562.875C649.407 563.242 650.057 563.425 650.941 563.425C651.807 563.425 652.891 563.292 654.191 563.025L654.241 564.875C652.691 565.158 651.582 565.3 650.916 565.3C649.266 565.3 648.074 564.942 647.341 564.225C646.624 563.508 646.266 562.4 646.266 560.9V556.975C646.266 555.525 646.616 554.417 647.316 553.65C648.032 552.883 649.099 552.5 650.516 552.5ZM650.516 554.275C649.866 554.275 649.349 554.483 648.966 554.9C648.582 555.3 648.391 555.883 648.391 556.65V557.85H652.691V556.725C652.691 555.925 652.491 555.317 652.091 554.9C651.707 554.483 651.182 554.275 650.516 554.275ZM659.697 554.425C660.131 553.808 660.631 553.333 661.197 553C661.764 552.667 662.356 552.5 662.972 552.5C664.006 552.5 664.806 552.867 665.372 553.6C665.939 554.317 666.222 555.367 666.222 556.75V560.7C666.222 562.217 665.864 563.367 665.147 564.15C664.431 564.917 663.322 565.3 661.822 565.3C660.356 565.3 659.281 564.925 658.597 564.175C657.914 563.425 657.572 562.283 657.572 560.75V547.925H659.697V554.425ZM662.472 554.4C661.989 554.4 661.497 554.583 660.997 554.95C660.497 555.317 660.064 555.817 659.697 556.45V561C659.697 561.817 659.881 562.442 660.247 562.875C660.631 563.308 661.156 563.525 661.822 563.525C663.339 563.525 664.097 562.667 664.097 560.95V557.05C664.097 555.283 663.556 554.4 662.472 554.4ZM672.965 552.5C673.665 552.5 674.507 552.6 675.49 552.8L675.44 554.6C674.573 554.4 673.782 554.3 673.065 554.3C671.565 554.3 670.815 554.783 670.815 555.75V555.975C670.815 556.275 670.89 556.517 671.04 556.7C671.207 556.883 671.498 557.075 671.915 557.275L674.265 558.375C675.682 559.042 676.39 560.017 676.39 561.3V561.85C676.373 563 676.023 563.867 675.34 564.45C674.673 565.017 673.615 565.3 672.165 565.3C671.415 565.3 670.34 565.125 668.94 564.775L669.04 562.875C670.29 563.242 671.315 563.425 672.115 563.425C672.932 563.425 673.498 563.317 673.815 563.1C674.132 562.867 674.29 562.492 674.29 561.975V561.725C674.29 561.325 674.207 561.008 674.04 560.775C673.89 560.542 673.632 560.342 673.265 560.175L670.84 559.1C670.107 558.767 669.565 558.367 669.215 557.9C668.882 557.433 668.715 556.892 668.715 556.275V555.925C668.748 554.792 669.098 553.942 669.765 553.375C670.448 552.792 671.515 552.5 672.965 552.5ZM681.258 552.8V565H679.133V552.8H681.258ZM680.183 547.875C680.633 547.875 680.974 547.975 681.208 548.175C681.458 548.375 681.583 548.658 681.583 549.025V549.75C681.583 550.117 681.458 550.4 681.208 550.6C680.974 550.783 680.633 550.875 680.183 550.875C679.749 550.875 679.408 550.783 679.158 550.6C678.924 550.4 678.808 550.117 678.808 549.75V549.025C678.808 548.658 678.924 548.375 679.158 548.175C679.408 547.975 679.749 547.875 680.183 547.875ZM687.248 552.8H690.498V554.55H687.248V561.7C687.248 562.333 687.373 562.792 687.623 563.075C687.89 563.342 688.298 563.475 688.848 563.475C689.548 563.475 690.231 563.392 690.898 563.225L690.948 565C690.215 565.2 689.548 565.3 688.948 565.3C687.615 565.3 686.64 565.008 686.023 564.425C685.423 563.825 685.123 562.858 685.123 561.525V554.55H683.373V552.8H685.123L685.523 549.55H687.248V552.8ZM697.195 552.5C698.595 552.5 699.662 552.883 700.395 553.65C701.129 554.417 701.495 555.525 701.495 556.975V559.55H695.07V561.025C695.07 561.875 695.27 562.492 695.67 562.875C696.087 563.242 696.737 563.425 697.62 563.425C698.487 563.425 699.57 563.292 700.87 563.025L700.92 564.875C699.37 565.158 698.262 565.3 697.595 565.3C695.945 565.3 694.754 564.942 694.02 564.225C693.304 563.508 692.945 562.4 692.945 560.9V556.975C692.945 555.525 693.295 554.417 693.995 553.65C694.712 552.883 695.779 552.5 697.195 552.5ZM697.195 554.275C696.545 554.275 696.029 554.483 695.645 554.9C695.262 555.3 695.07 555.883 695.07 556.65V557.85H699.37V556.725C699.37 555.925 699.17 555.317 698.77 554.9C698.387 554.483 697.862 554.275 697.195 554.275ZM705.402 562.25C706.352 562.25 706.827 562.642 706.827 563.425V564.15C706.827 564.517 706.702 564.8 706.452 565C706.219 565.2 705.869 565.3 705.402 565.3C704.952 565.3 704.602 565.2 704.352 565C704.119 564.8 704.002 564.517 704.002 564.15V563.425C704.002 563.042 704.119 562.75 704.352 562.55C704.602 562.35 704.952 562.25 705.402 562.25ZM714.096 552.5C714.846 552.5 715.696 552.608 716.646 552.825L716.596 554.7C715.63 554.483 714.796 554.375 714.096 554.375C713.313 554.375 712.713 554.592 712.296 555.025C711.896 555.458 711.696 556.075 711.696 556.875V560.9C711.696 561.733 711.905 562.367 712.321 562.8C712.755 563.217 713.346 563.425 714.096 563.425C714.563 563.425 714.971 563.4 715.321 563.35C715.671 563.3 716.096 563.217 716.596 563.1L716.646 564.975C715.63 565.192 714.771 565.3 714.071 565.3C711.071 565.3 709.571 563.783 709.571 560.75V557.05C709.571 554.017 711.08 552.5 714.096 552.5ZM723.713 552.5C725.196 552.5 726.296 552.9 727.013 553.7C727.746 554.483 728.113 555.6 728.113 557.05V560.75C728.113 562.2 727.746 563.325 727.013 564.125C726.296 564.908 725.196 565.3 723.713 565.3C722.229 565.3 721.121 564.908 720.388 564.125C719.671 563.325 719.313 562.2 719.313 560.75V557.05C719.313 555.6 719.671 554.483 720.388 553.7C721.121 552.9 722.229 552.5 723.713 552.5ZM723.713 554.275C722.996 554.275 722.438 554.5 722.038 554.95C721.638 555.4 721.438 556.042 721.438 556.875V560.925C721.438 561.758 721.638 562.4 722.038 562.85C722.438 563.3 722.996 563.525 723.713 563.525C724.429 563.525 724.988 563.3 725.388 562.85C725.788 562.4 725.988 561.758 725.988 560.925V556.85C725.988 556.017 725.788 555.383 725.388 554.95C724.988 554.5 724.429 554.275 723.713 554.275ZM743.079 552.5C744.146 552.5 744.963 552.867 745.529 553.6C746.096 554.317 746.379 555.342 746.379 556.675V565H744.254V556.975C744.254 555.308 743.721 554.475 742.654 554.475C742.188 554.475 741.704 554.658 741.204 555.025C740.721 555.392 740.296 555.892 739.929 556.525V565H737.804V556.975C737.804 555.308 737.271 554.475 736.204 554.475C735.738 554.475 735.254 554.658 734.754 555.025C734.271 555.392 733.846 555.892 733.479 556.525V565H731.354V552.8H733.354V554.625C733.788 553.942 734.288 553.417 734.854 553.05C735.421 552.683 736.013 552.5 736.629 552.5C737.396 552.5 738.038 552.7 738.554 553.1C739.071 553.483 739.446 554.05 739.679 554.8C740.129 554.05 740.646 553.483 741.229 553.1C741.813 552.7 742.429 552.5 743.079 552.5Z" fill="white"/>
<rect x="431" y="439" width="30" height="30" rx="2" fill="white"/>
<rect x="431" y="491" width="30" height="30" rx="2" fill="white"/>
<rect x="431" y="543" width="30" height="30" rx="2" fill="white"/>
<path d="M456.583 503.283C456.751 503.154 457 503.275 457 503.479V512C457 513.104 456.076 514 454.938 514H437.062C435.924 514 435 513.104 435 512V503.483C435 503.275 435.245 503.158 435.417 503.287C436.379 504.012 437.655 504.933 442.038 508.021C442.945 508.663 444.475 510.013 446 510.004C447.534 510.017 449.094 508.638 449.966 508.021C454.349 504.933 455.621 504.008 456.583 503.283ZM446 508.667C446.997 508.683 448.432 507.45 449.154 506.942C454.856 502.929 455.29 502.579 456.605 501.579C456.854 501.392 457 501.1 457 500.792V500C457 498.896 456.076 498 454.938 498H437.062C435.924 498 435 498.896 435 500V500.792C435 501.1 435.146 501.387 435.395 501.579C436.71 502.575 437.144 502.929 442.846 506.942C443.568 507.45 445.003 508.683 446 508.667Z" fill="#211F22"/>
<path d="M439 446.6C439 445.91 439.274 445.249 439.762 444.762C440.249 444.274 440.91 444 441.6 444H449.4C450.09 444 450.751 444.274 451.238 444.762C451.726 445.249 452 445.91 452 446.6V462.2C452 462.89 451.726 463.551 451.238 464.038C450.751 464.526 450.09 464.8 449.4 464.8H441.6C440.91 464.8 440.249 464.526 439.762 464.038C439.274 463.551 439 462.89 439 462.2V446.6ZM446.8 460.9C446.8 460.555 446.663 460.225 446.419 459.981C446.175 459.737 445.845 459.6 445.5 459.6C445.155 459.6 444.825 459.737 444.581 459.981C444.337 460.225 444.2 460.555 444.2 460.9C444.2 461.245 444.337 461.575 444.581 461.819C444.825 462.063 445.155 462.2 445.5 462.2C445.845 462.2 446.175 462.063 446.419 461.819C446.663 461.575 446.8 461.245 446.8 460.9Z" fill="#211F22"/>
<path d="M436 557.191V557.164C436.238 554.047 437.351 551.709 439.286 550.231C441.194 548.726 443.261 548.001 445.513 548.001C447.872 547.974 450.071 548.78 452.032 550.392C454.02 551.978 455 554.343 455 557.406V557.594C455 560.685 454.02 562.996 452.032 564.581C450.045 566.194 447.845 567 445.487 567H445.381C443.075 566.973 440.955 566.167 438.994 564.555C437.033 562.969 436.026 560.524 436 557.191ZM444.93 552.972V548.726H444.294C444.162 548.887 444.056 549.076 443.95 549.237C443.844 549.398 443.738 549.559 443.632 549.747C443.526 549.909 443.393 550.124 443.314 550.285C443.208 550.446 443.128 550.607 443.049 550.795C442.89 551.064 442.757 551.333 442.651 551.575C442.519 551.817 442.413 552.059 442.333 552.273C442.492 552.381 442.678 552.515 442.89 552.596C443.128 552.677 443.367 552.757 443.605 552.811C443.87 552.865 444.109 552.892 444.321 552.918C444.559 552.945 444.771 552.972 444.93 552.972ZM446.043 548.726V552.945C446.176 552.945 446.335 552.972 446.494 552.945C446.653 552.945 446.838 552.918 446.997 552.892C447.289 552.838 447.633 552.757 447.898 552.677C448.19 552.569 448.455 552.435 448.64 552.273C448.322 551.494 447.978 550.876 447.633 550.285C447.289 549.694 446.891 549.183 446.467 548.753V548.726H446.043ZM443.181 548.968V548.941C442.996 549.022 442.81 549.156 442.598 549.237C442.413 549.317 442.174 549.425 441.989 549.532C441.618 549.721 441.247 549.936 440.876 550.177C440.531 550.419 440.187 550.688 439.895 550.957C440.001 551.064 440.134 551.172 440.24 551.252C440.346 551.333 440.478 551.44 440.611 551.548C440.717 551.602 440.849 551.682 440.982 551.79C441.114 551.87 441.273 551.978 441.432 552.085C441.644 551.602 441.856 551.091 442.121 550.634C442.386 550.151 442.678 549.694 442.969 549.291C442.996 549.237 443.022 549.183 443.075 549.129C443.102 549.102 443.128 549.022 443.181 548.968ZM451.29 550.957V550.93C450.628 550.419 450.045 549.989 449.462 549.721C448.879 549.452 448.296 549.183 447.766 548.968C448.19 549.398 448.561 549.936 448.799 550.446C449.064 550.984 449.329 551.548 449.541 552.085C449.647 552.032 449.78 551.978 449.939 551.87C450.071 551.79 450.257 551.709 450.416 551.629C450.575 551.521 450.707 551.414 450.866 551.306C451.025 551.172 451.184 551.064 451.29 550.957ZM450.84 556.949H453.887C453.887 555.955 453.675 555.015 453.278 554.047C452.907 553.107 452.377 552.327 451.714 551.655V551.629C451.582 551.844 451.396 552.032 451.211 552.166C450.999 552.3 450.813 552.408 450.601 552.515C450.469 552.596 450.336 552.703 450.204 552.757C450.071 552.838 449.886 552.892 449.753 552.972C449.859 553.187 449.965 553.429 450.071 553.644C450.151 553.886 450.283 554.155 450.336 554.396C450.495 554.826 450.601 555.283 450.707 555.74C450.787 556.143 450.84 556.573 450.84 556.949ZM441.247 552.972V552.945C441.035 552.838 440.796 552.757 440.611 552.65C440.425 552.515 440.24 552.381 440.081 552.273C439.922 552.193 439.763 552.085 439.63 551.978C439.498 551.87 439.392 551.763 439.286 551.655C438.597 552.327 438.093 553.08 437.775 553.967C437.431 554.853 437.192 555.848 437.086 556.923H440.346C440.346 556.17 440.452 555.445 440.637 554.719C440.796 553.967 441.035 553.402 441.247 552.972ZM444.93 556.923V553.832C444.718 553.859 444.453 553.859 444.215 553.832C443.95 553.805 443.685 553.725 443.446 553.644C443.234 553.59 442.969 553.537 442.757 553.456C442.519 553.402 442.28 553.295 442.095 553.187C441.936 553.456 441.803 553.778 441.697 554.128C441.565 554.45 441.485 554.8 441.406 555.122C441.353 555.445 441.326 555.794 441.3 556.089C441.273 556.385 441.247 556.681 441.247 556.923H444.93ZM446.043 553.886V556.923H449.965C449.965 556.761 449.965 556.573 449.939 556.358C449.886 556.17 449.859 555.928 449.833 555.713C449.753 555.391 449.674 555.041 449.568 554.719C449.462 554.423 449.356 554.128 449.223 553.886C449.17 553.752 449.117 553.59 449.064 553.483C448.985 553.348 448.905 553.268 448.852 553.187C448.561 553.402 448.163 553.537 447.686 553.644C447.236 553.752 446.706 553.859 446.229 553.886H446.043ZM440.346 557.809H437.086C437.086 558.266 437.166 558.777 437.298 559.395C437.431 560.04 437.696 560.631 437.987 561.276C438.12 561.598 438.279 561.921 438.438 562.243C438.623 562.539 438.835 562.862 439.047 563.157C439.206 563.05 439.365 562.969 439.498 562.888C439.657 562.808 439.842 562.7 440.001 562.62C440.187 562.539 440.372 562.458 440.584 562.351C440.77 562.27 441.008 562.163 441.247 562.055C441.035 561.384 440.796 560.739 440.637 560.013C440.452 559.314 440.346 558.616 440.346 557.836V557.809ZM444.93 560.954V557.809H441.247C441.247 558.024 441.273 558.347 441.326 558.669C441.353 558.992 441.432 559.341 441.485 559.69C441.591 560.067 441.671 560.443 441.777 560.765C441.883 561.088 441.989 561.357 442.095 561.598C442.572 561.41 443.049 561.276 443.367 561.195C443.711 561.088 444.029 561.007 444.347 560.98H444.639C444.745 560.954 444.851 560.954 444.93 560.954ZM446.043 557.809V560.927C446.229 560.954 446.441 560.98 446.653 561.007C446.891 561.034 447.183 561.088 447.421 561.142L447.819 561.222C447.951 561.276 448.11 561.303 448.243 561.33C448.402 561.384 448.561 561.41 448.72 561.464C448.852 561.518 448.985 561.545 449.091 561.598C449.435 560.712 449.647 559.986 449.78 559.368C449.912 558.777 449.965 558.266 449.965 557.836V557.809H446.043ZM453.887 557.836V557.809H450.84V557.971C450.813 558.481 450.734 559.072 450.628 559.69C450.522 560.282 450.283 560.98 449.965 561.84C450.389 562.055 450.787 562.27 451.105 562.485C451.423 562.7 451.714 562.942 451.926 563.157C452.377 562.7 452.774 562.082 453.119 561.276C453.463 560.497 453.702 559.69 453.834 558.831C453.861 558.669 453.861 558.508 453.887 558.347V557.836ZM444.93 566.006V561.813C444.268 561.921 443.711 562.055 443.287 562.163C442.863 562.27 442.545 562.378 442.333 562.485C442.492 562.888 442.651 563.238 442.81 563.56C442.969 563.856 443.155 564.178 443.314 564.447C443.367 564.555 443.473 564.662 443.552 564.796C443.632 564.904 443.685 565.038 443.764 565.146C443.844 565.28 443.923 565.441 444.003 565.603C444.109 565.737 444.188 565.898 444.294 566.006H444.93ZM446.043 566.006H446.653C446.891 565.818 447.13 565.549 447.315 565.253C447.527 564.958 447.766 564.608 447.925 564.313C448.11 563.963 448.296 563.641 448.455 563.318C448.614 562.996 448.746 562.7 448.852 562.485C448.561 562.378 448.163 562.27 447.766 562.163C447.368 562.055 446.812 561.948 446.043 561.84V566.006ZM451.29 563.802V563.775C451.237 563.695 451.131 563.587 451.052 563.506C450.972 563.426 450.84 563.318 450.707 563.238C450.601 563.157 450.469 563.077 450.31 562.996C450.151 562.915 449.939 562.808 449.753 562.7C449.647 562.915 449.462 563.291 449.197 563.802C448.958 564.313 448.534 564.931 448.004 565.603C448.667 565.495 449.25 565.253 449.78 564.931C450.363 564.635 450.866 564.232 451.29 563.802ZM441.432 562.942V562.915C441.247 563.023 440.955 563.157 440.664 563.291C440.346 563.426 440.001 563.587 439.683 563.802C439.869 563.963 440.054 564.125 440.213 564.232C440.372 564.366 440.558 564.474 440.717 564.581C441.008 564.77 441.353 564.958 441.697 565.119C442.042 565.28 442.466 565.441 442.996 565.603C442.81 565.388 442.678 565.119 442.545 564.904C442.413 564.689 442.254 564.474 442.121 564.259C441.989 564.044 441.883 563.802 441.777 563.587C441.644 563.372 441.538 563.157 441.432 562.942Z" fill="#211F22"/>
</g>
<defs>
<filter id="filter0_d" x="-4" y="0" width="709" height="634" filterUnits="userSpaceOnUse" color-interpolation-filters="sRGB">
<feFlood flood-opacity="0" result="BackgroundImageFix"/>
<feColorMatrix in="SourceAlpha" type="matrix" values="0 0 0 0 0 0 0 0 0 0 0 0 0 0 0 0 0 0 127 0"/>
<feOffset dy="30"/>
<feGaussianBlur stdDeviation="2"/>
<feColorMatrix type="matrix" values="0 0 0 0 0 0 0 0 0 0 0 0 0 0 0 0 0 0 0.25 0"/>
<feBlend mode="normal" in2="BackgroundImageFix" result="effect1_dropShadow"/>
<feBlend mode="normal" in="SourceGraphic" in2="effect1_dropShadow" result="shape"/>
</filter>
<clipPath id="clip0">
<rect width="1050" height="600" fill="white"/>
</clipPath>
</defs>
</svg>
