<svg width="1050" height="600" viewBox="0 0 1050 600" fill="none" xmlns="http://www.w3.org/2000/svg">
<g clip-path="url(#clip0)">
<rect width="1050" height="600" fill="#2A2829"/>
<path d="M617.172 187.933V255.387C617.169 260.459 615.833 265.441 613.297 269.834C610.762 274.227 607.117 277.876 602.726 280.416L598.254 282.991L598.231 283.015H598.207C598.184 283.015 598.16 283.038 598.114 283.061L532.533 320.921C528.135 323.452 523.149 324.784 518.075 324.784C513 324.784 508.015 323.452 503.617 320.921L433.47 280.416C428.569 277.589 424.611 273.378 422.092 268.311C422.066 268.261 422.034 268.214 421.998 268.17C421.988 268.144 421.972 268.12 421.951 268.1V268.077C421.938 268.065 421.929 268.048 421.928 268.03C420.003 264.093 419.002 259.769 419.001 255.387V188.916C418.99 187.662 419.084 186.408 419.282 185.17C431.459 209.163 451.898 227.947 476.832 238.061V238.67L506.614 255.878C510.107 257.892 514.067 258.951 518.098 258.951C522.13 258.951 526.09 257.892 529.583 255.878L559.364 238.67V238.506C584.175 228.741 604.673 210.42 617.149 186.856C617.172 187.23 617.172 187.57 617.172 187.933Z" fill="#BB0A1E"/>
<path d="M476.832 187.933V238.061C451.898 227.948 431.459 209.163 419.281 185.17C419.42 183.98 419.631 182.799 419.914 181.635C420.626 178.692 421.778 175.874 423.332 173.276C425.665 169.244 428.946 165.841 432.891 163.365C436.837 160.888 441.327 159.412 445.973 159.064C449.926 158.801 453.891 159.352 457.622 160.683C461.353 162.015 464.771 164.098 467.664 166.805C470.557 169.511 472.864 172.783 474.441 176.417C476.018 180.052 476.831 183.971 476.832 187.933Z" fill="white"/>
<path d="M617.148 186.868C604.672 210.432 584.175 228.754 559.364 238.518V188.928C559.274 181.466 562.005 174.246 567.011 168.711C572.016 163.176 578.926 159.735 586.359 159.076C591.626 158.718 596.889 159.812 601.578 162.237C601.584 162.237 601.59 162.239 601.595 162.244C601.599 162.248 601.601 162.254 601.601 162.26C601.623 162.273 601.647 162.281 601.672 162.284C605.475 164.285 608.786 167.107 611.365 170.545C613.944 173.983 615.728 177.951 616.586 182.162C616.906 183.712 617.094 185.286 617.148 186.868Z" fill="white"/>
<g style="mix-blend-mode:multiply" opacity="0.08">
<g style="mix-blend-mode:multiply" opacity="0.08">
<path d="M476.832 215.103V238.072C451.898 227.958 431.459 209.174 419.281 185.181C419.42 183.991 419.631 182.81 419.914 181.646C432.065 190.589 453.758 205.317 476.832 215.103Z" fill="#BB0A1E"/>
</g>
</g>
<g style="mix-blend-mode:multiply" opacity="0.08">
<g style="mix-blend-mode:multiply" opacity="0.08">
<path d="M617.148 186.868C604.673 210.433 584.175 228.754 559.364 238.518V215.199C579.572 206.278 598.757 195.201 616.587 182.162C616.906 183.712 617.094 185.286 617.148 186.868Z" fill="#BB0A1E"/>
</g>
</g>
<g style="mix-blend-mode:screen" opacity="0.4">
<g style="mix-blend-mode:screen" opacity="0.4">
<path d="M610.148 255.306V255.399C610.138 259.236 609.123 263.004 607.205 266.327C605.287 269.65 602.531 272.413 599.214 274.341L529.02 314.846C525.691 316.763 521.917 317.773 518.075 317.773C514.233 317.773 510.458 316.763 507.129 314.846L452.576 283.355L452.388 283.238L436.982 274.341C433.917 272.565 431.327 270.075 429.431 267.083C427.535 264.091 426.391 260.685 426.095 257.155C452.179 275.747 483.344 285.879 515.374 286.181C547.405 286.483 578.755 276.939 605.184 258.841L605.418 258.677L605.535 258.607C607.116 257.53 608.626 256.43 610.148 255.306Z" fill="#BB0A1E"/>
</g>
</g>
<g style="mix-blend-mode:screen" opacity="0.6">
<g style="mix-blend-mode:screen" opacity="0.6">
<path d="M421.951 268.088C421.975 268.111 421.975 268.135 421.998 268.182C421.988 268.155 421.972 268.131 421.951 268.111V268.088Z" fill="#BB0A1E"/>
</g>
</g>
<g style="mix-blend-mode:multiply" opacity="0.25">
<g style="mix-blend-mode:multiply" opacity="0.25">
<path d="M598.113 283.071L532.532 320.93C528.134 323.461 523.149 324.793 518.075 324.793C513 324.793 508.015 323.461 503.617 320.93L433.47 280.425C428.569 277.598 424.61 273.387 422.091 268.32C422.279 268.648 422.63 269.21 423.145 269.983C424.375 271.736 425.779 273.36 427.336 274.829C429.743 277.072 432.494 278.914 435.484 280.285C438.949 282.064 442.859 284.078 447.073 286.349C455.573 290.797 465.406 296.112 475.872 301.919C481.093 304.845 486.525 307.795 491.98 310.933C494.72 312.501 497.459 314.07 500.222 315.639L504.366 318.004C505.626 318.749 506.941 319.399 508.3 319.947C513.63 322.16 519.546 322.531 525.11 321C527.887 320.203 530.542 319.03 533.001 317.512C535.693 316.013 538.339 314.538 540.961 313.087C551.451 307.28 561.284 301.965 569.76 297.517C585.658 289.076 596.779 283.691 598.113 283.071Z" fill="#BB0A1E"/>
</g>
</g>
<g style="mix-blend-mode:multiply" opacity="0.25">
<g style="mix-blend-mode:multiply" opacity="0.25">
<path d="M617.148 186.866L614.971 191.315L612.583 195.693L609.984 199.931L607.174 204.052L604.154 208.032L600.97 211.895L597.575 215.595L594.016 219.13L590.293 222.502L586.406 225.709L582.379 228.73L578.212 231.563L573.904 234.208L569.479 236.667L564.936 238.891L561.635 240.319L560.652 240.905C554.002 244.861 547.376 248.865 540.68 252.752L530.589 258.605C526.766 260.738 522.464 261.866 518.086 261.883C515.905 261.872 513.734 261.589 511.624 261.04C510.575 260.757 509.543 260.413 508.533 260.01C507.538 259.61 506.569 259.148 505.63 258.629L495.515 252.752C488.819 248.865 482.193 244.861 475.544 240.928L474.233 240.155V239.734L471.189 238.376L466.647 236.081L462.222 233.553L457.914 230.837L453.746 227.91L449.695 224.82L445.832 221.542L442.133 218.077L438.598 214.471L435.226 210.678L432.065 206.744L429.068 202.694L426.305 198.479L423.73 194.171L421.389 189.723L419.281 185.181L421.88 189.465L424.643 193.586L427.57 197.613L430.637 201.5L433.868 205.246L437.24 208.852L440.775 212.293L444.404 215.595L448.197 218.732L452.13 221.682L456.134 224.492L460.278 227.091L464.516 229.526L468.871 231.773L473.296 233.834L476.832 235.285V238.68L506.613 255.889C510.106 257.902 514.066 258.962 518.098 258.962C522.129 258.962 526.089 257.902 529.582 255.889L559.364 238.68V235.754L562.923 234.325L567.324 232.335L571.656 230.181L575.894 227.816L580.015 225.264L584.042 222.548L587.975 219.669L591.768 216.625L595.421 213.394L598.956 210.022L602.374 206.51L605.629 202.834L608.743 199.041L611.693 195.108L614.503 191.034L617.148 186.866Z" fill="#BB0A1E"/>
</g>
</g>
<g style="mix-blend-mode:screen" opacity="0.4">
<g style="mix-blend-mode:screen" opacity="0.4">
<path d="M605.184 258.839L600.689 262.094L595.678 265.371C592.26 267.479 588.787 269.461 585.259 271.318C581.701 273.168 578.064 274.854 574.349 276.376C570.634 277.898 566.872 279.287 563.064 280.543C555.431 283.07 547.598 284.95 539.65 286.163C535.67 286.795 531.666 287.24 527.639 287.544C523.542 287.872 519.655 287.989 515.581 287.965C511.554 287.965 507.527 287.778 503.5 287.474L497.483 286.865L491.512 286.022L485.565 284.922L479.665 283.61L473.835 282.065L468.052 280.262L462.362 278.249L456.767 276.001L451.241 273.543L445.832 270.874L440.564 267.947L435.39 264.833L430.356 261.532L427.523 259.518C428.557 264.905 431.583 269.703 435.999 272.957C437.333 273.894 438.715 274.69 440.12 275.58L444.287 278.132L452.388 283.236L436.982 274.339C433.917 272.563 431.327 270.074 429.431 267.081C427.535 264.089 426.391 260.683 426.095 257.153C452.179 275.745 483.344 285.878 515.374 286.179C547.405 286.481 578.755 276.937 605.184 258.839Z" fill="#BB0A1E"/>
</g>
</g>
<g style="mix-blend-mode:screen" opacity="0.5">
<g style="mix-blend-mode:screen" opacity="0.5">
<path d="M476.833 187.933V210.339C476.833 210.339 476.037 204.229 475.499 195.074C475.335 192.803 475.194 190.298 475.077 187.699C474.899 185.134 474.403 182.602 473.602 180.16C471.824 174.9 468.533 170.282 464.143 166.884C461.925 165.182 459.472 163.81 456.861 162.81C454.33 161.907 451.695 161.325 449.018 161.078C448.292 161.078 447.59 161.054 446.887 161.054L445.951 161.031L444.991 161.101C443.739 161.167 442.494 161.331 441.268 161.593C438.983 162.079 436.766 162.842 434.666 163.864C431.454 165.454 428.539 167.584 426.049 170.162C425.136 171.122 424.434 171.895 423.989 172.457C423.661 172.878 423.427 173.159 423.333 173.276C425.666 169.244 428.947 165.841 432.893 163.365C436.838 160.888 441.329 159.412 445.974 159.064C449.927 158.801 453.892 159.352 457.623 160.683C461.355 162.015 464.773 164.098 467.666 166.805C470.559 169.511 472.865 172.783 474.442 176.417C476.019 180.052 476.833 183.971 476.833 187.933Z" fill="#BB0A1E"/>
</g>
</g>
<g style="mix-blend-mode:screen" opacity="0.5">
<g style="mix-blend-mode:screen" opacity="0.5">
<path d="M601.578 162.237C601.297 162.143 600.267 161.816 598.628 161.417C596.014 160.783 593.334 160.461 590.644 160.458C588.885 160.466 587.13 160.631 585.399 160.949C584.465 161.095 583.542 161.307 582.637 161.581C582.192 161.722 581.723 161.839 581.255 161.979C580.787 162.12 580.319 162.331 579.85 162.494C577.965 163.262 576.154 164.203 574.442 165.304C572.701 166.477 571.092 167.835 569.642 169.355C568.16 170.843 566.848 172.492 565.732 174.271C564.636 176.012 563.71 177.855 562.969 179.774C562.601 180.683 562.289 181.613 562.033 182.56C561.753 183.449 561.534 184.357 561.377 185.276C561.186 186.188 561.045 187.11 560.956 188.039L560.885 188.718C560.862 188.811 560.839 188.999 560.839 188.999L560.815 189.326C560.768 189.771 560.745 190.216 560.698 190.637C560.136 197.521 559.364 202.087 559.364 202.087V188.928C559.274 181.466 562.005 174.246 567.011 168.711C572.016 163.176 578.926 159.735 586.359 159.076C591.626 158.718 596.889 159.812 601.578 162.237Z" fill="#BB0A1E"/>
</g>
</g>
<path d="M398.219 363.977C397.867 366.984 396.754 369.309 394.879 370.949C393.017 372.577 390.536 373.391 387.438 373.391C384.078 373.391 381.383 372.186 379.352 369.777C377.333 367.368 376.324 364.146 376.324 360.109V357.375C376.324 354.732 376.793 352.408 377.73 350.402C378.681 348.397 380.022 346.861 381.754 345.793C383.486 344.712 385.491 344.172 387.77 344.172C390.79 344.172 393.212 345.018 395.035 346.711C396.858 348.391 397.919 350.721 398.219 353.703H394.449C394.124 351.438 393.414 349.797 392.32 348.781C391.24 347.766 389.723 347.258 387.77 347.258C385.374 347.258 383.492 348.143 382.125 349.914C380.771 351.685 380.094 354.204 380.094 357.473V360.227C380.094 363.312 380.738 365.767 382.027 367.59C383.316 369.413 385.12 370.324 387.438 370.324C389.521 370.324 391.116 369.855 392.223 368.918C393.342 367.967 394.085 366.32 394.449 363.977H398.219ZM425.23 359.699C425.23 362.486 424.762 364.921 423.824 367.004C422.887 369.074 421.559 370.656 419.84 371.75C418.121 372.844 416.116 373.391 413.824 373.391C411.585 373.391 409.599 372.844 407.867 371.75C406.135 370.643 404.788 369.074 403.824 367.043C402.874 364.999 402.385 362.635 402.359 359.953V357.902C402.359 355.168 402.835 352.753 403.785 350.656C404.736 348.56 406.077 346.958 407.809 345.852C409.553 344.732 411.546 344.172 413.785 344.172C416.064 344.172 418.069 344.725 419.801 345.832C421.546 346.926 422.887 348.521 423.824 350.617C424.762 352.701 425.23 355.129 425.23 357.902V359.699ZM421.5 357.863C421.5 354.491 420.823 351.906 419.469 350.109C418.115 348.299 416.22 347.395 413.785 347.395C411.415 347.395 409.547 348.299 408.18 350.109C406.826 351.906 406.129 354.406 406.09 357.609V359.699C406.09 362.967 406.773 365.539 408.141 367.414C409.521 369.276 411.415 370.207 413.824 370.207C416.246 370.207 418.121 369.328 419.449 367.57C420.777 365.799 421.461 363.267 421.5 359.973V357.863ZM435.699 344.562L444.996 367.766L454.293 344.562H459.156V373H455.406V361.926L455.758 349.973L446.422 373H443.551L434.234 350.031L434.605 361.926V373H430.855V344.562H435.699ZM469.527 361.867V373H465.777V344.562H476.266C479.378 344.562 481.812 345.357 483.57 346.945C485.341 348.534 486.227 350.637 486.227 353.254C486.227 356.014 485.361 358.143 483.629 359.641C481.91 361.125 479.443 361.867 476.227 361.867H469.527ZM469.527 358.801H476.266C478.271 358.801 479.807 358.332 480.875 357.395C481.943 356.444 482.477 355.077 482.477 353.293C482.477 351.6 481.943 350.246 480.875 349.23C479.807 348.215 478.342 347.688 476.48 347.648H469.527V358.801ZM504.02 365.578H492.105L489.43 373H485.562L496.422 344.562H499.703L510.582 373H506.734L504.02 365.578ZM493.238 362.492H502.906L498.062 349.191L493.238 362.492ZM536.266 373H532.496L518.18 351.086V373H514.41V344.562H518.18L532.535 366.574V344.562H536.266V373ZM551.051 358.84L558.473 344.562H562.73L552.926 362.395V373H549.176V362.395L539.371 344.562H543.668L551.051 358.84ZM580.094 369.934H593.57V373H576.324V344.562H580.094V369.934ZM618.434 359.699C618.434 362.486 617.965 364.921 617.027 367.004C616.09 369.074 614.762 370.656 613.043 371.75C611.324 372.844 609.319 373.391 607.027 373.391C604.788 373.391 602.802 372.844 601.07 371.75C599.339 370.643 597.991 369.074 597.027 367.043C596.077 364.999 595.589 362.635 595.562 359.953V357.902C595.562 355.168 596.038 352.753 596.988 350.656C597.939 348.56 599.28 346.958 601.012 345.852C602.757 344.732 604.749 344.172 606.988 344.172C609.267 344.172 611.272 344.725 613.004 345.832C614.749 346.926 616.09 348.521 617.027 350.617C617.965 352.701 618.434 355.129 618.434 357.902V359.699ZM614.703 357.863C614.703 354.491 614.026 351.906 612.672 350.109C611.318 348.299 609.423 347.395 606.988 347.395C604.618 347.395 602.75 348.299 601.383 350.109C600.029 351.906 599.332 354.406 599.293 357.609V359.699C599.293 362.967 599.977 365.539 601.344 367.414C602.724 369.276 604.618 370.207 607.027 370.207C609.449 370.207 611.324 369.328 612.652 367.57C613.98 365.799 614.664 363.267 614.703 359.973V357.863ZM645.055 369.27C644.091 370.65 642.743 371.685 641.012 372.375C639.293 373.052 637.288 373.391 634.996 373.391C632.678 373.391 630.621 372.85 628.824 371.77C627.027 370.676 625.634 369.126 624.645 367.121C623.668 365.116 623.167 362.792 623.141 360.148V357.668C623.141 353.384 624.137 350.064 626.129 347.707C628.134 345.35 630.947 344.172 634.566 344.172C637.535 344.172 639.924 344.934 641.734 346.457C643.544 347.967 644.651 350.116 645.055 352.902H641.305C640.602 349.139 638.362 347.258 634.586 347.258C632.073 347.258 630.165 348.143 628.863 349.914C627.574 351.672 626.923 354.224 626.91 357.57V359.895C626.91 363.085 627.639 365.624 629.098 367.512C630.556 369.387 632.529 370.324 635.016 370.324C636.422 370.324 637.652 370.168 638.707 369.855C639.762 369.543 640.634 369.016 641.324 368.273V361.887H634.742V358.84H645.055V369.27ZM673.199 359.699C673.199 362.486 672.73 364.921 671.793 367.004C670.855 369.074 669.527 370.656 667.809 371.75C666.09 372.844 664.085 373.391 661.793 373.391C659.553 373.391 657.568 372.844 655.836 371.75C654.104 370.643 652.757 369.074 651.793 367.043C650.842 364.999 650.354 362.635 650.328 359.953V357.902C650.328 355.168 650.803 352.753 651.754 350.656C652.704 348.56 654.046 346.958 655.777 345.852C657.522 344.732 659.514 344.172 661.754 344.172C664.033 344.172 666.038 344.725 667.77 345.832C669.514 346.926 670.855 348.521 671.793 350.617C672.73 352.701 673.199 355.129 673.199 357.902V359.699ZM669.469 357.863C669.469 354.491 668.792 351.906 667.438 350.109C666.083 348.299 664.189 347.395 661.754 347.395C659.384 347.395 657.516 348.299 656.148 350.109C654.794 351.906 654.098 354.406 654.059 357.609V359.699C654.059 362.967 654.742 365.539 656.109 367.414C657.49 369.276 659.384 370.207 661.793 370.207C664.215 370.207 666.09 369.328 667.418 367.57C668.746 365.799 669.43 363.267 669.469 359.973V357.863Z" fill="white"/>
<path d="M419.899 393.675C419.777 394.798 419.374 395.657 418.69 396.253C418.012 396.849 417.106 397.146 415.973 397.146C415.182 397.146 414.481 396.949 413.871 396.553C413.266 396.158 412.797 395.599 412.465 394.876C412.133 394.148 411.964 393.318 411.959 392.386V391.001C411.959 390.054 412.125 389.214 412.458 388.482C412.79 387.75 413.266 387.186 413.886 386.79C414.511 386.39 415.229 386.189 416.039 386.189C417.182 386.189 418.083 386.5 418.742 387.12C419.406 387.735 419.792 388.587 419.899 389.676H418.991C418.766 387.864 417.782 386.958 416.039 386.958C415.072 386.958 414.301 387.32 413.725 388.042C413.153 388.765 412.868 389.764 412.868 391.038V392.342C412.868 393.572 413.146 394.554 413.703 395.286C414.264 396.019 415.021 396.385 415.973 396.385C416.916 396.385 417.626 396.16 418.104 395.711C418.583 395.257 418.878 394.578 418.991 393.675H419.899ZM429.97 392.247C429.97 393.228 429.799 394.09 429.457 394.832C429.12 395.574 428.637 396.146 428.007 396.546C427.377 396.946 426.649 397.146 425.824 397.146C424.579 397.146 423.573 396.702 422.807 395.813C422.04 394.92 421.657 393.716 421.657 392.203V391.104C421.657 390.132 421.828 389.273 422.169 388.526C422.516 387.774 423.004 387.198 423.634 386.797C424.264 386.392 424.989 386.189 425.81 386.189C426.63 386.189 427.353 386.387 427.978 386.783C428.607 387.178 429.093 387.737 429.435 388.46C429.777 389.183 429.955 390.02 429.97 390.972V392.247ZM429.069 391.089C429.069 389.805 428.778 388.799 428.197 388.072C427.616 387.344 426.82 386.98 425.81 386.98C424.818 386.98 424.027 387.347 423.437 388.079C422.851 388.807 422.558 389.825 422.558 391.133V392.247C422.558 393.511 422.851 394.515 423.437 395.257C424.022 395.994 424.818 396.363 425.824 396.363C426.845 396.363 427.641 395.999 428.212 395.271C428.783 394.539 429.069 393.521 429.069 392.217V391.089ZM433.434 386.336L437.367 395.748L441.315 386.336H442.516V397H441.615V392.356L441.688 387.596L437.719 397H437.023L433.068 387.632L433.141 392.327V397H432.24V386.336H433.434ZM446.12 392.657V397H445.219V386.336H448.852C449.96 386.336 450.834 386.619 451.474 387.186C452.118 387.752 452.44 388.531 452.44 389.522C452.44 390.523 452.13 391.297 451.51 391.844C450.895 392.386 450.001 392.657 448.83 392.657H446.12ZM446.12 391.895H448.852C449.726 391.895 450.392 391.688 450.851 391.272C451.31 390.857 451.54 390.279 451.54 389.537C451.54 388.799 451.31 388.213 450.851 387.779C450.397 387.339 449.75 387.115 448.91 387.105H446.12V391.895ZM459.208 394.012H454.367L453.268 397H452.323L456.359 386.336H457.216L461.251 397H460.314L459.208 394.012ZM454.645 393.243H458.922L456.784 387.435L454.645 393.243ZM470.766 397H469.865L463.734 387.874V397H462.826V386.336H463.734L469.872 395.469V386.336H470.766V397ZM476.398 392.151L479.657 386.336H480.697L476.845 392.986V397H475.944V392.986L472.099 386.336H473.168L476.398 392.151ZM491.933 394.378C491.933 393.787 491.725 393.321 491.31 392.979C490.895 392.632 490.136 392.305 489.032 391.998C487.929 391.685 487.123 391.346 486.615 390.979C485.893 390.462 485.531 389.783 485.531 388.943C485.531 388.128 485.866 387.466 486.535 386.958C487.208 386.446 488.068 386.189 489.113 386.189C489.821 386.189 490.453 386.326 491.01 386.6C491.571 386.873 492.006 387.254 492.313 387.742C492.621 388.23 492.775 388.775 492.775 389.375H491.867C491.867 388.648 491.618 388.064 491.12 387.625C490.622 387.181 489.953 386.958 489.113 386.958C488.297 386.958 487.648 387.142 487.165 387.508C486.681 387.869 486.439 388.343 486.439 388.929C486.439 389.471 486.657 389.913 487.091 390.254C487.526 390.596 488.222 390.899 489.179 391.163C490.136 391.421 490.861 391.692 491.354 391.976C491.847 392.254 492.218 392.588 492.467 392.979C492.716 393.37 492.841 393.831 492.841 394.363C492.841 395.203 492.504 395.877 491.83 396.385C491.161 396.893 490.277 397.146 489.179 397.146C488.427 397.146 487.736 397.012 487.106 396.744C486.481 396.475 486.005 396.099 485.678 395.616C485.355 395.132 485.194 394.578 485.194 393.953H486.095C486.095 394.705 486.376 395.298 486.938 395.733C487.499 396.167 488.246 396.385 489.179 396.385C490.009 396.385 490.675 396.202 491.178 395.835C491.681 395.469 491.933 394.983 491.933 394.378ZM495.697 396.238H500.963V397H494.789V386.336H495.697V396.238ZM510.097 392.247C510.097 393.228 509.926 394.09 509.584 394.832C509.247 395.574 508.764 396.146 508.134 396.546C507.504 396.946 506.776 397.146 505.951 397.146C504.706 397.146 503.7 396.702 502.934 395.813C502.167 394.92 501.784 393.716 501.784 392.203V391.104C501.784 390.132 501.955 389.273 502.296 388.526C502.643 387.774 503.131 387.198 503.761 386.797C504.391 386.392 505.116 386.189 505.937 386.189C506.757 386.189 507.479 386.387 508.104 386.783C508.734 387.178 509.22 387.737 509.562 388.46C509.904 389.183 510.082 390.02 510.097 390.972V392.247ZM509.196 391.089C509.196 389.805 508.905 388.799 508.324 388.072C507.743 387.344 506.947 386.98 505.937 386.98C504.945 386.98 504.154 387.347 503.563 388.079C502.978 388.807 502.685 389.825 502.685 391.133V392.247C502.685 393.511 502.978 394.515 503.563 395.257C504.149 395.994 504.945 396.363 505.951 396.363C506.972 396.363 507.768 395.999 508.339 395.271C508.91 394.539 509.196 393.521 509.196 392.217V391.089ZM520.065 395.733C519.752 396.177 519.262 396.524 518.593 396.773C517.929 397.022 517.184 397.146 516.359 397.146C515.524 397.146 514.782 396.946 514.132 396.546C513.483 396.146 512.98 395.579 512.624 394.847C512.267 394.114 512.086 393.274 512.082 392.327V390.979C512.082 389.5 512.455 388.333 513.202 387.479C513.949 386.619 514.953 386.189 516.212 386.189C517.311 386.189 518.195 386.47 518.864 387.032C519.533 387.588 519.931 388.357 520.058 389.339H519.157C519.025 388.558 518.705 387.967 518.197 387.566C517.694 387.161 517.035 386.958 516.22 386.958C515.224 386.958 514.435 387.312 513.854 388.021C513.273 388.729 512.982 389.727 512.982 391.016V392.276C512.982 393.086 513.119 393.804 513.393 394.429C513.671 395.049 514.066 395.53 514.579 395.872C515.097 396.214 515.69 396.385 516.359 396.385C517.135 396.385 517.802 396.263 518.358 396.019C518.72 395.857 518.988 395.669 519.164 395.455V392.701H516.3V391.939H520.065V395.733ZM528.378 394.012H523.537L522.438 397H521.493L525.529 386.336H526.386L530.421 397H529.484L528.378 394.012ZM523.815 393.243H528.092L525.954 387.435L523.815 393.243ZM539.936 397H539.035L532.904 387.874V397H531.996V386.336H532.904L539.042 395.469V386.336H539.936V397ZM553.991 395.733C553.678 396.177 553.188 396.524 552.519 396.773C551.854 397.022 551.11 397.146 550.285 397.146C549.45 397.146 548.708 396.946 548.058 396.546C547.409 396.146 546.906 395.579 546.549 394.847C546.193 394.114 546.012 393.274 546.007 392.327V390.979C546.007 389.5 546.381 388.333 547.128 387.479C547.875 386.619 548.878 386.189 550.138 386.189C551.237 386.189 552.121 386.47 552.79 387.032C553.458 387.588 553.856 388.357 553.983 389.339H553.083C552.951 388.558 552.631 387.967 552.123 387.566C551.62 387.161 550.961 386.958 550.146 386.958C549.149 386.958 548.361 387.312 547.78 388.021C547.199 388.729 546.908 389.727 546.908 391.016V392.276C546.908 393.086 547.045 393.804 547.318 394.429C547.597 395.049 547.992 395.53 548.505 395.872C549.022 396.214 549.616 396.385 550.285 396.385C551.061 396.385 551.728 396.263 552.284 396.019C552.646 395.857 552.914 395.669 553.09 395.455V392.701H550.226V391.939H553.991V395.733ZM564.428 392.247C564.428 393.228 564.257 394.09 563.915 394.832C563.578 395.574 563.095 396.146 562.465 396.546C561.835 396.946 561.107 397.146 560.282 397.146C559.037 397.146 558.031 396.702 557.265 395.813C556.498 394.92 556.115 393.716 556.115 392.203V391.104C556.115 390.132 556.286 389.273 556.627 388.526C556.974 387.774 557.462 387.198 558.092 386.797C558.722 386.392 559.447 386.189 560.268 386.189C561.088 386.189 561.811 386.387 562.436 386.783C563.065 387.178 563.551 387.737 563.893 388.46C564.235 389.183 564.413 390.02 564.428 390.972V392.247ZM563.527 391.089C563.527 389.805 563.236 388.799 562.655 388.072C562.074 387.344 561.278 386.98 560.268 386.98C559.276 386.98 558.485 387.347 557.895 388.079C557.309 388.807 557.016 389.825 557.016 391.133V392.247C557.016 393.511 557.309 394.515 557.895 395.257C558.48 395.994 559.276 396.363 560.282 396.363C561.303 396.363 562.099 395.999 562.67 395.271C563.241 394.539 563.527 393.521 563.527 392.217V391.089ZM572.587 391.888H567.599V396.238H573.334V397H566.698V386.336H573.297V387.105H567.599V391.126H572.587V391.888ZM581.273 394.378C581.273 393.787 581.066 393.321 580.651 392.979C580.236 392.632 579.477 392.305 578.373 391.998C577.27 391.685 576.464 391.346 575.956 390.979C575.233 390.462 574.872 389.783 574.872 388.943C574.872 388.128 575.207 387.466 575.875 386.958C576.549 386.446 577.409 386.189 578.454 386.189C579.162 386.189 579.794 386.326 580.351 386.6C580.912 386.873 581.347 387.254 581.654 387.742C581.962 388.23 582.116 388.775 582.116 389.375H581.208C581.208 388.648 580.958 388.064 580.46 387.625C579.962 387.181 579.293 386.958 578.454 386.958C577.638 386.958 576.989 387.142 576.505 387.508C576.022 387.869 575.78 388.343 575.78 388.929C575.78 389.471 575.998 389.913 576.432 390.254C576.867 390.596 577.562 390.899 578.52 391.163C579.477 391.421 580.202 391.692 580.695 391.976C581.188 392.254 581.559 392.588 581.808 392.979C582.057 393.37 582.182 393.831 582.182 394.363C582.182 395.203 581.845 395.877 581.171 396.385C580.502 396.893 579.618 397.146 578.52 397.146C577.768 397.146 577.077 397.012 576.447 396.744C575.822 396.475 575.346 396.099 575.019 395.616C574.696 395.132 574.535 394.578 574.535 393.953H575.436C575.436 394.705 575.717 395.298 576.278 395.733C576.84 396.167 577.587 396.385 578.52 396.385C579.35 396.385 580.016 396.202 580.519 395.835C581.022 395.469 581.273 394.983 581.273 394.378ZM595.68 397H594.772V391.888H588.678V397H587.777V386.336H588.678V391.126H594.772V386.336H595.68V397ZM604.286 391.888H599.298V396.238H605.033V397H598.397V386.336H604.997V387.105H599.298V391.126H604.286V391.888ZM610.922 392.562H607.824V397H606.916V386.336H610.38C611.518 386.336 612.406 386.612 613.046 387.164C613.686 387.715 614.005 388.487 614.005 389.478C614.005 390.162 613.805 390.765 613.405 391.287C613.004 391.81 612.467 392.171 611.793 392.371L614.459 396.905V397H613.5L610.922 392.562ZM607.824 391.792H610.585C611.342 391.792 611.95 391.578 612.409 391.148C612.868 390.718 613.097 390.162 613.097 389.478C613.097 388.726 612.858 388.143 612.379 387.728C611.901 387.312 611.229 387.105 610.365 387.105H607.824V391.792ZM622.348 391.888H617.36V396.238H623.095V397H616.459V386.336H623.058V387.105H617.36V391.126H622.348V391.888Z" fill="white"/>
<path d="M384.424 537.162L384.863 539.369L385.4 537.26L388.486 526.781H389.57L392.617 537.26L393.145 539.389L393.613 537.162L396.182 526.781H397.412L393.77 541H392.617L389.395 529.877L389.033 528.471L388.682 529.877L385.381 541H384.229L380.596 526.781H381.826L384.424 537.162ZM402.354 537.162L402.793 539.369L403.33 537.26L406.416 526.781H407.5L410.547 537.26L411.074 539.389L411.543 537.162L414.111 526.781H415.342L411.699 541H410.547L407.324 529.877L406.963 528.471L406.611 529.877L403.311 541H402.158L398.525 526.781H399.756L402.354 537.162ZM420.283 537.162L420.723 539.369L421.26 537.26L424.346 526.781H425.43L428.477 537.26L429.004 539.389L429.473 537.162L432.041 526.781H433.271L429.629 541H428.477L425.254 529.877L424.893 528.471L424.541 529.877L421.24 541H420.088L416.455 526.781H417.686L420.283 537.162ZM433.994 540.297C433.994 540.069 434.066 539.877 434.209 539.721C434.359 539.558 434.564 539.477 434.824 539.477C435.085 539.477 435.29 539.558 435.439 539.721C435.589 539.877 435.664 540.069 435.664 540.297C435.664 540.525 435.589 540.714 435.439 540.863C435.29 541.007 435.085 541.078 434.824 541.078C434.564 541.078 434.359 541.007 434.209 540.863C434.066 540.714 433.994 540.525 433.994 540.297ZM443.33 534.535L447.676 526.781H449.062L443.926 535.648V541H442.725V535.648L437.598 526.781H439.023L443.33 534.535ZM461.348 534.662C461.348 535.971 461.12 537.12 460.664 538.109C460.215 539.099 459.57 539.861 458.73 540.395C457.891 540.928 456.921 541.195 455.82 541.195C454.16 541.195 452.819 540.603 451.797 539.418C450.775 538.227 450.264 536.622 450.264 534.604V533.139C450.264 531.843 450.492 530.697 450.947 529.701C451.41 528.699 452.061 527.93 452.9 527.396C453.74 526.856 454.707 526.586 455.801 526.586C456.895 526.586 457.858 526.85 458.691 527.377C459.531 527.904 460.179 528.65 460.635 529.613C461.09 530.577 461.328 531.693 461.348 532.963V534.662ZM460.146 533.119C460.146 531.407 459.759 530.066 458.984 529.096C458.21 528.126 457.148 527.641 455.801 527.641C454.479 527.641 453.424 528.129 452.637 529.105C451.855 530.076 451.465 531.433 451.465 533.178V534.662C451.465 536.348 451.855 537.686 452.637 538.676C453.418 539.659 454.479 540.15 455.82 540.15C457.181 540.15 458.242 539.665 459.004 538.695C459.766 537.719 460.146 536.361 460.146 534.623V533.119ZM474.17 526.781V536.488C474.163 537.445 473.952 538.279 473.535 538.988C473.118 539.698 472.529 540.245 471.768 540.629C471.012 541.007 470.143 541.195 469.16 541.195C467.663 541.195 466.462 540.788 465.557 539.975C464.658 539.154 464.193 538.021 464.16 536.576V526.781H465.352V536.4C465.352 537.598 465.693 538.529 466.377 539.193C467.061 539.851 467.988 540.18 469.16 540.18C470.332 540.18 471.257 539.848 471.934 539.184C472.617 538.52 472.959 537.595 472.959 536.41V526.781H474.17ZM482.832 535.082H478.701V541H477.49V526.781H482.109C483.626 526.781 484.811 527.149 485.664 527.885C486.517 528.62 486.943 529.649 486.943 530.971C486.943 531.882 486.676 532.686 486.143 533.383C485.609 534.079 484.893 534.561 483.994 534.828L487.549 540.873V541H486.27L482.832 535.082ZM478.701 534.057H482.383C483.392 534.057 484.202 533.77 484.814 533.197C485.426 532.624 485.732 531.882 485.732 530.971C485.732 529.968 485.413 529.19 484.775 528.637C484.137 528.083 483.242 527.807 482.09 527.807H478.701V534.057ZM492.842 537.162L493.281 539.369L493.818 537.26L496.904 526.781H497.988L501.035 537.26L501.562 539.389L502.031 537.162L504.6 526.781H505.83L502.188 541H501.035L497.812 529.877L497.451 528.471L497.1 529.877L493.799 541H492.646L489.014 526.781H490.244L492.842 537.162ZM515.996 534.184H509.346V539.984H516.992V541H508.145V526.781H516.943V527.807H509.346V533.168H515.996V534.184ZM519.531 541V526.781H523.73C525.254 526.781 526.41 527.097 527.197 527.729C527.985 528.354 528.379 529.278 528.379 530.502C528.379 531.238 528.177 531.879 527.773 532.426C527.376 532.966 526.829 533.354 526.133 533.588C526.96 533.77 527.624 534.177 528.125 534.809C528.633 535.44 528.887 536.169 528.887 536.996C528.887 538.253 528.48 539.236 527.666 539.945C526.859 540.648 525.732 541 524.287 541H519.531ZM520.732 534.164V539.984H524.336C525.365 539.984 526.178 539.724 526.777 539.203C527.383 538.676 527.686 537.947 527.686 537.016C527.686 536.137 527.396 535.443 526.816 534.936C526.243 534.421 525.449 534.164 524.434 534.164H520.732ZM520.732 533.158H524.014C525.016 533.139 525.791 532.904 526.338 532.455C526.891 531.999 527.168 531.339 527.168 530.473C527.168 529.561 526.882 528.891 526.309 528.461C525.742 528.025 524.883 527.807 523.73 527.807H520.732V533.158ZM539.844 537.504C539.844 536.716 539.567 536.094 539.014 535.639C538.46 535.176 537.448 534.74 535.977 534.33C534.505 533.913 533.431 533.461 532.754 532.973C531.79 532.283 531.309 531.378 531.309 530.258C531.309 529.171 531.755 528.288 532.646 527.611C533.545 526.928 534.691 526.586 536.084 526.586C537.028 526.586 537.871 526.768 538.613 527.133C539.362 527.497 539.941 528.005 540.352 528.656C540.762 529.307 540.967 530.033 540.967 530.834H539.756C539.756 529.864 539.424 529.086 538.76 528.5C538.096 527.908 537.204 527.611 536.084 527.611C534.997 527.611 534.131 527.855 533.486 528.344C532.842 528.826 532.52 529.457 532.52 530.238C532.52 530.961 532.809 531.55 533.389 532.006C533.968 532.462 534.896 532.865 536.172 533.217C537.448 533.562 538.415 533.923 539.072 534.301C539.73 534.672 540.225 535.118 540.557 535.639C540.889 536.16 541.055 536.775 541.055 537.484C541.055 538.604 540.605 539.503 539.707 540.18C538.815 540.857 537.637 541.195 536.172 541.195C535.169 541.195 534.248 541.016 533.408 540.658C532.575 540.3 531.94 539.799 531.504 539.154C531.074 538.51 530.859 537.771 530.859 536.938H532.061C532.061 537.94 532.435 538.731 533.184 539.311C533.932 539.89 534.928 540.18 536.172 540.18C537.279 540.18 538.167 539.936 538.838 539.447C539.508 538.959 539.844 538.311 539.844 537.504ZM545.117 541H543.916V526.781H545.117V541ZM558.34 527.807H553.467V541H552.266V527.807H547.402V526.781H558.34V527.807ZM568.496 534.184H561.846V539.984H569.492V541H560.645V526.781H569.443V527.807H561.846V533.168H568.496V534.184ZM582.568 541H581.357V534.184H573.232V541H572.031V526.781H573.232V533.168H581.357V526.781H582.568V541ZM594.043 534.184H587.393V539.984H595.039V541H586.191V526.781H594.99V527.807H587.393V533.168H594.043V534.184ZM602.891 535.082H598.76V541H597.549V526.781H602.168C603.685 526.781 604.87 527.149 605.723 527.885C606.576 528.62 607.002 529.649 607.002 530.971C607.002 531.882 606.735 532.686 606.201 533.383C605.667 534.079 604.951 534.561 604.053 534.828L607.607 540.873V541H606.328L602.891 535.082ZM598.76 534.057H602.441C603.451 534.057 604.261 533.77 604.873 533.197C605.485 532.624 605.791 531.882 605.791 530.971C605.791 529.968 605.472 529.19 604.834 528.637C604.196 528.083 603.301 527.807 602.148 527.807H598.76V534.057ZM618.125 534.184H611.475V539.984H619.121V541H610.273V526.781H619.072V527.807H611.475V533.168H618.125V534.184ZM621.279 540.297C621.279 540.069 621.351 539.877 621.494 539.721C621.644 539.558 621.849 539.477 622.109 539.477C622.37 539.477 622.575 539.558 622.725 539.721C622.874 539.877 622.949 540.069 622.949 540.297C622.949 540.525 622.874 540.714 622.725 540.863C622.575 541.007 622.37 541.078 622.109 541.078C621.849 541.078 621.644 541.007 621.494 540.863C621.351 540.714 621.279 540.525 621.279 540.297ZM636.514 536.566C636.351 538.064 635.814 539.21 634.902 540.004C633.997 540.798 632.79 541.195 631.279 541.195C630.225 541.195 629.29 540.932 628.477 540.404C627.669 539.877 627.044 539.132 626.602 538.168C626.159 537.198 625.934 536.091 625.928 534.848V533.002C625.928 531.739 626.149 530.619 626.592 529.643C627.035 528.666 627.669 527.914 628.496 527.387C629.329 526.853 630.286 526.586 631.367 526.586C632.891 526.586 634.092 526.999 634.971 527.826C635.856 528.646 636.37 529.783 636.514 531.234H635.303C635.003 528.819 633.691 527.611 631.367 527.611C630.078 527.611 629.049 528.093 628.281 529.057C627.52 530.02 627.139 531.352 627.139 533.051V534.789C627.139 536.43 627.51 537.738 628.252 538.715C629.001 539.691 630.01 540.18 631.279 540.18C632.536 540.18 633.483 539.88 634.121 539.281C634.759 538.676 635.153 537.771 635.303 536.566H636.514ZM649.941 534.662C649.941 535.971 649.714 537.12 649.258 538.109C648.809 539.099 648.164 539.861 647.324 540.395C646.484 540.928 645.514 541.195 644.414 541.195C642.754 541.195 641.413 540.603 640.391 539.418C639.368 538.227 638.857 536.622 638.857 534.604V533.139C638.857 531.843 639.085 530.697 639.541 529.701C640.003 528.699 640.654 527.93 641.494 527.396C642.334 526.856 643.301 526.586 644.395 526.586C645.488 526.586 646.452 526.85 647.285 527.377C648.125 527.904 648.773 528.65 649.229 529.613C649.684 530.577 649.922 531.693 649.941 532.963V534.662ZM648.74 533.119C648.74 531.407 648.353 530.066 647.578 529.096C646.803 528.126 645.742 527.641 644.395 527.641C643.073 527.641 642.018 528.129 641.23 529.105C640.449 530.076 640.059 531.433 640.059 533.178V534.662C640.059 536.348 640.449 537.686 641.23 538.676C642.012 539.659 643.073 540.15 644.414 540.15C645.775 540.15 646.836 539.665 647.598 538.695C648.359 537.719 648.74 536.361 648.74 534.623V533.119ZM654.561 526.781L659.805 539.33L665.068 526.781H666.67V541H665.469V534.809L665.566 528.461L660.273 541H659.346L654.072 528.51L654.17 534.77V541H652.969V526.781H654.561Z" fill="white"/>
<path d="M283 553H767" stroke="white" stroke-width="4"/>
<path d="M282 0C78.6047 13.3333 9.25197 158.889 0 230V0H282Z" fill="#BB0A1E"/>
<path d="M768 600C971.395 586.667 1040.75 441.111 1050 370V600L768 600Z" fill="#BB0A1E"/>
</g>
<defs>
<clipPath id="clip0">
<rect width="1050" height="600" fill="white"/>
</clipPath>
</defs>
</svg>
