<svg width="1050" height="600" viewBox="0 0 1050 600" fill="none" xmlns="http://www.w3.org/2000/svg">
<rect width="1050" height="600" fill="url(#paint0_linear)"/>
<path d="M616.829 221.838V284.41C616.826 289.115 615.587 293.736 613.234 297.811C610.882 301.886 607.501 305.271 603.428 307.627L599.28 310.016L599.258 310.038H599.236C599.215 310.038 599.193 310.06 599.15 310.082L538.315 345.201C534.236 347.549 529.611 348.784 524.904 348.784C520.197 348.784 515.572 347.549 511.493 345.201L446.423 307.627C441.876 305.005 438.204 301.099 435.868 296.399C435.844 296.352 435.815 296.308 435.781 296.268C435.772 296.243 435.757 296.221 435.737 296.203V296.182C435.725 296.17 435.717 296.155 435.716 296.138C433.93 292.486 433.002 288.475 433.001 284.41V222.75C432.99 221.587 433.078 220.424 433.261 219.275C444.558 241.532 463.517 258.957 486.646 268.338V268.903L514.273 284.866C517.512 286.733 521.186 287.716 524.926 287.716C528.665 287.716 532.339 286.733 535.579 284.866L563.205 268.903V268.751C586.22 259.693 605.234 242.698 616.807 220.839C616.829 221.187 616.829 221.502 616.829 221.838Z" fill="#66ADFF"/>
<path d="M486.646 221.839V268.339C463.517 258.957 444.557 241.533 433.261 219.276C433.389 218.172 433.585 217.077 433.847 215.996C434.508 213.267 435.577 210.653 437.018 208.243C439.182 204.502 442.226 201.346 445.886 199.049C449.546 196.752 453.711 195.382 458.02 195.059C461.687 194.815 465.365 195.326 468.826 196.561C472.288 197.796 475.458 199.729 478.142 202.24C480.826 204.75 482.965 207.785 484.428 211.157C485.891 214.528 486.646 218.164 486.646 221.839Z" fill="#303030"/>
<path d="M616.806 220.852C605.233 242.71 586.22 259.706 563.204 268.763V222.763C563.121 215.841 565.655 209.143 570.298 204.009C574.941 198.875 581.351 195.683 588.246 195.071C593.131 194.74 598.014 195.754 602.363 198.003C602.369 198.003 602.374 198.006 602.379 198.01C602.383 198.014 602.385 198.019 602.385 198.025C602.405 198.037 602.427 198.044 602.45 198.047C605.978 199.904 609.05 202.521 611.442 205.71C613.835 208.899 615.489 212.58 616.285 216.486C616.581 217.924 616.756 219.384 616.806 220.852Z" fill="#303030"/>
<g style="mix-blend-mode:multiply" opacity="0.08">
<g style="mix-blend-mode:multiply" opacity="0.08">
<path d="M486.646 247.042V268.348C463.517 258.967 444.557 241.542 433.261 219.285C433.389 218.181 433.585 217.086 433.847 216.006C445.119 224.302 465.242 237.964 486.646 247.042Z" fill="#66ADFF"/>
</g>
</g>
<g style="mix-blend-mode:multiply" opacity="0.08">
<g style="mix-blend-mode:multiply" opacity="0.08">
<path d="M616.807 220.852C605.234 242.711 586.22 259.706 563.205 268.764V247.132C581.95 238.856 599.746 228.582 616.285 216.486C616.582 217.924 616.756 219.385 616.807 220.852Z" fill="#66ADFF"/>
</g>
</g>
<g style="mix-blend-mode:screen" opacity="0.4">
<g style="mix-blend-mode:screen" opacity="0.4">
<path d="M610.313 284.334V284.421C610.303 287.98 609.362 291.475 607.583 294.557C605.803 297.64 603.248 300.203 600.17 301.991L535.057 339.565C531.969 341.343 528.467 342.28 524.904 342.28C521.34 342.28 517.838 341.343 514.75 339.565L464.145 310.353L463.972 310.244L449.681 301.991C446.837 300.344 444.434 298.035 442.676 295.259C440.918 292.483 439.856 289.324 439.581 286.05C463.777 303.296 492.687 312.695 522.399 312.975C552.111 313.254 581.192 304.401 605.708 287.613L605.926 287.461L606.034 287.396C607.5 286.397 608.901 285.376 610.313 284.334Z" fill="#66ADFF"/>
</g>
</g>
<g style="mix-blend-mode:screen" opacity="0.6">
<g style="mix-blend-mode:screen" opacity="0.6">
<path d="M435.738 296.191C435.759 296.213 435.759 296.235 435.781 296.278C435.772 296.253 435.757 296.231 435.738 296.213V296.191Z" fill="#66ADFF"/>
</g>
</g>
<g style="mix-blend-mode:multiply" opacity="0.25">
<g style="mix-blend-mode:multiply" opacity="0.25">
<path d="M599.149 310.091L538.315 345.21C534.235 347.558 529.611 348.794 524.904 348.794C520.197 348.794 515.572 347.558 511.492 345.21L446.423 307.637C441.876 305.014 438.204 301.108 435.868 296.408C436.041 296.712 436.367 297.234 436.845 297.95C437.986 299.576 439.288 301.083 440.733 302.446C442.965 304.526 445.517 306.235 448.291 307.506C451.505 309.157 455.132 311.025 459.042 313.132C466.925 317.258 476.047 322.188 485.756 327.575C490.599 330.289 495.638 333.026 500.698 335.936C503.239 337.392 505.78 338.847 508.343 340.302L512.187 342.495C513.357 343.187 514.576 343.79 515.836 344.298C520.78 346.351 526.268 346.695 531.43 345.275C534.006 344.536 536.469 343.447 538.749 342.039C541.247 340.649 543.701 339.281 546.134 337.935C555.864 332.548 564.986 327.618 572.848 323.492C587.595 315.662 597.911 310.667 599.149 310.091Z" fill="#66ADFF"/>
</g>
</g>
<g style="mix-blend-mode:multiply" opacity="0.25">
<g style="mix-blend-mode:multiply" opacity="0.25">
<path d="M616.806 220.849L614.787 224.975L612.571 229.037L610.16 232.968L607.554 236.79L604.752 240.483L601.799 244.066L598.65 247.498L595.348 250.777L591.895 253.905L588.29 256.88L584.554 259.682L580.688 262.31L576.692 264.764L572.587 267.045L568.374 269.108L565.311 270.433L564.399 270.976C558.231 274.646 552.084 278.36 545.873 281.966L536.512 287.395C532.966 289.374 528.975 290.42 524.914 290.436C522.891 290.426 520.878 290.163 518.92 289.654C517.947 289.391 516.989 289.072 516.053 288.698C515.13 288.327 514.23 287.899 513.36 287.417L503.977 281.966C497.766 278.36 491.619 274.646 485.451 270.998L484.235 270.281V269.89L481.412 268.63L477.198 266.502L473.093 264.156L469.097 261.637L465.231 258.922L461.474 256.055L457.89 253.014L454.459 249.8L451.179 246.455L448.052 242.937L445.119 239.288L442.339 235.531L439.777 231.621L437.388 227.625L435.216 223.499L433.261 219.285L435.672 223.26L438.235 227.082L440.949 230.818L443.795 234.423L446.792 237.898L449.919 241.243L453.199 244.435L456.565 247.498L460.084 250.408L463.732 253.145L467.446 255.751L471.291 258.162L475.222 260.421L479.261 262.506L483.366 264.417L486.646 265.763V268.913L514.272 284.876C517.512 286.743 521.186 287.726 524.925 287.726C528.665 287.726 532.338 286.743 535.578 284.876L563.204 268.913V266.198L566.506 264.873L570.589 263.027L574.607 261.029L578.538 258.835L582.36 256.468L586.096 253.948L589.745 251.277L593.263 248.453L596.651 245.456L599.931 242.329L603.102 239.071L606.121 235.661L609.009 232.143L611.746 228.494L614.352 224.715L616.806 220.849Z" fill="#66ADFF"/>
</g>
</g>
<g style="mix-blend-mode:screen" opacity="0.4">
<g style="mix-blend-mode:screen" opacity="0.4">
<path d="M605.708 287.613L601.538 290.631L596.891 293.672C593.72 295.627 590.498 297.466 587.226 299.189C583.924 300.904 580.551 302.468 577.105 303.88C573.659 305.292 570.169 306.58 566.636 307.746C559.556 310.09 552.291 311.833 544.918 312.958C541.225 313.545 537.511 313.957 533.776 314.24C529.975 314.544 526.37 314.652 522.591 314.631C518.855 314.631 515.119 314.457 511.384 314.175L505.802 313.61L500.264 312.828L494.747 311.807L489.274 310.591L483.866 309.158L478.501 307.485L473.224 305.617L468.033 303.532L462.907 301.252L457.89 298.776L453.004 296.061L448.204 293.173L443.534 290.11L440.906 288.242C441.865 293.239 444.673 297.691 448.768 300.709C450.006 301.578 451.288 302.316 452.591 303.142L456.457 305.509L463.972 310.244L449.681 301.99C446.837 300.343 444.434 298.034 442.676 295.258C440.918 292.483 439.856 289.323 439.581 286.049C463.777 303.295 492.687 312.694 522.399 312.974C552.111 313.253 581.192 304.401 605.708 287.613Z" fill="#66ADFF"/>
</g>
</g>
<g style="mix-blend-mode:screen" opacity="0.5">
<g style="mix-blend-mode:screen" opacity="0.5">
<path d="M486.647 221.839V242.624C486.647 242.624 485.909 236.955 485.409 228.463C485.257 226.356 485.127 224.032 485.018 221.622C484.853 219.243 484.393 216.894 483.65 214.628C482 209.749 478.948 205.466 474.876 202.313C472.818 200.735 470.543 199.462 468.121 198.534C465.772 197.697 463.328 197.157 460.845 196.927C460.172 196.927 459.521 196.906 458.869 196.906L458 196.884L457.11 196.949C455.948 197.01 454.794 197.162 453.656 197.405C451.537 197.856 449.48 198.564 447.532 199.512C444.552 200.987 441.849 202.963 439.539 205.354C438.692 206.245 438.041 206.961 437.628 207.483C437.324 207.873 437.107 208.134 437.02 208.243C439.184 204.502 442.228 201.346 445.887 199.049C449.547 196.752 453.713 195.382 458.022 195.059C461.689 194.815 465.367 195.326 468.828 196.561C472.289 197.796 475.46 199.729 478.143 202.24C480.827 204.75 482.967 207.785 484.429 211.157C485.892 214.528 486.647 218.164 486.647 221.839Z" fill="#66ADFF"/>
</g>
</g>
<g style="mix-blend-mode:screen" opacity="0.5">
<g style="mix-blend-mode:screen" opacity="0.5">
<path d="M602.363 198.003C602.103 197.916 601.147 197.612 599.627 197.243C597.202 196.654 594.716 196.356 592.221 196.353C590.589 196.361 588.961 196.513 587.356 196.809C586.489 196.945 585.632 197.14 584.793 197.395C584.38 197.526 583.946 197.634 583.511 197.764C583.077 197.895 582.643 198.09 582.208 198.242C580.459 198.955 578.78 199.827 577.191 200.849C575.576 201.937 574.083 203.197 572.739 204.606C571.364 205.986 570.147 207.516 569.112 209.167C568.095 210.781 567.236 212.491 566.549 214.271C566.208 215.114 565.918 215.977 565.68 216.855C565.421 217.68 565.218 218.522 565.072 219.375C564.895 220.221 564.764 221.077 564.681 221.938L564.616 222.567C564.594 222.654 564.573 222.828 564.573 222.828L564.551 223.132C564.507 223.545 564.486 223.957 564.442 224.348C563.921 230.734 563.204 234.969 563.204 234.969V222.763C563.121 215.841 565.655 209.143 570.298 204.009C574.941 198.875 581.351 195.683 588.246 195.071C593.131 194.74 598.014 195.754 602.363 198.003Z" fill="#66ADFF"/>
</g>
</g>
<path d="M450.735 363.985C451.905 363.985 453.165 364.105 454.515 364.345C455.895 364.555 456.705 364.675 456.945 364.705L456.855 368.08C454.215 367.6 452.175 367.36 450.735 367.36C448.695 367.36 447.225 367.78 446.325 368.62C445.425 369.46 444.975 370.855 444.975 372.805V385.675C444.975 387.625 445.41 389.02 446.28 389.86C447.18 390.67 448.665 391.075 450.735 391.075C452.175 391.075 454.215 390.835 456.855 390.355L456.945 393.82C456.705 393.85 455.895 393.97 454.515 394.18C453.165 394.42 451.905 394.54 450.735 394.54C447.285 394.54 444.825 393.805 443.355 392.335C441.885 390.865 441.15 388.57 441.15 385.45V373.075C441.15 369.955 441.885 367.66 443.355 366.19C444.825 364.72 447.285 363.985 450.735 363.985ZM471.922 363.985C475.282 363.985 477.757 364.825 479.347 366.505C480.937 368.185 481.732 370.57 481.732 373.66V384.865C481.732 387.955 480.937 390.34 479.347 392.02C477.757 393.7 475.282 394.54 471.922 394.54C468.562 394.54 466.087 393.7 464.497 392.02C462.907 390.34 462.112 387.955 462.112 384.865V373.66C462.112 370.57 462.907 368.185 464.497 366.505C466.087 364.825 468.562 363.985 471.922 363.985ZM471.922 367.36C469.942 367.36 468.442 367.855 467.422 368.845C466.432 369.835 465.937 371.29 465.937 373.21V385.27C465.937 387.19 466.432 388.66 467.422 389.68C468.442 390.67 469.942 391.165 471.922 391.165C473.902 391.165 475.387 390.67 476.377 389.68C477.397 388.66 477.907 387.19 477.907 385.27V373.255C477.907 371.335 477.397 369.88 476.377 368.89C475.387 367.87 473.902 367.36 471.922 367.36ZM509.46 394L509.235 369.79L502.98 390.94H498.255L492 369.79L491.775 394H488.04L488.31 364.525H493.98L500.64 387.52L507.255 364.525H512.925L513.195 394H509.46ZM527.514 363.985C531.054 363.985 533.679 364.705 535.389 366.145C537.129 367.555 537.999 369.58 537.999 372.22V373.3C537.999 376.12 537.159 378.295 535.479 379.825C533.799 381.355 531.264 382.12 527.874 382.12C526.524 382.12 525.084 382 523.554 381.76V394H519.729V364.21C522.279 364.06 524.874 363.985 527.514 363.985ZM527.424 367.225C526.104 367.225 524.814 367.255 523.554 367.315V378.475C525.354 378.715 526.734 378.835 527.694 378.835C532.014 378.835 534.174 376.93 534.174 373.12V372.355C534.174 370.645 533.634 369.37 532.554 368.53C531.474 367.66 529.764 367.225 527.424 367.225ZM552.286 364.525L561.331 394H557.191L555.256 387.16H544.411L542.476 394H538.561L547.561 364.525H552.286ZM549.856 368.035L545.356 383.74H554.311L549.856 368.035ZM578.801 394L569.081 369.115V394H565.301V364.525H571.421L580.961 389.41V364.525H584.741V394H578.801ZM609.627 364.525L601.077 383.875V394H597.252V383.875L588.702 364.525H593.067L599.187 379.825L605.352 364.525H609.627Z" fill="#3C3C3C"/>
<defs>
<linearGradient id="paint0_linear" x1="525" y1="0" x2="525" y2="600" gradientUnits="userSpaceOnUse">
<stop stop-color="#9BCAFF"/>
<stop offset="0.489583" stop-color="#B6D8FE"/>
<stop offset="1" stop-color="#57A1F8"/>
</linearGradient>
</defs>
</svg>
