<svg width="1050" height="600" viewBox="0 0 1050 600" fill="none" xmlns="http://www.w3.org/2000/svg">
<g clip-path="url(#clip0)">
<rect width="1050" height="600" transform="matrix(-1 0 0 1 1050 0)" fill="white"/>
<path d="M444 0H3.05176e-05V599.516L321.871 619L444 0Z" fill="black"/>
<path d="M368.5 403.5L444 0L221 327.857L368.5 403.5Z" fill="url(#paint0_linear)"/>
<g filter="url(#filter0_d)">
<path d="M259.5 321.5L444 0L133 221L259.5 321.5Z" fill="url(#paint1_linear)"/>
</g>
<g filter="url(#filter1_d)">
<path d="M133 221L215.317 600H639L133 221Z" fill="url(#paint2_linear)"/>
</g>
<g filter="url(#filter2_d)">
<path d="M133 221L189.776 600H482L133 221Z" fill="url(#paint3_linear)"/>
</g>
<path d="M806.095 199.396V256.272C806.092 260.549 804.966 264.75 802.828 268.454C800.69 272.158 797.616 275.235 793.914 277.376L790.143 279.548L790.124 279.567H790.104C790.084 279.567 790.064 279.587 790.025 279.607L734.728 311.529C731.02 313.663 726.816 314.787 722.538 314.787C718.259 314.787 714.056 313.663 710.347 311.529L651.201 277.376C647.068 274.992 643.731 271.442 641.607 267.17C641.585 267.127 641.559 267.088 641.528 267.051C641.519 267.029 641.506 267.008 641.488 266.992V266.972C641.477 266.962 641.47 266.948 641.468 266.933C639.846 263.613 639.002 259.967 639.001 256.272V200.226C638.991 199.168 639.071 198.111 639.238 197.067C649.506 217.298 666.739 233.136 687.763 241.663V242.177L712.874 256.687C715.819 258.384 719.158 259.278 722.558 259.278C725.957 259.278 729.296 258.384 732.241 256.687L757.352 242.177V242.039C778.272 233.805 795.556 218.357 806.075 198.488C806.095 198.804 806.095 199.09 806.095 199.396Z" fill="#C53423"/>
<path d="M687.762 199.396V241.663C666.739 233.135 649.505 217.297 639.237 197.066C639.354 196.062 639.532 195.067 639.77 194.085C640.371 191.604 641.343 189.228 642.653 187.037C644.619 183.637 647.386 180.769 650.713 178.68C654.04 176.592 657.826 175.347 661.743 175.054C665.076 174.832 668.419 175.296 671.565 176.419C674.711 177.542 677.593 179.299 680.033 181.581C682.472 183.863 684.417 186.621 685.747 189.686C687.076 192.75 687.762 196.055 687.762 199.396Z" fill="#ED7F25"/>
<path d="M806.074 198.497C795.555 218.366 778.272 233.814 757.352 242.047V200.234C757.276 193.942 759.579 187.854 763.799 183.187C768.02 178.52 773.846 175.619 780.114 175.063C784.555 174.762 788.993 175.683 792.946 177.728C792.951 177.728 792.956 177.731 792.96 177.734C792.964 177.738 792.966 177.743 792.966 177.748C792.984 177.759 793.004 177.766 793.025 177.768C796.232 179.456 799.024 181.835 801.198 184.733C803.373 187.632 804.877 190.978 805.6 194.529C805.87 195.836 806.028 197.163 806.074 198.497Z" fill="#ED7F25"/>
<g style="mix-blend-mode:multiply" opacity="0.08">
<g style="mix-blend-mode:multiply" opacity="0.08">
<path d="M687.762 222.305V241.672C666.739 233.144 649.505 217.306 639.237 197.075C639.354 196.072 639.532 195.076 639.77 194.094C650.016 201.636 668.307 214.053 687.762 222.305Z" fill="#C53423"/>
</g>
</g>
<g style="mix-blend-mode:multiply" opacity="0.08">
<g style="mix-blend-mode:multiply" opacity="0.08">
<path d="M806.075 198.497C795.555 218.367 778.272 233.815 757.352 242.048V222.385C774.391 214.863 790.567 205.524 805.601 194.529C805.87 195.836 806.029 197.164 806.075 198.497Z" fill="#C53423"/>
</g>
</g>
<g style="mix-blend-mode:screen" opacity="0.4">
<g style="mix-blend-mode:screen" opacity="0.4">
<path d="M800.172 256.203V256.282C800.164 259.517 799.308 262.694 797.691 265.496C796.073 268.298 793.75 270.628 790.953 272.253L731.767 306.406C728.96 308.023 725.777 308.874 722.538 308.874C719.298 308.874 716.116 308.023 713.309 306.406L667.31 279.853L667.152 279.755L654.162 272.253C651.578 270.756 649.394 268.657 647.795 266.134C646.197 263.611 645.232 260.739 644.982 257.763C666.976 273.439 693.254 281.982 720.261 282.237C747.268 282.491 773.702 274.444 795.987 259.184L796.184 259.046L796.283 258.987C797.616 258.079 798.889 257.151 800.172 256.203Z" fill="white"/>
</g>
</g>
<g style="mix-blend-mode:screen" opacity="0.6">
<g style="mix-blend-mode:screen" opacity="0.6">
<path d="M641.489 266.98C641.509 267.001 641.509 267.021 641.529 267.061C641.52 267.038 641.507 267.017 641.489 267.001V266.98Z" fill="white"/>
</g>
</g>
<g style="mix-blend-mode:multiply" opacity="0.25">
<g style="mix-blend-mode:multiply" opacity="0.25">
<path d="M790.025 279.614L734.728 311.536C731.02 313.67 726.816 314.794 722.538 314.794C718.259 314.794 714.056 313.67 710.347 311.536L651.201 277.383C647.068 274.999 643.731 271.449 641.607 267.177C641.765 267.453 642.061 267.927 642.495 268.578C643.532 270.056 644.716 271.426 646.029 272.665C648.058 274.556 650.378 276.109 652.899 277.265C655.821 278.765 659.118 280.463 662.671 282.378C669.837 286.129 678.129 290.61 686.953 295.506C691.356 297.974 695.936 300.461 700.536 303.107C702.845 304.429 705.155 305.752 707.485 307.075L710.979 309.069C712.042 309.697 713.15 310.245 714.296 310.707C718.79 312.573 723.778 312.886 728.47 311.596C730.812 310.923 733.05 309.934 735.123 308.654C737.393 307.391 739.624 306.147 741.835 304.923C750.68 300.027 758.971 295.546 766.118 291.795C779.522 284.678 788.9 280.137 790.025 279.614Z" fill="#C53423"/>
</g>
</g>
<g style="mix-blend-mode:multiply" opacity="0.25">
<g style="mix-blend-mode:multiply" opacity="0.25">
<path d="M806.074 198.496L804.238 202.247L802.225 205.938L800.033 209.511L797.664 212.986L795.118 216.342L792.433 219.6L789.57 222.719L786.57 225.7L783.431 228.543L780.154 231.247L776.758 233.794L773.244 236.183L769.612 238.413L765.88 240.486L762.05 242.362L759.267 243.566L758.438 244.059C752.831 247.396 747.244 250.772 741.598 254.049L733.089 258.984C729.866 260.782 726.239 261.733 722.547 261.748C720.709 261.739 718.878 261.5 717.099 261.037C716.214 260.798 715.344 260.508 714.493 260.169C713.653 259.831 712.836 259.442 712.045 259.004L703.516 254.049C697.87 250.772 692.283 247.396 686.677 244.079L685.571 243.428V243.072L683.005 241.927L679.175 239.993L675.444 237.861L671.811 235.571L668.297 233.103L664.882 230.497L661.624 227.733L658.505 224.811L655.524 221.771L652.681 218.573L650.016 215.256L647.489 211.841L645.16 208.288L642.988 204.655L641.014 200.904L639.237 197.074L641.429 200.687L643.758 204.161L646.226 207.557L648.812 210.834L651.536 213.993L654.379 217.033L657.36 219.935L660.42 222.719L663.618 225.364L666.935 227.852L670.311 230.221L673.805 232.412L677.378 234.465L681.05 236.36L684.781 238.097L687.762 239.321V242.184L712.874 256.694C715.819 258.392 719.158 259.285 722.557 259.285C725.956 259.285 729.296 258.392 732.24 256.694L757.352 242.184V239.716L760.353 238.512L764.064 236.834L767.716 235.018L771.29 233.024L774.764 230.872L778.16 228.582L781.476 226.154L784.674 223.587L787.754 220.863L790.735 218.02L793.617 215.059L796.362 211.959L798.987 208.761L801.475 205.445L803.844 202.01L806.074 198.496Z" fill="#C53423"/>
</g>
</g>
<g style="mix-blend-mode:screen" opacity="0.4">
<g style="mix-blend-mode:screen" opacity="0.4">
<path d="M795.987 259.183L792.196 261.927L787.972 264.691C785.089 266.467 782.161 268.139 779.187 269.705C776.186 271.265 773.119 272.686 769.987 273.969C766.855 275.252 763.683 276.424 760.471 277.483C754.035 279.614 747.432 281.199 740.73 282.221C737.374 282.754 733.998 283.129 730.602 283.386C727.147 283.662 723.87 283.761 720.435 283.741C717.04 283.741 713.644 283.583 710.249 283.327L705.175 282.813L700.141 282.103L695.126 281.175L690.152 280.069L685.236 278.766L680.36 277.246L675.562 275.549L670.844 273.653L666.185 271.58L661.625 269.33L657.183 266.862L652.82 264.237L648.575 261.453L646.187 259.755C647.058 264.297 649.61 268.343 653.333 271.087C654.458 271.877 655.623 272.548 656.808 273.298L660.322 275.45L667.152 279.753L654.162 272.252C651.578 270.755 649.394 268.655 647.795 266.132C646.197 263.609 645.232 260.737 644.982 257.761C666.976 273.438 693.254 281.981 720.261 282.235C747.268 282.489 773.702 274.442 795.987 259.183Z" fill="white"/>
</g>
</g>
<g style="mix-blend-mode:screen" opacity="0.5">
<g style="mix-blend-mode:screen" opacity="0.5">
<path d="M687.764 199.396V218.288C687.764 218.288 687.092 213.136 686.638 205.417C686.5 203.502 686.382 201.389 686.283 199.198C686.133 197.036 685.715 194.901 685.039 192.841C683.54 188.407 680.765 184.513 677.064 181.648C675.193 180.213 673.125 179.056 670.924 178.213C668.789 177.451 666.567 176.961 664.31 176.752C663.698 176.752 663.106 176.732 662.514 176.732L661.724 176.712L660.915 176.772C659.859 176.827 658.81 176.965 657.776 177.186C655.85 177.596 653.98 178.24 652.209 179.101C649.501 180.442 647.043 182.238 644.944 184.412C644.174 185.221 643.582 185.872 643.207 186.346C642.93 186.702 642.733 186.939 642.654 187.037C644.621 183.637 647.387 180.769 650.714 178.68C654.041 176.592 657.827 175.347 661.744 175.054C665.077 174.832 668.42 175.296 671.566 176.419C674.712 177.542 677.594 179.299 680.034 181.581C682.473 183.863 684.418 186.621 685.748 189.686C687.077 192.75 687.763 196.055 687.764 199.396Z" fill="white"/>
</g>
</g>
<g style="mix-blend-mode:screen" opacity="0.5">
<g style="mix-blend-mode:screen" opacity="0.5">
<path d="M792.946 177.728C792.709 177.649 791.84 177.373 790.458 177.037C788.255 176.502 785.995 176.231 783.727 176.228C782.243 176.235 780.763 176.374 779.304 176.643C778.517 176.766 777.738 176.944 776.975 177.176C776.6 177.294 776.205 177.393 775.81 177.511C775.415 177.63 775.02 177.807 774.626 177.946C773.036 178.593 771.509 179.386 770.065 180.315C768.597 181.304 767.24 182.449 766.018 183.73C764.768 184.985 763.662 186.375 762.721 187.876C761.797 189.343 761.017 190.897 760.392 192.515C760.082 193.281 759.818 194.066 759.602 194.864C759.367 195.614 759.182 196.379 759.049 197.154C758.888 197.924 758.769 198.701 758.694 199.484L758.635 200.056C758.615 200.135 758.595 200.293 758.595 200.293L758.576 200.57C758.536 200.945 758.516 201.32 758.477 201.675C758.003 207.479 757.352 211.329 757.352 211.329V200.234C757.276 193.942 759.579 187.854 763.799 183.187C768.02 178.52 773.846 175.619 780.114 175.063C784.555 174.762 788.993 175.683 792.946 177.728Z" fill="white"/>
</g>
</g>
<path d="M646.856 374V342.008H656.7C659.513 342.008 662.025 342.645 664.237 343.919C666.463 345.179 668.199 346.981 669.444 349.325C670.689 351.654 671.312 354.305 671.312 357.279V358.751C671.312 361.725 670.697 364.369 669.466 366.683C668.25 368.998 666.529 370.792 664.303 372.066C662.076 373.341 659.564 373.985 656.766 374H646.856ZM653.448 347.347V368.705H656.634C659.212 368.705 661.183 367.862 662.545 366.178C663.907 364.493 664.603 362.083 664.632 358.949V357.257C664.632 354.005 663.958 351.544 662.611 349.874C661.263 348.189 659.293 347.347 656.7 347.347H653.448ZM695.372 360.135H682.716V368.705H697.569V374H676.124V342.008H697.525V347.347H682.716V354.972H695.372V360.135ZM718.026 365.606C718.026 364.361 717.586 363.409 716.708 362.75C715.829 362.076 714.247 361.373 711.961 360.641C709.676 359.894 707.867 359.161 706.534 358.443C702.901 356.48 701.085 353.836 701.085 350.511C701.085 348.783 701.568 347.245 702.535 345.897C703.517 344.535 704.916 343.473 706.732 342.711C708.563 341.949 710.614 341.568 712.884 341.568C715.169 341.568 717.206 341.986 718.993 342.821C720.78 343.641 722.164 344.806 723.146 346.314C724.142 347.823 724.64 349.537 724.64 351.456H718.048C718.048 349.991 717.586 348.856 716.664 348.05C715.741 347.23 714.444 346.82 712.774 346.82C711.163 346.82 709.911 347.164 709.017 347.853C708.124 348.526 707.677 349.42 707.677 350.533C707.677 351.573 708.197 352.445 709.237 353.148C710.292 353.851 711.837 354.51 713.873 355.125C717.623 356.253 720.355 357.652 722.069 359.322C723.783 360.992 724.64 363.072 724.64 365.562C724.64 368.331 723.592 370.506 721.498 372.088C719.403 373.656 716.583 374.439 713.038 374.439C710.577 374.439 708.336 373.993 706.314 373.099C704.293 372.191 702.748 370.953 701.678 369.386C700.624 367.818 700.096 366.002 700.096 363.937H706.71C706.71 367.467 708.819 369.232 713.038 369.232C714.605 369.232 715.829 368.917 716.708 368.287C717.586 367.643 718.026 366.749 718.026 365.606ZM736.131 374H729.54V342.008H736.131V374ZM767.574 369.957C766.388 371.378 764.71 372.484 762.542 373.275C760.375 374.051 757.972 374.439 755.335 374.439C752.567 374.439 750.135 373.839 748.041 372.638C745.96 371.422 744.349 369.664 743.207 367.364C742.079 365.064 741.5 362.362 741.471 359.256V357.081C741.471 353.888 742.005 351.126 743.075 348.797C744.159 346.454 745.711 344.667 747.733 343.436C749.769 342.191 752.149 341.568 754.874 341.568C758.668 341.568 761.634 342.477 763.773 344.293C765.912 346.095 767.179 348.724 767.574 352.181H761.158C760.865 350.35 760.213 349.01 759.203 348.16C758.207 347.311 756.83 346.886 755.072 346.886C752.831 346.886 751.124 347.728 749.952 349.413C748.78 351.097 748.187 353.602 748.172 356.927V358.971C748.172 362.325 748.81 364.859 750.084 366.573C751.358 368.287 753.226 369.144 755.687 369.144C758.163 369.144 759.928 368.617 760.982 367.562V362.047H754.984V357.191H767.574V369.957ZM798.951 374H792.359L779.527 352.95V374H772.936V342.008H779.527L792.381 363.102V342.008H798.951V374Z" fill="black"/>
<path d="M672.84 392.662C671.232 392.2 670.06 391.633 669.324 390.963C668.595 390.286 668.23 389.452 668.23 388.463C668.23 387.343 668.676 386.419 669.568 385.689C670.467 384.954 671.632 384.586 673.064 384.586C674.041 384.586 674.91 384.775 675.672 385.152C676.44 385.53 677.033 386.051 677.449 386.715C677.872 387.379 678.084 388.105 678.084 388.893H676.199C676.199 388.033 675.926 387.359 675.379 386.871C674.832 386.376 674.061 386.129 673.064 386.129C672.14 386.129 671.417 386.334 670.896 386.744C670.382 387.148 670.125 387.711 670.125 388.434C670.125 389.013 670.369 389.505 670.857 389.908C671.352 390.305 672.189 390.67 673.367 391.002C674.552 391.334 675.477 391.702 676.141 392.105C676.811 392.503 677.306 392.968 677.625 393.502C677.951 394.036 678.113 394.664 678.113 395.387C678.113 396.539 677.664 397.464 676.766 398.16C675.867 398.85 674.666 399.195 673.162 399.195C672.186 399.195 671.274 399.01 670.428 398.639C669.581 398.261 668.927 397.747 668.465 397.096C668.009 396.445 667.781 395.706 667.781 394.879H669.666C669.666 395.738 669.982 396.419 670.613 396.92C671.251 397.415 672.101 397.662 673.162 397.662C674.152 397.662 674.91 397.46 675.438 397.057C675.965 396.653 676.229 396.103 676.229 395.406C676.229 394.71 675.984 394.173 675.496 393.795C675.008 393.411 674.122 393.033 672.84 392.662ZM682.205 399H680.398V384H682.205V399ZM684.627 393.619C684.627 392.584 684.829 391.653 685.232 390.826C685.643 389.999 686.209 389.361 686.932 388.912C687.661 388.463 688.491 388.238 689.422 388.238C690.861 388.238 692.023 388.736 692.908 389.732C693.8 390.729 694.246 392.053 694.246 393.707V393.834C694.246 394.863 694.048 395.787 693.65 396.607C693.26 397.421 692.697 398.056 691.961 398.512C691.232 398.967 690.392 399.195 689.441 399.195C688.009 399.195 686.847 398.697 685.955 397.701C685.07 396.705 684.627 395.387 684.627 393.746V393.619ZM686.443 393.834C686.443 395.006 686.714 395.947 687.254 396.656C687.801 397.366 688.53 397.721 689.441 397.721C690.359 397.721 691.089 397.363 691.629 396.646C692.169 395.924 692.439 394.915 692.439 393.619C692.439 392.46 692.163 391.523 691.609 390.807C691.062 390.084 690.333 389.723 689.422 389.723C688.53 389.723 687.811 390.077 687.264 390.787C686.717 391.497 686.443 392.512 686.443 393.834ZM696.082 393.629C696.082 391.982 696.463 390.673 697.225 389.703C697.986 388.727 698.995 388.238 700.252 388.238C701.541 388.238 702.547 388.694 703.27 389.605L703.357 388.434H705.008V398.746C705.008 400.113 704.601 401.191 703.787 401.979C702.98 402.766 701.893 403.16 700.525 403.16C699.764 403.16 699.018 402.997 698.289 402.672C697.56 402.346 697.003 401.9 696.619 401.334L697.557 400.25C698.331 401.207 699.279 401.686 700.398 401.686C701.277 401.686 701.961 401.438 702.449 400.943C702.944 400.449 703.191 399.752 703.191 398.854V397.945C702.469 398.779 701.482 399.195 700.232 399.195C698.995 399.195 697.993 398.697 697.225 397.701C696.463 396.705 696.082 395.348 696.082 393.629ZM697.898 393.834C697.898 395.025 698.143 395.963 698.631 396.646C699.119 397.324 699.803 397.662 700.682 397.662C701.821 397.662 702.658 397.145 703.191 396.109V391.285C702.638 390.276 701.808 389.771 700.701 389.771C699.822 389.771 699.135 390.113 698.641 390.797C698.146 391.48 697.898 392.493 697.898 393.834ZM714.266 399C714.161 398.792 714.077 398.421 714.012 397.887C713.172 398.759 712.169 399.195 711.004 399.195C709.962 399.195 709.106 398.902 708.436 398.316C707.771 397.724 707.439 396.975 707.439 396.07C707.439 394.97 707.856 394.117 708.689 393.512C709.529 392.9 710.708 392.594 712.225 392.594H713.982V391.764C713.982 391.132 713.794 390.631 713.416 390.26C713.038 389.882 712.482 389.693 711.746 389.693C711.102 389.693 710.561 389.856 710.125 390.182C709.689 390.507 709.471 390.901 709.471 391.363H707.654C707.654 390.836 707.84 390.328 708.211 389.84C708.589 389.345 709.096 388.954 709.734 388.668C710.379 388.382 711.085 388.238 711.854 388.238C713.071 388.238 714.025 388.544 714.715 389.156C715.405 389.762 715.763 390.598 715.789 391.666V396.529C715.789 397.499 715.913 398.271 716.16 398.844V399H714.266ZM711.268 397.623C711.834 397.623 712.371 397.477 712.879 397.184C713.387 396.891 713.755 396.51 713.982 396.041V393.873H712.566C710.353 393.873 709.246 394.521 709.246 395.816C709.246 396.383 709.435 396.826 709.812 397.145C710.19 397.464 710.675 397.623 711.268 397.623ZM720.33 388.434L720.389 389.762C721.196 388.746 722.251 388.238 723.553 388.238C725.786 388.238 726.912 389.498 726.932 392.018V399H725.125V392.008C725.118 391.246 724.943 390.683 724.598 390.318C724.259 389.954 723.729 389.771 723.006 389.771C722.42 389.771 721.906 389.928 721.463 390.24C721.02 390.553 720.675 390.963 720.428 391.471V399H718.621V388.434H720.33ZM736.424 389.713C737.225 388.73 738.266 388.238 739.549 388.238C741.782 388.238 742.908 389.498 742.928 392.018V399H741.121V392.008C741.115 391.246 740.939 390.683 740.594 390.318C740.255 389.954 739.725 389.771 739.002 389.771C738.416 389.771 737.902 389.928 737.459 390.24C737.016 390.553 736.671 390.963 736.424 391.471V399H734.617V384H736.424V389.713ZM750.018 399.195C748.585 399.195 747.42 398.727 746.521 397.789C745.623 396.845 745.174 395.585 745.174 394.01V393.678C745.174 392.63 745.372 391.695 745.77 390.875C746.173 390.048 746.733 389.404 747.449 388.941C748.172 388.473 748.953 388.238 749.793 388.238C751.167 388.238 752.234 388.691 752.996 389.596C753.758 390.501 754.139 391.796 754.139 393.482V394.234H746.98C747.007 395.276 747.309 396.119 747.889 396.764C748.475 397.402 749.217 397.721 750.115 397.721C750.753 397.721 751.294 397.59 751.736 397.33C752.179 397.07 752.566 396.725 752.898 396.295L754.002 397.154C753.117 398.515 751.788 399.195 750.018 399.195ZM749.793 389.723C749.064 389.723 748.452 389.99 747.957 390.523C747.462 391.051 747.156 391.793 747.039 392.75H752.332V392.613C752.28 391.695 752.033 390.986 751.59 390.484C751.147 389.977 750.548 389.723 749.793 389.723ZM761.346 390.055C761.072 390.009 760.776 389.986 760.457 389.986C759.272 389.986 758.468 390.491 758.045 391.5V399H756.238V388.434H757.996L758.025 389.654C758.618 388.71 759.458 388.238 760.545 388.238C760.896 388.238 761.163 388.284 761.346 388.375V390.055ZM767.205 399.195C765.773 399.195 764.607 398.727 763.709 397.789C762.811 396.845 762.361 395.585 762.361 394.01V393.678C762.361 392.63 762.56 391.695 762.957 390.875C763.361 390.048 763.921 389.404 764.637 388.941C765.359 388.473 766.141 388.238 766.98 388.238C768.354 388.238 769.422 388.691 770.184 389.596C770.945 390.501 771.326 391.796 771.326 393.482V394.234H764.168C764.194 395.276 764.497 396.119 765.076 396.764C765.662 397.402 766.404 397.721 767.303 397.721C767.941 397.721 768.481 397.59 768.924 397.33C769.367 397.07 769.754 396.725 770.086 396.295L771.189 397.154C770.304 398.515 768.976 399.195 767.205 399.195ZM766.98 389.723C766.251 389.723 765.639 389.99 765.145 390.523C764.65 391.051 764.344 391.793 764.227 392.75H769.52V392.613C769.467 391.695 769.22 390.986 768.777 390.484C768.335 389.977 767.736 389.723 766.98 389.723Z" fill="black"/>
<path d="M31.4844 432.402L20.7812 430.215V427.764L35 431.045V433.408L24.6191 436.113L35 438.877V441.25L20.7812 444.531V442.08L31.4648 439.873L20.7812 437.158V435.088L31.4844 432.402ZM31.4844 414.805L20.7813 412.617V410.166L35 413.447V415.811L24.6191 418.516L35 421.279V423.652L20.7813 426.934V424.482L31.4648 422.275L20.7813 419.561V417.49L31.4844 414.805ZM31.4844 397.207L20.7813 395.02V392.568L35 395.85L35 398.213L24.6191 400.918L35 403.682V406.055L20.7813 409.336V406.885L31.4648 404.678L20.7813 401.963V399.893L31.4844 397.207ZM32.5 390.918C32.5 390.475 32.627 390.133 32.8809 389.893C33.1283 389.652 33.4408 389.531 33.8184 389.531C34.1895 389.531 34.4987 389.652 34.7461 389.893C34.987 390.133 35.1074 390.475 35.1074 390.918C35.1074 391.341 34.987 391.676 34.7461 391.924C34.5052 392.171 34.196 392.295 33.8184 392.295C33.4408 392.295 33.1283 392.174 32.8809 391.934C32.627 391.693 32.5 391.354 32.5 390.918ZM27.5195 381.943L20.7813 378.672V375.938L29.7656 380.703H35V383.184H29.7656L20.7813 387.959V385.215L27.5195 381.943ZM28.2617 363.34C29.6549 363.34 30.8789 363.581 31.9336 364.062C32.9818 364.544 33.7891 365.234 34.3555 366.133C34.9154 367.025 35.1953 368.053 35.1953 369.219C35.1953 370.371 34.9154 371.4 34.3555 372.305C33.7891 373.203 32.985 373.9 31.9434 374.395C30.9017 374.883 29.7005 375.13 28.3398 375.137H27.5391C26.1523 375.137 24.9284 374.893 23.8672 374.404C22.806 373.91 21.9954 373.216 21.4355 372.324C20.8691 371.426 20.5859 370.397 20.5859 369.238C20.5859 368.079 20.8659 367.054 21.4258 366.162C21.9792 365.264 22.7799 364.57 23.8281 364.082C24.8698 363.594 26.084 363.346 27.4707 363.34H28.2617ZM27.5195 365.811C25.944 365.811 24.7363 366.11 23.8965 366.709C23.0566 367.301 22.6367 368.145 22.6367 369.238C22.6367 370.306 23.0566 371.143 23.8965 371.748C24.7298 372.347 25.9115 372.653 27.4414 372.666H28.2617C29.8242 372.666 31.0319 372.363 31.8848 371.758C32.7376 371.146 33.1641 370.299 33.1641 369.219C33.1641 368.125 32.7474 367.285 31.9141 366.699C31.0807 366.107 29.8633 365.811 28.2617 365.811H27.5195ZM20.7813 350.479H30.2832C31.7936 350.479 32.9915 350.964 33.877 351.934C34.7559 352.897 35.1953 354.183 35.1953 355.791C35.1953 357.419 34.7624 358.711 33.8965 359.668C33.0241 360.625 31.8164 361.104 30.2734 361.104H20.7813V358.643H30.293C31.2435 358.643 31.9694 358.402 32.4707 357.92C32.972 357.438 33.2227 356.729 33.2227 355.791C33.2227 353.89 32.2201 352.939 30.2148 352.939H20.7813V350.479ZM29.5215 342.607V345.361H35V347.832H20.7813V342.832C20.7813 341.191 21.1491 339.925 21.8848 339.033C22.6204 338.141 23.6849 337.695 25.0781 337.695C26.0286 337.695 26.8262 337.926 27.4707 338.389C28.1087 338.844 28.6003 339.482 28.9453 340.303L34.873 337.109H35V339.756L29.5215 342.607ZM27.5391 345.361V342.822C27.5391 341.989 27.3307 341.338 26.9141 340.869C26.4909 340.4 25.9147 340.166 25.1855 340.166C24.4238 340.166 23.8346 340.384 23.418 340.82C23.0013 341.25 22.7865 341.895 22.7734 342.754V345.361H27.5391ZM31.4844 324.199L20.7813 322.012V319.561L35 322.842V325.205L24.6191 327.91L35 330.674V333.047L20.7813 336.328L20.7813 333.877L31.4648 331.67L20.7813 328.955V326.885L31.4844 324.199ZM28.6523 309.443V315.283H33.0273V308.457H35V317.754H20.7813V308.525H22.7734V315.283H26.6992V309.443H28.6523ZM35 306.445H20.7813V301.572C20.7813 299.964 21.1035 298.74 21.748 297.9C22.3926 297.061 23.3529 296.641 24.6289 296.641C25.2799 296.641 25.8659 296.816 26.3867 297.168C26.9076 297.52 27.3112 298.034 27.5977 298.711C27.806 297.943 28.1999 297.35 28.7793 296.934C29.3522 296.51 30.0423 296.299 30.8496 296.299C32.1842 296.299 33.2096 296.729 33.9258 297.588C34.6419 298.441 35 299.665 35 301.26V306.445ZM28.584 303.975H33.0273V301.23C33.0273 300.456 32.8353 299.85 32.4512 299.414C32.0671 298.978 31.5332 298.76 30.8496 298.76C29.3717 298.76 28.6165 299.515 28.584 301.025V303.975ZM26.7676 303.975V301.553C26.7676 300.785 26.5951 300.186 26.25 299.756C25.8984 299.32 25.4036 299.102 24.7656 299.102C24.0625 299.102 23.5547 299.303 23.2422 299.707C22.9297 300.104 22.7734 300.726 22.7734 301.572V303.975H26.7676ZM31.3379 286.396C30.7129 286.396 30.2311 286.618 29.8926 287.061C29.554 287.497 29.2122 288.288 28.8672 289.434C28.5221 290.579 28.138 291.491 27.7148 292.168C26.901 293.464 25.8398 294.111 24.5313 294.111C23.3854 294.111 22.4414 293.646 21.6992 292.715C20.957 291.777 20.5859 290.563 20.5859 289.072C20.5859 288.083 20.7682 287.201 21.1328 286.426C21.4974 285.651 22.0182 285.042 22.6953 284.6C23.3659 284.157 24.1113 283.936 24.9316 283.936V286.396C24.1895 286.396 23.61 286.631 23.1934 287.1C22.7702 287.562 22.5586 288.226 22.5586 289.092C22.5586 289.899 22.7311 290.527 23.0762 290.977C23.4212 291.419 23.903 291.641 24.5215 291.641C25.0423 291.641 25.4785 291.4 25.8301 290.918C26.1751 290.436 26.5137 289.642 26.8457 288.535C27.1712 287.428 27.5456 286.54 27.9688 285.869C28.3854 285.199 28.8672 284.707 29.4141 284.395C29.9544 284.082 30.5892 283.926 31.3184 283.926C32.5033 283.926 33.4473 284.382 34.1504 285.293C34.847 286.198 35.1953 287.428 35.1953 288.984C35.1953 290.013 35.0065 290.96 34.6289 291.826C34.2448 292.686 33.7174 293.356 33.0469 293.838C32.3763 294.313 31.5951 294.551 30.7031 294.551L30.7031 292.08C31.5104 292.08 32.1354 291.813 32.5781 291.279C33.0208 290.745 33.2422 289.98 33.2422 288.984C33.2422 288.125 33.0697 287.48 32.7246 287.051C32.373 286.615 31.9108 286.396 31.3379 286.396ZM35 279.15V281.611H20.7813V279.15H35ZM22.7734 266.133V270.566H35V273.018H22.7734V277.412H20.7813L20.7813 266.133H22.7734ZM28.6523 255.947V261.787H33.0273V254.961H35V264.258H20.7813V255.029H22.7734V261.787H26.6992V255.947H28.6523ZM35 241.66V244.121H28.6816V250.479H35V252.949H20.7813V250.479H26.6992V244.121H20.7813V241.66H35ZM28.6523 230.42V236.26H33.0273V229.434H35L35 238.73H20.7813L20.7813 229.502H22.7734L22.7734 236.26H26.6992V230.42H28.6523ZM29.5215 222.197V224.951H35V227.422H20.7813V222.422C20.7813 220.781 21.1491 219.515 21.8848 218.623C22.6204 217.731 23.6849 217.285 25.0781 217.285C26.0286 217.285 26.8262 217.516 27.4707 217.979C28.1087 218.434 28.6003 219.072 28.9453 219.893L34.873 216.699H35V219.346L29.5215 222.197ZM27.5391 224.951V222.412C27.5391 221.579 27.3307 220.928 26.9141 220.459C26.4909 219.99 25.9147 219.756 25.1855 219.756C24.4238 219.756 23.8346 219.974 23.418 220.41C23.0013 220.84 22.7865 221.484 22.7734 222.344V224.951H27.5391ZM28.6523 206.631V212.471H33.0273V205.645H35V214.941H20.7813L20.7813 205.713H22.7734L22.7734 212.471H26.6992V206.631H28.6523ZM32.5 202.383C32.5 201.94 32.627 201.598 32.8809 201.357C33.1283 201.117 33.4408 200.996 33.8184 200.996C34.1895 200.996 34.4987 201.117 34.7461 201.357C34.987 201.598 35.1074 201.94 35.1074 202.383C35.1074 202.806 34.987 203.141 34.7461 203.389C34.5052 203.636 34.196 203.76 33.8184 203.76C33.4408 203.76 33.1283 203.639 32.8809 203.398C32.627 203.158 32.5 202.819 32.5 202.383ZM30.3711 187.197C31.888 187.34 33.0729 187.9 33.9258 188.877C34.7721 189.854 35.1953 191.152 35.1953 192.773C35.1953 193.906 34.9284 194.906 34.3945 195.771C33.8542 196.631 33.0892 197.295 32.0996 197.764C31.11 198.232 29.9609 198.477 28.6523 198.496H27.3242C25.9831 198.496 24.8014 198.258 23.7793 197.783C22.7572 197.308 21.9694 196.628 21.416 195.742C20.8626 194.85 20.5859 193.822 20.5859 192.656C20.5859 191.087 21.0124 189.824 21.8652 188.867C22.7181 187.91 23.9225 187.354 25.4785 187.197V189.658C24.4564 189.775 23.7207 190.075 23.2715 190.557C22.8158 191.032 22.5879 191.732 22.5879 192.656C22.5879 193.73 22.9818 194.557 23.7695 195.137C24.5508 195.71 25.6999 196.003 27.2168 196.016H28.4766C30.013 196.016 31.1849 195.742 31.9922 195.195C32.7995 194.642 33.2031 193.835 33.2031 192.773C33.2031 191.803 32.985 191.074 32.5488 190.586C32.1126 190.098 31.3867 189.788 30.3711 189.658V187.197ZM28.2617 173.633C29.6549 173.633 30.8789 173.874 31.9336 174.355C32.9818 174.837 33.7891 175.527 34.3555 176.426C34.9154 177.318 35.1953 178.346 35.1953 179.512C35.1953 180.664 34.9154 181.693 34.3555 182.598C33.7891 183.496 32.985 184.193 31.9434 184.688C30.9017 185.176 29.7005 185.423 28.3398 185.43H27.5391C26.1523 185.43 24.9284 185.186 23.8672 184.697C22.806 184.202 21.9954 183.509 21.4355 182.617C20.8691 181.719 20.5859 180.69 20.5859 179.531C20.5859 178.372 20.8659 177.347 21.4258 176.455C21.9792 175.557 22.7799 174.863 23.8281 174.375C24.8698 173.887 26.084 173.639 27.4707 173.633H28.2617ZM27.5195 176.104C25.944 176.104 24.7363 176.403 23.8965 177.002C23.0566 177.594 22.6367 178.438 22.6367 179.531C22.6367 180.599 23.0566 181.436 23.8965 182.041C24.7298 182.64 25.9115 182.946 27.4414 182.959H28.2617C29.8242 182.959 31.0319 182.656 31.8848 182.051C32.7376 181.439 33.1641 180.592 33.1641 179.512C33.1641 178.418 32.7474 177.578 31.9141 176.992C31.0807 176.4 29.8633 176.104 28.2617 176.104H27.5195ZM20.7813 167.969L31.6797 163.867L20.7813 159.775V156.582H35V159.043H30.3125L24.043 158.799L35 162.998V164.766L24.0527 168.955L30.3125 168.711H35V171.172H20.7813L20.7813 167.969Z" fill="white"/>
</g>
<defs>
<filter id="filter0_d" x="125" y="0" width="319" height="329.5" filterUnits="userSpaceOnUse" color-interpolation-filters="sRGB">
<feFlood flood-opacity="0" result="BackgroundImageFix"/>
<feColorMatrix in="SourceAlpha" type="matrix" values="0 0 0 0 0 0 0 0 0 0 0 0 0 0 0 0 0 0 127 0"/>
<feOffset dx="-4" dy="4"/>
<feGaussianBlur stdDeviation="2"/>
<feColorMatrix type="matrix" values="0 0 0 0 0 0 0 0 0 0 0 0 0 0 0 0 0 0 0.25 0"/>
<feBlend mode="normal" in2="BackgroundImageFix" result="effect1_dropShadow"/>
<feBlend mode="normal" in="SourceGraphic" in2="effect1_dropShadow" result="shape"/>
</filter>
<filter id="filter1_d" x="129" y="221" width="514" height="387" filterUnits="userSpaceOnUse" color-interpolation-filters="sRGB">
<feFlood flood-opacity="0" result="BackgroundImageFix"/>
<feColorMatrix in="SourceAlpha" type="matrix" values="0 0 0 0 0 0 0 0 0 0 0 0 0 0 0 0 0 0 127 0"/>
<feOffset dy="4"/>
<feGaussianBlur stdDeviation="2"/>
<feColorMatrix type="matrix" values="0 0 0 0 0 0 0 0 0 0 0 0 0 0 0 0 0 0 0.25 0"/>
<feBlend mode="normal" in2="BackgroundImageFix" result="effect1_dropShadow"/>
<feBlend mode="normal" in="SourceGraphic" in2="effect1_dropShadow" result="shape"/>
</filter>
<filter id="filter2_d" x="121" y="221" width="361" height="387" filterUnits="userSpaceOnUse" color-interpolation-filters="sRGB">
<feFlood flood-opacity="0" result="BackgroundImageFix"/>
<feColorMatrix in="SourceAlpha" type="matrix" values="0 0 0 0 0 0 0 0 0 0 0 0 0 0 0 0 0 0 127 0"/>
<feOffset dx="-8" dy="4"/>
<feGaussianBlur stdDeviation="2"/>
<feColorMatrix type="matrix" values="0 0 0 0 0 0 0 0 0 0 0 0 0 0 0 0 0 0 0.25 0"/>
<feBlend mode="normal" in2="BackgroundImageFix" result="effect1_dropShadow"/>
<feBlend mode="normal" in="SourceGraphic" in2="effect1_dropShadow" result="shape"/>
</filter>
<linearGradient id="paint0_linear" x1="332.5" y1="0" x2="332.5" y2="405" gradientUnits="userSpaceOnUse">
<stop stop-color="#DE7147"/>
<stop offset="1" stop-color="#F3983E"/>
</linearGradient>
<linearGradient id="paint1_linear" x1="288.5" y1="0" x2="288.5" y2="273" gradientUnits="userSpaceOnUse">
<stop stop-color="#FDC908"/>
<stop offset="1" stop-color="#E0433D"/>
</linearGradient>
<linearGradient id="paint2_linear" x1="386" y1="221" x2="386" y2="600" gradientUnits="userSpaceOnUse">
<stop stop-color="#E1AE1D"/>
<stop offset="1" stop-color="#F6C707"/>
</linearGradient>
<linearGradient id="paint3_linear" x1="307.5" y1="221" x2="307.5" y2="600" gradientUnits="userSpaceOnUse">
<stop stop-color="#FBCA0E"/>
<stop offset="1" stop-color="#F39F39"/>
</linearGradient>
<clipPath id="clip0">
<rect width="1050" height="600" fill="white" transform="matrix(-1 0 0 1 1050 0)"/>
</clipPath>
</defs>
</svg>
