<svg width="1050" height="600" viewBox="0 0 1050 600" fill="none" xmlns="http://www.w3.org/2000/svg">
<g clip-path="url(#clip0)">
<rect width="1050" height="600" fill="#212C35"/>
<g filter="url(#filter0_d)">
<path d="M480 0L0 276V0H480Z" fill="#FD1E23"/>
</g>
<g filter="url(#filter1_d)">
<path d="M-8 0V146L768 0H-8Z" fill="#FD1E23"/>
</g>
<g filter="url(#filter2_d)">
<path d="M582 600L1062 324V600L582 600Z" fill="#FD1E23"/>
</g>
<g filter="url(#filter3_d)">
<path d="M1062 600V455L257 600L1062 600Z" fill="#FD1E23"/>
</g>
<path d="M608.095 189.396V246.272C608.092 250.549 606.966 254.75 604.828 258.453C602.69 262.157 599.616 265.234 595.914 267.376L592.143 269.548L592.124 269.567H592.104C592.084 269.567 592.064 269.587 592.025 269.607L536.728 301.529C533.02 303.663 528.816 304.786 524.538 304.786C520.259 304.786 516.056 303.663 512.347 301.529L453.201 267.376C449.068 264.992 445.731 261.442 443.607 257.169C443.585 257.127 443.559 257.087 443.528 257.051C443.519 257.028 443.506 257.008 443.488 256.992V256.972C443.477 256.962 443.47 256.948 443.468 256.933C441.846 253.613 441.002 249.967 441.001 246.272V190.225C440.991 189.168 441.071 188.111 441.238 187.067C451.506 207.297 468.739 223.136 489.763 231.663V232.176L514.874 246.687C517.819 248.384 521.158 249.278 524.558 249.278C527.957 249.278 531.296 248.384 534.241 246.687L559.352 232.176V232.038C580.272 223.805 597.555 208.357 608.075 188.488C608.095 188.804 608.095 189.09 608.095 189.396Z" fill="#2EEFFA"/>
<path d="M489.763 189.396V231.663C468.739 223.135 451.506 207.297 441.238 187.066C441.354 186.062 441.532 185.067 441.771 184.085C442.371 181.604 443.343 179.228 444.653 177.037C446.62 173.637 449.387 170.769 452.713 168.68C456.04 166.592 459.826 165.347 463.743 165.054C467.076 164.832 470.42 165.296 473.566 166.419C476.712 167.542 479.594 169.299 482.033 171.581C484.472 173.863 486.417 176.621 487.747 179.686C489.077 182.75 489.763 186.055 489.763 189.396Z" fill="#FD1E23"/>
<path d="M608.074 188.497C597.555 208.366 580.272 223.814 559.352 232.047V190.234C559.276 183.943 561.579 177.855 565.799 173.188C570.02 168.521 575.846 165.619 582.114 165.064C586.555 164.762 590.993 165.684 594.946 167.729C594.951 167.729 594.956 167.731 594.96 167.735C594.964 167.738 594.966 167.743 594.966 167.749C594.984 167.759 595.004 167.766 595.025 167.768C598.232 169.456 601.024 171.835 603.198 174.734C605.373 177.633 606.877 180.978 607.6 184.529C607.87 185.836 608.028 187.163 608.074 188.497Z" fill="#FD1E23"/>
<g style="mix-blend-mode:multiply" opacity="0.08">
<g style="mix-blend-mode:multiply" opacity="0.08">
<path d="M489.763 212.305V231.672C468.739 223.144 451.506 207.306 441.238 187.075C441.354 186.071 441.532 185.076 441.771 184.094C452.017 191.635 470.307 204.053 489.763 212.305Z" fill="#01E4F3"/>
</g>
</g>
<g style="mix-blend-mode:multiply" opacity="0.08">
<g style="mix-blend-mode:multiply" opacity="0.08">
<path d="M608.074 188.498C597.554 208.367 580.271 223.815 559.351 232.048V212.385C576.39 204.863 592.566 195.524 607.6 184.53C607.869 185.837 608.028 187.164 608.074 188.498Z" fill="#01E4F3"/>
</g>
</g>
<g style="mix-blend-mode:screen" opacity="0.4">
<g style="mix-blend-mode:screen" opacity="0.4">
<path d="M602.171 246.203V246.282C602.163 249.517 601.307 252.694 599.69 255.496C598.072 258.298 595.749 260.628 592.952 262.253L533.766 296.406C530.959 298.023 527.776 298.874 524.537 298.874C521.297 298.874 518.115 298.023 515.308 296.406L469.309 269.853L469.151 269.755L456.161 262.253C453.577 260.756 451.393 258.657 449.794 256.134C448.196 253.611 447.231 250.739 446.981 247.763C468.975 263.439 495.253 271.982 522.26 272.237C549.267 272.491 575.701 264.444 597.986 249.184L598.183 249.046L598.282 248.987C599.615 248.079 600.888 247.151 602.171 246.203Z" fill="white"/>
</g>
</g>
<g style="mix-blend-mode:screen" opacity="0.6">
<g style="mix-blend-mode:screen" opacity="0.6">
<path d="M443.488 256.98C443.508 257 443.508 257.02 443.528 257.06C443.519 257.037 443.506 257.017 443.488 257V256.98Z" fill="white"/>
</g>
</g>
<g style="mix-blend-mode:multiply" opacity="0.25">
<g style="mix-blend-mode:multiply" opacity="0.25">
<path d="M592.025 269.614L536.728 301.536C533.02 303.67 528.816 304.794 524.538 304.794C520.259 304.794 516.055 303.67 512.347 301.536L453.201 267.383C449.068 264.999 445.73 261.449 443.606 257.177C443.764 257.453 444.061 257.927 444.495 258.578C445.532 260.056 446.716 261.426 448.029 262.665C450.058 264.556 452.377 266.109 454.899 267.265C457.82 268.765 461.117 270.463 464.671 272.378C471.837 276.129 480.129 280.61 488.953 285.506C493.356 287.974 497.936 290.461 502.535 293.107C504.845 294.429 507.155 295.752 509.485 297.075L512.979 299.069C514.041 299.697 515.15 300.245 516.295 300.707C520.79 302.573 525.778 302.886 530.47 301.596C532.812 300.923 535.05 299.934 537.123 298.654C539.393 297.391 541.624 296.147 543.835 294.923C552.679 290.027 560.971 285.546 568.117 281.795C581.522 274.678 590.899 270.137 592.025 269.614Z" fill="#01E4F3"/>
</g>
</g>
<g style="mix-blend-mode:multiply" opacity="0.25">
<g style="mix-blend-mode:multiply" opacity="0.25">
<path d="M608.075 188.496L606.239 192.247L604.225 195.938L602.034 199.511L599.665 202.986L597.118 206.342L594.433 209.6L591.571 212.719L588.57 215.7L585.431 218.543L582.154 221.247L578.758 223.794L575.244 226.183L571.612 228.413L567.881 230.486L564.051 232.362L561.267 233.566L560.438 234.059C554.832 237.396 549.245 240.772 543.599 244.049L535.09 248.984C531.866 250.782 528.239 251.733 524.548 251.748C522.709 251.739 520.879 251.5 519.099 251.037C518.214 250.798 517.344 250.508 516.493 250.169C515.654 249.831 514.836 249.442 514.045 249.004L505.517 244.049C499.871 240.772 494.284 237.396 488.677 234.079L487.572 233.428V233.072L485.005 231.927L481.175 229.993L477.444 227.861L473.812 225.571L470.298 223.103L466.882 220.497L463.625 217.733L460.506 214.811L457.525 211.771L454.682 208.573L452.017 205.256L449.49 201.841L447.16 198.288L444.989 194.655L443.015 190.904L441.238 187.074L443.429 190.687L445.759 194.161L448.226 197.557L450.813 200.834L453.537 203.993L456.38 207.033L459.361 209.935L462.421 212.719L465.619 215.364L468.935 217.852L472.311 220.221L475.805 222.412L479.379 224.465L483.051 226.36L486.782 228.097L489.763 229.321V232.184L514.874 246.694C517.819 248.392 521.159 249.285 524.558 249.285C527.957 249.285 531.296 248.392 534.241 246.694L559.352 232.184V229.716L562.353 228.512L566.065 226.834L569.717 225.018L573.29 223.024L576.765 220.872L580.16 218.582L583.477 216.154L586.675 213.587L589.755 210.863L592.736 208.02L595.618 205.059L598.362 201.959L600.988 198.761L603.475 195.445L605.844 192.01L608.075 188.496Z" fill="#01E4F3"/>
</g>
</g>
<g style="mix-blend-mode:screen" opacity="0.4">
<g style="mix-blend-mode:screen" opacity="0.4">
<path d="M597.986 249.182L594.195 251.926L589.971 254.69C587.088 256.467 584.16 258.139 581.186 259.705C578.185 261.264 575.118 262.686 571.986 263.969C568.854 265.252 565.682 266.423 562.471 267.483C556.035 269.613 549.431 271.198 542.729 272.221C539.373 272.754 535.997 273.129 532.601 273.386C529.146 273.662 525.869 273.761 522.434 273.741C519.039 273.741 515.643 273.583 512.248 273.326L507.174 272.813L502.14 272.103L497.125 271.175L492.151 270.069L487.235 268.766L482.359 267.246L477.561 265.548L472.843 263.653L468.184 261.58L463.624 259.33L459.182 256.862L454.819 254.236L450.574 251.453L448.186 249.755C449.057 254.297 451.609 258.343 455.332 261.087C456.457 261.876 457.622 262.548 458.807 263.298L462.321 265.45L469.151 269.753L456.161 262.251C453.577 260.754 451.393 258.655 449.794 256.132C448.196 253.609 447.231 250.737 446.981 247.761C468.975 263.437 495.253 271.981 522.26 272.235C549.267 272.489 575.701 264.442 597.986 249.182Z" fill="white"/>
</g>
</g>
<g style="mix-blend-mode:screen" opacity="0.5">
<g style="mix-blend-mode:screen" opacity="0.5">
<path d="M489.763 189.396V208.288C489.763 208.288 489.092 203.136 488.638 195.417C488.5 193.502 488.381 191.389 488.283 189.198C488.132 187.036 487.714 184.901 487.039 182.841C485.539 178.407 482.765 174.513 479.063 171.648C477.193 170.213 475.125 169.056 472.923 168.213C470.789 167.451 468.567 166.961 466.31 166.752C465.698 166.752 465.106 166.732 464.514 166.732L463.724 166.712L462.914 166.772C461.859 166.827 460.809 166.965 459.775 167.186C457.849 167.596 455.98 168.24 454.208 169.101C451.5 170.442 449.043 172.238 446.943 174.412C446.173 175.221 445.581 175.872 445.206 176.346C444.93 176.702 444.732 176.939 444.653 177.037C446.62 173.637 449.387 170.769 452.714 168.68C456.04 166.592 459.827 165.347 463.744 165.054C467.077 164.832 470.42 165.296 473.566 166.419C476.712 167.542 479.594 169.299 482.033 171.581C484.473 173.863 486.418 176.621 487.747 179.686C489.077 182.75 489.763 186.055 489.763 189.396Z" fill="white"/>
</g>
</g>
<g style="mix-blend-mode:screen" opacity="0.5">
<g style="mix-blend-mode:screen" opacity="0.5">
<path d="M594.946 167.729C594.709 167.65 593.84 167.374 592.458 167.038C590.255 166.503 587.995 166.231 585.727 166.229C584.243 166.236 582.763 166.375 581.304 166.643C580.517 166.766 579.738 166.945 578.975 167.176C578.6 167.295 578.205 167.393 577.81 167.512C577.415 167.63 577.02 167.808 576.626 167.946C575.036 168.594 573.509 169.387 572.065 170.315C570.597 171.304 569.24 172.449 568.018 173.73C566.768 174.985 565.662 176.376 564.721 177.876C563.797 179.344 563.017 180.897 562.392 182.515C562.082 183.282 561.818 184.066 561.602 184.865C561.367 185.615 561.182 186.38 561.049 187.155C560.888 187.924 560.769 188.702 560.694 189.484L560.635 190.057C560.615 190.136 560.595 190.294 560.595 190.294L560.576 190.57C560.536 190.945 560.516 191.32 560.477 191.676C560.003 197.48 559.352 201.329 559.352 201.329V190.234C559.276 183.943 561.579 177.855 565.799 173.188C570.02 168.521 575.846 165.619 582.114 165.064C586.555 164.762 590.993 165.684 594.946 167.729Z" fill="white"/>
</g>
</g>
<path d="M425.647 368.896C425.481 371.19 424.632 372.997 423.099 374.315C421.575 375.634 419.563 376.293 417.063 376.293C414.329 376.293 412.176 375.375 410.604 373.539C409.041 371.693 408.26 369.164 408.26 365.951V364.647C408.26 362.597 408.621 360.79 409.344 359.228C410.066 357.665 411.097 356.469 412.435 355.639C413.782 354.799 415.345 354.379 417.122 354.379C419.583 354.379 421.565 355.038 423.069 356.356C424.573 357.675 425.442 359.525 425.677 361.908H421.282C421.175 360.531 420.789 359.535 420.125 358.92C419.471 358.295 418.47 357.982 417.122 357.982C415.657 357.982 414.559 358.51 413.826 359.564C413.104 360.609 412.732 362.235 412.713 364.442V366.054C412.713 368.358 413.06 370.043 413.753 371.107C414.456 372.172 415.56 372.704 417.063 372.704C418.421 372.704 419.432 372.396 420.096 371.781C420.77 371.156 421.155 370.194 421.253 368.896H425.647ZM446.053 365.819C446.053 367.919 445.682 369.76 444.939 371.342C444.197 372.924 443.133 374.145 441.746 375.004C440.369 375.863 438.787 376.293 437 376.293C435.232 376.293 433.655 375.868 432.269 375.019C430.882 374.169 429.808 372.958 429.046 371.386C428.284 369.804 427.898 367.987 427.889 365.937V364.882C427.889 362.782 428.265 360.937 429.017 359.345C429.778 357.743 430.848 356.518 432.225 355.668C433.611 354.809 435.193 354.379 436.971 354.379C438.748 354.379 440.325 354.809 441.702 355.668C443.089 356.518 444.158 357.743 444.91 359.345C445.672 360.937 446.053 362.777 446.053 364.867V365.819ZM441.6 364.853C441.6 362.616 441.199 360.917 440.398 359.755C439.598 358.593 438.455 358.012 436.971 358.012C435.496 358.012 434.358 358.588 433.558 359.74C432.757 360.883 432.352 362.562 432.342 364.779V365.819C432.342 367.997 432.742 369.687 433.543 370.888C434.344 372.089 435.496 372.689 437 372.689C438.475 372.689 439.607 372.113 440.398 370.961C441.189 369.799 441.59 368.109 441.6 365.893V364.853ZM454.988 354.672L460.467 370.141L465.916 354.672H471.688V376H467.278V370.17L467.718 360.106L461.961 376H458.943L453.201 360.121L453.641 370.17V376H449.246V354.672H454.988ZM479.92 368.485V376H475.525V354.672H483.846C485.447 354.672 486.854 354.965 488.064 355.551C489.285 356.137 490.223 356.972 490.877 358.056C491.531 359.13 491.858 360.355 491.858 361.732C491.858 363.822 491.141 365.473 489.705 366.684C488.279 367.885 486.302 368.485 483.772 368.485H479.92ZM479.92 364.926H483.846C485.008 364.926 485.892 364.652 486.497 364.105C487.112 363.559 487.42 362.777 487.42 361.762C487.42 360.717 487.112 359.872 486.497 359.228C485.882 358.583 485.032 358.251 483.948 358.231H479.92V364.926ZM504.324 371.605H496.619L495.154 376H490.481L498.421 354.672H502.493L510.477 376H505.804L504.324 371.605ZM497.806 368.046H503.138L500.457 360.062L497.806 368.046ZM529.812 376H525.418L516.863 361.967V376H512.469V354.672H516.863L525.433 368.734V354.672H529.812V376ZM540.594 364.281L545.032 354.672H549.837L542.835 368.266V376H538.367V368.266L531.365 354.672H536.185L540.594 364.281ZM576.6 376H572.205L563.65 361.967V376H559.256V354.672H563.65L572.22 368.734V354.672H576.6V376ZM592.742 371.605H585.037L583.572 376H578.899L586.839 354.672H590.911L598.895 376H594.222L592.742 371.605ZM586.224 368.046H591.556L588.875 360.062L586.224 368.046ZM606.629 354.672L612.107 370.141L617.557 354.672H623.328V376H618.919V370.17L619.358 360.106L613.602 376H610.584L604.842 360.121L605.281 370.17V376H600.887V354.672H606.629ZM639.998 366.757H631.561V372.47H641.463V376H627.166V354.672H641.434V358.231H631.561V363.314H639.998V366.757Z" fill="white"/>
<path d="M456.766 405.756C456.766 404.574 456.351 403.642 455.521 402.958C454.69 402.265 453.172 401.61 450.965 400.995C448.758 400.37 447.146 399.691 446.131 398.959C444.686 397.924 443.963 396.566 443.963 394.887C443.963 393.256 444.632 391.933 445.97 390.917C447.317 389.892 449.036 389.379 451.126 389.379C452.542 389.379 453.807 389.652 454.92 390.199C456.043 390.746 456.912 391.508 457.527 392.484C458.143 393.461 458.45 394.55 458.45 395.751H456.634C456.634 394.296 456.136 393.129 455.14 392.25C454.144 391.361 452.806 390.917 451.126 390.917C449.495 390.917 448.196 391.283 447.229 392.016C446.263 392.738 445.779 393.686 445.779 394.857C445.779 395.941 446.214 396.825 447.083 397.509C447.952 398.192 449.344 398.798 451.258 399.325C453.172 399.843 454.622 400.385 455.608 400.951C456.595 401.508 457.337 402.177 457.835 402.958C458.333 403.739 458.582 404.662 458.582 405.727C458.582 407.406 457.908 408.754 456.561 409.77C455.223 410.785 453.455 411.293 451.258 411.293C449.754 411.293 448.372 411.024 447.112 410.487C445.862 409.95 444.91 409.198 444.256 408.231C443.611 407.265 443.289 406.156 443.289 404.906H445.091C445.091 406.41 445.652 407.597 446.775 408.466C447.898 409.335 449.393 409.77 451.258 409.77C452.918 409.77 454.251 409.403 455.257 408.671C456.263 407.938 456.766 406.967 456.766 405.756ZM464.031 411H462.273V388.5H464.031V411ZM467.84 402.841C467.84 401.317 468.133 399.945 468.719 398.725C469.314 397.504 470.149 396.557 471.224 395.883C472.308 395.199 473.533 394.857 474.9 394.857C477.01 394.857 478.719 395.6 480.027 397.084C481.336 398.559 481.99 400.517 481.99 402.958V403.324C481.99 404.857 481.692 406.239 481.097 407.47C480.511 408.69 479.681 409.633 478.606 410.297C477.532 410.961 476.307 411.293 474.93 411.293C472.83 411.293 471.121 410.556 469.803 409.081C468.494 407.597 467.84 405.634 467.84 403.192V402.841ZM469.598 403.324C469.598 405.219 470.086 406.776 471.062 407.997C472.049 409.208 473.338 409.813 474.93 409.813C476.512 409.813 477.791 409.208 478.768 407.997C479.754 406.776 480.247 405.17 480.247 403.178V402.841C480.247 401.63 480.022 400.521 479.573 399.516C479.124 398.51 478.494 397.733 477.684 397.187C476.873 396.63 475.945 396.352 474.9 396.352C473.338 396.352 472.063 396.967 471.077 398.197C470.091 399.418 469.598 401.02 469.598 403.002V403.324ZM484.92 402.929C484.92 400.448 485.467 398.485 486.561 397.04C487.664 395.585 489.158 394.857 491.043 394.857C493.201 394.857 494.842 395.717 495.965 397.436L496.053 395.15H497.693V410.678C497.693 412.719 497.122 414.335 495.979 415.526C494.837 416.718 493.289 417.313 491.336 417.313C490.232 417.313 489.178 417.064 488.172 416.566C487.176 416.078 486.39 415.424 485.813 414.604L486.795 413.549C488.035 415.072 489.51 415.834 491.219 415.834C492.684 415.834 493.826 415.399 494.646 414.53C495.467 413.671 495.892 412.475 495.921 410.941V408.949C494.798 410.512 493.162 411.293 491.014 411.293C489.178 411.293 487.703 410.561 486.59 409.096C485.477 407.631 484.92 405.653 484.92 403.163V402.929ZM486.692 403.236C486.692 405.258 487.098 406.854 487.908 408.026C488.719 409.188 489.861 409.77 491.336 409.77C493.494 409.77 495.022 408.803 495.921 406.869V399.501C495.511 398.485 494.92 397.714 494.148 397.187C493.377 396.649 492.449 396.381 491.365 396.381C489.891 396.381 488.743 396.962 487.923 398.124C487.103 399.276 486.692 400.98 486.692 403.236ZM512.269 411C512.093 410.502 511.98 409.765 511.932 408.788C511.316 409.589 510.53 410.209 509.573 410.648C508.626 411.078 507.62 411.293 506.556 411.293C505.032 411.293 503.797 410.868 502.85 410.019C501.912 409.169 501.443 408.095 501.443 406.796C501.443 405.253 502.083 404.032 503.362 403.134C504.651 402.235 506.443 401.786 508.738 401.786H511.917V399.984C511.917 398.852 511.565 397.963 510.862 397.318C510.169 396.664 509.153 396.337 507.815 396.337C506.595 396.337 505.584 396.649 504.783 397.274C503.982 397.899 503.582 398.651 503.582 399.53L501.824 399.516C501.824 398.256 502.41 397.167 503.582 396.249C504.754 395.321 506.194 394.857 507.903 394.857C509.671 394.857 511.062 395.302 512.078 396.19C513.104 397.069 513.631 398.3 513.66 399.882V407.382C513.66 408.915 513.821 410.062 514.144 410.824V411H512.269ZM506.761 409.74C507.933 409.74 508.978 409.457 509.896 408.891C510.823 408.324 511.497 407.567 511.917 406.62V403.134H508.782C507.034 403.153 505.667 403.476 504.681 404.101C503.694 404.716 503.201 405.565 503.201 406.649C503.201 407.538 503.528 408.275 504.183 408.861C504.847 409.447 505.706 409.74 506.761 409.74ZM520.018 395.15L520.076 397.86C520.672 396.884 521.414 396.142 522.303 395.634C523.191 395.116 524.173 394.857 525.247 394.857C526.946 394.857 528.211 395.336 529.041 396.293C529.871 397.25 530.291 398.686 530.301 400.6V411H528.558V400.585C528.548 399.169 528.245 398.114 527.649 397.421C527.063 396.728 526.121 396.381 524.822 396.381C523.738 396.381 522.776 396.723 521.937 397.406C521.106 398.08 520.491 398.993 520.091 400.146V411H518.348V395.15H520.018ZM558.353 411H556.536V400.775H544.349V411H542.547V389.672H544.349V399.252H556.536V389.672H558.353V411ZM569.515 411.293C568.167 411.293 566.946 410.961 565.853 410.297C564.769 409.633 563.924 408.71 563.318 407.528C562.713 406.337 562.41 405.004 562.41 403.529V402.899C562.41 401.376 562.703 400.004 563.289 398.783C563.885 397.562 564.71 396.605 565.765 395.912C566.819 395.209 567.962 394.857 569.192 394.857C571.116 394.857 572.64 395.517 573.763 396.835C574.896 398.144 575.462 399.936 575.462 402.211V403.192H564.153V403.529C564.153 405.326 564.666 406.825 565.691 408.026C566.727 409.218 568.025 409.813 569.588 409.813C570.525 409.813 571.351 409.643 572.063 409.301C572.786 408.959 573.44 408.412 574.026 407.66L575.125 408.495C573.836 410.36 571.966 411.293 569.515 411.293ZM569.192 396.352C567.874 396.352 566.761 396.835 565.853 397.802C564.954 398.769 564.407 400.067 564.212 401.698H573.719V401.508C573.67 399.984 573.235 398.744 572.415 397.787C571.595 396.83 570.521 396.352 569.192 396.352ZM586.199 396.645C585.828 396.576 585.433 396.542 585.013 396.542C583.919 396.542 582.991 396.85 582.229 397.465C581.478 398.07 580.94 398.954 580.618 400.116V411H578.875V395.15H580.589L580.618 397.67C581.546 395.795 583.035 394.857 585.086 394.857C585.574 394.857 585.96 394.921 586.243 395.048L586.199 396.645ZM594.827 411.293C593.479 411.293 592.259 410.961 591.165 410.297C590.081 409.633 589.236 408.71 588.631 407.528C588.025 406.337 587.723 405.004 587.723 403.529V402.899C587.723 401.376 588.016 400.004 588.602 398.783C589.197 397.562 590.022 396.605 591.077 395.912C592.132 395.209 593.274 394.857 594.505 394.857C596.429 394.857 597.952 395.517 599.075 396.835C600.208 398.144 600.774 399.936 600.774 402.211V403.192H589.466V403.529C589.466 405.326 589.979 406.825 591.004 408.026C592.039 409.218 593.338 409.813 594.9 409.813C595.838 409.813 596.663 409.643 597.376 409.301C598.099 408.959 598.753 408.412 599.339 407.66L600.438 408.495C599.148 410.36 597.278 411.293 594.827 411.293ZM594.505 396.352C593.187 396.352 592.073 396.835 591.165 397.802C590.267 398.769 589.72 400.067 589.524 401.698H599.031V401.508C598.982 399.984 598.548 398.744 597.728 397.787C596.907 396.83 595.833 396.352 594.505 396.352Z" fill="white"/>
</g>
<defs>
<filter id="filter0_d" x="-4" y="0" width="488" height="290" filterUnits="userSpaceOnUse" color-interpolation-filters="sRGB">
<feFlood flood-opacity="0" result="BackgroundImageFix"/>
<feColorMatrix in="SourceAlpha" type="matrix" values="0 0 0 0 0 0 0 0 0 0 0 0 0 0 0 0 0 0 127 0"/>
<feOffset dy="10"/>
<feGaussianBlur stdDeviation="2"/>
<feColorMatrix type="matrix" values="0 0 0 0 0 0 0 0 0 0 0 0 0 0 0 0 0 0 0.25 0"/>
<feBlend mode="normal" in2="BackgroundImageFix" result="effect1_dropShadow"/>
<feBlend mode="normal" in="SourceGraphic" in2="effect1_dropShadow" result="shape"/>
</filter>
<filter id="filter1_d" x="-12" y="0" width="784" height="160" filterUnits="userSpaceOnUse" color-interpolation-filters="sRGB">
<feFlood flood-opacity="0" result="BackgroundImageFix"/>
<feColorMatrix in="SourceAlpha" type="matrix" values="0 0 0 0 0 0 0 0 0 0 0 0 0 0 0 0 0 0 127 0"/>
<feOffset dy="10"/>
<feGaussianBlur stdDeviation="2"/>
<feColorMatrix type="matrix" values="0 0 0 0 0 0 0 0 0 0 0 0 0 0 0 0 0 0 0.25 0"/>
<feBlend mode="normal" in2="BackgroundImageFix" result="effect1_dropShadow"/>
<feBlend mode="normal" in="SourceGraphic" in2="effect1_dropShadow" result="shape"/>
</filter>
<filter id="filter2_d" x="578" y="310" width="488" height="290" filterUnits="userSpaceOnUse" color-interpolation-filters="sRGB">
<feFlood flood-opacity="0" result="BackgroundImageFix"/>
<feColorMatrix in="SourceAlpha" type="matrix" values="0 0 0 0 0 0 0 0 0 0 0 0 0 0 0 0 0 0 127 0"/>
<feOffset dy="-10"/>
<feGaussianBlur stdDeviation="2"/>
<feColorMatrix type="matrix" values="0 0 0 0 0 0 0 0 0 0 0 0 0 0 0 0 0 0 0.25 0"/>
<feBlend mode="normal" in2="BackgroundImageFix" result="effect1_dropShadow"/>
<feBlend mode="normal" in="SourceGraphic" in2="effect1_dropShadow" result="shape"/>
</filter>
<filter id="filter3_d" x="253" y="441" width="813" height="159" filterUnits="userSpaceOnUse" color-interpolation-filters="sRGB">
<feFlood flood-opacity="0" result="BackgroundImageFix"/>
<feColorMatrix in="SourceAlpha" type="matrix" values="0 0 0 0 0 0 0 0 0 0 0 0 0 0 0 0 0 0 127 0"/>
<feOffset dy="-10"/>
<feGaussianBlur stdDeviation="2"/>
<feColorMatrix type="matrix" values="0 0 0 0 0 0 0 0 0 0 0 0 0 0 0 0 0 0 0.25 0"/>
<feBlend mode="normal" in2="BackgroundImageFix" result="effect1_dropShadow"/>
<feBlend mode="normal" in="SourceGraphic" in2="effect1_dropShadow" result="shape"/>
</filter>
<clipPath id="clip0">
<rect width="1050" height="600" fill="white"/>
</clipPath>
</defs>
</svg>
