<svg width="1050" height="600" viewBox="0 0 1050 600" fill="none" xmlns="http://www.w3.org/2000/svg">
<g clip-path="url(#clip0)">
<rect width="1050" height="600" fill="white"/>
<path d="M582 600L1050 170V600H582Z" fill="#F7BC94"/>
<path d="M731 621L1077 305V621H731Z" fill="#404155"/>
<path d="M431.617 140.693V221.573C431.613 227.655 430.011 233.628 426.971 238.896C423.931 244.163 419.56 248.538 414.295 251.584L408.933 254.672L408.905 254.7H408.877C408.849 254.7 408.821 254.728 408.765 254.756L330.13 300.151C324.857 303.186 318.879 304.783 312.795 304.783C306.711 304.783 300.733 303.186 295.459 300.151L211.351 251.584C205.473 248.194 200.727 243.145 197.707 237.07C197.676 237.009 197.638 236.953 197.595 236.901C197.583 236.869 197.564 236.84 197.538 236.817V236.789C197.522 236.774 197.512 236.754 197.51 236.733C195.202 232.012 194.002 226.827 194.001 221.573V141.872C193.988 140.368 194.1 138.865 194.338 137.38C208.939 166.149 233.446 188.672 263.343 200.798V201.528L299.053 222.163C303.241 224.576 307.989 225.847 312.823 225.847C317.657 225.847 322.405 224.576 326.593 222.163L362.303 201.528V201.332C392.052 189.624 416.63 167.656 431.589 139.401C431.617 139.85 431.617 140.258 431.617 140.693Z" fill="#404155"/>
<path d="M263.343 140.692V200.798C233.446 188.671 208.939 166.148 194.337 137.379C194.503 135.952 194.756 134.536 195.095 133.14C195.949 129.612 197.331 126.233 199.194 123.118C201.991 118.283 205.926 114.203 210.656 111.234C215.387 108.264 220.771 106.494 226.341 106.077C231.081 105.761 235.835 106.422 240.309 108.018C244.783 109.615 248.881 112.113 252.351 115.358C255.819 118.603 258.585 122.526 260.476 126.884C262.367 131.242 263.342 135.941 263.343 140.692Z" fill="#F7BC94"/>
<path d="M431.588 139.414C416.629 167.669 392.052 189.637 362.302 201.345V141.885C362.195 132.937 365.469 124.28 371.471 117.643C377.473 111.007 385.758 106.881 394.671 106.091C400.986 105.662 407.297 106.973 412.919 109.881C412.926 109.881 412.933 109.883 412.939 109.889C412.944 109.894 412.947 109.901 412.947 109.909C412.973 109.924 413.002 109.933 413.031 109.937C417.591 112.337 421.562 115.72 424.654 119.842C427.747 123.964 429.885 128.722 430.914 133.771C431.297 135.63 431.523 137.517 431.588 139.414Z" fill="#F7BC94"/>
<g style="mix-blend-mode:multiply" opacity="0.08">
<g style="mix-blend-mode:multiply" opacity="0.08">
<path d="M263.343 173.27V200.81C233.446 188.684 208.939 166.161 194.337 137.392C194.503 135.964 194.756 134.549 195.095 133.153C209.666 143.877 235.676 161.535 263.343 173.27Z" fill="black"/>
</g>
</g>
<g style="mix-blend-mode:multiply" opacity="0.08">
<g style="mix-blend-mode:multiply" opacity="0.08">
<path d="M431.589 139.415C416.629 167.67 392.052 189.638 362.303 201.346V173.384C386.532 162.688 409.536 149.407 430.915 133.772C431.298 135.631 431.523 137.518 431.589 139.415Z" fill="black"/>
</g>
</g>
<g style="mix-blend-mode:screen" opacity="0.4">
<g style="mix-blend-mode:screen" opacity="0.4">
<path d="M423.195 221.475V221.587C423.182 226.188 421.966 230.705 419.666 234.69C417.366 238.675 414.062 241.987 410.084 244.299L325.919 292.866C321.927 295.165 317.401 296.376 312.795 296.376C308.188 296.376 303.662 295.165 299.67 292.866L234.259 255.107L234.034 254.967L215.561 244.299C211.886 242.17 208.78 239.185 206.507 235.597C204.234 232.009 202.862 227.925 202.507 223.693C233.783 245.985 271.151 258.134 309.557 258.496C347.963 258.857 385.553 247.414 417.243 225.714L417.524 225.518L417.664 225.433C419.559 224.142 421.37 222.823 423.195 221.475Z" fill="white"/>
</g>
</g>
<g style="mix-blend-mode:screen" opacity="0.6">
<g style="mix-blend-mode:screen" opacity="0.6">
<path d="M197.539 236.8C197.567 236.828 197.567 236.857 197.595 236.913C197.583 236.881 197.564 236.852 197.539 236.828V236.8Z" fill="white"/>
</g>
</g>
<g style="mix-blend-mode:multiply" opacity="0.25">
<g style="mix-blend-mode:multiply" opacity="0.25">
<path d="M408.765 254.767L330.13 300.162C324.857 303.196 318.879 304.794 312.795 304.794C306.71 304.794 300.733 303.196 295.459 300.162L211.351 251.594C205.473 248.204 200.727 243.156 197.707 237.08C197.931 237.473 198.352 238.147 198.97 239.073C200.444 241.175 202.128 243.122 203.995 244.885C206.881 247.573 210.179 249.782 213.765 251.426C217.92 253.559 222.608 255.974 227.661 258.697C237.852 264.031 249.643 270.404 262.192 277.366C268.452 280.875 274.966 284.412 281.507 288.174C284.791 290.055 288.076 291.936 291.389 293.817L296.358 296.652C297.869 297.547 299.446 298.326 301.074 298.983C307.465 301.636 314.559 302.081 321.231 300.246C324.561 299.29 327.744 297.883 330.692 296.063C333.92 294.266 337.093 292.498 340.237 290.757C352.814 283.795 364.605 277.422 374.768 272.088C393.83 261.967 407.165 255.51 408.765 254.767Z" fill="black"/>
</g>
</g>
<g style="mix-blend-mode:multiply" opacity="0.25">
<g style="mix-blend-mode:multiply" opacity="0.25">
<path d="M431.588 139.412L428.977 144.746L426.114 149.996L422.998 155.077L419.629 160.018L416.007 164.791L412.189 169.423L408.119 173.859L403.851 178.098L399.388 182.14L394.727 185.987L389.899 189.608L384.902 193.005L379.736 196.177L374.43 199.125L368.984 201.792L365.025 203.505L363.846 204.206C355.873 208.951 347.929 213.751 339.899 218.412L327.8 225.43C323.216 227.987 318.058 229.34 312.808 229.36C310.194 229.348 307.591 229.008 305.06 228.35C303.802 228.01 302.565 227.597 301.354 227.115C300.161 226.634 298.998 226.081 297.873 225.458L285.745 218.412C277.716 213.751 269.771 208.951 261.798 204.234L260.226 203.308V202.803L256.577 201.174L251.13 198.423L245.825 195.391L240.659 192.135L235.662 188.625L230.805 184.92L226.173 180.989L221.737 176.835L217.498 172.511L213.456 167.963L209.666 163.247L206.072 158.39L202.76 153.337L199.671 148.171L196.864 142.837L194.337 137.391L197.454 142.528L200.766 147.469L204.275 152.298L207.953 156.958L211.827 161.45L215.87 165.774L220.109 169.9L224.46 173.859L229.008 177.621L233.725 181.158L238.525 184.527L243.494 187.643L248.576 190.563L253.797 193.258L259.103 195.728L263.343 197.469V201.539L299.052 222.174C303.24 224.587 307.989 225.858 312.822 225.858C317.656 225.858 322.405 224.587 326.593 222.174L362.302 201.539V198.03L366.57 196.318L371.847 193.931L377.041 191.349L382.122 188.513L387.063 185.453L391.892 182.197L396.608 178.744L401.156 175.094L405.536 171.22L409.775 167.177L413.874 162.966L417.776 158.559L421.51 154.011L425.047 149.294L428.416 144.409L431.588 139.412Z" fill="black"/>
</g>
</g>
<g style="mix-blend-mode:screen" opacity="0.4">
<g style="mix-blend-mode:screen" opacity="0.4">
<path d="M417.243 225.711L411.853 229.614L405.845 233.544C401.746 236.071 397.582 238.448 393.352 240.675C389.085 242.893 384.724 244.914 380.27 246.739C375.815 248.563 371.305 250.229 366.738 251.736C357.586 254.766 348.195 257.019 338.665 258.473C333.892 259.231 329.092 259.765 324.263 260.13C319.35 260.523 314.69 260.663 309.805 260.635C304.976 260.635 300.148 260.411 295.319 260.046L288.104 259.316L280.945 258.305L273.814 256.986L266.74 255.413L259.75 253.561L252.815 251.399L245.993 248.985L239.284 246.29L232.658 243.342L226.173 240.141L219.857 236.632L213.652 232.898L207.617 228.94L204.22 226.526C205.459 232.984 209.088 238.738 214.382 242.64C215.983 243.763 217.639 244.717 219.323 245.784L224.32 248.844L234.034 254.964L215.561 244.296C211.886 242.167 208.78 239.182 206.507 235.594C204.234 232.006 202.862 227.923 202.507 223.69C233.783 245.983 271.151 258.132 309.557 258.493C347.963 258.855 385.553 247.412 417.243 225.711Z" fill="white"/>
</g>
</g>
<g style="mix-blend-mode:screen" opacity="0.5">
<g style="mix-blend-mode:screen" opacity="0.5">
<path d="M263.344 140.692V167.558C263.344 167.558 262.39 160.231 261.744 149.254C261.548 146.531 261.379 143.527 261.239 140.411C261.025 137.336 260.431 134.3 259.47 131.371C257.338 125.065 253.393 119.528 248.129 115.453C245.469 113.413 242.528 111.767 239.398 110.569C236.362 109.486 233.202 108.788 229.993 108.491C229.123 108.491 228.28 108.463 227.438 108.463L226.315 108.435L225.164 108.519C223.663 108.598 222.17 108.795 220.7 109.109C217.961 109.692 215.303 110.607 212.784 111.832C208.933 113.738 205.438 116.293 202.453 119.384C201.358 120.535 200.515 121.461 199.982 122.135C199.589 122.64 199.308 122.977 199.196 123.118C201.993 118.283 205.927 114.203 210.658 111.234C215.389 108.264 220.773 106.494 226.343 106.077C231.083 105.761 235.837 106.422 240.311 108.018C244.785 109.615 248.883 112.113 252.353 115.358C255.821 118.603 258.587 122.526 260.478 126.884C262.368 131.242 263.344 135.941 263.344 140.692Z" fill="white"/>
</g>
</g>
<g style="mix-blend-mode:screen" opacity="0.5">
<g style="mix-blend-mode:screen" opacity="0.5">
<path d="M412.919 109.881C412.582 109.768 411.347 109.375 409.381 108.898C406.247 108.137 403.034 107.751 399.808 107.747C397.699 107.757 395.594 107.955 393.52 108.336C392.399 108.512 391.292 108.765 390.207 109.094C389.674 109.263 389.112 109.403 388.551 109.572C387.989 109.74 387.428 109.993 386.866 110.189C384.606 111.11 382.435 112.238 380.381 113.558C378.294 114.965 376.364 116.593 374.626 118.415C372.849 120.199 371.276 122.177 369.938 124.31C368.623 126.397 367.514 128.607 366.625 130.908C366.184 131.998 365.809 133.113 365.502 134.249C365.167 135.315 364.905 136.403 364.716 137.505C364.487 138.599 364.318 139.705 364.211 140.818L364.127 141.632C364.099 141.744 364.071 141.969 364.071 141.969L364.042 142.362C363.986 142.895 363.958 143.429 363.902 143.934C363.228 152.188 362.302 157.662 362.302 157.662V141.885C362.195 132.937 365.469 124.28 371.471 117.643C377.473 111.007 385.758 106.881 394.671 106.091C400.986 105.662 407.297 106.973 412.919 109.881Z" fill="white"/>
</g>
</g>
<path d="M227.843 343.695L219.268 358.237V369H216.048V358.22L207.42 343.695H210.955L217.675 355.332L224.29 343.695H227.843ZM240.183 369.35C237.931 369.35 235.983 368.848 234.338 367.845C232.693 366.83 231.421 365.36 230.523 363.435C229.636 361.498 229.193 359.153 229.193 356.4C229.193 353.635 229.642 351.284 230.54 349.347C231.439 347.399 232.71 345.912 234.355 344.885C236 343.858 237.943 343.345 240.183 343.345C242.423 343.345 244.359 343.858 245.993 344.885C247.626 345.9 248.886 347.382 249.773 349.33C250.659 351.278 251.103 353.635 251.103 356.4C251.103 359.142 250.659 361.481 249.773 363.417C248.898 365.342 247.644 366.812 246.01 367.827C244.377 368.843 242.434 369.35 240.183 369.35ZM240.183 366.532C242.528 366.532 244.342 365.722 245.625 364.1C246.909 362.478 247.55 359.923 247.55 356.435C247.55 352.9 246.903 350.304 245.608 348.647C244.313 346.991 242.504 346.162 240.183 346.162C237.873 346.162 236.059 346.997 234.74 348.665C233.422 350.333 232.763 352.923 232.763 356.435C232.763 359.923 233.422 362.478 234.74 364.1C236.059 365.722 237.873 366.532 240.183 366.532ZM274.333 360.25C274.333 363.167 273.604 365.412 272.146 366.987C270.687 368.563 268.331 369.35 265.076 369.35C261.786 369.35 259.423 368.545 257.988 366.935C256.553 365.313 255.836 362.974 255.836 359.917V343.695H259.196V360.407C259.196 362.449 259.703 363.977 260.718 364.992C261.733 366.007 263.186 366.515 265.076 366.515C266.977 366.515 268.453 366.013 269.503 365.01C270.553 364.007 271.078 362.472 271.078 360.407V343.695H274.333V360.25ZM298.438 369H295.008L290.388 358.097H283.58V369H280.343V343.695H290.143C292.884 343.695 294.938 344.307 296.303 345.532C297.679 346.757 298.368 348.449 298.368 350.608C298.368 351.984 298.123 353.127 297.633 354.037C297.154 354.947 296.542 355.682 295.795 356.242C295.048 356.791 294.273 357.217 293.468 357.52L298.438 369ZM289.093 355.42C290.994 355.42 292.464 355.035 293.503 354.265C294.541 353.483 295.06 352.328 295.06 350.8C295.06 349.318 294.593 348.204 293.66 347.457C292.738 346.711 291.473 346.337 289.863 346.337H283.58V355.42H289.093ZM312.095 369V343.695H320.233C323.313 343.695 325.64 344.261 327.215 345.392C328.802 346.524 329.595 348.157 329.595 350.292C329.595 351.634 329.245 352.783 328.545 353.74C327.845 354.697 326.632 355.484 324.905 356.102C326.9 356.534 328.283 357.304 329.053 358.412C329.835 359.509 330.225 360.769 330.225 362.192C330.225 366.731 326.982 369 320.495 369H312.095ZM315.333 354.825H320.845C321.72 354.825 322.59 354.702 323.453 354.457C324.316 354.212 325.034 353.792 325.605 353.197C326.177 352.602 326.463 351.768 326.463 350.695C326.463 349.225 325.897 348.14 324.765 347.44C323.645 346.728 322.187 346.372 320.39 346.372H315.333V354.825ZM315.333 366.305H320.46C322.572 366.305 324.176 365.961 325.273 365.272C326.381 364.572 326.935 363.499 326.935 362.052C326.935 360.991 326.661 360.133 326.113 359.48C325.576 358.815 324.847 358.331 323.925 358.027C323.004 357.724 321.977 357.572 320.845 357.572H315.333V366.305ZM353.911 369H350.481L345.861 358.097H339.054V369H335.816V343.695H345.616C348.358 343.695 350.411 344.307 351.776 345.532C353.153 346.757 353.841 348.449 353.841 350.608C353.841 351.984 353.596 353.127 353.106 354.037C352.628 354.947 352.015 355.682 351.269 356.242C350.522 356.791 349.746 357.217 348.941 357.52L353.911 369ZM344.566 355.42C346.468 355.42 347.938 355.035 348.976 354.265C350.014 353.483 350.534 352.328 350.534 350.8C350.534 349.318 350.067 348.204 349.134 347.457C348.212 346.711 346.946 346.337 345.336 346.337H339.054V355.42H344.566ZM357.749 369L366.902 343.695H370.559L379.712 369H376.404L373.919 362.07H363.577L361.039 369H357.749ZM364.399 359.095H373.062L368.757 346.897L364.399 359.095ZM400.956 343.695H404.193V369H401.306L387.726 349.05V369H384.488V343.695H387.586L400.956 363.365V343.695ZM410.875 343.695C410.968 343.695 411.353 343.695 412.03 343.695C412.706 343.695 413.482 343.701 414.357 343.712C415.244 343.712 416.043 343.718 416.755 343.73C421.398 343.8 424.752 344.897 426.817 347.02C428.882 349.132 429.915 352.188 429.915 356.19C429.915 360.39 428.812 363.575 426.607 365.745C424.414 367.915 421.019 369 416.422 369H410.875V343.695ZM414.2 346.477V366.217H416.422C418.511 366.217 420.307 365.897 421.812 365.255C423.317 364.602 424.472 363.546 425.277 362.087C426.094 360.629 426.502 358.681 426.502 356.242C426.502 353.804 426.106 351.873 425.312 350.45C424.531 349.027 423.399 348.012 421.917 347.405C420.436 346.787 418.651 346.477 416.562 346.477H414.2Z" fill="#EB8844"/>
<path d="M232.56 414.12C232.467 414.12 232.313 414.113 232.1 414.1C231.887 414.087 231.667 414.073 231.44 414.06C231.213 414.047 230.993 414.033 230.78 414.02C230.567 414.007 230.413 414 230.32 414H229.94C229.847 414 229.693 414.007 229.48 414.02C229.267 414.033 229.04 414.047 228.8 414.06C228.573 414.073 228.353 414.087 228.14 414.1C227.927 414.113 227.773 414.12 227.68 414.12L227.66 414.04L227.7 413.68L227.8 413.6C228.013 413.6 228.213 413.593 228.4 413.58C228.6 413.553 228.753 413.493 228.86 413.4C228.967 413.307 229.067 413.187 229.16 413.04C229.267 412.893 229.333 412.633 229.36 412.26C229.373 412.167 229.38 412.06 229.38 411.94C229.393 411.807 229.4 411.647 229.4 411.46C229.413 411.273 229.42 411.047 229.42 410.78C229.42 410.513 229.42 410.18 229.42 409.78V409C229.42 408.627 229.367 408.327 229.26 408.1C229.153 407.86 229.047 407.647 228.94 407.46C228.74 407.1 228.513 406.713 228.26 406.3C228.02 405.887 227.767 405.46 227.5 405.02C227.233 404.58 226.96 404.147 226.68 403.72C226.4 403.28 226.133 402.86 225.88 402.46C225.787 402.313 225.68 402.173 225.56 402.04C225.44 401.893 225.333 401.78 225.24 401.7C225.093 401.58 224.913 401.493 224.7 401.44C224.5 401.387 224.267 401.347 224 401.32L223.84 401.24V400.88L223.94 400.8C224.26 400.84 224.56 400.88 224.84 400.92C225.12 400.947 225.413 400.96 225.72 400.96H226.56C226.867 400.96 227.22 400.947 227.62 400.92C228.033 400.88 228.427 400.84 228.8 400.8L228.88 400.88V401.24L228.8 401.32C228.533 401.333 228.3 401.36 228.1 401.4C227.9 401.427 227.74 401.48 227.62 401.56C227.46 401.68 227.38 401.793 227.38 401.9C227.38 401.967 227.4 402.047 227.44 402.14C227.493 402.233 227.54 402.313 227.58 402.38C228.06 403.26 228.513 404.093 228.94 404.88C229.367 405.667 229.833 406.493 230.34 407.36C230.567 406.973 230.807 406.547 231.06 406.08C231.327 405.6 231.58 405.14 231.82 404.7C232.06 404.247 232.267 403.84 232.44 403.48C232.627 403.12 232.753 402.867 232.82 402.72C232.847 402.653 232.887 402.547 232.94 402.4C232.993 402.253 233.02 402.127 233.02 402.02C233.02 401.86 232.973 401.74 232.88 401.66C232.787 401.58 232.667 401.52 232.52 401.48C232.387 401.44 232.233 401.413 232.06 401.4C231.9 401.387 231.747 401.36 231.6 401.32L231.52 401.24V400.88L231.6 400.8C231.987 400.867 232.307 400.907 232.56 400.92C232.827 400.92 233.12 400.92 233.44 400.92H234.6C234.92 400.92 235.213 400.913 235.48 400.9C235.747 400.887 236.067 400.853 236.44 400.8L236.52 400.88V401.24L236.44 401.32C236.133 401.36 235.873 401.413 235.66 401.48C235.447 401.547 235.247 401.64 235.06 401.76C234.887 401.867 234.72 402.013 234.56 402.2C234.4 402.387 234.22 402.627 234.02 402.92C233.633 403.507 233.293 404.027 233 404.48C232.72 404.933 232.467 405.353 232.24 405.74C232.013 406.113 231.807 406.46 231.62 406.78C231.447 407.1 231.273 407.413 231.1 407.72C231.047 407.8 230.987 407.94 230.92 408.14C230.853 408.327 230.82 408.52 230.82 408.72V409.42C230.82 409.9 230.82 410.287 230.82 410.58C230.82 410.873 230.82 411.12 230.82 411.32C230.833 411.52 230.84 411.687 230.84 411.82C230.853 411.953 230.867 412.1 230.88 412.26C230.907 412.633 230.967 412.893 231.06 413.04C231.167 413.187 231.273 413.307 231.38 413.4C231.487 413.493 231.633 413.553 231.82 413.58C232.02 413.593 232.227 413.6 232.44 413.6L232.54 413.68L232.6 414.04L232.56 414.12ZM243.417 400.7C244.457 400.7 245.384 400.88 246.197 401.24C247.011 401.6 247.691 402.093 248.237 402.72C248.797 403.333 249.224 404.047 249.517 404.86C249.811 405.673 249.957 406.527 249.957 407.42C249.957 408.3 249.811 409.153 249.517 409.98C249.237 410.793 248.817 411.513 248.257 412.14C247.697 412.767 246.997 413.273 246.157 413.66C245.331 414.033 244.371 414.22 243.277 414.22C242.211 414.22 241.277 414.04 240.477 413.68C239.691 413.32 239.024 412.84 238.477 412.24C237.944 411.627 237.544 410.92 237.277 410.12C237.011 409.307 236.877 408.453 236.877 407.56C236.877 406.613 237.024 405.727 237.317 404.9C237.611 404.06 238.037 403.333 238.597 402.72C239.157 402.093 239.844 401.6 240.657 401.24C241.471 400.88 242.391 400.7 243.417 400.7ZM243.397 413.16C244.197 413.16 244.904 413.013 245.517 412.72C246.144 412.413 246.671 412 247.097 411.48C247.524 410.96 247.851 410.353 248.077 409.66C248.304 408.967 248.417 408.227 248.417 407.44C248.417 406.64 248.297 405.893 248.057 405.2C247.831 404.507 247.497 403.907 247.057 403.4C246.617 402.88 246.077 402.48 245.437 402.2C244.811 401.907 244.097 401.76 243.297 401.76C242.511 401.76 241.811 401.907 241.197 402.2C240.597 402.48 240.091 402.873 239.677 403.38C239.264 403.887 238.951 404.487 238.737 405.18C238.537 405.86 238.437 406.607 238.437 407.42C238.437 408.313 238.557 409.113 238.797 409.82C239.037 410.527 239.377 411.127 239.817 411.62C240.257 412.113 240.777 412.493 241.377 412.76C241.991 413.027 242.664 413.16 243.397 413.16ZM264.854 400.88L264.794 401.24L264.714 401.32C264.501 401.32 264.294 401.333 264.094 401.36C263.907 401.373 263.754 401.427 263.634 401.52C263.527 401.613 263.427 401.733 263.334 401.88C263.241 402.027 263.181 402.287 263.154 402.66C263.141 402.82 263.127 402.98 263.114 403.14C263.114 403.3 263.107 403.493 263.094 403.72C263.094 403.947 263.094 404.22 263.094 404.54C263.094 404.86 263.094 405.253 263.094 405.72V409.56C263.094 410.213 262.994 410.827 262.794 411.4C262.607 411.96 262.314 412.453 261.914 412.88C261.514 413.293 261.007 413.62 260.394 413.86C259.794 414.1 259.087 414.22 258.274 414.22C257.341 414.22 256.547 414.1 255.894 413.86C255.254 413.62 254.734 413.293 254.334 412.88C253.934 412.453 253.641 411.96 253.454 411.4C253.281 410.827 253.194 410.213 253.194 409.56V405.72C253.194 405.253 253.194 404.86 253.194 404.54C253.194 404.22 253.194 403.947 253.194 403.72C253.194 403.493 253.187 403.3 253.174 403.14C253.174 402.98 253.167 402.82 253.154 402.66C253.127 402.3 253.061 402.047 252.954 401.9C252.861 401.74 252.761 401.613 252.654 401.52C252.534 401.427 252.381 401.373 252.194 401.36C252.007 401.333 251.807 401.32 251.594 401.32L251.494 401.24L251.434 400.88L251.474 400.8C251.567 400.8 251.721 400.807 251.934 400.82C252.147 400.833 252.367 400.847 252.594 400.86C252.821 400.873 253.041 400.887 253.254 400.9C253.467 400.913 253.621 400.92 253.714 400.92H254.094C254.187 400.92 254.341 400.913 254.554 400.9C254.767 400.887 254.987 400.873 255.214 400.86C255.441 400.847 255.661 400.833 255.874 400.82C256.087 400.807 256.241 400.8 256.334 400.8L256.374 400.88L256.314 401.24L256.234 401.32C256.021 401.32 255.814 401.333 255.614 401.36C255.427 401.373 255.274 401.427 255.154 401.52C255.047 401.613 254.947 401.733 254.854 401.88C254.761 402.027 254.701 402.287 254.674 402.66C254.661 402.847 254.647 403.02 254.634 403.18C254.634 403.34 254.627 403.527 254.614 403.74C254.614 403.953 254.614 404.213 254.614 404.52C254.614 404.827 254.614 405.22 254.614 405.7V409C254.614 410.44 254.934 411.473 255.574 412.1C256.227 412.727 257.127 413.04 258.274 413.04C259.421 413.04 260.321 412.727 260.974 412.1C261.627 411.473 261.954 410.44 261.954 409V405.7C261.954 405.22 261.954 404.827 261.954 404.52C261.954 404.213 261.947 403.953 261.934 403.74C261.934 403.527 261.927 403.34 261.914 403.18C261.914 403.02 261.907 402.847 261.894 402.66C261.867 402.287 261.801 402.027 261.694 401.88C261.601 401.733 261.501 401.613 261.394 401.52C261.287 401.427 261.134 401.373 260.934 401.36C260.747 401.333 260.547 401.32 260.334 401.32L260.234 401.24L260.174 400.88L260.214 400.8C260.307 400.8 260.447 400.807 260.634 400.82C260.821 400.833 261.014 400.847 261.214 400.86C261.427 400.873 261.627 400.887 261.814 400.9C262.001 400.913 262.141 400.92 262.234 400.92H262.674C262.767 400.92 262.914 400.913 263.114 400.9C263.314 400.887 263.521 400.873 263.734 400.86C263.961 400.847 264.174 400.833 264.374 400.82C264.574 400.807 264.721 400.8 264.814 400.8L264.854 400.88ZM271.127 414.12C271.034 414.12 270.881 414.113 270.667 414.1C270.454 414.087 270.234 414.073 270.007 414.06C269.781 414.047 269.561 414.033 269.347 414.02C269.134 414.007 268.981 414 268.887 414H268.507C268.414 414 268.261 414.007 268.047 414.02C267.834 414.033 267.614 414.047 267.387 414.06C267.161 414.073 266.941 414.087 266.727 414.1C266.514 414.113 266.361 414.12 266.267 414.12L266.227 414.04L266.287 413.68L266.387 413.6C266.547 413.6 266.734 413.593 266.947 413.58C267.161 413.553 267.327 413.5 267.447 413.42C267.554 413.34 267.654 413.213 267.747 413.04C267.841 412.867 267.907 412.607 267.947 412.26C267.947 412.167 267.947 412.06 267.947 411.94C267.961 411.807 267.967 411.647 267.967 411.46C267.981 411.273 267.987 411.047 267.987 410.78C267.987 410.513 267.987 410.18 267.987 409.78V404.58C267.987 404.313 267.981 404.013 267.967 403.68C267.967 403.333 267.954 402.993 267.927 402.66C267.901 402.353 267.841 402.113 267.747 401.94C267.654 401.753 267.554 401.613 267.447 401.52C267.327 401.453 267.201 401.407 267.067 401.38C266.947 401.34 266.721 401.32 266.387 401.32L266.287 401.24L266.227 400.88L266.267 400.8C266.361 400.8 266.481 400.807 266.627 400.82C266.787 400.833 266.947 400.847 267.107 400.86C267.281 400.873 267.454 400.887 267.627 400.9C267.801 400.913 267.961 400.92 268.107 400.92H268.827C268.974 400.92 269.141 400.92 269.327 400.92C269.514 400.92 269.701 400.92 269.887 400.92C270.087 400.907 270.267 400.9 270.427 400.9C270.587 400.9 270.721 400.9 270.827 400.9C271.721 400.9 272.474 400.987 273.087 401.16C273.714 401.333 274.221 401.573 274.607 401.88C274.994 402.173 275.274 402.533 275.447 402.96C275.634 403.373 275.727 403.82 275.727 404.3C275.727 404.873 275.621 405.373 275.407 405.8C275.207 406.213 274.947 406.573 274.627 406.88C274.307 407.173 273.947 407.413 273.547 407.6C273.147 407.773 272.754 407.907 272.367 408C272.794 408.6 273.234 409.193 273.687 409.78C274.141 410.367 274.607 410.94 275.087 411.5C275.354 411.807 275.601 412.08 275.827 412.32C276.054 412.56 276.294 412.767 276.547 412.94C276.814 413.113 277.107 413.253 277.427 413.36C277.747 413.467 278.134 413.547 278.587 413.6L278.707 413.68L278.747 414.04L278.707 414.12C278.414 414.133 278.081 414.147 277.707 414.16C277.334 414.187 277.041 414.2 276.827 414.2C276.481 414.2 276.181 414.16 275.927 414.08C275.674 414 275.427 413.873 275.187 413.7C274.947 413.527 274.701 413.3 274.447 413.02C274.207 412.74 273.927 412.407 273.607 412.02C273.567 411.98 273.447 411.827 273.247 411.56C273.061 411.28 272.827 410.953 272.547 410.58C272.281 410.193 271.994 409.787 271.687 409.36C271.394 408.92 271.121 408.513 270.867 408.14H269.407C269.407 408.5 269.407 408.893 269.407 409.32C269.407 409.747 269.407 410.153 269.407 410.54C269.421 410.927 269.427 411.28 269.427 411.6C269.441 411.907 269.454 412.127 269.467 412.26C269.494 412.647 269.561 412.92 269.667 413.08C269.774 413.227 269.867 413.333 269.947 413.4C270.067 413.467 270.187 413.52 270.307 413.56C270.441 413.587 270.681 413.6 271.027 413.6L271.107 413.68L271.167 414.04L271.127 414.12ZM271.227 407.26C272.334 407.26 273.127 407.007 273.607 406.5C274.101 405.98 274.347 405.287 274.347 404.42C274.347 403.607 274.067 402.98 273.507 402.54C272.961 402.1 272.207 401.88 271.247 401.88H269.507C269.481 402.267 269.461 402.593 269.447 402.86C269.447 403.127 269.441 403.36 269.427 403.56C269.414 403.76 269.407 403.94 269.407 404.1C269.407 404.26 269.407 404.413 269.407 404.56V406.52C269.407 406.693 269.414 406.833 269.427 406.94C269.441 407.033 269.474 407.107 269.527 407.16C269.581 407.2 269.654 407.227 269.747 407.24C269.854 407.253 269.994 407.26 270.167 407.26H271.227ZM284.924 403.84C284.924 404.213 284.991 404.527 285.124 404.78C285.257 405.02 285.457 405.233 285.724 405.42C286.004 405.607 286.351 405.78 286.764 405.94C287.191 406.087 287.691 406.247 288.264 406.42C288.757 406.58 289.244 406.76 289.724 406.96C290.204 407.16 290.631 407.42 291.004 407.74C291.391 408.047 291.697 408.427 291.924 408.88C292.151 409.32 292.264 409.86 292.264 410.5C292.264 411.18 292.131 411.76 291.864 412.24C291.597 412.707 291.244 413.087 290.804 413.38C290.364 413.673 289.851 413.887 289.264 414.02C288.691 414.153 288.084 414.22 287.444 414.22C286.617 414.22 285.864 414.127 285.184 413.94C284.504 413.753 283.891 413.52 283.344 413.24L283.264 412.98L283.604 410.84H284.104L284.204 410.96C284.271 411.773 284.597 412.373 285.184 412.76C285.771 413.133 286.571 413.32 287.584 413.32C288.624 413.32 289.404 413.087 289.924 412.62C290.457 412.14 290.724 411.52 290.724 410.76C290.724 410.293 290.624 409.907 290.424 409.6C290.224 409.28 289.957 409.013 289.624 408.8C289.304 408.573 288.931 408.387 288.504 408.24C288.091 408.093 287.671 407.947 287.244 407.8C286.711 407.627 286.211 407.44 285.744 407.24C285.291 407.027 284.891 406.78 284.544 406.5C284.211 406.22 283.944 405.887 283.744 405.5C283.557 405.113 283.464 404.653 283.464 404.12C283.464 403.493 283.571 402.967 283.784 402.54C284.011 402.1 284.317 401.747 284.704 401.48C285.091 401.2 285.537 401 286.044 400.88C286.564 400.76 287.124 400.7 287.724 400.7C288.444 400.7 289.124 400.767 289.764 400.9C290.404 401.033 290.924 401.193 291.324 401.38L291.404 401.6L291.124 403.38H290.564L290.464 403.28C290.437 402.933 290.324 402.653 290.124 402.44C289.924 402.227 289.684 402.06 289.404 401.94C289.137 401.82 288.844 401.74 288.524 401.7C288.217 401.66 287.944 401.64 287.704 401.64C286.837 401.64 286.157 401.833 285.664 402.22C285.171 402.593 284.924 403.133 284.924 403.84ZM295.74 402.66C295.713 402.287 295.653 402.027 295.56 401.88C295.466 401.733 295.366 401.613 295.26 401.52C295.14 401.427 294.986 401.373 294.8 401.36C294.613 401.333 294.413 401.32 294.2 401.32L294.1 401.24L294.04 400.88L294.08 400.8C294.173 400.8 294.326 400.807 294.54 400.82C294.753 400.833 294.973 400.847 295.2 400.86C295.426 400.873 295.646 400.887 295.86 400.9C296.073 400.913 296.226 400.92 296.32 400.92H296.7C296.793 400.92 296.946 400.913 297.16 400.9C297.373 400.887 297.593 400.873 297.82 400.86C298.046 400.847 298.266 400.833 298.48 400.82C298.693 400.807 298.846 400.8 298.94 400.8L298.98 400.88L298.92 401.24L298.84 401.32C298.626 401.32 298.42 401.333 298.22 401.36C298.033 401.373 297.88 401.427 297.76 401.52C297.653 401.613 297.546 401.74 297.44 401.9C297.346 402.047 297.286 402.3 297.26 402.66C297.246 402.847 297.233 403.02 297.22 403.18C297.22 403.34 297.22 403.527 297.22 403.74C297.22 403.953 297.22 404.213 297.22 404.52C297.22 404.827 297.22 405.22 297.22 405.7V409.38C297.22 409.847 297.22 410.233 297.22 410.54C297.22 410.847 297.22 411.113 297.22 411.34C297.233 411.567 297.246 411.78 297.26 411.98C297.273 412.18 297.286 412.407 297.3 412.66C297.313 412.913 297.453 413.04 297.72 413.04H299.42C300.22 413.04 300.82 413.027 301.22 413C301.633 412.96 301.926 412.887 302.1 412.78C302.286 412.673 302.4 412.513 302.44 412.3C302.48 412.073 302.546 411.78 302.64 411.42L302.7 411.34H303.22L302.86 413.88L302.7 414.08C302.633 414.08 302.506 414.073 302.32 414.06C302.146 414.06 301.94 414.053 301.7 414.04C301.473 414.027 301.233 414.013 300.98 414C300.74 414 300.533 414 300.36 414H296.32C296.226 414 296.073 414.007 295.86 414.02C295.646 414.033 295.426 414.047 295.2 414.06C294.973 414.073 294.753 414.087 294.54 414.1C294.326 414.113 294.173 414.12 294.08 414.12L294.04 414.04L294.1 413.68L294.2 413.6C294.413 413.6 294.613 413.593 294.8 413.58C294.986 413.553 295.14 413.493 295.26 413.4C295.366 413.307 295.466 413.173 295.56 413C295.653 412.827 295.72 412.58 295.76 412.26C295.773 412.167 295.78 412.06 295.78 411.94C295.793 411.807 295.8 411.647 295.8 411.46C295.8 411.273 295.8 411.047 295.8 410.78C295.8 410.513 295.8 410.18 295.8 409.78V405.72C295.8 405.253 295.8 404.86 295.8 404.54C295.8 404.22 295.793 403.947 295.78 403.72C295.78 403.493 295.773 403.3 295.76 403.14C295.76 402.98 295.753 402.82 295.74 402.66ZM311.132 400.7C312.172 400.7 313.099 400.88 313.912 401.24C314.726 401.6 315.406 402.093 315.952 402.72C316.512 403.333 316.939 404.047 317.232 404.86C317.526 405.673 317.672 406.527 317.672 407.42C317.672 408.3 317.526 409.153 317.232 409.98C316.952 410.793 316.532 411.513 315.972 412.14C315.412 412.767 314.712 413.273 313.872 413.66C313.046 414.033 312.086 414.22 310.992 414.22C309.926 414.22 308.992 414.04 308.192 413.68C307.406 413.32 306.739 412.84 306.192 412.24C305.659 411.627 305.259 410.92 304.992 410.12C304.726 409.307 304.592 408.453 304.592 407.56C304.592 406.613 304.739 405.727 305.032 404.9C305.326 404.06 305.752 403.333 306.312 402.72C306.872 402.093 307.559 401.6 308.372 401.24C309.186 400.88 310.106 400.7 311.132 400.7ZM311.112 413.16C311.912 413.16 312.619 413.013 313.232 412.72C313.859 412.413 314.386 412 314.812 411.48C315.239 410.96 315.566 410.353 315.792 409.66C316.019 408.967 316.132 408.227 316.132 407.44C316.132 406.64 316.012 405.893 315.772 405.2C315.546 404.507 315.212 403.907 314.772 403.4C314.332 402.88 313.792 402.48 313.152 402.2C312.526 401.907 311.812 401.76 311.012 401.76C310.226 401.76 309.526 401.907 308.912 402.2C308.312 402.48 307.806 402.873 307.392 403.38C306.979 403.887 306.666 404.487 306.452 405.18C306.252 405.86 306.152 406.607 306.152 407.42C306.152 408.313 306.272 409.113 306.512 409.82C306.752 410.527 307.092 411.127 307.532 411.62C307.972 412.113 308.492 412.493 309.092 412.76C309.706 413.027 310.379 413.16 311.112 413.16ZM330.886 413.5C330.246 413.7 329.573 413.867 328.866 414C328.173 414.147 327.446 414.22 326.686 414.22C325.526 414.22 324.513 414.047 323.646 413.7C322.793 413.34 322.079 412.853 321.506 412.24C320.946 411.627 320.526 410.913 320.246 410.1C319.966 409.287 319.826 408.427 319.826 407.52C319.826 406.56 319.973 405.667 320.266 404.84C320.573 404.013 321.019 403.293 321.606 402.68C322.193 402.067 322.919 401.587 323.786 401.24C324.653 400.88 325.659 400.7 326.806 400.7C327.046 400.7 327.333 400.713 327.666 400.74C328.013 400.753 328.373 400.787 328.746 400.84C329.119 400.893 329.499 400.967 329.886 401.06C330.273 401.14 330.639 401.247 330.986 401.38L331.026 401.56L330.686 403.5H330.126L330.046 403.44C329.953 402.907 329.639 402.493 329.106 402.2C328.586 401.907 327.786 401.76 326.706 401.76C325.199 401.76 324.053 402.073 323.266 402.7C322.946 402.953 322.673 403.253 322.446 403.6C322.219 403.947 322.026 404.327 321.866 404.74C321.719 405.153 321.606 405.593 321.526 406.06C321.459 406.513 321.426 406.967 321.426 407.42C321.426 408.313 321.553 409.113 321.806 409.82C322.073 410.527 322.433 411.127 322.886 411.62C323.339 412.1 323.879 412.473 324.506 412.74C325.133 412.993 325.813 413.12 326.546 413.12C326.773 413.12 327.026 413.113 327.306 413.1C327.599 413.073 327.879 413.04 328.146 413C328.426 412.96 328.673 412.913 328.886 412.86C329.099 412.807 329.246 412.753 329.326 412.7C329.433 412.633 329.486 412.493 329.486 412.28C329.486 412.187 329.486 412.06 329.486 411.9C329.486 411.74 329.486 411.573 329.486 411.4C329.486 411.213 329.479 411.033 329.466 410.86C329.466 410.673 329.459 410.513 329.446 410.38C329.419 410.033 329.346 409.773 329.226 409.6C329.119 409.413 329.026 409.293 328.946 409.24C328.826 409.147 328.646 409.093 328.406 409.08C328.166 409.053 327.939 409.04 327.726 409.04L327.626 408.96L327.566 408.52L327.606 408.44C327.699 408.44 327.846 408.447 328.046 408.46C328.259 408.473 328.473 408.487 328.686 408.5C328.913 408.513 329.126 408.527 329.326 408.54C329.539 408.553 329.693 408.56 329.786 408.56H330.386C330.479 408.56 330.606 408.553 330.766 408.54C330.926 408.527 331.093 408.513 331.266 408.5C331.439 408.487 331.606 408.473 331.766 408.46C331.926 408.447 332.053 408.44 332.146 408.44L332.186 408.52L332.146 409L332.046 409.08C331.659 409.08 331.386 409.193 331.226 409.42C331.079 409.633 330.993 409.953 330.966 410.38C330.939 410.713 330.919 411.073 330.906 411.46C330.906 411.833 330.906 412.113 330.906 412.3C330.906 412.5 330.906 412.72 330.906 412.96C330.919 413.187 330.939 413.333 330.966 413.4L330.886 413.5ZM340.346 400.7L343.626 409.78C343.76 410.18 343.873 410.513 343.966 410.78C344.073 411.047 344.16 411.273 344.226 411.46C344.306 411.647 344.373 411.807 344.426 411.94C344.48 412.06 344.526 412.167 344.566 412.26C344.713 412.593 344.86 412.853 345.006 413.04C345.166 413.213 345.326 413.347 345.486 413.44C345.646 413.52 345.806 413.567 345.966 413.58C346.14 413.593 346.313 413.6 346.486 413.6L346.586 413.68L346.646 414.04L346.606 414.12C346.513 414.12 346.373 414.113 346.186 414.1C346 414.087 345.806 414.073 345.606 414.06C345.406 414.047 345.213 414.033 345.026 414.02C344.853 414.007 344.72 414 344.626 414H343.966C343.873 414 343.72 414.007 343.506 414.02C343.293 414.033 343.066 414.047 342.826 414.06C342.6 414.073 342.38 414.087 342.166 414.1C341.953 414.113 341.8 414.12 341.706 414.12L341.666 414.04L341.726 413.68L341.806 413.6C342.193 413.6 342.493 413.56 342.706 413.48C342.92 413.387 343.026 413.147 343.026 412.76C343.026 412.453 342.92 412.027 342.706 411.48C342.506 410.92 342.253 410.22 341.946 409.38L341.606 408.42H337.126L336.786 409.38C336.48 410.22 336.22 410.92 336.006 411.48C335.806 412.027 335.706 412.453 335.706 412.76C335.706 413.147 335.813 413.387 336.026 413.48C336.24 413.56 336.54 413.6 336.926 413.6L337.026 413.68L337.086 414.04L337.046 414.12C336.953 414.12 336.806 414.113 336.606 414.1C336.406 414.087 336.193 414.073 335.966 414.06C335.753 414.047 335.546 414.033 335.346 414.02C335.146 414.007 335 414 334.906 414H334.526C334.433 414 334.293 414.007 334.106 414.02C333.92 414.033 333.726 414.047 333.526 414.06C333.326 414.073 333.133 414.087 332.946 414.1C332.773 414.113 332.64 414.12 332.546 414.12L332.526 414.04L332.566 413.68L332.666 413.6C332.84 413.6 333.006 413.593 333.166 413.58C333.326 413.567 333.486 413.52 333.646 413.44C333.806 413.347 333.96 413.213 334.106 413.04C334.266 412.853 334.426 412.593 334.586 412.26C334.626 412.193 334.66 412.12 334.686 412.04C334.726 411.947 334.78 411.813 334.846 411.64C334.926 411.467 335.02 411.24 335.126 410.96C335.246 410.667 335.393 410.293 335.566 409.84C335.753 409.373 335.973 408.807 336.226 408.14C336.493 407.473 336.813 406.667 337.186 405.72C337.36 405.253 337.54 404.793 337.726 404.34C337.913 403.873 338.086 403.44 338.246 403.04C338.406 402.64 338.546 402.287 338.666 401.98C338.8 401.673 338.893 401.447 338.946 401.3L340.126 400.7H340.346ZM337.466 407.56H341.286L339.386 402.42L337.466 407.56ZM360.562 400.88L360.522 401.24L360.422 401.32C360.209 401.32 360.002 401.333 359.802 401.36C359.616 401.373 359.469 401.427 359.362 401.52C359.256 401.613 359.156 401.733 359.062 401.88C358.982 402.027 358.929 402.287 358.902 402.66C358.889 402.847 358.876 403.02 358.862 403.18C358.862 403.34 358.856 403.527 358.842 403.74C358.842 403.953 358.842 404.213 358.842 404.52C358.842 404.827 358.842 405.22 358.842 405.7V409.22C358.842 409.967 358.842 410.58 358.842 411.06C358.856 411.54 358.862 411.953 358.862 412.3C358.876 412.633 358.889 412.933 358.902 413.2C358.929 413.467 358.956 413.76 358.982 414.08L358.822 414.18L357.582 414.1L357.382 413.86L350.262 403.2C350.262 403.333 350.256 403.467 350.242 403.6C350.242 403.733 350.242 403.9 350.242 404.1C350.242 404.287 350.242 404.507 350.242 404.76C350.242 405.013 350.242 405.327 350.242 405.7V409.38C350.242 409.54 350.242 409.753 350.242 410.02C350.242 410.273 350.242 410.54 350.242 410.82C350.256 411.1 350.262 411.373 350.262 411.64C350.276 411.893 350.289 412.1 350.302 412.26C350.329 412.593 350.382 412.847 350.462 413.02C350.556 413.18 350.669 413.307 350.802 413.4C350.909 413.48 351.049 413.533 351.222 413.56C351.396 413.587 351.616 413.6 351.882 413.6L351.982 413.68L352.042 414.04L352.002 414.12C351.909 414.12 351.762 414.113 351.562 414.1C351.376 414.087 351.176 414.073 350.962 414.06C350.749 414.047 350.542 414.033 350.342 414.02C350.156 414.007 350.016 414 349.922 414H349.542C349.449 414 349.296 414.007 349.082 414.02C348.869 414.033 348.649 414.047 348.422 414.06C348.196 414.073 347.976 414.087 347.762 414.1C347.549 414.113 347.396 414.12 347.302 414.12L347.262 414.04L347.322 413.68L347.422 413.6C347.662 413.6 347.862 413.593 348.022 413.58C348.196 413.553 348.349 413.493 348.482 413.4C348.576 413.333 348.669 413.227 348.762 413.08C348.869 412.92 348.942 412.647 348.982 412.26C348.996 412.167 349.002 412.06 349.002 411.94C349.016 411.807 349.022 411.647 349.022 411.46C349.022 411.273 349.022 411.047 349.022 410.78C349.022 410.513 349.022 410.18 349.022 409.78V405.72C349.022 405.253 349.022 404.86 349.022 404.54C349.022 404.22 349.022 403.947 349.022 403.72C349.022 403.493 349.016 403.3 349.002 403.14C349.002 402.98 348.996 402.82 348.982 402.66C348.956 402.38 348.896 402.147 348.802 401.96C348.709 401.76 348.602 401.613 348.482 401.52C348.362 401.427 348.209 401.373 348.022 401.36C347.849 401.333 347.649 401.32 347.422 401.32L347.322 401.24L347.262 400.88L347.302 400.8C347.396 400.8 347.529 400.807 347.702 400.82C347.889 400.833 348.076 400.847 348.262 400.86C348.449 400.873 348.629 400.887 348.802 400.9C348.989 400.913 349.129 400.92 349.222 400.92H349.922C350.029 400.92 350.176 400.913 350.362 400.9C350.562 400.887 350.722 400.867 350.842 400.84L350.942 400.9C350.996 401.087 351.102 401.347 351.262 401.68C351.436 402 351.636 402.36 351.862 402.76C352.102 403.16 352.356 403.587 352.622 404.04C352.902 404.493 353.182 404.94 353.462 405.38C354.476 407.007 355.356 408.333 356.102 409.36C356.862 410.387 357.349 411.053 357.562 411.36C357.562 411.267 357.562 411.18 357.562 411.1C357.576 411.02 357.582 410.927 357.582 410.82C357.582 410.713 357.582 410.58 357.582 410.42C357.582 410.26 357.582 410.047 357.582 409.78V405.72C357.582 405.253 357.582 404.86 357.582 404.54C357.582 404.22 357.576 403.947 357.562 403.72C357.562 403.493 357.556 403.3 357.542 403.14C357.542 402.98 357.536 402.82 357.522 402.66C357.496 402.287 357.436 402.027 357.342 401.88C357.249 401.733 357.149 401.613 357.042 401.52C356.922 401.427 356.762 401.373 356.562 401.36C356.376 401.333 356.176 401.32 355.962 401.32L355.882 401.24L355.822 400.88L355.862 400.8C355.956 400.8 356.089 400.807 356.262 400.82C356.436 400.833 356.609 400.847 356.782 400.86C356.969 400.873 357.149 400.887 357.322 400.9C357.496 400.913 357.629 400.92 357.722 400.92H358.662C358.756 400.92 358.889 400.92 359.062 400.92C359.236 400.907 359.416 400.893 359.602 400.88C359.789 400.867 359.969 400.853 360.142 400.84C360.316 400.827 360.449 400.813 360.542 400.8L360.562 400.88ZM380.429 414.12C380.336 414.12 380.182 414.113 379.969 414.1C379.756 414.087 379.536 414.073 379.309 414.06C379.082 414.047 378.862 414.033 378.649 414.02C378.436 414.007 378.282 414 378.189 414H377.809C377.716 414 377.562 414.007 377.349 414.02C377.136 414.033 376.916 414.047 376.689 414.06C376.462 414.073 376.242 414.087 376.029 414.1C375.816 414.113 375.662 414.12 375.569 414.12L375.529 414.04L375.589 413.68L375.669 413.6C375.882 413.6 376.082 413.593 376.269 413.58C376.469 413.553 376.629 413.493 376.749 413.4C376.856 413.307 376.949 413.187 377.029 413.04C377.122 412.893 377.189 412.633 377.229 412.26C377.242 412.167 377.249 412.06 377.249 411.94C377.262 411.807 377.269 411.647 377.269 411.46C377.282 411.273 377.289 411.047 377.289 410.78C377.289 410.513 377.289 410.18 377.289 409.78V407.48H370.169V409.38C370.169 409.86 370.169 410.253 370.169 410.56C370.169 410.853 370.169 411.1 370.169 411.3C370.182 411.5 370.189 411.673 370.189 411.82C370.202 411.953 370.216 412.1 370.229 412.26C370.256 412.633 370.316 412.893 370.409 413.04C370.502 413.187 370.602 413.307 370.709 413.4C370.829 413.493 370.982 413.553 371.169 413.58C371.369 413.593 371.576 413.6 371.789 413.6L371.869 413.68L371.929 414.04L371.889 414.12C371.796 414.12 371.642 414.113 371.429 414.1C371.216 414.087 370.996 414.073 370.769 414.06C370.542 414.047 370.322 414.033 370.109 414.02C369.896 414.007 369.742 414 369.649 414H369.269C369.176 414 369.022 414.007 368.809 414.02C368.596 414.033 368.376 414.047 368.149 414.06C367.922 414.073 367.702 414.087 367.489 414.1C367.276 414.113 367.122 414.12 367.029 414.12L366.989 414.04L367.049 413.68L367.149 413.6C367.362 413.6 367.562 413.593 367.749 413.58C367.936 413.553 368.089 413.493 368.209 413.4C368.316 413.307 368.416 413.187 368.509 413.04C368.616 412.893 368.682 412.633 368.709 412.26C368.709 412.167 368.709 412.06 368.709 411.94C368.722 411.807 368.729 411.647 368.729 411.46C368.742 411.273 368.749 411.047 368.749 410.78C368.749 410.513 368.749 410.18 368.749 409.78V405.72C368.749 405.253 368.749 404.86 368.749 404.54C368.749 404.22 368.742 403.947 368.729 403.72C368.729 403.493 368.722 403.3 368.709 403.14C368.709 402.98 368.702 402.82 368.689 402.66C368.662 402.3 368.602 402.047 368.509 401.9C368.416 401.74 368.316 401.613 368.209 401.52C368.089 401.427 367.936 401.373 367.749 401.36C367.562 401.333 367.362 401.32 367.149 401.32L367.049 401.24L366.989 400.88L367.029 400.8C367.122 400.8 367.276 400.807 367.489 400.82C367.702 400.833 367.922 400.847 368.149 400.86C368.376 400.873 368.596 400.887 368.809 400.9C369.022 400.913 369.176 400.92 369.269 400.92H369.649C369.742 400.92 369.896 400.913 370.109 400.9C370.322 400.887 370.542 400.873 370.769 400.86C370.996 400.847 371.216 400.833 371.429 400.82C371.642 400.807 371.796 400.8 371.889 400.8L371.929 400.88L371.869 401.24L371.789 401.32C371.576 401.32 371.369 401.333 371.169 401.36C370.982 401.373 370.829 401.427 370.709 401.52C370.602 401.613 370.502 401.733 370.409 401.88C370.316 402.027 370.256 402.287 370.229 402.66C370.216 402.847 370.202 403.02 370.189 403.18C370.189 403.34 370.182 403.527 370.169 403.74C370.169 403.953 370.169 404.213 370.169 404.52C370.169 404.827 370.169 405.22 370.169 405.7V406.6H377.289V405.72C377.289 405.253 377.289 404.86 377.289 404.54C377.289 404.22 377.282 403.947 377.269 403.72C377.269 403.493 377.262 403.3 377.249 403.14C377.249 402.98 377.242 402.82 377.229 402.66C377.202 402.287 377.142 402.027 377.049 401.88C376.956 401.733 376.856 401.613 376.749 401.52C376.629 401.427 376.469 401.373 376.269 401.36C376.082 401.333 375.882 401.32 375.669 401.32L375.589 401.24L375.529 400.88L375.569 400.8C375.662 400.8 375.816 400.807 376.029 400.82C376.242 400.833 376.462 400.847 376.689 400.86C376.916 400.873 377.136 400.887 377.349 400.9C377.562 400.913 377.716 400.92 377.809 400.92H378.189C378.282 400.92 378.436 400.913 378.649 400.9C378.862 400.887 379.082 400.873 379.309 400.86C379.536 400.847 379.756 400.833 379.969 400.82C380.182 400.807 380.336 400.8 380.429 400.8L380.469 400.88L380.409 401.24L380.309 401.32C380.096 401.32 379.896 401.333 379.709 401.36C379.522 401.373 379.369 401.427 379.249 401.52C379.142 401.613 379.036 401.733 378.929 401.88C378.836 402.027 378.776 402.287 378.749 402.66C378.736 402.847 378.722 403.02 378.709 403.18C378.709 403.34 378.709 403.527 378.709 403.74C378.709 403.953 378.709 404.213 378.709 404.52C378.709 404.827 378.709 405.22 378.709 405.7V409.38C378.709 409.86 378.709 410.253 378.709 410.56C378.709 410.853 378.709 411.1 378.709 411.3C378.709 411.5 378.709 411.673 378.709 411.82C378.722 411.953 378.736 412.1 378.749 412.26C378.776 412.633 378.836 412.893 378.929 413.04C379.036 413.187 379.142 413.307 379.249 413.4C379.369 413.493 379.522 413.553 379.709 413.58C379.896 413.593 380.096 413.6 380.309 413.6L380.409 413.68L380.469 414.04L380.429 414.12ZM387.944 400.92C388.118 400.92 388.378 400.92 388.724 400.92C389.084 400.907 389.444 400.893 389.804 400.88C390.164 400.867 390.484 400.86 390.764 400.86C391.058 400.847 391.238 400.84 391.304 400.84L391.404 401.04L391.324 403.22H390.824L390.744 403.14C390.718 402.833 390.678 402.593 390.624 402.42C390.584 402.247 390.451 402.12 390.224 402.04C390.011 401.96 389.684 401.913 389.244 401.9C388.804 401.887 388.184 401.88 387.384 401.88H385.464L385.424 402.66C385.411 402.873 385.398 403.053 385.384 403.2C385.384 403.347 385.378 403.527 385.364 403.74C385.364 403.953 385.364 404.213 385.364 404.52C385.364 404.813 385.364 405.533 385.364 406.68C385.764 406.667 386.164 406.66 386.564 406.66C386.964 406.66 387.324 406.653 387.644 406.64C387.978 406.627 388.258 406.6 388.484 406.56C388.711 406.507 388.864 406.433 388.944 406.34C389.051 406.233 389.144 406.127 389.224 406.02C389.304 405.913 389.344 405.76 389.344 405.56L389.444 405.46L389.784 405.42L389.864 405.46C389.838 405.767 389.811 406.033 389.784 406.26C389.771 406.487 389.764 406.747 389.764 407.04C389.764 407.36 389.771 407.66 389.784 407.94C389.811 408.207 389.838 408.5 389.864 408.82L389.784 408.86L389.424 408.82L389.344 408.76C389.344 408.547 389.304 408.353 389.224 408.18C389.144 407.993 389.051 407.84 388.944 407.72C388.864 407.64 388.711 407.58 388.484 407.54C388.258 407.5 387.984 407.473 387.664 407.46C387.344 407.447 386.984 407.44 386.584 407.44C386.184 407.44 385.778 407.44 385.364 407.44V409.38C385.364 409.86 385.364 410.253 385.364 410.56C385.364 410.853 385.364 411.12 385.364 411.36C385.378 411.587 385.391 411.8 385.404 412C385.418 412.187 385.438 412.407 385.464 412.66C385.464 412.913 385.598 413.04 385.864 413.04H387.564C388.364 413.04 388.991 413.027 389.444 413C389.911 412.96 390.264 412.887 390.504 412.78C390.744 412.673 390.911 412.513 391.004 412.3C391.111 412.073 391.211 411.78 391.304 411.42L391.384 411.34H391.904L391.544 413.88L391.384 414.08C391.318 414.08 391.164 414.073 390.924 414.06C390.684 414.06 390.411 414.053 390.104 414.04C389.811 414.027 389.511 414.013 389.204 414C388.911 414 388.678 414 388.504 414H384.464C384.371 414 384.218 414.007 384.004 414.02C383.791 414.033 383.571 414.047 383.344 414.06C383.118 414.073 382.898 414.087 382.684 414.1C382.471 414.113 382.318 414.12 382.224 414.12L382.184 414.04L382.244 413.68L382.344 413.6C382.558 413.6 382.758 413.593 382.944 413.58C383.131 413.553 383.284 413.493 383.404 413.4C383.511 413.307 383.611 413.187 383.704 413.04C383.811 412.893 383.878 412.633 383.904 412.26C383.904 412.167 383.904 412.06 383.904 411.94C383.918 411.807 383.924 411.647 383.924 411.46C383.938 411.273 383.944 411.047 383.944 410.78C383.944 410.513 383.944 410.18 383.944 409.78V405.72C383.944 405.253 383.944 404.86 383.944 404.54C383.944 404.22 383.944 403.947 383.944 403.72C383.944 403.493 383.938 403.3 383.924 403.14C383.924 402.98 383.918 402.82 383.904 402.66C383.878 402.3 383.811 402.047 383.704 401.9C383.611 401.74 383.511 401.613 383.404 401.52C383.284 401.427 383.131 401.373 382.944 401.36C382.758 401.333 382.558 401.32 382.344 401.32L382.244 401.24L382.184 400.88L382.224 400.8C382.318 400.8 382.471 400.807 382.684 400.82C382.898 400.833 383.124 400.847 383.364 400.86C383.618 400.873 383.858 400.887 384.084 400.9C384.324 400.913 384.518 400.92 384.664 400.92H387.944ZM398.51 414.12C398.417 414.12 398.263 414.113 398.05 414.1C397.837 414.087 397.617 414.073 397.39 414.06C397.163 414.047 396.943 414.033 396.73 414.02C396.517 414.007 396.363 414 396.27 414H395.89C395.797 414 395.643 414.007 395.43 414.02C395.217 414.033 394.997 414.047 394.77 414.06C394.543 414.073 394.323 414.087 394.11 414.1C393.897 414.113 393.743 414.12 393.65 414.12L393.61 414.04L393.67 413.68L393.77 413.6C393.93 413.6 394.117 413.593 394.33 413.58C394.543 413.553 394.71 413.5 394.83 413.42C394.937 413.34 395.037 413.213 395.13 413.04C395.223 412.867 395.29 412.607 395.33 412.26C395.33 412.167 395.33 412.06 395.33 411.94C395.343 411.807 395.35 411.647 395.35 411.46C395.363 411.273 395.37 411.047 395.37 410.78C395.37 410.513 395.37 410.18 395.37 409.78V404.58C395.37 404.313 395.363 404.013 395.35 403.68C395.35 403.333 395.337 402.993 395.31 402.66C395.283 402.353 395.223 402.113 395.13 401.94C395.037 401.753 394.937 401.613 394.83 401.52C394.71 401.453 394.583 401.407 394.45 401.38C394.33 401.34 394.103 401.32 393.77 401.32L393.67 401.24L393.61 400.88L393.65 400.8C393.743 400.8 393.863 400.807 394.01 400.82C394.17 400.833 394.33 400.847 394.49 400.86C394.663 400.873 394.837 400.887 395.01 400.9C395.183 400.913 395.343 400.92 395.49 400.92H396.21C396.357 400.92 396.523 400.92 396.71 400.92C396.897 400.92 397.083 400.92 397.27 400.92C397.47 400.907 397.65 400.9 397.81 400.9C397.97 400.9 398.103 400.9 398.21 400.9C399.103 400.9 399.857 400.987 400.47 401.16C401.097 401.333 401.603 401.573 401.99 401.88C402.377 402.173 402.657 402.533 402.83 402.96C403.017 403.373 403.11 403.82 403.11 404.3C403.11 404.873 403.003 405.373 402.79 405.8C402.59 406.213 402.33 406.573 402.01 406.88C401.69 407.173 401.33 407.413 400.93 407.6C400.53 407.773 400.137 407.907 399.75 408C400.177 408.6 400.617 409.193 401.07 409.78C401.523 410.367 401.99 410.94 402.47 411.5C402.737 411.807 402.983 412.08 403.21 412.32C403.437 412.56 403.677 412.767 403.93 412.94C404.197 413.113 404.49 413.253 404.81 413.36C405.13 413.467 405.517 413.547 405.97 413.6L406.09 413.68L406.13 414.04L406.09 414.12C405.797 414.133 405.463 414.147 405.09 414.16C404.717 414.187 404.423 414.2 404.21 414.2C403.863 414.2 403.563 414.16 403.31 414.08C403.057 414 402.81 413.873 402.57 413.7C402.33 413.527 402.083 413.3 401.83 413.02C401.59 412.74 401.31 412.407 400.99 412.02C400.95 411.98 400.83 411.827 400.63 411.56C400.443 411.28 400.21 410.953 399.93 410.58C399.663 410.193 399.377 409.787 399.07 409.36C398.777 408.92 398.503 408.513 398.25 408.14H396.79C396.79 408.5 396.79 408.893 396.79 409.32C396.79 409.747 396.79 410.153 396.79 410.54C396.803 410.927 396.81 411.28 396.81 411.6C396.823 411.907 396.837 412.127 396.85 412.26C396.877 412.647 396.943 412.92 397.05 413.08C397.157 413.227 397.25 413.333 397.33 413.4C397.45 413.467 397.57 413.52 397.69 413.56C397.823 413.587 398.063 413.6 398.41 413.6L398.49 413.68L398.55 414.04L398.51 414.12ZM398.61 407.26C399.717 407.26 400.51 407.007 400.99 406.5C401.483 405.98 401.73 405.287 401.73 404.42C401.73 403.607 401.45 402.98 400.89 402.54C400.343 402.1 399.59 401.88 398.63 401.88H396.89C396.863 402.267 396.843 402.593 396.83 402.86C396.83 403.127 396.823 403.36 396.81 403.56C396.797 403.76 396.79 403.94 396.79 404.1C396.79 404.26 396.79 404.413 396.79 404.56V406.52C396.79 406.693 396.797 406.833 396.81 406.94C396.823 407.033 396.857 407.107 396.91 407.16C396.963 407.2 397.037 407.227 397.13 407.24C397.237 407.253 397.377 407.26 397.55 407.26H398.61ZM412.124 400.92C412.297 400.92 412.557 400.92 412.904 400.92C413.264 400.907 413.624 400.893 413.984 400.88C414.344 400.867 414.664 400.86 414.944 400.86C415.237 400.847 415.417 400.84 415.484 400.84L415.584 401.04L415.504 403.22H415.004L414.924 403.14C414.897 402.833 414.857 402.593 414.804 402.42C414.764 402.247 414.631 402.12 414.404 402.04C414.191 401.96 413.864 401.913 413.424 401.9C412.984 401.887 412.364 401.88 411.564 401.88H409.644L409.604 402.66C409.591 402.873 409.577 403.053 409.564 403.2C409.564 403.347 409.557 403.527 409.544 403.74C409.544 403.953 409.544 404.213 409.544 404.52C409.544 404.813 409.544 405.533 409.544 406.68C409.944 406.667 410.344 406.66 410.744 406.66C411.144 406.66 411.504 406.653 411.824 406.64C412.157 406.627 412.437 406.6 412.664 406.56C412.891 406.507 413.044 406.433 413.124 406.34C413.231 406.233 413.324 406.127 413.404 406.02C413.484 405.913 413.524 405.76 413.524 405.56L413.624 405.46L413.964 405.42L414.044 405.46C414.017 405.767 413.991 406.033 413.964 406.26C413.951 406.487 413.944 406.747 413.944 407.04C413.944 407.36 413.951 407.66 413.964 407.94C413.991 408.207 414.017 408.5 414.044 408.82L413.964 408.86L413.604 408.82L413.524 408.76C413.524 408.547 413.484 408.353 413.404 408.18C413.324 407.993 413.231 407.84 413.124 407.72C413.044 407.64 412.891 407.58 412.664 407.54C412.437 407.5 412.164 407.473 411.844 407.46C411.524 407.447 411.164 407.44 410.764 407.44C410.364 407.44 409.957 407.44 409.544 407.44V409.38C409.544 409.86 409.544 410.253 409.544 410.56C409.544 410.853 409.544 411.12 409.544 411.36C409.557 411.587 409.571 411.8 409.584 412C409.597 412.187 409.617 412.407 409.644 412.66C409.644 412.913 409.777 413.04 410.044 413.04H411.744C412.544 413.04 413.171 413.027 413.624 413C414.091 412.96 414.444 412.887 414.684 412.78C414.924 412.673 415.091 412.513 415.184 412.3C415.291 412.073 415.391 411.78 415.484 411.42L415.564 411.34H416.084L415.724 413.88L415.564 414.08C415.497 414.08 415.344 414.073 415.104 414.06C414.864 414.06 414.591 414.053 414.284 414.04C413.991 414.027 413.691 414.013 413.384 414C413.091 414 412.857 414 412.684 414H408.644C408.551 414 408.397 414.007 408.184 414.02C407.971 414.033 407.751 414.047 407.524 414.06C407.297 414.073 407.077 414.087 406.864 414.1C406.651 414.113 406.497 414.12 406.404 414.12L406.364 414.04L406.424 413.68L406.524 413.6C406.737 413.6 406.937 413.593 407.124 413.58C407.311 413.553 407.464 413.493 407.584 413.4C407.691 413.307 407.791 413.187 407.884 413.04C407.991 412.893 408.057 412.633 408.084 412.26C408.084 412.167 408.084 412.06 408.084 411.94C408.097 411.807 408.104 411.647 408.104 411.46C408.117 411.273 408.124 411.047 408.124 410.78C408.124 410.513 408.124 410.18 408.124 409.78V405.72C408.124 405.253 408.124 404.86 408.124 404.54C408.124 404.22 408.124 403.947 408.124 403.72C408.124 403.493 408.117 403.3 408.104 403.14C408.104 402.98 408.097 402.82 408.084 402.66C408.057 402.3 407.991 402.047 407.884 401.9C407.791 401.74 407.691 401.613 407.584 401.52C407.464 401.427 407.311 401.373 407.124 401.36C406.937 401.333 406.737 401.32 406.524 401.32L406.424 401.24L406.364 400.88L406.404 400.8C406.497 400.8 406.651 400.807 406.864 400.82C407.077 400.833 407.304 400.847 407.544 400.86C407.797 400.873 408.037 400.887 408.264 400.9C408.504 400.913 408.697 400.92 408.844 400.92H412.124Z" fill="#404155"/>
</g>
<defs>
<clipPath id="clip0">
<rect width="1050" height="600" fill="white"/>
</clipPath>
</defs>
</svg>
