<svg width="1050" height="600" viewBox="0 0 1050 600" fill="none" xmlns="http://www.w3.org/2000/svg">
<rect width="1050" height="600" fill="white"/>
<rect width="48" height="600" fill="black"/>
<rect x="1032" width="18" height="600" fill="#0088C9"/>
<path d="M616.829 211.84V274.412C616.826 279.116 615.587 283.738 613.234 287.813C610.883 291.888 607.501 295.273 603.428 297.629L599.28 300.018L599.258 300.04H599.237C599.215 300.04 599.193 300.061 599.15 300.083L538.315 335.202C534.236 337.55 529.611 338.786 524.904 338.786C520.197 338.786 515.572 337.55 511.493 335.202L446.423 297.629C441.876 295.006 438.204 291.1 435.868 286.4C435.844 286.354 435.815 286.31 435.781 286.27C435.772 286.245 435.757 286.223 435.737 286.205V286.183C435.725 286.172 435.717 286.156 435.716 286.14C433.93 282.488 433.002 278.476 433.001 274.412V212.752C432.99 211.588 433.078 210.426 433.261 209.277C444.558 231.534 463.517 248.958 486.646 258.34V258.904L514.273 274.868C517.512 276.735 521.186 277.718 524.926 277.718C528.665 277.718 532.339 276.735 535.579 274.868L563.205 258.904V258.752C586.22 249.695 605.234 232.699 616.807 210.841C616.829 211.188 616.829 211.503 616.829 211.84Z" fill="#0088C9"/>
<path d="M486.646 211.839V258.339C463.517 248.957 444.557 231.533 433.261 209.276C433.389 208.172 433.585 207.077 433.847 205.996C434.508 203.267 435.577 200.653 437.018 198.243C439.182 194.502 442.226 191.346 445.886 189.049C449.546 186.752 453.711 185.382 458.02 185.059C461.687 184.815 465.365 185.326 468.826 186.561C472.288 187.796 475.458 189.729 478.142 192.24C480.826 194.75 482.965 197.785 484.428 201.157C485.891 204.528 486.646 208.164 486.646 211.839Z" fill="black"/>
<path d="M616.806 210.85C605.233 232.709 586.22 249.704 563.204 258.762V212.762C563.121 205.84 565.655 199.142 570.298 194.008C574.941 188.874 581.351 185.681 588.246 185.07C593.131 184.738 598.014 185.752 602.363 188.002C602.369 188.002 602.374 188.004 602.379 188.009C602.383 188.013 602.385 188.018 602.385 188.024C602.405 188.036 602.427 188.043 602.45 188.046C605.978 189.902 609.049 192.52 611.442 195.709C613.835 198.898 615.489 202.578 616.285 206.485C616.581 207.923 616.756 209.383 616.806 210.85Z" fill="black"/>
<g style="mix-blend-mode:multiply" opacity="0.08">
<g style="mix-blend-mode:multiply" opacity="0.08">
<path d="M486.646 237.042V258.348C463.517 248.967 444.557 231.542 433.261 209.286C433.389 208.181 433.585 207.086 433.847 206.006C445.119 214.303 465.242 227.964 486.646 237.042Z" fill="#0088C9"/>
</g>
</g>
<g style="mix-blend-mode:multiply" opacity="0.08">
<g style="mix-blend-mode:multiply" opacity="0.08">
<path d="M616.807 210.851C605.234 232.71 586.22 249.705 563.205 258.763V237.131C581.95 228.856 599.746 218.581 616.285 206.486C616.582 207.923 616.756 209.384 616.807 210.851Z" fill="#0088C9"/>
</g>
</g>
<g style="mix-blend-mode:screen" opacity="0.4">
<g style="mix-blend-mode:screen" opacity="0.4">
<path d="M610.313 274.335V274.422C610.304 277.982 609.362 281.476 607.583 284.559C605.803 287.642 603.248 290.205 600.17 291.993L535.057 329.566C531.969 331.345 528.468 332.281 524.904 332.281C521.34 332.281 517.838 331.345 514.75 329.566L464.145 300.354L463.972 300.246L449.681 291.993C446.837 290.346 444.434 288.036 442.676 285.26C440.918 282.485 439.856 279.325 439.581 276.051C463.778 293.297 492.687 302.696 522.399 302.976C552.111 303.256 581.192 294.403 605.709 277.615L605.926 277.463L606.034 277.398C607.5 276.399 608.901 275.378 610.313 274.335Z" fill="white"/>
</g>
</g>
<g style="mix-blend-mode:screen" opacity="0.6">
<g style="mix-blend-mode:screen" opacity="0.6">
<path d="M435.738 286.192C435.76 286.214 435.76 286.236 435.781 286.279C435.772 286.254 435.757 286.232 435.738 286.214V286.192Z" fill="white"/>
</g>
</g>
<g style="mix-blend-mode:multiply" opacity="0.25">
<g style="mix-blend-mode:multiply" opacity="0.25">
<path d="M599.15 300.091L538.315 335.21C534.236 337.558 529.611 338.794 524.904 338.794C520.197 338.794 515.572 337.558 511.492 335.21L446.423 297.637C441.876 295.014 438.204 291.108 435.868 286.408C436.041 286.712 436.367 287.234 436.845 287.95C437.986 289.576 439.288 291.083 440.733 292.446C442.965 294.526 445.517 296.235 448.291 297.507C451.505 299.157 455.132 301.025 459.042 303.132C466.926 307.258 476.047 312.188 485.756 317.575C490.599 320.29 495.638 323.026 500.698 325.936C503.239 327.392 505.78 328.847 508.343 330.302L512.188 332.495C513.357 333.187 514.576 333.79 515.836 334.298C520.781 336.351 526.268 336.695 531.43 335.275C534.006 334.536 536.469 333.447 538.75 332.039C541.247 330.649 543.701 329.281 546.134 327.935C555.864 322.548 564.986 317.618 572.848 313.492C587.595 305.662 597.912 300.667 599.15 300.091Z" fill="#0088C9"/>
</g>
</g>
<g style="mix-blend-mode:multiply" opacity="0.25">
<g style="mix-blend-mode:multiply" opacity="0.25">
<path d="M616.807 210.849L614.787 214.975L612.571 219.037L610.161 222.968L607.554 226.79L604.753 230.483L601.799 234.066L598.65 237.498L595.348 240.777L591.895 243.905L588.29 246.88L584.554 249.682L580.688 252.31L576.692 254.764L572.587 257.045L568.374 259.108L565.311 260.433L564.399 260.976C558.231 264.646 552.085 268.36 545.873 271.966L536.512 277.395C532.966 279.374 528.975 280.42 524.914 280.436C522.891 280.426 520.878 280.163 518.92 279.654C517.947 279.391 516.989 279.072 516.053 278.698C515.13 278.327 514.23 277.899 513.36 277.417L503.977 271.966C497.766 268.36 491.619 264.646 485.451 260.998L484.235 260.281V259.89L481.412 258.63L477.198 256.502L473.093 254.156L469.097 251.637L465.231 248.922L461.474 246.055L457.89 243.014L454.459 239.8L451.179 236.455L448.052 232.937L445.119 229.288L442.339 225.531L439.777 221.621L437.388 217.625L435.216 213.499L433.261 209.285L435.672 213.26L438.235 217.082L440.949 220.818L443.795 224.423L446.792 227.898L449.919 231.243L453.199 234.436L456.565 237.498L460.084 240.408L463.732 243.145L467.446 245.751L471.291 248.162L475.222 250.421L479.261 252.506L483.366 254.417L486.646 255.763V258.913L514.272 274.876C517.512 276.743 521.186 277.726 524.925 277.726C528.665 277.726 532.338 276.743 535.578 274.876L563.205 258.913V256.198L566.506 254.873L570.589 253.027L574.607 251.029L578.538 248.835L582.361 246.468L586.096 243.948L589.745 241.277L593.263 238.453L596.651 235.456L599.931 232.329L603.102 229.071L606.121 225.661L609.009 222.143L611.746 218.494L614.352 214.715L616.807 210.849Z" fill="#0088C9"/>
</g>
</g>
<g style="mix-blend-mode:screen" opacity="0.4">
<g style="mix-blend-mode:screen" opacity="0.4">
<path d="M605.709 277.613L601.539 280.632L596.891 283.673C593.72 285.627 590.498 287.466 587.226 289.189C583.925 290.905 580.551 292.469 577.105 293.88C573.659 295.292 570.169 296.581 566.636 297.746C559.556 300.09 552.291 301.834 544.918 302.959C541.225 303.545 537.512 303.958 533.776 304.24C529.975 304.544 526.37 304.653 522.591 304.631C518.855 304.631 515.119 304.457 511.384 304.175L505.802 303.61L500.264 302.829L494.747 301.808L489.274 300.592L483.866 299.158L478.502 297.486L473.224 295.618L468.033 293.533L462.907 291.252L457.89 288.777L453.004 286.062L448.204 283.173L443.534 280.111L440.906 278.243C441.865 283.24 444.673 287.691 448.768 290.71C450.006 291.578 451.288 292.317 452.591 293.142L456.457 295.509L463.972 300.244L449.681 291.991C446.837 290.344 444.434 288.034 442.676 285.259C440.918 282.483 439.856 279.324 439.581 276.049C463.778 293.296 492.687 302.695 522.399 302.974C552.111 303.254 581.192 294.401 605.709 277.613Z" fill="white"/>
</g>
</g>
<g style="mix-blend-mode:screen" opacity="0.5">
<g style="mix-blend-mode:screen" opacity="0.5">
<path d="M486.647 211.839V232.624C486.647 232.624 485.909 226.955 485.409 218.463C485.257 216.356 485.127 214.032 485.018 211.622C484.853 209.243 484.393 206.894 483.65 204.628C482 199.749 478.948 195.466 474.876 192.314C472.818 190.735 470.543 189.462 468.121 188.534C465.772 187.697 463.328 187.157 460.845 186.927C460.172 186.927 459.521 186.906 458.869 186.906L458 186.884L457.11 186.949C455.948 187.01 454.794 187.162 453.656 187.405C451.537 187.857 449.48 188.564 447.532 189.512C444.552 190.987 441.849 192.963 439.539 195.354C438.692 196.245 438.041 196.961 437.628 197.483C437.324 197.873 437.107 198.134 437.02 198.243C439.184 194.502 442.228 191.346 445.887 189.049C449.547 186.752 453.713 185.382 458.022 185.059C461.689 184.815 465.367 185.326 468.828 186.561C472.289 187.796 475.46 189.729 478.144 192.24C480.827 194.75 482.967 197.785 484.429 201.157C485.892 204.528 486.647 208.164 486.647 211.839Z" fill="white"/>
</g>
</g>
<g style="mix-blend-mode:screen" opacity="0.5">
<g style="mix-blend-mode:screen" opacity="0.5">
<path d="M602.363 188.002C602.102 187.915 601.147 187.611 599.627 187.242C597.202 186.653 594.716 186.354 592.22 186.352C590.588 186.36 588.96 186.512 587.355 186.808C586.489 186.943 585.632 187.139 584.793 187.394C584.38 187.524 583.946 187.633 583.511 187.763C583.077 187.894 582.642 188.089 582.208 188.241C580.459 188.953 578.78 189.826 577.191 190.847C575.576 191.936 574.083 193.195 572.739 194.605C571.364 195.985 570.147 197.515 569.112 199.166C568.095 200.78 567.236 202.489 566.549 204.269C566.208 205.113 565.917 205.976 565.68 206.854C565.421 207.679 565.218 208.521 565.072 209.373C564.894 210.22 564.764 211.075 564.681 211.936L564.616 212.566C564.594 212.653 564.572 212.827 564.572 212.827L564.551 213.131C564.507 213.543 564.486 213.956 564.442 214.347C563.921 220.732 563.204 224.968 563.204 224.968V212.762C563.121 205.84 565.655 199.142 570.298 194.008C574.941 188.874 581.351 185.681 588.246 185.07C593.131 184.738 598.014 185.752 602.363 188.002Z" fill="white"/>
</g>
</g>
<path d="M382.697 371.024C382.331 374.394 381.122 376.972 379.071 378.759C377.035 380.546 374.318 381.439 370.919 381.439C368.546 381.439 366.444 380.846 364.613 379.66C362.797 378.473 361.391 376.796 360.395 374.628C359.398 372.445 358.893 369.955 358.878 367.157V363.004C358.878 360.163 359.376 357.643 360.373 355.446C361.369 353.249 362.797 351.557 364.657 350.37C366.532 349.169 368.686 348.568 371.117 348.568C374.545 348.568 377.248 349.499 379.225 351.359C381.217 353.205 382.375 355.761 382.697 359.027H379.972C379.298 353.593 376.347 350.875 371.117 350.875C368.217 350.875 365.902 351.959 364.174 354.127C362.46 356.295 361.603 359.291 361.603 363.114V367.025C361.603 370.717 362.438 373.661 364.108 375.858C365.792 378.056 368.063 379.154 370.919 379.154C373.747 379.154 375.878 378.48 377.313 377.133C378.749 375.771 379.635 373.734 379.972 371.024H382.697ZM412.909 366.74C412.909 369.684 412.396 372.27 411.371 374.496C410.36 376.723 408.91 378.437 407.021 379.638C405.131 380.839 402.948 381.439 400.473 381.439C396.737 381.439 393.72 380.106 391.42 377.44C389.12 374.76 387.97 371.149 387.97 366.608V363.312C387.97 360.397 388.483 357.819 389.508 355.578C390.548 353.322 392.013 351.593 393.903 350.392C395.792 349.176 397.968 348.568 400.429 348.568C402.89 348.568 405.058 349.162 406.933 350.348C408.822 351.535 410.28 353.212 411.305 355.38C412.331 357.548 412.865 360.06 412.909 362.917V366.74ZM410.207 363.268C410.207 359.416 409.335 356.398 407.592 354.215C405.849 352.033 403.461 350.941 400.429 350.941C397.455 350.941 395.082 352.04 393.31 354.237C391.552 356.42 390.673 359.474 390.673 363.4V366.74C390.673 370.534 391.552 373.544 393.31 375.771C395.067 377.982 397.455 379.088 400.473 379.088C403.534 379.088 405.922 377.997 407.636 375.814C409.35 373.617 410.207 370.563 410.207 366.652V363.268ZM423.302 349.008L435.102 377.243L446.945 349.008H450.548V381H447.846V367.069L448.065 352.787L436.156 381H434.069L422.204 352.897L422.423 366.981V381H419.721V349.008H423.302ZM461.359 367.97V381H458.656V349.008H469.555C472.88 349.008 475.502 349.857 477.421 351.557C479.354 353.256 480.321 355.592 480.321 358.566C480.321 361.569 479.391 363.891 477.531 365.531C475.685 367.157 473.004 367.97 469.489 367.97H461.359ZM461.359 365.685H469.555C472.177 365.685 474.176 365.062 475.553 363.817C476.93 362.572 477.619 360.836 477.619 358.61C477.619 356.398 476.93 354.64 475.553 353.336C474.191 352.018 472.25 351.344 469.73 351.315H461.359V365.685ZM500.624 372.035H486.1L482.804 381H479.97L492.077 349.008H494.647L506.754 381H503.942L500.624 372.035ZM486.935 369.728H499.767L493.351 352.304L486.935 369.728ZM535.297 381H532.594L514.203 353.622V381H511.479V349.008H514.203L532.616 376.408V349.008H535.297V381ZM552.194 366.454L561.972 349.008H565.092L553.534 368.959V381H550.832V368.959L539.296 349.008H542.504L552.194 366.454Z" fill="black"/>
<path d="M451.109 405.488C450.934 406.992 450.377 408.154 449.439 408.975C448.508 409.788 447.268 410.195 445.719 410.195C444.039 410.195 442.691 409.593 441.676 408.389C440.667 407.184 440.162 405.573 440.162 403.555V402.188C440.162 400.866 440.396 399.704 440.865 398.701C441.34 397.699 442.011 396.93 442.877 396.396C443.743 395.856 444.745 395.586 445.885 395.586C447.395 395.586 448.606 396.009 449.518 396.855C450.429 397.695 450.96 398.861 451.109 400.352H449.225C449.062 399.219 448.707 398.398 448.16 397.891C447.62 397.383 446.861 397.129 445.885 397.129C444.687 397.129 443.746 397.572 443.062 398.457C442.385 399.342 442.047 400.602 442.047 402.236V403.613C442.047 405.156 442.369 406.383 443.014 407.295C443.658 408.206 444.56 408.662 445.719 408.662C446.76 408.662 447.558 408.428 448.111 407.959C448.671 407.484 449.042 406.66 449.225 405.488H451.109ZM458.893 404.248H455.553V410H453.668V395.781H458.375C459.977 395.781 461.207 396.146 462.066 396.875C462.932 397.604 463.365 398.665 463.365 400.059C463.365 400.944 463.124 401.715 462.643 402.373C462.167 403.031 461.503 403.522 460.65 403.848L463.99 409.883V410H461.979L458.893 404.248ZM455.553 402.715H458.434C459.365 402.715 460.104 402.474 460.65 401.992C461.204 401.51 461.48 400.866 461.48 400.059C461.48 399.18 461.217 398.506 460.689 398.037C460.169 397.568 459.413 397.331 458.424 397.324H455.553V402.715ZM474.039 403.428H467.877V408.467H475.035V410H466.002V395.781H474.938V397.324H467.877V401.895H474.039V403.428ZM485.221 406.289H479.264L477.926 410H475.992L481.422 395.781H483.062L488.502 410H486.578L485.221 406.289ZM479.83 404.746H484.664L482.242 398.096L479.83 404.746ZM498.971 397.324H494.4V410H492.535V397.324H487.975V395.781H498.971V397.324ZM503.092 410H501.217V395.781H503.092V410ZM511.236 407.51L515.299 395.781H517.35L512.076 410H510.416L505.152 395.781H507.193L511.236 407.51ZM527.301 403.428H521.139V408.467H528.297V410H519.264V395.781H528.199V397.324H521.139V401.895H527.301V403.428ZM539.781 403.662C538.173 403.2 537.001 402.633 536.266 401.963C535.536 401.286 535.172 400.452 535.172 399.463C535.172 398.343 535.618 397.419 536.51 396.689C537.408 395.954 538.574 395.586 540.006 395.586C540.982 395.586 541.852 395.775 542.613 396.152C543.382 396.53 543.974 397.051 544.391 397.715C544.814 398.379 545.025 399.105 545.025 399.893H543.141C543.141 399.033 542.867 398.359 542.32 397.871C541.773 397.376 541.002 397.129 540.006 397.129C539.081 397.129 538.359 397.334 537.838 397.744C537.324 398.148 537.066 398.711 537.066 399.434C537.066 400.013 537.311 400.505 537.799 400.908C538.294 401.305 539.13 401.67 540.309 402.002C541.493 402.334 542.418 402.702 543.082 403.105C543.753 403.503 544.247 403.968 544.566 404.502C544.892 405.036 545.055 405.664 545.055 406.387C545.055 407.539 544.605 408.464 543.707 409.16C542.809 409.85 541.607 410.195 540.104 410.195C539.127 410.195 538.215 410.01 537.369 409.639C536.523 409.261 535.868 408.747 535.406 408.096C534.951 407.445 534.723 406.706 534.723 405.879H536.607C536.607 406.738 536.923 407.419 537.555 407.92C538.193 408.415 539.042 408.662 540.104 408.662C541.093 408.662 541.852 408.46 542.379 408.057C542.906 407.653 543.17 407.103 543.17 406.406C543.17 405.71 542.926 405.173 542.438 404.795C541.949 404.411 541.064 404.033 539.781 403.662ZM549.352 408.467H556.09V410H547.467V395.781H549.352V408.467ZM568.521 403.35C568.521 404.743 568.287 405.96 567.818 407.002C567.35 408.037 566.686 408.828 565.826 409.375C564.967 409.922 563.964 410.195 562.818 410.195C561.699 410.195 560.706 409.922 559.84 409.375C558.974 408.822 558.3 408.037 557.818 407.021C557.343 405.999 557.099 404.818 557.086 403.477V402.451C557.086 401.084 557.324 399.876 557.799 398.828C558.274 397.78 558.945 396.979 559.811 396.426C560.683 395.866 561.679 395.586 562.799 395.586C563.938 395.586 564.941 395.863 565.807 396.416C566.679 396.963 567.35 397.76 567.818 398.809C568.287 399.85 568.521 401.064 568.521 402.451V403.35ZM566.656 402.432C566.656 400.745 566.318 399.453 565.641 398.555C564.964 397.65 564.016 397.197 562.799 397.197C561.614 397.197 560.68 397.65 559.996 398.555C559.319 399.453 558.971 400.703 558.951 402.305V403.35C558.951 404.984 559.293 406.27 559.977 407.207C560.667 408.138 561.614 408.604 562.818 408.604C564.029 408.604 564.967 408.164 565.631 407.285C566.295 406.4 566.637 405.133 566.656 403.486V402.432ZM581.832 408.135C581.35 408.825 580.676 409.342 579.811 409.688C578.951 410.026 577.949 410.195 576.803 410.195C575.644 410.195 574.615 409.925 573.717 409.385C572.818 408.838 572.122 408.063 571.627 407.061C571.139 406.058 570.888 404.896 570.875 403.574V402.334C570.875 400.192 571.373 398.532 572.369 397.354C573.372 396.175 574.778 395.586 576.588 395.586C578.072 395.586 579.267 395.967 580.172 396.729C581.077 397.484 581.63 398.558 581.832 399.951H579.957C579.605 398.07 578.486 397.129 576.598 397.129C575.341 397.129 574.387 397.572 573.736 398.457C573.092 399.336 572.766 400.612 572.76 402.285V403.447C572.76 405.042 573.124 406.312 573.854 407.256C574.583 408.193 575.569 408.662 576.812 408.662C577.516 408.662 578.131 408.584 578.658 408.428C579.186 408.271 579.622 408.008 579.967 407.637V404.443H576.676V402.92H581.832V408.135ZM592.818 406.289H586.861L585.523 410H583.59L589.02 395.781H590.66L596.1 410H594.176L592.818 406.289ZM587.428 404.746H592.262L589.84 398.096L587.428 404.746ZM608.941 410H607.057L599.898 399.043V410H598.014V395.781H599.898L607.076 406.787V395.781H608.941V410Z" fill="black"/>
<path d="M594.872 381H588.28L575.448 359.95V381H568.856V349.008H575.448L588.302 370.102V349.008H594.872V381ZM619.086 374.408H607.528L605.331 381H598.322L610.231 349.008H616.339L628.314 381H621.305L619.086 374.408ZM609.308 369.069H617.306L613.285 357.094L609.308 369.069ZM639.916 349.008L648.134 372.211L656.308 349.008H664.965V381H658.351V372.255L659.01 357.16L650.375 381H645.849L637.235 357.182L637.895 372.255V381H631.303V349.008H639.916ZM689.97 367.135H677.313V375.705H692.167V381H670.722V349.008H692.123V354.347H677.313V361.972H689.97V367.135Z" fill="black"/>
</svg>
