<svg width="1050" height="600" viewBox="0 0 1050 600" fill="none" xmlns="http://www.w3.org/2000/svg">
<g clip-path="url(#clip0)">
<rect width="1050" height="600" fill="#0F73EF"/>
<path d="M368.219 204.188V267.573C368.216 272.34 366.961 277.021 364.578 281.149C362.196 285.277 358.77 288.706 354.644 291.093L350.442 293.513L350.42 293.535H350.398C350.376 293.535 350.354 293.557 350.31 293.579L288.685 329.155C284.552 331.533 279.867 332.785 275.099 332.785C270.331 332.785 265.646 331.533 261.513 329.155L195.598 291.093C190.992 288.436 187.272 284.479 184.905 279.718C184.881 279.671 184.851 279.627 184.817 279.586C184.808 279.561 184.793 279.538 184.773 279.52V279.498C184.76 279.487 184.753 279.471 184.751 279.454C182.942 275.755 182.002 271.691 182.001 267.573V205.112C181.99 203.933 182.079 202.756 182.265 201.592C193.708 224.138 212.914 241.789 236.344 251.293V251.865L264.329 268.035C267.611 269.927 271.333 270.923 275.121 270.923C278.909 270.923 282.631 269.927 285.913 268.035L313.898 251.865V251.711C337.213 242.535 356.474 225.319 368.197 203.176C368.219 203.528 368.219 203.847 368.219 204.188Z" fill="white"/>
<path d="M236.343 204.188V251.292C212.913 241.789 193.707 224.138 182.264 201.592C182.394 200.473 182.593 199.364 182.858 198.269C183.528 195.504 184.611 192.856 186.071 190.415C188.262 186.626 191.346 183.429 195.054 181.102C198.761 178.774 202.981 177.387 207.346 177.06C211.06 176.813 214.786 177.33 218.292 178.582C221.799 179.833 225.01 181.791 227.729 184.334C230.447 186.877 232.615 189.952 234.097 193.367C235.579 196.782 236.343 200.465 236.343 204.188Z" fill="white" fill-opacity="0.56"/>
<path d="M368.196 203.187C356.473 225.33 337.212 242.546 313.897 251.721V205.123C313.814 198.111 316.38 191.326 321.083 186.125C325.787 180.924 332.28 177.69 339.265 177.071C344.214 176.735 349.16 177.762 353.566 180.041C353.572 180.041 353.577 180.044 353.581 180.048C353.585 180.052 353.588 180.057 353.588 180.063C353.608 180.075 353.631 180.083 353.654 180.085C357.228 181.966 360.339 184.618 362.763 187.848C365.186 191.079 366.862 194.807 367.668 198.764C367.969 200.221 368.145 201.7 368.196 203.187Z" fill="white" fill-opacity="0.56"/>
<g style="mix-blend-mode:multiply" opacity="0.08">
<g style="mix-blend-mode:multiply" opacity="0.08">
<path d="M236.343 229.719V251.302C212.913 241.799 193.707 224.148 182.264 201.602C182.394 200.483 182.593 199.373 182.858 198.279C194.277 206.684 214.661 220.523 236.343 229.719Z" fill="white"/>
</g>
</g>
<g style="mix-blend-mode:multiply" opacity="0.08">
<g style="mix-blend-mode:multiply" opacity="0.08">
<path d="M368.197 203.187C356.474 225.33 337.212 242.546 313.898 251.722V229.808C332.887 221.426 350.915 211.017 367.669 198.765C367.969 200.221 368.146 201.701 368.197 203.187Z" fill="white"/>
</g>
</g>
<g style="mix-blend-mode:screen" opacity="0.4">
<g style="mix-blend-mode:screen" opacity="0.4">
<path d="M361.619 267.497V267.585C361.609 271.191 360.656 274.731 358.853 277.853C357.051 280.976 354.462 283.572 351.344 285.384L285.384 323.446C282.256 325.248 278.709 326.196 275.099 326.196C271.489 326.196 267.942 325.248 264.813 323.446L213.55 293.854L213.374 293.744L198.898 285.384C196.017 283.715 193.583 281.376 191.802 278.564C190.021 275.752 188.945 272.552 188.667 269.235C213.178 286.706 242.463 296.227 272.561 296.51C302.66 296.793 332.119 287.825 356.954 270.819L357.174 270.665L357.284 270.599C358.769 269.587 360.189 268.553 361.619 267.497Z" fill="white"/>
</g>
</g>
<g style="mix-blend-mode:screen" opacity="0.6">
<g style="mix-blend-mode:screen" opacity="0.6">
<path d="M184.773 279.508C184.795 279.53 184.795 279.552 184.817 279.596C184.808 279.571 184.793 279.548 184.773 279.53V279.508Z" fill="white"/>
</g>
</g>
<g style="mix-blend-mode:multiply" opacity="0.25">
<g style="mix-blend-mode:multiply" opacity="0.25">
<path d="M350.31 293.587L288.685 329.163C284.552 331.542 279.867 332.793 275.099 332.793C270.331 332.793 265.646 331.542 261.513 329.163L195.597 291.101C190.992 288.445 187.272 284.488 184.905 279.727C185.081 280.035 185.411 280.563 185.895 281.289C187.05 282.936 188.37 284.462 189.833 285.843C192.095 287.95 194.68 289.681 197.49 290.969C200.746 292.641 204.42 294.533 208.38 296.668C216.367 300.848 225.607 305.842 235.442 311.298C240.348 314.048 245.452 316.821 250.579 319.769C253.153 321.243 255.727 322.717 258.323 324.191L262.217 326.413C263.402 327.114 264.637 327.724 265.913 328.239C270.922 330.319 276.481 330.667 281.71 329.229C284.32 328.48 286.815 327.377 289.125 325.951C291.655 324.543 294.141 323.157 296.605 321.793C306.462 316.337 315.702 311.342 323.667 307.162C338.605 299.231 349.056 294.17 350.31 293.587Z" fill="white"/>
</g>
</g>
<g style="mix-blend-mode:multiply" opacity="0.25">
<g style="mix-blend-mode:multiply" opacity="0.25">
<path d="M368.197 203.186L366.151 207.366L363.906 211.48L361.464 215.462L358.824 219.335L355.986 223.075L352.994 226.705L349.804 230.181L346.459 233.503L342.961 236.672L339.309 239.686L335.525 242.524L331.609 245.186L327.56 247.672L323.402 249.982L319.134 252.072L316.032 253.414L315.108 253.964C308.859 257.683 302.633 261.445 296.341 265.097L286.858 270.597C283.266 272.601 279.223 273.661 275.11 273.678C273.06 273.668 271.02 273.401 269.037 272.886C268.051 272.619 267.081 272.296 266.133 271.917C265.198 271.541 264.287 271.108 263.405 270.619L253.9 265.097C247.608 261.445 241.382 257.683 235.133 253.986L233.901 253.26V252.864L231.041 251.588L226.773 249.432L222.615 247.056L218.566 244.504L214.65 241.754L210.844 238.85L207.214 235.769L203.738 232.513L200.415 229.125L197.247 225.561L194.277 221.865L191.461 218.058L188.865 214.098L186.445 210.05L184.244 205.87L182.264 201.602L184.707 205.628L187.303 209.5L190.053 213.284L192.935 216.936L195.971 220.457L199.139 223.845L202.462 227.079L205.872 230.181L209.436 233.129L213.132 235.901L216.894 238.542L220.789 240.984L224.771 243.272L228.863 245.384L233.021 247.32L236.343 248.684V251.874L264.329 268.045C267.611 269.937 271.332 270.933 275.121 270.933C278.909 270.933 282.63 269.937 285.912 268.045L313.898 251.874V249.124L317.242 247.782L321.378 245.912L325.448 243.888L329.431 241.666L333.303 239.268L337.087 236.716L340.783 234.009L344.347 231.149L347.78 228.113L351.102 224.945L354.314 221.645L357.372 218.19L360.298 214.626L363.07 210.93L365.711 207.102L368.197 203.186Z" fill="white"/>
</g>
</g>
<g style="mix-blend-mode:screen" opacity="0.4">
<g style="mix-blend-mode:screen" opacity="0.4">
<path d="M356.954 270.817L352.73 273.876L348.022 276.956C344.81 278.936 341.546 280.799 338.231 282.544C334.887 284.282 331.47 285.866 327.979 287.296C324.488 288.726 320.953 290.032 317.374 291.213C310.202 293.587 302.842 295.353 295.373 296.493C291.633 297.087 287.871 297.505 284.086 297.791C280.236 298.099 276.584 298.209 272.756 298.187C268.972 298.187 265.187 298.011 261.403 297.725L255.749 297.153L250.138 296.361L244.55 295.327L239.006 294.095L233.528 292.643L228.093 290.949L222.747 289.056L217.489 286.944L212.296 284.634L207.214 282.126L202.264 279.376L197.401 276.45L192.671 273.348L190.009 271.456C190.981 276.517 193.824 281.026 197.974 284.084C199.228 284.964 200.526 285.712 201.846 286.548L205.762 288.946L213.374 293.743L198.898 285.382C196.017 283.714 193.583 281.374 191.802 278.563C190.021 275.751 188.945 272.55 188.667 269.233C213.178 286.704 242.463 296.225 272.561 296.508C302.66 296.792 332.119 287.824 356.954 270.817Z" fill="white"/>
</g>
</g>
<g style="mix-blend-mode:screen" opacity="0.5">
<g style="mix-blend-mode:screen" opacity="0.5">
<path d="M236.345 204.188V225.243C236.345 225.243 235.597 219.501 235.091 210.898C234.937 208.764 234.805 206.41 234.695 203.968C234.527 201.558 234.062 199.178 233.309 196.883C231.638 191.941 228.546 187.602 224.42 184.409C222.336 182.809 220.031 181.52 217.578 180.58C215.199 179.732 212.723 179.185 210.208 178.952C209.525 178.952 208.865 178.93 208.205 178.93L207.325 178.908L206.423 178.974C205.247 179.036 204.077 179.19 202.925 179.436C200.778 179.894 198.695 180.61 196.721 181.57C193.703 183.065 190.964 185.066 188.624 187.489C187.766 188.391 187.106 189.117 186.688 189.645C186.38 190.041 186.16 190.305 186.072 190.415C188.264 186.626 191.348 183.429 195.055 181.102C198.763 178.774 202.982 177.387 207.347 177.06C211.062 176.813 214.787 177.33 218.294 178.582C221.8 179.833 225.012 181.791 227.731 184.334C230.449 186.877 232.616 189.952 234.098 193.367C235.58 196.782 236.345 200.465 236.345 204.188Z" fill="white"/>
</g>
</g>
<g style="mix-blend-mode:screen" opacity="0.5">
<g style="mix-blend-mode:screen" opacity="0.5">
<path d="M353.566 180.041C353.302 179.953 352.334 179.645 350.794 179.271C348.337 178.675 345.819 178.372 343.291 178.369C341.638 178.377 339.989 178.532 338.363 178.831C337.485 178.969 336.617 179.167 335.767 179.425C335.349 179.557 334.909 179.667 334.469 179.799C334.029 179.931 333.589 180.129 333.149 180.283C331.377 181.005 329.675 181.889 328.066 182.923C326.43 184.026 324.918 185.302 323.556 186.73C322.163 188.128 320.931 189.678 319.882 191.35C318.852 192.985 317.982 194.717 317.286 196.52C316.94 197.374 316.646 198.249 316.406 199.138C316.143 199.974 315.937 200.827 315.79 201.691C315.61 202.548 315.478 203.415 315.394 204.287L315.328 204.925C315.306 205.013 315.284 205.189 315.284 205.189L315.262 205.497C315.218 205.915 315.196 206.333 315.152 206.729C314.624 213.197 313.897 217.487 313.897 217.487V205.123C313.814 198.111 316.38 191.326 321.083 186.125C325.787 180.924 332.28 177.69 339.265 177.071C344.214 176.735 349.16 177.762 353.566 180.041Z" fill="white"/>
</g>
</g>
<path d="M368.219 204.188V267.573C368.216 272.34 366.961 277.021 364.578 281.149C362.196 285.277 358.77 288.706 354.644 291.093L350.442 293.513L350.42 293.535H350.398C350.376 293.535 350.354 293.557 350.31 293.579L288.685 329.155C284.552 331.533 279.867 332.785 275.099 332.785C270.331 332.785 265.646 331.533 261.513 329.155L195.598 291.093C190.992 288.436 187.272 284.479 184.905 279.718C184.881 279.671 184.851 279.627 184.817 279.586C184.808 279.561 184.793 279.538 184.773 279.52V279.498C184.76 279.487 184.753 279.471 184.751 279.454C182.942 275.755 182.002 271.691 182.001 267.573V205.112C181.99 203.933 182.079 202.756 182.265 201.592C193.708 224.138 212.914 241.789 236.344 251.293V251.865L264.329 268.035C267.611 269.927 271.333 270.923 275.121 270.923C278.909 270.923 282.631 269.927 285.913 268.035L313.898 251.865V251.711C337.213 242.535 356.474 225.319 368.197 203.176C368.219 203.528 368.219 203.847 368.219 204.188Z" fill="white"/>
<path d="M236.343 204.188V251.292C212.913 241.789 193.707 224.138 182.264 201.592C182.394 200.473 182.593 199.364 182.858 198.269C183.528 195.504 184.611 192.856 186.071 190.415C188.262 186.626 191.346 183.429 195.054 181.102C198.761 178.774 202.981 177.387 207.346 177.06C211.06 176.813 214.786 177.33 218.292 178.582C221.799 179.833 225.01 181.791 227.729 184.334C230.447 186.877 232.615 189.952 234.097 193.367C235.579 196.782 236.343 200.465 236.343 204.188Z" fill="white" fill-opacity="0.56"/>
<path d="M368.196 203.187C356.473 225.33 337.212 242.546 313.897 251.721V205.123C313.814 198.111 316.38 191.326 321.083 186.125C325.787 180.924 332.28 177.69 339.265 177.071C344.214 176.735 349.16 177.762 353.566 180.041C353.572 180.041 353.577 180.044 353.581 180.048C353.585 180.052 353.588 180.057 353.588 180.063C353.608 180.075 353.631 180.083 353.654 180.085C357.228 181.966 360.339 184.618 362.763 187.848C365.186 191.079 366.862 194.807 367.668 198.764C367.969 200.221 368.145 201.7 368.196 203.187Z" fill="white" fill-opacity="0.56"/>
<g style="mix-blend-mode:multiply" opacity="0.08">
<g style="mix-blend-mode:multiply" opacity="0.08">
<path d="M236.343 229.719V251.302C212.913 241.799 193.707 224.148 182.264 201.602C182.394 200.483 182.593 199.373 182.858 198.279C194.277 206.684 214.661 220.523 236.343 229.719Z" fill="white"/>
</g>
</g>
<g style="mix-blend-mode:multiply" opacity="0.08">
<g style="mix-blend-mode:multiply" opacity="0.08">
<path d="M368.197 203.187C356.474 225.33 337.212 242.546 313.898 251.722V229.808C332.887 221.426 350.915 211.017 367.669 198.765C367.969 200.221 368.146 201.701 368.197 203.187Z" fill="white"/>
</g>
</g>
<g style="mix-blend-mode:screen" opacity="0.4">
<g style="mix-blend-mode:screen" opacity="0.4">
<path d="M361.619 267.497V267.585C361.609 271.191 360.656 274.731 358.853 277.853C357.051 280.976 354.462 283.572 351.344 285.384L285.384 323.446C282.256 325.248 278.709 326.196 275.099 326.196C271.489 326.196 267.942 325.248 264.813 323.446L213.55 293.854L213.374 293.744L198.898 285.384C196.017 283.715 193.583 281.376 191.802 278.564C190.021 275.752 188.945 272.552 188.667 269.235C213.178 286.706 242.463 296.227 272.561 296.51C302.66 296.793 332.119 287.825 356.954 270.819L357.174 270.665L357.284 270.599C358.769 269.587 360.189 268.553 361.619 267.497Z" fill="white"/>
</g>
</g>
<g style="mix-blend-mode:screen" opacity="0.6">
<g style="mix-blend-mode:screen" opacity="0.6">
<path d="M184.773 279.508C184.795 279.53 184.795 279.552 184.817 279.596C184.808 279.571 184.793 279.548 184.773 279.53V279.508Z" fill="white"/>
</g>
</g>
<g style="mix-blend-mode:multiply" opacity="0.25">
<g style="mix-blend-mode:multiply" opacity="0.25">
<path d="M350.31 293.587L288.685 329.163C284.552 331.542 279.867 332.793 275.099 332.793C270.331 332.793 265.646 331.542 261.513 329.163L195.597 291.101C190.992 288.445 187.272 284.488 184.905 279.727C185.081 280.035 185.411 280.563 185.895 281.289C187.05 282.936 188.37 284.462 189.833 285.843C192.095 287.95 194.68 289.681 197.49 290.969C200.746 292.641 204.42 294.533 208.38 296.668C216.367 300.848 225.607 305.842 235.442 311.298C240.348 314.048 245.452 316.821 250.579 319.769C253.153 321.243 255.727 322.717 258.323 324.191L262.217 326.413C263.402 327.114 264.637 327.724 265.913 328.239C270.922 330.319 276.481 330.667 281.71 329.229C284.32 328.48 286.815 327.377 289.125 325.951C291.655 324.543 294.141 323.157 296.605 321.793C306.462 316.337 315.702 311.342 323.667 307.162C338.605 299.231 349.056 294.17 350.31 293.587Z" fill="white"/>
</g>
</g>
<g style="mix-blend-mode:multiply" opacity="0.25">
<g style="mix-blend-mode:multiply" opacity="0.25">
<path d="M368.197 203.186L366.151 207.366L363.906 211.48L361.464 215.462L358.824 219.335L355.986 223.075L352.994 226.705L349.804 230.181L346.459 233.503L342.961 236.672L339.309 239.686L335.525 242.524L331.609 245.186L327.56 247.672L323.402 249.982L319.134 252.072L316.032 253.414L315.108 253.964C308.859 257.683 302.633 261.445 296.341 265.097L286.858 270.597C283.266 272.601 279.223 273.661 275.11 273.678C273.06 273.668 271.02 273.401 269.037 272.886C268.051 272.619 267.081 272.296 266.133 271.917C265.198 271.541 264.287 271.108 263.405 270.619L253.9 265.097C247.608 261.445 241.382 257.683 235.133 253.986L233.901 253.26V252.864L231.041 251.588L226.773 249.432L222.615 247.056L218.566 244.504L214.65 241.754L210.844 238.85L207.214 235.769L203.738 232.513L200.415 229.125L197.247 225.561L194.277 221.865L191.461 218.058L188.865 214.098L186.445 210.05L184.244 205.87L182.264 201.602L184.707 205.628L187.303 209.5L190.053 213.284L192.935 216.936L195.971 220.457L199.139 223.845L202.462 227.079L205.872 230.181L209.436 233.129L213.132 235.901L216.894 238.542L220.789 240.984L224.771 243.272L228.863 245.384L233.021 247.32L236.343 248.684V251.874L264.329 268.045C267.611 269.937 271.332 270.933 275.121 270.933C278.909 270.933 282.63 269.937 285.912 268.045L313.898 251.874V249.124L317.242 247.782L321.378 245.912L325.448 243.888L329.431 241.666L333.303 239.268L337.087 236.716L340.783 234.009L344.347 231.149L347.78 228.113L351.102 224.945L354.314 221.645L357.372 218.19L360.298 214.626L363.07 210.93L365.711 207.102L368.197 203.186Z" fill="white"/>
</g>
</g>
<g style="mix-blend-mode:screen" opacity="0.4">
<g style="mix-blend-mode:screen" opacity="0.4">
<path d="M356.954 270.817L352.73 273.876L348.022 276.956C344.81 278.936 341.546 280.799 338.231 282.544C334.887 284.282 331.47 285.866 327.979 287.296C324.488 288.726 320.953 290.032 317.374 291.213C310.202 293.587 302.842 295.353 295.373 296.493C291.633 297.087 287.871 297.505 284.086 297.791C280.236 298.099 276.584 298.209 272.756 298.187C268.972 298.187 265.187 298.011 261.403 297.725L255.749 297.153L250.138 296.361L244.55 295.327L239.006 294.095L233.528 292.643L228.093 290.949L222.747 289.056L217.489 286.944L212.296 284.634L207.214 282.126L202.264 279.376L197.401 276.45L192.671 273.348L190.009 271.456C190.981 276.517 193.824 281.026 197.974 284.084C199.228 284.964 200.526 285.712 201.846 286.548L205.762 288.946L213.374 293.743L198.898 285.382C196.017 283.714 193.583 281.374 191.802 278.563C190.021 275.751 188.945 272.55 188.667 269.233C213.178 286.704 242.463 296.225 272.561 296.508C302.66 296.792 332.119 287.824 356.954 270.817Z" fill="white"/>
</g>
</g>
<g style="mix-blend-mode:screen" opacity="0.5">
<g style="mix-blend-mode:screen" opacity="0.5">
<path d="M236.345 204.188V225.243C236.345 225.243 235.597 219.501 235.091 210.898C234.937 208.764 234.805 206.41 234.695 203.968C234.527 201.558 234.062 199.178 233.309 196.883C231.638 191.941 228.546 187.602 224.42 184.409C222.336 182.809 220.031 181.52 217.578 180.58C215.199 179.732 212.723 179.185 210.208 178.952C209.525 178.952 208.865 178.93 208.205 178.93L207.325 178.908L206.423 178.974C205.247 179.036 204.077 179.19 202.925 179.436C200.778 179.894 198.695 180.61 196.721 181.57C193.703 183.065 190.964 185.066 188.624 187.489C187.766 188.391 187.106 189.117 186.688 189.645C186.38 190.041 186.16 190.305 186.072 190.415C188.264 186.626 191.348 183.429 195.055 181.102C198.763 178.774 202.982 177.387 207.347 177.06C211.062 176.813 214.787 177.33 218.294 178.582C221.8 179.833 225.012 181.791 227.731 184.334C230.449 186.877 232.616 189.952 234.098 193.367C235.58 196.782 236.345 200.465 236.345 204.188Z" fill="white"/>
</g>
</g>
<g style="mix-blend-mode:screen" opacity="0.5">
<g style="mix-blend-mode:screen" opacity="0.5">
<path d="M353.566 180.041C353.302 179.953 352.334 179.645 350.794 179.271C348.337 178.675 345.819 178.372 343.291 178.369C341.638 178.377 339.989 178.532 338.363 178.831C337.485 178.969 336.617 179.167 335.767 179.425C335.349 179.557 334.909 179.667 334.469 179.799C334.029 179.931 333.589 180.129 333.149 180.283C331.377 181.005 329.675 181.889 328.066 182.923C326.43 184.026 324.918 185.302 323.556 186.73C322.163 188.128 320.931 189.678 319.882 191.35C318.852 192.985 317.982 194.717 317.286 196.52C316.94 197.374 316.646 198.249 316.406 199.138C316.143 199.974 315.937 200.827 315.79 201.691C315.61 202.548 315.478 203.415 315.394 204.287L315.328 204.925C315.306 205.013 315.284 205.189 315.284 205.189L315.262 205.497C315.218 205.915 315.196 206.333 315.152 206.729C314.624 213.197 313.897 217.487 313.897 217.487V205.123C313.814 198.111 316.38 191.326 321.083 186.125C325.787 180.924 332.28 177.69 339.265 177.071C344.214 176.735 349.16 177.762 353.566 180.041Z" fill="white"/>
</g>
</g>
<path d="M162.448 400.705H176.445V406H155.856V374.008H162.448V400.705ZM205.119 390.729C205.119 393.878 204.562 396.64 203.449 399.013C202.336 401.386 200.739 403.217 198.659 404.506C196.594 405.795 194.221 406.439 191.54 406.439C188.889 406.439 186.523 405.802 184.443 404.528C182.363 403.253 180.751 401.437 179.609 399.079C178.466 396.706 177.888 393.981 177.873 390.905V389.323C177.873 386.173 178.437 383.405 179.565 381.017C180.708 378.615 182.312 376.776 184.377 375.502C186.457 374.213 188.83 373.568 191.496 373.568C194.162 373.568 196.528 374.213 198.593 375.502C200.673 376.776 202.277 378.615 203.405 381.017C204.548 383.405 205.119 386.166 205.119 389.301V390.729ZM198.439 389.279C198.439 385.924 197.839 383.375 196.638 381.632C195.437 379.889 193.723 379.018 191.496 379.018C189.284 379.018 187.578 379.882 186.376 381.61C185.175 383.324 184.567 385.844 184.553 389.169V390.729C184.553 393.996 185.153 396.53 186.354 398.332C187.556 400.133 189.284 401.034 191.54 401.034C193.752 401.034 195.451 400.17 196.638 398.441C197.824 396.698 198.425 394.164 198.439 390.839V389.279ZM235.222 401.957C234.035 403.378 232.358 404.484 230.19 405.275C228.022 406.051 225.62 406.439 222.983 406.439C220.214 406.439 217.783 405.839 215.688 404.638C213.608 403.422 211.997 401.664 210.854 399.364C209.726 397.064 209.147 394.362 209.118 391.256V389.081C209.118 385.888 209.653 383.126 210.722 380.797C211.806 378.454 213.359 376.667 215.38 375.436C217.417 374.191 219.797 373.568 222.521 373.568C226.315 373.568 229.282 374.477 231.42 376.293C233.559 378.095 234.826 380.724 235.222 384.181H228.806C228.513 382.35 227.861 381.01 226.85 380.16C225.854 379.311 224.477 378.886 222.719 378.886C220.478 378.886 218.771 379.728 217.6 381.413C216.428 383.097 215.834 385.602 215.82 388.927V390.971C215.82 394.325 216.457 396.859 217.731 398.573C219.006 400.287 220.874 401.144 223.334 401.144C225.81 401.144 227.575 400.617 228.63 399.562V394.047H222.631V389.191H235.222V401.957ZM266.862 390.729C266.862 393.878 266.306 396.64 265.192 399.013C264.079 401.386 262.482 403.217 260.402 404.506C258.337 405.795 255.964 406.439 253.283 406.439C250.632 406.439 248.266 405.802 246.186 404.528C244.106 403.253 242.495 401.437 241.352 399.079C240.209 396.706 239.631 393.981 239.616 390.905V389.323C239.616 386.173 240.18 383.405 241.308 381.017C242.451 378.615 244.055 376.776 246.12 375.502C248.2 374.213 250.573 373.568 253.239 373.568C255.905 373.568 258.271 374.213 260.336 375.502C262.417 376.776 264.021 378.615 265.148 381.017C266.291 383.405 266.862 386.166 266.862 389.301V390.729ZM260.183 389.279C260.183 385.924 259.582 383.375 258.381 381.632C257.18 379.889 255.466 379.018 253.239 379.018C251.027 379.018 249.321 379.882 248.12 381.61C246.918 383.324 246.311 385.844 246.296 389.169V390.729C246.296 393.996 246.896 396.53 248.098 398.332C249.299 400.133 251.027 401.034 253.283 401.034C255.495 401.034 257.194 400.17 258.381 398.441C259.567 396.698 260.168 394.164 260.183 390.839V389.279Z" fill="white"/>
<path d="M303.301 406H299.06L282.954 381.347V406H278.713V374.008H282.954L299.104 398.771V374.008H303.301V406ZM328.855 397.65H315.452L312.441 406H308.091L320.308 374.008H323.999L336.238 406H331.909L328.855 397.65ZM316.726 394.179H327.603L322.153 379.215L316.726 394.179ZM345.994 374.008L356.453 400.111L366.912 374.008H372.383V406H368.164V393.542L368.56 380.094L358.057 406H354.827L344.346 380.16L344.763 393.542V406H340.544V374.008H345.994ZM397.915 391.212H384.05V402.55H400.156V406H379.832V374.008H399.937V377.479H384.05V387.763H397.915V391.212Z" fill="white"/>
<path d="M203.305 424.63C203.305 423.645 202.959 422.868 202.267 422.298C201.575 421.721 200.31 421.175 198.471 420.663C196.632 420.142 195.289 419.576 194.442 418.966C193.238 418.103 192.636 416.972 192.636 415.572C192.636 414.213 193.193 413.111 194.308 412.264C195.431 411.41 196.863 410.982 198.605 410.982C199.785 410.982 200.839 411.21 201.767 411.666C202.702 412.122 203.427 412.757 203.939 413.57C204.452 414.384 204.708 415.292 204.708 416.292H203.195C203.195 415.08 202.78 414.107 201.95 413.375C201.12 412.634 200.005 412.264 198.605 412.264C197.246 412.264 196.164 412.569 195.358 413.18C194.552 413.782 194.149 414.571 194.149 415.548C194.149 416.451 194.512 417.188 195.236 417.757C195.96 418.327 197.12 418.832 198.715 419.271C200.31 419.702 201.518 420.154 202.34 420.626C203.162 421.09 203.781 421.647 204.196 422.298C204.611 422.949 204.818 423.718 204.818 424.605C204.818 426.005 204.257 427.128 203.134 427.975C202.019 428.821 200.546 429.244 198.715 429.244C197.462 429.244 196.31 429.02 195.26 428.573C194.219 428.125 193.425 427.499 192.88 426.693C192.343 425.887 192.074 424.964 192.074 423.922H193.576C193.576 425.175 194.044 426.164 194.979 426.888C195.915 427.612 197.16 427.975 198.715 427.975C200.098 427.975 201.209 427.669 202.047 427.059C202.886 426.449 203.305 425.639 203.305 424.63ZM209.579 427.73H218.356V429H208.065V411.227H209.579V427.73ZM233.578 421.078C233.578 422.713 233.293 424.15 232.724 425.387C232.162 426.624 231.356 427.576 230.307 428.243C229.257 428.91 228.044 429.244 226.669 429.244C224.594 429.244 222.917 428.504 221.64 427.022C220.362 425.533 219.723 423.527 219.723 421.004V419.173C219.723 417.554 220.008 416.122 220.578 414.876C221.155 413.623 221.969 412.663 223.019 411.996C224.069 411.32 225.277 410.982 226.645 410.982C228.012 410.982 229.216 411.312 230.258 411.971C231.308 412.63 232.117 413.562 232.687 414.767C233.257 415.971 233.554 417.367 233.578 418.954V421.078ZM232.077 419.149C232.077 417.009 231.592 415.332 230.624 414.12C229.656 412.907 228.329 412.301 226.645 412.301C224.993 412.301 223.674 412.911 222.689 414.132C221.713 415.344 221.225 417.041 221.225 419.222V421.078C221.225 423.185 221.713 424.858 222.689 426.095C223.666 427.324 224.993 427.938 226.669 427.938C228.37 427.938 229.696 427.332 230.648 426.119C231.601 424.898 232.077 423.202 232.077 421.029V419.149ZM250.192 426.888C249.671 427.629 248.853 428.207 247.738 428.622C246.632 429.037 245.39 429.244 244.015 429.244C242.624 429.244 241.387 428.91 240.304 428.243C239.222 427.576 238.384 426.632 237.79 425.411C237.195 424.19 236.894 422.791 236.886 421.212V418.966C236.886 416.5 237.509 414.555 238.754 413.131C239.999 411.699 241.671 410.982 243.771 410.982C245.602 410.982 247.075 411.45 248.19 412.386C249.305 413.314 249.968 414.596 250.18 416.231H248.678C248.458 414.929 247.925 413.945 247.079 413.277C246.241 412.602 245.142 412.264 243.783 412.264C242.123 412.264 240.809 412.854 239.84 414.034C238.872 415.214 238.388 416.878 238.388 419.027V421.126C238.388 422.477 238.616 423.674 239.071 424.715C239.535 425.749 240.194 426.55 241.049 427.12C241.911 427.69 242.9 427.975 244.015 427.975C245.309 427.975 246.42 427.771 247.348 427.364C247.95 427.096 248.397 426.782 248.69 426.424V421.834H243.917V420.565H250.192V426.888ZM264.047 424.02H255.978L254.147 429H252.572L259.298 411.227H260.727L267.453 429H265.89L264.047 424.02ZM256.442 422.738H263.571L260.006 413.058L256.442 422.738ZM283.31 429H281.808L271.591 413.79V429H270.077V411.227H271.591L281.82 426.449V411.227H283.31V429ZM307.077 429H305.563V420.479H295.407V429H293.905V411.227H295.407V419.21H305.563V411.227H307.077V429ZM321.42 420.479H313.107V427.73H322.665V429H311.605V411.227H322.604V412.508H313.107V419.21H321.42V420.479ZM332.479 421.603H327.316V429H325.802V411.227H331.576C333.472 411.227 334.953 411.686 336.02 412.606C337.086 413.526 337.619 414.811 337.619 416.463C337.619 417.603 337.285 418.608 336.618 419.479C335.95 420.349 335.055 420.951 333.932 421.285L338.375 428.841V429H336.776L332.479 421.603ZM327.316 420.321H331.918C333.179 420.321 334.193 419.963 334.958 419.247C335.722 418.53 336.105 417.603 336.105 416.463C336.105 415.21 335.706 414.238 334.909 413.546C334.111 412.854 332.992 412.508 331.552 412.508H327.316V420.321ZM351.522 420.479H343.209V427.73H352.768V429H341.708V411.227H352.707V412.508H343.209V419.21H351.522V420.479Z" fill="white"/>
<path d="M1383.21 6.48189V334C1383.2 358.627 1376.71 382.818 1364.4 404.147C1352.09 425.476 1334.39 443.194 1313.07 455.527L1291.36 468.032L1291.24 468.145H1291.13C1291.01 468.145 1290.9 468.259 1290.67 468.373L972.25 652.197C950.896 664.486 926.689 670.953 902.051 670.953C877.413 670.953 853.206 664.486 831.852 652.197L491.26 455.527C467.461 441.8 448.242 421.354 436.011 396.753C435.886 396.509 435.733 396.28 435.556 396.071C435.508 395.94 435.43 395.824 435.329 395.73V395.616C435.264 395.557 435.223 395.476 435.215 395.389C425.869 376.273 421.009 355.277 421.004 334V11.2565C420.95 5.16545 421.406 -0.918827 422.369 -6.93262C481.496 109.566 580.735 200.771 701.8 249.876V252.831L846.404 336.388C863.362 346.162 882.591 351.307 902.165 351.307C921.738 351.307 940.968 346.162 957.926 336.388L1102.53 252.831V252.036C1223 204.625 1322.52 115.668 1383.1 1.25251C1383.21 3.07142 1383.21 4.71982 1383.21 6.48189Z" fill="#ABD0FF" fill-opacity="0.2"/>
<path d="M701.797 6.48137V249.875C580.732 200.77 481.494 109.565 422.366 -6.93314C423.038 -12.7127 424.063 -18.4446 425.436 -24.0992C428.894 -38.3857 434.489 -52.0683 442.033 -64.6838C453.359 -84.2626 469.292 -100.782 488.449 -112.807C507.606 -124.832 529.408 -132 551.964 -133.689C571.157 -134.968 590.409 -132.293 608.525 -125.828C626.643 -119.363 643.238 -109.246 657.286 -96.105C671.332 -82.9637 682.531 -67.0779 690.189 -49.4315C697.845 -31.7852 701.796 -12.7548 701.797 6.48137Z" fill="white" fill-opacity="0.2"/>
<g style="mix-blend-mode:multiply" opacity="0.08">
<g style="mix-blend-mode:multiply" opacity="0.08">
<path d="M701.797 138.403V249.926C580.732 200.82 481.494 109.615 422.366 -6.88269C423.038 -12.6623 424.063 -18.3953 425.436 -24.0488C484.437 19.3779 589.763 90.8841 701.797 138.403Z" fill="#ABD0FF" fill-opacity="0.2"/>
</g>
</g>
<g style="mix-blend-mode:screen" opacity="0.4">
<g style="mix-blend-mode:screen" opacity="0.4">
<path d="M1349.11 333.606V334.06C1349.06 352.691 1344.13 370.984 1334.82 387.119C1325.5 403.255 1312.12 416.67 1296.02 426.029L955.196 622.699C939.031 632.01 920.704 636.911 902.05 636.911C883.396 636.911 865.068 632.01 848.903 622.699L584.024 469.797L583.114 469.228L508.311 426.029C493.429 417.408 480.851 405.319 471.647 390.791C462.443 376.262 456.886 359.725 455.449 342.586C582.098 432.859 733.417 482.055 888.939 483.519C1044.46 484.983 1196.68 438.644 1325 350.771L1326.14 349.977L1326.71 349.636C1334.38 344.406 1341.72 339.063 1349.11 333.606Z" fill="#ABD0FF" fill-opacity="0.2"/>
</g>
</g>
<g style="mix-blend-mode:screen" opacity="0.6">
<g style="mix-blend-mode:screen" opacity="0.6">
<path d="M435.331 395.666C435.444 395.779 435.444 395.893 435.557 396.119C435.51 395.99 435.432 395.873 435.331 395.779V395.666Z" fill="#ABD0FF" fill-opacity="0.2"/>
</g>
</g>
<g style="mix-blend-mode:multiply" opacity="0.25">
<g style="mix-blend-mode:multiply" opacity="0.25">
<path d="M1290.67 468.419L972.25 652.243C950.896 664.532 926.689 671 902.051 671C877.412 671 853.206 664.532 831.852 652.243L491.26 455.573C467.461 441.845 448.242 421.401 436.01 396.799C436.92 398.39 438.625 401.119 441.126 404.87C447.096 413.382 453.914 421.267 461.475 428.402C473.16 439.291 486.518 448.234 501.037 454.89C517.862 463.53 536.847 473.307 557.309 484.334C598.576 505.934 646.323 531.74 697.139 559.933C722.49 574.143 748.864 588.467 775.352 603.701C788.653 611.317 801.954 618.934 815.368 626.551L835.49 638.033C841.609 641.653 847.994 644.808 854.588 647.468C880.468 658.213 909.193 660.014 936.212 652.584C949.696 648.713 962.587 643.014 974.523 635.645C987.597 628.37 1000.44 621.208 1013.18 614.159C1064.1 585.966 1111.85 560.16 1153 538.561C1230.19 497.578 1284.19 471.431 1290.67 468.419Z" fill="#ABD0FF" fill-opacity="0.2"/>
</g>
</g>
<g style="mix-blend-mode:multiply" opacity="0.25">
<g style="mix-blend-mode:multiply" opacity="0.25">
<path d="M1383.09 1.30329L1372.52 22.9029L1360.93 44.1615L1348.31 64.738L1334.67 84.746L1320 104.072L1304.54 122.83L1288.06 140.791L1270.78 157.957L1252.7 174.328L1233.83 189.902L1214.28 204.567L1194.04 218.323L1173.12 231.169L1151.64 243.105L1129.58 253.905L1113.55 260.84L1108.78 263.682C1076.49 282.894 1044.32 302.334 1011.81 321.205L962.811 349.626C944.248 359.981 923.361 365.457 902.105 365.541C891.517 365.49 880.976 364.115 870.729 361.449C865.635 360.073 860.624 358.402 855.723 356.447C850.89 354.503 846.183 352.263 841.626 349.739L792.515 321.205C760.002 302.334 727.83 282.894 695.544 263.796L689.178 260.044V257.998L674.4 251.404L652.345 240.263L630.859 227.986L609.942 214.799L589.706 200.588L570.039 185.582L551.282 169.667L533.32 152.842L516.154 135.335L499.784 116.918L484.437 97.8195L469.885 78.1525L456.471 57.6897L443.966 36.7721L432.598 15.1725L422.366 -6.88184L434.985 13.922L448.399 33.9301L462.61 53.4834L477.502 72.3547L493.19 90.5438L509.561 108.051L526.726 124.762L544.347 140.791L562.764 156.025L581.862 170.349L601.302 183.991L621.424 196.609L642 208.432L663.145 219.346L684.631 229.35L701.797 236.398V252.882L846.401 336.439C863.359 346.213 882.588 351.358 902.162 351.358C921.736 351.358 940.965 346.213 957.923 336.439L1102.53 252.882V238.672L1119.81 231.737L1141.18 222.074L1162.21 211.615L1182.79 200.134L1202.79 187.742L1222.35 174.555L1241.45 160.572L1259.86 145.793L1277.6 130.105L1294.76 113.735L1311.36 96.6827L1327.16 78.8346L1342.28 60.4181L1356.61 41.3194L1370.25 21.5387L1383.09 1.30329Z" fill="#ABD0FF" fill-opacity="0.2"/>
</g>
</g>
<g style="mix-blend-mode:screen" opacity="0.4">
<g style="mix-blend-mode:screen" opacity="0.4">
<path d="M1325 350.765L1303.18 366.567L1278.85 382.483C1262.25 392.714 1245.39 402.339 1228.26 411.358C1210.98 420.339 1193.32 428.524 1175.29 435.913C1157.25 443.303 1138.98 450.047 1120.49 456.149C1083.43 468.417 1045.4 477.544 1006.81 483.432C987.482 486.502 968.042 488.662 948.489 490.14C928.595 491.731 909.723 492.3 889.943 492.186C870.389 492.186 850.836 491.276 831.283 489.799L802.066 486.843L773.077 482.75L744.202 477.407L715.554 471.041L687.247 463.538L659.168 454.784L631.543 445.008L604.373 434.094L577.544 422.158L551.283 409.198L525.704 394.988L500.581 379.868L476.139 363.839L462.383 354.062C467.403 380.216 482.098 403.516 503.536 419.316C510.016 423.863 516.724 427.728 523.545 432.048L543.78 444.439L583.114 469.222L508.311 426.023C493.429 417.402 480.851 405.313 471.647 390.785C462.443 376.256 456.886 359.719 455.449 342.58C582.098 432.853 733.417 482.049 888.939 483.512C1044.46 484.976 1196.68 438.638 1325 350.765Z" fill="#ABD0FF" fill-opacity="0.2"/>
</g>
</g>
<g style="mix-blend-mode:screen" opacity="0.5">
<g style="mix-blend-mode:screen" opacity="0.5">
<path d="M701.804 6.48138V115.275C701.804 115.275 697.939 85.6042 695.324 41.1545C694.528 30.1273 693.846 17.9633 693.278 5.34456C692.411 -7.10593 690.006 -19.4018 686.116 -31.2612C677.48 -56.7975 661.505 -79.219 640.188 -95.7191C629.419 -103.983 617.51 -110.646 604.833 -115.5C592.539 -119.884 579.745 -122.71 566.749 -123.912C563.225 -123.912 559.815 -124.026 556.404 -124.026L551.857 -124.14L547.196 -123.799C541.117 -123.481 535.073 -122.682 529.12 -121.411C518.027 -119.048 507.262 -115.345 497.062 -110.384C481.467 -102.664 467.316 -92.3199 455.227 -79.8036C450.793 -75.1426 447.383 -71.3912 445.223 -68.6628C443.631 -66.6165 442.495 -65.2522 442.04 -64.6838C453.366 -84.2626 469.298 -100.782 488.455 -112.807C507.613 -124.832 529.415 -132 551.971 -133.689C571.164 -134.968 590.415 -132.293 608.532 -125.828C626.649 -119.363 643.245 -109.246 657.293 -96.105C671.339 -82.9637 682.538 -67.0779 690.195 -49.4315C697.851 -31.7852 701.803 -12.7548 701.804 6.48138Z" fill="#ABD0FF" fill-opacity="0.2"/>
</g>
</g>
</g>
<defs>
<clipPath id="clip0">
<rect width="1050" height="600" fill="white"/>
</clipPath>
</defs>
</svg>
