<svg width="1050" height="600" viewBox="0 0 1050 600" fill="none" xmlns="http://www.w3.org/2000/svg">
<rect width="1050" height="600" fill="#F37A81"/>
<path d="M646.935 326.828C646.935 326.828 643.383 338.928 642.871 343.086C642.05 349.772 637.412 355.28 630.677 355.28H419.323C412.588 355.28 407.95 349.772 407.129 343.086C406.617 338.928 403.065 326.828 403.065 326.828" stroke="white" stroke-width="13" stroke-miterlimit="10" stroke-linecap="round" stroke-linejoin="round"/>
<path d="M637.709 275.311C636.258 269.121 633.901 261.792 633.901 261.792C622.357 233.926 600.177 210.458 570.108 198.004C511.274 173.637 444.027 200.422 417.794 257.895C417.794 257.895 414.624 265.475 413.12 275.055C404.95 277.685 399 285.261 399 294.309C399 299.698 401.141 304.868 404.952 308.679C408.764 312.49 413.933 314.631 419.323 314.631C426.907 314.631 433.443 310.428 436.934 304.271C440.43 310.428 446.965 314.631 454.55 314.631C462.13 314.631 468.674 310.424 472.161 304.267C475.649 310.424 482.193 314.631 489.773 314.631C497.357 314.631 503.897 310.428 507.388 304.271C510.884 310.428 517.416 314.631 525 314.631C532.584 314.631 539.12 310.428 542.612 304.271C546.107 310.428 552.643 314.631 560.227 314.631C567.807 314.631 574.351 310.424 577.839 304.267C581.326 310.424 587.87 314.631 595.45 314.631C603.035 314.631 609.574 310.428 613.066 304.271C616.561 310.428 623.093 314.631 630.677 314.631C636.067 314.631 641.236 312.49 645.048 308.679C648.859 304.868 651 299.698 651 294.309C651 285.57 645.448 278.177 637.709 275.311Z" stroke="white" stroke-width="13" stroke-miterlimit="10" stroke-linecap="round" stroke-linejoin="round"/>
<path d="M525 257.731V233.344" stroke="white" stroke-width="13" stroke-miterlimit="10" stroke-linecap="round" stroke-linejoin="round"/>
<path d="M469.902 247.799L489.322 228.375" stroke="white" stroke-width="13" stroke-miterlimit="10" stroke-linecap="round" stroke-linejoin="round"/>
<path d="M580.103 247.799L560.679 228.375" stroke="white" stroke-width="13" stroke-miterlimit="10" stroke-linecap="round" stroke-linejoin="round"/>
<path d="M430.36 402.3C428.06 402.3 426.3 401.62 425.08 400.26C423.86 398.88 423.25 396.87 423.25 394.23V379.2H425.89V394.5C425.89 396.2 426.24 397.56 426.94 398.58C427.64 399.6 428.78 400.11 430.36 400.11C431.36 400.11 432.18 399.89 432.82 399.45C433.48 398.99 433.97 398.38 434.29 397.62C434.61 396.86 434.77 396.01 434.77 395.07C434.77 394.25 434.63 393.54 434.35 392.94C434.09 392.34 433.76 391.76 433.36 391.2C432.88 390.52 432.43 389.78 432.01 388.98C431.61 388.18 431.41 387.16 431.41 385.92H434.05C434.05 386.82 434.23 387.61 434.59 388.29C434.95 388.95 435.37 389.62 435.85 390.3C436.31 390.94 436.7 391.65 437.02 392.43C437.34 393.19 437.5 394.1 437.5 395.16C437.5 396.6 437.2 397.86 436.6 398.94C436 400 435.16 400.83 434.08 401.43C433 402.01 431.76 402.3 430.36 402.3ZM447.324 402.3C446.084 402.3 444.954 402.07 443.934 401.61C442.934 401.15 442.134 400.47 441.534 399.57C440.954 398.67 440.664 397.55 440.664 396.21C440.664 395.77 440.704 395.35 440.784 394.95C440.864 394.53 440.954 394.2 441.054 393.96H443.574C443.494 394.24 443.424 394.57 443.364 394.95C443.324 395.33 443.304 395.75 443.304 396.21C443.304 397.49 443.664 398.46 444.384 399.12C445.124 399.78 446.104 400.11 447.324 400.11C448.544 400.11 449.504 399.78 450.204 399.12C450.904 398.44 451.254 397.42 451.254 396.06C451.254 395.02 451.024 394.18 450.564 393.54C450.124 392.9 449.624 392.29 449.064 391.71C448.584 391.23 448.104 390.73 447.624 390.21C447.144 389.67 446.744 389.06 446.424 388.38C446.124 387.68 445.974 386.86 445.974 385.92H448.614C448.614 386.8 448.844 387.56 449.304 388.2C449.784 388.84 450.334 389.47 450.954 390.09C451.454 390.59 451.934 391.12 452.394 391.68C452.854 392.22 453.234 392.85 453.534 393.57C453.834 394.27 453.984 395.1 453.984 396.06C453.984 397.3 453.694 398.39 453.114 399.33C452.534 400.27 451.744 401 450.744 401.52C449.744 402.04 448.604 402.3 447.324 402.3ZM462.415 409.5C461.055 409.5 459.845 409.21 458.785 408.63C457.745 408.07 456.935 407.3 456.355 406.32C455.775 405.34 455.485 404.23 455.485 402.99C455.485 402.41 455.535 401.87 455.635 401.37C455.755 400.85 455.885 400.42 456.025 400.08H458.545C458.445 400.4 458.345 400.82 458.245 401.34C458.165 401.84 458.125 402.31 458.125 402.75C458.125 403.53 458.275 404.27 458.575 404.97C458.895 405.67 459.375 406.23 460.015 406.65C460.655 407.09 461.455 407.31 462.415 407.31C463.415 407.31 464.245 407.08 464.905 406.62C465.585 406.18 466.085 405.58 466.405 404.82C466.725 404.06 466.885 403.22 466.885 402.3C466.885 401.3 466.705 400.41 466.345 399.63C465.985 398.83 465.455 398.2 464.755 397.74C464.055 397.26 463.195 397.02 462.175 397.02H461.005V394.83H462.385C463.325 394.83 464.085 394.66 464.665 394.32C465.265 393.96 465.695 393.51 465.955 392.97C466.235 392.43 466.375 391.88 466.375 391.32C466.375 390.36 466.065 389.54 465.445 388.86C464.825 388.16 463.975 387.81 462.895 387.81V385.62C464.055 385.62 465.095 385.87 466.015 386.37C466.935 386.85 467.665 387.5 468.205 388.32C468.745 389.12 469.015 390 469.015 390.96C469.015 392.2 468.625 393.26 467.845 394.14C467.085 395.02 466.075 395.59 464.815 395.85V395.97C465.655 396.11 466.435 396.43 467.155 396.93C467.895 397.43 468.485 398.14 468.925 399.06C469.385 399.98 469.615 401.1 469.615 402.42C469.615 403.86 469.315 405.11 468.715 406.17C468.115 407.23 467.275 408.05 466.195 408.63C465.115 409.21 463.855 409.5 462.415 409.5ZM474.314 402C473.694 400.6 473.234 399.26 472.934 397.98C472.634 396.7 472.484 395.28 472.484 393.72C472.484 392.12 472.714 390.71 473.174 389.49C473.634 388.27 474.314 387.32 475.214 386.64C476.114 385.96 477.234 385.62 478.574 385.62C479.694 385.62 480.594 385.88 481.274 386.4C481.974 386.9 482.484 387.59 482.804 388.47H482.954C483.274 387.59 483.794 386.9 484.514 386.4C485.254 385.88 486.154 385.62 487.214 385.62C488.554 385.62 489.674 385.96 490.574 386.64C491.474 387.32 492.154 388.27 492.614 389.49C493.074 390.71 493.304 392.12 493.304 393.72C493.304 395.28 493.154 396.7 492.854 397.98C492.554 399.26 492.094 400.6 491.474 402H488.774C489.414 400.6 489.874 399.26 490.154 397.98C490.454 396.7 490.604 395.27 490.604 393.69C490.604 391.75 490.294 390.29 489.674 389.31C489.054 388.31 488.164 387.81 487.004 387.81C486.104 387.81 485.404 388.15 484.904 388.83C484.404 389.51 484.154 390.47 484.154 391.71V396.54H481.634V391.71C481.634 390.59 481.404 389.66 480.944 388.92C480.484 388.18 479.754 387.81 478.754 387.81C477.614 387.81 476.734 388.31 476.114 389.31C475.494 390.29 475.184 391.75 475.184 393.69C475.184 395.27 475.324 396.7 475.604 397.98C475.904 399.26 476.374 400.6 477.014 402H474.314ZM504.305 402.3C502.005 402.3 500.245 401.61 499.025 400.23C497.805 398.83 497.195 396.75 497.195 393.99V384.66C497.195 383.38 497.425 382.34 497.885 381.54C498.365 380.72 499.015 380.13 499.835 379.77C500.655 379.39 501.575 379.2 502.595 379.2H509.675V381.42H502.955C501.995 381.42 501.235 381.66 500.675 382.14C500.115 382.6 499.835 383.41 499.835 384.57V385.62C499.835 385.92 499.805 386.33 499.745 386.85C499.705 387.35 499.675 387.73 499.655 387.99H499.835C500.335 387.33 500.975 386.77 501.755 386.31C502.555 385.85 503.575 385.62 504.815 385.62C506.815 385.62 508.415 386.33 509.615 387.75C510.835 389.15 511.445 391.23 511.445 393.99C511.445 396.75 510.785 398.83 509.465 400.23C508.145 401.61 506.425 402.3 504.305 402.3ZM504.305 400.11C505.805 400.11 506.915 399.58 507.635 398.52C508.355 397.46 508.715 395.97 508.715 394.05C508.715 392.15 508.355 390.64 507.635 389.52C506.935 388.38 505.875 387.81 504.455 387.81C503.275 387.81 502.345 388.05 501.665 388.53C500.985 388.99 500.505 389.66 500.225 390.54C499.945 391.42 499.805 392.46 499.805 393.66V394.5C499.805 396.2 500.145 397.56 500.825 398.58C501.505 399.6 502.665 400.11 504.305 400.11ZM529.549 409.5C529.109 408.66 528.499 407.93 527.719 407.31C526.959 406.69 526.139 406.21 525.259 405.87C524.399 405.55 523.579 405.39 522.799 405.39C521.959 405.39 521.189 405.48 520.489 405.66C519.809 405.84 519.069 406.12 518.269 406.5L517.369 404.64C517.829 404.42 518.359 404.22 518.959 404.04C519.559 403.86 520.319 403.75 521.239 403.71V403.62C519.179 402.64 517.579 401.33 516.439 399.69C515.319 398.03 514.759 395.96 514.759 393.48C514.759 391.98 514.979 390.64 515.419 389.46C515.879 388.26 516.549 387.32 517.429 386.64C518.329 385.96 519.429 385.62 520.729 385.62C522.009 385.62 523.069 385.9 523.909 386.46C524.749 387.02 525.339 387.87 525.679 389.01H525.829C526.249 387.87 526.939 387.02 527.899 386.46C528.879 385.9 529.929 385.62 531.049 385.62C533.129 385.62 534.789 386.34 536.029 387.78C537.269 389.2 537.889 391.2 537.889 393.78C537.889 395.5 537.589 396.98 536.989 398.22C536.389 399.44 535.569 400.38 534.529 401.04C533.509 401.68 532.359 402 531.079 402C529.019 402 527.359 401.28 526.099 399.84C524.839 398.4 524.209 396.38 524.209 393.78V392.31C524.209 390.77 523.899 389.64 523.279 388.92C522.659 388.18 521.839 387.81 520.819 387.81C519.779 387.81 518.959 388.3 518.359 389.28C517.759 390.24 517.459 391.62 517.459 393.42C517.459 395.32 517.759 396.88 518.359 398.1C518.979 399.3 519.779 400.28 520.759 401.04C521.759 401.78 522.839 402.4 523.999 402.9C525.159 403.4 526.209 403.88 527.149 404.34C528.109 404.82 528.959 405.38 529.699 406.02C530.439 406.66 531.059 407.46 531.559 408.42L529.549 409.5ZM531.019 399.81C532.439 399.81 533.479 399.27 534.139 398.19C534.819 397.09 535.159 395.62 535.159 393.78C535.159 391.94 534.829 390.49 534.169 389.43C533.509 388.37 532.469 387.84 531.049 387.84C529.649 387.84 528.609 388.37 527.929 389.43C527.269 390.49 526.939 391.94 526.939 393.78C526.939 395.62 527.269 397.09 527.929 398.19C528.589 399.27 529.619 399.81 531.019 399.81ZM543.015 402C542.395 400.6 541.935 399.26 541.635 397.98C541.335 396.7 541.185 395.28 541.185 393.72C541.185 391.26 541.775 389.3 542.955 387.84C544.155 386.36 545.885 385.62 548.145 385.62C550.445 385.62 552.175 386.36 553.335 387.84C554.515 389.3 555.105 391.26 555.105 393.72C555.105 395.28 554.955 396.7 554.655 397.98C554.355 399.26 553.895 400.6 553.275 402H550.575C551.215 400.6 551.675 399.26 551.955 397.98C552.255 396.7 552.405 395.27 552.405 393.69C552.405 391.75 552.025 390.29 551.265 389.31C550.525 388.31 549.485 387.81 548.145 387.81C546.805 387.81 545.755 388.31 544.995 389.31C544.255 390.29 543.885 391.75 543.885 393.69C543.885 395.27 544.025 396.7 544.305 397.98C544.605 399.26 545.075 400.6 545.715 402H543.015ZM568.282 409.5C565.122 409.5 562.682 408.46 560.962 406.38C559.262 404.3 558.412 401.29 558.412 397.35C558.412 393.93 559.172 391.21 560.692 389.19C562.232 387.15 564.372 385.99 567.112 385.71C567.072 385.33 567.032 384.95 566.992 384.57C566.972 384.19 566.962 383.87 566.962 383.61V382.2H569.602V383.55C569.602 384.13 569.552 384.84 569.452 385.68C572.192 385.96 574.322 387.12 575.842 389.16C577.382 391.2 578.152 393.94 578.152 397.38C578.152 399.82 577.772 401.94 577.012 403.74C576.272 405.56 575.162 406.97 573.682 407.97C572.222 408.99 570.422 409.5 568.282 409.5ZM568.282 407.31C570.602 407.31 572.372 406.47 573.592 404.79C574.812 403.11 575.422 400.64 575.422 397.38C575.422 391.58 573.432 388.38 569.452 387.78C569.492 388.2 569.522 388.63 569.542 389.07C569.582 389.49 569.602 389.91 569.602 390.33V396.54H566.962V390.27C566.962 389.87 566.972 389.46 566.992 389.04C567.032 388.62 567.072 388.21 567.112 387.81C563.132 388.41 561.142 391.6 561.142 397.38C561.142 400.62 561.752 403.08 562.972 404.76C564.212 406.46 565.982 407.31 568.282 407.31ZM583.209 402C582.589 400.6 582.139 399.26 581.859 397.98C581.579 396.7 581.439 395.28 581.439 393.72V392.58C581.439 388.88 582.089 386.03 583.389 384.03C584.709 382.01 586.709 380.71 589.389 380.13C590.509 379.89 591.629 379.67 592.749 379.47C593.869 379.27 594.969 379.08 596.049 378.9L596.499 381.21C595.799 381.31 595.029 381.43 594.189 381.57C593.369 381.69 592.579 381.82 591.819 381.96C591.059 382.08 590.419 382.2 589.899 382.32C589.079 382.52 588.279 382.8 587.499 383.16C586.719 383.52 586.019 384.05 585.399 384.75C584.779 385.45 584.289 386.41 583.929 387.63H584.019C584.599 386.79 585.189 386.25 585.789 386.01C586.389 385.75 587.009 385.62 587.649 385.62C588.669 385.62 589.519 385.88 590.199 386.4C590.879 386.9 591.379 387.59 591.699 388.47H591.849C592.169 387.59 592.689 386.9 593.409 386.4C594.149 385.88 595.049 385.62 596.109 385.62C597.449 385.62 598.569 385.96 599.469 386.64C600.369 387.32 601.049 388.27 601.509 389.49C601.969 390.71 602.199 392.12 602.199 393.72C602.199 395.28 602.049 396.7 601.749 397.98C601.449 399.26 600.989 400.6 600.369 402H597.669C598.309 400.6 598.769 399.26 599.049 397.98C599.349 396.7 599.499 395.27 599.499 393.69C599.499 391.75 599.189 390.29 598.569 389.31C597.949 388.31 597.059 387.81 595.899 387.81C594.999 387.81 594.299 388.15 593.799 388.83C593.299 389.51 593.049 390.47 593.049 391.71V396.54H590.529V391.71C590.529 390.59 590.299 389.66 589.839 388.92C589.379 388.18 588.649 387.81 587.649 387.81C586.509 387.81 585.629 388.31 585.009 389.31C584.389 390.29 584.079 391.75 584.079 393.69C584.079 395.27 584.219 396.7 584.499 397.98C584.799 399.26 585.269 400.6 585.909 402H583.209ZM607.322 402C606.702 400.6 606.242 399.26 605.942 397.98C605.642 396.7 605.492 395.28 605.492 393.72C605.492 392.12 605.722 390.71 606.182 389.49C606.642 388.27 607.322 387.32 608.222 386.64C609.122 385.96 610.242 385.62 611.582 385.62C612.702 385.62 613.602 385.88 614.282 386.4C614.982 386.9 615.492 387.59 615.812 388.47H615.962C616.282 387.59 616.802 386.9 617.522 386.4C618.262 385.88 619.162 385.62 620.222 385.62C621.562 385.62 622.682 385.96 623.582 386.64C624.482 387.32 625.162 388.27 625.622 389.49C626.082 390.71 626.312 392.12 626.312 393.72C626.312 395.28 626.162 396.7 625.862 397.98C625.562 399.26 625.102 400.6 624.482 402H621.782C622.422 400.6 622.882 399.26 623.162 397.98C623.462 396.7 623.612 395.27 623.612 393.69C623.612 391.75 623.302 390.29 622.682 389.31C622.062 388.31 621.172 387.81 620.012 387.81C619.112 387.81 618.412 388.15 617.912 388.83C617.412 389.51 617.162 390.47 617.162 391.71V396.54H614.642V391.71C614.642 390.59 614.412 389.66 613.952 388.92C613.492 388.18 612.762 387.81 611.762 387.81C610.622 387.81 609.742 388.31 609.122 389.31C608.502 390.29 608.192 391.75 608.192 393.69C608.192 395.27 608.332 396.7 608.612 397.98C608.912 399.26 609.382 400.6 610.022 402H607.322Z" fill="white"/>
</svg>
