<svg width="1050" height="600" viewBox="0 0 1050 600" fill="none" xmlns="http://www.w3.org/2000/svg">
<g clip-path="url(#clip0)">
<rect width="1050" height="600" fill="white"/>
<path d="M776 85V58H817L776 85Z" fill="#448ED9"/>
<path d="M274 85V58H233L274 85Z" fill="#448ED9"/>
<g filter="url(#filter0_d)">
<rect width="1050" height="58" fill="#303030"/>
</g>
<rect y="559" width="1050" height="41" fill="#303030"/>
<path d="M298.5 528H750.5L776 569H274L298.5 528Z" fill="#303030"/>
<path d="M412.53 569.203L413.079 571.961L413.75 569.325L417.608 556.227H418.963L422.771 569.325L423.431 571.986L424.017 569.203L427.227 556.227H428.765L424.212 574H422.771L418.743 560.096L418.292 558.338L417.852 560.096L413.726 574H412.286L407.745 556.227H409.283L412.53 569.203ZM434.942 569.203L435.491 571.961L436.163 569.325L440.02 556.227H441.375L445.184 569.325L445.843 571.986L446.429 569.203L449.639 556.227H451.177L446.624 574H445.184L441.155 560.096L440.704 558.338L440.264 560.096L436.138 574H434.698L430.157 556.227H431.695L434.942 569.203ZM457.354 569.203L457.903 571.961L458.575 569.325L462.432 556.227H463.787L467.596 569.325L468.255 571.986L468.841 569.203L472.051 556.227H473.589L469.036 574H467.596L463.567 560.096L463.116 558.338L462.676 560.096L458.55 574H457.11L452.569 556.227H454.107L457.354 569.203ZM474.493 573.121C474.493 572.836 474.582 572.596 474.761 572.401C474.948 572.197 475.205 572.096 475.53 572.096C475.856 572.096 476.112 572.197 476.299 572.401C476.486 572.596 476.58 572.836 476.58 573.121C476.58 573.406 476.486 573.642 476.299 573.829C476.112 574.008 475.856 574.098 475.53 574.098C475.205 574.098 474.948 574.008 474.761 573.829C474.582 573.642 474.493 573.406 474.493 573.121ZM484.234 569.203L484.783 571.961L485.455 569.325L489.312 556.227H490.667L494.476 569.325L495.135 571.986L495.721 569.203L498.931 556.227H500.469L495.916 574H494.476L490.447 560.096L489.996 558.338L489.556 560.096L485.43 574H483.99L479.449 556.227H480.987L484.234 569.203ZM513.177 565.479H504.864V572.73H514.422V574H503.362V556.227H514.361V557.508H504.864V564.21H513.177V565.479ZM517.596 574V556.227H522.845C524.749 556.227 526.194 556.621 527.178 557.411C528.163 558.192 528.655 559.347 528.655 560.877C528.655 561.797 528.403 562.599 527.898 563.282C527.402 563.958 526.718 564.442 525.848 564.735C526.881 564.963 527.711 565.471 528.338 566.261C528.973 567.05 529.29 567.962 529.29 568.995C529.29 570.566 528.781 571.795 527.764 572.682C526.755 573.561 525.347 574 523.541 574H517.596ZM519.097 565.455V572.73H523.602C524.887 572.73 525.905 572.405 526.653 571.754C527.41 571.095 527.789 570.183 527.789 569.02C527.789 567.921 527.426 567.054 526.702 566.419C525.986 565.777 524.993 565.455 523.724 565.455H519.097ZM519.097 564.198H523.199C524.452 564.173 525.42 563.88 526.104 563.319C526.796 562.749 527.142 561.923 527.142 560.841C527.142 559.701 526.784 558.863 526.067 558.326C525.359 557.781 524.285 557.508 522.845 557.508H519.097V564.198ZM542.986 569.63C542.986 568.645 542.64 567.868 541.949 567.298C541.257 566.721 539.992 566.175 538.152 565.663C536.313 565.142 534.97 564.576 534.124 563.966C532.92 563.103 532.317 561.972 532.317 560.572C532.317 559.213 532.875 558.111 533.99 557.264C535.113 556.41 536.545 555.982 538.287 555.982C539.467 555.982 540.521 556.21 541.448 556.666C542.384 557.122 543.108 557.757 543.621 558.57C544.134 559.384 544.39 560.292 544.39 561.292H542.876C542.876 560.08 542.461 559.107 541.631 558.375C540.801 557.634 539.686 557.264 538.287 557.264C536.928 557.264 535.845 557.569 535.04 558.18C534.234 558.782 533.831 559.571 533.831 560.548C533.831 561.451 534.193 562.188 534.917 562.757C535.642 563.327 536.801 563.832 538.396 564.271C539.992 564.702 541.2 565.154 542.022 565.626C542.844 566.09 543.462 566.647 543.877 567.298C544.292 567.949 544.5 568.718 544.5 569.605C544.5 571.005 543.938 572.128 542.815 572.975C541.701 573.821 540.228 574.244 538.396 574.244C537.143 574.244 535.992 574.02 534.942 573.573C533.9 573.125 533.107 572.499 532.562 571.693C532.024 570.887 531.756 569.964 531.756 568.922H533.257C533.257 570.175 533.725 571.164 534.661 571.888C535.597 572.612 536.842 572.975 538.396 572.975C539.78 572.975 540.891 572.669 541.729 572.059C542.567 571.449 542.986 570.639 542.986 569.63ZM549.578 574H548.077V556.227H549.578V574ZM566.106 557.508H560.015V574H558.514V557.508H552.435V556.227H566.106V557.508ZM578.802 565.479H570.489V572.73H580.047V574H568.987V556.227H579.986V557.508H570.489V564.21H578.802V565.479ZM582.745 573.121C582.745 572.836 582.834 572.596 583.013 572.401C583.2 572.197 583.457 572.096 583.782 572.096C584.108 572.096 584.364 572.197 584.551 572.401C584.738 572.596 584.832 572.836 584.832 573.121C584.832 573.406 584.738 573.642 584.551 573.829C584.364 574.008 584.108 574.098 583.782 574.098C583.457 574.098 583.2 574.008 583.013 573.829C582.834 573.642 582.745 573.406 582.745 573.121ZM601.788 568.458C601.584 570.33 600.913 571.762 599.773 572.755C598.642 573.748 597.133 574.244 595.245 574.244C593.926 574.244 592.758 573.915 591.741 573.255C590.732 572.596 589.951 571.664 589.397 570.46C588.844 569.247 588.563 567.864 588.555 566.31V564.002C588.555 562.424 588.832 561.024 589.385 559.803C589.939 558.583 590.732 557.643 591.766 556.983C592.807 556.316 594.004 555.982 595.354 555.982C597.259 555.982 598.76 556.499 599.859 557.533C600.966 558.558 601.609 559.978 601.788 561.793H600.274C599.9 558.774 598.26 557.264 595.354 557.264C593.743 557.264 592.457 557.866 591.497 559.071C590.545 560.275 590.069 561.939 590.069 564.063V566.236C590.069 568.287 590.533 569.923 591.46 571.144C592.396 572.364 593.658 572.975 595.245 572.975C596.815 572.975 597.999 572.6 598.797 571.852C599.594 571.095 600.087 569.964 600.274 568.458H601.788ZM618.572 566.078C618.572 567.713 618.287 569.15 617.718 570.387C617.156 571.624 616.351 572.576 615.301 573.243C614.251 573.91 613.038 574.244 611.663 574.244C609.588 574.244 607.911 573.504 606.634 572.022C605.356 570.533 604.717 568.527 604.717 566.004V564.173C604.717 562.554 605.002 561.122 605.572 559.876C606.15 558.623 606.963 557.663 608.013 556.996C609.063 556.32 610.271 555.982 611.639 555.982C613.006 555.982 614.21 556.312 615.252 556.971C616.302 557.63 617.111 558.562 617.681 559.767C618.251 560.971 618.548 562.367 618.572 563.954V566.078ZM617.071 564.149C617.071 562.009 616.587 560.332 615.618 559.12C614.65 557.907 613.323 557.301 611.639 557.301C609.987 557.301 608.668 557.911 607.684 559.132C606.707 560.344 606.219 562.041 606.219 564.222V566.078C606.219 568.185 606.707 569.858 607.684 571.095C608.66 572.324 609.987 572.938 611.663 572.938C613.364 572.938 614.69 572.332 615.643 571.119C616.595 569.898 617.071 568.202 617.071 566.029V564.149ZM624.346 556.227L630.901 571.913L637.481 556.227H639.483V574H637.981V566.261L638.104 558.326L631.487 574H630.328L623.736 558.387L623.858 566.212V574H622.356V556.227H624.346Z" fill="#E8E8E8"/>
<path d="M616.829 233.839V296.411C616.826 301.116 615.587 305.737 613.234 309.812C610.882 313.887 607.501 317.272 603.428 319.628L599.28 322.017L599.258 322.039H599.236C599.215 322.039 599.193 322.061 599.15 322.083L538.315 357.202C534.236 359.55 529.611 360.785 524.904 360.785C520.197 360.785 515.572 359.55 511.493 357.202L446.423 319.628C441.876 317.006 438.204 313.1 435.868 308.4C435.844 308.353 435.815 308.309 435.781 308.269C435.772 308.244 435.757 308.222 435.737 308.204V308.183C435.725 308.171 435.717 308.156 435.716 308.139C433.93 304.487 433.002 300.476 433.001 296.411V234.751C432.99 233.588 433.078 232.425 433.261 231.276C444.558 253.533 463.517 270.958 486.646 280.339V280.904L514.273 296.867C517.512 298.734 521.186 299.717 524.926 299.717C528.665 299.717 532.339 298.734 535.579 296.867L563.205 280.904V280.752C586.22 271.694 605.234 254.699 616.807 232.84C616.829 233.188 616.829 233.503 616.829 233.839Z" fill="#66ADFF"/>
<path d="M486.646 233.839V280.339C463.517 270.957 444.557 253.533 433.261 231.276C433.389 230.172 433.585 229.077 433.847 227.996C434.508 225.267 435.577 222.653 437.018 220.243C439.182 216.502 442.226 213.346 445.886 211.049C449.546 208.752 453.711 207.382 458.02 207.059C461.687 206.815 465.365 207.326 468.826 208.561C472.288 209.796 475.458 211.729 478.142 214.24C480.826 216.75 482.965 219.785 484.428 223.157C485.891 226.528 486.646 230.164 486.646 233.839Z" fill="#303030"/>
<path d="M616.806 232.851C605.233 254.709 586.22 271.705 563.204 280.762V234.762C563.121 227.84 565.655 221.142 570.298 216.008C574.941 210.874 581.351 207.682 588.246 207.07C593.131 206.739 598.014 207.753 602.363 210.002C602.369 210.002 602.374 210.005 602.379 210.009C602.383 210.013 602.385 210.018 602.385 210.024C602.405 210.036 602.427 210.043 602.45 210.046C605.978 211.903 609.05 214.52 611.442 217.709C613.835 220.898 615.489 224.579 616.285 228.485C616.581 229.923 616.756 231.383 616.806 232.851Z" fill="#303030"/>
<g style="mix-blend-mode:multiply" opacity="0.08">
<g style="mix-blend-mode:multiply" opacity="0.08">
<path d="M486.646 259.043V280.349C463.517 270.968 444.557 253.543 433.261 231.286C433.389 230.182 433.585 229.087 433.847 228.007C445.119 236.303 465.242 249.965 486.646 259.043Z" fill="#66ADFF"/>
</g>
</g>
<g style="mix-blend-mode:multiply" opacity="0.08">
<g style="mix-blend-mode:multiply" opacity="0.08">
<path d="M616.807 232.851C605.234 254.71 586.22 271.705 563.205 280.763V259.131C581.95 250.855 599.746 240.581 616.285 228.485C616.582 229.923 616.756 231.384 616.807 232.851Z" fill="#66ADFF"/>
</g>
</g>
<g style="mix-blend-mode:screen" opacity="0.4">
<g style="mix-blend-mode:screen" opacity="0.4">
<path d="M610.313 296.335V296.422C610.303 299.981 609.362 303.476 607.583 306.558C605.803 309.641 603.248 312.204 600.17 313.992L535.057 351.566C531.969 353.344 528.467 354.281 524.904 354.281C521.34 354.281 517.838 353.344 514.75 351.566L464.145 322.354L463.972 322.245L449.681 313.992C446.837 312.345 444.434 310.036 442.676 307.26C440.918 304.484 439.856 301.325 439.581 298.051C463.777 315.297 492.687 324.696 522.399 324.976C552.111 325.255 581.192 316.402 605.708 299.614L605.926 299.462L606.034 299.397C607.5 298.398 608.901 297.377 610.313 296.335Z" fill="#66ADFF"/>
</g>
</g>
<g style="mix-blend-mode:screen" opacity="0.6">
<g style="mix-blend-mode:screen" opacity="0.6">
<path d="M435.738 308.191C435.759 308.213 435.759 308.235 435.781 308.278C435.772 308.253 435.757 308.231 435.738 308.213V308.191Z" fill="#66ADFF"/>
</g>
</g>
<g style="mix-blend-mode:multiply" opacity="0.25">
<g style="mix-blend-mode:multiply" opacity="0.25">
<path d="M599.149 322.091L538.315 357.21C534.235 359.558 529.611 360.794 524.904 360.794C520.197 360.794 515.572 359.558 511.492 357.21L446.423 319.637C441.876 317.014 438.204 313.108 435.868 308.408C436.041 308.712 436.367 309.234 436.845 309.95C437.986 311.576 439.288 313.083 440.733 314.446C442.965 316.526 445.517 318.235 448.291 319.506C451.505 321.157 455.132 323.025 459.042 325.132C466.925 329.258 476.047 334.188 485.756 339.575C490.599 342.289 495.638 345.026 500.698 347.936C503.239 349.392 505.78 350.847 508.343 352.302L512.187 354.495C513.357 355.187 514.576 355.79 515.836 356.298C520.78 358.351 526.268 358.695 531.43 357.275C534.006 356.536 536.469 355.447 538.749 354.039C541.247 352.649 543.701 351.281 546.134 349.935C555.864 344.548 564.986 339.618 572.848 335.492C587.595 327.662 597.911 322.667 599.149 322.091Z" fill="#66ADFF"/>
</g>
</g>
<g style="mix-blend-mode:multiply" opacity="0.25">
<g style="mix-blend-mode:multiply" opacity="0.25">
<path d="M616.806 232.85L614.787 236.976L612.571 241.038L610.16 244.969L607.554 248.791L604.752 252.484L601.799 256.067L598.65 259.499L595.348 262.778L591.895 265.906L588.29 268.881L584.554 271.683L580.688 274.311L576.692 276.765L572.587 279.046L568.374 281.109L565.311 282.434L564.399 282.977C558.231 286.647 552.084 290.361 545.873 293.967L536.512 299.396C532.966 301.375 528.975 302.421 524.914 302.437C522.891 302.427 520.878 302.164 518.92 301.655C517.947 301.392 516.989 301.073 516.053 300.699C515.13 300.328 514.23 299.9 513.36 299.418L503.977 293.967C497.766 290.361 491.619 286.647 485.451 282.999L484.235 282.282V281.891L481.412 280.631L477.198 278.503L473.093 276.157L469.097 273.638L465.231 270.923L461.474 268.056L457.89 265.015L454.459 261.801L451.179 258.456L448.052 254.938L445.119 251.289L442.339 247.532L439.777 243.622L437.388 239.626L435.216 235.5L433.261 231.286L435.672 235.261L438.235 239.083L440.949 242.819L443.795 246.424L446.792 249.899L449.919 253.244L453.199 256.436L456.565 259.499L460.084 262.409L463.732 265.146L467.446 267.752L471.291 270.163L475.222 272.421L479.261 274.506L483.366 276.418L486.646 277.764V280.914L514.272 296.877C517.512 298.744 521.186 299.727 524.925 299.727C528.665 299.727 532.338 298.744 535.578 296.877L563.204 280.914V278.199L566.506 276.874L570.589 275.028L574.607 273.03L578.538 270.836L582.36 268.469L586.096 265.949L589.745 263.278L593.263 260.454L596.651 257.457L599.931 254.33L603.102 251.072L606.121 247.662L609.009 244.144L611.746 240.495L614.352 236.716L616.806 232.85Z" fill="#66ADFF"/>
</g>
</g>
<g style="mix-blend-mode:screen" opacity="0.4">
<g style="mix-blend-mode:screen" opacity="0.4">
<path d="M605.708 299.613L601.538 302.631L596.891 305.672C593.72 307.627 590.498 309.466 587.226 311.189C583.924 312.904 580.551 314.468 577.105 315.88C573.659 317.292 570.169 318.58 566.636 319.746C559.556 322.09 552.291 323.833 544.918 324.958C541.225 325.545 537.511 325.957 533.776 326.24C529.975 326.544 526.37 326.652 522.591 326.631C518.855 326.631 515.119 326.457 511.384 326.175L505.802 325.61L500.264 324.828L494.747 323.807L489.274 322.591L483.866 321.158L478.501 319.485L473.224 317.617L468.033 315.532L462.907 313.252L457.89 310.776L453.004 308.061L448.204 305.173L443.534 302.11L440.906 300.242C441.865 305.239 444.673 309.691 448.768 312.709C450.006 313.578 451.288 314.316 452.591 315.142L456.457 317.509L463.972 322.244L449.681 313.99C446.837 312.343 444.434 310.034 442.676 307.258C440.918 304.483 439.856 301.323 439.581 298.049C463.777 315.295 492.687 324.694 522.399 324.974C552.111 325.253 581.192 316.401 605.708 299.613Z" fill="#66ADFF"/>
</g>
</g>
<g style="mix-blend-mode:screen" opacity="0.5">
<g style="mix-blend-mode:screen" opacity="0.5">
<path d="M486.647 233.839V254.624C486.647 254.624 485.909 248.955 485.409 240.463C485.257 238.356 485.127 236.032 485.018 233.622C484.853 231.243 484.393 228.894 483.65 226.628C482 221.749 478.948 217.466 474.876 214.313C472.818 212.735 470.543 211.462 468.121 210.534C465.772 209.697 463.328 209.157 460.845 208.927C460.172 208.927 459.521 208.906 458.869 208.906L458 208.884L457.11 208.949C455.948 209.01 454.794 209.162 453.656 209.405C451.537 209.856 449.48 210.564 447.532 211.512C444.552 212.987 441.849 214.963 439.539 217.354C438.692 218.245 438.041 218.961 437.628 219.483C437.324 219.873 437.107 220.134 437.02 220.243C439.184 216.502 442.228 213.346 445.887 211.049C449.547 208.752 453.713 207.382 458.022 207.059C461.689 206.815 465.367 207.326 468.828 208.561C472.289 209.796 475.46 211.729 478.143 214.24C480.827 216.75 482.967 219.785 484.429 223.157C485.892 226.528 486.647 230.164 486.647 233.839Z" fill="#66ADFF"/>
</g>
</g>
<g style="mix-blend-mode:screen" opacity="0.5">
<g style="mix-blend-mode:screen" opacity="0.5">
<path d="M602.363 210.002C602.103 209.916 601.147 209.611 599.627 209.242C597.202 208.653 594.716 208.355 592.221 208.352C590.589 208.36 588.961 208.512 587.356 208.808C586.489 208.944 585.632 209.139 584.793 209.394C584.38 209.525 583.946 209.633 583.511 209.763C583.077 209.894 582.643 210.089 582.208 210.241C580.459 210.954 578.78 211.826 577.191 212.848C575.576 213.936 574.083 215.196 572.739 216.605C571.364 217.985 570.147 219.515 569.112 221.166C568.095 222.78 567.236 224.49 566.549 226.27C566.208 227.113 565.918 227.976 565.68 228.854C565.421 229.679 565.218 230.521 565.072 231.374C564.895 232.22 564.764 233.076 564.681 233.937L564.616 234.566C564.594 234.653 564.573 234.827 564.573 234.827L564.551 235.131C564.507 235.544 564.486 235.956 564.442 236.347C563.921 242.733 563.204 246.968 563.204 246.968V234.762C563.121 227.84 565.655 221.142 570.298 216.008C574.941 210.874 581.351 207.682 588.246 207.07C593.131 206.739 598.014 207.753 602.363 210.002Z" fill="#66ADFF"/>
</g>
</g>
<path d="M450.735 375.985C451.905 375.985 453.165 376.105 454.515 376.345C455.895 376.555 456.705 376.675 456.945 376.705L456.855 380.08C454.215 379.6 452.175 379.36 450.735 379.36C448.695 379.36 447.225 379.78 446.325 380.62C445.425 381.46 444.975 382.855 444.975 384.805V397.675C444.975 399.625 445.41 401.02 446.28 401.86C447.18 402.67 448.665 403.075 450.735 403.075C452.175 403.075 454.215 402.835 456.855 402.355L456.945 405.82C456.705 405.85 455.895 405.97 454.515 406.18C453.165 406.42 451.905 406.54 450.735 406.54C447.285 406.54 444.825 405.805 443.355 404.335C441.885 402.865 441.15 400.57 441.15 397.45V385.075C441.15 381.955 441.885 379.66 443.355 378.19C444.825 376.72 447.285 375.985 450.735 375.985ZM471.922 375.985C475.282 375.985 477.757 376.825 479.347 378.505C480.937 380.185 481.732 382.57 481.732 385.66V396.865C481.732 399.955 480.937 402.34 479.347 404.02C477.757 405.7 475.282 406.54 471.922 406.54C468.562 406.54 466.087 405.7 464.497 404.02C462.907 402.34 462.112 399.955 462.112 396.865V385.66C462.112 382.57 462.907 380.185 464.497 378.505C466.087 376.825 468.562 375.985 471.922 375.985ZM471.922 379.36C469.942 379.36 468.442 379.855 467.422 380.845C466.432 381.835 465.937 383.29 465.937 385.21V397.27C465.937 399.19 466.432 400.66 467.422 401.68C468.442 402.67 469.942 403.165 471.922 403.165C473.902 403.165 475.387 402.67 476.377 401.68C477.397 400.66 477.907 399.19 477.907 397.27V385.255C477.907 383.335 477.397 381.88 476.377 380.89C475.387 379.87 473.902 379.36 471.922 379.36ZM509.46 406L509.235 381.79L502.98 402.94H498.255L492 381.79L491.775 406H488.04L488.31 376.525H493.98L500.64 399.52L507.255 376.525H512.925L513.195 406H509.46ZM527.514 375.985C531.054 375.985 533.679 376.705 535.389 378.145C537.129 379.555 537.999 381.58 537.999 384.22V385.3C537.999 388.12 537.159 390.295 535.479 391.825C533.799 393.355 531.264 394.12 527.874 394.12C526.524 394.12 525.084 394 523.554 393.76V406H519.729V376.21C522.279 376.06 524.874 375.985 527.514 375.985ZM527.424 379.225C526.104 379.225 524.814 379.255 523.554 379.315V390.475C525.354 390.715 526.734 390.835 527.694 390.835C532.014 390.835 534.174 388.93 534.174 385.12V384.355C534.174 382.645 533.634 381.37 532.554 380.53C531.474 379.66 529.764 379.225 527.424 379.225ZM552.286 376.525L561.331 406H557.191L555.256 399.16H544.411L542.476 406H538.561L547.561 376.525H552.286ZM549.856 380.035L545.356 395.74H554.311L549.856 380.035ZM578.801 406L569.081 381.115V406H565.301V376.525H571.421L580.961 401.41V376.525H584.741V406H578.801ZM609.627 376.525L601.077 395.875V406H597.252V395.875L588.702 376.525H593.067L599.187 391.825L605.352 376.525H609.627Z" fill="#3C3C3C"/>
<g filter="url(#filter1_d)">
<rect x="274" y="-5" width="502" height="90" fill="#66ADFF"/>
</g>
<path d="M418.85 31.35V33.66H413.15V51H410.6V33.66H404.9V31.35H418.85ZM427.232 30.99C429.592 30.99 431.332 31.45 432.452 32.37C433.572 33.29 434.132 34.58 434.132 36.24V36.99C434.132 38.15 433.812 39.18 433.172 40.08C432.532 40.96 431.612 41.58 430.412 41.94L435.512 51H432.662L427.892 42.48C427.732 42.5 427.412 42.51 426.932 42.51C426.132 42.51 425.342 42.48 424.562 42.42V51H422.012V31.11C424.252 31.03 425.992 30.99 427.232 30.99ZM427.172 33.15C426.512 33.15 425.642 33.17 424.562 33.21V40.29C425.642 40.39 426.542 40.44 427.262 40.44C430.142 40.44 431.582 39.27 431.582 36.93V36.33C431.582 35.25 431.232 34.45 430.532 33.93C429.832 33.41 428.712 33.15 427.172 33.15ZM445.21 31.35L451.24 51H448.48L447.19 46.44H439.96L438.67 51H436.06L442.06 31.35H445.21ZM443.59 33.69L440.59 44.16H446.56L443.59 33.69ZM459.377 30.99C461.757 30.99 463.587 31.67 464.867 33.03C466.167 34.37 466.817 36.31 466.817 38.85V43.77C466.817 46.21 466.167 48.09 464.867 49.41C463.587 50.71 461.707 51.36 459.227 51.36C457.527 51.36 455.747 51.3 453.887 51.18V31.11C455.687 31.03 457.517 30.99 459.377 30.99ZM459.227 33.15C458.607 33.15 457.677 33.17 456.437 33.21V48.99C457.617 49.11 458.547 49.17 459.227 49.17C460.767 49.17 461.987 48.73 462.887 47.85C463.807 46.95 464.267 45.66 464.267 43.98V38.67C464.267 36.85 463.827 35.48 462.947 34.56C462.067 33.62 460.827 33.15 459.227 33.15ZM473.575 31.35V51H471.025V31.35H473.575ZM487.086 51L480.606 34.41V51H478.086V31.35H482.166L488.526 47.94V31.35H491.046V51H487.086ZM501.787 30.99C502.527 30.99 503.377 31.06 504.337 31.2C505.297 31.32 506.177 31.46 506.977 31.62L506.917 33.87C504.657 33.43 502.947 33.21 501.787 33.21C500.407 33.21 499.417 33.49 498.817 34.05C498.237 34.59 497.947 35.5 497.947 36.78V45.48C497.947 46.76 498.237 47.69 498.817 48.27C499.417 48.83 500.407 49.11 501.787 49.11C502.687 49.11 503.857 48.97 505.297 48.69V42.06H501.547V39.66H507.847V50.25C505.447 50.99 503.427 51.36 501.787 51.36C499.487 51.36 497.847 50.87 496.867 49.89C495.887 48.91 495.397 47.38 495.397 45.3V37.05C495.397 34.93 495.897 33.39 496.897 32.43C497.897 31.47 499.527 30.99 501.787 30.99ZM523.818 30.99C524.598 30.99 525.438 31.07 526.338 31.23C527.258 31.37 527.798 31.45 527.958 31.47L527.898 33.72C526.138 33.4 524.778 33.24 523.818 33.24C522.458 33.24 521.478 33.52 520.878 34.08C520.278 34.64 519.978 35.57 519.978 36.87V45.45C519.978 46.75 520.268 47.68 520.848 48.24C521.448 48.78 522.438 49.05 523.818 49.05C524.778 49.05 526.138 48.89 527.898 48.57L527.958 50.88C527.798 50.9 527.258 50.98 526.338 51.12C525.438 51.28 524.598 51.36 523.818 51.36C521.518 51.36 519.878 50.87 518.898 49.89C517.918 48.91 517.428 47.38 517.428 45.3V37.05C517.428 34.97 517.918 33.44 518.898 32.46C519.878 31.48 521.518 30.99 523.818 30.99ZM537.943 30.99C540.183 30.99 541.833 31.55 542.893 32.67C543.953 33.79 544.483 35.38 544.483 37.44V44.91C544.483 46.97 543.953 48.56 542.893 49.68C541.833 50.8 540.183 51.36 537.943 51.36C535.703 51.36 534.053 50.8 532.993 49.68C531.933 48.56 531.403 46.97 531.403 44.91V37.44C531.403 35.38 531.933 33.79 532.993 32.67C534.053 31.55 535.703 30.99 537.943 30.99ZM537.943 33.24C536.623 33.24 535.623 33.57 534.943 34.23C534.283 34.89 533.953 35.86 533.953 37.14V45.18C533.953 46.46 534.283 47.44 534.943 48.12C535.623 48.78 536.623 49.11 537.943 49.11C539.263 49.11 540.253 48.78 540.913 48.12C541.593 47.44 541.933 46.46 541.933 45.18V37.17C541.933 35.89 541.593 34.92 540.913 34.26C540.253 33.58 539.263 33.24 537.943 33.24ZM562.968 51L562.818 34.86L558.648 48.96H555.498L551.328 34.86L551.178 51H548.688L548.868 31.35H552.648L557.088 46.68L561.498 31.35H565.278L565.458 51H562.968ZM575.004 30.99C577.364 30.99 579.114 31.47 580.254 32.43C581.414 33.37 581.994 34.72 581.994 36.48V37.2C581.994 39.08 581.434 40.53 580.314 41.55C579.194 42.57 577.504 43.08 575.244 43.08C574.344 43.08 573.384 43 572.364 42.84V51H569.814V31.14C571.514 31.04 573.244 30.99 575.004 30.99ZM574.944 33.15C574.064 33.15 573.204 33.17 572.364 33.21V40.65C573.564 40.81 574.484 40.89 575.124 40.89C578.004 40.89 579.444 39.62 579.444 37.08V36.57C579.444 35.43 579.084 34.58 578.364 34.02C577.644 33.44 576.504 33.15 574.944 33.15ZM591.519 31.35L597.549 51H594.789L593.499 46.44H586.269L584.979 51H582.369L588.369 31.35H591.519ZM589.899 33.69L586.899 44.16H592.869L589.899 33.69ZM609.195 51L602.715 34.41V51H600.195V31.35H604.275L610.635 47.94V31.35H613.155V51H609.195ZM629.746 31.35L624.046 44.25V51H621.496V44.25L615.796 31.35H618.706L622.786 41.55L626.896 31.35H629.746Z" fill="white"/>
</g>
<defs>
<filter id="filter0_d" x="-4" y="0" width="1058" height="66" filterUnits="userSpaceOnUse" color-interpolation-filters="sRGB">
<feFlood flood-opacity="0" result="BackgroundImageFix"/>
<feColorMatrix in="SourceAlpha" type="matrix" values="0 0 0 0 0 0 0 0 0 0 0 0 0 0 0 0 0 0 127 0"/>
<feOffset dy="4"/>
<feGaussianBlur stdDeviation="2"/>
<feColorMatrix type="matrix" values="0 0 0 0 0 0 0 0 0 0 0 0 0 0 0 0 0 0 0.25 0"/>
<feBlend mode="normal" in2="BackgroundImageFix" result="effect1_dropShadow"/>
<feBlend mode="normal" in="SourceGraphic" in2="effect1_dropShadow" result="shape"/>
</filter>
<filter id="filter1_d" x="267" y="-12" width="516" height="104" filterUnits="userSpaceOnUse" color-interpolation-filters="sRGB">
<feFlood flood-opacity="0" result="BackgroundImageFix"/>
<feColorMatrix in="SourceAlpha" type="matrix" values="0 0 0 0 0 0 0 0 0 0 0 0 0 0 0 0 0 0 127 0"/>
<feMorphology radius="3" operator="dilate" in="SourceAlpha" result="effect1_dropShadow"/>
<feOffset/>
<feGaussianBlur stdDeviation="2"/>
<feColorMatrix type="matrix" values="0 0 0 0 0 0 0 0 0 0 0 0 0 0 0 0 0 0 0.25 0"/>
<feBlend mode="normal" in2="BackgroundImageFix" result="effect1_dropShadow"/>
<feBlend mode="normal" in="SourceGraphic" in2="effect1_dropShadow" result="shape"/>
</filter>
<clipPath id="clip0">
<rect width="1050" height="600" fill="white"/>
</clipPath>
</defs>
</svg>
