<svg width="1050" height="600" viewBox="0 0 1050 600" fill="none" xmlns="http://www.w3.org/2000/svg">
<rect width="1050" height="600" fill="#262E39"/>
<path d="M42 43H212.727L136.5 185H42V43Z" fill="#00ADB4"/>
<path d="M786.5 43H1016V556H414L786.5 43Z" fill="#00ADB4"/>
<path d="M925.219 211.188V274.573C925.216 279.34 923.961 284.021 921.578 288.149C919.196 292.277 915.77 295.706 911.644 298.093L907.442 300.513L907.42 300.535H907.398C907.376 300.535 907.354 300.557 907.31 300.579L845.685 336.155C841.552 338.533 836.867 339.785 832.099 339.785C827.331 339.785 822.646 338.533 818.513 336.155L752.598 298.093C747.992 295.436 744.272 291.479 741.905 286.718C741.881 286.671 741.851 286.627 741.817 286.586C741.808 286.561 741.793 286.538 741.773 286.52V286.498C741.76 286.487 741.753 286.471 741.751 286.454C739.942 282.755 739.002 278.691 739.001 274.573V212.112C738.99 210.933 739.079 209.756 739.265 208.592C750.708 231.138 769.914 248.789 793.344 258.293V258.865L821.329 275.035C824.611 276.927 828.333 277.923 832.121 277.923C835.909 277.923 839.631 276.927 842.913 275.035L870.898 258.865V258.711C894.213 249.535 913.474 232.319 925.197 210.176C925.219 210.528 925.219 210.847 925.219 211.188Z" fill="white"/>
<path d="M793.343 211.188V258.292C769.913 248.789 750.707 231.138 739.264 208.592C739.394 207.473 739.593 206.364 739.858 205.269C740.528 202.504 741.611 199.856 743.071 197.415C745.262 193.626 748.346 190.429 752.054 188.102C755.761 185.774 759.981 184.387 764.346 184.06C768.06 183.813 771.786 184.33 775.292 185.582C778.799 186.833 782.01 188.791 784.729 191.334C787.447 193.877 789.615 196.952 791.097 200.367C792.579 203.782 793.343 207.465 793.343 211.188Z" fill="#262E39"/>
<path d="M925.196 210.187C913.473 232.33 894.212 249.546 870.897 258.721V212.123C870.814 205.111 873.38 198.326 878.083 193.125C882.787 187.924 889.28 184.69 896.265 184.071C901.214 183.735 906.16 184.762 910.566 187.041C910.572 187.041 910.577 187.044 910.581 187.048C910.585 187.052 910.588 187.057 910.588 187.063C910.608 187.075 910.631 187.083 910.654 187.085C914.228 188.966 917.339 191.618 919.763 194.848C922.186 198.079 923.862 201.807 924.668 205.764C924.969 207.221 925.145 208.7 925.196 210.187Z" fill="#262E39"/>
<g style="mix-blend-mode:multiply" opacity="0.08">
<g style="mix-blend-mode:multiply" opacity="0.08">
<path d="M793.343 236.719V258.302C769.913 248.799 750.707 231.148 739.264 208.602C739.394 207.483 739.593 206.373 739.858 205.279C751.277 213.684 771.661 227.523 793.343 236.719Z" fill="white"/>
</g>
</g>
<g style="mix-blend-mode:multiply" opacity="0.08">
<g style="mix-blend-mode:multiply" opacity="0.08">
<path d="M925.197 210.187C913.474 232.33 894.212 249.546 870.898 258.722V236.808C889.887 228.426 907.915 218.017 924.669 205.765C924.969 207.221 925.146 208.701 925.197 210.187Z" fill="white"/>
</g>
</g>
<g style="mix-blend-mode:screen" opacity="0.4">
<g style="mix-blend-mode:screen" opacity="0.4">
<path d="M918.619 274.497V274.585C918.609 278.191 917.656 281.731 915.853 284.853C914.051 287.976 911.462 290.572 908.344 292.384L842.384 330.446C839.256 332.248 835.709 333.196 832.099 333.196C828.489 333.196 824.942 332.248 821.813 330.446L770.55 300.854L770.374 300.744L755.898 292.384C753.017 290.715 750.583 288.376 748.802 285.564C747.021 282.752 745.945 279.552 745.667 276.235C770.178 293.706 799.463 303.227 829.561 303.51C859.66 303.793 889.119 294.825 913.954 277.819L914.174 277.665L914.284 277.599C915.769 276.587 917.189 275.553 918.619 274.497Z" fill="white"/>
</g>
</g>
<g style="mix-blend-mode:screen" opacity="0.6">
<g style="mix-blend-mode:screen" opacity="0.6">
<path d="M741.773 286.508C741.795 286.53 741.795 286.552 741.817 286.596C741.808 286.571 741.793 286.548 741.773 286.53V286.508Z" fill="white"/>
</g>
</g>
<g style="mix-blend-mode:multiply" opacity="0.25">
<g style="mix-blend-mode:multiply" opacity="0.25">
<path d="M907.31 300.587L845.685 336.163C841.552 338.542 836.867 339.793 832.099 339.793C827.331 339.793 822.646 338.542 818.513 336.163L752.598 298.101C747.992 295.445 744.272 291.488 741.905 286.727C742.081 287.035 742.411 287.563 742.895 288.289C744.051 289.936 745.37 291.462 746.833 292.843C749.095 294.95 751.68 296.681 754.49 297.969C757.746 299.641 761.42 301.533 765.38 303.668C773.367 307.848 782.607 312.842 792.442 318.298C797.348 321.048 802.452 323.821 807.579 326.769C810.153 328.243 812.727 329.717 815.323 331.191L819.217 333.413C820.402 334.114 821.637 334.724 822.914 335.239C827.922 337.319 833.481 337.667 838.71 336.229C841.32 335.48 843.815 334.377 846.125 332.951C848.655 331.543 851.141 330.157 853.605 328.793C863.462 323.337 872.702 318.342 880.667 314.162C895.606 306.231 906.056 301.17 907.31 300.587Z" fill="white"/>
</g>
</g>
<g style="mix-blend-mode:multiply" opacity="0.25">
<g style="mix-blend-mode:multiply" opacity="0.25">
<path d="M925.197 210.186L923.151 214.366L920.906 218.48L918.464 222.462L915.824 226.335L912.986 230.075L909.994 233.705L906.804 237.181L903.459 240.503L899.961 243.672L896.309 246.686L892.525 249.524L888.609 252.186L884.56 254.672L880.402 256.982L876.134 259.072L873.032 260.414L872.108 260.964C865.859 264.683 859.633 268.445 853.341 272.097L843.858 277.597C840.266 279.601 836.223 280.661 832.11 280.678C830.06 280.668 828.02 280.401 826.037 279.886C825.051 279.619 824.081 279.296 823.133 278.917C822.198 278.541 821.287 278.108 820.405 277.619L810.9 272.097C804.608 268.445 798.382 264.683 792.133 260.986L790.901 260.26V259.864L788.041 258.588L783.773 256.432L779.615 254.056L775.566 251.504L771.65 248.754L767.844 245.85L764.214 242.769L760.738 239.513L757.415 236.125L754.247 232.561L751.277 228.865L748.461 225.058L745.865 221.098L743.445 217.05L741.244 212.87L739.264 208.602L741.707 212.628L744.303 216.5L747.053 220.284L749.935 223.936L752.971 227.457L756.139 230.845L759.462 234.079L762.872 237.181L766.436 240.129L770.132 242.901L773.894 245.542L777.789 247.984L781.771 250.272L785.863 252.384L790.021 254.32L793.343 255.684V258.874L821.329 275.045C824.611 276.937 828.332 277.933 832.121 277.933C835.909 277.933 839.63 276.937 842.912 275.045L870.898 258.874V256.124L874.242 254.782L878.378 252.912L882.448 250.888L886.431 248.666L890.303 246.268L894.087 243.716L897.783 241.009L901.347 238.149L904.78 235.113L908.102 231.945L911.314 228.645L914.372 225.19L917.298 221.626L920.07 217.93L922.711 214.102L925.197 210.186Z" fill="white"/>
</g>
</g>
<g style="mix-blend-mode:screen" opacity="0.4">
<g style="mix-blend-mode:screen" opacity="0.4">
<path d="M913.954 277.817L909.73 280.876L905.022 283.956C901.81 285.936 898.546 287.799 895.231 289.544C891.887 291.282 888.47 292.866 884.979 294.296C881.488 295.726 877.953 297.032 874.374 298.213C867.202 300.587 859.842 302.353 852.373 303.493C848.633 304.087 844.871 304.505 841.086 304.791C837.236 305.099 833.584 305.209 829.756 305.187C825.972 305.187 822.187 305.011 818.403 304.725L812.749 304.153L807.138 303.361L801.55 302.327L796.006 301.095L790.528 299.643L785.093 297.949L779.747 296.056L774.489 293.944L769.296 291.634L764.214 289.126L759.264 286.376L754.401 283.45L749.671 280.348L747.009 278.456C747.981 283.517 750.824 288.026 754.974 291.084C756.228 291.964 757.526 292.712 758.846 293.548L762.762 295.946L770.374 300.743L755.898 292.382C753.017 290.714 750.583 288.374 748.802 285.563C747.021 282.751 745.945 279.55 745.667 276.233C770.178 293.704 799.463 303.225 829.561 303.508C859.66 303.792 889.119 294.824 913.954 277.817Z" fill="white"/>
</g>
</g>
<g style="mix-blend-mode:screen" opacity="0.5">
<g style="mix-blend-mode:screen" opacity="0.5">
<path d="M793.345 211.188V232.243C793.345 232.243 792.597 226.501 792.091 217.898C791.937 215.764 791.805 213.41 791.695 210.968C791.527 208.558 791.062 206.178 790.309 203.883C788.637 198.941 785.546 194.602 781.42 191.409C779.336 189.809 777.031 188.52 774.578 187.58C772.199 186.732 769.723 186.185 767.207 185.952C766.525 185.952 765.865 185.93 765.205 185.93L764.325 185.908L763.423 185.974C762.247 186.036 761.077 186.19 759.925 186.436C757.778 186.894 755.695 187.61 753.721 188.57C750.702 190.065 747.964 192.066 745.624 194.489C744.766 195.391 744.106 196.117 743.688 196.645C743.38 197.041 743.16 197.305 743.072 197.415C745.264 193.626 748.347 190.429 752.055 188.102C755.762 185.774 759.982 184.387 764.347 184.06C768.062 183.813 771.787 184.33 775.294 185.582C778.8 186.833 782.012 188.791 784.73 191.334C787.449 193.877 789.616 196.952 791.098 200.367C792.58 203.782 793.345 207.465 793.345 211.188Z" fill="white"/>
</g>
</g>
<g style="mix-blend-mode:screen" opacity="0.5">
<g style="mix-blend-mode:screen" opacity="0.5">
<path d="M910.566 187.041C910.302 186.953 909.334 186.645 907.794 186.271C905.337 185.675 902.819 185.372 900.291 185.369C898.638 185.377 896.989 185.532 895.363 185.831C894.485 185.969 893.617 186.167 892.767 186.425C892.349 186.557 891.909 186.667 891.469 186.799C891.029 186.931 890.589 187.129 890.149 187.283C888.377 188.005 886.675 188.889 885.066 189.923C883.43 191.026 881.918 192.302 880.556 193.73C879.163 195.128 877.931 196.678 876.882 198.35C875.852 199.985 874.982 201.717 874.286 203.52C873.94 204.374 873.646 205.249 873.406 206.138C873.143 206.974 872.937 207.827 872.79 208.691C872.61 209.548 872.478 210.415 872.394 211.287L872.328 211.925C872.306 212.013 872.284 212.189 872.284 212.189L872.262 212.497C872.218 212.915 872.196 213.333 872.152 213.729C871.624 220.197 870.897 224.487 870.897 224.487V212.123C870.814 205.111 873.38 198.326 878.083 193.125C882.787 187.924 889.28 184.69 896.265 184.071C901.214 183.735 906.16 184.762 910.566 187.041Z" fill="white"/>
</g>
</g>
<path d="M749.13 362.34C750.33 362.34 751.35 362.51 752.19 362.85C753.03 363.19 753.85 363.67 754.65 364.29C754.87 364.47 755.06 364.56 755.22 364.56C755.62 364.56 755.88 363.96 756 362.76H756.69C756.61 364.06 756.57 366.36 756.57 369.66H755.88C755.66 368.36 755.46 367.43 755.28 366.87C755.1 366.29 754.8 365.74 754.38 365.22C753.78 364.44 753.01 363.86 752.07 363.48C751.15 363.08 750.15 362.88 749.07 362.88C747.77 362.88 746.63 363.31 745.65 364.17C744.69 365.03 743.94 366.26 743.4 367.86C742.86 369.44 742.59 371.3 742.59 373.44C742.59 375.62 742.88 377.49 743.46 379.05C744.04 380.61 744.84 381.8 745.86 382.62C746.9 383.42 748.07 383.82 749.37 383.82C750.37 383.82 751.34 383.63 752.28 383.25C753.22 382.87 753.96 382.3 754.5 381.54C754.9 380.98 755.19 380.38 755.37 379.74C755.55 379.1 755.72 378.12 755.88 376.8H756.57C756.57 380.24 756.61 382.64 756.69 384H756C755.94 383.36 755.85 382.91 755.73 382.65C755.63 382.37 755.48 382.23 755.28 382.23C755.12 382.23 754.91 382.31 754.65 382.47C753.75 383.11 752.89 383.6 752.07 383.94C751.25 384.26 750.26 384.42 749.1 384.42C747.2 384.42 745.53 383.99 744.09 383.13C742.67 382.27 741.56 381.03 740.76 379.41C739.98 377.77 739.59 375.82 739.59 373.56C739.59 371.36 739.99 369.41 740.79 367.71C741.61 366.01 742.74 364.69 744.18 363.75C745.64 362.81 747.29 362.34 749.13 362.34ZM777.255 362.34C779.155 362.34 780.815 362.77 782.235 363.63C783.675 364.49 784.785 365.74 785.565 367.38C786.365 369 786.765 370.94 786.765 373.2C786.765 375.4 786.355 377.35 785.535 379.05C784.735 380.75 783.605 382.07 782.145 383.01C780.705 383.95 779.065 384.42 777.225 384.42C775.325 384.42 773.655 383.99 772.215 383.13C770.795 382.27 769.685 381.03 768.885 379.41C768.105 377.77 767.715 375.82 767.715 373.56C767.715 371.36 768.115 369.41 768.915 367.71C769.735 366.01 770.865 364.69 772.305 363.75C773.765 362.81 775.415 362.34 777.255 362.34ZM777.135 362.88C775.855 362.88 774.725 363.33 773.745 364.23C772.785 365.11 772.035 366.35 771.495 367.95C770.975 369.55 770.715 371.38 770.715 373.44C770.715 375.52 771.005 377.35 771.585 378.93C772.185 380.51 772.985 381.73 773.985 382.59C774.985 383.45 776.105 383.88 777.345 383.88C778.625 383.88 779.745 383.44 780.705 382.56C781.685 381.66 782.435 380.41 782.955 378.81C783.495 377.21 783.765 375.38 783.765 373.32C783.765 371.24 783.465 369.41 782.865 367.83C782.285 366.25 781.495 365.03 780.495 364.17C779.495 363.31 778.375 362.88 777.135 362.88ZM820.702 363.36C819.982 363.4 819.452 363.48 819.112 363.6C818.792 363.72 818.572 363.95 818.452 364.29C818.332 364.63 818.272 365.18 818.272 365.94V380.82C818.272 381.58 818.332 382.13 818.452 382.47C818.572 382.81 818.792 383.04 819.112 383.16C819.452 383.28 819.982 383.36 820.702 383.4V384C819.782 383.94 818.512 383.91 816.892 383.91C815.172 383.91 813.892 383.94 813.052 384V383.4C813.772 383.36 814.292 383.28 814.612 383.16C814.952 383.04 815.182 382.81 815.302 382.47C815.422 382.13 815.482 381.58 815.482 380.82V364.74L808.252 384.15H807.772L800.212 364.68V380.52C800.212 381.3 800.272 381.88 800.392 382.26C800.532 382.64 800.792 382.92 801.172 383.1C801.552 383.26 802.142 383.36 802.942 383.4V384C802.222 383.94 801.202 383.91 799.882 383.91C798.682 383.91 797.752 383.94 797.092 384V383.4C797.792 383.36 798.312 383.26 798.652 383.1C798.992 382.92 799.222 382.64 799.342 382.26C799.462 381.86 799.522 381.28 799.522 380.52V365.94C799.522 365.18 799.462 364.63 799.342 364.29C799.222 363.95 798.992 363.72 798.652 363.6C798.332 363.48 797.812 363.4 797.092 363.36V362.76C797.752 362.82 798.682 362.85 799.882 362.85C800.922 362.85 801.772 362.82 802.432 362.76L809.032 380.13L815.482 362.85H816.892C818.512 362.85 819.782 362.82 820.702 362.76V363.36ZM835.916 375.42V380.82C835.916 381.58 835.996 382.13 836.156 382.47C836.316 382.81 836.596 383.04 836.996 383.16C837.396 383.28 838.046 383.36 838.946 383.4V384C837.906 383.94 836.436 383.91 834.536 383.91C832.816 383.91 831.536 383.94 830.696 384V383.4C831.416 383.36 831.936 383.28 832.256 383.16C832.596 383.04 832.826 382.81 832.946 382.47C833.066 382.13 833.126 381.58 833.126 380.82V365.94C833.126 365.18 833.066 364.63 832.946 364.29C832.826 363.95 832.596 363.72 832.256 363.6C831.936 363.48 831.416 363.4 830.696 363.36V362.76C831.536 362.82 832.756 362.85 834.356 362.85L837.596 362.82C837.976 362.8 838.406 362.79 838.886 362.79C841.226 362.79 843.016 363.33 844.256 364.41C845.496 365.47 846.116 366.9 846.116 368.7C846.116 369.8 845.866 370.86 845.366 371.88C844.886 372.88 844.056 373.72 842.876 374.4C841.716 375.08 840.166 375.42 838.226 375.42H835.916ZM838.136 363.36C837.516 363.36 837.046 363.43 836.726 363.57C836.426 363.71 836.216 363.96 836.096 364.32C835.976 364.68 835.916 365.22 835.916 365.94V374.82H837.926C839.886 374.82 841.236 374.3 841.976 373.26C842.736 372.2 843.116 370.79 843.116 369.03C843.116 367.09 842.726 365.66 841.946 364.74C841.186 363.82 839.916 363.36 838.136 363.36ZM869.678 381.48C870.158 382.72 870.848 383.36 871.748 383.4V384C870.948 383.94 869.878 383.91 868.538 383.91C866.818 383.91 865.538 383.94 864.698 384V383.4C865.458 383.36 865.998 383.27 866.318 383.13C866.658 382.97 866.828 382.69 866.828 382.29C866.828 381.95 866.708 381.48 866.468 380.88L864.638 375.96H857.378L856.148 379.14C855.748 380.22 855.548 381.04 855.548 381.6C855.548 382.22 855.758 382.67 856.178 382.95C856.618 383.23 857.278 383.38 858.158 383.4V384C857.018 383.94 855.868 383.91 854.708 383.91C853.808 383.91 853.058 383.94 852.458 384V383.4C853.458 383.16 854.248 382.29 854.828 380.79L861.878 362.61H862.358L869.678 381.48ZM864.398 375.36L861.038 366.39L857.618 375.36H864.398ZM899.135 363.36C898.435 363.4 897.915 363.51 897.575 363.69C897.235 363.85 897.005 364.13 896.885 364.53C896.765 364.91 896.705 365.48 896.705 366.24V384.15H896.015L883.415 364.68V380.52C883.415 381.3 883.475 381.88 883.595 382.26C883.735 382.64 883.995 382.92 884.375 383.1C884.755 383.26 885.345 383.36 886.145 383.4V384C885.425 383.94 884.405 383.91 883.085 383.91C881.885 383.91 880.955 383.94 880.295 384V383.4C880.995 383.36 881.515 383.26 881.855 383.1C882.195 382.92 882.425 382.64 882.545 382.26C882.665 381.86 882.725 381.28 882.725 380.52V365.94C882.725 365.18 882.665 364.63 882.545 364.29C882.425 363.95 882.195 363.72 881.855 363.6C881.535 363.48 881.015 363.4 880.295 363.36V362.76C880.955 362.82 881.885 362.85 883.085 362.85C883.985 362.85 884.765 362.82 885.425 362.76L896.015 379.08V366.24C896.015 365.46 895.945 364.88 895.805 364.5C895.685 364.12 895.435 363.85 895.055 363.69C894.675 363.51 894.085 363.4 893.285 363.36V362.76C894.005 362.82 895.025 362.85 896.345 362.85C897.545 362.85 898.475 362.82 899.135 362.76V363.36ZM922.081 362.85C922.981 362.85 923.731 362.82 924.331 362.76V363.36C923.931 363.46 923.541 363.72 923.161 364.14C922.781 364.54 922.371 365.17 921.931 366.03L917.221 375.36V380.82C917.221 381.58 917.281 382.13 917.401 382.47C917.521 382.81 917.741 383.04 918.061 383.16C918.401 383.28 918.931 383.36 919.651 383.4V384C918.731 383.94 917.461 383.91 915.841 383.91C914.121 383.91 912.841 383.94 912.001 384V383.4C912.721 383.36 913.241 383.28 913.561 383.16C913.901 383.04 914.131 382.81 914.251 382.47C914.371 382.13 914.431 381.58 914.431 380.82V376.32L908.341 365.07C907.981 364.41 907.661 363.97 907.381 363.75C907.121 363.51 906.861 363.39 906.601 363.39V362.76C907.381 362.82 908.261 362.85 909.241 362.85C911.181 362.85 912.581 362.82 913.441 362.76V363.39C912.041 363.39 911.341 363.77 911.341 364.53C911.341 364.83 911.441 365.18 911.641 365.58L916.621 375.15L920.461 367.53C921.001 366.47 921.271 365.61 921.271 364.95C921.271 364.39 921.051 363.99 920.611 363.75C920.171 363.51 919.511 363.38 918.631 363.36V362.76C919.771 362.82 920.921 362.85 922.081 362.85Z" fill="white"/>
<path d="M748.844 406.504C748.844 405.716 748.567 405.094 748.014 404.639C747.46 404.176 746.448 403.74 744.977 403.33C743.505 402.913 742.431 402.461 741.754 401.973C740.79 401.283 740.309 400.378 740.309 399.258C740.309 398.171 740.755 397.288 741.646 396.611C742.545 395.928 743.691 395.586 745.084 395.586C746.028 395.586 746.871 395.768 747.613 396.133C748.362 396.497 748.941 397.005 749.352 397.656C749.762 398.307 749.967 399.033 749.967 399.834H748.756C748.756 398.864 748.424 398.086 747.76 397.5C747.096 396.908 746.204 396.611 745.084 396.611C743.997 396.611 743.131 396.855 742.486 397.344C741.842 397.826 741.52 398.457 741.52 399.238C741.52 399.961 741.809 400.55 742.389 401.006C742.968 401.462 743.896 401.865 745.172 402.217C746.448 402.562 747.415 402.923 748.072 403.301C748.73 403.672 749.225 404.118 749.557 404.639C749.889 405.16 750.055 405.775 750.055 406.484C750.055 407.604 749.605 408.503 748.707 409.18C747.815 409.857 746.637 410.195 745.172 410.195C744.169 410.195 743.248 410.016 742.408 409.658C741.575 409.3 740.94 408.799 740.504 408.154C740.074 407.51 739.859 406.771 739.859 405.938H741.061C741.061 406.94 741.435 407.731 742.184 408.311C742.932 408.89 743.928 409.18 745.172 409.18C746.279 409.18 747.167 408.936 747.838 408.447C748.508 407.959 748.844 407.311 748.844 406.504ZM753.863 408.984H760.885V410H752.652V395.781H753.863V408.984ZM773.062 403.662C773.062 404.971 772.835 406.12 772.379 407.109C771.93 408.099 771.285 408.861 770.445 409.395C769.605 409.928 768.635 410.195 767.535 410.195C765.875 410.195 764.534 409.603 763.512 408.418C762.49 407.227 761.979 405.622 761.979 403.604V402.139C761.979 400.843 762.206 399.697 762.662 398.701C763.124 397.699 763.775 396.93 764.615 396.396C765.455 395.856 766.422 395.586 767.516 395.586C768.609 395.586 769.573 395.85 770.406 396.377C771.246 396.904 771.894 397.65 772.35 398.613C772.805 399.577 773.043 400.693 773.062 401.963V403.662ZM771.861 402.119C771.861 400.407 771.474 399.066 770.699 398.096C769.924 397.126 768.863 396.641 767.516 396.641C766.194 396.641 765.139 397.129 764.352 398.105C763.57 399.076 763.18 400.433 763.18 402.178V403.662C763.18 405.348 763.57 406.686 764.352 407.676C765.133 408.659 766.194 409.15 767.535 409.15C768.896 409.15 769.957 408.665 770.719 407.695C771.48 406.719 771.861 405.361 771.861 403.623V402.119ZM786.354 408.311C785.937 408.903 785.283 409.365 784.391 409.697C783.505 410.029 782.512 410.195 781.412 410.195C780.299 410.195 779.309 409.928 778.443 409.395C777.577 408.861 776.907 408.105 776.432 407.129C775.956 406.152 775.715 405.033 775.709 403.77V401.973C775.709 400 776.207 398.444 777.203 397.305C778.199 396.159 779.537 395.586 781.217 395.586C782.682 395.586 783.86 395.96 784.752 396.709C785.644 397.451 786.174 398.477 786.344 399.785H785.143C784.967 398.743 784.54 397.956 783.863 397.422C783.193 396.882 782.314 396.611 781.227 396.611C779.898 396.611 778.847 397.083 778.072 398.027C777.298 398.971 776.91 400.303 776.91 402.021V403.701C776.91 404.782 777.092 405.739 777.457 406.572C777.828 407.399 778.355 408.04 779.039 408.496C779.729 408.952 780.52 409.18 781.412 409.18C782.447 409.18 783.336 409.017 784.078 408.691C784.56 408.477 784.918 408.226 785.152 407.939V404.268H781.334V403.252H786.354V408.311ZM797.438 406.016H790.982L789.518 410H788.258L793.639 395.781H794.781L800.162 410H798.912L797.438 406.016ZM791.354 404.99H797.057L794.205 397.246L791.354 404.99ZM812.848 410H811.646L803.473 397.832V410H802.262V395.781H803.473L811.656 407.959V395.781H812.848V410ZM831.588 408.311C831.171 408.903 830.517 409.365 829.625 409.697C828.74 410.029 827.747 410.195 826.646 410.195C825.533 410.195 824.544 409.928 823.678 409.395C822.812 408.861 822.141 408.105 821.666 407.129C821.191 406.152 820.95 405.033 820.943 403.77V401.973C820.943 400 821.441 398.444 822.438 397.305C823.434 396.159 824.771 395.586 826.451 395.586C827.916 395.586 829.094 395.96 829.986 396.709C830.878 397.451 831.409 398.477 831.578 399.785H830.377C830.201 398.743 829.775 397.956 829.098 397.422C828.427 396.882 827.548 396.611 826.461 396.611C825.133 396.611 824.081 397.083 823.307 398.027C822.532 398.971 822.145 400.303 822.145 402.021V403.701C822.145 404.782 822.327 405.739 822.691 406.572C823.062 407.399 823.59 408.04 824.273 408.496C824.964 408.952 825.755 409.18 826.646 409.18C827.682 409.18 828.57 409.017 829.312 408.691C829.794 408.477 830.152 408.226 830.387 407.939V404.268H826.568V403.252H831.588V408.311ZM845.504 403.662C845.504 404.971 845.276 406.12 844.82 407.109C844.371 408.099 843.727 408.861 842.887 409.395C842.047 409.928 841.077 410.195 839.977 410.195C838.316 410.195 836.975 409.603 835.953 408.418C834.931 407.227 834.42 405.622 834.42 403.604V402.139C834.42 400.843 834.648 399.697 835.104 398.701C835.566 397.699 836.217 396.93 837.057 396.396C837.896 395.856 838.863 395.586 839.957 395.586C841.051 395.586 842.014 395.85 842.848 396.377C843.688 396.904 844.335 397.65 844.791 398.613C845.247 399.577 845.484 400.693 845.504 401.963V403.662ZM844.303 402.119C844.303 400.407 843.915 399.066 843.141 398.096C842.366 397.126 841.305 396.641 839.957 396.641C838.635 396.641 837.581 397.129 836.793 398.105C836.012 399.076 835.621 400.433 835.621 402.178V403.662C835.621 405.348 836.012 406.686 836.793 407.676C837.574 408.659 838.635 409.15 839.977 409.15C841.337 409.15 842.398 408.665 843.16 407.695C843.922 406.719 844.303 405.361 844.303 403.623V402.119ZM856.383 403.184H849.732V408.984H857.379V410H848.531V395.781H857.33V396.807H849.732V402.168H856.383V403.184ZM867.965 406.504C867.965 405.716 867.688 405.094 867.135 404.639C866.581 404.176 865.569 403.74 864.098 403.33C862.626 402.913 861.552 402.461 860.875 401.973C859.911 401.283 859.43 400.378 859.43 399.258C859.43 398.171 859.876 397.288 860.768 396.611C861.666 395.928 862.812 395.586 864.205 395.586C865.149 395.586 865.992 395.768 866.734 396.133C867.483 396.497 868.062 397.005 868.473 397.656C868.883 398.307 869.088 399.033 869.088 399.834H867.877C867.877 398.864 867.545 398.086 866.881 397.5C866.217 396.908 865.325 396.611 864.205 396.611C863.118 396.611 862.252 396.855 861.607 397.344C860.963 397.826 860.641 398.457 860.641 399.238C860.641 399.961 860.93 400.55 861.51 401.006C862.089 401.462 863.017 401.865 864.293 402.217C865.569 402.562 866.536 402.923 867.193 403.301C867.851 403.672 868.346 404.118 868.678 404.639C869.01 405.16 869.176 405.775 869.176 406.484C869.176 407.604 868.727 408.503 867.828 409.18C866.936 409.857 865.758 410.195 864.293 410.195C863.29 410.195 862.369 410.016 861.529 409.658C860.696 409.3 860.061 408.799 859.625 408.154C859.195 407.51 858.98 406.771 858.98 405.938H860.182C860.182 406.94 860.556 407.731 861.305 408.311C862.053 408.89 863.049 409.18 864.293 409.18C865.4 409.18 866.288 408.936 866.959 408.447C867.63 407.959 867.965 407.311 867.965 406.504ZM887.174 410H885.963V403.184H877.838V410H876.637V395.781H877.838V402.168H885.963V395.781H887.174V410ZM898.648 403.184H891.998V408.984H899.645V410H890.797V395.781H899.596V396.807H891.998V402.168H898.648V403.184ZM907.496 404.082H903.365V410H902.154V395.781H906.773C908.29 395.781 909.475 396.149 910.328 396.885C911.181 397.62 911.607 398.649 911.607 399.971C911.607 400.882 911.34 401.686 910.807 402.383C910.273 403.079 909.557 403.561 908.658 403.828L912.213 409.873V410H910.934L907.496 404.082ZM903.365 403.057H907.047C908.056 403.057 908.867 402.77 909.479 402.197C910.09 401.624 910.396 400.882 910.396 399.971C910.396 398.968 910.077 398.19 909.439 397.637C908.801 397.083 907.906 396.807 906.754 396.807H903.365V403.057ZM922.73 403.184H916.08V408.984H923.727V410H914.879V395.781H923.678V396.807H916.08V402.168H922.73V403.184Z" fill="white"/>
<path d="M309 276H170V415H309V276Z" fill="white"/>
<path d="M183.205 285.035H179.035V289.205H183.205V285.035Z" fill="black"/>
<path d="M187.375 285.035H183.205V289.205H187.375V285.035Z" fill="black"/>
<path d="M191.545 285.035H187.375V289.205H191.545V285.035Z" fill="black"/>
<path d="M195.715 285.035H191.545V289.205H195.715V285.035Z" fill="black"/>
<path d="M199.885 285.035H195.715V289.205H199.885V285.035Z" fill="black"/>
<path d="M204.055 285.035H199.885V289.205H204.055V285.035Z" fill="black"/>
<path d="M208.225 285.035H204.055V289.205H208.225V285.035Z" fill="black"/>
<path d="M220.735 285.035H216.565V289.205H220.735V285.035Z" fill="black"/>
<path d="M237.415 285.035H233.245V289.205H237.415V285.035Z" fill="black"/>
<path d="M249.925 285.035H245.755V289.205H249.925V285.035Z" fill="black"/>
<path d="M254.095 285.035H249.925V289.205H254.095V285.035Z" fill="black"/>
<path d="M258.265 285.035H254.095V289.205H258.265V285.035Z" fill="black"/>
<path d="M262.435 285.035H258.265V289.205H262.435V285.035Z" fill="black"/>
<path d="M266.605 285.035H262.435V289.205H266.605V285.035Z" fill="black"/>
<path d="M274.945 285.035H270.775V289.205H274.945V285.035Z" fill="black"/>
<path d="M279.115 285.035H274.945V289.205H279.115V285.035Z" fill="black"/>
<path d="M283.285 285.035H279.115V289.205H283.285V285.035Z" fill="black"/>
<path d="M287.455 285.035H283.285V289.205H287.455V285.035Z" fill="black"/>
<path d="M291.625 285.035H287.455V289.205H291.625V285.035Z" fill="black"/>
<path d="M295.795 285.035H291.625V289.205H295.795V285.035Z" fill="black"/>
<path d="M299.965 285.035H295.795V289.205H299.965V285.035Z" fill="black"/>
<path d="M183.205 289.205H179.035V293.375H183.205V289.205Z" fill="black"/>
<path d="M208.225 289.205H204.055V293.375H208.225V289.205Z" fill="black"/>
<path d="M216.565 289.205H212.395V293.375H216.565V289.205Z" fill="black"/>
<path d="M220.735 289.205H216.565V293.375H220.735V289.205Z" fill="black"/>
<path d="M229.075 289.205H224.905V293.375H229.075V289.205Z" fill="black"/>
<path d="M233.245 289.205H229.075V293.375H233.245V289.205Z" fill="black"/>
<path d="M241.585 289.205H237.415V293.375H241.585V289.205Z" fill="black"/>
<path d="M245.755 289.205H241.585V293.375H245.755V289.205Z" fill="black"/>
<path d="M254.095 289.205H249.925V293.375H254.095V289.205Z" fill="black"/>
<path d="M266.605 289.205H262.435V293.375H266.605V289.205Z" fill="black"/>
<path d="M274.945 289.205H270.775V293.375H274.945V289.205Z" fill="black"/>
<path d="M299.965 289.205H295.795V293.375H299.965V289.205Z" fill="black"/>
<path d="M183.205 293.375H179.035V297.545H183.205V293.375Z" fill="black"/>
<path d="M191.545 293.375H187.375V297.545H191.545V293.375Z" fill="black"/>
<path d="M195.715 293.375H191.545V297.545H195.715V293.375Z" fill="black"/>
<path d="M199.885 293.375H195.715V297.545H199.885V293.375Z" fill="black"/>
<path d="M208.225 293.375H204.055V297.545H208.225V293.375Z" fill="black"/>
<path d="M220.735 293.375H216.565V297.545H220.735V293.375Z" fill="black"/>
<path d="M224.905 293.375H220.735V297.545H224.905V293.375Z" fill="black"/>
<path d="M229.075 293.375H224.905V297.545H229.075V293.375Z" fill="black"/>
<path d="M249.925 293.375H245.755V297.545H249.925V293.375Z" fill="black"/>
<path d="M262.435 293.375H258.265V297.545H262.435V293.375Z" fill="black"/>
<path d="M274.945 293.375H270.775V297.545H274.945V293.375Z" fill="black"/>
<path d="M283.285 293.375H279.115V297.545H283.285V293.375Z" fill="black"/>
<path d="M287.455 293.375H283.285V297.545H287.455V293.375Z" fill="black"/>
<path d="M291.625 293.375H287.455V297.545H291.625V293.375Z" fill="black"/>
<path d="M299.965 293.375H295.795V297.545H299.965V293.375Z" fill="black"/>
<path d="M183.205 297.545H179.035V301.715H183.205V297.545Z" fill="black"/>
<path d="M191.545 297.545H187.375V301.715H191.545V297.545Z" fill="black"/>
<path d="M195.715 297.545H191.545V301.715H195.715V297.545Z" fill="black"/>
<path d="M199.885 297.545H195.715V301.715H199.885V297.545Z" fill="black"/>
<path d="M208.225 297.545H204.055V301.715H208.225V297.545Z" fill="black"/>
<path d="M216.565 297.545H212.395V301.715H216.565V297.545Z" fill="black"/>
<path d="M220.735 297.545H216.565V301.715H220.735V297.545Z" fill="black"/>
<path d="M229.075 297.545H224.905V301.715H229.075V297.545Z" fill="black"/>
<path d="M237.415 297.545H233.245V301.715H237.415V297.545Z" fill="black"/>
<path d="M241.585 297.545H237.415V301.715H241.585V297.545Z" fill="black"/>
<path d="M245.755 297.545H241.585V301.715H245.755V297.545Z" fill="black"/>
<path d="M249.925 297.545H245.755V301.715H249.925V297.545Z" fill="black"/>
<path d="M254.095 297.545H249.925V301.715H254.095V297.545Z" fill="black"/>
<path d="M274.945 297.545H270.775V301.715H274.945V297.545Z" fill="black"/>
<path d="M283.285 297.545H279.115V301.715H283.285V297.545Z" fill="black"/>
<path d="M287.455 297.545H283.285V301.715H287.455V297.545Z" fill="black"/>
<path d="M291.625 297.545H287.455V301.715H291.625V297.545Z" fill="black"/>
<path d="M299.965 297.545H295.795V301.715H299.965V297.545Z" fill="black"/>
<path d="M183.205 301.715H179.035V305.885H183.205V301.715Z" fill="black"/>
<path d="M191.545 301.715H187.375V305.885H191.545V301.715Z" fill="black"/>
<path d="M195.715 301.715H191.545V305.885H195.715V301.715Z" fill="black"/>
<path d="M199.885 301.715H195.715V305.885H199.885V301.715Z" fill="black"/>
<path d="M208.225 301.715H204.055V305.885H208.225V301.715Z" fill="black"/>
<path d="M224.905 301.715H220.735V305.885H224.905V301.715Z" fill="black"/>
<path d="M233.245 301.715H229.075V305.885H233.245V301.715Z" fill="black"/>
<path d="M249.925 301.715H245.755V305.885H249.925V301.715Z" fill="black"/>
<path d="M254.095 301.715H249.925V305.885H254.095V301.715Z" fill="black"/>
<path d="M258.265 301.715H254.095V305.885H258.265V301.715Z" fill="black"/>
<path d="M262.435 301.715H258.265V305.885H262.435V301.715Z" fill="black"/>
<path d="M266.605 301.715H262.435V305.885H266.605V301.715Z" fill="black"/>
<path d="M274.945 301.715H270.775V305.885H274.945V301.715Z" fill="black"/>
<path d="M283.285 301.715H279.115V305.885H283.285V301.715Z" fill="black"/>
<path d="M287.455 301.715H283.285V305.885H287.455V301.715Z" fill="black"/>
<path d="M291.625 301.715H287.455V305.885H291.625V301.715Z" fill="black"/>
<path d="M299.965 301.715H295.795V305.885H299.965V301.715Z" fill="black"/>
<path d="M183.205 305.885H179.035V310.055H183.205V305.885Z" fill="black"/>
<path d="M208.225 305.885H204.055V310.055H208.225V305.885Z" fill="black"/>
<path d="M216.565 305.885H212.395V310.055H216.565V305.885Z" fill="black"/>
<path d="M224.905 305.885H220.735V310.055H224.905V305.885Z" fill="black"/>
<path d="M241.585 305.885H237.415V310.055H241.585V305.885Z" fill="black"/>
<path d="M245.755 305.885H241.585V310.055H245.755V305.885Z" fill="black"/>
<path d="M249.925 305.885H245.755V310.055H249.925V305.885Z" fill="black"/>
<path d="M274.945 305.885H270.775V310.055H274.945V305.885Z" fill="black"/>
<path d="M299.965 305.885H295.795V310.055H299.965V305.885Z" fill="black"/>
<path d="M183.205 310.055H179.035V314.225H183.205V310.055Z" fill="black"/>
<path d="M187.375 310.055H183.205V314.225H187.375V310.055Z" fill="black"/>
<path d="M191.545 310.055H187.375V314.225H191.545V310.055Z" fill="black"/>
<path d="M195.715 310.055H191.545V314.225H195.715V310.055Z" fill="black"/>
<path d="M199.885 310.055H195.715V314.225H199.885V310.055Z" fill="black"/>
<path d="M204.055 310.055H199.885V314.225H204.055V310.055Z" fill="black"/>
<path d="M208.225 310.055H204.055V314.225H208.225V310.055Z" fill="black"/>
<path d="M216.565 310.055H212.395V314.225H216.565V310.055Z" fill="black"/>
<path d="M224.905 310.055H220.735V314.225H224.905V310.055Z" fill="black"/>
<path d="M233.245 310.055H229.075V314.225H233.245V310.055Z" fill="black"/>
<path d="M241.585 310.055H237.415V314.225H241.585V310.055Z" fill="black"/>
<path d="M249.925 310.055H245.755V314.225H249.925V310.055Z" fill="black"/>
<path d="M258.265 310.055H254.095V314.225H258.265V310.055Z" fill="black"/>
<path d="M266.605 310.055H262.435V314.225H266.605V310.055Z" fill="black"/>
<path d="M274.945 310.055H270.775V314.225H274.945V310.055Z" fill="black"/>
<path d="M279.115 310.055H274.945V314.225H279.115V310.055Z" fill="black"/>
<path d="M283.285 310.055H279.115V314.225H283.285V310.055Z" fill="black"/>
<path d="M287.455 310.055H283.285V314.225H287.455V310.055Z" fill="black"/>
<path d="M291.625 310.055H287.455V314.225H291.625V310.055Z" fill="black"/>
<path d="M295.795 310.055H291.625V314.225H295.795V310.055Z" fill="black"/>
<path d="M299.965 310.055H295.795V314.225H299.965V310.055Z" fill="black"/>
<path d="M233.245 314.226H229.075V318.396H233.245V314.226Z" fill="black"/>
<path d="M241.585 314.226H237.415V318.396H241.585V314.226Z" fill="black"/>
<path d="M245.755 314.226H241.585V318.396H245.755V314.226Z" fill="black"/>
<path d="M262.435 314.226H258.265V318.396H262.435V314.226Z" fill="black"/>
<path d="M266.605 314.226H262.435V318.396H266.605V314.226Z" fill="black"/>
<path d="M183.205 318.395H179.035V322.565H183.205V318.395Z" fill="black"/>
<path d="M187.375 318.395H183.205V322.565H187.375V318.395Z" fill="black"/>
<path d="M191.545 318.395H187.375V322.565H191.545V318.395Z" fill="black"/>
<path d="M195.715 318.395H191.545V322.565H195.715V318.395Z" fill="black"/>
<path d="M199.885 318.395H195.715V322.565H199.885V318.395Z" fill="black"/>
<path d="M208.225 318.395H204.055V322.565H208.225V318.395Z" fill="black"/>
<path d="M212.395 318.395H208.225V322.565H212.395V318.395Z" fill="black"/>
<path d="M216.565 318.395H212.395V322.565H216.565V318.395Z" fill="black"/>
<path d="M220.735 318.395H216.565V322.565H220.735V318.395Z" fill="black"/>
<path d="M224.905 318.395H220.735V322.565H224.905V318.395Z" fill="black"/>
<path d="M233.245 318.395H229.075V322.565H233.245V318.395Z" fill="black"/>
<path d="M237.415 318.395H233.245V322.565H237.415V318.395Z" fill="black"/>
<path d="M241.585 318.395H237.415V322.565H241.585V318.395Z" fill="black"/>
<path d="M245.755 318.395H241.585V322.565H245.755V318.395Z" fill="black"/>
<path d="M254.095 318.395H249.925V322.565H254.095V318.395Z" fill="black"/>
<path d="M258.265 318.395H254.095V322.565H258.265V318.395Z" fill="black"/>
<path d="M262.435 318.395H258.265V322.565H262.435V318.395Z" fill="black"/>
<path d="M270.775 318.395H266.605V322.565H270.775V318.395Z" fill="black"/>
<path d="M279.115 318.395H274.945V322.565H279.115V318.395Z" fill="black"/>
<path d="M287.455 318.395H283.285V322.565H287.455V318.395Z" fill="black"/>
<path d="M295.795 318.395H291.625V322.565H295.795V318.395Z" fill="black"/>
<path d="M187.375 322.564H183.205V326.734H187.375V322.564Z" fill="black"/>
<path d="M199.885 322.564H195.715V326.734H199.885V322.564Z" fill="black"/>
<path d="M204.055 322.564H199.885V326.734H204.055V322.564Z" fill="black"/>
<path d="M220.735 322.564H216.565V326.734H220.735V322.564Z" fill="black"/>
<path d="M249.925 322.564H245.755V326.734H249.925V322.564Z" fill="black"/>
<path d="M254.095 322.564H249.925V326.734H254.095V322.564Z" fill="black"/>
<path d="M258.265 322.564H254.095V326.734H258.265V322.564Z" fill="black"/>
<path d="M262.435 322.564H258.265V326.734H262.435V322.564Z" fill="black"/>
<path d="M270.775 322.564H266.605V326.734H270.775V322.564Z" fill="black"/>
<path d="M274.945 322.564H270.775V326.734H274.945V322.564Z" fill="black"/>
<path d="M279.115 322.564H274.945V326.734H279.115V322.564Z" fill="black"/>
<path d="M283.285 322.564H279.115V326.734H283.285V322.564Z" fill="black"/>
<path d="M299.965 322.564H295.795V326.734H299.965V322.564Z" fill="black"/>
<path d="M191.545 326.735H187.375V330.905H191.545V326.735Z" fill="black"/>
<path d="M208.225 326.735H204.055V330.905H208.225V326.735Z" fill="black"/>
<path d="M220.735 326.735H216.565V330.905H220.735V326.735Z" fill="black"/>
<path d="M229.075 326.735H224.905V330.905H229.075V326.735Z" fill="black"/>
<path d="M233.245 326.735H229.075V330.905H233.245V326.735Z" fill="black"/>
<path d="M237.415 326.735H233.245V330.905H237.415V326.735Z" fill="black"/>
<path d="M245.755 326.735H241.585V330.905H245.755V326.735Z" fill="black"/>
<path d="M249.925 326.735H245.755V330.905H249.925V326.735Z" fill="black"/>
<path d="M254.095 326.735H249.925V330.905H254.095V326.735Z" fill="black"/>
<path d="M266.605 326.735H262.435V330.905H266.605V326.735Z" fill="black"/>
<path d="M183.205 330.904H179.035V335.074H183.205V330.904Z" fill="black"/>
<path d="M187.375 330.904H183.205V335.074H187.375V330.904Z" fill="black"/>
<path d="M191.545 330.904H187.375V335.074H191.545V330.904Z" fill="black"/>
<path d="M195.715 330.904H191.545V335.074H195.715V330.904Z" fill="black"/>
<path d="M216.565 330.904H212.395V335.074H216.565V330.904Z" fill="black"/>
<path d="M220.735 330.904H216.565V335.074H220.735V330.904Z" fill="black"/>
<path d="M224.905 330.904H220.735V335.074H224.905V330.904Z" fill="black"/>
<path d="M229.075 330.904H224.905V335.074H229.075V330.904Z" fill="black"/>
<path d="M249.925 330.904H245.755V335.074H249.925V330.904Z" fill="black"/>
<path d="M262.435 330.904H258.265V335.074H262.435V330.904Z" fill="black"/>
<path d="M270.775 330.904H266.605V335.074H270.775V330.904Z" fill="black"/>
<path d="M274.945 330.904H270.775V335.074H274.945V330.904Z" fill="black"/>
<path d="M279.115 330.904H274.945V335.074H279.115V330.904Z" fill="black"/>
<path d="M287.455 330.904H283.285V335.074H287.455V330.904Z" fill="black"/>
<path d="M295.795 330.904H291.625V335.074H295.795V330.904Z" fill="black"/>
<path d="M195.715 335.075H191.545V339.245H195.715V335.075Z" fill="black"/>
<path d="M204.055 335.075H199.885V339.245H204.055V335.075Z" fill="black"/>
<path d="M208.225 335.075H204.055V339.245H208.225V335.075Z" fill="black"/>
<path d="M216.565 335.075H212.395V339.245H216.565V335.075Z" fill="black"/>
<path d="M220.735 335.075H216.565V339.245H220.735V335.075Z" fill="black"/>
<path d="M229.075 335.075H224.905V339.245H229.075V335.075Z" fill="black"/>
<path d="M237.415 335.075H233.245V339.245H237.415V335.075Z" fill="black"/>
<path d="M241.585 335.075H237.415V339.245H241.585V335.075Z" fill="black"/>
<path d="M245.755 335.075H241.585V339.245H245.755V335.075Z" fill="black"/>
<path d="M249.925 335.075H245.755V339.245H249.925V335.075Z" fill="black"/>
<path d="M254.095 335.075H249.925V339.245H254.095V335.075Z" fill="black"/>
<path d="M262.435 335.075H258.265V339.245H262.435V335.075Z" fill="black"/>
<path d="M287.455 335.075H283.285V339.245H287.455V335.075Z" fill="black"/>
<path d="M291.625 335.075H287.455V339.245H291.625V335.075Z" fill="black"/>
<path d="M183.205 339.245H179.035V343.415H183.205V339.245Z" fill="black"/>
<path d="M191.545 339.245H187.375V343.415H191.545V339.245Z" fill="black"/>
<path d="M204.055 339.245H199.885V343.415H204.055V339.245Z" fill="black"/>
<path d="M220.735 339.245H216.565V343.415H220.735V339.245Z" fill="black"/>
<path d="M224.905 339.245H220.735V343.415H224.905V339.245Z" fill="black"/>
<path d="M233.245 339.245H229.075V343.415H233.245V339.245Z" fill="black"/>
<path d="M249.925 339.245H245.755V343.415H249.925V339.245Z" fill="black"/>
<path d="M254.095 339.245H249.925V343.415H254.095V339.245Z" fill="black"/>
<path d="M258.265 339.245H254.095V343.415H258.265V339.245Z" fill="black"/>
<path d="M262.435 339.245H258.265V343.415H262.435V339.245Z" fill="black"/>
<path d="M266.605 339.245H262.435V343.415H266.605V339.245Z" fill="black"/>
<path d="M270.775 339.245H266.605V343.415H270.775V339.245Z" fill="black"/>
<path d="M274.945 339.245H270.775V343.415H274.945V339.245Z" fill="black"/>
<path d="M283.285 339.245H279.115V343.415H283.285V339.245Z" fill="black"/>
<path d="M299.965 339.245H295.795V343.415H299.965V339.245Z" fill="black"/>
<path d="M183.205 343.415H179.035V347.585H183.205V343.415Z" fill="black"/>
<path d="M191.545 343.415H187.375V347.585H191.545V343.415Z" fill="black"/>
<path d="M199.885 343.415H195.715V347.585H199.885V343.415Z" fill="black"/>
<path d="M204.055 343.415H199.885V347.585H204.055V343.415Z" fill="black"/>
<path d="M208.225 343.415H204.055V347.585H208.225V343.415Z" fill="black"/>
<path d="M212.395 343.415H208.225V347.585H212.395V343.415Z" fill="black"/>
<path d="M216.565 343.415H212.395V347.585H216.565V343.415Z" fill="black"/>
<path d="M241.585 343.415H237.415V347.585H241.585V343.415Z" fill="black"/>
<path d="M245.755 343.415H241.585V347.585H245.755V343.415Z" fill="black"/>
<path d="M249.925 343.415H245.755V347.585H249.925V343.415Z" fill="black"/>
<path d="M266.605 343.415H262.435V347.585H266.605V343.415Z" fill="black"/>
<path d="M270.775 343.415H266.605V347.585H270.775V343.415Z" fill="black"/>
<path d="M279.115 343.415H274.945V347.585H279.115V343.415Z" fill="black"/>
<path d="M287.455 343.415H283.285V347.585H287.455V343.415Z" fill="black"/>
<path d="M291.625 343.415H287.455V347.585H291.625V343.415Z" fill="black"/>
<path d="M183.205 347.585H179.035V351.755H183.205V347.585Z" fill="black"/>
<path d="M187.375 347.585H183.205V351.755H187.375V347.585Z" fill="black"/>
<path d="M191.545 347.585H187.375V351.755H191.545V347.585Z" fill="black"/>
<path d="M212.395 347.585H208.225V351.755H212.395V347.585Z" fill="black"/>
<path d="M216.565 347.585H212.395V351.755H216.565V347.585Z" fill="black"/>
<path d="M224.905 347.585H220.735V351.755H224.905V347.585Z" fill="black"/>
<path d="M233.245 347.585H229.075V351.755H233.245V347.585Z" fill="black"/>
<path d="M241.585 347.585H237.415V351.755H241.585V347.585Z" fill="black"/>
<path d="M258.265 347.585H254.095V351.755H258.265V347.585Z" fill="black"/>
<path d="M262.435 347.585H258.265V351.755H262.435V347.585Z" fill="black"/>
<path d="M266.605 347.585H262.435V351.755H266.605V347.585Z" fill="black"/>
<path d="M279.115 347.585H274.945V351.755H279.115V347.585Z" fill="black"/>
<path d="M283.285 347.585H279.115V351.755H283.285V347.585Z" fill="black"/>
<path d="M295.795 347.585H291.625V351.755H295.795V347.585Z" fill="black"/>
<path d="M183.205 351.755H179.035V355.925H183.205V351.755Z" fill="black"/>
<path d="M191.545 351.755H187.375V355.925H191.545V351.755Z" fill="black"/>
<path d="M195.715 351.755H191.545V355.925H195.715V351.755Z" fill="black"/>
<path d="M199.885 351.755H195.715V355.925H199.885V351.755Z" fill="black"/>
<path d="M204.055 351.755H199.885V355.925H204.055V351.755Z" fill="black"/>
<path d="M208.225 351.755H204.055V355.925H208.225V351.755Z" fill="black"/>
<path d="M212.395 351.755H208.225V355.925H212.395V351.755Z" fill="black"/>
<path d="M220.735 351.755H216.565V355.925H220.735V351.755Z" fill="black"/>
<path d="M224.905 351.755H220.735V355.925H224.905V351.755Z" fill="black"/>
<path d="M233.245 351.755H229.075V355.925H233.245V351.755Z" fill="black"/>
<path d="M237.415 351.755H233.245V355.925H237.415V351.755Z" fill="black"/>
<path d="M241.585 351.755H237.415V355.925H241.585V351.755Z" fill="black"/>
<path d="M245.755 351.755H241.585V355.925H245.755V351.755Z" fill="black"/>
<path d="M249.925 351.755H245.755V355.925H249.925V351.755Z" fill="black"/>
<path d="M254.095 351.755H249.925V355.925H254.095V351.755Z" fill="black"/>
<path d="M262.435 351.755H258.265V355.925H262.435V351.755Z" fill="black"/>
<path d="M279.115 351.755H274.945V355.925H279.115V351.755Z" fill="black"/>
<path d="M287.455 351.755H283.285V355.925H287.455V351.755Z" fill="black"/>
<path d="M291.625 351.755H287.455V355.925H291.625V351.755Z" fill="black"/>
<path d="M183.205 355.925H179.035V360.095H183.205V355.925Z" fill="black"/>
<path d="M187.375 355.925H183.205V360.095H187.375V355.925Z" fill="black"/>
<path d="M199.885 355.925H195.715V360.095H199.885V355.925Z" fill="black"/>
<path d="M216.565 355.925H212.395V360.095H216.565V355.925Z" fill="black"/>
<path d="M237.415 355.925H233.245V360.095H237.415V355.925Z" fill="black"/>
<path d="M249.925 355.925H245.755V360.095H249.925V355.925Z" fill="black"/>
<path d="M254.095 355.925H249.925V360.095H254.095V355.925Z" fill="black"/>
<path d="M258.265 355.925H254.095V360.095H258.265V355.925Z" fill="black"/>
<path d="M262.435 355.925H258.265V360.095H262.435V355.925Z" fill="black"/>
<path d="M266.605 355.925H262.435V360.095H266.605V355.925Z" fill="black"/>
<path d="M270.775 355.925H266.605V360.095H270.775V355.925Z" fill="black"/>
<path d="M274.945 355.925H270.775V360.095H274.945V355.925Z" fill="black"/>
<path d="M279.115 355.925H274.945V360.095H279.115V355.925Z" fill="black"/>
<path d="M283.285 355.925H279.115V360.095H283.285V355.925Z" fill="black"/>
<path d="M291.625 355.925H287.455V360.095H291.625V355.925Z" fill="black"/>
<path d="M299.965 355.925H295.795V360.095H299.965V355.925Z" fill="black"/>
<path d="M183.205 360.096H179.035V364.266H183.205V360.096Z" fill="black"/>
<path d="M191.545 360.096H187.375V364.266H191.545V360.096Z" fill="black"/>
<path d="M199.885 360.096H195.715V364.266H199.885V360.096Z" fill="black"/>
<path d="M204.055 360.096H199.885V364.266H204.055V360.096Z" fill="black"/>
<path d="M208.225 360.096H204.055V364.266H208.225V360.096Z" fill="black"/>
<path d="M224.905 360.096H220.735V364.266H224.905V360.096Z" fill="black"/>
<path d="M229.075 360.096H224.905V364.266H229.075V360.096Z" fill="black"/>
<path d="M233.245 360.096H229.075V364.266H233.245V360.096Z" fill="black"/>
<path d="M241.585 360.096H237.415V364.266H241.585V360.096Z" fill="black"/>
<path d="M245.755 360.096H241.585V364.266H245.755V360.096Z" fill="black"/>
<path d="M249.925 360.096H245.755V364.266H249.925V360.096Z" fill="black"/>
<path d="M258.265 360.096H254.095V364.266H258.265V360.096Z" fill="black"/>
<path d="M266.605 360.096H262.435V364.266H266.605V360.096Z" fill="black"/>
<path d="M270.775 360.096H266.605V364.266H270.775V360.096Z" fill="black"/>
<path d="M279.115 360.096H274.945V364.266H279.115V360.096Z" fill="black"/>
<path d="M291.625 360.096H287.455V364.266H291.625V360.096Z" fill="black"/>
<path d="M183.205 364.265H179.035V368.435H183.205V364.265Z" fill="black"/>
<path d="M191.545 364.265H187.375V368.435H191.545V364.265Z" fill="black"/>
<path d="M199.885 364.265H195.715V368.435H199.885V364.265Z" fill="black"/>
<path d="M229.075 364.265H224.905V368.435H229.075V364.265Z" fill="black"/>
<path d="M245.755 364.265H241.585V368.435H245.755V364.265Z" fill="black"/>
<path d="M262.435 364.265H258.265V368.435H262.435V364.265Z" fill="black"/>
<path d="M266.605 364.265H262.435V368.435H266.605V364.265Z" fill="black"/>
<path d="M274.945 364.265H270.775V368.435H274.945V364.265Z" fill="black"/>
<path d="M279.115 364.265H274.945V368.435H279.115V364.265Z" fill="black"/>
<path d="M283.285 364.265H279.115V368.435H283.285V364.265Z" fill="black"/>
<path d="M295.795 364.265H291.625V368.435H295.795V364.265Z" fill="black"/>
<path d="M183.205 368.436H179.035V372.606H183.205V368.436Z" fill="black"/>
<path d="M191.545 368.436H187.375V372.606H191.545V368.436Z" fill="black"/>
<path d="M199.885 368.436H195.715V372.606H199.885V368.436Z" fill="black"/>
<path d="M208.225 368.436H204.055V372.606H208.225V368.436Z" fill="black"/>
<path d="M212.395 368.436H208.225V372.606H212.395V368.436Z" fill="black"/>
<path d="M220.735 368.436H216.565V372.606H220.735V368.436Z" fill="black"/>
<path d="M224.905 368.436H220.735V372.606H224.905V368.436Z" fill="black"/>
<path d="M229.075 368.436H224.905V372.606H229.075V368.436Z" fill="black"/>
<path d="M237.415 368.436H233.245V372.606H237.415V368.436Z" fill="black"/>
<path d="M241.585 368.436H237.415V372.606H241.585V368.436Z" fill="black"/>
<path d="M245.755 368.436H241.585V372.606H245.755V368.436Z" fill="black"/>
<path d="M254.095 368.436H249.925V372.606H254.095V368.436Z" fill="black"/>
<path d="M262.435 368.436H258.265V372.606H262.435V368.436Z" fill="black"/>
<path d="M266.605 368.436H262.435V372.606H266.605V368.436Z" fill="black"/>
<path d="M270.775 368.436H266.605V372.606H270.775V368.436Z" fill="black"/>
<path d="M274.945 368.436H270.775V372.606H274.945V368.436Z" fill="black"/>
<path d="M279.115 368.436H274.945V372.606H279.115V368.436Z" fill="black"/>
<path d="M283.285 368.436H279.115V372.606H283.285V368.436Z" fill="black"/>
<path d="M291.625 368.436H287.455V372.606H291.625V368.436Z" fill="black"/>
<path d="M295.795 368.436H291.625V372.606H295.795V368.436Z" fill="black"/>
<path d="M299.965 368.436H295.795V372.606H299.965V368.436Z" fill="black"/>
<path d="M216.565 372.605H212.395V376.775H216.565V372.605Z" fill="black"/>
<path d="M220.735 372.605H216.565V376.775H220.735V372.605Z" fill="black"/>
<path d="M233.245 372.605H229.075V376.775H233.245V372.605Z" fill="black"/>
<path d="M237.415 372.605H233.245V376.775H237.415V372.605Z" fill="black"/>
<path d="M249.925 372.605H245.755V376.775H249.925V372.605Z" fill="black"/>
<path d="M254.095 372.605H249.925V376.775H254.095V372.605Z" fill="black"/>
<path d="M258.265 372.605H254.095V376.775H258.265V372.605Z" fill="black"/>
<path d="M266.605 372.605H262.435V376.775H266.605V372.605Z" fill="black"/>
<path d="M283.285 372.605H279.115V376.775H283.285V372.605Z" fill="black"/>
<path d="M287.455 372.605H283.285V376.775H287.455V372.605Z" fill="black"/>
<path d="M291.625 372.605H287.455V376.775H291.625V372.605Z" fill="black"/>
<path d="M295.795 372.605H291.625V376.775H295.795V372.605Z" fill="black"/>
<path d="M299.965 372.605H295.795V376.775H299.965V372.605Z" fill="black"/>
<path d="M183.205 376.774H179.035V380.944H183.205V376.774Z" fill="black"/>
<path d="M187.375 376.774H183.205V380.944H187.375V376.774Z" fill="black"/>
<path d="M191.545 376.774H187.375V380.944H191.545V376.774Z" fill="black"/>
<path d="M195.715 376.774H191.545V380.944H195.715V376.774Z" fill="black"/>
<path d="M199.885 376.774H195.715V380.944H199.885V376.774Z" fill="black"/>
<path d="M204.055 376.774H199.885V380.944H204.055V376.774Z" fill="black"/>
<path d="M208.225 376.774H204.055V380.944H208.225V376.774Z" fill="black"/>
<path d="M216.565 376.774H212.395V380.944H216.565V376.774Z" fill="black"/>
<path d="M220.735 376.774H216.565V380.944H220.735V376.774Z" fill="black"/>
<path d="M245.755 376.774H241.585V380.944H245.755V376.774Z" fill="black"/>
<path d="M249.925 376.774H245.755V380.944H249.925V376.774Z" fill="black"/>
<path d="M254.095 376.774H249.925V380.944H254.095V376.774Z" fill="black"/>
<path d="M258.265 376.774H254.095V380.944H258.265V376.774Z" fill="black"/>
<path d="M262.435 376.774H258.265V380.944H262.435V376.774Z" fill="black"/>
<path d="M266.605 376.774H262.435V380.944H266.605V376.774Z" fill="black"/>
<path d="M274.945 376.774H270.775V380.944H274.945V376.774Z" fill="black"/>
<path d="M283.285 376.774H279.115V380.944H283.285V376.774Z" fill="black"/>
<path d="M287.455 376.774H283.285V380.944H287.455V376.774Z" fill="black"/>
<path d="M291.625 376.774H287.455V380.944H291.625V376.774Z" fill="black"/>
<path d="M183.205 380.945H179.035V385.115H183.205V380.945Z" fill="black"/>
<path d="M208.225 380.945H204.055V385.115H208.225V380.945Z" fill="black"/>
<path d="M220.735 380.945H216.565V385.115H220.735V380.945Z" fill="black"/>
<path d="M224.905 380.945H220.735V385.115H224.905V380.945Z" fill="black"/>
<path d="M233.245 380.945H229.075V385.115H233.245V380.945Z" fill="black"/>
<path d="M241.585 380.945H237.415V385.115H241.585V380.945Z" fill="black"/>
<path d="M245.755 380.945H241.585V385.115H245.755V380.945Z" fill="black"/>
<path d="M249.925 380.945H245.755V385.115H249.925V380.945Z" fill="black"/>
<path d="M262.435 380.945H258.265V385.115H262.435V380.945Z" fill="black"/>
<path d="M266.605 380.945H262.435V385.115H266.605V380.945Z" fill="black"/>
<path d="M283.285 380.945H279.115V385.115H283.285V380.945Z" fill="black"/>
<path d="M299.965 380.945H295.795V385.115H299.965V380.945Z" fill="black"/>
<path d="M183.205 385.115H179.035V389.285H183.205V385.115Z" fill="black"/>
<path d="M191.545 385.115H187.375V389.285H191.545V385.115Z" fill="black"/>
<path d="M195.715 385.115H191.545V389.285H195.715V385.115Z" fill="black"/>
<path d="M199.885 385.115H195.715V389.285H199.885V385.115Z" fill="black"/>
<path d="M208.225 385.115H204.055V389.285H208.225V385.115Z" fill="black"/>
<path d="M216.565 385.115H212.395V389.285H216.565V385.115Z" fill="black"/>
<path d="M220.735 385.115H216.565V389.285H220.735V385.115Z" fill="black"/>
<path d="M224.905 385.115H220.735V389.285H224.905V385.115Z" fill="black"/>
<path d="M233.245 385.115H229.075V389.285H233.245V385.115Z" fill="black"/>
<path d="M237.415 385.115H233.245V389.285H237.415V385.115Z" fill="black"/>
<path d="M254.095 385.115H249.925V389.285H254.095V385.115Z" fill="black"/>
<path d="M266.605 385.115H262.435V389.285H266.605V385.115Z" fill="black"/>
<path d="M270.775 385.115H266.605V389.285H270.775V385.115Z" fill="black"/>
<path d="M274.945 385.115H270.775V389.285H274.945V385.115Z" fill="black"/>
<path d="M279.115 385.115H274.945V389.285H279.115V385.115Z" fill="black"/>
<path d="M283.285 385.115H279.115V389.285H283.285V385.115Z" fill="black"/>
<path d="M291.625 385.115H287.455V389.285H291.625V385.115Z" fill="black"/>
<path d="M295.795 385.115H291.625V389.285H295.795V385.115Z" fill="black"/>
<path d="M299.965 385.115H295.795V389.285H299.965V385.115Z" fill="black"/>
<path d="M183.205 389.285H179.035V393.455H183.205V389.285Z" fill="black"/>
<path d="M191.545 389.285H187.375V393.455H191.545V389.285Z" fill="black"/>
<path d="M195.715 389.285H191.545V393.455H195.715V389.285Z" fill="black"/>
<path d="M199.885 389.285H195.715V393.455H199.885V389.285Z" fill="black"/>
<path d="M208.225 389.285H204.055V393.455H208.225V389.285Z" fill="black"/>
<path d="M216.565 389.285H212.395V393.455H216.565V389.285Z" fill="black"/>
<path d="M237.415 389.285H233.245V393.455H237.415V389.285Z" fill="black"/>
<path d="M249.925 389.285H245.755V393.455H249.925V389.285Z" fill="black"/>
<path d="M258.265 389.285H254.095V393.455H258.265V389.285Z" fill="black"/>
<path d="M266.605 389.285H262.435V393.455H266.605V389.285Z" fill="black"/>
<path d="M279.115 389.285H274.945V393.455H279.115V389.285Z" fill="black"/>
<path d="M287.455 389.285H283.285V393.455H287.455V389.285Z" fill="black"/>
<path d="M291.625 389.285H287.455V393.455H291.625V389.285Z" fill="black"/>
<path d="M295.795 389.285H291.625V393.455H295.795V389.285Z" fill="black"/>
<path d="M299.965 389.285H295.795V393.455H299.965V389.285Z" fill="black"/>
<path d="M183.205 393.455H179.035V397.625H183.205V393.455Z" fill="black"/>
<path d="M191.545 393.455H187.375V397.625H191.545V393.455Z" fill="black"/>
<path d="M195.715 393.455H191.545V397.625H195.715V393.455Z" fill="black"/>
<path d="M199.885 393.455H195.715V397.625H199.885V393.455Z" fill="black"/>
<path d="M208.225 393.455H204.055V397.625H208.225V393.455Z" fill="black"/>
<path d="M216.565 393.455H212.395V397.625H216.565V393.455Z" fill="black"/>
<path d="M220.735 393.455H216.565V397.625H220.735V393.455Z" fill="black"/>
<path d="M224.905 393.455H220.735V397.625H224.905V393.455Z" fill="black"/>
<path d="M229.075 393.455H224.905V397.625H229.075V393.455Z" fill="black"/>
<path d="M233.245 393.455H229.075V397.625H233.245V393.455Z" fill="black"/>
<path d="M237.415 393.455H233.245V397.625H237.415V393.455Z" fill="black"/>
<path d="M241.585 393.455H237.415V397.625H241.585V393.455Z" fill="black"/>
<path d="M245.755 393.455H241.585V397.625H245.755V393.455Z" fill="black"/>
<path d="M258.265 393.455H254.095V397.625H258.265V393.455Z" fill="black"/>
<path d="M270.775 393.455H266.605V397.625H270.775V393.455Z" fill="black"/>
<path d="M274.945 393.455H270.775V397.625H274.945V393.455Z" fill="black"/>
<path d="M279.115 393.455H274.945V397.625H279.115V393.455Z" fill="black"/>
<path d="M283.285 393.455H279.115V397.625H283.285V393.455Z" fill="black"/>
<path d="M287.455 393.455H283.285V397.625H287.455V393.455Z" fill="black"/>
<path d="M291.625 393.455H287.455V397.625H291.625V393.455Z" fill="black"/>
<path d="M295.795 393.455H291.625V397.625H295.795V393.455Z" fill="black"/>
<path d="M183.205 397.625H179.035V401.795H183.205V397.625Z" fill="black"/>
<path d="M208.225 397.625H204.055V401.795H208.225V397.625Z" fill="black"/>
<path d="M216.565 397.625H212.395V401.795H216.565V397.625Z" fill="black"/>
<path d="M220.735 397.625H216.565V401.795H220.735V397.625Z" fill="black"/>
<path d="M229.075 397.625H224.905V401.795H229.075V397.625Z" fill="black"/>
<path d="M241.585 397.625H237.415V401.795H241.585V397.625Z" fill="black"/>
<path d="M249.925 397.625H245.755V401.795H249.925V397.625Z" fill="black"/>
<path d="M266.605 397.625H262.435V401.795H266.605V397.625Z" fill="black"/>
<path d="M279.115 397.625H274.945V401.795H279.115V397.625Z" fill="black"/>
<path d="M287.455 397.625H283.285V401.795H287.455V397.625Z" fill="black"/>
<path d="M295.795 397.625H291.625V401.795H295.795V397.625Z" fill="black"/>
<path d="M183.205 401.795H179.035V405.965H183.205V401.795Z" fill="black"/>
<path d="M187.375 401.795H183.205V405.965H187.375V401.795Z" fill="black"/>
<path d="M191.545 401.795H187.375V405.965H191.545V401.795Z" fill="black"/>
<path d="M195.715 401.795H191.545V405.965H195.715V401.795Z" fill="black"/>
<path d="M199.885 401.795H195.715V405.965H199.885V401.795Z" fill="black"/>
<path d="M204.055 401.795H199.885V405.965H204.055V401.795Z" fill="black"/>
<path d="M208.225 401.795H204.055V405.965H208.225V401.795Z" fill="black"/>
<path d="M216.565 401.795H212.395V405.965H216.565V401.795Z" fill="black"/>
<path d="M220.735 401.795H216.565V405.965H220.735V401.795Z" fill="black"/>
<path d="M224.905 401.795H220.735V405.965H224.905V401.795Z" fill="black"/>
<path d="M229.075 401.795H224.905V405.965H229.075V401.795Z" fill="black"/>
<path d="M233.245 401.795H229.075V405.965H233.245V401.795Z" fill="black"/>
<path d="M254.095 401.795H249.925V405.965H254.095V401.795Z" fill="black"/>
<path d="M258.265 401.795H254.095V405.965H258.265V401.795Z" fill="black"/>
<path d="M262.435 401.795H258.265V405.965H262.435V401.795Z" fill="black"/>
<path d="M279.115 401.795H274.945V405.965H279.115V401.795Z" fill="black"/>
<path d="M283.285 401.795H279.115V405.965H283.285V401.795Z" fill="black"/>
<path d="M287.455 401.795H283.285V405.965H287.455V401.795Z" fill="black"/>
<path d="M291.625 401.795H287.455V405.965H291.625V401.795Z" fill="black"/>
<path d="M84.0659 538.96L84.2856 540.096L84.5786 538.899L87.7524 528.792H88.9976L92.1348 538.814L92.4766 540.206L92.7573 538.924L95.4673 528.792H96.981L93.1357 542H91.8906L88.4971 531.526L88.3384 530.806L88.1797 531.539L84.8472 542H83.6021L79.769 528.792H81.2705L84.0659 538.96ZM102.914 538.96L103.133 540.096L103.426 538.899L106.6 528.792H107.845L110.982 538.814L111.324 540.206L111.605 538.924L114.315 528.792H115.829L111.983 542H110.738L107.345 531.526L107.186 530.806L107.027 531.539L103.695 542H102.45L98.6167 528.792H100.118L102.914 538.96ZM121.761 538.96L121.981 540.096L122.274 538.899L125.448 528.792H126.693L129.83 538.814L130.172 540.206L130.453 538.924L133.163 528.792H134.676L130.831 542H129.586L126.192 531.526L126.034 530.806L125.875 531.539L122.542 542H121.297L117.464 528.792H118.966L121.761 538.96ZM135.799 541.121C135.799 540.836 135.889 540.596 136.068 540.401C136.255 540.197 136.511 540.096 136.837 540.096C137.162 540.096 137.419 540.197 137.606 540.401C137.793 540.596 137.887 540.836 137.887 541.121C137.887 541.406 137.793 541.642 137.606 541.829C137.419 542.008 137.162 542.098 136.837 542.098C136.511 542.098 136.255 542.008 136.068 541.829C135.889 541.642 135.799 541.406 135.799 541.121ZM146.102 539.9L149.959 528.792H151.534L145.895 544.246L145.602 544.93C144.877 546.533 143.758 547.334 142.245 547.334C141.895 547.334 141.52 547.278 141.122 547.164L141.109 545.955L141.866 546.028C142.582 546.028 143.16 545.849 143.6 545.491C144.047 545.141 144.426 544.535 144.735 543.672L145.382 541.89L140.401 528.792H142L146.102 539.9ZM152.804 535.201C152.804 533.931 153.048 532.788 153.536 531.771C154.033 530.753 154.728 529.964 155.624 529.402C156.527 528.833 157.548 528.548 158.688 528.548C160.445 528.548 161.869 529.166 162.96 530.403C164.05 531.632 164.596 533.264 164.596 535.298V535.604C164.596 536.881 164.347 538.033 163.851 539.058C163.363 540.075 162.671 540.861 161.776 541.414C160.881 541.967 159.859 542.244 158.712 542.244C156.962 542.244 155.538 541.63 154.439 540.401C153.349 539.164 152.804 537.528 152.804 535.494V535.201ZM154.269 535.604C154.269 537.182 154.675 538.48 155.489 539.498C156.311 540.507 157.385 541.011 158.712 541.011C160.03 541.011 161.096 540.507 161.91 539.498C162.732 538.48 163.143 537.142 163.143 535.481V535.201C163.143 534.192 162.956 533.268 162.582 532.43C162.207 531.591 161.682 530.944 161.007 530.489C160.331 530.025 159.558 529.793 158.688 529.793C157.385 529.793 156.323 530.306 155.501 531.331C154.68 532.348 154.269 533.683 154.269 535.335V535.604ZM176.119 540.328C175.24 541.605 173.836 542.244 171.908 542.244C170.5 542.244 169.43 541.837 168.697 541.023C167.965 540.201 167.59 538.989 167.574 537.386V528.792H169.027V537.203C169.027 539.717 170.044 540.975 172.079 540.975C174.194 540.975 175.533 540.1 176.095 538.35V528.792H177.56V542H176.144L176.119 540.328ZM187.472 530.037C187.162 529.98 186.833 529.952 186.483 529.952C185.571 529.952 184.798 530.208 184.164 530.721C183.537 531.225 183.089 531.962 182.821 532.93V542H181.368V528.792H182.796L182.821 530.892C183.594 529.329 184.835 528.548 186.544 528.548C186.951 528.548 187.272 528.601 187.508 528.707L187.472 530.037ZM193.172 538.96L193.392 540.096L193.685 538.899L196.859 528.792H198.104L201.241 538.814L201.583 540.206L201.864 538.924L204.574 528.792H206.087L202.242 542H200.997L197.604 531.526L197.445 530.806L197.286 531.539L193.954 542H192.708L188.875 528.792H190.377L193.172 538.96ZM213.973 542.244C212.85 542.244 211.833 541.967 210.921 541.414C210.018 540.861 209.314 540.092 208.81 539.107C208.305 538.114 208.053 537.003 208.053 535.774V535.25C208.053 533.98 208.297 532.837 208.785 531.819C209.282 530.802 209.969 530.005 210.848 529.427C211.727 528.841 212.679 528.548 213.705 528.548C215.308 528.548 216.577 529.097 217.513 530.196C218.457 531.286 218.929 532.78 218.929 534.676V535.494H209.505V535.774C209.505 537.272 209.933 538.521 210.787 539.522C211.65 540.515 212.732 541.011 214.034 541.011C214.815 541.011 215.503 540.869 216.097 540.584C216.699 540.299 217.245 539.843 217.733 539.217L218.648 539.913C217.574 541.467 216.016 542.244 213.973 542.244ZM213.705 529.793C212.606 529.793 211.678 530.196 210.921 531.001C210.173 531.807 209.717 532.889 209.554 534.249H217.477V534.09C217.436 532.82 217.074 531.787 216.39 530.989C215.707 530.192 214.811 529.793 213.705 529.793ZM232.406 535.53C232.406 537.589 231.95 539.225 231.039 540.438C230.127 541.642 228.902 542.244 227.364 542.244C225.525 542.244 224.133 541.561 223.189 540.193L223.128 542H221.761V523.25H223.214V530.708C224.142 529.268 225.517 528.548 227.34 528.548C228.902 528.548 230.135 529.146 231.039 530.342C231.95 531.53 232.406 533.187 232.406 535.311V535.53ZM230.941 535.274C230.941 533.532 230.603 532.19 229.928 531.246C229.252 530.293 228.3 529.817 227.071 529.817C226.135 529.817 225.342 530.049 224.691 530.513C224.04 530.969 223.548 531.64 223.214 532.527V538.484C223.946 540.145 225.24 540.975 227.096 540.975C228.3 540.975 229.24 540.499 229.916 539.546C230.599 538.594 230.941 537.17 230.941 535.274ZM243.551 538.643C243.551 537.919 243.258 537.337 242.672 536.897C242.094 536.458 241.219 536.116 240.047 535.872C238.875 535.62 237.964 535.335 237.313 535.018C236.67 534.692 236.19 534.297 235.873 533.833C235.563 533.37 235.409 532.808 235.409 532.149C235.409 531.107 235.844 530.249 236.715 529.573C237.586 528.89 238.701 528.548 240.06 528.548C241.533 528.548 242.713 528.914 243.6 529.646C244.495 530.371 244.942 531.319 244.942 532.491H243.478C243.478 531.718 243.152 531.075 242.501 530.562C241.858 530.049 241.044 529.793 240.06 529.793C239.099 529.793 238.326 530.009 237.74 530.44C237.162 530.863 236.874 531.417 236.874 532.1C236.874 532.759 237.114 533.272 237.594 533.638C238.082 533.996 238.965 534.326 240.243 534.627C241.528 534.928 242.489 535.25 243.124 535.591C243.766 535.933 244.243 536.344 244.552 536.824C244.861 537.304 245.016 537.886 245.016 538.57C245.016 539.685 244.564 540.576 243.661 541.243C242.765 541.91 241.594 542.244 240.145 542.244C238.607 542.244 237.358 541.874 236.397 541.133C235.445 540.385 234.969 539.441 234.969 538.301H236.434C236.491 539.156 236.849 539.823 237.508 540.303C238.176 540.775 239.055 541.011 240.145 541.011C241.162 541.011 241.984 540.787 242.611 540.34C243.237 539.892 243.551 539.327 243.551 538.643ZM249.947 542H248.482V528.792H249.947V542ZM248.226 524.971C248.226 524.694 248.316 524.463 248.495 524.275C248.674 524.08 248.918 523.982 249.227 523.982C249.536 523.982 249.78 524.08 249.959 524.275C250.147 524.463 250.24 524.694 250.24 524.971C250.24 525.248 250.147 525.48 249.959 525.667C249.78 525.854 249.536 525.948 249.227 525.948C248.918 525.948 248.674 525.854 248.495 525.667C248.316 525.48 248.226 525.248 248.226 524.971ZM256.197 525.411V528.792H258.932V529.988H256.197V538.79C256.197 539.522 256.327 540.067 256.588 540.425C256.856 540.783 257.3 540.962 257.918 540.962C258.163 540.962 258.557 540.922 259.103 540.84L259.164 542.037C258.781 542.175 258.26 542.244 257.601 542.244C256.6 542.244 255.872 541.955 255.416 541.377C254.96 540.792 254.732 539.933 254.732 538.802V529.988H252.303V528.792H254.732V525.411H256.197ZM267.074 542.244C265.951 542.244 264.933 541.967 264.022 541.414C263.119 540.861 262.415 540.092 261.91 539.107C261.406 538.114 261.153 537.003 261.153 535.774V535.25C261.153 533.98 261.397 532.837 261.886 531.819C262.382 530.802 263.07 530.005 263.949 529.427C264.828 528.841 265.78 528.548 266.805 528.548C268.408 528.548 269.678 529.097 270.614 530.196C271.558 531.286 272.03 532.78 272.03 534.676V535.494H262.606V535.774C262.606 537.272 263.033 538.521 263.888 539.522C264.75 540.515 265.833 541.011 267.135 541.011C267.916 541.011 268.604 540.869 269.198 540.584C269.8 540.299 270.345 539.843 270.833 539.217L271.749 539.913C270.675 541.467 269.116 542.244 267.074 542.244ZM266.805 529.793C265.707 529.793 264.779 530.196 264.022 531.001C263.273 531.807 262.818 532.889 262.655 534.249H270.577V534.09C270.536 532.82 270.174 531.787 269.491 530.989C268.807 530.192 267.912 529.793 266.805 529.793ZM276.266 528.792L276.314 531.05C276.811 530.236 277.429 529.618 278.17 529.195C278.91 528.764 279.728 528.548 280.624 528.548C282.04 528.548 283.093 528.947 283.785 529.744C284.477 530.542 284.827 531.738 284.835 533.333V542H283.382V533.321C283.374 532.141 283.122 531.262 282.625 530.684C282.137 530.106 281.352 529.817 280.27 529.817C279.366 529.817 278.565 530.102 277.865 530.672C277.173 531.233 276.66 531.994 276.327 532.955V542H274.874V528.792H276.266ZM296.957 542C296.81 541.585 296.716 540.971 296.676 540.157C296.163 540.824 295.508 541.341 294.71 541.707C293.921 542.065 293.083 542.244 292.196 542.244C290.926 542.244 289.897 541.89 289.107 541.182C288.326 540.474 287.936 539.579 287.936 538.497C287.936 537.211 288.469 536.194 289.535 535.445C290.609 534.696 292.102 534.322 294.015 534.322H296.664V532.82C296.664 531.876 296.371 531.136 295.785 530.599C295.207 530.053 294.361 529.781 293.246 529.781C292.228 529.781 291.386 530.041 290.719 530.562C290.051 531.083 289.718 531.709 289.718 532.442L288.253 532.43C288.253 531.38 288.741 530.472 289.718 529.708C290.694 528.934 291.895 528.548 293.319 528.548C294.792 528.548 295.951 528.918 296.798 529.659C297.652 530.391 298.092 531.417 298.116 532.735V538.985C298.116 540.263 298.25 541.219 298.519 541.854V542H296.957ZM292.367 540.95C293.343 540.95 294.214 540.714 294.979 540.242C295.752 539.77 296.314 539.139 296.664 538.35V535.445H294.051C292.595 535.461 291.455 535.73 290.633 536.25C289.811 536.763 289.4 537.471 289.4 538.375C289.4 539.115 289.673 539.729 290.218 540.218C290.772 540.706 291.488 540.95 292.367 540.95ZM303.353 528.792L303.402 530.94C303.89 530.143 304.5 529.545 305.233 529.146C305.965 528.747 306.779 528.548 307.674 528.548C309.758 528.548 311.08 529.402 311.642 531.111C312.114 530.289 312.744 529.659 313.534 529.219C314.323 528.772 315.194 528.548 316.146 528.548C318.978 528.548 320.423 530.094 320.479 533.187V542H319.015V533.296C319.007 532.116 318.75 531.242 318.246 530.672C317.749 530.102 316.935 529.817 315.804 529.817C314.754 529.834 313.867 530.175 313.143 530.843C312.419 531.502 312.016 532.308 311.935 533.26V542H310.47V533.187C310.462 532.055 310.193 531.213 309.664 530.66C309.143 530.098 308.338 529.817 307.247 529.817C306.327 529.817 305.538 530.082 304.879 530.611C304.22 531.132 303.731 531.909 303.414 532.942V542H301.949V528.792H303.353ZM329.305 542.244C328.182 542.244 327.165 541.967 326.253 541.414C325.35 540.861 324.646 540.092 324.142 539.107C323.637 538.114 323.385 537.003 323.385 535.774V535.25C323.385 533.98 323.629 532.837 324.117 531.819C324.614 530.802 325.301 530.005 326.18 529.427C327.059 528.841 328.011 528.548 329.037 528.548C330.64 528.548 331.909 529.097 332.845 530.196C333.789 531.286 334.261 532.78 334.261 534.676V535.494H324.837V535.774C324.837 537.272 325.265 538.521 326.119 539.522C326.982 540.515 328.064 541.011 329.366 541.011C330.147 541.011 330.835 540.869 331.429 540.584C332.031 540.299 332.577 539.843 333.065 539.217L333.98 539.913C332.906 541.467 331.348 542.244 329.305 542.244ZM329.037 529.793C327.938 529.793 327.01 530.196 326.253 531.001C325.505 531.807 325.049 532.889 324.886 534.249H332.809V534.09C332.768 532.82 332.406 531.787 331.722 530.989C331.039 530.192 330.143 529.793 329.037 529.793ZM336.971 541.121C336.971 540.836 337.061 540.596 337.24 540.401C337.427 540.197 337.683 540.096 338.009 540.096C338.334 540.096 338.591 540.197 338.778 540.401C338.965 540.596 339.059 540.836 339.059 541.121C339.059 541.406 338.965 541.642 338.778 541.829C338.591 542.008 338.334 542.098 338.009 542.098C337.683 542.098 337.427 542.008 337.24 541.829C337.061 541.642 336.971 541.406 336.971 541.121ZM347.97 541.011C348.987 541.011 349.837 540.726 350.521 540.157C351.213 539.579 351.587 538.834 351.644 537.923H353.048C353.007 538.729 352.755 539.465 352.291 540.132C351.827 540.792 351.209 541.308 350.436 541.683C349.671 542.057 348.849 542.244 347.97 542.244C346.236 542.244 344.861 541.642 343.844 540.438C342.835 539.233 342.33 537.614 342.33 535.579V535.14C342.33 533.838 342.558 532.686 343.014 531.685C343.469 530.684 344.12 529.911 344.967 529.366C345.821 528.82 346.818 528.548 347.958 528.548C349.406 528.548 350.598 528.979 351.534 529.842C352.478 530.704 352.983 531.84 353.048 533.248H351.644C351.579 532.214 351.205 531.38 350.521 530.745C349.846 530.11 348.991 529.793 347.958 529.793C346.639 529.793 345.614 530.269 344.881 531.221C344.157 532.173 343.795 533.508 343.795 535.225V535.652C343.795 537.337 344.157 538.651 344.881 539.595C345.614 540.539 346.643 541.011 347.97 541.011ZM355.172 535.201C355.172 533.931 355.416 532.788 355.904 531.771C356.401 530.753 357.097 529.964 357.992 529.402C358.895 528.833 359.916 528.548 361.056 528.548C362.813 528.548 364.238 529.166 365.328 530.403C366.419 531.632 366.964 533.264 366.964 535.298V535.604C366.964 536.881 366.716 538.033 366.219 539.058C365.731 540.075 365.039 540.861 364.144 541.414C363.249 541.967 362.228 542.244 361.08 542.244C359.33 542.244 357.906 541.63 356.808 540.401C355.717 539.164 355.172 537.528 355.172 535.494V535.201ZM356.637 535.604C356.637 537.182 357.044 538.48 357.857 539.498C358.679 540.507 359.754 541.011 361.08 541.011C362.398 541.011 363.465 540.507 364.278 539.498C365.1 538.48 365.511 537.142 365.511 535.481V535.201C365.511 534.192 365.324 533.268 364.95 532.43C364.575 531.591 364.05 530.944 363.375 530.489C362.7 530.025 361.926 529.793 361.056 529.793C359.754 529.793 358.692 530.306 357.87 531.331C357.048 532.348 356.637 533.683 356.637 535.335V535.604ZM371.322 528.792L371.371 530.94C371.859 530.143 372.469 529.545 373.202 529.146C373.934 528.747 374.748 528.548 375.643 528.548C377.726 528.548 379.049 529.402 379.61 531.111C380.082 530.289 380.713 529.659 381.502 529.219C382.292 528.772 383.163 528.548 384.115 528.548C386.947 528.548 388.391 530.094 388.448 533.187V542H386.983V533.296C386.975 532.116 386.719 531.242 386.214 530.672C385.718 530.102 384.904 529.817 383.773 529.817C382.723 529.834 381.836 530.175 381.112 530.843C380.388 531.502 379.985 532.308 379.903 533.26V542H378.438V533.187C378.43 532.055 378.162 531.213 377.633 530.66C377.112 530.098 376.306 529.817 375.216 529.817C374.296 529.817 373.507 530.082 372.848 530.611C372.188 531.132 371.7 531.909 371.383 532.942V542H369.918V528.792H371.322Z" fill="white"/>
</svg>
