<svg width="1050" height="600" viewBox="0 0 1050 600" fill="none" xmlns="http://www.w3.org/2000/svg">
<g clip-path="url(#clip0)">
<rect width="1050" height="600" fill="white"/>
<rect width="192" height="600" fill="#DF7D10"/>
<rect x="192" width="29" height="600" fill="#3C3C3C"/>
<path d="M323.625 156L311.745 125.585V156H307.125V119.975H314.605L326.265 150.39V119.975H330.885V156H323.625ZM352.502 119.975L363.557 156H358.497L356.132 147.64H342.877L340.512 156H335.727L346.727 119.975H352.502ZM349.532 124.265L344.032 143.46H354.977L349.532 124.265ZM394.314 156L394.039 126.41L386.394 152.26H380.619L372.974 126.41L372.699 156H368.134L368.464 119.975H375.394L383.534 148.08L391.619 119.975H398.549L398.879 156H394.314ZM425.841 119.975V124.21H411.541V135.595H424.741V139.775H411.541V151.765H425.841V156H406.866V119.975H425.841ZM448.118 119.975V151.875H462.418V156H443.443V119.975H448.118ZM481.623 119.975L492.678 156H487.618L485.253 147.64H471.998L469.633 156H464.848L475.848 119.975H481.623ZM478.653 124.265L473.153 143.46H484.098L478.653 124.265ZM505.154 119.315C507.134 119.315 509.719 119.608 512.909 120.195L512.799 124.32C509.792 123.733 507.244 123.44 505.154 123.44C503.027 123.44 501.487 123.862 500.534 124.705C499.617 125.548 499.159 126.832 499.159 128.555V129.985C499.159 130.902 499.269 131.635 499.489 132.185C499.745 132.698 500.185 133.157 500.809 133.56C501.432 133.927 502.367 134.312 503.614 134.715L508.729 136.42C511.185 137.263 512.909 138.382 513.899 139.775C514.925 141.168 515.439 143.203 515.439 145.88V146.925C515.439 150.188 514.485 152.627 512.579 154.24C510.709 155.853 507.629 156.66 503.339 156.66C501.249 156.66 498.572 156.293 495.309 155.56L495.419 151.325C498.462 152.058 501.065 152.425 503.229 152.425C505.979 152.425 507.922 152.022 509.059 151.215C510.195 150.372 510.764 149.07 510.764 147.31V145.495C510.764 144.212 510.47 143.24 509.884 142.58C509.334 141.883 508.344 141.297 506.914 140.82L501.249 138.95C498.719 138.107 496.959 137.025 495.969 135.705C494.979 134.348 494.484 132.313 494.484 129.6V128.995C494.484 125.805 495.327 123.403 497.014 121.79C498.737 120.14 501.45 119.315 505.154 119.315ZM543.941 119.975V124.21H533.491V156H528.816V124.21H518.366V119.975H543.941ZM566.237 156L554.357 125.585V156H549.737V119.975H557.217L568.877 150.39V119.975H573.497V156H566.237ZM595.114 119.975L606.169 156H601.109L598.744 147.64H585.489L583.124 156H578.339L589.339 119.975H595.114ZM592.144 124.265L586.644 143.46H597.589L592.144 124.265ZM636.926 156L636.651 126.41L629.006 152.26H623.231L615.586 126.41L615.311 156H610.746L611.076 119.975H618.006L626.146 148.08L634.231 119.975H641.161L641.491 156H636.926ZM668.454 119.975V124.21H654.154V135.595H667.354V139.775H654.154V151.765H668.454V156H649.479V119.975H668.454Z" fill="#3C3C3C"/>
<path d="M321.223 194.202C320.5 195.237 319.489 196.014 318.19 196.531C316.901 197.039 315.397 197.293 313.679 197.293C311.94 197.293 310.397 196.888 309.05 196.077C307.702 195.257 306.657 194.095 305.915 192.591C305.183 191.087 304.807 189.344 304.787 187.361V185.501C304.787 182.288 305.534 179.798 307.028 178.03C308.532 176.263 310.642 175.379 313.356 175.379C315.583 175.379 317.375 175.95 318.732 177.093C320.09 178.226 320.92 179.837 321.223 181.927H318.41C317.883 179.104 316.203 177.693 313.371 177.693C311.486 177.693 310.056 178.357 309.079 179.686C308.112 181.004 307.624 182.918 307.614 185.428V187.171C307.614 189.563 308.161 191.468 309.255 192.884C310.349 194.29 311.828 194.993 313.693 194.993C314.748 194.993 315.671 194.876 316.462 194.642C317.253 194.407 317.907 194.012 318.425 193.455V188.665H313.488V186.38H321.223V194.202ZM333.747 188.372H328.737V197H325.91V175.672H332.971C335.373 175.672 337.219 176.219 338.508 177.312C339.807 178.406 340.456 179.998 340.456 182.088C340.456 183.416 340.095 184.573 339.372 185.56C338.659 186.546 337.663 187.283 336.384 187.771L341.394 196.824V197H338.376L333.747 188.372ZM328.737 186.072H333.059C334.455 186.072 335.563 185.711 336.384 184.988C337.214 184.266 337.629 183.299 337.629 182.088C337.629 180.77 337.233 179.759 336.442 179.056C335.661 178.353 334.528 177.996 333.044 177.986H328.737V186.072ZM356.188 191.434H347.253L345.246 197H342.346L350.49 175.672H352.951L361.11 197H358.225L356.188 191.434ZM348.103 189.119H355.354L351.721 179.144L348.103 189.119ZM366.794 188.65V197H363.981V175.672H371.848C374.182 175.672 376.008 176.268 377.326 177.459C378.654 178.65 379.318 180.228 379.318 182.19C379.318 184.261 378.669 185.857 377.37 186.98C376.081 188.094 374.23 188.65 371.818 188.65H366.794ZM366.794 186.351H371.848C373.352 186.351 374.504 185.999 375.305 185.296C376.105 184.583 376.506 183.558 376.506 182.22C376.506 180.95 376.105 179.935 375.305 179.173C374.504 178.411 373.405 178.016 372.009 177.986H366.794V186.351ZM399.299 197H396.472V187.142H385.72V197H382.907V175.672H385.72V184.842H396.472V175.672H399.299V197ZM407.312 197H404.499V175.672H407.312V197ZM428.156 190.232C427.893 192.488 427.058 194.231 425.651 195.462C424.255 196.683 422.395 197.293 420.07 197.293C417.551 197.293 415.529 196.39 414.006 194.583C412.492 192.776 411.735 190.359 411.735 187.332V185.281C411.735 183.299 412.087 181.556 412.79 180.052C413.503 178.548 414.509 177.396 415.808 176.595C417.106 175.784 418.61 175.379 420.319 175.379C422.585 175.379 424.401 176.014 425.769 177.283C427.136 178.543 427.932 180.291 428.156 182.527H425.329C425.085 180.828 424.553 179.598 423.732 178.836C422.922 178.074 421.784 177.693 420.319 177.693C418.522 177.693 417.111 178.357 416.086 179.686C415.07 181.014 414.562 182.903 414.562 185.354V187.42C414.562 189.734 415.046 191.575 416.013 192.942C416.979 194.31 418.332 194.993 420.07 194.993C421.633 194.993 422.829 194.642 423.659 193.938C424.499 193.226 425.056 191.99 425.329 190.232H428.156ZM439.45 197V175.672H445.471C447.326 175.672 448.967 176.082 450.393 176.902C451.818 177.723 452.917 178.89 453.688 180.403C454.47 181.917 454.865 183.655 454.875 185.618V186.98C454.875 188.992 454.484 190.755 453.703 192.269C452.932 193.782 451.823 194.944 450.378 195.755C448.942 196.565 447.268 196.98 445.354 197H439.45ZM442.263 177.986V194.7H445.222C447.39 194.7 449.074 194.026 450.275 192.679C451.486 191.331 452.092 189.412 452.092 186.922V185.677C452.092 183.255 451.521 181.375 450.378 180.037C449.245 178.689 447.634 178.006 445.544 177.986H442.263ZM471.193 187.142H461.95V194.7H472.688V197H459.138V175.672H472.541V177.986H461.95V184.842H471.193V187.142ZM482.473 187.493C480.061 186.8 478.303 185.95 477.199 184.944C476.105 183.929 475.559 182.679 475.559 181.194C475.559 179.515 476.228 178.128 477.565 177.034C478.913 175.931 480.661 175.379 482.81 175.379C484.274 175.379 485.578 175.662 486.721 176.229C487.873 176.795 488.762 177.576 489.387 178.572C490.021 179.568 490.339 180.657 490.339 181.839H487.512C487.512 180.55 487.102 179.539 486.281 178.807C485.461 178.064 484.304 177.693 482.81 177.693C481.423 177.693 480.339 178.001 479.558 178.616C478.786 179.222 478.4 180.066 478.4 181.15C478.4 182.02 478.767 182.757 479.499 183.362C480.241 183.958 481.496 184.505 483.264 185.003C485.041 185.501 486.428 186.053 487.424 186.658C488.43 187.254 489.172 187.952 489.65 188.753C490.139 189.554 490.383 190.496 490.383 191.58C490.383 193.309 489.709 194.695 488.361 195.74C487.014 196.775 485.212 197.293 482.956 197.293C481.491 197.293 480.124 197.015 478.854 196.458C477.585 195.892 476.604 195.12 475.91 194.144C475.227 193.167 474.885 192.059 474.885 190.818H477.712C477.712 192.107 478.186 193.128 479.133 193.88C480.09 194.622 481.364 194.993 482.956 194.993C484.44 194.993 485.578 194.69 486.369 194.085C487.16 193.479 487.556 192.654 487.556 191.609C487.556 190.564 487.189 189.759 486.457 189.192C485.725 188.616 484.396 188.05 482.473 187.493ZM497.019 197H494.206V175.672H497.019V197ZM517.922 194.202C517.199 195.237 516.188 196.014 514.89 196.531C513.601 197.039 512.097 197.293 510.378 197.293C508.64 197.293 507.097 196.888 505.749 196.077C504.401 195.257 503.356 194.095 502.614 192.591C501.882 191.087 501.506 189.344 501.486 187.361V185.501C501.486 182.288 502.233 179.798 503.728 178.03C505.231 176.263 507.341 175.379 510.056 175.379C512.282 175.379 514.074 175.95 515.432 177.093C516.789 178.226 517.619 179.837 517.922 181.927H515.109C514.582 179.104 512.902 177.693 510.07 177.693C508.186 177.693 506.755 178.357 505.778 179.686C504.812 181.004 504.323 182.918 504.313 185.428V187.171C504.313 189.563 504.86 191.468 505.954 192.884C507.048 194.29 508.527 194.993 510.393 194.993C511.447 194.993 512.37 194.876 513.161 194.642C513.952 194.407 514.606 194.012 515.124 193.455V188.665H510.188V186.38H517.922V194.202ZM539.016 197H536.188L525.451 180.564V197H522.624V175.672H525.451L536.218 192.181V175.672H539.016V197ZM556.066 187.142H546.823V194.7H557.561V197H544.011V175.672H557.414V177.986H546.823V184.842H556.066V187.142ZM568.884 188.372H563.874V197H561.047V175.672H568.107C570.51 175.672 572.355 176.219 573.645 177.312C574.943 178.406 575.593 179.998 575.593 182.088C575.593 183.416 575.231 184.573 574.509 185.56C573.796 186.546 572.8 187.283 571.521 187.771L576.53 196.824V197H573.513L568.884 188.372ZM563.874 186.072H568.195C569.592 186.072 570.7 185.711 571.521 184.988C572.351 184.266 572.766 183.299 572.766 182.088C572.766 180.77 572.37 179.759 571.579 179.056C570.798 178.353 569.665 177.996 568.181 177.986H563.874V186.072Z" fill="#898989"/>
<path d="M388.814 319.56H394.762V322.123H388.814V328.861H386.09V322.123H380.143V319.56H386.09V313.334H388.814V319.56ZM408.18 321.625C407.613 322.299 406.935 322.841 406.144 323.251C405.362 323.661 404.503 323.866 403.565 323.866C402.335 323.866 401.261 323.563 400.343 322.958C399.435 322.353 398.731 321.503 398.233 320.409C397.735 319.306 397.486 318.09 397.486 316.762C397.486 315.336 397.755 314.052 398.292 312.909C398.839 311.767 399.61 310.893 400.606 310.287C401.603 309.682 402.765 309.379 404.093 309.379C406.202 309.379 407.862 310.17 409.073 311.752C410.294 313.324 410.904 315.473 410.904 318.197V318.988C410.904 323.139 410.084 326.171 408.443 328.085C406.803 329.989 404.327 330.966 401.017 331.015H400.489V328.729H401.061C403.297 328.69 405.016 328.109 406.217 326.986C407.418 325.854 408.072 324.066 408.18 321.625ZM404.005 321.625C404.913 321.625 405.748 321.347 406.51 320.79C407.281 320.233 407.843 319.545 408.194 318.725V317.641C408.194 315.863 407.809 314.418 407.037 313.305C406.266 312.191 405.289 311.635 404.107 311.635C402.916 311.635 401.959 312.094 401.236 313.012C400.514 313.92 400.152 315.121 400.152 316.615C400.152 318.07 400.499 319.271 401.192 320.219C401.896 321.156 402.833 321.625 404.005 321.625ZM425.025 321.625C424.459 322.299 423.78 322.841 422.989 323.251C422.208 323.661 421.349 323.866 420.411 323.866C419.181 323.866 418.106 323.563 417.188 322.958C416.28 322.353 415.577 321.503 415.079 320.409C414.581 319.306 414.332 318.09 414.332 316.762C414.332 315.336 414.601 314.052 415.138 312.909C415.685 311.767 416.456 310.893 417.452 310.287C418.448 309.682 419.61 309.379 420.938 309.379C423.048 309.379 424.708 310.17 425.919 311.752C427.14 313.324 427.75 315.473 427.75 318.197V318.988C427.75 323.139 426.93 326.171 425.289 328.085C423.648 329.989 421.173 330.966 417.862 331.015H417.335V328.729H417.906C420.143 328.69 421.861 328.109 423.062 326.986C424.264 325.854 424.918 324.066 425.025 321.625ZM420.851 321.625C421.759 321.625 422.594 321.347 423.355 320.79C424.127 320.233 424.688 319.545 425.04 318.725V317.641C425.04 315.863 424.654 314.418 423.883 313.305C423.111 312.191 422.135 311.635 420.953 311.635C419.762 311.635 418.805 312.094 418.082 313.012C417.359 313.92 416.998 315.121 416.998 316.615C416.998 318.07 417.345 319.271 418.038 320.219C418.741 321.156 419.679 321.625 420.851 321.625ZM432.73 320.307L433.814 309.672H444.742V312.177H436.114L435.47 317.992C436.515 317.377 437.701 317.069 439.029 317.069C440.973 317.069 442.516 317.714 443.658 319.003C444.801 320.282 445.372 322.016 445.372 324.203C445.372 326.4 444.776 328.134 443.585 329.403C442.403 330.663 440.748 331.293 438.619 331.293C436.734 331.293 435.196 330.771 434.005 329.726C432.813 328.681 432.135 327.235 431.969 325.39H434.532C434.698 326.61 435.133 327.533 435.836 328.158C436.539 328.773 437.467 329.081 438.619 329.081C439.879 329.081 440.865 328.651 441.578 327.792C442.301 326.933 442.662 325.746 442.662 324.232C442.662 322.807 442.271 321.664 441.49 320.805C440.719 319.936 439.688 319.501 438.399 319.501C437.218 319.501 436.29 319.76 435.616 320.277L434.898 320.863L432.73 320.307ZM464.679 331H461.954V312.938L456.49 314.945V312.484L464.254 309.569H464.679V331ZM486.593 331H472.618V329.052L480.001 320.849C481.095 319.608 481.847 318.603 482.257 317.831C482.677 317.05 482.887 316.244 482.887 315.414C482.887 314.301 482.55 313.388 481.876 312.675C481.202 311.962 480.304 311.605 479.181 311.605C477.833 311.605 476.783 311.991 476.031 312.763C475.289 313.524 474.918 314.589 474.918 315.956H472.208C472.208 313.993 472.838 312.406 474.098 311.195C475.367 309.984 477.062 309.379 479.181 309.379C481.163 309.379 482.73 309.901 483.883 310.946C485.035 311.981 485.611 313.363 485.611 315.092C485.611 317.191 484.273 319.691 481.598 322.592L475.885 328.788H486.593V331ZM500.904 323.837H503.863V326.049H500.904V331H498.18V326.049H488.468V324.452L498.019 309.672H500.904V323.837ZM491.544 323.837H498.18V313.378L497.857 313.964L491.544 323.837ZM532.633 323.837H535.592V326.049H532.633V331H529.908V326.049H520.196V324.452L529.747 309.672H532.633V323.837ZM523.272 323.837H529.908V313.378L529.586 313.964L523.272 323.837ZM552.013 331H538.038V329.052L545.421 320.849C546.515 319.608 547.267 318.603 547.677 317.831C548.097 317.05 548.307 316.244 548.307 315.414C548.307 314.301 547.97 313.388 547.296 312.675C546.622 311.962 545.724 311.605 544.601 311.605C543.253 311.605 542.203 311.991 541.451 312.763C540.709 313.524 540.338 314.589 540.338 315.956H537.628C537.628 313.993 538.258 312.406 539.518 311.195C540.787 309.984 542.481 309.379 544.601 309.379C546.583 309.379 548.15 309.901 549.303 310.946C550.455 311.981 551.031 313.363 551.031 315.092C551.031 317.191 549.693 319.691 547.018 322.592L541.305 328.788H552.013V331ZM558.824 319.018H560.86C562.14 318.998 563.146 318.661 563.878 318.007C564.61 317.353 564.977 316.469 564.977 315.355C564.977 312.855 563.731 311.605 561.241 311.605C560.069 311.605 559.132 311.942 558.429 312.616C557.735 313.28 557.389 314.164 557.389 315.268H554.679C554.679 313.578 555.294 312.177 556.524 311.063C557.765 309.94 559.337 309.379 561.241 309.379C563.253 309.379 564.83 309.911 565.973 310.976C567.115 312.04 567.687 313.52 567.687 315.414C567.687 316.342 567.384 317.24 566.778 318.109C566.183 318.979 565.367 319.628 564.332 320.058C565.504 320.429 566.407 321.044 567.042 321.903C567.687 322.763 568.009 323.812 568.009 325.053C568.009 326.967 567.384 328.485 566.134 329.608C564.884 330.731 563.258 331.293 561.256 331.293C559.254 331.293 557.623 330.751 556.363 329.667C555.113 328.583 554.488 327.152 554.488 325.375H557.213C557.213 326.498 557.579 327.396 558.312 328.07C559.044 328.744 560.025 329.081 561.256 329.081C562.564 329.081 563.565 328.739 564.259 328.056C564.952 327.372 565.299 326.391 565.299 325.111C565.299 323.871 564.918 322.919 564.156 322.255C563.395 321.591 562.296 321.249 560.86 321.229H558.824V319.018ZM583.17 323.837H586.129V326.049H583.17V331H580.445V326.049H570.733V324.452L580.284 309.672H583.17V323.837ZM573.81 323.837H580.445V313.378L580.123 313.964L573.81 323.837ZM592.516 319.018H594.552C595.831 318.998 596.837 318.661 597.569 318.007C598.302 317.353 598.668 316.469 598.668 315.355C598.668 312.855 597.423 311.605 594.933 311.605C593.761 311.605 592.823 311.942 592.12 312.616C591.427 313.28 591.08 314.164 591.08 315.268H588.37C588.37 313.578 588.985 312.177 590.216 311.063C591.456 309.94 593.028 309.379 594.933 309.379C596.944 309.379 598.521 309.911 599.664 310.976C600.807 312.04 601.378 313.52 601.378 315.414C601.378 316.342 601.075 317.24 600.47 318.109C599.874 318.979 599.059 319.628 598.023 320.058C599.195 320.429 600.099 321.044 600.733 321.903C601.378 322.763 601.7 323.812 601.7 325.053C601.7 326.967 601.075 328.485 599.825 329.608C598.575 330.731 596.949 331.293 594.947 331.293C592.945 331.293 591.314 330.751 590.055 329.667C588.805 328.583 588.18 327.152 588.18 325.375H590.904C590.904 326.498 591.271 327.396 592.003 328.07C592.735 328.744 593.717 329.081 594.947 329.081C596.256 329.081 597.257 328.739 597.95 328.056C598.644 327.372 598.99 326.391 598.99 325.111C598.99 323.871 598.609 322.919 597.848 322.255C597.086 321.591 595.987 321.249 594.552 321.229H592.516V319.018ZM606.666 320.307L607.75 309.672H618.678V312.177H610.05L609.405 317.992C610.45 317.377 611.637 317.069 612.965 317.069C614.908 317.069 616.451 317.714 617.594 319.003C618.736 320.282 619.308 322.016 619.308 324.203C619.308 326.4 618.712 328.134 617.521 329.403C616.339 330.663 614.684 331.293 612.555 331.293C610.67 331.293 609.132 330.771 607.94 329.726C606.749 328.681 606.07 327.235 605.904 325.39H608.468C608.634 326.61 609.068 327.533 609.771 328.158C610.475 328.773 611.402 329.081 612.555 329.081C613.814 329.081 614.801 328.651 615.514 327.792C616.236 326.933 616.598 325.746 616.598 324.232C616.598 322.807 616.207 321.664 615.426 320.805C614.654 319.936 613.624 319.501 612.335 319.501C611.153 319.501 610.226 319.76 609.552 320.277L608.834 320.863L606.666 320.307Z" fill="#3C3C3C"/>
<path d="M395.084 474.265L398.131 462.15H400.841L396.227 478H394.029L390.177 465.988L386.427 478H384.229L379.63 462.15H382.325L385.445 474.016L389.137 462.15H391.319L395.084 474.265ZM417.643 474.265L420.689 462.15H423.399L418.785 478H416.588L412.735 465.988L408.985 478H406.788L402.188 462.15H404.884L408.004 474.016L411.695 462.15H413.878L417.643 474.265ZM440.201 474.265L443.248 462.15H445.958L441.344 478H439.146L435.294 465.988L431.544 478H429.347L424.747 462.15H427.442L430.562 474.016L434.254 462.15H436.437L440.201 474.265ZM446.969 476.579C446.969 476.11 447.105 475.72 447.379 475.407C447.662 475.095 448.082 474.938 448.639 474.938C449.195 474.938 449.615 475.095 449.898 475.407C450.191 475.72 450.338 476.11 450.338 476.579C450.338 477.028 450.191 477.404 449.898 477.707C449.615 478.01 449.195 478.161 448.639 478.161C448.082 478.161 447.662 478.01 447.379 477.707C447.105 477.404 446.969 477.028 446.969 476.579ZM468.854 474.265L471.9 462.15H474.61L469.996 478H467.799L463.946 465.988L460.196 478H457.999L453.399 462.15H456.095L459.215 474.016L462.906 462.15H465.089L468.854 474.265ZM483.956 478.293C481.808 478.293 480.06 477.59 478.712 476.184C477.364 474.768 476.69 472.878 476.69 470.515V470.017C476.69 468.444 476.988 467.043 477.584 465.812C478.189 464.572 479.029 463.605 480.104 462.912C481.188 462.209 482.359 461.857 483.619 461.857C485.68 461.857 487.281 462.536 488.424 463.894C489.566 465.251 490.138 467.194 490.138 469.724V470.852H479.4C479.439 472.414 479.894 473.679 480.763 474.646C481.642 475.603 482.755 476.081 484.103 476.081C485.06 476.081 485.87 475.886 486.534 475.495C487.198 475.104 487.779 474.587 488.277 473.942L489.933 475.231C488.604 477.272 486.612 478.293 483.956 478.293ZM483.619 464.084C482.525 464.084 481.607 464.484 480.865 465.285C480.123 466.076 479.664 467.189 479.488 468.625H487.428V468.42C487.35 467.043 486.979 465.979 486.314 465.227C485.65 464.465 484.752 464.084 483.619 464.084ZM506.705 470.251C506.705 472.673 506.148 474.621 505.035 476.096C503.922 477.561 502.428 478.293 500.553 478.293C498.551 478.293 497.003 477.585 495.909 476.169L495.777 478H493.287V455.5H495.997V463.894C497.091 462.536 498.6 461.857 500.523 461.857C502.447 461.857 503.956 462.585 505.05 464.04C506.153 465.495 506.705 467.487 506.705 470.017V470.251ZM503.995 469.943C503.995 468.098 503.639 466.672 502.926 465.666C502.213 464.66 501.188 464.157 499.85 464.157C498.062 464.157 496.778 464.987 495.997 466.647V473.503C496.827 475.163 498.121 475.993 499.879 475.993C501.178 475.993 502.188 475.49 502.911 474.484C503.634 473.479 503.995 471.965 503.995 469.943ZM519.361 473.796C519.361 473.063 519.083 472.497 518.526 472.097C517.979 471.687 517.018 471.335 515.641 471.042C514.273 470.749 513.185 470.397 512.374 469.987C511.573 469.577 510.978 469.089 510.587 468.522C510.206 467.956 510.016 467.282 510.016 466.501C510.016 465.202 510.562 464.104 511.656 463.205C512.76 462.307 514.166 461.857 515.875 461.857C517.672 461.857 519.127 462.321 520.24 463.249C521.363 464.177 521.925 465.363 521.925 466.809H519.2C519.2 466.066 518.883 465.427 518.248 464.89C517.623 464.353 516.832 464.084 515.875 464.084C514.889 464.084 514.117 464.299 513.561 464.729C513.004 465.158 512.726 465.72 512.726 466.413C512.726 467.067 512.984 467.561 513.502 467.893C514.02 468.225 514.952 468.542 516.3 468.845C517.657 469.147 518.756 469.509 519.596 469.929C520.436 470.349 521.056 470.856 521.456 471.452C521.866 472.038 522.071 472.756 522.071 473.605C522.071 475.021 521.505 476.159 520.372 477.019C519.239 477.868 517.77 478.293 515.963 478.293C514.693 478.293 513.57 478.068 512.594 477.619C511.617 477.17 510.851 476.545 510.294 475.744C509.747 474.934 509.474 474.06 509.474 473.122H512.184C512.232 474.03 512.594 474.753 513.268 475.29C513.951 475.817 514.85 476.081 515.963 476.081C516.988 476.081 517.809 475.876 518.424 475.466C519.049 475.046 519.361 474.489 519.361 473.796ZM528.546 478H525.836V462.15H528.546V478ZM525.616 457.946C525.616 457.507 525.748 457.136 526.012 456.833C526.285 456.53 526.686 456.379 527.213 456.379C527.74 456.379 528.141 456.53 528.414 456.833C528.688 457.136 528.824 457.507 528.824 457.946C528.824 458.386 528.688 458.752 528.414 459.045C528.141 459.338 527.74 459.484 527.213 459.484C526.686 459.484 526.285 459.338 526.012 459.045C525.748 458.752 525.616 458.386 525.616 457.946ZM536.573 458.312V462.15H539.532V464.245H536.573V474.074C536.573 474.709 536.705 475.188 536.969 475.51C537.232 475.822 537.682 475.979 538.316 475.979C538.629 475.979 539.059 475.92 539.605 475.803V478C538.893 478.195 538.199 478.293 537.525 478.293C536.314 478.293 535.401 477.927 534.786 477.194C534.171 476.462 533.863 475.422 533.863 474.074V464.245H530.978V462.15H533.863V458.312H536.573ZM549.288 478.293C547.14 478.293 545.392 477.59 544.044 476.184C542.696 474.768 542.022 472.878 542.022 470.515V470.017C542.022 468.444 542.32 467.043 542.916 465.812C543.521 464.572 544.361 463.605 545.436 462.912C546.52 462.209 547.691 461.857 548.951 461.857C551.012 461.857 552.613 462.536 553.756 463.894C554.898 465.251 555.47 467.194 555.47 469.724V470.852H544.732C544.771 472.414 545.226 473.679 546.095 474.646C546.974 475.603 548.087 476.081 549.435 476.081C550.392 476.081 551.202 475.886 551.866 475.495C552.53 475.104 553.111 474.587 553.609 473.942L555.265 475.231C553.937 477.272 551.944 478.293 549.288 478.293ZM548.951 464.084C547.857 464.084 546.939 464.484 546.197 465.285C545.455 466.076 544.996 467.189 544.82 468.625H552.76V468.42C552.682 467.043 552.311 465.979 551.646 465.227C550.982 464.465 550.084 464.084 548.951 464.084ZM558.678 476.579C558.678 476.11 558.814 475.72 559.088 475.407C559.371 475.095 559.791 474.938 560.348 474.938C560.904 474.938 561.324 475.095 561.607 475.407C561.9 475.72 562.047 476.11 562.047 476.579C562.047 477.028 561.9 477.404 561.607 477.707C561.324 478.01 560.904 478.161 560.348 478.161C559.791 478.161 559.371 478.01 559.088 477.707C558.814 477.404 558.678 477.028 558.678 476.579ZM572.887 476.081C573.854 476.081 574.698 475.788 575.421 475.202C576.144 474.616 576.544 473.884 576.622 473.005H579.186C579.137 473.913 578.824 474.777 578.248 475.598C577.672 476.418 576.9 477.072 575.934 477.561C574.977 478.049 573.961 478.293 572.887 478.293C570.729 478.293 569.01 477.575 567.73 476.14C566.461 474.694 565.826 472.722 565.826 470.222V469.768C565.826 468.225 566.109 466.853 566.676 465.651C567.242 464.45 568.053 463.518 569.107 462.854C570.172 462.189 571.427 461.857 572.872 461.857C574.649 461.857 576.124 462.39 577.296 463.454C578.478 464.519 579.107 465.9 579.186 467.6H576.622C576.544 466.574 576.153 465.734 575.45 465.08C574.757 464.416 573.897 464.084 572.872 464.084C571.495 464.084 570.426 464.582 569.664 465.578C568.912 466.564 568.536 467.995 568.536 469.87V470.383C568.536 472.209 568.912 473.615 569.664 474.602C570.416 475.588 571.49 476.081 572.887 476.081ZM581.515 469.929C581.515 468.376 581.817 466.979 582.423 465.739C583.038 464.499 583.888 463.542 584.972 462.868C586.065 462.194 587.311 461.857 588.707 461.857C590.865 461.857 592.608 462.604 593.937 464.099C595.274 465.593 595.943 467.58 595.943 470.061V470.251C595.943 471.794 595.646 473.181 595.05 474.411C594.464 475.632 593.619 476.584 592.516 477.268C591.422 477.951 590.162 478.293 588.736 478.293C586.588 478.293 584.845 477.546 583.507 476.052C582.179 474.558 581.515 472.58 581.515 470.119V469.929ZM584.239 470.251C584.239 472.009 584.645 473.42 585.455 474.484C586.275 475.549 587.369 476.081 588.736 476.081C590.113 476.081 591.207 475.544 592.018 474.47C592.828 473.386 593.233 471.872 593.233 469.929C593.233 468.19 592.818 466.784 591.988 465.71C591.168 464.626 590.074 464.084 588.707 464.084C587.369 464.084 586.29 464.616 585.47 465.681C584.649 466.745 584.239 468.269 584.239 470.251ZM601.891 462.15L601.964 463.908C603.126 462.541 604.693 461.857 606.666 461.857C608.883 461.857 610.392 462.707 611.192 464.406C611.72 463.645 612.403 463.029 613.243 462.561C614.093 462.092 615.094 461.857 616.246 461.857C619.723 461.857 621.49 463.698 621.549 467.38V478H618.839V467.541C618.839 466.408 618.58 465.563 618.062 465.007C617.545 464.44 616.676 464.157 615.455 464.157C614.449 464.157 613.614 464.46 612.95 465.065C612.286 465.661 611.9 466.467 611.793 467.482V478H609.068V467.614C609.068 465.31 607.94 464.157 605.685 464.157C603.907 464.157 602.691 464.914 602.037 466.428V478H599.327V462.15H601.891Z" fill="#3C3C3C"/>
<path d="M393.531 390.142H384.288V397.7H395.025V400H381.476V378.672H394.879V380.986H384.288V387.842H393.531V390.142ZM400.65 384.15L400.724 385.908C401.886 384.541 403.453 383.857 405.426 383.857C407.643 383.857 409.151 384.707 409.952 386.406C410.479 385.645 411.163 385.029 412.003 384.561C412.853 384.092 413.854 383.857 415.006 383.857C418.482 383.857 420.25 385.698 420.309 389.38V400H417.599V389.541C417.599 388.408 417.34 387.563 416.822 387.007C416.305 386.44 415.436 386.157 414.215 386.157C413.209 386.157 412.374 386.46 411.71 387.065C411.046 387.661 410.66 388.467 410.553 389.482V400H407.828V389.614C407.828 387.31 406.7 386.157 404.444 386.157C402.667 386.157 401.451 386.914 400.797 388.428V400H398.087V384.15H400.65ZM434.195 400C434.039 399.688 433.912 399.131 433.814 398.33C432.555 399.639 431.051 400.293 429.303 400.293C427.74 400.293 426.456 399.854 425.45 398.975C424.454 398.086 423.956 396.963 423.956 395.605C423.956 393.955 424.581 392.676 425.831 391.768C427.091 390.85 428.858 390.391 431.134 390.391H433.771V389.146C433.771 388.198 433.487 387.446 432.921 386.89C432.354 386.323 431.52 386.04 430.416 386.04C429.449 386.04 428.639 386.284 427.984 386.772C427.33 387.261 427.003 387.852 427.003 388.545H424.278C424.278 387.754 424.557 386.992 425.113 386.26C425.68 385.518 426.441 384.932 427.398 384.502C428.365 384.072 429.425 383.857 430.577 383.857C432.403 383.857 433.834 384.316 434.869 385.234C435.904 386.143 436.441 387.397 436.48 388.999V396.294C436.48 397.749 436.666 398.906 437.037 399.766V400H434.195ZM429.698 397.935C430.548 397.935 431.354 397.715 432.115 397.275C432.877 396.836 433.429 396.265 433.771 395.562V392.31H431.646C428.326 392.31 426.666 393.281 426.666 395.225C426.666 396.074 426.949 396.738 427.516 397.217C428.082 397.695 428.81 397.935 429.698 397.935ZM443.673 400H440.963V384.15H443.673V400ZM440.743 379.946C440.743 379.507 440.875 379.136 441.139 378.833C441.412 378.53 441.812 378.379 442.34 378.379C442.867 378.379 443.268 378.53 443.541 378.833C443.814 379.136 443.951 379.507 443.951 379.946C443.951 380.386 443.814 380.752 443.541 381.045C443.268 381.338 442.867 381.484 442.34 381.484C441.812 381.484 441.412 381.338 441.139 381.045C440.875 380.752 440.743 380.386 440.743 379.946ZM450.968 400H448.258V377.5H450.968V400ZM478.727 392.646C478.609 395.01 478.023 396.875 476.969 398.242C475.914 399.609 474.503 400.293 472.735 400.293C470.909 400.293 469.737 399.473 469.22 397.832C468.692 398.662 468.087 399.282 467.403 399.692C466.729 400.093 466.031 400.293 465.309 400.293C463.922 400.293 462.872 399.727 462.159 398.594C461.446 397.461 461.183 395.894 461.368 393.892C461.515 392.28 461.881 390.845 462.467 389.585C463.062 388.315 463.824 387.319 464.752 386.597C465.689 385.874 466.671 385.513 467.696 385.513C468.487 385.513 469.195 385.62 469.82 385.835C470.445 386.04 471.148 386.45 471.93 387.065L471.168 395.181C470.982 397.437 471.607 398.564 473.043 398.564C474.146 398.564 475.04 398.018 475.724 396.924C476.407 395.83 476.778 394.404 476.837 392.646C477.022 388.848 476.314 385.952 474.713 383.96C473.121 381.968 470.694 380.972 467.433 380.972C465.47 380.972 463.727 381.46 462.203 382.437C460.68 383.403 459.479 384.805 458.6 386.641C457.721 388.477 457.228 390.596 457.12 392.998C457.003 395.42 457.296 397.524 457.999 399.312C458.702 401.089 459.771 402.446 461.207 403.384C462.652 404.331 464.396 404.805 466.437 404.805C467.315 404.805 468.194 404.697 469.073 404.482C469.962 404.268 470.699 403.989 471.285 403.647L471.827 405.332C471.222 405.713 470.416 406.025 469.41 406.27C468.414 406.514 467.403 406.636 466.378 406.636C463.937 406.636 461.837 406.084 460.079 404.98C458.321 403.887 457.003 402.305 456.124 400.234C455.255 398.174 454.879 395.762 454.996 392.998C455.113 390.312 455.714 387.9 456.798 385.762C457.882 383.613 459.352 381.958 461.207 380.796C463.062 379.624 465.157 379.038 467.491 379.038C469.923 379.038 472.008 379.585 473.746 380.679C475.484 381.772 476.778 383.35 477.628 385.41C478.478 387.471 478.844 389.883 478.727 392.646ZM463.697 393.892C463.561 395.278 463.688 396.343 464.078 397.085C464.479 397.827 465.108 398.198 465.968 398.198C466.554 398.198 467.115 397.949 467.652 397.451C468.199 396.953 468.648 396.24 469 395.312L469.015 395.181L469.688 387.812C469.142 387.529 468.556 387.388 467.931 387.388C466.788 387.388 465.841 387.969 465.089 389.131C464.347 390.293 463.883 391.88 463.697 393.892ZM481.627 391.943C481.627 389.473 482.198 387.51 483.341 386.055C484.483 384.59 485.997 383.857 487.882 383.857C489.815 383.857 491.324 384.541 492.408 385.908L492.54 384.15H495.016V399.619C495.016 401.67 494.405 403.286 493.185 404.468C491.974 405.649 490.343 406.24 488.292 406.24C487.149 406.24 486.031 405.996 484.938 405.508C483.844 405.02 483.009 404.351 482.433 403.501L483.839 401.875C485.001 403.311 486.422 404.028 488.102 404.028C489.42 404.028 490.445 403.657 491.178 402.915C491.92 402.173 492.291 401.128 492.291 399.78V398.418C491.207 399.668 489.728 400.293 487.853 400.293C485.997 400.293 484.493 399.546 483.341 398.052C482.198 396.558 481.627 394.521 481.627 391.943ZM484.352 392.251C484.352 394.038 484.718 395.444 485.45 396.47C486.183 397.485 487.208 397.993 488.526 397.993C490.235 397.993 491.49 397.217 492.291 395.664V388.428C491.461 386.914 490.216 386.157 488.556 386.157C487.237 386.157 486.207 386.67 485.465 387.695C484.723 388.721 484.352 390.239 484.352 392.251ZM501.666 384.15L501.739 385.908C502.901 384.541 504.469 383.857 506.441 383.857C508.658 383.857 510.167 384.707 510.968 386.406C511.495 385.645 512.179 385.029 513.019 384.561C513.868 384.092 514.869 383.857 516.021 383.857C519.498 383.857 521.266 385.698 521.324 389.38V400H518.614V389.541C518.614 388.408 518.355 387.563 517.838 387.007C517.32 386.44 516.451 386.157 515.23 386.157C514.225 386.157 513.39 386.46 512.726 387.065C512.062 387.661 511.676 388.467 511.568 389.482V400H508.844V389.614C508.844 387.31 507.716 386.157 505.46 386.157C503.683 386.157 502.467 386.914 501.812 388.428V400H499.103V384.15H501.666ZM535.211 400C535.055 399.688 534.928 399.131 534.83 398.33C533.57 399.639 532.066 400.293 530.318 400.293C528.756 400.293 527.472 399.854 526.466 398.975C525.47 398.086 524.972 396.963 524.972 395.605C524.972 393.955 525.597 392.676 526.847 391.768C528.106 390.85 529.874 390.391 532.149 390.391H534.786V389.146C534.786 388.198 534.503 387.446 533.937 386.89C533.37 386.323 532.535 386.04 531.432 386.04C530.465 386.04 529.654 386.284 529 386.772C528.346 387.261 528.019 387.852 528.019 388.545H525.294C525.294 387.754 525.572 386.992 526.129 386.26C526.695 385.518 527.457 384.932 528.414 384.502C529.381 384.072 530.44 383.857 531.593 383.857C533.419 383.857 534.85 384.316 535.885 385.234C536.92 386.143 537.457 387.397 537.496 388.999V396.294C537.496 397.749 537.682 398.906 538.053 399.766V400H535.211ZM530.714 397.935C531.563 397.935 532.369 397.715 533.131 397.275C533.893 396.836 534.444 396.265 534.786 395.562V392.31H532.662C529.342 392.31 527.682 393.281 527.682 395.225C527.682 396.074 527.965 396.738 528.531 397.217C529.098 397.695 529.825 397.935 530.714 397.935ZM544.688 400H541.979V384.15H544.688V400ZM541.759 379.946C541.759 379.507 541.891 379.136 542.154 378.833C542.428 378.53 542.828 378.379 543.355 378.379C543.883 378.379 544.283 378.53 544.557 378.833C544.83 379.136 544.967 379.507 544.967 379.946C544.967 380.386 544.83 380.752 544.557 381.045C544.283 381.338 543.883 381.484 543.355 381.484C542.828 381.484 542.428 381.338 542.154 381.045C541.891 380.752 541.759 380.386 541.759 379.946ZM551.983 400H549.273V377.5H551.983V400ZM556.393 398.579C556.393 398.11 556.529 397.72 556.803 397.407C557.086 397.095 557.506 396.938 558.062 396.938C558.619 396.938 559.039 397.095 559.322 397.407C559.615 397.72 559.762 398.11 559.762 398.579C559.762 399.028 559.615 399.404 559.322 399.707C559.039 400.01 558.619 400.161 558.062 400.161C557.506 400.161 557.086 400.01 556.803 399.707C556.529 399.404 556.393 399.028 556.393 398.579ZM570.602 398.081C571.568 398.081 572.413 397.788 573.136 397.202C573.858 396.616 574.259 395.884 574.337 395.005H576.9C576.852 395.913 576.539 396.777 575.963 397.598C575.387 398.418 574.615 399.072 573.648 399.561C572.691 400.049 571.676 400.293 570.602 400.293C568.443 400.293 566.725 399.575 565.445 398.14C564.176 396.694 563.541 394.722 563.541 392.222V391.768C563.541 390.225 563.824 388.853 564.391 387.651C564.957 386.45 565.768 385.518 566.822 384.854C567.887 384.189 569.142 383.857 570.587 383.857C572.364 383.857 573.839 384.39 575.011 385.454C576.192 386.519 576.822 387.9 576.9 389.6H574.337C574.259 388.574 573.868 387.734 573.165 387.08C572.472 386.416 571.612 386.084 570.587 386.084C569.21 386.084 568.141 386.582 567.379 387.578C566.627 388.564 566.251 389.995 566.251 391.87V392.383C566.251 394.209 566.627 395.615 567.379 396.602C568.131 397.588 569.205 398.081 570.602 398.081ZM579.229 391.929C579.229 390.376 579.532 388.979 580.138 387.739C580.753 386.499 581.603 385.542 582.687 384.868C583.78 384.194 585.025 383.857 586.422 383.857C588.58 383.857 590.323 384.604 591.651 386.099C592.989 387.593 593.658 389.58 593.658 392.061V392.251C593.658 393.794 593.36 395.181 592.765 396.411C592.179 397.632 591.334 398.584 590.23 399.268C589.137 399.951 587.877 400.293 586.451 400.293C584.303 400.293 582.56 399.546 581.222 398.052C579.894 396.558 579.229 394.58 579.229 392.119V391.929ZM581.954 392.251C581.954 394.009 582.359 395.42 583.17 396.484C583.99 397.549 585.084 398.081 586.451 398.081C587.828 398.081 588.922 397.544 589.732 396.47C590.543 395.386 590.948 393.872 590.948 391.929C590.948 390.19 590.533 388.784 589.703 387.71C588.883 386.626 587.789 386.084 586.422 386.084C585.084 386.084 584.005 386.616 583.185 387.681C582.364 388.745 581.954 390.269 581.954 392.251ZM599.605 384.15L599.679 385.908C600.841 384.541 602.408 383.857 604.381 383.857C606.598 383.857 608.106 384.707 608.907 386.406C609.435 385.645 610.118 385.029 610.958 384.561C611.808 384.092 612.809 383.857 613.961 383.857C617.438 383.857 619.205 385.698 619.264 389.38V400H616.554V389.541C616.554 388.408 616.295 387.563 615.777 387.007C615.26 386.44 614.391 386.157 613.17 386.157C612.164 386.157 611.329 386.46 610.665 387.065C610.001 387.661 609.615 388.467 609.508 389.482V400H606.783V389.614C606.783 387.31 605.655 386.157 603.399 386.157C601.622 386.157 600.406 386.914 599.752 388.428V400H597.042V384.15H599.605Z" fill="#3C3C3C"/>
<rect x="303" y="299" width="43" height="43" rx="2" fill="#3C3C3C"/>
<rect x="303" y="447" width="43" height="43" rx="2" fill="#3C3C3C"/>
<path d="M345.185 386.236C345.513 385.986 346 386.22 346 386.616V403.125C346 405.264 344.194 407 341.969 407H307.031C304.806 407 303 405.264 303 403.125V386.624C303 386.22 303.479 385.994 303.815 386.245C305.696 387.649 308.19 389.433 316.757 395.415C318.529 396.659 321.519 399.274 324.5 399.258C327.498 399.282 330.547 396.61 332.252 395.415C340.818 389.433 343.304 387.641 345.185 386.236ZM324.5 396.667C326.448 396.699 329.254 394.309 330.664 393.324C341.809 385.55 342.657 384.872 345.227 382.935C345.714 382.571 346 382.006 346 381.409V379.875C346 377.736 344.194 376 341.969 376H307.031C304.806 376 303 377.736 303 379.875V381.409C303 382.006 303.286 382.563 303.773 382.935C306.343 384.864 307.191 385.55 318.336 393.324C319.746 394.309 322.552 396.699 324.5 396.667Z" fill="#3C3C3C"/>
<path d="M314.403 309.833C314.403 308.85 314.794 307.907 315.489 307.212C316.184 306.517 317.126 306.127 318.109 306.127H329.227C330.21 306.127 331.152 306.517 331.847 307.212C332.542 307.907 332.933 308.85 332.933 309.833V332.069C332.933 333.052 332.542 333.994 331.847 334.689C331.152 335.384 330.21 335.775 329.227 335.775H318.109C317.126 335.775 316.184 335.384 315.489 334.689C314.794 333.994 314.403 333.052 314.403 332.069V309.833ZM325.521 330.216C325.521 329.724 325.326 329.253 324.978 328.906C324.631 328.558 324.159 328.363 323.668 328.363C323.177 328.363 322.705 328.558 322.358 328.906C322.01 329.253 321.815 329.724 321.815 330.216C321.815 330.707 322.01 331.179 322.358 331.526C322.705 331.874 323.177 332.069 323.668 332.069C324.159 332.069 324.631 331.874 324.978 331.526C325.326 331.179 325.521 330.707 325.521 330.216Z" fill="white"/>
<path d="M311 468.061V468.023C311.339 463.593 312.921 460.271 315.669 458.171C318.381 456.032 321.318 455.001 324.519 455.001C327.87 454.963 330.996 456.108 333.782 458.4C336.607 460.653 338 464.013 338 468.367V468.634C338 473.026 336.607 476.31 333.782 478.563C330.958 480.854 327.833 482 324.481 482H324.331C321.054 481.962 318.042 480.816 315.255 478.525C312.469 476.272 311.038 472.797 311 468.061ZM323.69 462.066V456.032H322.787C322.598 456.261 322.448 456.528 322.297 456.758C322.146 456.987 321.996 457.216 321.845 457.483C321.695 457.712 321.506 458.018 321.393 458.247C321.243 458.476 321.13 458.705 321.017 458.972C320.791 459.354 320.603 459.736 320.452 460.08C320.264 460.424 320.113 460.767 320 461.073C320.226 461.226 320.49 461.417 320.791 461.531C321.13 461.646 321.469 461.76 321.808 461.837C322.184 461.913 322.523 461.951 322.824 461.989C323.163 462.028 323.464 462.066 323.69 462.066ZM325.272 456.032V462.028C325.46 462.028 325.686 462.066 325.912 462.028C326.138 462.028 326.402 461.989 326.628 461.951C327.042 461.875 327.531 461.76 327.908 461.646C328.322 461.493 328.699 461.302 328.962 461.073C328.51 459.965 328.021 459.087 327.531 458.247C327.042 457.407 326.477 456.681 325.874 456.07V456.032H325.272ZM321.205 456.376V456.338C320.941 456.452 320.678 456.643 320.377 456.758C320.113 456.872 319.774 457.025 319.51 457.178C318.983 457.445 318.456 457.75 317.929 458.094C317.439 458.438 316.95 458.82 316.536 459.202C316.686 459.354 316.874 459.507 317.025 459.622C317.176 459.736 317.364 459.889 317.552 460.042C317.703 460.118 317.891 460.233 318.079 460.385C318.268 460.5 318.494 460.653 318.72 460.806C319.021 460.118 319.322 459.393 319.699 458.743C320.075 458.056 320.49 457.407 320.904 456.834C320.941 456.758 320.979 456.681 321.054 456.605C321.092 456.567 321.13 456.452 321.205 456.376ZM332.728 459.202V459.163C331.787 458.438 330.958 457.827 330.13 457.445C329.301 457.063 328.473 456.681 327.72 456.376C328.322 456.987 328.849 457.75 329.188 458.476C329.565 459.24 329.941 460.042 330.243 460.806C330.393 460.729 330.582 460.653 330.808 460.5C330.996 460.385 331.259 460.271 331.485 460.156C331.711 460.004 331.9 459.851 332.126 459.698C332.351 459.507 332.577 459.354 332.728 459.202ZM332.088 467.718H336.418C336.418 466.305 336.117 464.968 335.552 463.593C335.025 462.257 334.272 461.149 333.331 460.195V460.156C333.142 460.462 332.879 460.729 332.615 460.92C332.314 461.111 332.05 461.264 331.749 461.417C331.561 461.531 331.372 461.684 331.184 461.76C330.996 461.875 330.732 461.951 330.544 462.066C330.695 462.371 330.845 462.715 330.996 463.02C331.109 463.364 331.297 463.746 331.372 464.09C331.598 464.701 331.749 465.35 331.9 465.999C332.013 466.572 332.088 467.183 332.088 467.718ZM318.456 462.066V462.028C318.155 461.875 317.816 461.76 317.552 461.607C317.289 461.417 317.025 461.226 316.799 461.073C316.573 460.958 316.347 460.806 316.159 460.653C315.971 460.5 315.82 460.347 315.669 460.195C314.69 461.149 313.975 462.218 313.523 463.479C313.033 464.739 312.695 466.152 312.544 467.679H317.176C317.176 466.61 317.326 465.579 317.59 464.548C317.816 463.479 318.155 462.677 318.456 462.066ZM323.69 467.679V463.288C323.389 463.326 323.013 463.326 322.674 463.288C322.297 463.25 321.921 463.135 321.582 463.02C321.28 462.944 320.904 462.868 320.603 462.753C320.264 462.677 319.925 462.524 319.661 462.371C319.435 462.753 319.247 463.211 319.096 463.708C318.908 464.166 318.795 464.663 318.682 465.121C318.607 465.579 318.569 466.076 318.531 466.496C318.494 466.916 318.456 467.336 318.456 467.679H323.69ZM325.272 463.364V467.679H330.845C330.845 467.45 330.845 467.183 330.808 466.877C330.732 466.61 330.695 466.266 330.657 465.961C330.544 465.503 330.431 465.006 330.28 464.548C330.13 464.128 329.979 463.708 329.791 463.364C329.715 463.173 329.64 462.944 329.565 462.791C329.452 462.6 329.339 462.486 329.264 462.371C328.849 462.677 328.285 462.868 327.607 463.02C326.967 463.173 326.213 463.326 325.536 463.364H325.272ZM317.176 468.94H312.544C312.544 469.589 312.657 470.314 312.845 471.193C313.033 472.109 313.41 472.949 313.824 473.866C314.013 474.324 314.238 474.782 314.464 475.241C314.728 475.661 315.029 476.119 315.331 476.539C315.556 476.386 315.782 476.272 315.971 476.157C316.197 476.043 316.46 475.89 316.686 475.775C316.95 475.661 317.213 475.546 317.515 475.393C317.778 475.279 318.117 475.126 318.456 474.973C318.155 474.019 317.816 473.102 317.59 472.071C317.326 471.078 317.176 470.085 317.176 468.978V468.94ZM323.69 473.408V468.94H318.456C318.456 469.245 318.494 469.703 318.569 470.162C318.607 470.62 318.72 471.116 318.795 471.613C318.946 472.147 319.059 472.682 319.209 473.14C319.36 473.599 319.51 473.98 319.661 474.324C320.339 474.057 321.017 473.866 321.469 473.751C321.958 473.599 322.41 473.484 322.862 473.446H323.276C323.427 473.408 323.577 473.408 323.69 473.408ZM325.272 468.94V473.369C325.536 473.408 325.837 473.446 326.138 473.484C326.477 473.522 326.891 473.599 327.23 473.675L327.795 473.79C327.983 473.866 328.209 473.904 328.397 473.942C328.623 474.019 328.849 474.057 329.075 474.133C329.264 474.21 329.452 474.248 329.603 474.324C330.092 473.064 330.393 472.033 330.582 471.155C330.77 470.314 330.845 469.589 330.845 468.978V468.94H325.272ZM336.418 468.978V468.94H332.088V469.169C332.05 469.894 331.937 470.734 331.787 471.613C331.636 472.453 331.297 473.446 330.845 474.668C331.448 474.973 332.013 475.279 332.464 475.584C332.916 475.89 333.331 476.234 333.632 476.539C334.272 475.89 334.837 475.012 335.326 473.866C335.816 472.758 336.155 471.613 336.343 470.391C336.381 470.162 336.381 469.933 336.418 469.703V468.978ZM323.69 480.587V474.63C322.749 474.782 321.958 474.973 321.356 475.126C320.753 475.279 320.301 475.432 320 475.584C320.226 476.157 320.452 476.654 320.678 477.112C320.904 477.532 321.167 477.99 321.393 478.372C321.469 478.525 321.619 478.678 321.732 478.869C321.845 479.021 321.921 479.212 322.033 479.365C322.146 479.556 322.259 479.785 322.372 480.014C322.523 480.205 322.636 480.434 322.787 480.587H323.69ZM325.272 480.587H326.138C326.477 480.32 326.816 479.938 327.079 479.518C327.381 479.098 327.72 478.601 327.946 478.181C328.209 477.685 328.473 477.226 328.699 476.768C328.925 476.31 329.113 475.89 329.264 475.584C328.849 475.432 328.285 475.279 327.72 475.126C327.155 474.973 326.364 474.821 325.272 474.668V480.587ZM332.728 477.456V477.417C332.653 477.303 332.502 477.15 332.389 477.036C332.276 476.921 332.088 476.768 331.9 476.654C331.749 476.539 331.561 476.425 331.335 476.31C331.109 476.195 330.808 476.043 330.544 475.89C330.393 476.195 330.13 476.73 329.753 477.456C329.414 478.181 328.812 479.06 328.059 480.014C329 479.861 329.828 479.518 330.582 479.06C331.41 478.639 332.126 478.067 332.728 477.456ZM318.72 476.234V476.195C318.456 476.348 318.042 476.539 317.628 476.73C317.176 476.921 316.686 477.15 316.234 477.456C316.498 477.685 316.762 477.914 316.987 478.067C317.213 478.258 317.477 478.41 317.703 478.563C318.117 478.83 318.607 479.098 319.096 479.327C319.586 479.556 320.188 479.785 320.941 480.014C320.678 479.709 320.49 479.327 320.301 479.021C320.113 478.716 319.887 478.41 319.699 478.105C319.51 477.799 319.36 477.456 319.209 477.15C319.021 476.845 318.87 476.539 318.72 476.234Z" fill="white"/>
<path d="M1185.32 89.2955L1135.44 207.259C1131.69 216.127 1125.66 223.851 1117.98 229.659C1110.3 235.466 1101.23 239.152 1091.67 240.347L1081.94 241.544L1081.89 241.568L1081.85 241.55C1081.8 241.533 1081.75 241.557 1081.65 241.563L938.964 259.277C929.401 260.451 919.698 259.094 910.823 255.341C901.949 251.589 894.216 245.573 888.396 237.895L795.676 115.189C789.195 106.62 785.387 96.329 784.728 85.6057C784.72 85.4986 784.7 85.3931 784.668 85.2907C784.671 85.2363 784.66 85.1827 784.638 85.1332L784.655 85.0923C784.641 85.0611 784.639 85.0259 784.649 84.9931C784.194 76.6848 785.641 68.3824 788.88 60.7185L838.033 -55.5252C838.941 -57.7274 840.032 -59.8493 841.294 -61.8687C844.848 -10.9043 866.701 37.059 902.827 73.183L902.377 74.2476L941.734 126.365C946.353 132.468 952.495 137.25 959.545 140.231C966.595 143.212 974.305 144.287 981.901 143.349L1046.71 135.277L1046.83 134.991C1097.44 136.262 1146.83 119.379 1186.08 87.3947C1185.84 88.0671 1185.59 88.6608 1185.32 89.2955Z" fill="#CCCBCB" fill-opacity="0.33"/>
<path d="M939.894 -14.4819L902.826 73.182C866.7 37.058 844.848 -10.9053 841.294 -61.8697C842.416 -63.849 843.658 -65.7573 845.014 -67.585C848.435 -72.204 852.534 -76.2798 857.172 -79.6747C864.233 -85.0016 872.488 -88.5248 881.219 -89.9384C889.95 -91.352 898.895 -90.6133 907.276 -87.7865C914.383 -85.3243 920.91 -81.4286 926.45 -76.341C931.991 -71.2533 936.428 -65.0822 939.486 -58.2096C942.544 -51.3372 944.158 -43.91 944.229 -36.3881C944.299 -28.8663 942.823 -21.4104 939.894 -14.4819Z" fill="#CCCBCB" fill-opacity="0.33"/>
<path d="M1186.07 87.415C1146.82 119.399 1097.43 136.282 1046.82 135.011L1083.49 48.2888C1088.85 35.1736 1098.97 24.5659 1111.81 18.5879C1124.66 12.6098 1139.29 11.7019 1152.77 16.0458C1162.25 19.3147 1170.65 25.1188 1177.05 32.8271C1177.06 32.8317 1177.07 32.8404 1177.08 32.8514C1177.08 32.8623 1177.08 32.8745 1177.07 32.8853C1177.1 32.9232 1177.14 32.9551 1177.18 32.9783C1182.35 39.2911 1186.06 46.6741 1188.02 54.5933C1189.99 62.5124 1190.18 70.7703 1188.56 78.7694C1187.98 81.7164 1187.14 84.6086 1186.07 87.415Z" fill="#CCCBCB" fill-opacity="0.33"/>
<g style="mix-blend-mode:multiply" opacity="0.08">
<g style="mix-blend-mode:multiply" opacity="0.08">
<path d="M919.803 33.0339L902.818 73.2012C866.692 37.0772 844.839 -10.886 841.286 -61.8504C842.408 -63.8297 843.65 -65.7385 845.005 -67.5658C859.642 -42.939 886.688 -1.14355 919.803 33.0339Z" fill="#CCCBCB" fill-opacity="0.33"/>
</g>
</g>
<g style="mix-blend-mode:multiply" opacity="0.08">
<g style="mix-blend-mode:multiply" opacity="0.08">
<path d="M1186.07 87.4156C1146.82 119.4 1097.43 136.283 1046.82 135.012L1064.06 94.23C1106 93.5717 1147.74 88.3885 1188.56 78.7699C1187.98 81.717 1187.14 84.609 1186.07 87.4156Z" fill="#CCCBCB" fill-opacity="0.33"/>
</g>
</g>
<g style="mix-blend-mode:screen" opacity="0.4">
<g style="mix-blend-mode:screen" opacity="0.4">
<path d="M1123.22 201.922L1123.15 202.085C1120.29 208.788 1115.73 214.626 1109.92 219.019C1104.11 223.413 1097.25 226.207 1090.02 227.125L937.314 246.054C930.074 246.946 922.727 245.92 916.008 243.079C909.289 240.238 903.435 235.682 899.03 229.866L826.914 134.455L826.673 134.112L806.31 107.16C802.263 101.789 799.574 95.519 798.472 88.8845C797.369 82.2499 797.886 75.4473 799.979 69.0556C831.846 120.858 878.855 161.622 934.647 185.835C990.438 210.047 1052.32 216.54 1111.92 204.434L1112.45 204.321L1112.71 204.284C1116.27 203.569 1119.72 202.762 1123.22 201.922Z" fill="#CCCBCB" fill-opacity="0.33"/>
</g>
</g>
<g style="mix-blend-mode:screen" opacity="0.6">
<g style="mix-blend-mode:screen" opacity="0.6">
<path d="M784.649 85.1104C784.672 85.1683 784.655 85.209 784.661 85.3076C784.664 85.254 784.654 85.2003 784.631 85.1511L784.649 85.1104Z" fill="#CCCBCB" fill-opacity="0.33"/>
</g>
</g>
<g style="mix-blend-mode:multiply" opacity="0.25">
<g style="mix-blend-mode:multiply" opacity="0.25">
<path d="M1081.64 241.579L938.957 259.292C929.394 260.466 919.691 259.11 910.817 255.357C901.942 251.605 894.209 245.589 888.39 237.91L795.67 115.204C789.188 106.635 785.38 96.3448 784.721 85.6211C784.806 86.3328 785.005 87.5752 785.334 89.3073C786.189 93.2821 787.443 97.1604 789.08 100.882C791.63 106.583 795.079 111.839 799.295 116.447C804.039 122.122 809.388 128.534 815.078 135.622C826.652 149.687 839.919 166.253 853.928 184.146C860.894 193.125 868.212 202.301 875.433 211.822C879.063 216.591 882.694 221.36 886.365 226.146L891.864 233.346C893.517 235.582 895.336 237.691 897.306 239.653C904.991 247.465 915.062 252.488 925.925 253.927C931.371 254.586 936.882 254.497 942.304 253.661C948.12 253.031 953.838 252.408 959.497 251.808C982.135 249.41 1003.26 247.387 1021.37 245.875C1055.42 242.87 1078.85 241.677 1081.64 241.579Z" fill="#CCCBCB" fill-opacity="0.33"/>
</g>
</g>
<g style="mix-blend-mode:multiply" opacity="0.25">
<g style="mix-blend-mode:multiply" opacity="0.25">
<path d="M1186.07 87.4127L1178.97 93.5822L1171.56 99.473L1163.88 104.962L1155.92 110.091L1147.69 114.818L1139.27 119.22L1130.59 123.179L1121.76 126.73L1112.75 129.873L1103.58 132.609L1094.31 134.913L1084.92 136.785L1075.43 138.226L1065.88 139.253L1056.29 139.784L1049.46 139.841L1047.31 140.137C1032.75 142.14 1018.2 144.242 1003.62 146.087L981.645 148.862C973.382 149.764 965.025 148.556 957.356 145.349C953.55 143.718 949.963 141.617 946.678 139.096C945.053 137.825 943.503 136.46 942.035 135.009C940.591 133.573 939.236 132.049 937.98 130.446L924.637 112.69C915.8 100.941 907.174 89.04 898.454 77.2441L896.732 74.9234L897.044 74.1864L892.725 69.5608L886.478 62.1894L880.61 54.4951L875.084 46.5598L869.96 38.3598L865.162 29.9598L860.83 21.3708L856.923 12.5754L853.406 3.65551L850.315 -5.47078L847.696 -14.6869L845.45 -23.9865L843.735 -33.3996L842.417 -42.8381L841.612 -52.349L841.285 -61.8506L842.662 -52.4358L844.446 -43.1865L846.587 -33.9797L849.076 -24.9147L851.957 -15.9743L855.187 -7.17553L858.824 1.45772L862.73 9.91456L867.043 18.206L871.74 26.2738L876.664 34.1478L881.99 41.7572L887.6 49.1492L893.554 56.3002L899.769 63.1756L904.878 68.3286L902.368 74.2656L941.725 126.383C946.344 132.486 952.486 137.268 959.536 140.249C966.586 143.23 974.296 144.305 981.892 143.367L1046.7 135.295L1048.86 130.177L1056.14 130.311L1065.31 130.086L1074.48 129.522L1083.64 128.52L1092.73 127.104L1101.79 125.332L1110.79 123.205L1119.68 120.687L1128.45 117.737L1137.13 114.455L1145.71 110.841L1154.11 106.819L1162.37 102.489L1170.43 97.7915L1178.36 92.7446L1186.07 87.4127Z" fill="#CCCBCB" fill-opacity="0.33"/>
</g>
</g>
<g style="mix-blend-mode:screen" opacity="0.4">
<g style="mix-blend-mode:screen" opacity="0.4">
<path d="M1111.92 204.43L1101.66 206.797L1090.47 208.824C1082.93 209.982 1075.39 210.88 1067.85 211.52C1060.26 212.123 1052.65 212.382 1045.03 212.296C1037.41 212.211 1029.8 211.858 1022.21 211.239C1007 210.014 991.911 207.509 977.114 203.753C969.686 201.915 962.355 199.733 955.088 197.287C947.68 194.83 940.796 192.161 933.689 189.108C926.647 186.13 919.742 182.824 912.925 179.314L902.852 173.8L893.034 167.911L883.448 161.589L874.099 154.933L865.047 147.92L856.266 140.49L847.806 132.762L839.682 124.693L831.836 116.308L824.352 107.641L817.303 98.6272L810.557 89.3552L804.195 79.8596L800.729 74.2433C798.554 84.4277 800.298 95.0578 805.614 104.013C807.255 106.638 809.082 109.052 810.881 111.646L816.282 119.191L826.675 134.108L806.312 107.156C802.265 101.785 799.575 95.5152 798.473 88.8807C797.371 82.2461 797.888 75.4435 799.98 69.0518C831.848 120.854 878.857 161.618 934.649 185.831C990.44 210.043 1052.32 216.536 1111.92 204.43Z" fill="#CCCBCB" fill-opacity="0.33"/>
</g>
</g>
<g style="mix-blend-mode:screen" opacity="0.5">
<g style="mix-blend-mode:screen" opacity="0.5">
<path d="M939.897 -14.481L923.328 24.7037C923.328 24.7037 926.455 13.4283 932.282 -2.9795C933.675 -7.07239 935.282 -11.5574 936.999 -16.1889C938.583 -20.8052 939.59 -25.6002 939.995 -30.4641C940.773 -40.9767 938.434 -51.4854 933.269 -60.6747C930.649 -65.2914 927.375 -69.5048 923.548 -73.1836C919.788 -76.6348 915.61 -79.6012 911.112 -82.0136C909.843 -82.5503 908.632 -83.1106 907.404 -83.63L905.783 -84.3635L904.052 -84.9505C901.815 -85.7617 899.516 -86.3948 897.179 -86.8435C892.823 -87.6819 888.382 -87.9877 883.953 -87.7542C877.16 -87.3487 870.488 -85.7781 864.227 -83.1112C861.921 -82.1077 860.121 -81.2759 858.928 -80.6222C858.043 -80.1276 857.425 -79.8093 857.175 -79.6738C864.236 -85.0007 872.49 -88.5239 881.222 -89.9375C889.953 -91.3511 898.897 -90.6124 907.278 -87.7855C914.386 -85.3234 920.912 -81.4278 926.453 -76.3401C931.994 -71.2525 936.431 -65.0812 939.489 -58.2087C942.547 -51.3363 944.161 -43.9091 944.231 -36.3873C944.301 -28.8655 942.826 -21.4095 939.897 -14.481Z" fill="#CCCBCB" fill-opacity="0.33"/>
</g>
</g>
</g>
<defs>
<clipPath id="clip0">
<rect width="1050" height="600" fill="white"/>
</clipPath>
</defs>
</svg>
