<svg width="1050" height="600" viewBox="0 0 1050 600" fill="none" xmlns="http://www.w3.org/2000/svg">
<rect width="1050" height="600" fill="#1D191A"/>
<rect y="356" width="1050" height="80" fill="#FFC739"/>
<path d="M613.21 122.727V182.706C613.207 187.216 612.019 191.646 609.765 195.552C607.51 199.458 604.269 202.702 600.365 204.961L596.389 207.251L596.368 207.272H596.347C596.326 207.272 596.305 207.293 596.264 207.313L537.951 240.977C534.04 243.228 529.607 244.412 525.095 244.412C520.583 244.412 516.15 243.228 512.24 240.977L449.867 204.961C445.508 202.447 441.989 198.703 439.749 194.198C439.726 194.153 439.698 194.111 439.666 194.073C439.657 194.049 439.643 194.028 439.624 194.01V193.989C439.612 193.979 439.605 193.964 439.603 193.948C437.892 190.447 437.002 186.602 437.001 182.706V123.601C436.991 122.486 437.074 121.372 437.251 120.271C448.079 141.605 466.252 158.307 488.423 167.3V167.841L514.904 183.143C518.01 184.933 521.531 185.875 525.116 185.875C528.7 185.875 532.222 184.933 535.327 183.143L561.809 167.841V167.695C583.87 159.013 602.096 142.722 613.189 121.769C613.21 122.103 613.21 122.404 613.21 122.727Z" fill="#FFC739"/>
<path d="M488.423 122.726V167.299C466.252 158.307 448.078 141.604 437.25 120.27C437.373 119.211 437.561 118.162 437.812 117.126C438.446 114.51 439.47 112.004 440.852 109.694C442.926 106.108 445.844 103.083 449.352 100.881C452.86 98.6789 456.853 97.3663 460.984 97.057C464.498 96.8227 468.024 97.3127 471.342 98.4966C474.66 99.6805 477.699 101.533 480.271 103.94C482.844 106.346 484.894 109.255 486.297 112.487C487.699 115.719 488.422 119.204 488.423 122.726Z" fill="url(#paint0_linear)"/>
<path d="M613.189 121.779C602.096 142.732 583.87 159.023 561.809 167.705V123.611C561.729 116.976 564.158 110.556 568.608 105.634C573.059 100.713 579.203 97.6531 585.813 97.0671C590.496 96.749 595.176 97.7211 599.345 99.8776C599.35 99.8776 599.356 99.8798 599.36 99.8837C599.364 99.8876 599.366 99.8929 599.366 99.8984C599.385 99.9096 599.406 99.9167 599.428 99.9192C602.81 101.699 605.754 104.208 608.047 107.265C610.341 110.322 611.927 113.85 612.69 117.594C612.974 118.973 613.141 120.372 613.189 121.779Z" fill="url(#paint1_linear)"/>
<g style="mix-blend-mode:multiply" opacity="0.08">
<g style="mix-blend-mode:multiply" opacity="0.08">
<path d="M488.423 146.885V167.309C466.252 158.316 448.078 141.613 437.25 120.279C437.373 119.221 437.561 118.171 437.812 117.135C448.617 125.088 467.906 138.183 488.423 146.885Z" fill="black"/>
</g>
</g>
<g style="mix-blend-mode:multiply" opacity="0.08">
<g style="mix-blend-mode:multiply" opacity="0.08">
<path d="M613.189 121.78C602.096 142.733 583.87 159.023 561.808 167.706V146.97C579.776 139.038 596.835 129.189 612.689 117.595C612.973 118.973 613.14 120.373 613.189 121.78Z" fill="black"/>
</g>
</g>
<g style="mix-blend-mode:screen" opacity="0.4">
<g style="mix-blend-mode:screen" opacity="0.4">
<path d="M606.965 182.633V182.716C606.956 186.128 606.054 189.478 604.348 192.433C602.642 195.388 600.192 197.844 597.242 199.558L534.828 235.575C531.868 237.28 528.511 238.177 525.095 238.177C521.679 238.177 518.323 237.28 515.363 235.575L466.855 207.573L466.689 207.469L452.99 199.558C450.264 197.98 447.961 195.766 446.275 193.105C444.59 190.444 443.572 187.416 443.309 184.277C466.502 200.809 494.214 209.818 522.694 210.086C551.175 210.355 579.051 201.868 602.551 185.776L602.759 185.631L602.864 185.568C604.269 184.611 605.612 183.632 606.965 182.633Z" fill="white"/>
</g>
</g>
<g style="mix-blend-mode:screen" opacity="0.6">
<g style="mix-blend-mode:screen" opacity="0.6">
<path d="M439.625 193.998C439.646 194.019 439.645 194.04 439.667 194.082C439.658 194.058 439.643 194.036 439.625 194.019V193.998Z" fill="white"/>
</g>
</g>
<g style="mix-blend-mode:multiply" opacity="0.25">
<g style="mix-blend-mode:multiply" opacity="0.25">
<path d="M596.265 207.321L537.951 240.985C534.041 243.235 529.608 244.42 525.096 244.42C520.584 244.42 516.151 243.235 512.24 240.985L449.868 204.969C445.509 202.455 441.99 198.711 439.75 194.205C439.916 194.497 440.229 194.996 440.687 195.683C441.78 197.242 443.028 198.686 444.413 199.993C446.553 201.987 448.999 203.625 451.658 204.844C454.739 206.426 458.216 208.216 461.963 210.236C469.52 214.191 478.264 218.917 487.57 224.08C492.213 226.682 497.043 229.306 501.893 232.095C504.329 233.49 506.765 234.885 509.222 236.28L512.907 238.383C514.027 239.046 515.196 239.623 516.404 240.111C521.143 242.078 526.404 242.408 531.352 241.047C533.821 240.338 536.182 239.295 538.368 237.945C540.762 236.613 543.114 235.301 545.446 234.011C554.773 228.848 563.517 224.122 571.053 220.166C585.189 212.661 595.078 207.873 596.265 207.321Z" fill="black"/>
</g>
</g>
<g style="mix-blend-mode:multiply" opacity="0.25">
<g style="mix-blend-mode:multiply" opacity="0.25">
<path d="M613.189 121.778L611.253 125.733L609.129 129.626L606.818 133.394L604.32 137.058L601.635 140.598L598.803 144.033L595.785 147.322L592.62 150.466L589.31 153.464L585.854 156.316L582.273 159.001L578.567 161.52L574.737 163.873L570.802 166.059L566.763 168.037L563.828 169.307L562.953 169.827C557.041 173.345 551.149 176.905 545.195 180.361L536.222 185.566C532.823 187.462 528.998 188.465 525.105 188.481C523.166 188.471 521.236 188.219 519.359 187.731C518.426 187.479 517.509 187.173 516.611 186.815C515.726 186.459 514.864 186.049 514.03 185.587L505.036 180.361C499.082 176.905 493.19 173.345 487.278 169.848L486.112 169.161V168.786L483.405 167.579L479.366 165.538L475.432 163.29L471.601 160.875L467.895 158.273L464.294 155.525L460.859 152.61L457.569 149.529L454.426 146.323L451.428 142.95L448.617 139.453L445.952 135.851L443.496 132.104L441.206 128.273L439.124 124.317L437.25 120.279L439.561 124.088L442.018 127.752L444.62 131.333L447.347 134.789L450.22 138.12L453.218 141.326L456.362 144.387L459.589 147.322L462.961 150.112L466.459 152.735L470.019 155.233L473.704 157.544L477.472 159.709L481.344 161.708L485.279 163.54L488.423 164.831V167.849L514.904 183.151C518.009 184.941 521.531 185.883 525.116 185.883C528.7 185.883 532.222 184.941 535.327 183.151L561.808 167.849V165.247L564.973 163.977L568.887 162.207L572.738 160.292L576.506 158.189L580.171 155.92L583.751 153.505L587.249 150.944L590.621 148.238L593.869 145.365L597.013 142.367L600.052 139.244L602.946 135.976L605.715 132.603L608.338 129.106L610.836 125.483L613.189 121.778Z" fill="black"/>
</g>
</g>
<g style="mix-blend-mode:screen" opacity="0.4">
<g style="mix-blend-mode:screen" opacity="0.4">
<path d="M602.551 185.775L598.554 188.669L594.099 191.583C591.059 193.457 587.971 195.22 584.835 196.871C581.67 198.516 578.436 200.015 575.133 201.368C571.83 202.721 568.485 203.956 565.098 205.074C558.311 207.32 551.347 208.992 544.28 210.07C540.741 210.632 537.181 211.028 533.6 211.299C529.956 211.59 526.501 211.694 522.878 211.673C519.297 211.673 515.717 211.507 512.136 211.236L506.785 210.695L501.477 209.945L496.189 208.967L490.942 207.801L485.758 206.427L480.616 204.824L475.557 203.034L470.582 201.035L465.668 198.849L460.859 196.476L456.175 193.873L451.574 191.104L447.098 188.169L444.579 186.379C445.498 191.168 448.189 195.435 452.115 198.328C453.302 199.161 454.53 199.869 455.779 200.66L459.485 202.929L466.689 207.468L452.99 199.557C450.264 197.978 447.961 195.764 446.275 193.104C444.59 190.443 443.572 187.415 443.309 184.276C466.502 200.808 494.214 209.817 522.694 210.085C551.175 210.353 579.051 201.867 602.551 185.775Z" fill="white"/>
</g>
</g>
<g style="mix-blend-mode:screen" opacity="0.5">
<g style="mix-blend-mode:screen" opacity="0.5">
<path d="M488.423 122.726V142.65C488.423 142.65 487.716 137.216 487.237 129.076C487.091 127.057 486.966 124.829 486.862 122.518C486.703 120.238 486.263 117.986 485.55 115.815C483.969 111.138 481.043 107.032 477.14 104.01C475.168 102.497 472.987 101.277 470.665 100.388C468.414 99.5851 466.071 99.0676 463.691 98.8474C463.045 98.8474 462.421 98.8265 461.796 98.8265L460.964 98.8057L460.11 98.8682C458.997 98.9264 457.89 99.0726 456.8 99.3054C454.768 99.7381 452.797 100.416 450.929 101.325C448.073 102.739 445.482 104.633 443.268 106.925C442.456 107.779 441.831 108.466 441.436 108.965C441.144 109.34 440.936 109.59 440.853 109.694C442.927 106.108 445.845 103.083 449.353 100.881C452.861 98.6789 456.854 97.3663 460.984 97.057C464.499 96.8227 468.025 97.3127 471.343 98.4966C474.66 99.6805 477.7 101.533 480.272 103.94C482.844 106.346 484.895 109.255 486.297 112.487C487.7 115.719 488.423 119.204 488.423 122.726Z" fill="white"/>
</g>
</g>
<g style="mix-blend-mode:screen" opacity="0.5">
<g style="mix-blend-mode:screen" opacity="0.5">
<path d="M599.345 99.8776C599.095 99.7943 598.179 99.5029 596.722 99.1489C594.397 98.5846 592.014 98.298 589.623 98.2954C588.058 98.303 586.498 98.4493 584.959 98.7326C584.128 98.8626 583.307 99.0504 582.503 99.2947C582.107 99.4196 581.691 99.5237 581.274 99.6486C580.858 99.7735 580.441 99.9609 580.025 100.107C578.349 100.789 576.739 101.626 575.216 102.605C573.668 103.648 572.237 104.856 570.948 106.206C569.63 107.53 568.464 108.996 567.471 110.578C566.497 112.126 565.674 113.764 565.015 115.471C564.688 116.279 564.41 117.106 564.182 117.948C563.934 118.739 563.739 119.546 563.599 120.363C563.429 121.175 563.304 121.995 563.224 122.82L563.162 123.424C563.141 123.507 563.12 123.673 563.12 123.673L563.1 123.965C563.058 124.36 563.037 124.756 562.995 125.131C562.496 131.251 561.809 135.311 561.809 135.311V123.611C561.729 116.976 564.158 110.556 568.608 105.634C573.059 100.713 579.203 97.6531 585.813 97.0671C590.496 96.749 595.176 97.7211 599.345 99.8776Z" fill="white"/>
</g>
</g>
<path d="M352.663 321.916C352.256 325.66 350.913 328.524 348.635 330.51C346.372 332.495 343.353 333.488 339.577 333.488C336.94 333.488 334.605 332.829 332.57 331.511C330.552 330.192 328.99 328.329 327.883 325.92C326.776 323.495 326.215 320.728 326.198 317.619V313.005C326.198 309.847 326.752 307.048 327.858 304.606C328.965 302.165 330.552 300.285 332.619 298.967C334.702 297.632 337.095 296.965 339.797 296.965C343.605 296.965 346.608 297.998 348.806 300.065C351.019 302.116 352.305 304.956 352.663 308.586H349.636C348.887 302.548 345.607 299.528 339.797 299.528C336.574 299.528 334.003 300.733 332.082 303.142C330.178 305.55 329.226 308.879 329.226 313.127V317.473C329.226 321.574 330.153 324.846 332.009 327.287C333.881 329.729 336.403 330.949 339.577 330.949C342.718 330.949 345.087 330.201 346.682 328.703C348.277 327.189 349.261 324.927 349.636 321.916H352.663ZM386.232 317.155C386.232 320.427 385.663 323.299 384.523 325.773C383.4 328.247 381.789 330.152 379.689 331.486C377.59 332.821 375.165 333.488 372.414 333.488C368.264 333.488 364.911 332.007 362.355 329.045C359.8 326.066 358.522 322.054 358.522 317.009V313.347C358.522 310.108 359.092 307.243 360.231 304.753C361.387 302.246 363.015 300.326 365.114 298.991C367.214 297.64 369.631 296.965 372.365 296.965C375.1 296.965 377.508 297.624 379.592 298.942C381.691 300.261 383.311 302.124 384.45 304.533C385.59 306.942 386.184 309.733 386.232 312.907V317.155ZM383.229 313.298C383.229 309.017 382.261 305.664 380.324 303.239C378.387 300.814 375.734 299.602 372.365 299.602C369.061 299.602 366.424 300.822 364.455 303.264C362.502 305.689 361.525 309.082 361.525 313.444V317.155C361.525 321.371 362.502 324.715 364.455 327.189C366.408 329.647 369.061 330.876 372.414 330.876C375.816 330.876 378.469 329.663 380.373 327.238C382.277 324.797 383.229 321.403 383.229 317.058V313.298ZM397.78 297.453L410.891 328.825L424.05 297.453H428.054V333H425.051V317.521L425.295 301.652L412.062 333H409.743L396.56 301.774L396.804 317.424V333H393.801V297.453H397.78ZM440.065 318.522V333H437.062V297.453H449.172C452.867 297.453 455.78 298.397 457.912 300.285C460.061 302.173 461.135 304.769 461.135 308.073C461.135 311.41 460.101 313.99 458.034 315.812C455.983 317.619 453.005 318.522 449.099 318.522H440.065ZM440.065 315.983H449.172C452.085 315.983 454.307 315.292 455.837 313.908C457.367 312.525 458.132 310.596 458.132 308.122C458.132 305.664 457.367 303.711 455.837 302.263C454.323 300.798 452.167 300.049 449.367 300.017H440.065V315.983ZM483.693 323.039H467.556L463.894 333H460.744L474.196 297.453H477.053L490.505 333H487.38L483.693 323.039ZM468.483 320.476H482.741L475.612 301.115L468.483 320.476ZM522.219 333H519.216L498.781 302.58V333H495.754V297.453H498.781L519.24 327.897V297.453H522.219V333ZM540.993 316.838L551.857 297.453H555.324L542.482 319.621V333H539.479V319.621L526.662 297.453H530.227L540.993 316.838Z" fill="#F7B717"/>
<path d="M390.636 469.243L391.295 472.554L392.101 469.39L396.729 453.672H398.355L402.926 469.39L403.717 472.583L404.42 469.243L408.272 453.672H410.118L404.654 475H402.926L398.092 458.315L397.55 456.206L397.022 458.315L392.071 475H390.343L384.894 453.672H386.739L390.636 469.243ZM417.53 469.243L418.189 472.554L418.995 469.39L423.624 453.672H425.25L429.82 469.39L430.611 472.583L431.314 469.243L435.167 453.672H437.013L431.549 475H429.82L424.986 458.315L424.444 456.206L423.917 458.315L418.966 475H417.237L411.788 453.672H413.634L417.53 469.243ZM444.425 469.243L445.084 472.554L445.89 469.39L450.519 453.672H452.145L456.715 469.39L457.506 472.583L458.209 469.243L462.062 453.672H463.907L458.443 475H456.715L451.881 458.315L451.339 456.206L450.812 458.315L445.86 475H444.132L438.683 453.672H440.528L444.425 469.243ZM464.991 473.945C464.991 473.604 465.099 473.315 465.313 473.081C465.538 472.837 465.846 472.715 466.236 472.715C466.627 472.715 466.935 472.837 467.159 473.081C467.384 473.315 467.496 473.604 467.496 473.945C467.496 474.287 467.384 474.57 467.159 474.795C466.935 475.01 466.627 475.117 466.236 475.117C465.846 475.117 465.538 475.01 465.313 474.795C465.099 474.57 464.991 474.287 464.991 473.945ZM476.681 469.243L477.34 472.554L478.146 469.39L482.774 453.672H484.4L488.971 469.39L489.762 472.583L490.465 469.243L494.317 453.672H496.163L490.699 475H488.971L484.137 458.315L483.595 456.206L483.067 458.315L478.116 475H476.388L470.938 453.672H472.784L476.681 469.243ZM511.412 464.775H501.437V473.477H512.906V475H499.635V453.672H512.833V455.21H501.437V463.252H511.412V464.775ZM516.715 475V453.672H523.014C525.299 453.672 527.032 454.146 528.214 455.093C529.396 456.03 529.986 457.417 529.986 459.253C529.986 460.356 529.684 461.318 529.078 462.139C528.482 462.949 527.662 463.53 526.617 463.882C527.857 464.155 528.854 464.766 529.605 465.713C530.367 466.66 530.748 467.754 530.748 468.994C530.748 470.879 530.138 472.354 528.917 473.418C527.706 474.473 526.017 475 523.849 475H516.715ZM518.517 464.746V473.477H523.922C525.465 473.477 526.686 473.086 527.584 472.305C528.492 471.514 528.946 470.42 528.946 469.023C528.946 467.705 528.512 466.665 527.643 465.903C526.783 465.132 525.592 464.746 524.068 464.746H518.517ZM518.517 463.237H523.438C524.942 463.208 526.104 462.856 526.925 462.183C527.755 461.499 528.17 460.508 528.17 459.209C528.17 457.842 527.74 456.836 526.881 456.191C526.031 455.537 524.742 455.21 523.014 455.21H518.517V463.237ZM547.184 469.756C547.184 468.574 546.769 467.642 545.938 466.958C545.108 466.265 543.59 465.61 541.383 464.995C539.176 464.37 537.564 463.691 536.549 462.959C535.104 461.924 534.381 460.566 534.381 458.887C534.381 457.256 535.05 455.933 536.388 454.917C537.735 453.892 539.454 453.379 541.544 453.379C542.96 453.379 544.225 453.652 545.338 454.199C546.461 454.746 547.33 455.508 547.945 456.484C548.561 457.461 548.868 458.55 548.868 459.751H547.052C547.052 458.296 546.554 457.129 545.558 456.25C544.562 455.361 543.224 454.917 541.544 454.917C539.913 454.917 538.614 455.283 537.647 456.016C536.681 456.738 536.197 457.686 536.197 458.857C536.197 459.941 536.632 460.825 537.501 461.509C538.37 462.192 539.762 462.798 541.676 463.325C543.59 463.843 545.04 464.385 546.026 464.951C547.013 465.508 547.755 466.177 548.253 466.958C548.751 467.739 549 468.662 549 469.727C549 471.406 548.326 472.754 546.979 473.77C545.641 474.785 543.873 475.293 541.676 475.293C540.172 475.293 538.79 475.024 537.53 474.487C536.28 473.95 535.328 473.198 534.674 472.231C534.029 471.265 533.707 470.156 533.707 468.906H535.509C535.509 470.41 536.07 471.597 537.193 472.466C538.316 473.335 539.811 473.77 541.676 473.77C543.336 473.77 544.669 473.403 545.675 472.671C546.681 471.938 547.184 470.967 547.184 469.756ZM555.094 475H553.292V453.672H555.094V475ZM574.928 455.21H567.618V475H565.816V455.21H558.521V453.672H574.928V455.21ZM590.162 464.775H580.187V473.477H591.656V475H578.385V453.672H591.583V455.21H580.187V463.252H590.162V464.775ZM594.894 473.945C594.894 473.604 595.001 473.315 595.216 473.081C595.44 472.837 595.748 472.715 596.139 472.715C596.529 472.715 596.837 472.837 597.062 473.081C597.286 473.315 597.398 473.604 597.398 473.945C597.398 474.287 597.286 474.57 597.062 474.795C596.837 475.01 596.529 475.117 596.139 475.117C595.748 475.117 595.44 475.01 595.216 474.795C595.001 474.57 594.894 474.287 594.894 473.945ZM617.745 468.35C617.501 470.596 616.695 472.314 615.328 473.506C613.971 474.697 612.159 475.293 609.894 475.293C608.312 475.293 606.91 474.897 605.689 474.106C604.479 473.315 603.541 472.197 602.877 470.752C602.213 469.297 601.876 467.637 601.866 465.771V463.003C601.866 461.108 602.198 459.429 602.862 457.964C603.526 456.499 604.479 455.371 605.719 454.58C606.969 453.779 608.404 453.379 610.025 453.379C612.311 453.379 614.112 453.999 615.431 455.239C616.759 456.47 617.53 458.174 617.745 460.352H615.929C615.479 456.729 613.512 454.917 610.025 454.917C608.092 454.917 606.549 455.64 605.396 457.085C604.254 458.53 603.683 460.527 603.683 463.076V465.684C603.683 468.145 604.239 470.107 605.353 471.572C606.476 473.037 607.989 473.77 609.894 473.77C611.778 473.77 613.199 473.32 614.156 472.422C615.113 471.514 615.704 470.156 615.929 468.35H617.745ZM637.887 465.493C637.887 467.456 637.545 469.18 636.861 470.664C636.188 472.148 635.221 473.291 633.961 474.092C632.701 474.893 631.246 475.293 629.596 475.293C627.105 475.293 625.094 474.404 623.561 472.627C622.027 470.84 621.261 468.433 621.261 465.405V463.208C621.261 461.265 621.603 459.546 622.286 458.052C622.979 456.548 623.956 455.396 625.216 454.595C626.476 453.784 627.926 453.379 629.566 453.379C631.207 453.379 632.652 453.774 633.902 454.565C635.162 455.356 636.134 456.475 636.817 457.92C637.501 459.365 637.857 461.04 637.887 462.944V465.493ZM636.085 463.179C636.085 460.61 635.504 458.599 634.342 457.144C633.18 455.688 631.588 454.961 629.566 454.961C627.584 454.961 626.002 455.693 624.82 457.158C623.648 458.613 623.062 460.649 623.062 463.267V465.493C623.062 468.022 623.648 470.029 624.82 471.514C625.992 472.988 627.584 473.726 629.596 473.726C631.637 473.726 633.229 472.998 634.371 471.543C635.514 470.078 636.085 468.042 636.085 465.435V463.179ZM644.815 453.672L652.682 472.495L660.577 453.672H662.979V475H661.178V465.713L661.324 456.191L653.385 475H651.993L644.083 456.265L644.229 465.654V475H642.428V453.672H644.815Z" fill="#F7B717"/>
<path d="M268.315 400.507C268.315 399.569 267.983 398.847 267.319 398.339C266.665 397.831 265.479 397.318 263.76 396.801C262.041 396.283 260.674 395.707 259.658 395.072C257.715 393.852 256.743 392.26 256.743 390.297C256.743 388.578 257.441 387.162 258.838 386.049C260.244 384.936 262.065 384.379 264.302 384.379C265.786 384.379 267.109 384.652 268.271 385.199C269.434 385.746 270.347 386.527 271.011 387.543C271.675 388.549 272.007 389.667 272.007 390.897H268.315C268.315 389.784 267.964 388.915 267.261 388.29C266.567 387.655 265.571 387.338 264.272 387.338C263.062 387.338 262.119 387.597 261.445 388.114C260.781 388.632 260.449 389.354 260.449 390.282C260.449 391.063 260.811 391.718 261.533 392.245C262.256 392.763 263.447 393.271 265.107 393.769C266.768 394.257 268.101 394.818 269.106 395.453C270.112 396.078 270.85 396.801 271.318 397.621C271.787 398.432 272.021 399.384 272.021 400.478C272.021 402.255 271.338 403.671 269.971 404.726C268.613 405.771 266.768 406.293 264.434 406.293C262.891 406.293 261.47 406.01 260.171 405.443C258.882 404.867 257.876 404.076 257.153 403.07C256.44 402.064 256.084 400.893 256.084 399.555H259.79C259.79 400.766 260.19 401.703 260.991 402.367C261.792 403.031 262.939 403.363 264.434 403.363C265.723 403.363 266.689 403.104 267.334 402.587C267.988 402.06 268.315 401.366 268.315 400.507ZM278.979 403.041H288.662V406H275.273V384.672H278.979V403.041ZM307.588 395.893C307.588 397.982 307.227 399.818 306.504 401.4C305.781 402.973 304.746 404.184 303.398 405.033C302.061 405.873 300.518 406.293 298.77 406.293C297.041 406.293 295.498 405.873 294.141 405.033C292.793 404.184 291.748 402.978 291.006 401.415C290.273 399.853 289.902 398.051 289.893 396.01V394.809C289.893 392.729 290.259 390.893 290.991 389.301C291.733 387.709 292.773 386.493 294.111 385.653C295.459 384.804 297.002 384.379 298.74 384.379C300.479 384.379 302.017 384.799 303.354 385.639C304.702 386.469 305.742 387.67 306.475 389.242C307.207 390.805 307.578 392.626 307.588 394.706V395.893ZM303.882 394.779C303.882 392.416 303.433 390.604 302.534 389.345C301.646 388.085 300.381 387.455 298.74 387.455C297.139 387.455 295.884 388.085 294.976 389.345C294.077 390.595 293.618 392.367 293.599 394.662V395.893C293.599 398.236 294.053 400.048 294.961 401.327C295.879 402.606 297.148 403.246 298.77 403.246C300.41 403.246 301.67 402.621 302.549 401.371C303.438 400.121 303.882 398.295 303.882 395.893V394.779ZM327.627 403.231C326.855 404.237 325.786 404.999 324.419 405.517C323.052 406.034 321.499 406.293 319.761 406.293C317.974 406.293 316.392 405.888 315.015 405.077C313.638 404.267 312.573 403.109 311.821 401.605C311.079 400.092 310.693 398.329 310.664 396.317V394.647C310.664 391.425 311.436 388.91 312.979 387.104C314.521 385.287 316.675 384.379 319.438 384.379C321.812 384.379 323.696 384.965 325.093 386.137C326.489 387.309 327.329 388.998 327.612 391.205H323.979C323.569 388.637 322.08 387.353 319.512 387.353C317.852 387.353 316.587 387.953 315.718 389.154C314.858 390.346 314.414 392.099 314.385 394.413V396.054C314.385 398.358 314.868 400.15 315.835 401.43C316.812 402.699 318.164 403.334 319.893 403.334C321.787 403.334 323.135 402.904 323.936 402.045V397.87H319.541V395.058H327.627V403.231ZM343.638 401.034H335.376L333.647 406H329.795L337.852 384.672H341.177L349.248 406H345.381L343.638 401.034ZM336.416 398.046H342.598L339.507 389.198L336.416 398.046ZM368.599 406H364.893L355.386 390.868V406H351.68V384.672H355.386L364.922 399.862V384.672H368.599V406ZM397.471 395.893C397.471 397.982 397.109 399.818 396.387 401.4C395.664 402.973 394.629 404.184 393.281 405.033C391.943 405.873 390.4 406.293 388.652 406.293C386.924 406.293 385.381 405.873 384.023 405.033C382.676 404.184 381.631 402.978 380.889 401.415C380.156 399.853 379.785 398.051 379.775 396.01V394.809C379.775 392.729 380.142 390.893 380.874 389.301C381.616 387.709 382.656 386.493 383.994 385.653C385.342 384.804 386.885 384.379 388.623 384.379C390.361 384.379 391.899 384.799 393.237 385.639C394.585 386.469 395.625 387.67 396.357 389.242C397.09 390.805 397.461 392.626 397.471 394.706V395.893ZM393.765 394.779C393.765 392.416 393.315 390.604 392.417 389.345C391.528 388.085 390.264 387.455 388.623 387.455C387.021 387.455 385.767 388.085 384.858 389.345C383.96 390.595 383.501 392.367 383.481 394.662V395.893C383.481 398.236 383.936 400.048 384.844 401.327C385.762 402.606 387.031 403.246 388.652 403.246C390.293 403.246 391.553 402.621 392.432 401.371C393.32 400.121 393.765 398.295 393.765 395.893V394.779ZM413.452 396.962H404.868V406H401.162V384.672H414.712V387.66H404.868V394.003H413.452V396.962ZM439.658 387.66H433.008V406H429.331V387.66H422.739V384.672H439.658V387.66ZM459.404 406H455.713V396.522H446.177V406H442.471V384.672H446.177V393.549H455.713V384.672H459.404V406ZM476.265 396.479H467.505V403.041H477.744V406H463.799V384.672H477.642V387.66H467.505V393.549H476.265V396.479ZM504.507 399.057C504.292 401.332 503.452 403.109 501.987 404.389C500.522 405.658 498.574 406.293 496.143 406.293C494.443 406.293 492.944 405.893 491.646 405.092C490.356 404.281 489.36 403.134 488.657 401.649C487.954 400.165 487.588 398.441 487.559 396.479V394.486C487.559 392.475 487.915 390.702 488.628 389.169C489.341 387.636 490.361 386.454 491.689 385.624C493.027 384.794 494.57 384.379 496.318 384.379C498.672 384.379 500.566 385.019 502.002 386.298C503.438 387.577 504.272 389.384 504.507 391.718H500.815C500.64 390.185 500.19 389.081 499.468 388.407C498.755 387.724 497.705 387.382 496.318 387.382C494.707 387.382 493.467 387.973 492.598 389.154C491.738 390.326 491.299 392.05 491.279 394.325V396.215C491.279 398.52 491.689 400.277 492.51 401.488C493.34 402.699 494.551 403.305 496.143 403.305C497.598 403.305 498.691 402.978 499.424 402.323C500.156 401.669 500.62 400.58 500.815 399.057H504.507ZM524.854 395.893C524.854 397.982 524.492 399.818 523.77 401.4C523.047 402.973 522.012 404.184 520.664 405.033C519.326 405.873 517.783 406.293 516.035 406.293C514.307 406.293 512.764 405.873 511.406 405.033C510.059 404.184 509.014 402.978 508.271 401.415C507.539 399.853 507.168 398.051 507.158 396.01V394.809C507.158 392.729 507.524 390.893 508.257 389.301C508.999 387.709 510.039 386.493 511.377 385.653C512.725 384.804 514.268 384.379 516.006 384.379C517.744 384.379 519.282 384.799 520.62 385.639C521.968 386.469 523.008 387.67 523.74 389.242C524.473 390.805 524.844 392.626 524.854 394.706V395.893ZM521.147 394.779C521.147 392.416 520.698 390.604 519.8 389.345C518.911 388.085 517.646 387.455 516.006 387.455C514.404 387.455 513.149 388.085 512.241 389.345C511.343 390.595 510.884 392.367 510.864 394.662V395.893C510.864 398.236 511.318 400.048 512.227 401.327C513.145 402.606 514.414 403.246 516.035 403.246C517.676 403.246 518.936 402.621 519.814 401.371C520.703 400.121 521.147 398.295 521.147 395.893V394.779ZM533.35 384.672L539.502 401.02L545.64 384.672H550.43V406H546.738V398.969L547.104 389.564L540.806 406H538.154L531.87 389.579L532.236 398.969V406H528.545V384.672H533.35ZM558.53 398.075V406H554.824V384.672H562.983C565.366 384.672 567.256 385.292 568.652 386.532C570.059 387.772 570.762 389.413 570.762 391.454C570.762 393.544 570.073 395.17 568.696 396.332C567.329 397.494 565.41 398.075 562.939 398.075H558.53ZM558.53 395.102H562.983C564.302 395.102 565.308 394.794 566.001 394.179C566.694 393.554 567.041 392.655 567.041 391.483C567.041 390.331 566.689 389.413 565.986 388.729C565.283 388.036 564.316 387.68 563.086 387.66H558.53V395.102ZM583.345 401.034H575.083L573.354 406H569.502L577.559 384.672H580.884L588.955 406H585.088L583.345 401.034ZM576.123 398.046H582.305L579.214 389.198L576.123 398.046ZM608.306 406H604.6L595.093 390.868V406H591.387V384.672H595.093L604.629 399.862V384.672H608.306V406ZM619.233 394.779L624.141 384.672H628.242L621.094 398.148V406H617.373V398.148L610.21 384.672H614.326L619.233 394.779ZM654.375 403.231C653.604 404.237 652.534 404.999 651.167 405.517C649.8 406.034 648.247 406.293 646.509 406.293C644.722 406.293 643.14 405.888 641.763 405.077C640.386 404.267 639.321 403.109 638.569 401.605C637.827 400.092 637.441 398.329 637.412 396.317V394.647C637.412 391.425 638.184 388.91 639.727 387.104C641.27 385.287 643.423 384.379 646.187 384.379C648.56 384.379 650.444 384.965 651.841 386.137C653.237 387.309 654.077 388.998 654.36 391.205H650.728C650.317 388.637 648.828 387.353 646.26 387.353C644.6 387.353 643.335 387.953 642.466 389.154C641.606 390.346 641.162 392.099 641.133 394.413V396.054C641.133 398.358 641.616 400.15 642.583 401.43C643.56 402.699 644.912 403.334 646.641 403.334C648.535 403.334 649.883 402.904 650.684 402.045V397.87H646.289V395.058H654.375V403.231ZM675.469 395.893C675.469 397.982 675.107 399.818 674.385 401.4C673.662 402.973 672.627 404.184 671.279 405.033C669.941 405.873 668.398 406.293 666.65 406.293C664.922 406.293 663.379 405.873 662.021 405.033C660.674 404.184 659.629 402.978 658.887 401.415C658.154 399.853 657.783 398.051 657.773 396.01V394.809C657.773 392.729 658.14 390.893 658.872 389.301C659.614 387.709 660.654 386.493 661.992 385.653C663.34 384.804 664.883 384.379 666.621 384.379C668.359 384.379 669.897 384.799 671.235 385.639C672.583 386.469 673.623 387.67 674.355 389.242C675.088 390.805 675.459 392.626 675.469 394.706V395.893ZM671.763 394.779C671.763 392.416 671.313 390.604 670.415 389.345C669.526 388.085 668.262 387.455 666.621 387.455C665.02 387.455 663.765 388.085 662.856 389.345C661.958 390.595 661.499 392.367 661.479 394.662V395.893C661.479 398.236 661.934 400.048 662.842 401.327C663.76 402.606 665.029 403.246 666.65 403.246C668.291 403.246 669.551 402.621 670.43 401.371C671.318 400.121 671.763 398.295 671.763 395.893V394.779ZM691.626 396.479H682.866V403.041H693.105V406H679.16V384.672H693.003V387.66H682.866V393.549H691.626V396.479ZM707.271 400.507C707.271 399.569 706.938 398.847 706.274 398.339C705.62 397.831 704.434 397.318 702.715 396.801C700.996 396.283 699.629 395.707 698.613 395.072C696.67 393.852 695.698 392.26 695.698 390.297C695.698 388.578 696.396 387.162 697.793 386.049C699.199 384.936 701.021 384.379 703.257 384.379C704.741 384.379 706.064 384.652 707.227 385.199C708.389 385.746 709.302 386.527 709.966 387.543C710.63 388.549 710.962 389.667 710.962 390.897H707.271C707.271 389.784 706.919 388.915 706.216 388.29C705.522 387.655 704.526 387.338 703.228 387.338C702.017 387.338 701.074 387.597 700.4 388.114C699.736 388.632 699.404 389.354 699.404 390.282C699.404 391.063 699.766 391.718 700.488 392.245C701.211 392.763 702.402 393.271 704.062 393.769C705.723 394.257 707.056 394.818 708.062 395.453C709.067 396.078 709.805 396.801 710.273 397.621C710.742 398.432 710.977 399.384 710.977 400.478C710.977 402.255 710.293 403.671 708.926 404.726C707.568 405.771 705.723 406.293 703.389 406.293C701.846 406.293 700.425 406.01 699.126 405.443C697.837 404.867 696.831 404.076 696.108 403.07C695.396 402.064 695.039 400.893 695.039 399.555H698.745C698.745 400.766 699.146 401.703 699.946 402.367C700.747 403.031 701.895 403.363 703.389 403.363C704.678 403.363 705.645 403.104 706.289 402.587C706.943 402.06 707.271 401.366 707.271 400.507ZM738.633 406H734.941V396.522H725.405V406H721.699V384.672H725.405V393.549H734.941V384.672H738.633V406ZM755.493 396.479H746.733V403.041H756.973V406H743.027V384.672H756.87V387.66H746.733V393.549H755.493V396.479ZM767.827 397.782H763.696V406H759.99V384.672H767.49C769.951 384.672 771.851 385.224 773.188 386.327C774.526 387.431 775.195 389.027 775.195 391.117C775.195 392.543 774.849 393.739 774.155 394.706C773.472 395.663 772.515 396.4 771.284 396.918L776.074 405.81V406H772.104L767.827 397.782ZM763.696 394.809H767.505C768.755 394.809 769.731 394.496 770.435 393.871C771.138 393.236 771.489 392.372 771.489 391.278C771.489 390.136 771.162 389.252 770.508 388.627C769.863 388.002 768.896 387.68 767.607 387.66H763.696V394.809ZM791.177 396.479H782.417V403.041H792.656V406H778.711V384.672H792.554V387.66H782.417V393.549H791.177V396.479Z" fill="#1D191A"/>
<path d="M615.812 333H609.635L593.79 307.78V333H587.613V297.453H593.79L609.684 322.771V297.453H615.812V333ZM643.448 324.724H629.679L626.798 333H620.377L633.805 297.453H639.347L652.799 333H646.354L643.448 324.724ZM631.412 319.743H641.715L636.563 304.997L631.412 319.743ZM664.859 297.453L675.113 324.699L685.343 297.453H693.326V333H687.174V321.281L687.784 305.607L677.286 333H672.867L662.394 305.632L663.004 321.281V333H656.852V297.453H664.859ZM721.427 317.131H706.827V328.068H723.893V333H700.65V297.453H723.722V302.434H706.827V312.248H721.427V317.131Z" fill="#F7B717"/>
<defs>
<linearGradient id="paint0_linear" x1="462.836" y1="98.1248" x2="462.836" y2="171.166" gradientUnits="userSpaceOnUse">
<stop stop-color="#FCFC53"/>
<stop offset="1" stop-color="#F8A700"/>
</linearGradient>
<linearGradient id="paint1_linear" x1="587.498" y1="98.1392" x2="587.498" y2="171.169" gradientUnits="userSpaceOnUse">
<stop stop-color="#FCFC53"/>
<stop offset="1" stop-color="#F8A700"/>
</linearGradient>
</defs>
</svg>
