<svg width="1050" height="600" viewBox="0 0 1050 600" fill="none" xmlns="http://www.w3.org/2000/svg">
<rect width="1050" height="600" fill="#2E2E2E"/>
<path d="M610.219 201.188V264.573C610.216 269.34 608.961 274.021 606.578 278.149C604.196 282.277 600.77 285.706 596.644 288.093L592.442 290.513L592.42 290.535H592.398C592.376 290.535 592.354 290.557 592.31 290.579L530.685 326.155C526.552 328.533 521.867 329.785 517.099 329.785C512.331 329.785 507.646 328.533 503.513 326.155L437.598 288.093C432.992 285.436 429.272 281.479 426.905 276.718C426.881 276.671 426.851 276.627 426.817 276.586C426.808 276.561 426.793 276.538 426.773 276.52V276.498C426.76 276.487 426.753 276.471 426.751 276.454C424.942 272.755 424.002 268.691 424.001 264.573V202.112C423.99 200.933 424.079 199.756 424.265 198.592C435.708 221.138 454.914 238.789 478.344 248.293V248.865L506.329 265.035C509.611 266.927 513.333 267.923 517.121 267.923C520.909 267.923 524.631 266.927 527.913 265.035L555.898 248.865V248.711C579.213 239.535 598.474 222.319 610.197 200.176C610.219 200.528 610.219 200.847 610.219 201.188Z" fill="#00ADB4"/>
<path d="M478.343 201.188V248.292C454.913 238.789 435.708 221.138 424.264 198.592C424.395 197.473 424.593 196.364 424.858 195.269C425.528 192.504 426.611 189.856 428.071 187.415C430.263 183.626 433.346 180.429 437.054 178.102C440.761 175.774 444.981 174.387 449.346 174.06C453.06 173.813 456.786 174.33 460.292 175.582C463.799 176.833 467.01 178.791 469.729 181.334C472.448 183.877 474.615 186.952 476.097 190.367C477.579 193.782 478.343 197.465 478.343 201.188Z" fill="#60BB5B"/>
<path d="M610.196 200.187C598.473 222.33 579.212 239.546 555.897 248.721V202.123C555.814 195.111 558.38 188.326 563.083 183.125C567.787 177.924 574.28 174.69 581.265 174.071C586.214 173.735 591.16 174.762 595.566 177.041C595.572 177.041 595.577 177.044 595.581 177.048C595.585 177.052 595.588 177.057 595.588 177.063C595.608 177.075 595.63 177.083 595.654 177.085C599.227 178.966 602.339 181.618 604.763 184.848C607.186 188.079 608.862 191.807 609.668 195.764C609.969 197.221 610.145 198.7 610.196 200.187Z" fill="#60BB5B"/>
<g style="mix-blend-mode:multiply" opacity="0.08">
<g style="mix-blend-mode:multiply" opacity="0.08">
<path d="M478.343 226.719V248.302C454.913 238.799 435.708 221.148 424.264 198.602C424.395 197.483 424.593 196.373 424.858 195.279C436.277 203.684 456.661 217.523 478.343 226.719Z" fill="#00ADB4"/>
</g>
</g>
<g style="mix-blend-mode:multiply" opacity="0.08">
<g style="mix-blend-mode:multiply" opacity="0.08">
<path d="M610.197 200.187C598.474 222.33 579.212 239.546 555.898 248.722V226.808C574.887 218.426 592.915 208.017 609.669 195.765C609.969 197.221 610.146 198.701 610.197 200.187Z" fill="#00ADB4"/>
</g>
</g>
<g style="mix-blend-mode:screen" opacity="0.4">
<g style="mix-blend-mode:screen" opacity="0.4">
<path d="M603.619 264.497V264.585C603.609 268.191 602.656 271.731 600.853 274.853C599.051 277.976 596.462 280.572 593.344 282.384L527.384 320.446C524.256 322.248 520.709 323.196 517.099 323.196C513.489 323.196 509.942 322.248 506.813 320.446L455.55 290.854L455.374 290.744L440.898 282.384C438.017 280.715 435.583 278.376 433.802 275.564C432.021 272.752 430.945 269.552 430.667 266.235C455.178 283.706 484.463 293.227 514.561 293.51C544.66 293.793 574.119 284.825 598.954 267.819L599.174 267.665L599.284 267.599C600.769 266.587 602.189 265.553 603.619 264.497Z" fill="#00ADB4"/>
</g>
</g>
<g style="mix-blend-mode:screen" opacity="0.6">
<g style="mix-blend-mode:screen" opacity="0.6">
<path d="M426.773 276.508C426.795 276.53 426.795 276.552 426.817 276.596C426.808 276.571 426.793 276.548 426.773 276.53V276.508Z" fill="#00ADB4"/>
</g>
</g>
<g style="mix-blend-mode:multiply" opacity="0.25">
<g style="mix-blend-mode:multiply" opacity="0.25">
<path d="M592.31 290.587L530.685 326.163C526.552 328.542 521.867 329.793 517.099 329.793C512.331 329.793 507.646 328.542 503.513 326.163L437.597 288.101C432.992 285.445 429.272 281.488 426.905 276.727C427.081 277.035 427.411 277.563 427.895 278.289C429.05 279.936 430.37 281.462 431.833 282.843C434.095 284.95 436.68 286.681 439.49 287.969C442.746 289.641 446.42 291.533 450.38 293.668C458.367 297.848 467.607 302.842 477.442 308.298C482.348 311.048 487.452 313.821 492.579 316.769C495.153 318.243 497.727 319.717 500.323 321.191L504.217 323.413C505.402 324.114 506.637 324.724 507.913 325.239C512.922 327.319 518.481 327.667 523.71 326.229C526.32 325.48 528.815 324.377 531.125 322.951C533.655 321.543 536.141 320.157 538.605 318.793C548.462 313.337 557.702 308.342 565.667 304.162C580.605 296.231 591.056 291.17 592.31 290.587Z" fill="#00ADB4"/>
</g>
</g>
<g style="mix-blend-mode:multiply" opacity="0.25">
<g style="mix-blend-mode:multiply" opacity="0.25">
<path d="M610.197 200.186L608.151 204.366L605.907 208.48L603.464 212.462L600.824 216.335L597.986 220.075L594.994 223.705L591.804 227.181L588.46 230.503L584.961 233.672L581.309 236.686L577.525 239.524L573.609 242.186L569.561 244.672L565.402 246.982L561.134 249.072L558.032 250.414L557.108 250.964C550.859 254.683 544.633 258.445 538.341 262.097L528.858 267.597C525.266 269.601 521.223 270.661 517.11 270.678C515.06 270.668 513.02 270.401 511.037 269.886C510.051 269.619 509.082 269.296 508.133 268.917C507.198 268.541 506.287 268.108 505.405 267.619L495.9 262.097C489.608 258.445 483.382 254.683 477.133 250.986L475.901 250.26V249.864L473.041 248.588L468.773 246.432L464.615 244.056L460.566 241.504L456.65 238.754L452.844 235.85L449.214 232.769L445.738 229.513L442.415 226.125L439.247 222.561L436.277 218.865L433.461 215.058L430.865 211.098L428.445 207.05L426.245 202.87L424.264 198.602L426.707 202.628L429.303 206.5L432.053 210.284L434.935 213.936L437.971 217.457L441.139 220.845L444.462 224.079L447.872 227.181L451.436 230.129L455.132 232.901L458.894 235.542L462.789 237.984L466.771 240.272L470.863 242.384L475.021 244.32L478.343 245.684V248.874L506.329 265.045C509.611 266.937 513.332 267.933 517.121 267.933C520.909 267.933 524.63 266.937 527.912 265.045L555.898 248.874V246.124L559.242 244.782L563.378 242.912L567.448 240.888L571.431 238.666L575.303 236.268L579.087 233.716L582.783 231.009L586.347 228.149L589.78 225.113L593.102 221.945L596.314 218.645L599.372 215.19L602.298 211.626L605.07 207.93L607.711 204.102L610.197 200.186Z" fill="#00ADB4"/>
</g>
</g>
<g style="mix-blend-mode:screen" opacity="0.4">
<g style="mix-blend-mode:screen" opacity="0.4">
<path d="M598.954 267.817L594.73 270.876L590.022 273.956C586.81 275.936 583.546 277.799 580.231 279.544C576.887 281.282 573.47 282.866 569.979 284.296C566.488 285.726 562.953 287.032 559.374 288.213C552.202 290.587 544.842 292.353 537.373 293.493C533.633 294.087 529.871 294.505 526.086 294.791C522.236 295.099 518.584 295.209 514.756 295.187C510.972 295.187 507.187 295.011 503.403 294.725L497.749 294.153L492.138 293.361L486.55 292.327L481.006 291.095L475.528 289.643L470.093 287.949L464.747 286.056L459.489 283.944L454.296 281.634L449.214 279.126L444.264 276.376L439.401 273.45L434.671 270.348L432.009 268.456C432.981 273.517 435.824 278.026 439.974 281.084C441.228 281.964 442.526 282.712 443.846 283.548L447.762 285.946L455.374 290.743L440.898 282.382C438.017 280.714 435.583 278.374 433.802 275.563C432.021 272.751 430.945 269.55 430.667 266.233C455.178 283.704 484.463 293.225 514.561 293.508C544.66 293.792 574.119 284.824 598.954 267.817Z" fill="#00ADB4"/>
</g>
</g>
<g style="mix-blend-mode:screen" opacity="0.5">
<g style="mix-blend-mode:screen" opacity="0.5">
<path d="M478.345 201.188V222.243C478.345 222.243 477.597 216.501 477.091 207.898C476.937 205.764 476.805 203.41 476.695 200.968C476.527 198.558 476.062 196.178 475.309 193.883C473.638 188.941 470.546 184.602 466.42 181.409C464.336 179.809 462.031 178.52 459.578 177.58C457.199 176.732 454.723 176.185 452.207 175.952C451.525 175.952 450.865 175.93 450.205 175.93L449.325 175.908L448.423 175.974C447.247 176.036 446.077 176.19 444.925 176.436C442.778 176.894 440.695 177.61 438.721 178.57C435.703 180.065 432.964 182.066 430.624 184.489C429.766 185.391 429.106 186.117 428.688 186.645C428.38 187.041 428.16 187.305 428.072 187.415C430.264 183.626 433.347 180.429 437.055 178.102C440.763 175.774 444.982 174.387 449.347 174.06C453.062 173.813 456.787 174.33 460.294 175.582C463.8 176.833 467.012 178.791 469.731 181.334C472.449 183.877 474.616 186.952 476.098 190.367C477.58 193.782 478.345 197.465 478.345 201.188Z" fill="#00ADB4"/>
</g>
</g>
<g style="mix-blend-mode:screen" opacity="0.5">
<g style="mix-blend-mode:screen" opacity="0.5">
<path d="M595.566 177.041C595.302 176.953 594.334 176.645 592.793 176.271C590.337 175.675 587.819 175.372 585.291 175.369C583.638 175.377 581.989 175.532 580.363 175.831C579.485 175.969 578.617 176.167 577.767 176.425C577.349 176.557 576.909 176.667 576.469 176.799C576.028 176.931 575.588 177.129 575.148 177.283C573.377 178.005 571.675 178.889 570.066 179.923C568.43 181.026 566.918 182.302 565.556 183.73C564.163 185.128 562.931 186.678 561.882 188.35C560.851 189.985 559.982 191.717 559.286 193.52C558.94 194.374 558.646 195.249 558.406 196.138C558.143 196.974 557.937 197.827 557.789 198.691C557.61 199.548 557.478 200.415 557.393 201.287L557.327 201.925C557.305 202.013 557.283 202.189 557.283 202.189L557.261 202.497C557.217 202.915 557.195 203.333 557.151 203.729C556.623 210.197 555.897 214.487 555.897 214.487V202.123C555.814 195.111 558.38 188.326 563.083 183.125C567.787 177.924 574.28 174.69 581.265 174.071C586.214 173.735 591.16 174.762 595.566 177.041Z" fill="#00ADB4"/>
</g>
</g>
<path d="M425.45 368.76C428.99 368.76 431.64 369.65 433.4 371.43C435.16 373.19 436.04 375.76 436.04 379.14C436.04 381.32 435.61 383.23 434.75 384.87C433.89 386.51 432.64 387.78 431 388.68C429.38 389.56 427.44 390 425.18 390L423.44 389.97C422.32 389.93 421.5 389.91 420.98 389.91C419.34 389.91 418.1 389.94 417.26 390V389.4C417.98 389.36 418.5 389.28 418.82 389.16C419.16 389.04 419.39 388.81 419.51 388.47C419.63 388.13 419.69 387.58 419.69 386.82V371.94C419.69 371.18 419.63 370.63 419.51 370.29C419.39 369.95 419.16 369.72 418.82 369.6C418.5 369.48 417.98 369.4 417.26 369.36V368.76C417.96 368.82 418.93 368.85 420.17 368.85L422.72 368.82C424.08 368.78 424.99 368.76 425.45 368.76ZM424.7 369.3C424.08 369.3 423.61 369.37 423.29 369.51C422.99 369.65 422.78 369.9 422.66 370.26C422.54 370.62 422.48 371.16 422.48 371.88V386.88C422.48 387.6 422.54 388.14 422.66 388.5C422.78 388.86 422.99 389.11 423.29 389.25C423.61 389.39 424.09 389.46 424.73 389.46C426.85 389.46 428.52 389.08 429.74 388.32C430.96 387.54 431.81 386.41 432.29 384.93C432.79 383.45 433.04 381.56 433.04 379.26C433.04 376.96 432.77 375.09 432.23 373.65C431.69 372.19 430.81 371.1 429.59 370.38C428.39 369.66 426.76 369.3 424.7 369.3ZM456.493 388.74C456.113 389.28 455.673 389.7 455.173 390C454.693 390.28 454.113 390.42 453.433 390.42C451.753 390.42 450.723 389.66 450.343 388.14L449.413 384.39C449.133 383.27 448.713 382.52 448.153 382.14C447.613 381.76 446.803 381.57 445.723 381.57H444.013V386.82C444.013 387.58 444.073 388.13 444.193 388.47C444.313 388.81 444.533 389.04 444.853 389.16C445.193 389.28 445.723 389.36 446.443 389.4V390C445.523 389.94 444.253 389.91 442.633 389.91C440.913 389.91 439.633 389.94 438.793 390V389.4C439.513 389.36 440.033 389.28 440.353 389.16C440.693 389.04 440.923 388.81 441.043 388.47C441.163 388.13 441.223 387.58 441.223 386.82V374.94C441.223 374.18 441.163 373.63 441.043 373.29C440.923 372.95 440.693 372.72 440.353 372.6C440.033 372.48 439.513 372.4 438.793 372.36V371.76C439.633 371.82 440.853 371.85 442.453 371.85L445.513 371.82C445.853 371.8 446.243 371.79 446.683 371.79C448.923 371.79 450.633 372.21 451.813 373.05C453.013 373.89 453.613 374.98 453.613 376.32C453.613 377.48 453.143 378.54 452.203 379.5C451.283 380.46 449.763 381.07 447.643 381.33C448.043 381.37 448.383 381.41 448.663 381.45C449.723 381.61 450.563 381.93 451.183 382.41C451.803 382.89 452.243 383.66 452.503 384.72L453.163 387.45C453.323 388.15 453.493 388.65 453.673 388.95C453.873 389.23 454.123 389.37 454.423 389.37C454.923 389.37 455.473 389.03 456.073 388.35L456.493 388.74ZM445.933 372.36C445.393 372.36 444.983 372.43 444.703 372.57C444.443 372.71 444.263 372.96 444.163 373.32C444.063 373.68 444.013 374.22 444.013 374.94V380.97H446.023C447.783 380.97 448.983 380.6 449.623 379.86C450.283 379.1 450.613 378.03 450.613 376.65C450.613 375.21 450.243 374.14 449.503 373.44C448.783 372.72 447.593 372.36 445.933 372.36ZM472.274 386.46C472.274 387.5 472.344 388.68 472.484 390C471.184 389.94 468.994 389.91 465.914 389.91C462.214 389.91 459.414 389.94 457.514 390V389.4C458.234 389.36 458.754 389.28 459.074 389.16C459.414 389.04 459.644 388.81 459.764 388.47C459.884 388.13 459.944 387.58 459.944 386.82V374.94C459.944 374.18 459.884 373.63 459.764 373.29C459.644 372.95 459.414 372.72 459.074 372.6C458.754 372.48 458.234 372.4 457.514 372.36V371.76C459.414 371.82 462.214 371.85 465.914 371.85C468.714 371.85 470.704 371.82 471.884 371.76C471.744 372.96 471.674 374.04 471.674 375C471.674 375.78 471.704 376.4 471.764 376.86H471.074C470.934 375.22 470.584 374.08 470.024 373.44C469.484 372.78 468.594 372.45 467.354 372.45H465.164C464.444 372.45 463.914 372.51 463.574 372.63C463.254 372.73 463.034 372.95 462.914 373.29C462.794 373.63 462.734 374.18 462.734 374.94V380.52H465.224C465.864 380.52 466.354 380.36 466.694 380.04C467.034 379.7 467.264 379.34 467.384 378.96C467.504 378.56 467.614 378.06 467.714 377.46H468.404C468.344 378.14 468.314 378.88 468.314 379.68V380.82C468.314 381.6 468.374 382.72 468.494 384.18H467.804C467.684 383.22 467.454 382.47 467.114 381.93C466.774 381.39 466.144 381.12 465.224 381.12H462.734V386.82C462.734 387.58 462.794 388.13 462.914 388.47C463.034 388.81 463.254 389.04 463.574 389.16C463.914 389.26 464.444 389.31 465.164 389.31H467.354C468.354 389.31 469.144 389.15 469.724 388.83C470.304 388.51 470.744 388 471.044 387.3C471.344 386.58 471.554 385.58 471.674 384.3H472.364C472.304 384.84 472.274 385.56 472.274 386.46ZM490.596 387.48C491.136 388.72 491.826 389.36 492.666 389.4V390C491.866 389.94 490.796 389.91 489.456 389.91C487.736 389.91 486.456 389.94 485.616 390V389.4C486.356 389.36 486.896 389.26 487.236 389.1C487.596 388.94 487.776 388.67 487.776 388.29C487.776 387.97 487.636 387.5 487.356 386.88L485.826 383.46H478.536L477.516 385.71C477.176 386.49 477.006 387.13 477.006 387.63C477.006 388.15 477.186 388.56 477.546 388.86C477.926 389.14 478.526 389.32 479.346 389.4V390C478.746 389.94 477.836 389.91 476.616 389.91C475.396 389.91 474.526 389.94 474.006 390V389.4C474.546 389.26 475.006 388.96 475.386 388.5C475.766 388.02 476.126 387.39 476.466 386.61L483.096 371.61H483.576L490.596 387.48ZM485.586 382.86L482.196 375.24L478.776 382.86H485.586ZM516.852 372.36C516.132 372.4 515.602 372.48 515.262 372.6C514.942 372.72 514.722 372.95 514.602 373.29C514.482 373.63 514.422 374.18 514.422 374.94V386.82C514.422 387.58 514.482 388.13 514.602 388.47C514.722 388.81 514.942 389.04 515.262 389.16C515.602 389.28 516.132 389.36 516.852 389.4V390C515.932 389.94 514.662 389.91 513.042 389.91C511.322 389.91 510.042 389.94 509.202 390V389.4C509.922 389.36 510.442 389.28 510.762 389.16C511.102 389.04 511.332 388.81 511.452 388.47C511.572 388.13 511.632 387.58 511.632 386.82V373.65L504.402 390.15H503.922L496.962 373.68V386.52C496.962 387.3 497.022 387.88 497.142 388.26C497.282 388.64 497.542 388.92 497.922 389.1C498.302 389.26 498.892 389.36 499.692 389.4V390C498.972 389.94 497.952 389.91 496.632 389.91C495.432 389.91 494.502 389.94 493.842 390V389.4C494.542 389.36 495.062 389.26 495.402 389.1C495.742 388.92 495.972 388.64 496.092 388.26C496.212 387.86 496.272 387.28 496.272 386.52V374.94C496.272 374.18 496.212 373.63 496.092 373.29C495.972 372.95 495.742 372.72 495.402 372.6C495.082 372.48 494.562 372.4 493.842 372.36V371.76C494.502 371.82 495.432 371.85 496.632 371.85C497.592 371.85 498.442 371.82 499.182 371.76L505.212 386.37L511.632 371.85H513.042C514.662 371.85 515.932 371.82 516.852 371.76V372.36ZM533.25 368.43C534.13 368.43 534.82 368.53 535.32 368.73C535.84 368.91 536.37 369.18 536.91 369.54C537.35 369.82 537.69 369.96 537.93 369.96C538.11 369.96 538.25 369.86 538.35 369.66C538.45 369.44 538.53 369.1 538.59 368.64H539.28C539.18 369.8 539.13 371.84 539.13 374.76H538.44C538.32 373.14 537.85 371.78 537.03 370.68C536.23 369.56 535.06 369 533.52 369C532.44 369 531.56 369.33 530.88 369.99C530.2 370.63 529.86 371.46 529.86 372.48C529.86 373.24 530.03 373.9 530.37 374.46C530.73 375.02 531.18 375.5 531.72 375.9C532.26 376.3 533.03 376.81 534.03 377.43L534.9 377.97C536.16 378.75 537.15 379.44 537.87 380.04C538.61 380.62 539.2 381.29 539.64 382.05C540.08 382.81 540.3 383.7 540.3 384.72C540.3 386.54 539.7 387.95 538.5 388.95C537.3 389.93 535.78 390.42 533.94 390.42C532.98 390.42 532.19 390.32 531.57 390.12C530.97 389.92 530.39 389.65 529.83 389.31C529.39 389.03 529.05 388.89 528.81 388.89C528.63 388.89 528.49 389 528.39 389.22C528.29 389.42 528.21 389.75 528.15 390.21H527.46C527.54 389.11 527.58 386.71 527.58 383.01H528.27C528.41 385.03 528.91 386.67 529.77 387.93C530.63 389.19 531.95 389.82 533.73 389.82C534.81 389.82 535.73 389.49 536.49 388.83C537.25 388.15 537.63 387.15 537.63 385.83C537.63 384.71 537.25 383.76 536.49 382.98C535.75 382.2 534.57 381.32 532.95 380.34C531.77 379.62 530.81 378.98 530.07 378.42C529.35 377.86 528.76 377.19 528.3 376.41C527.84 375.61 527.61 374.68 527.61 373.62C527.61 371.94 528.15 370.66 529.23 369.78C530.31 368.88 531.65 368.43 533.25 368.43ZM559.681 371.76C559.541 373.08 559.471 374.26 559.471 375.3C559.471 376.34 559.501 377.16 559.561 377.76H558.871C558.751 376.36 558.561 375.29 558.301 374.55C558.041 373.81 557.621 373.28 557.041 372.96C556.461 372.62 555.631 372.45 554.551 372.45H552.631V386.52C552.631 387.36 552.711 387.97 552.871 388.35C553.031 388.73 553.311 388.99 553.711 389.13C554.111 389.27 554.761 389.36 555.661 389.4V390C554.621 389.94 553.151 389.91 551.251 389.91C549.251 389.91 547.771 389.94 546.811 390V389.4C547.711 389.36 548.361 389.27 548.761 389.13C549.161 388.99 549.441 388.73 549.601 388.35C549.761 387.97 549.841 387.36 549.841 386.52V372.45H547.921C546.841 372.45 546.011 372.62 545.431 372.96C544.851 373.28 544.431 373.81 544.171 374.55C543.911 375.29 543.721 376.36 543.601 377.76H542.911C542.971 377.12 543.001 376.3 543.001 375.3C543.001 374.26 542.931 373.08 542.791 371.76C544.451 371.82 547.271 371.85 551.251 371.85C555.211 371.85 558.021 371.82 559.681 371.76ZM579.687 372.36C578.987 372.4 578.467 372.51 578.127 372.69C577.787 372.85 577.557 373.13 577.437 373.53C577.317 373.91 577.257 374.48 577.257 375.24V381.87C577.257 383.25 577.157 384.43 576.957 385.41C576.777 386.37 576.467 387.21 576.027 387.93C575.547 388.69 574.847 389.3 573.927 389.76C573.027 390.2 571.997 390.42 570.837 390.42C568.777 390.42 567.197 389.98 566.097 389.1C565.217 388.32 564.627 387.43 564.327 386.43C564.027 385.43 563.877 383.94 563.877 381.96V374.94C563.877 374.18 563.817 373.63 563.697 373.29C563.577 372.95 563.347 372.72 563.007 372.6C562.687 372.48 562.167 372.4 561.447 372.36V371.76C562.287 371.82 563.567 371.85 565.287 371.85C566.887 371.85 568.157 371.82 569.097 371.76V372.36C568.377 372.4 567.847 372.48 567.507 372.6C567.187 372.72 566.967 372.95 566.847 373.29C566.727 373.63 566.667 374.18 566.667 374.94V382.47C566.667 383.95 566.767 385.18 566.967 386.16C567.167 387.12 567.587 387.9 568.227 388.5C568.887 389.08 569.847 389.37 571.107 389.37C573.107 389.37 574.517 388.74 575.337 387.48C576.157 386.22 576.567 384.46 576.567 382.2V375.24C576.567 374.16 576.367 373.42 575.967 373.02C575.587 372.62 574.877 372.4 573.837 372.36V371.76C574.557 371.82 575.577 371.85 576.897 371.85C578.097 371.85 579.027 371.82 579.687 371.76V372.36ZM589.893 371.76C593.013 371.76 595.353 372.52 596.913 374.04C598.493 375.54 599.283 377.74 599.283 380.64C599.283 382.52 598.903 384.17 598.143 385.59C597.383 386.99 596.273 388.08 594.813 388.86C593.373 389.62 591.643 390 589.623 390L587.883 389.97C586.763 389.93 585.943 389.91 585.423 389.91C583.783 389.91 582.543 389.94 581.703 390V389.4C582.423 389.36 582.943 389.28 583.263 389.16C583.603 389.04 583.833 388.81 583.953 388.47C584.073 388.13 584.133 387.58 584.133 386.82V374.94C584.133 374.18 584.073 373.63 583.953 373.29C583.833 372.95 583.603 372.72 583.263 372.6C582.943 372.48 582.423 372.4 581.703 372.36V371.76C582.403 371.82 583.373 371.85 584.613 371.85L587.163 371.82C588.523 371.78 589.433 371.76 589.893 371.76ZM589.143 372.3C588.523 372.3 588.053 372.37 587.733 372.51C587.433 372.65 587.223 372.9 587.103 373.26C586.983 373.62 586.923 374.16 586.923 374.88V386.88C586.923 387.6 586.983 388.14 587.103 388.5C587.223 388.86 587.433 389.11 587.733 389.25C588.053 389.39 588.533 389.46 589.173 389.46C590.993 389.46 592.423 389.14 593.463 388.5C594.503 387.84 595.233 386.88 595.653 385.62C596.073 384.36 596.283 382.74 596.283 380.76C596.283 377.84 595.743 375.7 594.663 374.34C593.583 372.98 591.743 372.3 589.143 372.3ZM609.568 372.36C608.848 372.4 608.318 372.48 607.978 372.6C607.658 372.72 607.438 372.95 607.318 373.29C607.198 373.63 607.138 374.18 607.138 374.94V386.82C607.138 387.58 607.198 388.13 607.318 388.47C607.438 388.81 607.658 389.04 607.978 389.16C608.318 389.28 608.848 389.36 609.568 389.4V390C608.648 389.94 607.378 389.91 605.758 389.91C604.038 389.91 602.758 389.94 601.918 390V389.4C602.638 389.36 603.158 389.28 603.478 389.16C603.818 389.04 604.048 388.81 604.168 388.47C604.288 388.13 604.348 387.58 604.348 386.82V374.94C604.348 374.18 604.288 373.63 604.168 373.29C604.048 372.95 603.818 372.72 603.478 372.6C603.158 372.48 602.638 372.4 601.918 372.36V371.76C602.758 371.82 604.038 371.85 605.758 371.85C607.358 371.85 608.628 371.82 609.568 371.76V372.36ZM621.391 371.34C623.231 371.34 624.841 371.71 626.221 372.45C627.621 373.17 628.701 374.24 629.461 375.66C630.221 377.06 630.601 378.74 630.601 380.7C630.601 382.62 630.201 384.32 629.401 385.8C628.621 387.26 627.531 388.4 626.131 389.22C624.731 390.02 623.141 390.42 621.361 390.42C619.521 390.42 617.901 390.06 616.501 389.34C615.121 388.6 614.051 387.53 613.291 386.13C612.531 384.71 612.151 383.02 612.151 381.06C612.151 379.14 612.541 377.45 613.321 375.99C614.121 374.51 615.221 373.37 616.621 372.57C618.021 371.75 619.611 371.34 621.391 371.34ZM621.271 371.88C620.051 371.88 618.971 372.27 618.031 373.05C617.111 373.81 616.401 374.88 615.901 376.26C615.401 377.62 615.151 379.18 615.151 380.94C615.151 382.72 615.431 384.29 615.991 385.65C616.551 387.01 617.311 388.06 618.271 388.8C619.231 389.52 620.301 389.88 621.481 389.88C622.701 389.88 623.771 389.5 624.691 388.74C625.631 387.96 626.351 386.89 626.851 385.53C627.351 384.15 627.601 382.58 627.601 380.82C627.601 379.04 627.321 377.47 626.761 376.11C626.201 374.75 625.441 373.71 624.481 372.99C623.521 372.25 622.451 371.88 621.271 371.88Z" fill="white"/>
<path d="M441.844 417.504C441.844 416.716 441.567 416.094 441.014 415.639C440.46 415.176 439.448 414.74 437.977 414.33C436.505 413.913 435.431 413.461 434.754 412.973C433.79 412.283 433.309 411.378 433.309 410.258C433.309 409.171 433.755 408.288 434.646 407.611C435.545 406.928 436.691 406.586 438.084 406.586C439.028 406.586 439.871 406.768 440.613 407.133C441.362 407.497 441.941 408.005 442.352 408.656C442.762 409.307 442.967 410.033 442.967 410.834H441.756C441.756 409.864 441.424 409.086 440.76 408.5C440.096 407.908 439.204 407.611 438.084 407.611C436.997 407.611 436.131 407.855 435.486 408.344C434.842 408.826 434.52 409.457 434.52 410.238C434.52 410.961 434.809 411.55 435.389 412.006C435.968 412.462 436.896 412.865 438.172 413.217C439.448 413.562 440.415 413.923 441.072 414.301C441.73 414.672 442.225 415.118 442.557 415.639C442.889 416.16 443.055 416.775 443.055 417.484C443.055 418.604 442.605 419.503 441.707 420.18C440.815 420.857 439.637 421.195 438.172 421.195C437.169 421.195 436.248 421.016 435.408 420.658C434.575 420.3 433.94 419.799 433.504 419.154C433.074 418.51 432.859 417.771 432.859 416.938H434.061C434.061 417.94 434.435 418.731 435.184 419.311C435.932 419.89 436.928 420.18 438.172 420.18C439.279 420.18 440.167 419.936 440.838 419.447C441.508 418.959 441.844 418.311 441.844 417.504ZM446.863 419.984H453.885V421H445.652V406.781H446.863V419.984ZM466.062 414.662C466.062 415.971 465.835 417.12 465.379 418.109C464.93 419.099 464.285 419.861 463.445 420.395C462.605 420.928 461.635 421.195 460.535 421.195C458.875 421.195 457.534 420.603 456.512 419.418C455.49 418.227 454.979 416.622 454.979 414.604V413.139C454.979 411.843 455.206 410.697 455.662 409.701C456.124 408.699 456.775 407.93 457.615 407.396C458.455 406.856 459.422 406.586 460.516 406.586C461.609 406.586 462.573 406.85 463.406 407.377C464.246 407.904 464.894 408.65 465.35 409.613C465.805 410.577 466.043 411.693 466.062 412.963V414.662ZM464.861 413.119C464.861 411.407 464.474 410.066 463.699 409.096C462.924 408.126 461.863 407.641 460.516 407.641C459.194 407.641 458.139 408.129 457.352 409.105C456.57 410.076 456.18 411.433 456.18 413.178V414.662C456.18 416.348 456.57 417.686 457.352 418.676C458.133 419.659 459.194 420.15 460.535 420.15C461.896 420.15 462.957 419.665 463.719 418.695C464.48 417.719 464.861 416.361 464.861 414.623V413.119ZM479.354 419.311C478.937 419.903 478.283 420.365 477.391 420.697C476.505 421.029 475.512 421.195 474.412 421.195C473.299 421.195 472.309 420.928 471.443 420.395C470.577 419.861 469.907 419.105 469.432 418.129C468.956 417.152 468.715 416.033 468.709 414.77V412.973C468.709 411 469.207 409.444 470.203 408.305C471.199 407.159 472.537 406.586 474.217 406.586C475.682 406.586 476.86 406.96 477.752 407.709C478.644 408.451 479.174 409.477 479.344 410.785H478.143C477.967 409.743 477.54 408.956 476.863 408.422C476.193 407.882 475.314 407.611 474.227 407.611C472.898 407.611 471.847 408.083 471.072 409.027C470.298 409.971 469.91 411.303 469.91 413.021V414.701C469.91 415.782 470.092 416.739 470.457 417.572C470.828 418.399 471.355 419.04 472.039 419.496C472.729 419.952 473.52 420.18 474.412 420.18C475.447 420.18 476.336 420.017 477.078 419.691C477.56 419.477 477.918 419.226 478.152 418.939V415.268H474.334V414.252H479.354V419.311ZM490.438 417.016H483.982L482.518 421H481.258L486.639 406.781H487.781L493.162 421H491.912L490.438 417.016ZM484.354 415.99H490.057L487.205 408.246L484.354 415.99ZM505.848 421H504.646L496.473 408.832V421H495.262V406.781H496.473L504.656 418.959V406.781H505.848V421ZM524.588 419.311C524.171 419.903 523.517 420.365 522.625 420.697C521.74 421.029 520.747 421.195 519.646 421.195C518.533 421.195 517.544 420.928 516.678 420.395C515.812 419.861 515.141 419.105 514.666 418.129C514.191 417.152 513.95 416.033 513.943 414.77V412.973C513.943 411 514.441 409.444 515.438 408.305C516.434 407.159 517.771 406.586 519.451 406.586C520.916 406.586 522.094 406.96 522.986 407.709C523.878 408.451 524.409 409.477 524.578 410.785H523.377C523.201 409.743 522.775 408.956 522.098 408.422C521.427 407.882 520.548 407.611 519.461 407.611C518.133 407.611 517.081 408.083 516.307 409.027C515.532 409.971 515.145 411.303 515.145 413.021V414.701C515.145 415.782 515.327 416.739 515.691 417.572C516.062 418.399 516.59 419.04 517.273 419.496C517.964 419.952 518.755 420.18 519.646 420.18C520.682 420.18 521.57 420.017 522.312 419.691C522.794 419.477 523.152 419.226 523.387 418.939V415.268H519.568V414.252H524.588V419.311ZM538.504 414.662C538.504 415.971 538.276 417.12 537.82 418.109C537.371 419.099 536.727 419.861 535.887 420.395C535.047 420.928 534.077 421.195 532.977 421.195C531.316 421.195 529.975 420.603 528.953 419.418C527.931 418.227 527.42 416.622 527.42 414.604V413.139C527.42 411.843 527.648 410.697 528.104 409.701C528.566 408.699 529.217 407.93 530.057 407.396C530.896 406.856 531.863 406.586 532.957 406.586C534.051 406.586 535.014 406.85 535.848 407.377C536.688 407.904 537.335 408.65 537.791 409.613C538.247 410.577 538.484 411.693 538.504 412.963V414.662ZM537.303 413.119C537.303 411.407 536.915 410.066 536.141 409.096C535.366 408.126 534.305 407.641 532.957 407.641C531.635 407.641 530.581 408.129 529.793 409.105C529.012 410.076 528.621 411.433 528.621 413.178V414.662C528.621 416.348 529.012 417.686 529.793 418.676C530.574 419.659 531.635 420.15 532.977 420.15C534.337 420.15 535.398 419.665 536.16 418.695C536.922 417.719 537.303 416.361 537.303 414.623V413.119ZM549.383 414.184H542.732V419.984H550.379V421H541.531V406.781H550.33V407.807H542.732V413.168H549.383V414.184ZM560.965 417.504C560.965 416.716 560.688 416.094 560.135 415.639C559.581 415.176 558.569 414.74 557.098 414.33C555.626 413.913 554.552 413.461 553.875 412.973C552.911 412.283 552.43 411.378 552.43 410.258C552.43 409.171 552.876 408.288 553.768 407.611C554.666 406.928 555.812 406.586 557.205 406.586C558.149 406.586 558.992 406.768 559.734 407.133C560.483 407.497 561.062 408.005 561.473 408.656C561.883 409.307 562.088 410.033 562.088 410.834H560.877C560.877 409.864 560.545 409.086 559.881 408.5C559.217 407.908 558.325 407.611 557.205 407.611C556.118 407.611 555.252 407.855 554.607 408.344C553.963 408.826 553.641 409.457 553.641 410.238C553.641 410.961 553.93 411.55 554.51 412.006C555.089 412.462 556.017 412.865 557.293 413.217C558.569 413.562 559.536 413.923 560.193 414.301C560.851 414.672 561.346 415.118 561.678 415.639C562.01 416.16 562.176 416.775 562.176 417.484C562.176 418.604 561.727 419.503 560.828 420.18C559.936 420.857 558.758 421.195 557.293 421.195C556.29 421.195 555.369 421.016 554.529 420.658C553.696 420.3 553.061 419.799 552.625 419.154C552.195 418.51 551.98 417.771 551.98 416.938H553.182C553.182 417.94 553.556 418.731 554.305 419.311C555.053 419.89 556.049 420.18 557.293 420.18C558.4 420.18 559.288 419.936 559.959 419.447C560.63 418.959 560.965 418.311 560.965 417.504ZM580.174 421H578.963V414.184H570.838V421H569.637V406.781H570.838V413.168H578.963V406.781H580.174V421ZM591.648 414.184H584.998V419.984H592.645V421H583.797V406.781H592.596V407.807H584.998V413.168H591.648V414.184ZM600.496 415.082H596.365V421H595.154V406.781H599.773C601.29 406.781 602.475 407.149 603.328 407.885C604.181 408.62 604.607 409.649 604.607 410.971C604.607 411.882 604.34 412.686 603.807 413.383C603.273 414.079 602.557 414.561 601.658 414.828L605.213 420.873V421H603.934L600.496 415.082ZM596.365 414.057H600.047C601.056 414.057 601.867 413.77 602.479 413.197C603.09 412.624 603.396 411.882 603.396 410.971C603.396 409.968 603.077 409.19 602.439 408.637C601.801 408.083 600.906 407.807 599.754 407.807H596.365V414.057ZM615.73 414.184H609.08V419.984H616.727V421H607.879V406.781H616.678V407.807H609.08V413.168H615.73V414.184Z" fill="white"/>
</svg>
