<svg width="1050" height="600" viewBox="0 0 1050 600" fill="none" xmlns="http://www.w3.org/2000/svg">
<rect width="1050" height="600" fill="white"/>
<rect width="101" height="600" fill="black"/>
<rect x="1032" width="18" height="600" fill="#0088C9"/>
<path d="M945.502 425.717V464.692C945.5 467.622 944.728 470.501 943.263 473.039C941.798 475.577 939.692 477.686 937.155 479.153L934.571 480.641L934.558 480.655H934.544C934.53 480.655 934.517 480.668 934.49 480.682L896.598 502.557C894.057 504.019 891.176 504.789 888.244 504.789C885.312 504.789 882.432 504.019 879.891 502.557L839.361 479.153C836.529 477.52 834.242 475.087 832.786 472.159C832.771 472.13 832.753 472.103 832.732 472.078C832.726 472.062 832.717 472.049 832.705 472.037V472.024C832.697 472.017 832.693 472.007 832.692 471.997C831.579 469.722 831.001 467.224 831.001 464.692V426.286C830.994 425.561 831.048 424.837 831.163 424.121C838.199 437.984 850.008 448.837 864.415 454.681V455.033L881.622 464.976C883.64 466.139 885.929 466.751 888.258 466.751C890.587 466.751 892.875 466.139 894.893 464.976L912.101 455.033V454.938C926.437 449.296 938.28 438.71 945.488 425.095C945.502 425.312 945.502 425.508 945.502 425.717Z" fill="#0088C9"/>
<path d="M864.414 425.717V454.681C850.008 448.837 838.199 437.984 831.163 424.121C831.243 423.433 831.365 422.751 831.528 422.078C831.939 420.378 832.605 418.75 833.503 417.249C834.851 414.919 836.747 412.953 839.026 411.522C841.306 410.091 843.9 409.238 846.585 409.037C848.868 408.885 851.159 409.203 853.315 409.972C855.471 410.742 857.446 411.946 859.118 413.509C860.789 415.073 862.122 416.964 863.033 419.064C863.944 421.163 864.414 423.428 864.414 425.717Z" fill="black"/>
<path d="M945.487 425.101C938.279 438.716 926.436 449.302 912.1 454.944V426.291C912.049 421.98 913.627 417.808 916.519 414.61C919.411 411.412 923.403 409.424 927.698 409.043C930.741 408.837 933.782 409.468 936.491 410.87C936.495 410.87 936.498 410.871 936.501 410.873C936.504 410.876 936.505 410.879 936.505 410.883C936.517 410.89 936.531 410.895 936.545 410.897C938.743 412.053 940.656 413.683 942.146 415.67C943.637 417.656 944.667 419.949 945.163 422.382C945.347 423.277 945.456 424.187 945.487 425.101Z" fill="black"/>
<g style="mix-blend-mode:multiply" opacity="0.08">
<g style="mix-blend-mode:multiply" opacity="0.08">
<path d="M864.414 441.416V454.687C850.008 448.843 838.199 437.99 831.163 424.127C831.243 423.439 831.365 422.757 831.528 422.084C838.549 427.252 851.083 435.761 864.414 441.416Z" fill="#0088C9"/>
</g>
</g>
<g style="mix-blend-mode:multiply" opacity="0.08">
<g style="mix-blend-mode:multiply" opacity="0.08">
<path d="M945.488 425.102C938.28 438.717 926.436 449.303 912.101 454.944V441.47C923.776 436.316 934.861 429.916 945.163 422.382C945.348 423.278 945.456 424.188 945.488 425.102Z" fill="#0088C9"/>
</g>
</g>
<g style="mix-blend-mode:screen" opacity="0.4">
<g style="mix-blend-mode:screen" opacity="0.4">
<path d="M941.443 464.645V464.699C941.437 466.916 940.851 469.092 939.743 471.012C938.634 472.933 937.043 474.529 935.126 475.643L894.569 499.046C892.645 500.154 890.464 500.737 888.244 500.737C886.024 500.737 883.843 500.154 881.92 499.046L850.4 480.851L850.291 480.783L841.39 475.643C839.619 474.617 838.122 473.178 837.027 471.449C835.932 469.721 835.27 467.753 835.099 465.713C850.17 476.455 868.177 482.31 886.684 482.484C905.191 482.658 923.305 477.144 938.575 466.687L938.711 466.593L938.778 466.552C939.691 465.93 940.564 465.294 941.443 464.645Z" fill="white"/>
</g>
</g>
<g style="mix-blend-mode:screen" opacity="0.6">
<g style="mix-blend-mode:screen" opacity="0.6">
<path d="M832.705 472.03C832.719 472.043 832.719 472.057 832.732 472.084C832.727 472.068 832.717 472.054 832.705 472.043V472.03Z" fill="white"/>
</g>
</g>
<g style="mix-blend-mode:multiply" opacity="0.25">
<g style="mix-blend-mode:multiply" opacity="0.25">
<path d="M934.49 480.687L896.598 502.562C894.057 504.024 891.176 504.794 888.244 504.794C885.312 504.794 882.432 504.024 879.891 502.562L839.361 479.159C836.529 477.525 834.242 475.092 832.786 472.165C832.894 472.354 833.097 472.679 833.395 473.125C834.105 474.138 834.917 475.076 835.816 475.925C837.207 477.221 838.796 478.285 840.524 479.077C842.526 480.106 844.785 481.269 847.221 482.581C852.131 485.151 857.813 488.222 863.86 491.577C866.877 493.268 870.015 494.973 873.167 496.786C874.75 497.692 876.333 498.598 877.929 499.505L880.324 500.871C881.052 501.302 881.812 501.677 882.596 501.994C885.676 503.273 889.094 503.487 892.309 502.603C893.914 502.142 895.448 501.464 896.868 500.587C898.424 499.721 899.953 498.869 901.468 498.03C907.528 494.675 913.21 491.604 918.107 489.034C927.293 484.157 933.719 481.046 934.49 480.687Z" fill="#0088C9"/>
</g>
</g>
<g style="mix-blend-mode:multiply" opacity="0.25">
<g style="mix-blend-mode:multiply" opacity="0.25">
<path d="M945.488 425.1L944.23 427.671L942.85 430.201L941.348 432.649L939.725 435.03L937.98 437.33L936.14 439.562L934.178 441.699L932.122 443.742L929.971 445.69L927.726 447.543L925.399 449.289L922.991 450.925L920.502 452.454L917.945 453.875L915.32 455.16L913.413 455.985L912.845 456.323C909.003 458.609 905.174 460.923 901.305 463.168L895.475 466.55C893.266 467.783 890.78 468.434 888.251 468.444C886.991 468.438 885.737 468.274 884.517 467.957C883.911 467.794 883.315 467.595 882.731 467.362C882.156 467.131 881.596 466.864 881.054 466.564L875.21 463.168C871.341 460.923 867.512 458.609 863.67 456.337L862.913 455.89V455.647L861.154 454.862L858.53 453.536L855.973 452.075L853.484 450.506L851.076 448.815L848.735 447.029L846.503 445.135L844.366 443.133L842.323 441.05L840.375 438.858L838.549 436.586L836.817 434.245L835.221 431.81L833.733 429.321L832.38 426.751L831.163 424.126L832.664 426.602L834.261 428.983L835.952 431.31L837.724 433.555L839.591 435.72L841.539 437.803L843.581 439.792L845.678 441.699L847.87 443.512L850.142 445.217L852.456 446.84L854.85 448.342L857.299 449.749L859.815 451.047L862.372 452.238L864.414 453.076V455.038L881.622 464.981C883.64 466.144 885.928 466.757 888.258 466.757C890.587 466.757 892.875 466.144 894.893 464.981L912.101 455.038V453.347L914.157 452.522L916.7 451.372L919.203 450.127L921.652 448.761L924.032 447.286L926.359 445.717L928.632 444.053L930.824 442.295L932.934 440.428L934.977 438.48L936.952 436.45L938.832 434.327L940.631 432.135L942.336 429.862L943.959 427.508L945.488 425.1Z" fill="#0088C9"/>
</g>
</g>
<g style="mix-blend-mode:screen" opacity="0.4">
<g style="mix-blend-mode:screen" opacity="0.4">
<path d="M938.575 466.686L935.978 468.566L933.083 470.46C931.108 471.678 929.101 472.823 927.063 473.896C925.007 474.965 922.905 475.939 920.759 476.818C918.612 477.698 916.439 478.5 914.238 479.226C909.828 480.686 905.303 481.772 900.71 482.473C898.411 482.838 896.097 483.095 893.77 483.271C891.403 483.461 889.157 483.528 886.804 483.515C884.477 483.515 882.15 483.407 879.823 483.231L876.346 482.879L872.897 482.392L869.461 481.756L866.052 480.999L862.683 480.106L859.342 479.064L856.054 477.901L852.821 476.602L849.629 475.182L846.504 473.639L843.46 471.948L840.47 470.149L837.561 468.242L835.925 467.078C836.522 470.19 838.271 472.963 840.822 474.843C841.593 475.384 842.391 475.844 843.203 476.358L845.611 477.833L850.291 480.782L841.39 475.641C839.619 474.616 838.122 473.177 837.027 471.448C835.932 469.719 835.27 467.751 835.099 465.712C850.17 476.454 868.177 482.308 886.684 482.483C905.191 482.657 923.305 477.143 938.575 466.686Z" fill="white"/>
</g>
</g>
<g style="mix-blend-mode:screen" opacity="0.5">
<g style="mix-blend-mode:screen" opacity="0.5">
<path d="M864.415 425.717V438.663C864.415 438.663 863.955 435.133 863.644 429.843C863.55 428.531 863.468 427.083 863.401 425.582C863.298 424.1 863.012 422.637 862.549 421.226C861.521 418.187 859.62 415.519 857.083 413.555C855.802 412.572 854.385 411.779 852.876 411.201C851.413 410.68 849.891 410.344 848.344 410.2C847.925 410.2 847.519 410.187 847.113 410.187L846.572 410.173L846.017 410.214C845.294 410.252 844.575 410.347 843.866 410.498C842.546 410.779 841.265 411.22 840.051 411.81C838.196 412.729 836.512 413.96 835.073 415.449C834.546 416.004 834.14 416.45 833.883 416.775C833.693 417.019 833.558 417.181 833.504 417.249C834.852 414.919 836.748 412.953 839.027 411.522C841.307 410.091 843.901 409.238 846.586 409.037C848.869 408.885 851.16 409.203 853.316 409.972C855.472 410.742 857.447 411.946 859.119 413.509C860.79 415.073 862.123 416.964 863.034 419.064C863.945 421.163 864.415 423.428 864.415 425.717Z" fill="white"/>
</g>
</g>
<g style="mix-blend-mode:screen" opacity="0.5">
<g style="mix-blend-mode:screen" opacity="0.5">
<path d="M936.491 410.87C936.329 410.815 935.734 410.626 934.787 410.396C933.277 410.029 931.728 409.843 930.174 409.841C929.157 409.846 928.143 409.941 927.144 410.125C926.604 410.21 926.07 410.332 925.547 410.491C925.29 410.572 925.02 410.64 924.749 410.721C924.478 410.802 924.208 410.924 923.937 411.018C922.848 411.462 921.802 412.005 920.812 412.642C919.806 413.32 918.877 414.104 918.039 414.982C917.183 415.842 916.425 416.795 915.78 417.823C915.146 418.829 914.612 419.893 914.184 421.002C913.971 421.527 913.79 422.065 913.643 422.612C913.481 423.126 913.355 423.65 913.264 424.181C913.153 424.708 913.072 425.241 913.02 425.777L912.98 426.17C912.966 426.224 912.953 426.332 912.953 426.332L912.939 426.521C912.912 426.778 912.898 427.036 912.871 427.279C912.547 431.256 912.1 433.894 912.1 433.894V426.291C912.049 421.98 913.627 417.808 916.519 414.61C919.411 411.412 923.403 409.424 927.698 409.043C930.741 408.837 933.782 409.468 936.491 410.87Z" fill="white"/>
</g>
</g>
<path d="M769.764 529.241C769.479 531.862 768.539 533.867 766.944 535.257C765.361 536.647 763.247 537.342 760.604 537.342C758.758 537.342 757.123 536.88 755.699 535.958C754.286 535.035 753.193 533.73 752.418 532.044C751.643 530.346 751.25 528.41 751.239 526.233V523.003C751.239 520.793 751.626 518.833 752.401 517.125C753.176 515.416 754.286 514.1 755.733 513.177C757.192 512.243 758.867 511.775 760.758 511.775C763.424 511.775 765.526 512.499 767.064 513.946C768.613 515.381 769.514 517.369 769.764 519.91H767.645C767.121 515.683 764.825 513.57 760.758 513.57C758.502 513.57 756.702 514.413 755.357 516.099C754.024 517.785 753.358 520.115 753.358 523.089V526.131C753.358 529.002 754.007 531.292 755.306 533.001C756.616 534.71 758.382 535.564 760.604 535.564C762.803 535.564 764.461 535.04 765.577 533.992C766.694 532.933 767.383 531.349 767.645 529.241H769.764ZM793.263 525.909C793.263 528.199 792.864 530.21 792.066 531.941C791.28 533.673 790.152 535.006 788.683 535.94C787.213 536.875 785.515 537.342 783.59 537.342C780.685 537.342 778.338 536.305 776.549 534.231C774.76 532.146 773.866 529.338 773.866 525.806V523.243C773.866 520.975 774.264 518.97 775.062 517.227C775.871 515.472 777.01 514.128 778.48 513.194C779.95 512.248 781.642 511.775 783.556 511.775C785.47 511.775 787.156 512.237 788.614 513.16C790.084 514.083 791.218 515.387 792.015 517.073C792.813 518.759 793.229 520.713 793.263 522.935V525.909ZM791.161 523.208C791.161 520.212 790.483 517.865 789.127 516.167C787.771 514.47 785.914 513.621 783.556 513.621C781.243 513.621 779.397 514.476 778.019 516.185C776.651 517.882 775.968 520.258 775.968 523.311V525.909C775.968 528.86 776.651 531.201 778.019 532.933C779.386 534.653 781.243 535.513 783.59 535.513C785.971 535.513 787.828 534.664 789.161 532.967C790.494 531.258 791.161 528.882 791.161 525.84V523.208ZM801.346 512.117L810.523 534.078L819.735 512.117H822.538V537H820.436V526.165L820.606 515.057L811.344 537H809.72L800.492 515.142L800.663 526.097V537H798.561V512.117H801.346ZM830.946 526.866V537H828.844V512.117H837.32C839.907 512.117 841.946 512.778 843.438 514.1C844.942 515.421 845.694 517.238 845.694 519.551C845.694 521.887 844.971 523.693 843.524 524.969C842.088 526.233 840.003 526.866 837.269 526.866H830.946ZM830.946 525.088H837.32C839.36 525.088 840.915 524.604 841.986 523.636C843.057 522.667 843.592 521.317 843.592 519.585C843.592 517.865 843.057 516.498 841.986 515.484C840.926 514.458 839.417 513.934 837.457 513.912H830.946V525.088ZM861.485 530.027H850.189L847.625 537H845.421L854.837 512.117H856.837L866.253 537H864.066L861.485 530.027ZM850.838 528.233H860.819L855.829 514.681L850.838 528.233ZM888.453 537H886.351L872.047 515.706V537H869.928V512.117H872.047L886.368 533.428V512.117H888.453V537ZM901.595 525.687L909.2 512.117H911.627L902.638 527.635V537H900.536V527.635L891.563 512.117H894.059L901.595 525.687Z" fill="black"/>
<path d="M832.082 556.616C831.95 557.744 831.533 558.616 830.83 559.231C830.131 559.841 829.201 560.146 828.039 560.146C826.779 560.146 825.769 559.695 825.007 558.792C824.25 557.888 823.872 556.68 823.872 555.166V554.141C823.872 553.149 824.047 552.278 824.399 551.526C824.755 550.774 825.258 550.198 825.908 549.797C826.557 549.392 827.309 549.189 828.164 549.189C829.296 549.189 830.205 549.507 830.888 550.142C831.572 550.771 831.97 551.646 832.082 552.764H830.668C830.546 551.914 830.28 551.299 829.87 550.918C829.465 550.537 828.896 550.347 828.164 550.347C827.265 550.347 826.56 550.679 826.047 551.343C825.539 552.007 825.285 552.952 825.285 554.177V555.21C825.285 556.367 825.527 557.288 826.01 557.971C826.494 558.655 827.17 558.997 828.039 558.997C828.82 558.997 829.418 558.821 829.833 558.469C830.253 558.113 830.532 557.495 830.668 556.616H832.082ZM837.919 555.686H835.415V560H834.001V549.336H837.531C838.732 549.336 839.655 549.609 840.3 550.156C840.949 550.703 841.274 551.499 841.274 552.544C841.274 553.208 841.093 553.787 840.732 554.28C840.375 554.773 839.877 555.142 839.238 555.386L841.743 559.912V560H840.234L837.919 555.686ZM835.415 554.536H837.575C838.273 554.536 838.828 554.355 839.238 553.994C839.653 553.633 839.86 553.149 839.86 552.544C839.86 551.885 839.663 551.379 839.267 551.028C838.876 550.676 838.31 550.498 837.568 550.493H835.415V554.536ZM849.279 555.071H844.658V558.85H850.026V560H843.251V549.336H849.953V550.493H844.658V553.921H849.279V555.071ZM857.666 557.217H853.198L852.194 560H850.744L854.816 549.336H856.047L860.126 560H858.684L857.666 557.217ZM853.623 556.06H857.248L855.432 551.072L853.623 556.06ZM867.978 550.493H864.55V560H863.151V550.493H859.731V549.336H867.978V550.493ZM871.069 560H869.663V549.336H871.069V560ZM877.177 558.132L880.224 549.336H881.762L877.807 560H876.562L872.614 549.336H874.145L877.177 558.132ZM889.226 555.071H884.604V558.85H889.973V560H883.198V549.336H889.899V550.493H884.604V553.921H889.226V555.071ZM898.586 555.247C897.38 554.9 896.501 554.475 895.949 553.972C895.402 553.464 895.129 552.839 895.129 552.097C895.129 551.257 895.463 550.564 896.132 550.017C896.806 549.465 897.68 549.189 898.754 549.189C899.487 549.189 900.139 549.331 900.71 549.614C901.286 549.897 901.73 550.288 902.043 550.786C902.36 551.284 902.519 551.829 902.519 552.419H901.105C901.105 551.775 900.9 551.27 900.49 550.903C900.08 550.532 899.501 550.347 898.754 550.347C898.061 550.347 897.519 550.5 897.128 550.808C896.743 551.111 896.55 551.533 896.55 552.075C896.55 552.51 896.733 552.878 897.099 553.181C897.47 553.479 898.098 553.752 898.981 554.001C899.87 554.25 900.563 554.526 901.062 554.829C901.564 555.127 901.936 555.476 902.175 555.876C902.419 556.277 902.541 556.748 902.541 557.29C902.541 558.154 902.204 558.848 901.53 559.37C900.856 559.888 899.956 560.146 898.828 560.146C898.095 560.146 897.412 560.007 896.777 559.729C896.142 559.446 895.651 559.06 895.305 558.572C894.963 558.083 894.792 557.529 894.792 556.909H896.206C896.206 557.554 896.442 558.064 896.916 558.44C897.395 558.811 898.032 558.997 898.828 558.997C899.57 558.997 900.139 558.845 900.534 558.542C900.93 558.24 901.127 557.827 901.127 557.305C901.127 556.782 900.944 556.379 900.578 556.096C900.212 555.808 899.548 555.525 898.586 555.247ZM905.764 558.85H910.817V560H904.35V549.336H905.764V558.85ZM920.141 555.012C920.141 556.057 919.965 556.97 919.614 557.751C919.262 558.528 918.764 559.121 918.12 559.531C917.475 559.941 916.723 560.146 915.864 560.146C915.024 560.146 914.279 559.941 913.63 559.531C912.98 559.116 912.475 558.528 912.114 557.766C911.757 557 911.574 556.113 911.564 555.107V554.338C911.564 553.313 911.743 552.407 912.099 551.621C912.456 550.835 912.958 550.234 913.608 549.819C914.262 549.399 915.009 549.189 915.849 549.189C916.704 549.189 917.456 549.397 918.105 549.812C918.759 550.222 919.262 550.82 919.614 551.606C919.965 552.388 920.141 553.298 920.141 554.338V555.012ZM918.742 554.324C918.742 553.059 918.488 552.09 917.98 551.416C917.473 550.737 916.762 550.398 915.849 550.398C914.96 550.398 914.26 550.737 913.747 551.416C913.239 552.09 912.978 553.027 912.963 554.229V555.012C912.963 556.238 913.22 557.202 913.732 557.905C914.25 558.604 914.96 558.953 915.864 558.953C916.772 558.953 917.475 558.623 917.973 557.964C918.471 557.3 918.728 556.35 918.742 555.115V554.324ZM930.124 558.601C929.763 559.119 929.257 559.507 928.608 559.766C927.963 560.02 927.211 560.146 926.352 560.146C925.483 560.146 924.711 559.944 924.038 559.539C923.364 559.128 922.841 558.547 922.47 557.795C922.104 557.043 921.916 556.172 921.906 555.181V554.25C921.906 552.644 922.28 551.399 923.027 550.515C923.779 549.631 924.833 549.189 926.191 549.189C927.304 549.189 928.2 549.475 928.879 550.046C929.558 550.613 929.973 551.418 930.124 552.463H928.718C928.454 551.052 927.614 550.347 926.198 550.347C925.256 550.347 924.541 550.679 924.052 551.343C923.569 552.002 923.325 552.959 923.32 554.214V555.085C923.32 556.282 923.593 557.234 924.14 557.942C924.687 558.645 925.427 558.997 926.359 558.997C926.887 558.997 927.348 558.938 927.744 558.821C928.139 558.704 928.466 558.506 928.725 558.228V555.833H926.257V554.69H930.124V558.601ZM938.364 557.217H933.896L932.893 560H931.442L935.515 549.336H936.745L940.825 560H939.382L938.364 557.217ZM934.321 556.06H937.946L936.13 551.072L934.321 556.06ZM950.456 560H949.042L943.674 551.782V560H942.26V549.336H943.674L949.057 557.59V549.336H950.456V560Z" fill="black"/>
<path d="M938.456 537H933.329L923.349 520.628V537H918.222V512.117H923.349L933.346 528.523V512.117H938.456V537ZM957.289 531.873H948.3L946.591 537H941.139L950.402 512.117H955.153L964.467 537H959.015L957.289 531.873ZM949.684 527.72H955.905L952.777 518.406L949.684 527.72ZM973.49 512.117L979.882 530.164L986.239 512.117H992.973V537H987.829V530.198L988.341 518.458L981.625 537H978.104L971.405 518.475L971.918 530.198V537H966.791V512.117H973.49ZM1012.42 526.216H1002.58V532.881H1014.13V537H997.45V512.117H1014.1V516.27H1002.58V522.2H1012.42V526.216Z" fill="black"/>
<g filter="url(#filter0_d)">
<circle cx="101" cy="120" r="40" fill="#0088C9"/>
</g>
<g filter="url(#filter1_d)">
<circle cx="103" cy="268" r="40" fill="#0088C9"/>
</g>
<g filter="url(#filter2_d)">
<circle cx="102" cy="391" r="40" fill="#0088C9"/>
</g>
<g filter="url(#filter3_d)">
<circle cx="98" cy="514" r="40" fill="#0088C9"/>
</g>
<path d="M85 142.8H117V134.8C116.997 131.83 115.816 128.984 113.716 126.884C111.616 124.784 108.769 123.603 105.8 123.6H96.2C93.2306 123.603 90.3838 124.784 88.2841 126.884C86.1845 128.984 85.0034 131.83 85 134.8V142.8Z" fill="white"/>
<path d="M89.8 109.2C89.8 111.415 90.4569 113.581 91.6876 115.422C92.9183 117.264 94.6675 118.7 96.714 119.547C98.7605 120.395 101.012 120.617 103.185 120.185C105.358 119.753 107.353 118.686 108.92 117.12C110.486 115.553 111.553 113.558 111.985 111.385C112.417 109.212 112.195 106.96 111.347 104.914C110.5 102.867 109.064 101.118 107.222 99.8875C105.381 98.6569 103.215 98 101 98C98.0296 98 95.1809 99.18 93.0805 101.28C90.98 103.381 89.8 106.23 89.8 109.2Z" fill="white"/>
<path d="M110.763 272.306L111.202 271.844C112.388 270.7 112.938 270.898 114.058 272.02L120.099 278.003C121.901 279.785 122.757 280.115 121.154 281.809L120.714 282.271L110.763 272.306ZM109.774 273.472L119.44 283.151C117.375 284.691 111.817 288.299 107.709 286.517C104.041 284.911 103.865 284.119 101.119 282.117C96.4836 278.047 91.5189 272.922 87.7844 268.918C85.7853 266.146 84.8626 266.036 83.3908 262.318C81.8311 258.359 85.3459 252.639 86.8178 250.483L96.4836 260.162L92.9248 262.758C91.9143 263.506 93.0567 265.398 94.3747 266.718C96.6814 269.006 101.361 273.714 103.316 275.518C104.612 276.815 106.501 277.981 107.27 276.969L109.774 273.472ZM87.6965 249.229L88.1578 248.767C89.7834 247.271 90.1349 248.129 91.8924 249.911L97.8676 255.939C98.9441 257.061 99.1857 257.589 98.1093 258.733L97.6479 259.173L87.6965 249.229Z" fill="white"/>
<path d="M84 377V399.091H100.25V401.545H94V404H109V401.545H102.75V399.091H119V377H84ZM86.5 379.455H116.5V396.636H86.5V379.455Z" fill="white"/>
<path d="M114.687 512.151L111.222 508.608V499.281C111.222 498.991 111.123 498.713 110.946 498.508C110.768 498.303 110.528 498.188 110.278 498.188H106.5C106.25 498.188 106.009 498.303 105.832 498.508C105.655 498.713 105.556 498.991 105.556 499.281V502.813L99.5808 496.704C99.2101 496.315 98.5035 496 98 496C97.4965 496 96.7923 496.315 96.4216 496.704L81.3105 512.153C81.1243 512.371 81.0138 512.661 81 512.967C81.0121 513.234 81.0965 513.49 81.2414 513.699L82.5052 515.325C82.7022 515.53 82.9502 515.657 83.2135 515.688C83.4418 515.661 83.6598 515.564 83.8445 515.407L84.7831 514.45V528.812C84.7831 529.393 84.9821 529.949 85.3363 530.359C85.6906 530.77 86.171 531 86.672 531H109.333C109.834 531 110.315 530.77 110.669 530.359C111.023 529.949 111.222 529.393 111.222 528.812V514.449L112.161 515.406C112.347 515.563 112.565 515.66 112.794 515.688C113.055 515.656 113.301 515.529 113.495 515.325L114.759 513.697C114.894 513.483 114.978 513.23 115 512.966C114.973 512.663 114.863 512.377 114.687 512.151ZM98 508.031C98.7472 508.031 99.4776 508.288 100.099 508.769C100.72 509.249 101.204 509.933 101.49 510.732C101.776 511.531 101.851 512.411 101.705 513.26C101.559 514.108 101.2 514.888 100.671 515.5C100.143 516.112 99.4698 516.528 98.737 516.697C98.0042 516.866 97.2446 516.779 96.5543 516.448C95.864 516.117 95.274 515.556 94.8589 514.837C94.4438 514.117 94.2222 513.272 94.2222 512.406C94.2222 511.246 94.6202 510.133 95.3287 509.313C96.0372 508.492 96.9981 508.031 98 508.031ZM104.611 526.625H91.3889C91.1384 526.625 90.8982 526.51 90.7211 526.305C90.5439 526.1 90.4444 525.821 90.4444 525.531C90.4444 523.791 91.0415 522.122 92.1042 520.891C93.1669 519.66 94.6082 518.969 96.1111 518.969H99.8889C101.392 518.969 102.833 519.66 103.896 520.891C104.959 522.122 105.556 523.791 105.556 525.531C105.556 525.821 105.456 526.1 105.279 526.305C105.102 526.51 104.862 526.625 104.611 526.625Z" fill="white"/>
<path d="M218.456 135H213.329L203.349 118.628V135H198.222V110.117H203.349L213.346 126.523V110.117H218.456V135ZM237.289 129.873H228.3L226.591 135H221.139L230.402 110.117H235.153L244.467 135H239.015L237.289 129.873ZM229.684 125.72H235.905L232.777 116.406L229.684 125.72ZM253.49 110.117L259.882 128.164L266.239 110.117H272.973V135H267.829V128.198L268.341 116.458L261.625 135H258.104L251.405 116.475L251.918 128.198V135H246.791V110.117H253.49ZM292.421 124.216H282.577V130.881H294.13V135H277.45V110.117H294.096V114.27H282.577V120.2H292.421V124.216Z" fill="black"/>
<path d="M307.349 130.881H318.235V135H302.222V110.117H307.349V130.881ZM335.581 129.873H326.592L324.883 135H319.431L328.694 110.117H333.445L342.759 135H337.307L335.581 129.873ZM327.976 125.72H334.197L331.069 116.406L327.976 125.72ZM357.986 128.472C357.986 127.503 357.644 126.763 356.96 126.25C356.277 125.726 355.046 125.179 353.269 124.609C351.492 124.028 350.085 123.459 349.048 122.9C346.222 121.374 344.81 119.317 344.81 116.731C344.81 115.387 345.186 114.19 345.938 113.142C346.701 112.083 347.789 111.257 349.202 110.664C350.626 110.072 352.221 109.775 353.987 109.775C355.764 109.775 357.348 110.1 358.738 110.75C360.128 111.388 361.204 112.293 361.968 113.467C362.743 114.64 363.13 115.973 363.13 117.466H358.003C358.003 116.326 357.644 115.444 356.926 114.817C356.208 114.179 355.2 113.86 353.901 113.86C352.648 113.86 351.674 114.128 350.979 114.663C350.284 115.187 349.937 115.882 349.937 116.748C349.937 117.557 350.341 118.235 351.15 118.782C351.97 119.329 353.172 119.841 354.756 120.32C357.673 121.197 359.797 122.285 361.13 123.584C362.463 124.883 363.13 126.501 363.13 128.438C363.13 130.591 362.315 132.283 360.686 133.513C359.057 134.732 356.864 135.342 354.106 135.342C352.192 135.342 350.449 134.994 348.877 134.299C347.305 133.593 346.103 132.63 345.271 131.411C344.451 130.192 344.041 128.779 344.041 127.173H349.185C349.185 129.919 350.825 131.292 354.106 131.292C355.326 131.292 356.277 131.047 356.96 130.557C357.644 130.055 357.986 129.36 357.986 128.472ZM385.347 114.27H377.725V135H372.598V114.27H365.078V110.117H385.347V114.27ZM408.521 135H403.394L393.413 118.628V135H388.286V110.117H393.413L403.411 126.523V110.117H408.521V135ZM427.354 129.873H418.364L416.655 135H411.204L420.466 110.117H425.217L434.531 135H429.08L427.354 129.873ZM419.749 125.72H425.969L422.842 116.406L419.749 125.72ZM443.555 110.117L449.946 128.164L456.304 110.117H463.037V135H457.893V128.198L458.406 116.458L451.689 135H448.169L441.47 116.475L441.982 128.198V135H436.855V110.117H443.555ZM482.485 124.216H472.642V130.881H484.194V135H467.515V110.117H484.16V114.27H472.642V120.2H482.485V124.216Z" fill="#0088C9"/>
<path d="M199.389 145.781L204.633 158.33L209.896 145.781H211.498V160H210.297V153.809L210.395 147.461L205.102 160H204.174L198.9 147.51L198.998 153.77V160H197.797V145.781H199.389ZM222.953 156.016H216.498L215.033 160H213.773L219.154 145.781H220.297L225.678 160H224.428L222.953 156.016ZM216.869 154.99H222.572L219.721 147.246L216.869 154.99ZM238.363 160H237.162L228.988 147.832V160H227.777V145.781H228.988L237.172 157.959V145.781H238.363V160ZM249.828 156.016H243.373L241.908 160H240.648L246.029 145.781H247.172L252.553 160H251.303L249.828 156.016ZM243.744 154.99H249.447L246.596 147.246L243.744 154.99ZM264.799 158.311C264.382 158.903 263.728 159.365 262.836 159.697C261.951 160.029 260.958 160.195 259.857 160.195C258.744 160.195 257.755 159.928 256.889 159.395C256.023 158.861 255.352 158.105 254.877 157.129C254.402 156.152 254.161 155.033 254.154 153.77V151.973C254.154 150 254.652 148.444 255.648 147.305C256.645 146.159 257.982 145.586 259.662 145.586C261.127 145.586 262.305 145.96 263.197 146.709C264.089 147.451 264.62 148.477 264.789 149.785H263.588C263.412 148.743 262.986 147.956 262.309 147.422C261.638 146.882 260.759 146.611 259.672 146.611C258.344 146.611 257.292 147.083 256.518 148.027C255.743 148.971 255.355 150.303 255.355 152.021V153.701C255.355 154.782 255.538 155.739 255.902 156.572C256.273 157.399 256.801 158.04 257.484 158.496C258.174 158.952 258.965 159.18 259.857 159.18C260.893 159.18 261.781 159.017 262.523 158.691C263.005 158.477 263.363 158.226 263.598 157.939V154.268H259.779V153.252H264.799V158.311ZM276.059 153.184H269.408V158.984H277.055V160H268.207V145.781H277.006V146.807H269.408V152.168H276.059V153.184ZM284.906 154.082H280.775V160H279.564V145.781H284.184C285.701 145.781 286.885 146.149 287.738 146.885C288.591 147.62 289.018 148.649 289.018 149.971C289.018 150.882 288.751 151.686 288.217 152.383C287.683 153.079 286.967 153.561 286.068 153.828L289.623 159.873V160H288.344L284.906 154.082ZM280.775 153.057H284.457C285.466 153.057 286.277 152.77 286.889 152.197C287.501 151.624 287.807 150.882 287.807 149.971C287.807 148.968 287.488 148.19 286.85 147.637C286.212 147.083 285.316 146.807 284.164 146.807H280.775V153.057Z" fill="black"/>
<path d="M202.152 258.773H206.479V259.867H202.152V264.574H200.971V259.867H196.732V258.773H200.971V254.223H202.152V258.773ZM215.922 259.418C215.505 260.03 214.988 260.505 214.369 260.844C213.751 261.176 213.08 261.342 212.357 261.342C211.55 261.342 210.837 261.133 210.219 260.717C209.6 260.3 209.122 259.724 208.783 258.988C208.445 258.253 208.275 257.449 208.275 256.576C208.275 255.639 208.454 254.786 208.812 254.018C209.177 253.249 209.682 252.654 210.326 252.23C210.977 251.801 211.726 251.586 212.572 251.586C213.998 251.586 215.108 252.087 215.902 253.09C216.697 254.086 217.094 255.502 217.094 257.338V258.393C217.094 260.958 216.547 262.885 215.453 264.174C214.359 265.463 212.689 266.107 210.443 266.107H210.229L210.238 265.092H210.648C212.348 265.066 213.64 264.584 214.525 263.646C215.411 262.709 215.876 261.299 215.922 259.418ZM212.504 260.336C213.285 260.336 213.985 260.105 214.604 259.643C215.229 259.174 215.671 258.568 215.932 257.826V257.152C215.932 255.707 215.629 254.587 215.023 253.793C214.424 252.992 213.614 252.592 212.592 252.592C211.667 252.592 210.909 252.966 210.316 253.715C209.724 254.457 209.428 255.395 209.428 256.527C209.428 257.615 209.711 258.523 210.277 259.252C210.85 259.975 211.592 260.336 212.504 260.336ZM227.016 259.418C226.599 260.03 226.081 260.505 225.463 260.844C224.844 261.176 224.174 261.342 223.451 261.342C222.644 261.342 221.931 261.133 221.312 260.717C220.694 260.3 220.215 259.724 219.877 258.988C219.538 258.253 219.369 257.449 219.369 256.576C219.369 255.639 219.548 254.786 219.906 254.018C220.271 253.249 220.775 252.654 221.42 252.23C222.071 251.801 222.82 251.586 223.666 251.586C225.092 251.586 226.202 252.087 226.996 253.09C227.79 254.086 228.188 255.502 228.188 257.338V258.393C228.188 260.958 227.641 262.885 226.547 264.174C225.453 265.463 223.783 266.107 221.537 266.107H221.322L221.332 265.092H221.742C223.441 265.066 224.734 264.584 225.619 263.646C226.505 262.709 226.97 261.299 227.016 259.418ZM223.598 260.336C224.379 260.336 225.079 260.105 225.697 259.643C226.322 259.174 226.765 258.568 227.025 257.826V257.152C227.025 255.707 226.723 254.587 226.117 253.793C225.518 252.992 224.708 252.592 223.686 252.592C222.761 252.592 222.003 252.966 221.41 253.715C220.818 254.457 220.521 255.395 220.521 256.527C220.521 257.615 220.805 258.523 221.371 259.252C221.944 259.975 222.686 260.336 223.598 260.336ZM231.605 258.715L232.299 251.781H239.408V252.865H233.305L232.807 257.67C233.568 257.149 234.46 256.889 235.482 256.889C236.765 256.889 237.787 257.305 238.549 258.139C239.311 258.972 239.691 260.082 239.691 261.469C239.691 262.966 239.32 264.128 238.578 264.955C237.836 265.782 236.791 266.195 235.443 266.195C234.206 266.195 233.204 265.85 232.436 265.16C231.667 264.47 231.228 263.503 231.117 262.26H232.24C232.351 263.23 232.68 263.965 233.227 264.467C233.773 264.962 234.512 265.209 235.443 265.209C236.459 265.209 237.224 264.887 237.738 264.242C238.259 263.598 238.52 262.68 238.52 261.488C238.52 260.447 238.23 259.597 237.65 258.939C237.071 258.282 236.28 257.953 235.277 257.953C234.724 257.953 234.242 258.025 233.832 258.168C233.422 258.305 232.989 258.575 232.533 258.979L231.605 258.715ZM252.211 266H251.039V253.188L247.172 254.623V253.529L252.016 251.732H252.211V266ZM266.771 266H257.865V265.102L262.738 259.574C263.546 258.643 264.105 257.875 264.418 257.27C264.73 256.664 264.887 256.075 264.887 255.502C264.887 254.604 264.623 253.894 264.096 253.373C263.568 252.846 262.842 252.582 261.918 252.582C260.961 252.582 260.186 252.888 259.594 253.5C259.008 254.112 258.715 254.906 258.715 255.883H257.553C257.553 255.082 257.732 254.353 258.09 253.695C258.454 253.038 258.969 252.523 259.633 252.152C260.303 251.775 261.065 251.586 261.918 251.586C263.22 251.586 264.236 251.928 264.965 252.611C265.701 253.295 266.068 254.226 266.068 255.404C266.068 256.068 265.86 256.794 265.443 257.582C265.033 258.37 264.307 259.353 263.266 260.531L259.301 265.014H266.771V266ZM271.557 258.256H272.768C273.438 258.256 274.024 258.139 274.525 257.904C275.027 257.663 275.408 257.338 275.668 256.928C275.935 256.511 276.068 256.033 276.068 255.492C276.068 254.581 275.811 253.868 275.297 253.354C274.783 252.839 274.044 252.582 273.08 252.582C272.169 252.582 271.42 252.852 270.834 253.393C270.255 253.926 269.965 254.633 269.965 255.512H268.793C268.793 254.776 268.979 254.105 269.35 253.5C269.721 252.888 270.235 252.416 270.893 252.084C271.55 251.752 272.279 251.586 273.08 251.586C274.369 251.586 275.385 251.938 276.127 252.641C276.869 253.344 277.24 254.307 277.24 255.531C277.24 256.215 277.022 256.846 276.586 257.426C276.156 257.999 275.564 258.428 274.809 258.715C275.694 258.962 276.365 259.389 276.82 259.994C277.276 260.593 277.504 261.309 277.504 262.143C277.504 263.36 277.107 264.34 276.312 265.082C275.518 265.824 274.457 266.195 273.129 266.195C272.283 266.195 271.505 266.026 270.795 265.688C270.092 265.349 269.545 264.877 269.154 264.271C268.77 263.66 268.578 262.95 268.578 262.143H269.75C269.75 263.048 270.066 263.786 270.697 264.359C271.329 264.926 272.139 265.209 273.129 265.209C274.138 265.209 274.923 264.952 275.482 264.438C276.049 263.917 276.332 263.165 276.332 262.182C276.332 261.231 276.026 260.505 275.414 260.004C274.809 259.503 273.913 259.252 272.729 259.252H271.557V258.256ZM287.23 261.42H289.447V262.406H287.23V266H286.059V262.406H279.369V261.742L285.951 251.781H287.23V261.42ZM280.805 261.42H286.059V253.295L285.541 254.193L280.805 261.42ZM300.053 266H291.146V265.102L296.02 259.574C296.827 258.643 297.387 257.875 297.699 257.27C298.012 256.664 298.168 256.075 298.168 255.502C298.168 254.604 297.904 253.894 297.377 253.373C296.85 252.846 296.124 252.582 295.199 252.582C294.242 252.582 293.467 252.888 292.875 253.5C292.289 254.112 291.996 254.906 291.996 255.883H290.834C290.834 255.082 291.013 254.353 291.371 253.695C291.736 253.038 292.25 252.523 292.914 252.152C293.585 251.775 294.346 251.586 295.199 251.586C296.501 251.586 297.517 251.928 298.246 252.611C298.982 253.295 299.35 254.226 299.35 255.404C299.35 256.068 299.141 256.794 298.725 257.582C298.314 258.37 297.589 259.353 296.547 260.531L292.582 265.014H300.053V266ZM304.838 258.256H306.049C306.719 258.256 307.305 258.139 307.807 257.904C308.308 257.663 308.689 257.338 308.949 256.928C309.216 256.511 309.35 256.033 309.35 255.492C309.35 254.581 309.092 253.868 308.578 253.354C308.064 252.839 307.325 252.582 306.361 252.582C305.45 252.582 304.701 252.852 304.115 253.393C303.536 253.926 303.246 254.633 303.246 255.512H302.074C302.074 254.776 302.26 254.105 302.631 253.5C303.002 252.888 303.516 252.416 304.174 252.084C304.831 251.752 305.561 251.586 306.361 251.586C307.65 251.586 308.666 251.938 309.408 252.641C310.15 253.344 310.521 254.307 310.521 255.531C310.521 256.215 310.303 256.846 309.867 257.426C309.438 257.999 308.845 258.428 308.09 258.715C308.975 258.962 309.646 259.389 310.102 259.994C310.557 260.593 310.785 261.309 310.785 262.143C310.785 263.36 310.388 264.34 309.594 265.082C308.799 265.824 307.738 266.195 306.41 266.195C305.564 266.195 304.786 266.026 304.076 265.688C303.373 265.349 302.826 264.877 302.436 264.271C302.051 263.66 301.859 262.95 301.859 262.143H303.031C303.031 263.048 303.347 263.786 303.979 264.359C304.61 264.926 305.421 265.209 306.41 265.209C307.419 265.209 308.204 264.952 308.764 264.438C309.33 263.917 309.613 263.165 309.613 262.182C309.613 261.231 309.307 260.505 308.695 260.004C308.09 259.503 307.195 259.252 306.01 259.252H304.838V258.256ZM320.512 261.42H322.729V262.406H320.512V266H319.34V262.406H312.65V261.742L319.232 251.781H320.512V261.42ZM314.086 261.42H319.34V253.295L318.822 254.193L314.086 261.42ZM336.469 261.42H338.686V262.406H336.469V266H335.297V262.406H328.607V261.742L335.189 251.781H336.469V261.42ZM330.043 261.42H335.297V253.295L334.779 254.193L330.043 261.42ZM349.145 252.455L343.07 266H341.85L347.885 252.777H339.799V251.781H349.145V252.455ZM356.918 266H355.746V253.188L351.879 254.623V253.529L356.723 251.732H356.918V266ZM371.479 266H362.572V265.102L367.445 259.574C368.253 258.643 368.812 257.875 369.125 257.27C369.438 256.664 369.594 256.075 369.594 255.502C369.594 254.604 369.33 253.894 368.803 253.373C368.275 252.846 367.549 252.582 366.625 252.582C365.668 252.582 364.893 252.888 364.301 253.5C363.715 254.112 363.422 254.906 363.422 255.883H362.26C362.26 255.082 362.439 254.353 362.797 253.695C363.161 253.038 363.676 252.523 364.34 252.152C365.01 251.775 365.772 251.586 366.625 251.586C367.927 251.586 368.943 251.928 369.672 252.611C370.408 253.295 370.775 254.226 370.775 255.404C370.775 256.068 370.567 256.794 370.15 257.582C369.74 258.37 369.014 259.353 367.973 260.531L364.008 265.014H371.479V266Z" fill="black"/>
<path d="M202.152 295.773H206.479V296.867H202.152V301.574H200.971V296.867H196.732V295.773H200.971V291.223H202.152V295.773ZM215.922 296.418C215.505 297.03 214.988 297.505 214.369 297.844C213.751 298.176 213.08 298.342 212.357 298.342C211.55 298.342 210.837 298.133 210.219 297.717C209.6 297.3 209.122 296.724 208.783 295.988C208.445 295.253 208.275 294.449 208.275 293.576C208.275 292.639 208.454 291.786 208.812 291.018C209.177 290.249 209.682 289.654 210.326 289.23C210.977 288.801 211.726 288.586 212.572 288.586C213.998 288.586 215.108 289.087 215.902 290.09C216.697 291.086 217.094 292.502 217.094 294.338V295.393C217.094 297.958 216.547 299.885 215.453 301.174C214.359 302.463 212.689 303.107 210.443 303.107H210.229L210.238 302.092H210.648C212.348 302.066 213.64 301.584 214.525 300.646C215.411 299.709 215.876 298.299 215.922 296.418ZM212.504 297.336C213.285 297.336 213.985 297.105 214.604 296.643C215.229 296.174 215.671 295.568 215.932 294.826V294.152C215.932 292.707 215.629 291.587 215.023 290.793C214.424 289.992 213.614 289.592 212.592 289.592C211.667 289.592 210.909 289.966 210.316 290.715C209.724 291.457 209.428 292.395 209.428 293.527C209.428 294.615 209.711 295.523 210.277 296.252C210.85 296.975 211.592 297.336 212.504 297.336ZM227.016 296.418C226.599 297.03 226.081 297.505 225.463 297.844C224.844 298.176 224.174 298.342 223.451 298.342C222.644 298.342 221.931 298.133 221.312 297.717C220.694 297.3 220.215 296.724 219.877 295.988C219.538 295.253 219.369 294.449 219.369 293.576C219.369 292.639 219.548 291.786 219.906 291.018C220.271 290.249 220.775 289.654 221.42 289.23C222.071 288.801 222.82 288.586 223.666 288.586C225.092 288.586 226.202 289.087 226.996 290.09C227.79 291.086 228.188 292.502 228.188 294.338V295.393C228.188 297.958 227.641 299.885 226.547 301.174C225.453 302.463 223.783 303.107 221.537 303.107H221.322L221.332 302.092H221.742C223.441 302.066 224.734 301.584 225.619 300.646C226.505 299.709 226.97 298.299 227.016 296.418ZM223.598 297.336C224.379 297.336 225.079 297.105 225.697 296.643C226.322 296.174 226.765 295.568 227.025 294.826V294.152C227.025 292.707 226.723 291.587 226.117 290.793C225.518 289.992 224.708 289.592 223.686 289.592C222.761 289.592 222.003 289.966 221.41 290.715C220.818 291.457 220.521 292.395 220.521 293.527C220.521 294.615 220.805 295.523 221.371 296.252C221.944 296.975 222.686 297.336 223.598 297.336ZM231.605 295.715L232.299 288.781H239.408V289.865H233.305L232.807 294.67C233.568 294.149 234.46 293.889 235.482 293.889C236.765 293.889 237.787 294.305 238.549 295.139C239.311 295.972 239.691 297.082 239.691 298.469C239.691 299.966 239.32 301.128 238.578 301.955C237.836 302.782 236.791 303.195 235.443 303.195C234.206 303.195 233.204 302.85 232.436 302.16C231.667 301.47 231.228 300.503 231.117 299.26H232.24C232.351 300.23 232.68 300.965 233.227 301.467C233.773 301.962 234.512 302.209 235.443 302.209C236.459 302.209 237.224 301.887 237.738 301.242C238.259 300.598 238.52 299.68 238.52 298.488C238.52 297.447 238.23 296.597 237.65 295.939C237.071 295.282 236.28 294.953 235.277 294.953C234.724 294.953 234.242 295.025 233.832 295.168C233.422 295.305 232.989 295.575 232.533 295.979L231.605 295.715ZM255.15 292.443C255.15 293.179 254.936 293.84 254.506 294.426C254.076 295.005 253.51 295.432 252.807 295.705C253.627 295.985 254.285 296.438 254.779 297.062C255.274 297.688 255.521 298.41 255.521 299.23C255.521 300.448 255.108 301.415 254.281 302.131C253.454 302.84 252.361 303.195 251 303.195C249.626 303.195 248.526 302.84 247.699 302.131C246.879 301.421 246.469 300.454 246.469 299.23C246.469 298.423 246.706 297.704 247.182 297.072C247.657 296.441 248.308 295.985 249.135 295.705C248.432 295.432 247.872 295.005 247.455 294.426C247.038 293.84 246.83 293.179 246.83 292.443C246.83 291.265 247.208 290.327 247.963 289.631C248.725 288.934 249.73 288.586 250.98 288.586C252.23 288.586 253.236 288.938 253.998 289.641C254.766 290.344 255.15 291.278 255.15 292.443ZM254.35 299.24C254.35 298.355 254.034 297.629 253.402 297.062C252.771 296.49 251.964 296.203 250.98 296.203C249.997 296.203 249.193 296.483 248.568 297.043C247.943 297.603 247.631 298.335 247.631 299.24C247.631 300.145 247.934 300.868 248.539 301.408C249.145 301.942 249.965 302.209 251 302.209C252.009 302.209 252.82 301.942 253.432 301.408C254.044 300.874 254.35 300.152 254.35 299.24ZM253.979 292.434C253.979 291.62 253.695 290.943 253.129 290.402C252.569 289.855 251.853 289.582 250.98 289.582C250.095 289.582 249.376 289.846 248.822 290.373C248.275 290.894 248.002 291.581 248.002 292.434C248.002 293.267 248.275 293.938 248.822 294.445C249.376 294.953 250.098 295.207 250.99 295.207C251.869 295.207 252.585 294.953 253.139 294.445C253.699 293.931 253.979 293.26 253.979 292.434ZM263.305 303H262.133V290.188L258.266 291.623V290.529L263.109 288.732H263.305V303ZM276.137 298.42H278.354V299.406H276.137V303H274.965V299.406H268.275V298.742L274.857 288.781H276.137V298.42ZM269.711 298.42H274.965V290.295L274.447 291.193L269.711 298.42ZM288.432 292.443C288.432 293.179 288.217 293.84 287.787 294.426C287.357 295.005 286.791 295.432 286.088 295.705C286.908 295.985 287.566 296.438 288.061 297.062C288.555 297.688 288.803 298.41 288.803 299.23C288.803 300.448 288.389 301.415 287.562 302.131C286.736 302.84 285.642 303.195 284.281 303.195C282.908 303.195 281.807 302.84 280.98 302.131C280.16 301.421 279.75 300.454 279.75 299.23C279.75 298.423 279.988 297.704 280.463 297.072C280.938 296.441 281.589 295.985 282.416 295.705C281.713 295.432 281.153 295.005 280.736 294.426C280.32 293.84 280.111 293.179 280.111 292.443C280.111 291.265 280.489 290.327 281.244 289.631C282.006 288.934 283.012 288.586 284.262 288.586C285.512 288.586 286.518 288.938 287.279 289.641C288.048 290.344 288.432 291.278 288.432 292.443ZM287.631 299.24C287.631 298.355 287.315 297.629 286.684 297.062C286.052 296.49 285.245 296.203 284.262 296.203C283.279 296.203 282.475 296.483 281.85 297.043C281.225 297.603 280.912 298.335 280.912 299.24C280.912 300.145 281.215 300.868 281.82 301.408C282.426 301.942 283.246 302.209 284.281 302.209C285.29 302.209 286.101 301.942 286.713 301.408C287.325 300.874 287.631 300.152 287.631 299.24ZM287.26 292.434C287.26 291.62 286.977 290.943 286.41 290.402C285.85 289.855 285.134 289.582 284.262 289.582C283.376 289.582 282.657 289.846 282.104 290.373C281.557 290.894 281.283 291.581 281.283 292.434C281.283 293.267 281.557 293.938 282.104 294.445C282.657 294.953 283.38 295.207 284.271 295.207C285.15 295.207 285.867 294.953 286.42 294.445C286.98 293.931 287.26 293.26 287.26 292.434ZM296.586 303H295.414V290.188L291.547 291.623V290.529L296.391 288.732H296.586V303ZM311.146 303H302.24V302.102L307.113 296.574C307.921 295.643 308.48 294.875 308.793 294.27C309.105 293.664 309.262 293.075 309.262 292.502C309.262 291.604 308.998 290.894 308.471 290.373C307.943 289.846 307.217 289.582 306.293 289.582C305.336 289.582 304.561 289.888 303.969 290.5C303.383 291.112 303.09 291.906 303.09 292.883H301.928C301.928 292.082 302.107 291.353 302.465 290.695C302.829 290.038 303.344 289.523 304.008 289.152C304.678 288.775 305.44 288.586 306.293 288.586C307.595 288.586 308.611 288.928 309.34 289.611C310.076 290.295 310.443 291.226 310.443 292.404C310.443 293.068 310.235 293.794 309.818 294.582C309.408 295.37 308.682 296.353 307.641 297.531L303.676 302.014H311.146V303ZM315.932 295.256H317.143C317.813 295.256 318.399 295.139 318.9 294.904C319.402 294.663 319.783 294.338 320.043 293.928C320.31 293.511 320.443 293.033 320.443 292.492C320.443 291.581 320.186 290.868 319.672 290.354C319.158 289.839 318.419 289.582 317.455 289.582C316.544 289.582 315.795 289.852 315.209 290.393C314.63 290.926 314.34 291.633 314.34 292.512H313.168C313.168 291.776 313.354 291.105 313.725 290.5C314.096 289.888 314.61 289.416 315.268 289.084C315.925 288.752 316.654 288.586 317.455 288.586C318.744 288.586 319.76 288.938 320.502 289.641C321.244 290.344 321.615 291.307 321.615 292.531C321.615 293.215 321.397 293.846 320.961 294.426C320.531 294.999 319.939 295.428 319.184 295.715C320.069 295.962 320.74 296.389 321.195 296.994C321.651 297.593 321.879 298.309 321.879 299.143C321.879 300.36 321.482 301.34 320.688 302.082C319.893 302.824 318.832 303.195 317.504 303.195C316.658 303.195 315.88 303.026 315.17 302.688C314.467 302.349 313.92 301.877 313.529 301.271C313.145 300.66 312.953 299.95 312.953 299.143H314.125C314.125 300.048 314.441 300.786 315.072 301.359C315.704 301.926 316.514 302.209 317.504 302.209C318.513 302.209 319.298 301.952 319.857 301.438C320.424 300.917 320.707 300.165 320.707 299.182C320.707 298.231 320.401 297.505 319.789 297.004C319.184 296.503 318.288 296.252 317.104 296.252H315.932V295.256ZM331.605 298.42H333.822V299.406H331.605V303H330.434V299.406H323.744V298.742L330.326 288.781H331.605V298.42ZM325.18 298.42H330.434V290.295L329.916 291.193L325.18 298.42ZM344.428 303H335.521V302.102L340.395 296.574C341.202 295.643 341.762 294.875 342.074 294.27C342.387 293.664 342.543 293.075 342.543 292.502C342.543 291.604 342.279 290.894 341.752 290.373C341.225 289.846 340.499 289.582 339.574 289.582C338.617 289.582 337.842 289.888 337.25 290.5C336.664 291.112 336.371 291.906 336.371 292.883H335.209C335.209 292.082 335.388 291.353 335.746 290.695C336.111 290.038 336.625 289.523 337.289 289.152C337.96 288.775 338.721 288.586 339.574 288.586C340.876 288.586 341.892 288.928 342.621 289.611C343.357 290.295 343.725 291.226 343.725 292.404C343.725 293.068 343.516 293.794 343.1 294.582C342.689 295.37 341.964 296.353 340.922 297.531L336.957 302.014H344.428V303ZM349.213 295.256H350.424C351.094 295.256 351.68 295.139 352.182 294.904C352.683 294.663 353.064 294.338 353.324 293.928C353.591 293.511 353.725 293.033 353.725 292.492C353.725 291.581 353.467 290.868 352.953 290.354C352.439 289.839 351.7 289.582 350.736 289.582C349.825 289.582 349.076 289.852 348.49 290.393C347.911 290.926 347.621 291.633 347.621 292.512H346.449C346.449 291.776 346.635 291.105 347.006 290.5C347.377 289.888 347.891 289.416 348.549 289.084C349.206 288.752 349.936 288.586 350.736 288.586C352.025 288.586 353.041 288.938 353.783 289.641C354.525 290.344 354.896 291.307 354.896 292.531C354.896 293.215 354.678 293.846 354.242 294.426C353.812 294.999 353.22 295.428 352.465 295.715C353.35 295.962 354.021 296.389 354.477 296.994C354.932 297.593 355.16 298.309 355.16 299.143C355.16 300.36 354.763 301.34 353.969 302.082C353.174 302.824 352.113 303.195 350.785 303.195C349.939 303.195 349.161 303.026 348.451 302.688C347.748 302.349 347.201 301.877 346.811 301.271C346.426 300.66 346.234 299.95 346.234 299.143H347.406C347.406 300.048 347.722 300.786 348.354 301.359C348.985 301.926 349.796 302.209 350.785 302.209C351.794 302.209 352.579 301.952 353.139 301.438C353.705 300.917 353.988 300.165 353.988 299.182C353.988 298.231 353.682 297.505 353.07 297.004C352.465 296.503 351.57 296.252 350.385 296.252H349.213V295.256ZM366.615 303H357.709V302.102L362.582 296.574C363.389 295.643 363.949 294.875 364.262 294.27C364.574 293.664 364.73 293.075 364.73 292.502C364.73 291.604 364.467 290.894 363.939 290.373C363.412 289.846 362.686 289.582 361.762 289.582C360.805 289.582 360.03 289.888 359.438 290.5C358.852 291.112 358.559 291.906 358.559 292.883H357.396C357.396 292.082 357.576 291.353 357.934 290.695C358.298 290.038 358.812 289.523 359.477 289.152C360.147 288.775 360.909 288.586 361.762 288.586C363.064 288.586 364.079 288.928 364.809 289.611C365.544 290.295 365.912 291.226 365.912 292.404C365.912 293.068 365.704 293.794 365.287 294.582C364.877 295.37 364.151 296.353 363.109 297.531L359.145 302.014H366.615V303Z" fill="black"/>
<path d="M205.648 367.184H198.998V372.984H206.645V374H197.797V359.781H206.596V360.807H198.998V366.168H205.648V367.184ZM210.775 359.781L216.02 372.33L221.283 359.781H222.885V374H221.684V367.809L221.781 361.461L216.488 374H215.561L210.287 361.51L210.385 367.77V374H209.184V359.781H210.775ZM234.34 370.016H227.885L226.42 374H225.16L230.541 359.781H231.684L237.064 374H235.814L234.34 370.016ZM228.256 368.99H233.959L231.107 361.246L228.256 368.99ZM240.629 374H239.428V359.781H240.629V374ZM245.707 372.984H252.729V374H244.496V359.781H245.707V372.984ZM270.375 368.99C270.342 369.947 270.167 370.836 269.848 371.656C269.529 372.47 269.086 373.098 268.52 373.541C267.96 373.977 267.309 374.195 266.566 374.195C265.935 374.195 265.421 374.029 265.023 373.697C264.626 373.365 264.363 372.9 264.232 372.301C263.529 373.564 262.559 374.195 261.322 374.195C260.411 374.195 259.73 373.801 259.281 373.014C258.832 372.226 258.666 371.165 258.783 369.83C258.881 368.769 259.122 367.825 259.506 366.998C259.896 366.165 260.401 365.517 261.02 365.055C261.645 364.586 262.312 364.352 263.021 364.352C263.523 364.352 263.962 364.423 264.34 364.566C264.717 364.703 265.157 364.983 265.658 365.406L265.16 370.973C265.095 371.728 265.189 372.314 265.443 372.73C265.704 373.147 266.117 373.355 266.684 373.355C267.484 373.355 268.132 372.965 268.627 372.184C269.128 371.396 269.408 370.331 269.467 368.99C269.59 366.354 269.089 364.371 267.963 363.043C266.837 361.708 265.131 361.041 262.846 361.041C261.472 361.041 260.232 361.386 259.125 362.076C258.025 362.76 257.156 363.73 256.518 364.986C255.88 366.243 255.521 367.691 255.443 369.332C255.365 370.973 255.58 372.418 256.088 373.668C256.602 374.911 257.374 375.868 258.402 376.539C259.438 377.21 260.668 377.545 262.094 377.545C262.693 377.545 263.282 377.473 263.861 377.33C264.441 377.187 264.926 377.001 265.316 376.773L265.619 377.555C265.248 377.802 264.73 378.007 264.066 378.17C263.402 378.339 262.732 378.424 262.055 378.424C260.427 378.424 259.027 378.056 257.855 377.32C256.684 376.591 255.805 375.536 255.219 374.156C254.639 372.783 254.389 371.174 254.467 369.332C254.545 367.522 254.942 365.921 255.658 364.527C256.381 363.128 257.367 362.047 258.617 361.285C259.867 360.517 261.29 360.133 262.885 360.133C264.545 360.133 265.951 360.481 267.104 361.178C268.256 361.868 269.109 362.88 269.662 364.215C270.215 365.549 270.453 367.141 270.375 368.99ZM259.818 371.207C259.89 371.858 260.072 372.363 260.365 372.721C260.658 373.072 261.046 373.248 261.527 373.248C262.732 373.248 263.62 372.418 264.193 370.758L264.633 365.719C264.197 365.4 263.682 365.24 263.09 365.24C262.367 365.24 261.739 365.53 261.205 366.109C260.678 366.682 260.29 367.477 260.043 368.492C259.796 369.501 259.721 370.406 259.818 371.207ZM283.568 372.311C283.152 372.903 282.497 373.365 281.605 373.697C280.72 374.029 279.727 374.195 278.627 374.195C277.514 374.195 276.524 373.928 275.658 373.395C274.792 372.861 274.122 372.105 273.646 371.129C273.171 370.152 272.93 369.033 272.924 367.77V365.973C272.924 364 273.422 362.444 274.418 361.305C275.414 360.159 276.752 359.586 278.432 359.586C279.896 359.586 281.075 359.96 281.967 360.709C282.859 361.451 283.389 362.477 283.559 363.785H282.357C282.182 362.743 281.755 361.956 281.078 361.422C280.408 360.882 279.529 360.611 278.441 360.611C277.113 360.611 276.062 361.083 275.287 362.027C274.512 362.971 274.125 364.303 274.125 366.021V367.701C274.125 368.782 274.307 369.739 274.672 370.572C275.043 371.399 275.57 372.04 276.254 372.496C276.944 372.952 277.735 373.18 278.627 373.18C279.662 373.18 280.551 373.017 281.293 372.691C281.775 372.477 282.133 372.226 282.367 371.939V368.268H278.549V367.252H283.568V372.311ZM288.568 359.781L293.812 372.33L299.076 359.781H300.678V374H299.477V367.809L299.574 361.461L294.281 374H293.354L288.08 361.51L288.178 367.77V374H286.977V359.781H288.568ZM312.133 370.016H305.678L304.213 374H302.953L308.334 359.781H309.477L314.857 374H313.607L312.133 370.016ZM306.049 368.99H311.752L308.9 361.246L306.049 368.99ZM318.422 374H317.221V359.781H318.422V374ZM323.5 372.984H330.521V374H322.289V359.781H323.5V372.984ZM332.455 373.297C332.455 373.069 332.527 372.877 332.67 372.721C332.82 372.558 333.025 372.477 333.285 372.477C333.546 372.477 333.751 372.558 333.9 372.721C334.05 372.877 334.125 373.069 334.125 373.297C334.125 373.525 334.05 373.714 333.9 373.863C333.751 374.007 333.546 374.078 333.285 374.078C333.025 374.078 332.82 374.007 332.67 373.863C332.527 373.714 332.455 373.525 332.455 373.297ZM347.689 369.566C347.527 371.064 346.99 372.21 346.078 373.004C345.173 373.798 343.965 374.195 342.455 374.195C341.4 374.195 340.466 373.932 339.652 373.404C338.845 372.877 338.22 372.132 337.777 371.168C337.335 370.198 337.11 369.091 337.104 367.848V366.002C337.104 364.739 337.325 363.619 337.768 362.643C338.21 361.666 338.845 360.914 339.672 360.387C340.505 359.853 341.462 359.586 342.543 359.586C344.066 359.586 345.268 359.999 346.146 360.826C347.032 361.646 347.546 362.783 347.689 364.234H346.479C346.179 361.819 344.867 360.611 342.543 360.611C341.254 360.611 340.225 361.093 339.457 362.057C338.695 363.02 338.314 364.352 338.314 366.051V367.789C338.314 369.43 338.686 370.738 339.428 371.715C340.176 372.691 341.186 373.18 342.455 373.18C343.712 373.18 344.659 372.88 345.297 372.281C345.935 371.676 346.329 370.771 346.479 369.566H347.689ZM361.117 367.662C361.117 368.971 360.889 370.12 360.434 371.109C359.984 372.099 359.34 372.861 358.5 373.395C357.66 373.928 356.69 374.195 355.59 374.195C353.93 374.195 352.589 373.603 351.566 372.418C350.544 371.227 350.033 369.622 350.033 367.604V366.139C350.033 364.843 350.261 363.697 350.717 362.701C351.179 361.699 351.83 360.93 352.67 360.396C353.51 359.856 354.477 359.586 355.57 359.586C356.664 359.586 357.628 359.85 358.461 360.377C359.301 360.904 359.949 361.65 360.404 362.613C360.86 363.577 361.098 364.693 361.117 365.963V367.662ZM359.916 366.119C359.916 364.407 359.529 363.066 358.754 362.096C357.979 361.126 356.918 360.641 355.57 360.641C354.249 360.641 353.194 361.129 352.406 362.105C351.625 363.076 351.234 364.433 351.234 366.178V367.662C351.234 369.348 351.625 370.686 352.406 371.676C353.188 372.659 354.249 373.15 355.59 373.15C356.951 373.15 358.012 372.665 358.773 371.695C359.535 370.719 359.916 369.361 359.916 367.623V366.119ZM365.736 359.781L370.98 372.33L376.244 359.781H377.846V374H376.645V367.809L376.742 361.461L371.449 374H370.521L365.248 361.51L365.346 367.77V374H364.145V359.781H365.736Z" fill="black"/>
<path d="M199.424 402.162L199.863 404.369L200.4 402.26L203.486 391.781H204.57L207.617 402.26L208.145 404.389L208.613 402.162L211.182 391.781H212.412L208.77 406H207.617L204.395 394.877L204.033 393.471L203.682 394.877L200.381 406H199.229L195.596 391.781H196.826L199.424 402.162ZM217.354 402.162L217.793 404.369L218.33 402.26L221.416 391.781H222.5L225.547 402.26L226.074 404.389L226.543 402.162L229.111 391.781H230.342L226.699 406H225.547L222.324 394.877L221.963 393.471L221.611 394.877L218.311 406H217.158L213.525 391.781H214.756L217.354 402.162ZM235.283 402.162L235.723 404.369L236.26 402.26L239.346 391.781H240.43L243.477 402.26L244.004 404.389L244.473 402.162L247.041 391.781H248.271L244.629 406H243.477L240.254 394.877L239.893 393.471L239.541 394.877L236.24 406H235.088L231.455 391.781H232.686L235.283 402.162ZM248.994 405.297C248.994 405.069 249.066 404.877 249.209 404.721C249.359 404.558 249.564 404.477 249.824 404.477C250.085 404.477 250.29 404.558 250.439 404.721C250.589 404.877 250.664 405.069 250.664 405.297C250.664 405.525 250.589 405.714 250.439 405.863C250.29 406.007 250.085 406.078 249.824 406.078C249.564 406.078 249.359 406.007 249.209 405.863C249.066 405.714 248.994 405.525 248.994 405.297ZM256.787 402.162L257.227 404.369L257.764 402.26L260.85 391.781H261.934L264.98 402.26L265.508 404.389L265.977 402.162L268.545 391.781H269.775L266.133 406H264.98L261.758 394.877L261.396 393.471L261.045 394.877L257.744 406H256.592L252.959 391.781H254.189L256.787 402.162ZM279.941 399.184H273.291V404.984H280.938V406H272.09V391.781H280.889V392.807H273.291V398.168H279.941V399.184ZM283.477 406V391.781H287.676C289.199 391.781 290.355 392.097 291.143 392.729C291.93 393.354 292.324 394.278 292.324 395.502C292.324 396.238 292.122 396.879 291.719 397.426C291.322 397.966 290.775 398.354 290.078 398.588C290.905 398.77 291.569 399.177 292.07 399.809C292.578 400.44 292.832 401.169 292.832 401.996C292.832 403.253 292.425 404.236 291.611 404.945C290.804 405.648 289.678 406 288.232 406H283.477ZM284.678 399.164V404.984H288.281C289.31 404.984 290.124 404.724 290.723 404.203C291.328 403.676 291.631 402.947 291.631 402.016C291.631 401.137 291.341 400.443 290.762 399.936C290.189 399.421 289.395 399.164 288.379 399.164H284.678ZM284.678 398.158H287.959C288.962 398.139 289.736 397.904 290.283 397.455C290.837 396.999 291.113 396.339 291.113 395.473C291.113 394.561 290.827 393.891 290.254 393.461C289.688 393.025 288.828 392.807 287.676 392.807H284.678V398.158ZM303.789 402.504C303.789 401.716 303.512 401.094 302.959 400.639C302.406 400.176 301.393 399.74 299.922 399.33C298.451 398.913 297.376 398.461 296.699 397.973C295.736 397.283 295.254 396.378 295.254 395.258C295.254 394.171 295.7 393.288 296.592 392.611C297.49 391.928 298.636 391.586 300.029 391.586C300.973 391.586 301.816 391.768 302.559 392.133C303.307 392.497 303.887 393.005 304.297 393.656C304.707 394.307 304.912 395.033 304.912 395.834H303.701C303.701 394.864 303.369 394.086 302.705 393.5C302.041 392.908 301.149 392.611 300.029 392.611C298.942 392.611 298.076 392.855 297.432 393.344C296.787 393.826 296.465 394.457 296.465 395.238C296.465 395.961 296.755 396.55 297.334 397.006C297.913 397.462 298.841 397.865 300.117 398.217C301.393 398.562 302.36 398.923 303.018 399.301C303.675 399.672 304.17 400.118 304.502 400.639C304.834 401.16 305 401.775 305 402.484C305 403.604 304.551 404.503 303.652 405.18C302.76 405.857 301.582 406.195 300.117 406.195C299.115 406.195 298.193 406.016 297.354 405.658C296.52 405.3 295.885 404.799 295.449 404.154C295.02 403.51 294.805 402.771 294.805 401.938H296.006C296.006 402.94 296.38 403.731 297.129 404.311C297.878 404.89 298.874 405.18 300.117 405.18C301.224 405.18 302.113 404.936 302.783 404.447C303.454 403.959 303.789 403.311 303.789 402.504ZM309.062 406H307.861V391.781H309.062V406ZM322.285 392.807H317.412V406H316.211V392.807H311.348V391.781H322.285V392.807ZM332.441 399.184H325.791V404.984H333.438V406H324.59V391.781H333.389V392.807H325.791V398.168H332.441V399.184ZM335.596 405.297C335.596 405.069 335.667 404.877 335.811 404.721C335.96 404.558 336.165 404.477 336.426 404.477C336.686 404.477 336.891 404.558 337.041 404.721C337.191 404.877 337.266 405.069 337.266 405.297C337.266 405.525 337.191 405.714 337.041 405.863C336.891 406.007 336.686 406.078 336.426 406.078C336.165 406.078 335.96 406.007 335.811 405.863C335.667 405.714 335.596 405.525 335.596 405.297ZM350.83 401.566C350.667 403.064 350.13 404.21 349.219 405.004C348.314 405.798 347.106 406.195 345.596 406.195C344.541 406.195 343.607 405.932 342.793 405.404C341.986 404.877 341.361 404.132 340.918 403.168C340.475 402.198 340.251 401.091 340.244 399.848V398.002C340.244 396.739 340.465 395.619 340.908 394.643C341.351 393.666 341.986 392.914 342.812 392.387C343.646 391.853 344.603 391.586 345.684 391.586C347.207 391.586 348.408 391.999 349.287 392.826C350.173 393.646 350.687 394.783 350.83 396.234H349.619C349.32 393.819 348.008 392.611 345.684 392.611C344.395 392.611 343.366 393.093 342.598 394.057C341.836 395.02 341.455 396.352 341.455 398.051V399.789C341.455 401.43 341.826 402.738 342.568 403.715C343.317 404.691 344.326 405.18 345.596 405.18C346.852 405.18 347.799 404.88 348.438 404.281C349.076 403.676 349.469 402.771 349.619 401.566H350.83ZM364.258 399.662C364.258 400.971 364.03 402.12 363.574 403.109C363.125 404.099 362.48 404.861 361.641 405.395C360.801 405.928 359.831 406.195 358.73 406.195C357.07 406.195 355.729 405.603 354.707 404.418C353.685 403.227 353.174 401.622 353.174 399.604V398.139C353.174 396.843 353.402 395.697 353.857 394.701C354.32 393.699 354.971 392.93 355.811 392.396C356.65 391.856 357.617 391.586 358.711 391.586C359.805 391.586 360.768 391.85 361.602 392.377C362.441 392.904 363.089 393.65 363.545 394.613C364.001 395.577 364.238 396.693 364.258 397.963V399.662ZM363.057 398.119C363.057 396.407 362.669 395.066 361.895 394.096C361.12 393.126 360.059 392.641 358.711 392.641C357.389 392.641 356.335 393.129 355.547 394.105C354.766 395.076 354.375 396.433 354.375 398.178V399.662C354.375 401.348 354.766 402.686 355.547 403.676C356.328 404.659 357.389 405.15 358.73 405.15C360.091 405.15 361.152 404.665 361.914 403.695C362.676 402.719 363.057 401.361 363.057 399.623V398.119ZM368.877 391.781L374.121 404.33L379.385 391.781H380.986V406H379.785V399.809L379.883 393.461L374.59 406H373.662L368.389 393.51L368.486 399.77V406H367.285V391.781H368.877Z" fill="black"/>
<path d="M201.777 514H200.605V501.188L196.738 502.623V501.529L201.582 499.732H201.777V514ZM216.006 508.072C216.006 510.077 215.638 511.601 214.902 512.643C214.167 513.678 213.083 514.195 211.65 514.195C210.244 514.195 209.167 513.688 208.418 512.672C207.669 511.65 207.285 510.165 207.266 508.219V505.67C207.266 503.671 207.637 502.158 208.379 501.129C209.121 500.1 210.205 499.586 211.631 499.586C213.037 499.586 214.111 500.084 214.854 501.08C215.596 502.07 215.98 503.531 216.006 505.465V508.072ZM214.834 505.523C214.834 503.896 214.567 502.665 214.033 501.832C213.506 500.999 212.705 500.582 211.631 500.582C210.576 500.582 209.782 500.989 209.248 501.803C208.714 502.617 208.441 503.818 208.428 505.406V508.199C208.428 509.82 208.701 511.061 209.248 511.92C209.801 512.779 210.602 513.209 211.65 513.209C212.692 513.209 213.48 512.789 214.014 511.949C214.554 511.109 214.827 509.879 214.834 508.258V505.523ZM227.432 514H218.525V513.102L223.398 507.574C224.206 506.643 224.766 505.875 225.078 505.27C225.391 504.664 225.547 504.075 225.547 503.502C225.547 502.604 225.283 501.894 224.756 501.373C224.229 500.846 223.503 500.582 222.578 500.582C221.621 500.582 220.846 500.888 220.254 501.5C219.668 502.112 219.375 502.906 219.375 503.883H218.213C218.213 503.082 218.392 502.353 218.75 501.695C219.115 501.038 219.629 500.523 220.293 500.152C220.964 499.775 221.725 499.586 222.578 499.586C223.88 499.586 224.896 499.928 225.625 500.611C226.361 501.295 226.729 502.226 226.729 503.404C226.729 504.068 226.52 504.794 226.104 505.582C225.693 506.37 224.967 507.353 223.926 508.531L219.961 513.014H227.432V514ZM232.217 506.256H233.428C234.098 506.256 234.684 506.139 235.186 505.904C235.687 505.663 236.068 505.338 236.328 504.928C236.595 504.511 236.729 504.033 236.729 503.492C236.729 502.581 236.471 501.868 235.957 501.354C235.443 500.839 234.704 500.582 233.74 500.582C232.829 500.582 232.08 500.852 231.494 501.393C230.915 501.926 230.625 502.633 230.625 503.512H229.453C229.453 502.776 229.639 502.105 230.01 501.5C230.381 500.888 230.895 500.416 231.553 500.084C232.21 499.752 232.939 499.586 233.74 499.586C235.029 499.586 236.045 499.938 236.787 500.641C237.529 501.344 237.9 502.307 237.9 503.531C237.9 504.215 237.682 504.846 237.246 505.426C236.816 505.999 236.224 506.428 235.469 506.715C236.354 506.962 237.025 507.389 237.48 507.994C237.936 508.593 238.164 509.309 238.164 510.143C238.164 511.36 237.767 512.34 236.973 513.082C236.178 513.824 235.117 514.195 233.789 514.195C232.943 514.195 232.165 514.026 231.455 513.688C230.752 513.349 230.205 512.877 229.814 512.271C229.43 511.66 229.238 510.95 229.238 510.143H230.41C230.41 511.048 230.726 511.786 231.357 512.359C231.989 512.926 232.799 513.209 233.789 513.209C234.798 513.209 235.583 512.952 236.143 512.438C236.709 511.917 236.992 511.165 236.992 510.182C236.992 509.231 236.686 508.505 236.074 508.004C235.469 507.503 234.574 507.252 233.389 507.252H232.217V506.256ZM249.619 514H240.713V513.102L245.586 507.574C246.393 506.643 246.953 505.875 247.266 505.27C247.578 504.664 247.734 504.075 247.734 503.502C247.734 502.604 247.471 501.894 246.943 501.373C246.416 500.846 245.69 500.582 244.766 500.582C243.809 500.582 243.034 500.888 242.441 501.5C241.855 502.112 241.562 502.906 241.562 503.883H240.4C240.4 503.082 240.579 502.353 240.938 501.695C241.302 501.038 241.816 500.523 242.48 500.152C243.151 499.775 243.913 499.586 244.766 499.586C246.068 499.586 247.083 499.928 247.812 500.611C248.548 501.295 248.916 502.226 248.916 503.404C248.916 504.068 248.708 504.794 248.291 505.582C247.881 506.37 247.155 507.353 246.113 508.531L242.148 513.014H249.619V514ZM266.387 500.807H261.514V514H260.312V500.807H255.449V499.781H266.387V500.807ZM268.691 514V499.781H272.891C274.414 499.781 275.57 500.097 276.357 500.729C277.145 501.354 277.539 502.278 277.539 503.502C277.539 504.238 277.337 504.879 276.934 505.426C276.536 505.966 275.99 506.354 275.293 506.588C276.12 506.77 276.784 507.177 277.285 507.809C277.793 508.44 278.047 509.169 278.047 509.996C278.047 511.253 277.64 512.236 276.826 512.945C276.019 513.648 274.893 514 273.447 514H268.691ZM269.893 507.164V512.984H273.496C274.525 512.984 275.339 512.724 275.938 512.203C276.543 511.676 276.846 510.947 276.846 510.016C276.846 509.137 276.556 508.443 275.977 507.936C275.404 507.421 274.609 507.164 273.594 507.164H269.893ZM269.893 506.158H273.174C274.176 506.139 274.951 505.904 275.498 505.455C276.051 504.999 276.328 504.339 276.328 503.473C276.328 502.561 276.042 501.891 275.469 501.461C274.902 501.025 274.043 500.807 272.891 500.807H269.893V506.158ZM282.422 514H281.221V499.781H282.422V514ZM287.5 512.984H294.521V514H286.289V499.781H287.5V512.984ZM298.301 514H297.1V499.781H298.301V514ZM310.215 510.504C310.215 509.716 309.938 509.094 309.385 508.639C308.831 508.176 307.819 507.74 306.348 507.33C304.876 506.913 303.802 506.461 303.125 505.973C302.161 505.283 301.68 504.378 301.68 503.258C301.68 502.171 302.126 501.288 303.018 500.611C303.916 499.928 305.062 499.586 306.455 499.586C307.399 499.586 308.242 499.768 308.984 500.133C309.733 500.497 310.312 501.005 310.723 501.656C311.133 502.307 311.338 503.033 311.338 503.834H310.127C310.127 502.864 309.795 502.086 309.131 501.5C308.467 500.908 307.575 500.611 306.455 500.611C305.368 500.611 304.502 500.855 303.857 501.344C303.213 501.826 302.891 502.457 302.891 503.238C302.891 503.961 303.18 504.55 303.76 505.006C304.339 505.462 305.267 505.865 306.543 506.217C307.819 506.562 308.786 506.923 309.443 507.301C310.101 507.672 310.596 508.118 310.928 508.639C311.26 509.16 311.426 509.775 311.426 510.484C311.426 511.604 310.977 512.503 310.078 513.18C309.186 513.857 308.008 514.195 306.543 514.195C305.54 514.195 304.619 514.016 303.779 513.658C302.946 513.3 302.311 512.799 301.875 512.154C301.445 511.51 301.23 510.771 301.23 509.938H302.432C302.432 510.94 302.806 511.731 303.555 512.311C304.303 512.89 305.299 513.18 306.543 513.18C307.65 513.18 308.538 512.936 309.209 512.447C309.88 511.959 310.215 511.311 310.215 510.504ZM315.488 514H314.287V499.781H315.488V514ZM331.895 510.016H325.439L323.975 514H322.715L328.096 499.781H329.238L334.619 514H333.369L331.895 510.016ZM325.811 508.99H331.514L328.662 501.246L325.811 508.99ZM340.146 512.242L340.225 512.545L340.312 512.242L344.785 499.781H346.104L340.811 514H339.658L334.365 499.781H335.674L340.146 512.242ZM356.055 507.184H349.404V512.984H357.051V514H348.203V499.781H357.002V500.807H349.404V506.168H356.055V507.184ZM366.045 499.781L371.289 512.33L376.553 499.781H378.154V514H376.953V507.809L377.051 501.461L371.758 514H370.83L365.557 501.51L365.654 507.77V514H364.453V499.781H366.045ZM389.609 510.016H383.154L381.689 514H380.43L385.811 499.781H386.953L392.334 514H391.084L389.609 510.016ZM383.525 508.99H389.229L386.377 501.246L383.525 508.99ZM399.746 508.082H395.615V514H394.404V499.781H399.023C400.54 499.781 401.725 500.149 402.578 500.885C403.431 501.62 403.857 502.649 403.857 503.971C403.857 504.882 403.59 505.686 403.057 506.383C402.523 507.079 401.807 507.561 400.908 507.828L404.463 513.873V514H403.184L399.746 508.082ZM395.615 507.057H399.297C400.306 507.057 401.117 506.77 401.729 506.197C402.34 505.624 402.646 504.882 402.646 503.971C402.646 502.968 402.327 502.19 401.689 501.637C401.051 501.083 400.156 500.807 399.004 500.807H395.615V507.057ZM413.408 499.781H414.619V509.771C414.619 511.119 414.229 512.193 413.447 512.994C412.673 513.795 411.631 514.195 410.322 514.195C408.942 514.195 407.881 513.834 407.139 513.111C406.396 512.389 406.025 511.38 406.025 510.084H407.227C407.227 511.113 407.497 511.887 408.037 512.408C408.577 512.923 409.339 513.18 410.322 513.18C411.227 513.18 411.963 512.88 412.529 512.281C413.102 511.682 413.395 510.868 413.408 509.84V499.781ZM425.605 510.016H419.15L417.686 514H416.426L421.807 499.781H422.949L428.33 514H427.08L425.605 510.016ZM419.521 508.99H425.225L422.373 501.246L419.521 508.99ZM441.016 514H439.814L431.641 501.832V514H430.43V499.781H431.641L439.824 511.959V499.781H441.016V514ZM446.094 514H444.893V499.781H446.094V514ZM458.008 510.504C458.008 509.716 457.731 509.094 457.178 508.639C456.624 508.176 455.612 507.74 454.141 507.33C452.669 506.913 451.595 506.461 450.918 505.973C449.954 505.283 449.473 504.378 449.473 503.258C449.473 502.171 449.919 501.288 450.811 500.611C451.709 499.928 452.855 499.586 454.248 499.586C455.192 499.586 456.035 499.768 456.777 500.133C457.526 500.497 458.105 501.005 458.516 501.656C458.926 502.307 459.131 503.033 459.131 503.834H457.92C457.92 502.864 457.588 502.086 456.924 501.5C456.26 500.908 455.368 500.611 454.248 500.611C453.161 500.611 452.295 500.855 451.65 501.344C451.006 501.826 450.684 502.457 450.684 503.238C450.684 503.961 450.973 504.55 451.553 505.006C452.132 505.462 453.06 505.865 454.336 506.217C455.612 506.562 456.579 506.923 457.236 507.301C457.894 507.672 458.389 508.118 458.721 508.639C459.053 509.16 459.219 509.775 459.219 510.484C459.219 511.604 458.77 512.503 457.871 513.18C456.979 513.857 455.801 514.195 454.336 514.195C453.333 514.195 452.412 514.016 451.572 513.658C450.739 513.3 450.104 512.799 449.668 512.154C449.238 511.51 449.023 510.771 449.023 509.938H450.225C450.225 510.94 450.599 511.731 451.348 512.311C452.096 512.89 453.092 513.18 454.336 513.18C455.443 513.18 456.331 512.936 457.002 512.447C457.673 511.959 458.008 511.311 458.008 510.504ZM472.354 514H471.143V507.184H463.018V514H461.816V499.781H463.018V506.168H471.143V499.781H472.354V514ZM480.264 512.242L480.342 512.545L480.43 512.242L484.902 499.781H486.221L480.928 514H479.775L474.482 499.781H475.791L480.264 512.242ZM489.785 514H488.584V499.781H489.785V514ZM494.863 512.984H501.885V514H493.652V499.781H494.863V512.984ZM505.664 514H504.463V499.781H505.664V514ZM197.998 531.209V537H196.797V522.781H201.641C203.118 522.781 204.284 523.159 205.137 523.914C205.996 524.669 206.426 525.708 206.426 527.029C206.426 528.364 206.012 529.396 205.186 530.125C204.365 530.848 203.174 531.209 201.611 531.209H197.998ZM197.998 530.193H201.641C202.806 530.193 203.695 529.917 204.307 529.363C204.919 528.81 205.225 528.038 205.225 527.049C205.225 526.066 204.919 525.285 204.307 524.705C203.701 524.119 202.839 523.82 201.719 523.807H197.998V530.193ZM219.629 530.662C219.629 531.971 219.401 533.12 218.945 534.109C218.496 535.099 217.852 535.861 217.012 536.395C216.172 536.928 215.202 537.195 214.102 537.195C212.441 537.195 211.1 536.603 210.078 535.418C209.056 534.227 208.545 532.622 208.545 530.604V529.139C208.545 527.843 208.773 526.697 209.229 525.701C209.691 524.699 210.342 523.93 211.182 523.396C212.021 522.856 212.988 522.586 214.082 522.586C215.176 522.586 216.139 522.85 216.973 523.377C217.812 523.904 218.46 524.65 218.916 525.613C219.372 526.577 219.609 527.693 219.629 528.963V530.662ZM218.428 529.119C218.428 527.407 218.04 526.066 217.266 525.096C216.491 524.126 215.43 523.641 214.082 523.641C212.76 523.641 211.706 524.129 210.918 525.105C210.137 526.076 209.746 527.433 209.746 529.178V530.662C209.746 532.348 210.137 533.686 210.918 534.676C211.699 535.659 212.76 536.15 214.102 536.15C215.462 536.15 216.523 535.665 217.285 534.695C218.047 533.719 218.428 532.361 218.428 530.623V529.119ZM233.164 530.662C233.164 531.971 232.936 533.12 232.48 534.109C232.031 535.099 231.387 535.861 230.547 536.395C229.707 536.928 228.737 537.195 227.637 537.195C225.977 537.195 224.635 536.603 223.613 535.418C222.591 534.227 222.08 532.622 222.08 530.604V529.139C222.08 527.843 222.308 526.697 222.764 525.701C223.226 524.699 223.877 523.93 224.717 523.396C225.557 522.856 226.523 522.586 227.617 522.586C228.711 522.586 229.674 522.85 230.508 523.377C231.348 523.904 231.995 524.65 232.451 525.613C232.907 526.577 233.145 527.693 233.164 528.963V530.662ZM231.963 529.119C231.963 527.407 231.576 526.066 230.801 525.096C230.026 524.126 228.965 523.641 227.617 523.641C226.296 523.641 225.241 524.129 224.453 525.105C223.672 526.076 223.281 527.433 223.281 529.178V530.662C223.281 532.348 223.672 533.686 224.453 534.676C225.234 535.659 226.296 536.15 227.637 536.15C228.997 536.15 230.059 535.665 230.82 534.695C231.582 533.719 231.963 532.361 231.963 530.623V529.119ZM244.238 533.504C244.238 532.716 243.962 532.094 243.408 531.639C242.855 531.176 241.842 530.74 240.371 530.33C238.9 529.913 237.826 529.461 237.148 528.973C236.185 528.283 235.703 527.378 235.703 526.258C235.703 525.171 236.149 524.288 237.041 523.611C237.939 522.928 239.085 522.586 240.479 522.586C241.423 522.586 242.266 522.768 243.008 523.133C243.757 523.497 244.336 524.005 244.746 524.656C245.156 525.307 245.361 526.033 245.361 526.834H244.15C244.15 525.864 243.818 525.086 243.154 524.5C242.49 523.908 241.598 523.611 240.479 523.611C239.391 523.611 238.525 523.855 237.881 524.344C237.236 524.826 236.914 525.457 236.914 526.238C236.914 526.961 237.204 527.55 237.783 528.006C238.363 528.462 239.29 528.865 240.566 529.217C241.842 529.562 242.809 529.923 243.467 530.301C244.124 530.672 244.619 531.118 244.951 531.639C245.283 532.16 245.449 532.775 245.449 533.484C245.449 534.604 245 535.503 244.102 536.18C243.21 536.857 242.031 537.195 240.566 537.195C239.564 537.195 238.643 537.016 237.803 536.658C236.969 536.3 236.335 535.799 235.898 535.154C235.469 534.51 235.254 533.771 235.254 532.938H236.455C236.455 533.94 236.829 534.731 237.578 535.311C238.327 535.89 239.323 536.18 240.566 536.18C241.673 536.18 242.562 535.936 243.232 535.447C243.903 534.959 244.238 534.311 244.238 533.504ZM257.695 523.807H252.822V537H251.621V523.807H246.758V522.781H257.695V523.807ZM266.895 533.016H260.439L258.975 537H257.715L263.096 522.781H264.238L269.619 537H268.369L266.895 533.016ZM260.811 531.99H266.514L263.662 524.246L260.811 531.99ZM272.93 535.984H279.951V537H271.719V522.781H272.93V535.984ZM294.805 533.016H288.35L286.885 537H285.625L291.006 522.781H292.148L297.529 537H296.279L294.805 533.016ZM288.721 531.99H294.424L291.572 524.246L288.721 531.99ZM302.832 529.939L300.83 531.912V537H299.629V522.781H300.83V530.447L308.115 522.781H309.629L303.672 529.109L310.088 537H308.623L302.832 529.939ZM325.557 537H316.65V536.102L321.523 530.574C322.331 529.643 322.891 528.875 323.203 528.27C323.516 527.664 323.672 527.075 323.672 526.502C323.672 525.604 323.408 524.894 322.881 524.373C322.354 523.846 321.628 523.582 320.703 523.582C319.746 523.582 318.971 523.888 318.379 524.5C317.793 525.112 317.5 525.906 317.5 526.883H316.338C316.338 526.082 316.517 525.353 316.875 524.695C317.24 524.038 317.754 523.523 318.418 523.152C319.089 522.775 319.85 522.586 320.703 522.586C322.005 522.586 323.021 522.928 323.75 523.611C324.486 524.295 324.854 525.226 324.854 526.404C324.854 527.068 324.645 527.794 324.229 528.582C323.818 529.37 323.092 530.353 322.051 531.531L318.086 536.014H325.557V537ZM333.184 537H332.012V524.188L328.145 525.623V524.529L332.988 522.732H333.184V537ZM347.744 537H338.838V536.102L343.711 530.574C344.518 529.643 345.078 528.875 345.391 528.27C345.703 527.664 345.859 527.075 345.859 526.502C345.859 525.604 345.596 524.894 345.068 524.373C344.541 523.846 343.815 523.582 342.891 523.582C341.934 523.582 341.159 523.888 340.566 524.5C339.98 525.112 339.688 525.906 339.688 526.883H338.525C338.525 526.082 338.704 525.353 339.062 524.695C339.427 524.038 339.941 523.523 340.605 523.152C341.276 522.775 342.038 522.586 342.891 522.586C344.193 522.586 345.208 522.928 345.938 523.611C346.673 524.295 347.041 525.226 347.041 526.404C347.041 527.068 346.833 527.794 346.416 528.582C346.006 529.37 345.28 530.353 344.238 531.531L340.273 536.014H347.744V537ZM352.529 529.256H353.74C354.411 529.256 354.997 529.139 355.498 528.904C355.999 528.663 356.38 528.338 356.641 527.928C356.908 527.511 357.041 527.033 357.041 526.492C357.041 525.581 356.784 524.868 356.27 524.354C355.755 523.839 355.016 523.582 354.053 523.582C353.141 523.582 352.393 523.852 351.807 524.393C351.227 524.926 350.938 525.633 350.938 526.512H349.766C349.766 525.776 349.951 525.105 350.322 524.5C350.693 523.888 351.208 523.416 351.865 523.084C352.523 522.752 353.252 522.586 354.053 522.586C355.342 522.586 356.357 522.938 357.1 523.641C357.842 524.344 358.213 525.307 358.213 526.531C358.213 527.215 357.995 527.846 357.559 528.426C357.129 528.999 356.536 529.428 355.781 529.715C356.667 529.962 357.337 530.389 357.793 530.994C358.249 531.593 358.477 532.309 358.477 533.143C358.477 534.36 358.079 535.34 357.285 536.082C356.491 536.824 355.43 537.195 354.102 537.195C353.255 537.195 352.477 537.026 351.768 536.688C351.064 536.349 350.518 535.877 350.127 535.271C349.743 534.66 349.551 533.95 349.551 533.143H350.723C350.723 534.048 351.038 534.786 351.67 535.359C352.301 535.926 353.112 536.209 354.102 536.209C355.111 536.209 355.895 535.952 356.455 535.438C357.021 534.917 357.305 534.165 357.305 533.182C357.305 532.231 356.999 531.505 356.387 531.004C355.781 530.503 354.886 530.252 353.701 530.252H352.529V529.256Z" fill="black"/>
<path d="M196 198H542" stroke="black" stroke-width="2.5"/>
<path d="M196 322H542" stroke="#0088C9" stroke-width="2.5"/>
<path d="M195 431H541" stroke="#0088C9" stroke-width="2.5"/>
<defs>
<filter id="filter0_d" x="57" y="80" width="88" height="88" filterUnits="userSpaceOnUse" color-interpolation-filters="sRGB">
<feFlood flood-opacity="0" result="BackgroundImageFix"/>
<feColorMatrix in="SourceAlpha" type="matrix" values="0 0 0 0 0 0 0 0 0 0 0 0 0 0 0 0 0 0 127 0"/>
<feOffset dy="4"/>
<feGaussianBlur stdDeviation="2"/>
<feColorMatrix type="matrix" values="0 0 0 0 0 0 0 0 0 0 0 0 0 0 0 0 0 0 0.25 0"/>
<feBlend mode="normal" in2="BackgroundImageFix" result="effect1_dropShadow"/>
<feBlend mode="normal" in="SourceGraphic" in2="effect1_dropShadow" result="shape"/>
</filter>
<filter id="filter1_d" x="59" y="228" width="88" height="88" filterUnits="userSpaceOnUse" color-interpolation-filters="sRGB">
<feFlood flood-opacity="0" result="BackgroundImageFix"/>
<feColorMatrix in="SourceAlpha" type="matrix" values="0 0 0 0 0 0 0 0 0 0 0 0 0 0 0 0 0 0 127 0"/>
<feOffset dy="4"/>
<feGaussianBlur stdDeviation="2"/>
<feColorMatrix type="matrix" values="0 0 0 0 0 0 0 0 0 0 0 0 0 0 0 0 0 0 0.25 0"/>
<feBlend mode="normal" in2="BackgroundImageFix" result="effect1_dropShadow"/>
<feBlend mode="normal" in="SourceGraphic" in2="effect1_dropShadow" result="shape"/>
</filter>
<filter id="filter2_d" x="58" y="351" width="88" height="88" filterUnits="userSpaceOnUse" color-interpolation-filters="sRGB">
<feFlood flood-opacity="0" result="BackgroundImageFix"/>
<feColorMatrix in="SourceAlpha" type="matrix" values="0 0 0 0 0 0 0 0 0 0 0 0 0 0 0 0 0 0 127 0"/>
<feOffset dy="4"/>
<feGaussianBlur stdDeviation="2"/>
<feColorMatrix type="matrix" values="0 0 0 0 0 0 0 0 0 0 0 0 0 0 0 0 0 0 0.25 0"/>
<feBlend mode="normal" in2="BackgroundImageFix" result="effect1_dropShadow"/>
<feBlend mode="normal" in="SourceGraphic" in2="effect1_dropShadow" result="shape"/>
</filter>
<filter id="filter3_d" x="54" y="474" width="88" height="88" filterUnits="userSpaceOnUse" color-interpolation-filters="sRGB">
<feFlood flood-opacity="0" result="BackgroundImageFix"/>
<feColorMatrix in="SourceAlpha" type="matrix" values="0 0 0 0 0 0 0 0 0 0 0 0 0 0 0 0 0 0 127 0"/>
<feOffset dy="4"/>
<feGaussianBlur stdDeviation="2"/>
<feColorMatrix type="matrix" values="0 0 0 0 0 0 0 0 0 0 0 0 0 0 0 0 0 0 0.25 0"/>
<feBlend mode="normal" in2="BackgroundImageFix" result="effect1_dropShadow"/>
<feBlend mode="normal" in="SourceGraphic" in2="effect1_dropShadow" result="shape"/>
</filter>
</defs>
</svg>
