<svg width="1050" height="600" viewBox="0 0 1050 600" fill="none" xmlns="http://www.w3.org/2000/svg">
<rect width="1050" height="600" fill="white"/>
<path d="M365.492 128.901V203.271C365.489 208.863 364.016 214.356 361.22 219.199C358.425 224.043 354.405 228.066 349.565 230.866L344.634 233.706L344.608 233.732H344.583C344.557 233.732 344.531 233.758 344.479 233.783L272.174 275.525C267.325 278.315 261.828 279.784 256.234 279.784C250.639 279.784 245.142 278.315 240.293 275.525L162.954 230.866C157.55 227.749 153.186 223.107 150.409 217.521C150.38 217.465 150.346 217.413 150.305 217.366C150.294 217.336 150.277 217.31 150.254 217.288V217.262C150.239 217.249 150.23 217.231 150.228 217.211C148.106 212.87 147.002 208.102 147.001 203.271V129.985C146.989 128.602 147.092 127.22 147.311 125.854C160.737 152.308 183.271 173.018 210.762 184.169V184.84L243.598 203.813C247.448 206.033 251.815 207.201 256.259 207.201C260.704 207.201 265.071 206.033 268.921 203.813L301.757 184.84V184.659C329.112 173.894 351.711 153.694 365.466 127.713C365.492 128.126 365.492 128.5 365.492 128.901Z" fill="#E6653B"/>
<path d="M210.761 128.9V184.168C183.271 173.017 160.737 152.307 147.31 125.853C147.463 124.541 147.696 123.239 148.007 121.955C148.792 118.711 150.063 115.604 151.776 112.74C154.348 108.294 157.966 104.543 162.316 101.812C166.666 99.0818 171.617 97.4542 176.738 97.0707C181.097 96.7801 185.468 97.3877 189.582 98.8557C193.696 100.324 197.464 102.621 200.654 105.605C203.844 108.589 206.387 112.196 208.126 116.203C209.864 120.21 210.761 124.531 210.761 128.9Z" fill="#F7BC94"/>
<path d="M365.465 127.724C351.71 153.705 329.111 173.905 301.756 184.67V129.996C301.658 121.769 304.669 113.808 310.187 107.706C315.706 101.604 323.325 97.8096 331.52 97.0829C337.326 96.6886 343.13 97.8939 348.299 100.568C348.306 100.568 348.312 100.571 348.317 100.575C348.322 100.58 348.325 100.587 348.325 100.594C348.348 100.608 348.375 100.616 348.402 100.619C352.595 102.826 356.246 105.937 359.09 109.728C361.933 113.518 363.9 117.893 364.846 122.536C365.198 124.245 365.405 125.98 365.465 127.724Z" fill="#F7BC94"/>
<g style="mix-blend-mode:multiply" opacity="0.08">
<g style="mix-blend-mode:multiply" opacity="0.08">
<path d="M210.761 158.856V184.179C183.271 173.029 160.737 152.319 147.31 125.865C147.463 124.553 147.696 123.251 148.007 121.967C161.405 131.828 185.322 148.065 210.761 158.856Z" fill="black"/>
</g>
</g>
<g style="mix-blend-mode:multiply" opacity="0.08">
<g style="mix-blend-mode:multiply" opacity="0.08">
<path d="M365.466 127.725C351.711 153.706 329.112 173.905 301.757 184.671V158.96C324.036 149.124 345.188 136.912 364.846 122.536C365.199 124.245 365.406 125.981 365.466 127.725Z" fill="black"/>
</g>
</g>
<g style="mix-blend-mode:screen" opacity="0.4">
<g style="mix-blend-mode:screen" opacity="0.4">
<path d="M357.748 203.181V203.284C357.736 207.514 356.618 211.668 354.503 215.332C352.388 218.996 349.35 222.042 345.692 224.167L268.302 268.826C264.631 270.94 260.469 272.053 256.233 272.053C251.998 272.053 247.836 270.94 244.165 268.826L184.018 234.106L183.812 233.977L166.826 224.167C163.447 222.21 160.591 219.465 158.501 216.166C156.411 212.867 155.149 209.111 154.823 205.22C183.581 225.718 217.942 236.889 253.256 237.222C288.571 237.554 323.136 227.032 352.275 207.078L352.533 206.898L352.662 206.82C354.405 205.633 356.07 204.42 357.748 203.181Z" fill="white"/>
</g>
</g>
<g style="mix-blend-mode:screen" opacity="0.6">
<g style="mix-blend-mode:screen" opacity="0.6">
<path d="M150.254 217.273C150.28 217.299 150.28 217.325 150.306 217.376C150.295 217.347 150.277 217.32 150.254 217.299V217.273Z" fill="white"/>
</g>
</g>
<g style="mix-blend-mode:multiply" opacity="0.25">
<g style="mix-blend-mode:multiply" opacity="0.25">
<path d="M344.479 233.793L272.174 275.534C267.325 278.325 261.828 279.794 256.234 279.794C250.639 279.794 245.142 278.325 240.294 275.534L162.954 230.876C157.55 227.759 153.186 223.116 150.409 217.53C150.615 217.891 151.002 218.511 151.57 219.363C152.926 221.295 154.474 223.086 156.191 224.706C158.844 227.179 161.877 229.209 165.174 230.721C168.995 232.683 173.306 234.903 177.952 237.407C187.323 242.311 198.165 248.171 209.704 254.573C215.46 257.8 221.449 261.052 227.464 264.512C230.484 266.241 233.504 267.971 236.55 269.7L241.12 272.307C242.509 273.13 243.959 273.846 245.456 274.45C251.333 276.89 257.856 277.299 263.991 275.612C267.053 274.733 269.98 273.439 272.69 271.765C275.659 270.113 278.576 268.487 281.467 266.886C293.032 260.485 303.874 254.625 313.219 249.72C330.746 240.414 343.008 234.477 344.479 233.793Z" fill="black"/>
</g>
</g>
<g style="mix-blend-mode:multiply" opacity="0.25">
<g style="mix-blend-mode:multiply" opacity="0.25">
<path d="M365.466 127.723L363.065 132.628L360.432 137.455L357.566 142.127L354.469 146.67L351.139 151.059L347.628 155.318L343.885 159.397L339.961 163.295L335.857 167.012L331.572 170.549L327.132 173.879L322.537 177.002L317.787 179.919L312.908 182.63L307.9 185.082L304.26 186.657L303.176 187.302C295.845 191.665 288.539 196.079 281.157 200.364L270.031 206.817C265.816 209.169 261.073 210.412 256.246 210.431C253.842 210.42 251.448 210.107 249.121 209.502C247.965 209.19 246.827 208.81 245.714 208.366C244.616 207.925 243.547 207.416 242.513 206.843L231.361 200.364C223.978 196.079 216.673 191.665 209.342 187.328L207.896 186.476V186.011L204.54 184.514L199.532 181.984L194.653 179.196L189.904 176.202L185.309 172.975L180.843 169.568L176.584 165.954L172.505 162.133L168.607 158.158L164.89 153.976L161.405 149.639L158.101 145.173L155.055 140.527L152.215 135.777L149.634 130.872L147.31 125.864L150.176 130.588L153.222 135.132L156.448 139.572L159.83 143.857L163.392 147.987L167.11 151.962L171.008 155.757L175.009 159.397L179.191 162.856L183.528 166.109L187.942 169.206L192.511 172.072L197.183 174.756L201.985 177.234L206.863 179.506L210.761 181.107V184.85L243.597 203.823C247.448 206.042 251.814 207.211 256.259 207.211C260.704 207.211 265.07 206.042 268.921 203.823L301.756 184.85V181.623L305.68 180.048L310.533 177.854L315.309 175.479L319.981 172.872L324.524 170.058L328.964 167.064L333.301 163.888L337.483 160.533L341.51 156.97L345.408 153.253L349.177 149.381L352.765 145.328L356.198 141.146L359.451 136.809L362.549 132.318L365.466 127.723Z" fill="black"/>
</g>
</g>
<g style="mix-blend-mode:screen" opacity="0.4">
<g style="mix-blend-mode:screen" opacity="0.4">
<path d="M352.275 207.077L347.319 210.665L341.794 214.279C338.026 216.602 334.197 218.788 330.307 220.836C326.383 222.875 322.374 224.734 318.278 226.412C314.182 228.09 310.034 229.621 305.835 231.007C297.42 233.792 288.785 235.865 280.021 237.202C275.633 237.899 271.219 238.389 266.779 238.725C262.261 239.086 257.976 239.215 253.484 239.19C249.044 239.19 244.604 238.983 240.164 238.648L233.53 237.976L226.947 237.047L220.391 235.834L213.885 234.388L207.458 232.685L201.082 230.697L194.809 228.477L188.639 225.999L182.547 223.288L176.584 220.345L170.776 217.119L165.071 213.685L159.521 210.046L156.397 207.825C157.537 213.764 160.874 219.055 165.742 222.643C167.213 223.675 168.736 224.553 170.285 225.534L174.88 228.348L183.812 233.975L166.826 224.166C163.447 222.208 160.591 219.463 158.501 216.164C156.411 212.865 155.149 209.11 154.823 205.218C183.581 225.717 217.942 236.888 253.256 237.22C288.571 237.553 323.136 227.03 352.275 207.077Z" fill="white"/>
</g>
</g>
<g style="mix-blend-mode:screen" opacity="0.5">
<g style="mix-blend-mode:screen" opacity="0.5">
<path d="M210.763 128.9V153.604C210.763 153.604 209.886 146.866 209.292 136.773C209.111 134.269 208.956 131.507 208.827 128.641C208.63 125.814 208.084 123.022 207.201 120.329C205.24 114.531 201.612 109.439 196.772 105.693C194.327 103.816 191.622 102.303 188.744 101.201C185.952 100.205 183.047 99.5637 180.096 99.2906C179.296 99.2906 178.521 99.2648 177.747 99.2648L176.714 99.239L175.656 99.3165C174.276 99.3887 172.903 99.5699 171.551 99.8585C169.032 100.395 166.588 101.236 164.272 102.363C160.731 104.116 157.517 106.464 154.772 109.307C153.766 110.365 152.991 111.217 152.501 111.836C152.139 112.301 151.881 112.611 151.778 112.74C154.35 108.294 157.967 104.543 162.318 101.812C166.668 99.0818 171.618 97.4542 176.74 97.0707C181.098 96.7801 185.47 97.3877 189.584 98.8557C193.697 100.324 197.466 102.621 200.656 105.605C203.846 108.589 206.388 112.196 208.127 116.203C209.866 120.21 210.763 124.531 210.763 128.9Z" fill="white"/>
</g>
</g>
<g style="mix-blend-mode:screen" opacity="0.5">
<g style="mix-blend-mode:screen" opacity="0.5">
<path d="M348.299 100.568C347.989 100.465 346.853 100.103 345.046 99.6644C342.164 98.9646 339.209 98.6093 336.244 98.606C334.304 98.6155 332.369 98.7969 330.461 99.1481C329.431 99.3093 328.413 99.5422 327.415 99.845C326.925 99.9999 326.409 100.129 325.892 100.284C325.376 100.439 324.86 100.671 324.343 100.852C322.265 101.698 320.268 102.735 318.38 103.949C316.461 105.243 314.687 106.74 313.088 108.415C311.454 110.056 310.008 111.874 308.777 113.836C307.569 115.755 306.548 117.787 305.731 119.903C305.326 120.905 304.981 121.931 304.699 122.975C304.391 123.955 304.149 124.956 303.976 125.969C303.765 126.975 303.61 127.992 303.511 129.015L303.434 129.764C303.408 129.867 303.382 130.073 303.382 130.073L303.356 130.435C303.305 130.925 303.279 131.416 303.227 131.88C302.608 139.47 301.756 144.504 301.756 144.504V129.996C301.658 121.769 304.669 113.808 310.187 107.706C315.706 101.604 323.325 97.8096 331.52 97.0829C337.326 96.6886 343.13 97.8939 348.299 100.568Z" fill="white"/>
</g>
</g>
<path d="M152.191 338.104C151.884 340.736 150.91 342.77 149.269 344.206C147.64 345.63 145.469 346.342 142.758 346.342C139.818 346.342 137.46 345.288 135.683 343.18C133.917 341.072 133.034 338.253 133.034 334.721V332.328C133.034 330.015 133.444 327.982 134.264 326.227C135.096 324.472 136.269 323.128 137.785 322.194C139.3 321.248 141.055 320.775 143.048 320.775C145.692 320.775 147.811 321.516 149.406 322.997C151.001 324.467 151.929 326.506 152.191 329.115H148.893C148.608 327.133 147.987 325.697 147.03 324.809C146.085 323.92 144.757 323.476 143.048 323.476C140.952 323.476 139.306 324.25 138.109 325.8C136.924 327.349 136.332 329.554 136.332 332.414V334.823C136.332 337.523 136.896 339.671 138.024 341.266C139.152 342.861 140.73 343.659 142.758 343.659C144.581 343.659 145.976 343.249 146.945 342.428C147.925 341.597 148.574 340.155 148.893 338.104H152.191ZM175.827 334.362C175.827 336.8 175.417 338.931 174.596 340.753C173.776 342.565 172.614 343.949 171.11 344.906C169.606 345.863 167.851 346.342 165.846 346.342C163.887 346.342 162.149 345.863 160.634 344.906C159.118 343.938 157.939 342.565 157.096 340.788C156.264 338.999 155.837 336.931 155.814 334.584V332.79C155.814 330.397 156.23 328.284 157.062 326.449C157.894 324.615 159.067 323.214 160.583 322.245C162.109 321.265 163.852 320.775 165.812 320.775C167.806 320.775 169.56 321.26 171.076 322.228C172.602 323.185 173.776 324.581 174.596 326.415C175.417 328.238 175.827 330.363 175.827 332.79V334.362ZM172.562 332.755C172.562 329.805 171.97 327.543 170.785 325.971C169.6 324.387 167.943 323.595 165.812 323.595C163.738 323.595 162.104 324.387 160.907 325.971C159.722 327.543 159.113 329.73 159.079 332.533V334.362C159.079 337.222 159.677 339.472 160.873 341.112C162.081 342.742 163.738 343.556 165.846 343.556C167.965 343.556 169.606 342.787 170.768 341.249C171.93 339.7 172.528 337.484 172.562 334.601V332.755ZM184.987 321.117L193.122 341.42L201.256 321.117H205.512V346H202.23V336.31L202.538 325.851L194.369 346H191.857L183.705 325.902L184.03 336.31V346H180.749V321.117H184.987ZM214.586 336.259V346H211.305V321.117H220.482C223.205 321.117 225.336 321.812 226.874 323.202C228.424 324.592 229.198 326.432 229.198 328.722C229.198 331.138 228.441 333 226.925 334.311C225.421 335.609 223.262 336.259 220.448 336.259H214.586ZM214.586 333.576H220.482C222.237 333.576 223.581 333.166 224.516 332.345C225.45 331.514 225.917 330.317 225.917 328.756C225.917 327.275 225.45 326.09 224.516 325.202C223.581 324.313 222.3 323.852 220.67 323.817H214.586V333.576ZM244.767 339.506H234.342L232.001 346H228.617L238.119 321.117H240.99L250.509 346H247.143L244.767 339.506ZM235.333 336.806H243.793L239.555 325.167L235.333 336.806ZM272.982 346H269.684L257.157 326.825V346H253.859V321.117H257.157L269.718 340.377V321.117H272.982V346ZM285.919 333.61L292.414 321.117H296.139L287.56 336.72V346H284.279V336.72L275.7 321.117H279.459L285.919 333.61ZM327.157 346H323.859L311.332 326.825V346H308.034V321.117H311.332L323.893 340.377V321.117H327.157V346ZM347.033 339.506H336.608L334.267 346H330.883L340.385 321.117H343.256L352.775 346H349.408L347.033 339.506ZM337.599 336.806H346.059L341.82 325.167L337.599 336.806ZM360.363 321.117L368.498 341.42L376.632 321.117H380.888V346H377.606V336.31L377.914 325.851L369.745 346H367.233L359.081 325.902L359.406 336.31V346H356.125V321.117H360.363ZM400.746 334.499H389.962V343.317H402.489V346H386.681V321.117H402.318V323.817H389.962V331.815H400.746V334.499Z" fill="black"/>
<path d="M164.407 371.042V378H162.063V360.227H168.618C170.563 360.227 172.085 360.723 173.184 361.716C174.29 362.709 174.844 364.023 174.844 365.659C174.844 367.384 174.303 368.715 173.22 369.65C172.146 370.578 170.604 371.042 168.594 371.042H164.407ZM164.407 369.125H168.618C169.871 369.125 170.832 368.833 171.499 368.247C172.166 367.653 172.5 366.798 172.5 365.683C172.5 364.625 172.166 363.779 171.499 363.144C170.832 362.509 169.916 362.18 168.752 362.155H164.407V369.125ZM183.865 366.818C183.523 366.761 183.153 366.733 182.754 366.733C181.273 366.733 180.268 367.364 179.739 368.625V378H177.48V364.792H179.678L179.714 366.318C180.455 365.138 181.505 364.548 182.864 364.548C183.303 364.548 183.637 364.605 183.865 364.719V366.818ZM185.11 371.274C185.11 369.98 185.362 368.816 185.867 367.783C186.379 366.749 187.087 365.952 187.991 365.39C188.902 364.829 189.94 364.548 191.104 364.548C192.902 364.548 194.355 365.17 195.461 366.416C196.576 367.661 197.134 369.317 197.134 371.384V371.542C197.134 372.828 196.886 373.984 196.389 375.009C195.901 376.027 195.197 376.82 194.277 377.39C193.366 377.959 192.316 378.244 191.128 378.244C189.338 378.244 187.885 377.622 186.77 376.376C185.663 375.131 185.11 373.483 185.11 371.433V371.274ZM187.38 371.542C187.38 373.007 187.718 374.183 188.394 375.07C189.077 375.957 189.989 376.401 191.128 376.401C192.275 376.401 193.187 375.953 193.862 375.058C194.538 374.155 194.875 372.893 194.875 371.274C194.875 369.825 194.53 368.653 193.838 367.758C193.154 366.855 192.243 366.403 191.104 366.403C189.989 366.403 189.089 366.847 188.406 367.734C187.722 368.621 187.38 369.89 187.38 371.542ZM199.417 371.286C199.417 369.26 199.897 367.632 200.857 366.403C201.817 365.166 203.075 364.548 204.629 364.548C206.175 364.548 207.4 365.077 208.303 366.135V359.25H210.562V378H208.486L208.376 376.584C207.473 377.691 206.216 378.244 204.604 378.244C203.075 378.244 201.825 377.618 200.857 376.364C199.897 375.111 199.417 373.475 199.417 371.457V371.286ZM201.675 371.542C201.675 373.04 201.984 374.212 202.603 375.058C203.221 375.904 204.076 376.328 205.166 376.328C206.598 376.328 207.644 375.685 208.303 374.399V368.332C207.628 367.087 206.59 366.464 205.19 366.464C204.084 366.464 203.221 366.892 202.603 367.746C201.984 368.601 201.675 369.866 201.675 371.542ZM222.231 376.694C221.353 377.727 220.063 378.244 218.362 378.244C216.954 378.244 215.88 377.837 215.139 377.023C214.407 376.201 214.036 374.989 214.028 373.386V364.792H216.287V373.325C216.287 375.327 217.1 376.328 218.728 376.328C220.453 376.328 221.601 375.685 222.17 374.399V364.792H224.429V378H222.28L222.231 376.694ZM233.169 376.401C233.975 376.401 234.679 376.157 235.281 375.668C235.883 375.18 236.217 374.57 236.282 373.837H238.418C238.377 374.594 238.117 375.314 237.637 375.998C237.157 376.682 236.514 377.227 235.708 377.634C234.91 378.041 234.064 378.244 233.169 378.244C231.37 378.244 229.938 377.646 228.872 376.45C227.814 375.245 227.285 373.601 227.285 371.518V371.14C227.285 369.854 227.521 368.71 227.993 367.709C228.465 366.708 229.141 365.931 230.02 365.378C230.907 364.825 231.952 364.548 233.157 364.548C234.638 364.548 235.867 364.991 236.843 365.878C237.828 366.765 238.353 367.917 238.418 369.333H236.282C236.217 368.479 235.891 367.779 235.305 367.233C234.727 366.68 234.011 366.403 233.157 366.403C232.009 366.403 231.118 366.818 230.483 367.648C229.857 368.47 229.543 369.663 229.543 371.225V371.652C229.543 373.174 229.857 374.346 230.483 375.168C231.11 375.99 232.005 376.401 233.169 376.401ZM244.021 361.594V364.792H246.487V366.538H244.021V374.729C244.021 375.257 244.131 375.656 244.351 375.925C244.57 376.185 244.945 376.315 245.474 376.315C245.734 376.315 246.092 376.267 246.548 376.169V378C245.954 378.163 245.376 378.244 244.814 378.244C243.805 378.244 243.044 377.939 242.532 377.329C242.019 376.718 241.763 375.852 241.763 374.729V366.538H239.358V364.792H241.763V361.594H244.021ZM255.691 378V360.227H260.708C262.254 360.227 263.621 360.568 264.81 361.252C265.998 361.936 266.913 362.908 267.556 364.169C268.207 365.431 268.537 366.879 268.545 368.515V369.65C268.545 371.327 268.219 372.796 267.568 374.057C266.925 375.319 266.002 376.287 264.797 376.962C263.601 377.638 262.205 377.984 260.61 378H255.691ZM258.035 362.155V376.083H260.5C262.307 376.083 263.711 375.522 264.712 374.399C265.721 373.276 266.226 371.677 266.226 369.602V368.564C266.226 366.546 265.75 364.979 264.797 363.864C263.853 362.741 262.511 362.172 260.769 362.155H258.035ZM277.224 378.244C275.434 378.244 273.977 377.658 272.854 376.486C271.731 375.306 271.169 373.732 271.169 371.762V371.347C271.169 370.037 271.418 368.869 271.914 367.844C272.419 366.81 273.118 366.005 274.014 365.427C274.917 364.841 275.894 364.548 276.943 364.548C278.66 364.548 279.995 365.113 280.947 366.245C281.899 367.376 282.375 368.995 282.375 371.103V372.043H273.428C273.46 373.345 273.839 374.399 274.563 375.205C275.295 376.002 276.223 376.401 277.346 376.401C278.144 376.401 278.819 376.238 279.373 375.913C279.926 375.587 280.41 375.156 280.825 374.619L282.205 375.693C281.098 377.394 279.438 378.244 277.224 378.244ZM276.943 366.403C276.032 366.403 275.267 366.737 274.648 367.404C274.03 368.063 273.647 368.991 273.501 370.188H280.117V370.017C280.052 368.869 279.743 367.982 279.189 367.355C278.636 366.721 277.887 366.403 276.943 366.403ZM292.69 374.497C292.69 373.886 292.458 373.414 291.995 373.081C291.539 372.739 290.737 372.446 289.59 372.202C288.451 371.958 287.543 371.665 286.868 371.323C286.2 370.981 285.704 370.574 285.378 370.102C285.061 369.63 284.902 369.069 284.902 368.417C284.902 367.335 285.358 366.42 286.27 365.671C287.189 364.922 288.361 364.548 289.785 364.548C291.283 364.548 292.495 364.934 293.423 365.708C294.359 366.481 294.827 367.469 294.827 368.674H292.556C292.556 368.055 292.292 367.522 291.763 367.075C291.242 366.627 290.583 366.403 289.785 366.403C288.963 366.403 288.32 366.582 287.856 366.94C287.393 367.299 287.161 367.766 287.161 368.344C287.161 368.889 287.376 369.3 287.808 369.577C288.239 369.854 289.016 370.118 290.139 370.371C291.27 370.623 292.186 370.924 292.886 371.274C293.586 371.624 294.102 372.047 294.436 372.543C294.778 373.032 294.949 373.63 294.949 374.338C294.949 375.518 294.477 376.466 293.533 377.182C292.589 377.89 291.364 378.244 289.858 378.244C288.8 378.244 287.865 378.057 287.051 377.683C286.237 377.308 285.598 376.787 285.134 376.12C284.679 375.445 284.451 374.716 284.451 373.935H286.709C286.75 374.692 287.051 375.294 287.612 375.742C288.182 376.181 288.931 376.401 289.858 376.401C290.713 376.401 291.396 376.23 291.909 375.888C292.43 375.538 292.69 375.074 292.69 374.497ZM300.344 378H298.086V364.792H300.344V378ZM297.903 361.289C297.903 360.922 298.013 360.613 298.232 360.361C298.46 360.109 298.794 359.982 299.233 359.982C299.673 359.982 300.007 360.109 300.234 360.361C300.462 360.613 300.576 360.922 300.576 361.289C300.576 361.655 300.462 361.96 300.234 362.204C300.007 362.448 299.673 362.57 299.233 362.57C298.794 362.57 298.46 362.448 298.232 362.204C298.013 361.96 297.903 361.655 297.903 361.289ZM303.433 371.286C303.433 369.227 303.909 367.591 304.861 366.379C305.813 365.158 307.074 364.548 308.645 364.548C310.256 364.548 311.514 365.118 312.417 366.257L312.527 364.792H314.59V377.683C314.59 379.392 314.081 380.738 313.064 381.723C312.055 382.708 310.696 383.2 308.987 383.2C308.035 383.2 307.103 382.997 306.191 382.59C305.28 382.183 304.584 381.625 304.104 380.917L305.276 379.562C306.244 380.759 307.428 381.357 308.828 381.357C309.927 381.357 310.781 381.048 311.392 380.429C312.01 379.811 312.319 378.94 312.319 377.817V376.682C311.416 377.723 310.183 378.244 308.621 378.244C307.074 378.244 305.821 377.622 304.861 376.376C303.909 375.131 303.433 373.435 303.433 371.286ZM305.703 371.542C305.703 373.032 306.008 374.204 306.619 375.058C307.229 375.904 308.083 376.328 309.182 376.328C310.606 376.328 311.652 375.681 312.319 374.387V368.356C311.628 367.095 310.59 366.464 309.207 366.464C308.108 366.464 307.249 366.892 306.631 367.746C306.012 368.601 305.703 369.866 305.703 371.542ZM320.144 364.792L320.217 366.452C321.226 365.183 322.545 364.548 324.172 364.548C326.964 364.548 328.372 366.123 328.396 369.272V378H326.138V369.26C326.13 368.308 325.91 367.604 325.479 367.148C325.055 366.692 324.392 366.464 323.489 366.464C322.756 366.464 322.113 366.66 321.56 367.05C321.007 367.441 320.575 367.954 320.266 368.588V378H318.008V364.792H320.144ZM337.283 378.244C335.492 378.244 334.036 377.658 332.913 376.486C331.79 375.306 331.228 373.732 331.228 371.762V371.347C331.228 370.037 331.476 368.869 331.973 367.844C332.477 366.81 333.177 366.005 334.072 365.427C334.976 364.841 335.952 364.548 337.002 364.548C338.719 364.548 340.054 365.113 341.006 366.245C341.958 367.376 342.434 368.995 342.434 371.103V372.043H333.486C333.519 373.345 333.897 374.399 334.622 375.205C335.354 376.002 336.282 376.401 337.405 376.401C338.202 376.401 338.878 376.238 339.431 375.913C339.985 375.587 340.469 375.156 340.884 374.619L342.263 375.693C341.156 377.394 339.496 378.244 337.283 378.244ZM337.002 366.403C336.09 366.403 335.326 366.737 334.707 367.404C334.089 368.063 333.706 368.991 333.56 370.188H340.176V370.017C340.111 368.869 339.801 367.982 339.248 367.355C338.695 366.721 337.946 366.403 337.002 366.403ZM351.443 366.818C351.101 366.761 350.731 366.733 350.332 366.733C348.851 366.733 347.846 367.364 347.317 368.625V378H345.059V364.792H347.256L347.292 366.318C348.033 365.138 349.083 364.548 350.442 364.548C350.881 364.548 351.215 364.605 351.443 364.719V366.818Z" fill="black"/>
<path d="M692.723 120H690.367L681.419 106.304V120H679.063V102.227H681.419L690.391 115.984V102.227H692.723V120ZM706.919 115.361H699.473L697.801 120H695.384L702.171 102.227H704.222L711.021 120H708.616L706.919 115.361ZM700.181 113.433H706.224L703.196 105.12L700.181 113.433ZM716.441 102.227L722.251 116.729L728.062 102.227H731.102V120H728.758V113.079L728.978 105.608L723.143 120H721.348L715.525 105.645L715.757 113.079V120H713.414V102.227H716.441ZM745.286 111.785H737.583V118.083H746.531V120H735.24V102.227H746.409V104.155H737.583V109.868H745.286V111.785ZM758.006 118.083H766.429V120H755.65V102.227H758.006V118.083ZM779.161 115.361H771.714L770.042 120H767.625L774.412 102.227H776.463L783.262 120H780.857L779.161 115.361ZM772.422 113.433H778.465L775.438 105.12L772.422 113.433ZM790.892 112.078C788.882 111.5 787.417 110.792 786.497 109.954C785.586 109.107 785.13 108.066 785.13 106.829C785.13 105.429 785.687 104.273 786.802 103.362C787.925 102.442 789.382 101.982 791.172 101.982C792.393 101.982 793.479 102.218 794.432 102.69C795.392 103.162 796.132 103.813 796.653 104.644C797.182 105.474 797.447 106.381 797.447 107.366H795.091C795.091 106.292 794.749 105.449 794.065 104.839C793.382 104.22 792.417 103.911 791.172 103.911C790.017 103.911 789.113 104.167 788.462 104.68C787.819 105.185 787.498 105.889 787.498 106.792C787.498 107.516 787.803 108.131 788.414 108.635C789.032 109.132 790.078 109.587 791.551 110.002C793.032 110.417 794.188 110.877 795.018 111.382C795.856 111.878 796.474 112.46 796.873 113.127C797.28 113.795 797.483 114.58 797.483 115.483C797.483 116.924 796.922 118.079 795.799 118.95C794.676 119.813 793.174 120.244 791.294 120.244C790.074 120.244 788.934 120.012 787.876 119.548C786.819 119.076 786.001 118.433 785.423 117.62C784.853 116.806 784.568 115.882 784.568 114.849H786.924C786.924 115.923 787.319 116.773 788.108 117.4C788.906 118.018 789.968 118.328 791.294 118.328C792.531 118.328 793.479 118.075 794.139 117.571C794.798 117.066 795.127 116.379 795.127 115.508C795.127 114.637 794.822 113.966 794.212 113.494C793.602 113.014 792.495 112.542 790.892 112.078ZM812.779 104.155H807.066V120H804.734V104.155H799.034V102.227H812.779V104.155ZM829.075 120H826.719L817.771 106.304V120H815.416V102.227H817.771L826.744 115.984V102.227H829.075V120ZM843.272 115.361H835.826L834.153 120H831.736L838.523 102.227H840.574L847.374 120H844.969L843.272 115.361ZM836.534 113.433H842.576L839.549 105.12L836.534 113.433ZM852.793 102.227L858.604 116.729L864.415 102.227H867.454V120H865.11V113.079L865.33 105.608L859.495 120H857.701L851.878 105.645L852.11 113.079V120H849.766V102.227H852.793ZM881.639 111.785H873.936V118.083H882.884V120H871.592V102.227H882.762V104.155H873.936V109.868H881.639V111.785Z" fill="black"/>
<path d="M691.343 191.155H685.63V207H683.299V191.155H677.598V189.227H691.343V191.155ZM705.809 197.466H710.765V199.603H705.809V205.218H703.538V199.603H698.582V197.466H703.538V192.278H705.809V197.466ZM728.147 199.188C727.675 199.749 727.11 200.201 726.451 200.542C725.8 200.884 725.083 201.055 724.302 201.055C723.277 201.055 722.382 200.803 721.617 200.298C720.86 199.794 720.274 199.086 719.859 198.174C719.444 197.255 719.236 196.242 719.236 195.135C719.236 193.947 719.46 192.876 719.908 191.924C720.363 190.972 721.006 190.244 721.836 189.739C722.667 189.235 723.635 188.982 724.742 188.982C726.5 188.982 727.883 189.642 728.892 190.96C729.909 192.27 730.418 194.061 730.418 196.331V196.99C730.418 200.449 729.734 202.976 728.367 204.571C727 206.158 724.937 206.972 722.178 207.012H721.739V205.108H722.215C724.078 205.075 725.511 204.591 726.512 203.655C727.513 202.711 728.058 201.222 728.147 199.188ZM724.668 199.188C725.425 199.188 726.121 198.956 726.756 198.492C727.399 198.028 727.867 197.454 728.16 196.771V195.867C728.16 194.386 727.838 193.182 727.195 192.254C726.552 191.326 725.739 190.862 724.754 190.862C723.761 190.862 722.964 191.245 722.361 192.01C721.759 192.767 721.458 193.768 721.458 195.013C721.458 196.225 721.747 197.226 722.325 198.016C722.911 198.797 723.692 199.188 724.668 199.188ZM742.186 199.188C741.714 199.749 741.148 200.201 740.489 200.542C739.838 200.884 739.122 201.055 738.34 201.055C737.315 201.055 736.42 200.803 735.655 200.298C734.898 199.794 734.312 199.086 733.897 198.174C733.482 197.255 733.274 196.242 733.274 195.135C733.274 193.947 733.498 192.876 733.946 191.924C734.402 190.972 735.044 190.244 735.875 189.739C736.705 189.235 737.673 188.982 738.78 188.982C740.538 188.982 741.921 189.642 742.93 190.96C743.947 192.27 744.456 194.061 744.456 196.331V196.99C744.456 200.449 743.772 202.976 742.405 204.571C741.038 206.158 738.975 206.972 736.216 207.012H735.777V205.108H736.253C738.117 205.075 739.549 204.591 740.55 203.655C741.551 202.711 742.096 201.222 742.186 199.188ZM738.707 199.188C739.463 199.188 740.159 198.956 740.794 198.492C741.437 198.028 741.905 197.454 742.198 196.771V195.867C742.198 194.386 741.876 193.182 741.233 192.254C740.59 191.326 739.777 190.862 738.792 190.862C737.799 190.862 737.002 191.245 736.399 192.01C735.797 192.767 735.496 193.768 735.496 195.013C735.496 196.225 735.785 197.226 736.363 198.016C736.949 198.797 737.73 199.188 738.707 199.188ZM748.606 198.089L749.51 189.227H758.616V191.314H751.426L750.889 196.16C751.76 195.647 752.749 195.391 753.855 195.391C755.475 195.391 756.761 195.928 757.713 197.002C758.665 198.069 759.141 199.513 759.141 201.336C759.141 203.167 758.645 204.611 757.652 205.669C756.667 206.719 755.288 207.244 753.514 207.244C751.943 207.244 750.661 206.809 749.668 205.938C748.676 205.067 748.11 203.863 747.972 202.325H750.108C750.246 203.342 750.608 204.111 751.194 204.632C751.78 205.145 752.553 205.401 753.514 205.401C754.563 205.401 755.385 205.043 755.979 204.327C756.582 203.611 756.883 202.622 756.883 201.36C756.883 200.172 756.557 199.22 755.906 198.504C755.263 197.78 754.405 197.417 753.331 197.417C752.346 197.417 751.573 197.633 751.011 198.064L750.413 198.553L748.606 198.089ZM782.872 189.214V191.131H782.457C780.699 191.163 779.299 191.684 778.257 192.693C777.216 193.702 776.613 195.123 776.451 196.954C777.387 195.879 778.664 195.342 780.284 195.342C781.83 195.342 783.063 195.888 783.982 196.978C784.91 198.069 785.374 199.476 785.374 201.202C785.374 203.033 784.874 204.498 783.873 205.596C782.88 206.695 781.545 207.244 779.869 207.244C778.168 207.244 776.788 206.593 775.73 205.291C774.673 203.981 774.144 202.296 774.144 200.237V199.371C774.144 196.099 774.839 193.601 776.231 191.875C777.631 190.142 779.71 189.255 782.469 189.214H782.872ZM779.905 197.222C779.132 197.222 778.42 197.454 777.769 197.918C777.118 198.382 776.666 198.964 776.414 199.664V200.494C776.414 201.958 776.744 203.139 777.403 204.034C778.062 204.929 778.884 205.376 779.869 205.376C780.886 205.376 781.683 205.002 782.261 204.253C782.847 203.505 783.14 202.524 783.14 201.312C783.14 200.091 782.843 199.106 782.249 198.357C781.663 197.601 780.882 197.222 779.905 197.222ZM789.085 198.089L789.988 189.227H799.095V191.314H791.905L791.368 196.16C792.238 195.647 793.227 195.391 794.334 195.391C795.953 195.391 797.239 195.928 798.191 197.002C799.144 198.069 799.62 199.513 799.62 201.336C799.62 203.167 799.123 204.611 798.13 205.669C797.146 206.719 795.766 207.244 793.992 207.244C792.422 207.244 791.14 206.809 790.147 205.938C789.154 205.067 788.589 203.863 788.45 202.325H790.586C790.725 203.342 791.087 204.111 791.673 204.632C792.259 205.145 793.032 205.401 793.992 205.401C795.042 205.401 795.864 205.043 796.458 204.327C797.06 203.611 797.361 202.622 797.361 201.36C797.361 200.172 797.036 199.22 796.385 198.504C795.742 197.78 794.883 197.417 793.809 197.417C792.824 197.417 792.051 197.633 791.49 198.064L790.892 198.553L789.085 198.089ZM810.948 189.214V191.131H810.533C808.775 191.163 807.375 191.684 806.333 192.693C805.292 193.702 804.69 195.123 804.527 196.954C805.463 195.879 806.74 195.342 808.36 195.342C809.906 195.342 811.139 195.888 812.059 196.978C812.986 198.069 813.45 199.476 813.45 201.202C813.45 203.033 812.95 204.498 811.949 205.596C810.956 206.695 809.621 207.244 807.945 207.244C806.244 207.244 804.865 206.593 803.807 205.291C802.749 203.981 802.22 202.296 802.22 200.237V199.371C802.22 196.099 802.916 193.601 804.307 191.875C805.707 190.142 807.786 189.255 810.545 189.214H810.948ZM807.981 197.222C807.208 197.222 806.496 197.454 805.845 197.918C805.194 198.382 804.743 198.964 804.49 199.664V200.494C804.49 201.958 804.82 203.139 805.479 204.034C806.138 204.929 806.96 205.376 807.945 205.376C808.962 205.376 809.76 205.002 810.337 204.253C810.923 203.505 811.216 202.524 811.216 201.312C811.216 200.091 810.919 199.106 810.325 198.357C809.739 197.601 808.958 197.222 807.981 197.222ZM825.657 201.031H828.123V202.874H825.657V207H823.387V202.874H815.293V201.543L823.252 189.227H825.657V201.031ZM817.857 201.031H823.387V192.315L823.118 192.803L817.857 201.031ZM839.024 189.214V191.131H838.609C836.851 191.163 835.451 191.684 834.41 192.693C833.368 193.702 832.766 195.123 832.603 196.954C833.539 195.879 834.817 195.342 836.436 195.342C837.982 195.342 839.215 195.888 840.135 196.978C841.062 198.069 841.526 199.476 841.526 201.202C841.526 203.033 841.026 204.498 840.025 205.596C839.032 206.695 837.697 207.244 836.021 207.244C834.32 207.244 832.941 206.593 831.883 205.291C830.825 203.981 830.296 202.296 830.296 200.237V199.371C830.296 196.099 830.992 193.601 832.383 191.875C833.783 190.142 835.862 189.255 838.621 189.214H839.024ZM836.058 197.222C835.285 197.222 834.572 197.454 833.921 197.918C833.27 198.382 832.819 198.964 832.566 199.664V200.494C832.566 201.958 832.896 203.139 833.555 204.034C834.214 204.929 835.036 205.376 836.021 205.376C837.038 205.376 837.836 205.002 838.414 204.253C839 203.505 839.292 202.524 839.292 201.312C839.292 200.091 838.995 199.106 838.401 198.357C837.815 197.601 837.034 197.222 836.058 197.222ZM853.733 201.031H856.199V202.874H853.733V207H851.463V202.874H843.37V201.543L851.329 189.227H853.733V201.031ZM845.933 201.031H851.463V192.315L851.194 192.803L845.933 201.031ZM859.275 198.089L860.179 189.227H869.285V191.314H862.095L861.558 196.16C862.429 195.647 863.418 195.391 864.524 195.391C866.144 195.391 867.43 195.928 868.382 197.002C869.334 198.069 869.81 199.513 869.81 201.336C869.81 203.167 869.314 204.611 868.321 205.669C867.336 206.719 865.957 207.244 864.183 207.244C862.612 207.244 861.33 206.809 860.337 205.938C859.345 205.067 858.779 203.863 858.641 202.325H860.777C860.915 203.342 861.277 204.111 861.863 204.632C862.449 205.145 863.222 205.401 864.183 205.401C865.232 205.401 866.054 205.043 866.648 204.327C867.251 203.611 867.552 202.622 867.552 201.36C867.552 200.172 867.226 199.22 866.575 198.504C865.932 197.78 865.074 197.417 864 197.417C863.015 197.417 862.242 197.633 861.68 198.064L861.082 198.553L859.275 198.089ZM881.138 189.214V191.131H880.723C878.965 191.163 877.566 191.684 876.524 192.693C875.482 193.702 874.88 195.123 874.717 196.954C875.653 195.879 876.931 195.342 878.55 195.342C880.097 195.342 881.329 195.888 882.249 196.978C883.177 198.069 883.641 199.476 883.641 201.202C883.641 203.033 883.14 204.498 882.139 205.596C881.146 206.695 879.812 207.244 878.135 207.244C876.434 207.244 875.055 206.593 873.997 205.291C872.939 203.981 872.41 202.296 872.41 200.237V199.371C872.41 196.099 873.106 193.601 874.498 191.875C875.897 190.142 877.977 189.255 880.735 189.214H881.138ZM878.172 197.222C877.399 197.222 876.687 197.454 876.036 197.918C875.385 198.382 874.933 198.964 874.681 199.664V200.494C874.681 201.958 875.01 203.139 875.669 204.034C876.329 204.929 877.151 205.376 878.135 205.376C879.153 205.376 879.95 205.002 880.528 204.253C881.114 203.505 881.407 202.524 881.407 201.312C881.407 200.091 881.11 199.106 880.516 198.357C879.93 197.601 879.148 197.222 878.172 197.222ZM895.848 201.031H898.313V202.874H895.848V207H893.577V202.874H885.484V201.543L893.443 189.227H895.848V201.031ZM888.047 201.031H893.577V192.315L893.309 192.803L888.047 201.031ZM909.886 201.031H912.352V202.874H909.886V207H907.615V202.874H899.522V201.543L907.481 189.227H909.886V201.031ZM902.085 201.031H907.615V192.315L907.347 192.803L902.085 201.031ZM917.674 197.015H919.371C920.437 196.998 921.275 196.718 921.885 196.172C922.496 195.627 922.801 194.891 922.801 193.963C922.801 191.88 921.763 190.838 919.688 190.838C918.711 190.838 917.93 191.119 917.344 191.68C916.766 192.234 916.478 192.97 916.478 193.89H914.219C914.219 192.482 914.732 191.314 915.757 190.386C916.791 189.45 918.101 188.982 919.688 188.982C921.364 188.982 922.679 189.426 923.631 190.313C924.583 191.2 925.059 192.433 925.059 194.012C925.059 194.785 924.807 195.534 924.302 196.258C923.806 196.982 923.126 197.523 922.264 197.881C923.24 198.191 923.993 198.703 924.522 199.419C925.059 200.136 925.328 201.01 925.328 202.044C925.328 203.639 924.807 204.904 923.765 205.84C922.723 206.776 921.368 207.244 919.7 207.244C918.032 207.244 916.673 206.792 915.623 205.889C914.581 204.986 914.061 203.794 914.061 202.312H916.331C916.331 203.248 916.636 203.997 917.247 204.559C917.857 205.12 918.675 205.401 919.7 205.401C920.791 205.401 921.625 205.116 922.203 204.546C922.78 203.977 923.069 203.159 923.069 202.093C923.069 201.059 922.752 200.266 922.117 199.712C921.482 199.159 920.567 198.874 919.371 198.858H917.674V197.015ZM940.074 207H928.428V205.376L934.581 198.541C935.492 197.507 936.119 196.669 936.46 196.026C936.81 195.375 936.985 194.703 936.985 194.012C936.985 193.084 936.705 192.323 936.143 191.729C935.582 191.135 934.833 190.838 933.897 190.838C932.774 190.838 931.899 191.159 931.272 191.802C930.654 192.437 930.345 193.324 930.345 194.463H928.086C928.086 192.828 928.611 191.505 929.661 190.496C930.719 189.487 932.131 188.982 933.897 188.982C935.549 188.982 936.855 189.418 937.815 190.289C938.776 191.151 939.256 192.303 939.256 193.743C939.256 195.493 938.141 197.576 935.911 199.993L931.15 205.157H940.074V207ZM943.504 198.089L944.407 189.227H953.514V191.314H946.324L945.787 196.16C946.657 195.647 947.646 195.391 948.753 195.391C950.372 195.391 951.658 195.928 952.61 197.002C953.562 198.069 954.039 199.513 954.039 201.336C954.039 203.167 953.542 204.611 952.549 205.669C951.565 206.719 950.185 207.244 948.411 207.244C946.84 207.244 945.559 206.809 944.566 205.938C943.573 205.067 943.007 203.863 942.869 202.325H945.005C945.144 203.342 945.506 204.111 946.092 204.632C946.678 205.145 947.451 205.401 948.411 205.401C949.461 205.401 950.283 205.043 950.877 204.327C951.479 203.611 951.78 202.622 951.78 201.36C951.78 200.172 951.455 199.22 950.804 198.504C950.161 197.78 949.302 197.417 948.228 197.417C947.243 197.417 946.47 197.633 945.909 198.064L945.311 198.553L943.504 198.089ZM968.15 207H956.504V205.376L962.657 198.541C963.568 197.507 964.195 196.669 964.537 196.026C964.887 195.375 965.062 194.703 965.062 194.012C965.062 193.084 964.781 192.323 964.219 191.729C963.658 191.135 962.909 190.838 961.973 190.838C960.85 190.838 959.975 191.159 959.349 191.802C958.73 192.437 958.421 193.324 958.421 194.463H956.163C956.163 192.828 956.688 191.505 957.737 190.496C958.795 189.487 960.207 188.982 961.973 188.982C963.625 188.982 964.931 189.418 965.892 190.289C966.852 191.151 967.332 192.303 967.332 193.743C967.332 195.493 966.217 197.576 963.987 199.993L959.227 205.157H968.15V207Z" fill="black"/>
<path d="M682.09 222.227L687.901 236.729L693.711 222.227H696.751V240H694.407V233.079L694.627 225.608L688.792 240H686.998L681.175 225.645L681.407 233.079V240H679.063V222.227H682.09ZM713.206 230.466H718.162V232.603H713.206V238.218H710.936V232.603H705.979V230.466H710.936V225.278H713.206V230.466ZM735.545 232.188C735.073 232.749 734.507 233.201 733.848 233.542C733.197 233.884 732.481 234.055 731.7 234.055C730.674 234.055 729.779 233.803 729.014 233.298C728.257 232.794 727.671 232.086 727.256 231.174C726.841 230.255 726.634 229.242 726.634 228.135C726.634 226.947 726.858 225.876 727.305 224.924C727.761 223.972 728.404 223.244 729.234 222.739C730.064 222.235 731.032 221.982 732.139 221.982C733.897 221.982 735.28 222.642 736.29 223.96C737.307 225.27 737.815 227.061 737.815 229.331V229.99C737.815 233.449 737.132 235.976 735.765 237.571C734.397 239.158 732.334 239.972 729.576 240.012H729.136V238.108H729.612C731.476 238.075 732.908 237.591 733.909 236.655C734.91 235.711 735.455 234.222 735.545 232.188ZM732.066 232.188C732.823 232.188 733.519 231.956 734.153 231.492C734.796 231.028 735.264 230.454 735.557 229.771V228.867C735.557 227.386 735.236 226.182 734.593 225.254C733.95 224.326 733.136 223.862 732.151 223.862C731.159 223.862 730.361 224.245 729.759 225.01C729.157 225.767 728.855 226.768 728.855 228.013C728.855 229.225 729.144 230.226 729.722 231.016C730.308 231.797 731.089 232.188 732.066 232.188ZM749.583 232.188C749.111 232.749 748.545 233.201 747.886 233.542C747.235 233.884 746.519 234.055 745.738 234.055C744.712 234.055 743.817 233.803 743.052 233.298C742.295 232.794 741.709 232.086 741.294 231.174C740.879 230.255 740.672 229.242 740.672 228.135C740.672 226.947 740.896 225.876 741.343 224.924C741.799 223.972 742.442 223.244 743.272 222.739C744.102 222.235 745.07 221.982 746.177 221.982C747.935 221.982 749.319 222.642 750.328 223.96C751.345 225.27 751.854 227.061 751.854 229.331V229.99C751.854 233.449 751.17 235.976 749.803 237.571C748.436 239.158 746.373 239.972 743.614 240.012H743.174V238.108H743.65C745.514 238.075 746.946 237.591 747.947 236.655C748.948 235.711 749.493 234.222 749.583 232.188ZM746.104 232.188C746.861 232.188 747.557 231.956 748.191 231.492C748.834 231.028 749.302 230.454 749.595 229.771V228.867C749.595 227.386 749.274 226.182 748.631 225.254C747.988 224.326 747.174 223.862 746.189 223.862C745.197 223.862 744.399 224.245 743.797 225.01C743.195 225.767 742.894 226.768 742.894 228.013C742.894 229.225 743.182 230.226 743.76 231.016C744.346 231.797 745.127 232.188 746.104 232.188ZM756.004 231.089L756.907 222.227H766.014V224.314H758.824L758.287 229.16C759.157 228.647 760.146 228.391 761.253 228.391C762.872 228.391 764.158 228.928 765.11 230.002C766.062 231.069 766.539 232.513 766.539 234.336C766.539 236.167 766.042 237.611 765.049 238.669C764.065 239.719 762.685 240.244 760.911 240.244C759.34 240.244 758.059 239.809 757.066 238.938C756.073 238.067 755.507 236.863 755.369 235.325H757.505C757.644 236.342 758.006 237.111 758.592 237.632C759.178 238.145 759.951 238.401 760.911 238.401C761.961 238.401 762.783 238.043 763.377 237.327C763.979 236.611 764.28 235.622 764.28 234.36C764.28 233.172 763.955 232.22 763.304 231.504C762.661 230.78 761.802 230.417 760.728 230.417C759.743 230.417 758.97 230.633 758.409 231.064L757.811 231.553L756.004 231.089ZM793.052 240H781.407V238.376L787.559 231.541C788.471 230.507 789.097 229.669 789.439 229.026C789.789 228.375 789.964 227.703 789.964 227.012C789.964 226.084 789.683 225.323 789.122 224.729C788.56 224.135 787.811 223.838 786.875 223.838C785.752 223.838 784.878 224.159 784.251 224.802C783.632 225.437 783.323 226.324 783.323 227.463H781.065C781.065 225.828 781.59 224.505 782.64 223.496C783.698 222.487 785.11 221.982 786.875 221.982C788.528 221.982 789.834 222.418 790.794 223.289C791.754 224.151 792.234 225.303 792.234 226.743C792.234 228.493 791.119 230.576 788.89 232.993L784.129 238.157H793.052V240ZM798.729 230.015H800.425C801.491 229.998 802.33 229.718 802.94 229.172C803.55 228.627 803.855 227.891 803.855 226.963C803.855 224.88 802.818 223.838 800.743 223.838C799.766 223.838 798.985 224.119 798.399 224.68C797.821 225.234 797.532 225.97 797.532 226.89H795.274C795.274 225.482 795.787 224.314 796.812 223.386C797.846 222.45 799.156 221.982 800.743 221.982C802.419 221.982 803.733 222.426 804.686 223.313C805.638 224.2 806.114 225.433 806.114 227.012C806.114 227.785 805.861 228.534 805.357 229.258C804.861 229.982 804.181 230.523 803.318 230.881C804.295 231.191 805.048 231.703 805.577 232.419C806.114 233.136 806.382 234.01 806.382 235.044C806.382 236.639 805.861 237.904 804.82 238.84C803.778 239.776 802.423 240.244 800.755 240.244C799.087 240.244 797.728 239.792 796.678 238.889C795.636 237.986 795.115 236.794 795.115 235.312H797.386C797.386 236.248 797.691 236.997 798.301 237.559C798.912 238.12 799.729 238.401 800.755 238.401C801.845 238.401 802.68 238.116 803.257 237.546C803.835 236.977 804.124 236.159 804.124 235.093C804.124 234.059 803.807 233.266 803.172 232.712C802.537 232.159 801.622 231.874 800.425 231.858H798.729V230.015ZM819.017 234.031H821.482V235.874H819.017V240H816.746V235.874H808.653V234.543L816.612 222.227H819.017V234.031ZM811.216 234.031H816.746V225.315L816.478 225.803L811.216 234.031ZM835.167 240H823.521V238.376L829.673 231.541C830.585 230.507 831.211 229.669 831.553 229.026C831.903 228.375 832.078 227.703 832.078 227.012C832.078 226.084 831.797 225.323 831.236 224.729C830.674 224.135 829.926 223.838 828.99 223.838C827.867 223.838 826.992 224.159 826.365 224.802C825.747 225.437 825.438 226.324 825.438 227.463H823.179C823.179 225.828 823.704 224.505 824.754 223.496C825.812 222.487 827.224 221.982 828.99 221.982C830.642 221.982 831.948 222.418 832.908 223.289C833.868 224.151 834.349 225.303 834.349 226.743C834.349 228.493 833.234 230.576 831.004 232.993L826.243 238.157H835.167V240ZM847.093 234.031H849.559V235.874H847.093V240H844.822V235.874H836.729V234.543L844.688 222.227H847.093V234.031ZM839.292 234.031H844.822V225.315L844.554 225.803L839.292 234.031ZM869.444 240H857.798V238.376L863.951 231.541C864.862 230.507 865.489 229.669 865.831 229.026C866.181 228.375 866.355 227.703 866.355 227.012C866.355 226.084 866.075 225.323 865.513 224.729C864.952 224.135 864.203 223.838 863.267 223.838C862.144 223.838 861.269 224.159 860.643 224.802C860.024 225.437 859.715 226.324 859.715 227.463H857.457C857.457 225.828 857.981 224.505 859.031 223.496C860.089 222.487 861.501 221.982 863.267 221.982C864.919 221.982 866.225 222.418 867.186 223.289C868.146 224.151 868.626 225.303 868.626 226.743C868.626 228.493 867.511 230.576 865.281 232.993L860.521 238.157H869.444V240ZM881.37 234.031H883.836V235.874H881.37V240H879.1V235.874H871.006V234.543L878.965 222.227H881.37V234.031ZM873.57 234.031H879.1V225.315L878.831 225.803L873.57 234.031ZM889.158 230.015H890.855C891.921 229.998 892.759 229.718 893.37 229.172C893.98 228.627 894.285 227.891 894.285 226.963C894.285 224.88 893.248 223.838 891.172 223.838C890.196 223.838 889.415 224.119 888.829 224.68C888.251 225.234 887.962 225.97 887.962 226.89H885.704C885.704 225.482 886.216 224.314 887.242 223.386C888.275 222.45 889.585 221.982 891.172 221.982C892.849 221.982 894.163 222.426 895.115 223.313C896.067 224.2 896.543 225.433 896.543 227.012C896.543 227.785 896.291 228.534 895.787 229.258C895.29 229.982 894.611 230.523 893.748 230.881C894.725 231.191 895.477 231.703 896.006 232.419C896.543 233.136 896.812 234.01 896.812 235.044C896.812 236.639 896.291 237.904 895.25 238.84C894.208 239.776 892.853 240.244 891.185 240.244C889.516 240.244 888.157 239.792 887.107 238.889C886.066 237.986 885.545 236.794 885.545 235.312H887.815C887.815 236.248 888.121 236.997 888.731 237.559C889.341 238.12 890.159 238.401 891.185 238.401C892.275 238.401 893.109 238.116 893.687 237.546C894.265 236.977 894.554 236.159 894.554 235.093C894.554 234.059 894.236 233.266 893.602 232.712C892.967 232.159 892.051 231.874 890.855 231.858H889.158V230.015ZM911.558 240H899.913V238.376L906.065 231.541C906.976 230.507 907.603 229.669 907.945 229.026C908.295 228.375 908.47 227.703 908.47 227.012C908.47 226.084 908.189 225.323 907.627 224.729C907.066 224.135 906.317 223.838 905.381 223.838C904.258 223.838 903.383 224.159 902.757 224.802C902.138 225.437 901.829 226.324 901.829 227.463H899.571C899.571 225.828 900.096 224.505 901.146 223.496C902.203 222.487 903.615 221.982 905.381 221.982C907.033 221.982 908.34 222.418 909.3 223.289C910.26 224.151 910.74 225.303 910.74 226.743C910.74 228.493 909.625 230.576 907.396 232.993L902.635 238.157H911.558V240ZM917.234 230.015H918.931C919.997 229.998 920.835 229.718 921.446 229.172C922.056 228.627 922.361 227.891 922.361 226.963C922.361 224.88 921.324 223.838 919.249 223.838C918.272 223.838 917.491 224.119 916.905 224.68C916.327 225.234 916.038 225.97 916.038 226.89H913.78C913.78 225.482 914.292 224.314 915.318 223.386C916.351 222.45 917.662 221.982 919.249 221.982C920.925 221.982 922.239 222.426 923.191 223.313C924.144 224.2 924.62 225.433 924.62 227.012C924.62 227.785 924.367 228.534 923.863 229.258C923.366 229.982 922.687 230.523 921.824 230.881C922.801 231.191 923.554 231.703 924.083 232.419C924.62 233.136 924.888 234.01 924.888 235.044C924.888 236.639 924.367 237.904 923.326 238.84C922.284 239.776 920.929 240.244 919.261 240.244C917.592 240.244 916.233 239.792 915.184 238.889C914.142 237.986 913.621 236.794 913.621 235.312H915.892C915.892 236.248 916.197 236.997 916.807 237.559C917.417 238.12 918.235 238.401 919.261 238.401C920.351 238.401 921.185 238.116 921.763 237.546C922.341 236.977 922.63 236.159 922.63 235.093C922.63 234.059 922.312 233.266 921.678 232.712C921.043 232.159 920.127 231.874 918.931 231.858H917.234V230.015ZM931.272 230.015H932.969C934.035 229.998 934.874 229.718 935.484 229.172C936.094 228.627 936.399 227.891 936.399 226.963C936.399 224.88 935.362 223.838 933.287 223.838C932.31 223.838 931.529 224.119 930.943 224.68C930.365 225.234 930.076 225.97 930.076 226.89H927.818C927.818 225.482 928.331 224.314 929.356 223.386C930.389 222.45 931.7 221.982 933.287 221.982C934.963 221.982 936.277 222.426 937.229 223.313C938.182 224.2 938.658 225.433 938.658 227.012C938.658 227.785 938.405 228.534 937.901 229.258C937.404 229.982 936.725 230.523 935.862 230.881C936.839 231.191 937.592 231.703 938.121 232.419C938.658 233.136 938.926 234.01 938.926 235.044C938.926 236.639 938.405 237.904 937.364 238.84C936.322 239.776 934.967 240.244 933.299 240.244C931.631 240.244 930.271 239.792 929.222 238.889C928.18 237.986 927.659 236.794 927.659 235.312H929.93C929.93 236.248 930.235 236.997 930.845 237.559C931.456 238.12 932.273 238.401 933.299 238.401C934.389 238.401 935.223 238.116 935.801 237.546C936.379 236.977 936.668 236.159 936.668 235.093C936.668 234.059 936.351 233.266 935.716 232.712C935.081 232.159 934.166 231.874 932.969 231.858H931.272V230.015ZM951.561 234.031H954.026V235.874H951.561V240H949.29V235.874H941.197V234.543L949.156 222.227H951.561V234.031ZM943.76 234.031H949.29V225.315L949.021 225.803L943.76 234.031ZM967.71 240H956.065V238.376L962.217 231.541C963.129 230.507 963.755 229.669 964.097 229.026C964.447 228.375 964.622 227.703 964.622 227.012C964.622 226.084 964.341 225.323 963.78 224.729C963.218 224.135 962.47 223.838 961.534 223.838C960.411 223.838 959.536 224.159 958.909 224.802C958.291 225.437 957.981 226.324 957.981 227.463H955.723C955.723 225.828 956.248 224.505 957.298 223.496C958.356 222.487 959.768 221.982 961.534 221.982C963.186 221.982 964.492 222.418 965.452 223.289C966.412 224.151 966.893 225.303 966.893 226.743C966.893 228.493 965.778 230.576 963.548 232.993L958.787 238.157H967.71V240Z" fill="black"/>
<path d="M685.899 314H683.628V298.949L679.075 300.621V298.57L685.545 296.141H685.899V314ZM704.161 314H692.515V312.376L698.667 305.541C699.579 304.507 700.206 303.669 700.547 303.026C700.897 302.375 701.072 301.703 701.072 301.012C701.072 300.084 700.792 299.323 700.23 298.729C699.668 298.135 698.92 297.838 697.984 297.838C696.861 297.838 695.986 298.159 695.359 298.802C694.741 299.437 694.432 300.324 694.432 301.463H692.173C692.173 299.828 692.698 298.505 693.748 297.496C694.806 296.487 696.218 295.982 697.984 295.982C699.636 295.982 700.942 296.418 701.902 297.289C702.863 298.151 703.343 299.303 703.343 300.743C703.343 302.493 702.228 304.576 699.998 306.993L695.237 312.157H704.161V314ZM709.837 304.015H711.534C712.6 303.998 713.438 303.718 714.048 303.172C714.659 302.627 714.964 301.891 714.964 300.963C714.964 298.88 713.926 297.838 711.851 297.838C710.875 297.838 710.093 298.119 709.507 298.68C708.93 299.234 708.641 299.97 708.641 300.89H706.382C706.382 299.482 706.895 298.314 707.92 297.386C708.954 296.45 710.264 295.982 711.851 295.982C713.528 295.982 714.842 296.426 715.794 297.313C716.746 298.2 717.222 299.433 717.222 301.012C717.222 301.785 716.97 302.534 716.465 303.258C715.969 303.982 715.289 304.523 714.427 304.881C715.403 305.191 716.156 305.703 716.685 306.419C717.222 307.136 717.491 308.01 717.491 309.044C717.491 310.639 716.97 311.904 715.928 312.84C714.887 313.776 713.532 314.244 711.863 314.244C710.195 314.244 708.836 313.792 707.786 312.889C706.744 311.986 706.224 310.794 706.224 309.312H708.494C708.494 310.248 708.799 310.997 709.41 311.559C710.02 312.12 710.838 312.401 711.863 312.401C712.954 312.401 713.788 312.116 714.366 311.546C714.944 310.977 715.232 310.159 715.232 309.093C715.232 308.059 714.915 307.266 714.28 306.712C713.646 306.159 712.73 305.874 711.534 305.858H709.837V304.015ZM730.125 308.031H732.591V309.874H730.125V314H727.854V309.874H719.761V308.543L727.72 296.227H730.125V308.031ZM722.325 308.031H727.854V299.315L727.586 299.803L722.325 308.031ZM737.913 304.015H739.61C740.676 303.998 741.514 303.718 742.125 303.172C742.735 302.627 743.04 301.891 743.04 300.963C743.04 298.88 742.002 297.838 739.927 297.838C738.951 297.838 738.169 298.119 737.583 298.68C737.006 299.234 736.717 299.97 736.717 300.89H734.458C734.458 299.482 734.971 298.314 735.997 297.386C737.03 296.45 738.34 295.982 739.927 295.982C741.604 295.982 742.918 296.426 743.87 297.313C744.822 298.2 745.298 299.433 745.298 301.012C745.298 301.785 745.046 302.534 744.542 303.258C744.045 303.982 743.366 304.523 742.503 304.881C743.479 305.191 744.232 305.703 744.761 306.419C745.298 307.136 745.567 308.01 745.567 309.044C745.567 310.639 745.046 311.904 744.004 312.84C742.963 313.776 741.608 314.244 739.939 314.244C738.271 314.244 736.912 313.792 735.862 312.889C734.821 311.986 734.3 310.794 734.3 309.312H736.57C736.57 310.248 736.875 310.997 737.486 311.559C738.096 312.12 738.914 312.401 739.939 312.401C741.03 312.401 741.864 312.116 742.442 311.546C743.02 310.977 743.309 310.159 743.309 309.093C743.309 308.059 742.991 307.266 742.356 306.712C741.722 306.159 740.806 305.874 739.61 305.858H737.913V304.015ZM767.247 298.155H761.534V314H759.202V298.155H753.501V296.227H767.247V298.155ZM780.711 307.542C780.711 309.561 780.247 311.184 779.319 312.413C778.392 313.634 777.146 314.244 775.584 314.244C773.916 314.244 772.626 313.654 771.714 312.474L771.604 314H769.529V295.25H771.788V302.245C772.699 301.113 773.956 300.548 775.56 300.548C777.163 300.548 778.42 301.154 779.332 302.367C780.251 303.579 780.711 305.239 780.711 307.347V307.542ZM778.453 307.286C778.453 305.748 778.156 304.56 777.562 303.722C776.967 302.883 776.113 302.464 774.998 302.464C773.509 302.464 772.439 303.156 771.788 304.54V310.252C772.479 311.636 773.558 312.328 775.022 312.328C776.105 312.328 776.947 311.909 777.549 311.07C778.152 310.232 778.453 308.971 778.453 307.286ZM786.021 314H783.763V300.792H786.021V314ZM783.58 297.289C783.58 296.922 783.689 296.613 783.909 296.361C784.137 296.109 784.471 295.982 784.91 295.982C785.35 295.982 785.683 296.109 785.911 296.361C786.139 296.613 786.253 296.922 786.253 297.289C786.253 297.655 786.139 297.96 785.911 298.204C785.683 298.448 785.35 298.57 784.91 298.57C784.471 298.57 784.137 298.448 783.909 298.204C783.689 297.96 783.58 297.655 783.58 297.289ZM792.1 314H789.842V295.25H792.1V314ZM798.179 314H795.921V300.792H798.179V314ZM795.738 297.289C795.738 296.922 795.848 296.613 796.067 296.361C796.295 296.109 796.629 295.982 797.068 295.982C797.508 295.982 797.841 296.109 798.069 296.361C798.297 296.613 798.411 296.922 798.411 297.289C798.411 297.655 798.297 297.96 798.069 298.204C797.841 298.448 797.508 298.57 797.068 298.57C796.629 298.57 796.295 298.448 796.067 298.204C795.848 297.96 795.738 297.655 795.738 297.289ZM809.495 310.497C809.495 309.886 809.263 309.414 808.799 309.081C808.344 308.739 807.542 308.446 806.395 308.202C805.255 307.958 804.348 307.665 803.672 307.323C803.005 306.981 802.509 306.574 802.183 306.102C801.866 305.63 801.707 305.069 801.707 304.417C801.707 303.335 802.163 302.42 803.074 301.671C803.994 300.922 805.166 300.548 806.59 300.548C808.087 300.548 809.3 300.934 810.228 301.708C811.163 302.481 811.631 303.469 811.631 304.674H809.361C809.361 304.055 809.096 303.522 808.567 303.075C808.047 302.627 807.387 302.403 806.59 302.403C805.768 302.403 805.125 302.582 804.661 302.94C804.197 303.299 803.965 303.766 803.965 304.344C803.965 304.889 804.181 305.3 804.612 305.577C805.044 305.854 805.821 306.118 806.944 306.371C808.075 306.623 808.991 306.924 809.69 307.274C810.39 307.624 810.907 308.047 811.241 308.543C811.583 309.032 811.753 309.63 811.753 310.338C811.753 311.518 811.281 312.466 810.337 313.182C809.393 313.89 808.169 314.244 806.663 314.244C805.605 314.244 804.669 314.057 803.855 313.683C803.042 313.308 802.403 312.787 801.939 312.12C801.483 311.445 801.255 310.716 801.255 309.935H803.514C803.554 310.692 803.855 311.294 804.417 311.742C804.987 312.181 805.735 312.401 806.663 312.401C807.518 312.401 808.201 312.23 808.714 311.888C809.235 311.538 809.495 311.074 809.495 310.497ZM817.149 314H814.891V300.792H817.149V314ZM814.708 297.289C814.708 296.922 814.817 296.613 815.037 296.361C815.265 296.109 815.599 295.982 816.038 295.982C816.478 295.982 816.811 296.109 817.039 296.361C817.267 296.613 817.381 296.922 817.381 297.289C817.381 297.655 817.267 297.96 817.039 298.204C816.811 298.448 816.478 298.57 816.038 298.57C815.599 298.57 815.265 298.448 815.037 298.204C814.817 297.96 814.708 297.655 814.708 297.289ZM682.09 325.227L687.901 339.729L693.711 325.227H696.751V343H694.407V336.079L694.627 328.608L688.792 343H686.998L681.175 328.645L681.407 336.079V343H679.063V325.227H682.09ZM708.689 343C708.559 342.74 708.453 342.276 708.372 341.608C707.322 342.699 706.069 343.244 704.612 343.244C703.31 343.244 702.24 342.878 701.402 342.146C700.572 341.405 700.157 340.469 700.157 339.338C700.157 337.963 700.678 336.896 701.719 336.14C702.769 335.375 704.242 334.992 706.138 334.992H708.335V333.955C708.335 333.165 708.099 332.539 707.627 332.075C707.155 331.603 706.46 331.367 705.54 331.367C704.734 331.367 704.059 331.57 703.514 331.977C702.968 332.384 702.696 332.876 702.696 333.454H700.425C700.425 332.795 700.657 332.16 701.121 331.55C701.593 330.931 702.228 330.443 703.025 330.085C703.831 329.727 704.714 329.548 705.674 329.548C707.196 329.548 708.388 329.93 709.251 330.695C710.114 331.452 710.561 332.498 710.594 333.833V339.912C710.594 341.124 710.748 342.089 711.058 342.805V343H708.689ZM704.942 341.279C705.65 341.279 706.321 341.096 706.956 340.729C707.591 340.363 708.051 339.887 708.335 339.301V336.591H706.565C703.799 336.591 702.415 337.401 702.415 339.021C702.415 339.729 702.651 340.282 703.123 340.681C703.595 341.079 704.201 341.279 704.942 341.279ZM720.518 331.818C720.176 331.761 719.806 331.733 719.407 331.733C717.926 331.733 716.921 332.364 716.392 333.625V343H714.134V329.792H716.331L716.368 331.318C717.108 330.138 718.158 329.548 719.517 329.548C719.957 329.548 720.29 329.605 720.518 329.719V331.818ZM724.937 329.792V344.526C724.937 347.065 723.785 348.334 721.482 348.334C720.986 348.334 720.526 348.261 720.103 348.115V346.308C720.363 346.373 720.705 346.406 721.128 346.406C721.633 346.406 722.015 346.267 722.276 345.991C722.544 345.722 722.679 345.25 722.679 344.575V329.792H724.937ZM722.447 326.289C722.447 325.931 722.557 325.625 722.776 325.373C723.004 325.113 723.334 324.982 723.765 324.982C724.205 324.982 724.538 325.109 724.766 325.361C724.994 325.613 725.108 325.922 725.108 326.289C725.108 326.655 724.994 326.96 724.766 327.204C724.538 327.448 724.205 327.57 723.765 327.57C723.326 327.57 722.996 327.448 722.776 327.204C722.557 326.96 722.447 326.655 722.447 326.289ZM736.741 343C736.611 342.74 736.505 342.276 736.424 341.608C735.374 342.699 734.121 343.244 732.664 343.244C731.362 343.244 730.292 342.878 729.454 342.146C728.624 341.405 728.208 340.469 728.208 339.338C728.208 337.963 728.729 336.896 729.771 336.14C730.821 335.375 732.294 334.992 734.19 334.992H736.387V333.955C736.387 333.165 736.151 332.539 735.679 332.075C735.207 331.603 734.511 331.367 733.592 331.367C732.786 331.367 732.111 331.57 731.565 331.977C731.02 332.384 730.748 332.876 730.748 333.454H728.477C728.477 332.795 728.709 332.16 729.173 331.55C729.645 330.931 730.28 330.443 731.077 330.085C731.883 329.727 732.766 329.548 733.726 329.548C735.248 329.548 736.44 329.93 737.303 330.695C738.165 331.452 738.613 332.498 738.646 333.833V339.912C738.646 341.124 738.8 342.089 739.109 342.805V343H736.741ZM732.994 341.279C733.702 341.279 734.373 341.096 735.008 340.729C735.643 340.363 736.102 339.887 736.387 339.301V336.591H734.617C731.85 336.591 730.467 337.401 730.467 339.021C730.467 339.729 730.703 340.282 731.175 340.681C731.647 341.079 732.253 341.279 732.994 341.279ZM744.322 329.792L744.395 331.452C745.404 330.183 746.722 329.548 748.35 329.548C751.141 329.548 752.549 331.123 752.574 334.272V343H750.315V334.26C750.307 333.308 750.088 332.604 749.656 332.148C749.233 331.692 748.57 331.464 747.667 331.464C746.934 331.464 746.291 331.66 745.738 332.05C745.184 332.441 744.753 332.954 744.444 333.588V343H742.186V329.792H744.322ZM758.433 343H756.175V329.792H758.433V343ZM755.992 326.289C755.992 325.922 756.102 325.613 756.321 325.361C756.549 325.109 756.883 324.982 757.322 324.982C757.762 324.982 758.095 325.109 758.323 325.361C758.551 325.613 758.665 325.922 758.665 326.289C758.665 326.655 758.551 326.96 758.323 327.204C758.095 327.448 757.762 327.57 757.322 327.57C756.883 327.57 756.549 327.448 756.321 327.204C756.102 326.96 755.992 326.655 755.992 326.289ZM769.749 339.497C769.749 338.886 769.517 338.414 769.053 338.081C768.597 337.739 767.796 337.446 766.648 337.202C765.509 336.958 764.602 336.665 763.926 336.323C763.259 335.981 762.763 335.574 762.437 335.102C762.12 334.63 761.961 334.069 761.961 333.417C761.961 332.335 762.417 331.42 763.328 330.671C764.248 329.922 765.42 329.548 766.844 329.548C768.341 329.548 769.554 329.934 770.481 330.708C771.417 331.481 771.885 332.469 771.885 333.674H769.615C769.615 333.055 769.35 332.522 768.821 332.075C768.3 331.627 767.641 331.403 766.844 331.403C766.022 331.403 765.379 331.582 764.915 331.94C764.451 332.299 764.219 332.766 764.219 333.344C764.219 333.889 764.435 334.3 764.866 334.577C765.298 334.854 766.075 335.118 767.198 335.371C768.329 335.623 769.244 335.924 769.944 336.274C770.644 336.624 771.161 337.047 771.495 337.543C771.836 338.032 772.007 338.63 772.007 339.338C772.007 340.518 771.535 341.466 770.591 342.182C769.647 342.89 768.423 343.244 766.917 343.244C765.859 343.244 764.923 343.057 764.109 342.683C763.296 342.308 762.657 341.787 762.193 341.12C761.737 340.445 761.509 339.716 761.509 338.935H763.768C763.808 339.692 764.109 340.294 764.671 340.742C765.241 341.181 765.989 341.401 766.917 341.401C767.771 341.401 768.455 341.23 768.968 340.888C769.489 340.538 769.749 340.074 769.749 339.497ZM777.208 331.391C778.208 330.162 779.511 329.548 781.114 329.548C783.905 329.548 785.313 331.123 785.337 334.272V343H783.079V334.26C783.071 333.308 782.851 332.604 782.42 332.148C781.997 331.692 781.333 331.464 780.43 331.464C779.698 331.464 779.055 331.66 778.501 332.05C777.948 332.441 777.517 332.954 777.208 333.588V343H774.949V324.25H777.208V331.391ZM793.077 339.936L796.348 329.792H798.655L793.919 343H792.198L787.413 329.792H789.72L793.077 339.936ZM803.282 343H801.023V329.792H803.282V343ZM800.84 326.289C800.84 325.922 800.95 325.613 801.17 325.361C801.398 325.109 801.731 324.982 802.171 324.982C802.61 324.982 802.944 325.109 803.172 325.361C803.4 325.613 803.514 325.922 803.514 326.289C803.514 326.655 803.4 326.96 803.172 327.204C802.944 327.448 802.61 327.57 802.171 327.57C801.731 327.57 801.398 327.448 801.17 327.204C800.95 326.96 800.84 326.655 800.84 326.289ZM809.361 343H807.103V324.25H809.361V343ZM815.44 343H813.182V329.792H815.44V343ZM812.999 326.289C812.999 325.922 813.108 325.613 813.328 325.361C813.556 325.109 813.89 324.982 814.329 324.982C814.769 324.982 815.102 325.109 815.33 325.361C815.558 325.613 815.672 325.922 815.672 326.289C815.672 326.655 815.558 326.96 815.33 327.204C815.102 327.448 814.769 327.57 814.329 327.57C813.89 327.57 813.556 327.448 813.328 327.204C813.108 326.96 812.999 326.655 812.999 326.289ZM818.992 346.54L817.71 345.661C818.475 344.595 818.874 343.496 818.907 342.365V340.327H821.116V342.097C821.116 342.919 820.913 343.741 820.506 344.562C820.107 345.384 819.603 346.044 818.992 346.54ZM843.65 340.668C843.048 341.531 842.206 342.178 841.124 342.609C840.049 343.033 838.796 343.244 837.364 343.244C835.915 343.244 834.629 342.906 833.506 342.231C832.383 341.547 831.513 340.579 830.894 339.326C830.284 338.072 829.97 336.62 829.954 334.968V333.417C829.954 330.74 830.577 328.665 831.822 327.192C833.075 325.719 834.833 324.982 837.095 324.982C838.951 324.982 840.444 325.458 841.575 326.411C842.706 327.355 843.398 328.697 843.65 330.439H841.307C840.867 328.087 839.467 326.911 837.107 326.911C835.537 326.911 834.345 327.465 833.531 328.571C832.725 329.67 832.318 331.265 832.31 333.356V334.809C832.31 336.803 832.766 338.39 833.677 339.57C834.589 340.742 835.822 341.328 837.376 341.328C838.255 341.328 839.024 341.23 839.683 341.035C840.342 340.839 840.888 340.51 841.319 340.046V336.054H837.205V334.15H843.65V340.668ZM857.615 334.785H849.913V341.083H858.86V343H847.569V325.227H858.738V327.155H849.913V332.868H857.615V334.785ZM875.45 334.687C875.45 336.429 875.157 337.95 874.571 339.252C873.985 340.546 873.155 341.535 872.081 342.219C871.006 342.902 869.753 343.244 868.321 343.244C866.921 343.244 865.68 342.902 864.598 342.219C863.515 341.527 862.673 340.546 862.071 339.277C861.477 337.999 861.172 336.522 861.155 334.846V333.564C861.155 331.855 861.452 330.345 862.046 329.035C862.64 327.725 863.479 326.724 864.561 326.032C865.652 325.332 866.897 324.982 868.296 324.982C869.721 324.982 870.974 325.328 872.056 326.02C873.147 326.704 873.985 327.701 874.571 329.011C875.157 330.313 875.45 331.831 875.45 333.564V334.687ZM873.118 333.54C873.118 331.432 872.695 329.816 871.849 328.693C871.002 327.562 869.818 326.997 868.296 326.997C866.815 326.997 865.647 327.562 864.793 328.693C863.947 329.816 863.511 331.379 863.487 333.381V334.687C863.487 336.73 863.914 338.337 864.769 339.509C865.631 340.673 866.815 341.254 868.321 341.254C869.834 341.254 871.006 340.705 871.836 339.606C872.667 338.5 873.094 336.917 873.118 334.858V333.54ZM892.002 343H889.732V327.949L885.179 329.621V327.57L891.648 325.141H892.002V343ZM910.264 343H898.619V341.376L904.771 334.541C905.682 333.507 906.309 332.669 906.651 332.026C907.001 331.375 907.176 330.703 907.176 330.012C907.176 329.084 906.895 328.323 906.333 327.729C905.772 327.135 905.023 326.838 904.087 326.838C902.964 326.838 902.09 327.159 901.463 327.802C900.844 328.437 900.535 329.324 900.535 330.463H898.277C898.277 328.828 898.802 327.505 899.852 326.496C900.91 325.487 902.321 324.982 904.087 324.982C905.739 324.982 907.046 325.418 908.006 326.289C908.966 327.151 909.446 328.303 909.446 329.743C909.446 331.493 908.331 333.576 906.102 335.993L901.341 341.157H910.264V343ZM915.94 333.015H917.637C918.703 332.998 919.542 332.718 920.152 332.172C920.762 331.627 921.067 330.891 921.067 329.963C921.067 327.88 920.03 326.838 917.955 326.838C916.978 326.838 916.197 327.119 915.611 327.68C915.033 328.234 914.744 328.97 914.744 329.89H912.486C912.486 328.482 912.999 327.314 914.024 326.386C915.057 325.45 916.368 324.982 917.955 324.982C919.631 324.982 920.945 325.426 921.897 326.313C922.85 327.2 923.326 328.433 923.326 330.012C923.326 330.785 923.073 331.534 922.569 332.258C922.072 332.982 921.393 333.523 920.53 333.881C921.507 334.191 922.26 334.703 922.789 335.419C923.326 336.136 923.594 337.01 923.594 338.044C923.594 339.639 923.073 340.904 922.032 341.84C920.99 342.776 919.635 343.244 917.967 343.244C916.299 343.244 914.939 342.792 913.89 341.889C912.848 340.986 912.327 339.794 912.327 338.312H914.598C914.598 339.248 914.903 339.997 915.513 340.559C916.124 341.12 916.941 341.401 917.967 341.401C919.057 341.401 919.891 341.116 920.469 340.546C921.047 339.977 921.336 339.159 921.336 338.093C921.336 337.059 921.019 336.266 920.384 335.712C919.749 335.159 918.833 334.874 917.637 334.858H915.94V333.015ZM934.117 343H931.846V327.949L927.293 329.621V327.57L933.763 325.141H934.117V343ZM952.378 343H940.733V341.376L946.885 334.541C947.797 333.507 948.423 332.669 948.765 332.026C949.115 331.375 949.29 330.703 949.29 330.012C949.29 329.084 949.009 328.323 948.448 327.729C947.886 327.135 947.138 326.838 946.202 326.838C945.079 326.838 944.204 327.159 943.577 327.802C942.959 328.437 942.649 329.324 942.649 330.463H940.391C940.391 328.828 940.916 327.505 941.966 326.496C943.024 325.487 944.436 324.982 946.202 324.982C947.854 324.982 949.16 325.418 950.12 326.289C951.08 327.151 951.561 328.303 951.561 329.743C951.561 331.493 950.446 333.576 948.216 335.993L943.455 341.157H952.378V343ZM958.055 333.015H959.751C960.818 332.998 961.656 332.718 962.266 332.172C962.876 331.627 963.182 330.891 963.182 329.963C963.182 327.88 962.144 326.838 960.069 326.838C959.092 326.838 958.311 327.119 957.725 327.68C957.147 328.234 956.858 328.97 956.858 329.89H954.6C954.6 328.482 955.113 327.314 956.138 326.386C957.172 325.45 958.482 324.982 960.069 324.982C961.745 324.982 963.06 325.426 964.012 326.313C964.964 327.2 965.44 328.433 965.44 330.012C965.44 330.785 965.188 331.534 964.683 332.258C964.187 332.982 963.507 333.523 962.645 333.881C963.621 334.191 964.374 334.703 964.903 335.419C965.44 336.136 965.708 337.01 965.708 338.044C965.708 339.639 965.188 340.904 964.146 341.84C963.104 342.776 961.749 343.244 960.081 343.244C958.413 343.244 957.054 342.792 956.004 341.889C954.962 340.986 954.441 339.794 954.441 338.312H956.712C956.712 339.248 957.017 339.997 957.627 340.559C958.238 341.12 959.056 341.401 960.081 341.401C961.172 341.401 962.006 341.116 962.583 340.546C963.161 339.977 963.45 339.159 963.45 338.093C963.45 337.059 963.133 336.266 962.498 335.712C961.863 335.159 960.948 334.874 959.751 334.858H958.055V333.015Z" fill="black"/>
<path d="M683.19 408.244C681.4 408.244 679.943 407.658 678.82 406.486C677.697 405.306 677.135 403.732 677.135 401.762V401.347C677.135 400.037 677.383 398.869 677.88 397.844C678.384 396.81 679.084 396.005 679.979 395.427C680.883 394.841 681.859 394.548 682.909 394.548C684.626 394.548 685.961 395.113 686.913 396.245C687.865 397.376 688.341 398.995 688.341 401.103V402.043H679.394C679.426 403.345 679.805 404.399 680.529 405.205C681.261 406.002 682.189 406.401 683.312 406.401C684.11 406.401 684.785 406.238 685.338 405.913C685.892 405.587 686.376 405.156 686.791 404.619L688.17 405.693C687.064 407.394 685.403 408.244 683.19 408.244ZM682.909 396.403C681.998 396.403 681.233 396.737 680.614 397.404C679.996 398.063 679.613 398.991 679.467 400.188H686.083V400.017C686.018 398.869 685.709 397.982 685.155 397.355C684.602 396.721 683.853 396.403 682.909 396.403ZM693.09 394.792L693.151 396.257C694.119 395.118 695.425 394.548 697.069 394.548C698.917 394.548 700.174 395.256 700.841 396.672C701.281 396.037 701.85 395.524 702.55 395.134C703.258 394.743 704.092 394.548 705.053 394.548C707.95 394.548 709.423 396.082 709.472 399.15V408H707.213V399.284C707.213 398.34 706.998 397.636 706.566 397.172C706.135 396.7 705.411 396.464 704.394 396.464C703.555 396.464 702.86 396.717 702.306 397.221C701.753 397.718 701.431 398.389 701.342 399.235V408H699.071V399.345C699.071 397.425 698.131 396.464 696.251 396.464C694.77 396.464 693.757 397.095 693.212 398.356V408H690.954V394.792H693.09ZM721.044 408C720.914 407.74 720.808 407.276 720.727 406.608C719.677 407.699 718.424 408.244 716.967 408.244C715.665 408.244 714.595 407.878 713.756 407.146C712.926 406.405 712.511 405.469 712.511 404.338C712.511 402.963 713.032 401.896 714.074 401.14C715.124 400.375 716.597 399.992 718.493 399.992H720.69V398.955C720.69 398.165 720.454 397.539 719.982 397.075C719.51 396.603 718.814 396.367 717.895 396.367C717.089 396.367 716.413 396.57 715.868 396.977C715.323 397.384 715.05 397.876 715.05 398.454H712.78C712.78 397.795 713.012 397.16 713.476 396.55C713.948 395.931 714.582 395.443 715.38 395.085C716.186 394.727 717.069 394.548 718.029 394.548C719.551 394.548 720.743 394.93 721.605 395.695C722.468 396.452 722.916 397.498 722.948 398.833V404.912C722.948 406.124 723.103 407.089 723.412 407.805V408H721.044ZM717.296 406.279C718.004 406.279 718.676 406.096 719.311 405.729C719.945 405.363 720.405 404.887 720.69 404.301V401.591H718.92C716.153 401.591 714.77 402.401 714.77 404.021C714.77 404.729 715.006 405.282 715.478 405.681C715.95 406.079 716.556 406.279 717.296 406.279ZM728.942 408H726.684V394.792H728.942V408ZM726.5 391.289C726.5 390.922 726.61 390.613 726.83 390.361C727.058 390.109 727.392 389.982 727.831 389.982C728.271 389.982 728.604 390.109 728.832 390.361C729.06 390.613 729.174 390.922 729.174 391.289C729.174 391.655 729.06 391.96 728.832 392.204C728.604 392.448 728.271 392.57 727.831 392.57C727.392 392.57 727.058 392.448 726.83 392.204C726.61 391.96 726.5 391.655 726.5 391.289ZM735.021 408H732.763V389.25H735.021V408ZM758.153 401.872C758.056 403.841 757.567 405.396 756.688 406.535C755.81 407.674 754.634 408.244 753.161 408.244C751.639 408.244 750.662 407.561 750.231 406.193C749.792 406.885 749.287 407.402 748.717 407.744C748.156 408.077 747.574 408.244 746.972 408.244C745.816 408.244 744.941 407.772 744.347 406.828C743.753 405.884 743.533 404.578 743.688 402.91C743.81 401.567 744.115 400.371 744.604 399.321C745.1 398.263 745.735 397.433 746.508 396.831C747.289 396.228 748.107 395.927 748.961 395.927C749.621 395.927 750.211 396.017 750.731 396.196C751.252 396.367 751.838 396.708 752.489 397.221L751.854 403.984C751.7 405.864 752.221 406.804 753.417 406.804C754.337 406.804 755.081 406.348 755.651 405.437C756.221 404.525 756.53 403.337 756.579 401.872C756.733 398.706 756.143 396.293 754.809 394.633C753.482 392.973 751.46 392.143 748.742 392.143C747.106 392.143 745.653 392.55 744.384 393.364C743.114 394.169 742.113 395.337 741.381 396.867C740.648 398.397 740.237 400.163 740.148 402.165C740.05 404.183 740.294 405.937 740.88 407.426C741.466 408.907 742.357 410.039 743.554 410.82C744.758 411.609 746.211 412.004 747.912 412.004C748.644 412.004 749.376 411.914 750.109 411.735C750.849 411.556 751.464 411.324 751.952 411.04L752.404 412.443C751.899 412.761 751.228 413.021 750.39 413.225C749.56 413.428 748.717 413.53 747.863 413.53C745.828 413.53 744.079 413.07 742.614 412.15C741.149 411.239 740.05 409.921 739.318 408.195C738.594 406.478 738.28 404.468 738.378 402.165C738.476 399.927 738.976 397.917 739.879 396.135C740.783 394.344 742.007 392.965 743.554 391.997C745.1 391.02 746.846 390.532 748.791 390.532C750.817 390.532 752.554 390.987 754.003 391.899C755.451 392.81 756.53 394.125 757.238 395.842C757.946 397.559 758.251 399.569 758.153 401.872ZM745.629 402.91C745.515 404.065 745.621 404.952 745.946 405.571C746.28 406.189 746.805 406.499 747.521 406.499C748.009 406.499 748.477 406.291 748.925 405.876C749.381 405.461 749.755 404.867 750.048 404.094L750.06 403.984L750.622 397.844C750.166 397.608 749.678 397.49 749.157 397.49C748.205 397.49 747.415 397.974 746.789 398.942C746.17 399.911 745.784 401.233 745.629 402.91ZM760.57 401.286C760.57 399.227 761.046 397.591 761.999 396.379C762.951 395.158 764.212 394.548 765.783 394.548C767.394 394.548 768.651 395.118 769.555 396.257L769.665 394.792H771.728V407.683C771.728 409.392 771.219 410.738 770.202 411.723C769.193 412.708 767.833 413.2 766.125 413.2C765.172 413.2 764.241 412.997 763.329 412.59C762.418 412.183 761.722 411.625 761.242 410.917L762.414 409.562C763.382 410.759 764.566 411.357 765.966 411.357C767.064 411.357 767.919 411.048 768.529 410.429C769.148 409.811 769.457 408.94 769.457 407.817V406.682C768.554 407.723 767.321 408.244 765.758 408.244C764.212 408.244 762.959 407.622 761.999 406.376C761.046 405.131 760.57 403.435 760.57 401.286ZM762.841 401.542C762.841 403.032 763.146 404.204 763.756 405.058C764.367 405.904 765.221 406.328 766.32 406.328C767.744 406.328 768.79 405.681 769.457 404.387V398.356C768.765 397.095 767.728 396.464 766.344 396.464C765.246 396.464 764.387 396.892 763.769 397.746C763.15 398.601 762.841 399.866 762.841 401.542ZM777.27 394.792L777.331 396.257C778.299 395.118 779.605 394.548 781.249 394.548C783.096 394.548 784.354 395.256 785.021 396.672C785.46 396.037 786.03 395.524 786.73 395.134C787.438 394.743 788.272 394.548 789.232 394.548C792.13 394.548 793.603 396.082 793.651 399.15V408H791.393V399.284C791.393 398.34 791.177 397.636 790.746 397.172C790.315 396.7 789.59 396.464 788.573 396.464C787.735 396.464 787.039 396.717 786.486 397.221C785.932 397.718 785.611 398.389 785.521 399.235V408H783.251V399.345C783.251 397.425 782.311 396.464 780.431 396.464C778.95 396.464 777.937 397.095 777.392 398.356V408H775.133V394.792H777.27ZM805.224 408C805.093 407.74 804.988 407.276 804.906 406.608C803.856 407.699 802.603 408.244 801.146 408.244C799.844 408.244 798.774 407.878 797.936 407.146C797.106 406.405 796.691 405.469 796.691 404.338C796.691 402.963 797.212 401.896 798.253 401.14C799.303 400.375 800.776 399.992 802.672 399.992H804.87V398.955C804.87 398.165 804.634 397.539 804.162 397.075C803.69 396.603 802.994 396.367 802.074 396.367C801.269 396.367 800.593 396.57 800.048 396.977C799.503 397.384 799.23 397.876 799.23 398.454H796.959C796.959 397.795 797.191 397.16 797.655 396.55C798.127 395.931 798.762 395.443 799.56 395.085C800.365 394.727 801.248 394.548 802.208 394.548C803.73 394.548 804.923 394.93 805.785 395.695C806.648 396.452 807.095 397.498 807.128 398.833V404.912C807.128 406.124 807.283 407.089 807.592 407.805V408H805.224ZM801.476 406.279C802.184 406.279 802.855 406.096 803.49 405.729C804.125 405.363 804.585 404.887 804.87 404.301V401.591H803.1C800.333 401.591 798.949 402.401 798.949 404.021C798.949 404.729 799.185 405.282 799.657 405.681C800.129 406.079 800.736 406.279 801.476 406.279ZM813.122 408H810.863V394.792H813.122V408ZM810.68 391.289C810.68 390.922 810.79 390.613 811.01 390.361C811.238 390.109 811.571 389.982 812.011 389.982C812.45 389.982 812.784 390.109 813.012 390.361C813.24 390.613 813.354 390.922 813.354 391.289C813.354 391.655 813.24 391.96 813.012 392.204C812.784 392.448 812.45 392.57 812.011 392.57C811.571 392.57 811.238 392.448 811.01 392.204C810.79 391.96 810.68 391.655 810.68 391.289ZM819.201 408H816.942V389.25H819.201V408ZM822.875 406.816C822.875 406.425 822.989 406.1 823.217 405.839C823.453 405.579 823.803 405.449 824.267 405.449C824.73 405.449 825.08 405.579 825.316 405.839C825.561 406.1 825.683 406.425 825.683 406.816C825.683 407.19 825.561 407.504 825.316 407.756C825.08 408.008 824.73 408.134 824.267 408.134C823.803 408.134 823.453 408.008 823.217 407.756C822.989 407.504 822.875 407.19 822.875 406.816ZM834.716 406.401C835.521 406.401 836.225 406.157 836.828 405.668C837.43 405.18 837.764 404.57 837.829 403.837H839.965C839.924 404.594 839.664 405.314 839.184 405.998C838.703 406.682 838.061 407.227 837.255 407.634C836.457 408.041 835.611 408.244 834.716 408.244C832.917 408.244 831.485 407.646 830.419 406.45C829.361 405.245 828.832 403.601 828.832 401.518V401.14C828.832 399.854 829.068 398.71 829.54 397.709C830.012 396.708 830.688 395.931 831.566 395.378C832.453 394.825 833.499 394.548 834.704 394.548C836.185 394.548 837.414 394.991 838.39 395.878C839.375 396.765 839.9 397.917 839.965 399.333H837.829C837.764 398.479 837.438 397.779 836.852 397.233C836.274 396.68 835.558 396.403 834.704 396.403C833.556 396.403 832.665 396.818 832.03 397.648C831.404 398.47 831.09 399.663 831.09 401.225V401.652C831.09 403.174 831.404 404.346 832.03 405.168C832.657 405.99 833.552 406.401 834.716 406.401ZM841.906 401.274C841.906 399.98 842.158 398.816 842.663 397.783C843.175 396.749 843.883 395.952 844.787 395.39C845.698 394.829 846.736 394.548 847.899 394.548C849.698 394.548 851.151 395.17 852.257 396.416C853.372 397.661 853.93 399.317 853.93 401.384V401.542C853.93 402.828 853.681 403.984 853.185 405.009C852.697 406.027 851.993 406.82 851.073 407.39C850.162 407.959 849.112 408.244 847.924 408.244C846.133 408.244 844.681 407.622 843.566 406.376C842.459 405.131 841.906 403.483 841.906 401.433V401.274ZM844.176 401.542C844.176 403.007 844.514 404.183 845.189 405.07C845.873 405.957 846.785 406.401 847.924 406.401C849.071 406.401 849.983 405.953 850.658 405.058C851.334 404.155 851.671 402.893 851.671 401.274C851.671 399.825 851.326 398.653 850.634 397.758C849.95 396.855 849.039 396.403 847.899 396.403C846.785 396.403 845.885 396.847 845.202 397.734C844.518 398.621 844.176 399.89 844.176 401.542ZM858.886 394.792L858.947 396.257C859.915 395.118 861.221 394.548 862.865 394.548C864.713 394.548 865.97 395.256 866.637 396.672C867.077 396.037 867.646 395.524 868.346 395.134C869.054 394.743 869.888 394.548 870.849 394.548C873.746 394.548 875.219 396.082 875.268 399.15V408H873.009V399.284C873.009 398.34 872.794 397.636 872.362 397.172C871.931 396.7 871.207 396.464 870.189 396.464C869.351 396.464 868.655 396.717 868.102 397.221C867.549 397.718 867.227 398.389 867.138 399.235V408H864.867V399.345C864.867 397.425 863.927 396.464 862.047 396.464C860.566 396.464 859.553 397.095 859.008 398.356V408H856.75V394.792H858.886ZM689.403 433.887L691.942 423.792H694.201L690.355 437H688.524L685.314 426.99L682.189 437H680.358L676.525 423.792H678.771L681.371 433.68L684.447 423.792H686.266L689.403 433.887ZM708.202 433.887L710.741 423.792H713L709.154 437H707.323L704.113 426.99L700.988 437H699.157L695.324 423.792H697.57L700.17 433.68L703.246 423.792H705.065L708.202 433.887ZM727.001 433.887L729.54 423.792H731.798L727.953 437H726.122L722.912 426.99L719.787 437H717.956L714.123 423.792H716.369L718.969 433.68L722.045 423.792H723.864L727.001 433.887ZM732.641 435.816C732.641 435.425 732.755 435.1 732.982 434.839C733.218 434.579 733.568 434.449 734.032 434.449C734.496 434.449 734.846 434.579 735.082 434.839C735.326 435.1 735.448 435.425 735.448 435.816C735.448 436.19 735.326 436.504 735.082 436.756C734.846 437.008 734.496 437.134 734.032 437.134C733.568 437.134 733.218 437.008 732.982 436.756C732.755 436.504 732.641 436.19 732.641 435.816ZM750.878 433.887L753.417 423.792H755.675L751.83 437H749.999L746.789 426.99L743.664 437H741.833L738 423.792H740.246L742.846 433.68L745.922 423.792H747.741L750.878 433.887ZM763.463 437.244C761.673 437.244 760.216 436.658 759.093 435.486C757.97 434.306 757.409 432.732 757.409 430.762V430.347C757.409 429.037 757.657 427.869 758.153 426.844C758.658 425.81 759.358 425.005 760.253 424.427C761.156 423.841 762.133 423.548 763.183 423.548C764.9 423.548 766.234 424.113 767.187 425.245C768.139 426.376 768.615 427.995 768.615 430.103V431.043H759.667C759.7 432.345 760.078 433.399 760.802 434.205C761.535 435.002 762.462 435.401 763.585 435.401C764.383 435.401 765.058 435.238 765.612 434.913C766.165 434.587 766.649 434.156 767.064 433.619L768.444 434.693C767.337 436.394 765.677 437.244 763.463 437.244ZM763.183 425.403C762.271 425.403 761.506 425.737 760.888 426.404C760.269 427.063 759.887 427.991 759.74 429.188H766.356V429.017C766.291 427.869 765.982 426.982 765.429 426.355C764.875 425.721 764.127 425.403 763.183 425.403ZM782.421 430.542C782.421 432.561 781.957 434.184 781.029 435.413C780.102 436.634 778.856 437.244 777.294 437.244C775.626 437.244 774.336 436.654 773.424 435.474L773.314 437H771.239V418.25H773.498V425.245C774.409 424.113 775.666 423.548 777.27 423.548C778.873 423.548 780.13 424.154 781.042 425.367C781.961 426.579 782.421 428.239 782.421 430.347V430.542ZM780.163 430.286C780.163 428.748 779.866 427.56 779.271 426.722C778.677 425.883 777.823 425.464 776.708 425.464C775.219 425.464 774.149 426.156 773.498 427.54V433.252C774.189 434.636 775.268 435.328 776.732 435.328C777.815 435.328 778.657 434.909 779.259 434.07C779.861 433.232 780.163 431.971 780.163 430.286ZM792.968 433.497C792.968 432.886 792.736 432.414 792.272 432.081C791.816 431.739 791.015 431.446 789.867 431.202C788.728 430.958 787.82 430.665 787.145 430.323C786.478 429.981 785.981 429.574 785.656 429.102C785.338 428.63 785.18 428.069 785.18 427.417C785.18 426.335 785.635 425.42 786.547 424.671C787.466 423.922 788.638 423.548 790.062 423.548C791.56 423.548 792.772 423.934 793.7 424.708C794.636 425.481 795.104 426.469 795.104 427.674H792.833C792.833 427.055 792.569 426.522 792.04 426.075C791.519 425.627 790.86 425.403 790.062 425.403C789.241 425.403 788.598 425.582 788.134 425.94C787.67 426.299 787.438 426.766 787.438 427.344C787.438 427.889 787.654 428.3 788.085 428.577C788.516 428.854 789.293 429.118 790.417 429.371C791.548 429.623 792.463 429.924 793.163 430.274C793.863 430.624 794.38 431.047 794.713 431.543C795.055 432.032 795.226 432.63 795.226 433.338C795.226 434.518 794.754 435.466 793.81 436.182C792.866 436.89 791.641 437.244 790.136 437.244C789.078 437.244 788.142 437.057 787.328 436.683C786.514 436.308 785.875 435.787 785.412 435.12C784.956 434.445 784.728 433.716 784.728 432.935H786.986C787.027 433.692 787.328 434.294 787.89 434.742C788.459 435.181 789.208 435.401 790.136 435.401C790.99 435.401 791.674 435.23 792.187 434.888C792.707 434.538 792.968 434.074 792.968 433.497ZM800.622 437H798.363V423.792H800.622V437ZM798.18 420.289C798.18 419.922 798.29 419.613 798.51 419.361C798.738 419.109 799.071 418.982 799.511 418.982C799.95 418.982 800.284 419.109 800.512 419.361C800.74 419.613 800.854 419.922 800.854 420.289C800.854 420.655 800.74 420.96 800.512 421.204C800.284 421.448 799.95 421.57 799.511 421.57C799.071 421.57 798.738 421.448 798.51 421.204C798.29 420.96 798.18 420.655 798.18 420.289ZM807.311 420.594V423.792H809.777V425.538H807.311V433.729C807.311 434.257 807.421 434.656 807.641 434.925C807.86 435.185 808.235 435.315 808.764 435.315C809.024 435.315 809.382 435.267 809.838 435.169V437C809.244 437.163 808.666 437.244 808.104 437.244C807.095 437.244 806.334 436.939 805.822 436.329C805.309 435.718 805.053 434.852 805.053 433.729V425.538H802.648V423.792H805.053V420.594H807.311ZM817.907 437.244C816.116 437.244 814.66 436.658 813.537 435.486C812.414 434.306 811.852 432.732 811.852 430.762V430.347C811.852 429.037 812.1 427.869 812.597 426.844C813.101 425.81 813.801 425.005 814.696 424.427C815.6 423.841 816.576 423.548 817.626 423.548C819.343 423.548 820.678 424.113 821.63 425.245C822.582 426.376 823.058 427.995 823.058 430.103V431.043H814.11C814.143 432.345 814.521 433.399 815.246 434.205C815.978 435.002 816.906 435.401 818.029 435.401C818.826 435.401 819.502 435.238 820.055 434.913C820.609 434.587 821.093 434.156 821.508 433.619L822.887 434.693C821.78 436.394 820.12 437.244 817.907 437.244ZM817.626 425.403C816.715 425.403 815.95 425.737 815.331 426.404C814.713 427.063 814.33 427.991 814.184 429.188H820.8V429.017C820.735 427.869 820.425 426.982 819.872 426.355C819.319 425.721 818.57 425.403 817.626 425.403ZM825.731 435.816C825.731 435.425 825.845 435.1 826.073 434.839C826.309 434.579 826.659 434.449 827.123 434.449C827.587 434.449 827.937 434.579 828.173 434.839C828.417 435.1 828.539 435.425 828.539 435.816C828.539 436.19 828.417 436.504 828.173 436.756C827.937 437.008 827.587 437.134 827.123 437.134C826.659 437.134 826.309 437.008 826.073 436.756C825.845 436.504 825.731 436.19 825.731 435.816ZM837.572 435.401C838.378 435.401 839.082 435.157 839.684 434.668C840.286 434.18 840.62 433.57 840.685 432.837H842.821C842.781 433.594 842.52 434.314 842.04 434.998C841.56 435.682 840.917 436.227 840.111 436.634C839.314 437.041 838.467 437.244 837.572 437.244C835.774 437.244 834.341 436.646 833.275 435.45C832.217 434.245 831.688 432.601 831.688 430.518V430.14C831.688 428.854 831.924 427.71 832.396 426.709C832.868 425.708 833.544 424.931 834.423 424.378C835.31 423.825 836.356 423.548 837.56 423.548C839.041 423.548 840.27 423.991 841.247 424.878C842.231 425.765 842.756 426.917 842.821 428.333H840.685C840.62 427.479 840.294 426.779 839.708 426.233C839.131 425.68 838.415 425.403 837.56 425.403C836.413 425.403 835.521 425.818 834.887 426.648C834.26 427.47 833.947 428.663 833.947 430.225V430.652C833.947 432.174 834.26 433.346 834.887 434.168C835.513 434.99 836.409 435.401 837.572 435.401ZM844.762 430.274C844.762 428.98 845.014 427.816 845.519 426.783C846.032 425.749 846.74 424.952 847.643 424.39C848.555 423.829 849.592 423.548 850.756 423.548C852.554 423.548 854.007 424.17 855.114 425.416C856.229 426.661 856.786 428.317 856.786 430.384V430.542C856.786 431.828 856.538 432.984 856.042 434.009C855.553 435.027 854.849 435.82 853.93 436.39C853.018 436.959 851.968 437.244 850.78 437.244C848.99 437.244 847.537 436.622 846.422 435.376C845.316 434.131 844.762 432.483 844.762 430.433V430.274ZM847.033 430.542C847.033 432.007 847.37 433.183 848.046 434.07C848.729 434.957 849.641 435.401 850.78 435.401C851.928 435.401 852.839 434.953 853.515 434.058C854.19 433.155 854.528 431.893 854.528 430.274C854.528 428.825 854.182 427.653 853.49 426.758C852.807 425.855 851.895 425.403 850.756 425.403C849.641 425.403 848.742 425.847 848.058 426.734C847.375 427.621 847.033 428.89 847.033 430.542ZM861.742 423.792L861.803 425.257C862.772 424.118 864.078 423.548 865.722 423.548C867.569 423.548 868.826 424.256 869.494 425.672C869.933 425.037 870.503 424.524 871.203 424.134C871.911 423.743 872.745 423.548 873.705 423.548C876.602 423.548 878.075 425.082 878.124 428.15V437H875.866V428.284C875.866 427.34 875.65 426.636 875.219 426.172C874.787 425.7 874.063 425.464 873.046 425.464C872.208 425.464 871.512 425.717 870.958 426.221C870.405 426.718 870.084 427.389 869.994 428.235V437H867.724V428.345C867.724 426.425 866.784 425.464 864.904 425.464C863.423 425.464 862.41 426.095 861.864 427.356V437H859.606V423.792H861.742Z" fill="black"/>
<path d="M688.416 151.469C688.143 152.94 687.475 154.105 686.414 154.965C685.359 155.824 684.093 156.234 682.615 156.195C681.736 156.176 680.968 155.961 680.311 155.551C679.653 155.134 679.142 154.538 678.777 153.764C678.413 152.982 678.211 152.12 678.172 151.176C678.146 150.642 678.169 150.121 678.24 149.613L678.406 148.441C678.712 146.306 679.461 144.623 680.652 143.393C681.85 142.156 683.305 141.553 685.018 141.586C686.352 141.612 687.41 142.045 688.191 142.885C688.973 143.718 689.386 144.877 689.432 146.361H687.605C687.521 144.369 686.74 143.295 685.262 143.139L684.939 143.119C683.709 143.087 682.68 143.546 681.854 144.496C681.033 145.44 680.503 146.732 680.262 148.373L680.047 149.848L679.988 150.707C679.949 151.905 680.161 152.859 680.623 153.568C681.092 154.271 681.785 154.636 682.703 154.662C683.693 154.695 684.51 154.457 685.154 153.949C685.805 153.441 686.3 152.624 686.639 151.498L688.416 151.469ZM696.609 147.045L695.779 146.957C694.646 146.957 693.755 147.468 693.104 148.49L691.805 156H690.037L691.873 145.434L693.582 145.424L693.318 146.654C694.067 145.671 694.949 145.193 695.965 145.219C696.18 145.219 696.46 145.268 696.805 145.365L696.609 147.045ZM701.072 156.195C699.757 156.169 698.729 155.684 697.986 154.74C697.244 153.796 696.932 152.589 697.049 151.117L697.098 150.697C697.208 149.649 697.518 148.692 698.025 147.826C698.54 146.96 699.165 146.309 699.9 145.873C700.636 145.43 701.43 145.219 702.283 145.238C703.37 145.264 704.223 145.626 704.842 146.322C705.46 147.019 705.799 147.963 705.857 149.154C705.877 149.577 705.864 150.001 705.818 150.424L705.711 151.234H698.807C698.689 152.191 698.846 153.005 699.275 153.676C699.712 154.346 700.359 154.695 701.219 154.721C702.26 154.747 703.224 154.278 704.109 153.314L705.125 154.174C704.682 154.812 704.109 155.313 703.406 155.678C702.71 156.036 701.932 156.208 701.072 156.195ZM702.195 146.713C701.466 146.693 700.828 146.941 700.281 147.455C699.741 147.969 699.311 148.734 698.992 149.75L704.129 149.76L704.168 149.604C704.272 148.783 704.139 148.103 703.768 147.562C703.403 147.016 702.879 146.732 702.195 146.713ZM713.338 156C713.292 155.811 713.27 155.626 713.27 155.443L713.299 154.887C712.329 155.785 711.3 156.221 710.213 156.195C709.282 156.182 708.523 155.889 707.938 155.316C707.358 154.737 707.094 154.014 707.146 153.148C707.212 152.029 707.7 151.156 708.611 150.531C709.529 149.9 710.734 149.584 712.225 149.584L714.07 149.594L714.188 148.754C714.253 148.122 714.129 147.624 713.816 147.26C713.51 146.889 713.048 146.697 712.43 146.684C711.824 146.671 711.287 146.82 710.818 147.133C710.356 147.439 710.073 147.846 709.969 148.354L708.191 148.363C708.25 147.745 708.491 147.198 708.914 146.723C709.337 146.241 709.881 145.87 710.545 145.609C711.209 145.342 711.896 145.215 712.605 145.229C713.706 145.255 714.562 145.59 715.174 146.234C715.786 146.872 716.043 147.722 715.945 148.783L715.086 154.018L715.037 154.77C715.024 155.128 715.063 155.482 715.154 155.834L715.135 156H713.338ZM710.564 154.633C711.131 154.646 711.665 154.512 712.166 154.232C712.674 153.946 713.11 153.552 713.475 153.051L713.855 150.873L712.518 150.863C711.404 150.863 710.551 151.039 709.959 151.391C709.367 151.742 709.031 152.24 708.953 152.885C708.895 153.38 709.008 153.793 709.295 154.125C709.588 154.451 710.011 154.62 710.564 154.633ZM722.205 142.875L721.756 145.434H723.68L723.436 146.83H721.521L720.418 153.402C720.398 153.572 720.395 153.728 720.408 153.871C720.454 154.379 720.73 154.633 721.238 154.633C721.453 154.633 721.74 154.6 722.098 154.535L721.961 156.01C721.538 156.127 721.108 156.186 720.672 156.186C719.969 156.173 719.441 155.915 719.09 155.414C718.738 154.906 718.602 154.226 718.68 153.373L719.754 146.83H717.889L718.133 145.434H719.998L720.447 142.875H722.205ZM725.896 156H724.139L725.975 145.434H727.732L725.896 156ZM727.352 141.576C727.651 141.563 727.898 141.654 728.094 141.85C728.296 142.038 728.396 142.289 728.396 142.602C728.39 142.908 728.289 143.158 728.094 143.354C727.905 143.549 727.658 143.653 727.352 143.666C727.046 143.679 726.795 143.591 726.6 143.402C726.404 143.214 726.31 142.966 726.316 142.66C726.323 142.354 726.421 142.1 726.609 141.898C726.798 141.697 727.046 141.589 727.352 141.576ZM732.625 153.529L736.434 145.434H738.299L732.977 156H731.629L729.559 145.434H731.297L732.625 153.529ZM742.713 156.195C741.398 156.169 740.369 155.684 739.627 154.74C738.885 153.796 738.572 152.589 738.689 151.117L738.738 150.697C738.849 149.649 739.158 148.692 739.666 147.826C740.18 146.96 740.805 146.309 741.541 145.873C742.277 145.43 743.071 145.219 743.924 145.238C745.011 145.264 745.864 145.626 746.482 146.322C747.101 147.019 747.439 147.963 747.498 149.154C747.518 149.577 747.505 150.001 747.459 150.424L747.352 151.234H740.447C740.33 152.191 740.486 153.005 740.916 153.676C741.352 154.346 742 154.695 742.859 154.721C743.901 154.747 744.865 154.278 745.75 153.314L746.766 154.174C746.323 154.812 745.75 155.313 745.047 155.678C744.35 156.036 743.572 156.208 742.713 156.195ZM743.836 146.713C743.107 146.693 742.469 146.941 741.922 147.455C741.382 147.969 740.952 148.734 740.633 149.75L745.77 149.76L745.809 149.604C745.913 148.783 745.779 148.103 745.408 147.562C745.044 147.016 744.52 146.732 743.836 146.713ZM753.689 156L756.16 141.781L759.852 141.791C761.01 141.791 762.007 142.081 762.84 142.66C763.68 143.24 764.282 144.04 764.646 145.062C765.011 146.078 765.118 147.217 764.969 148.48L764.871 149.193C764.585 151.264 763.781 152.917 762.459 154.154C761.137 155.385 759.477 156 757.479 156H753.689ZM757.723 143.324L755.789 154.467L757.596 154.477C758.976 154.477 760.145 154.047 761.102 153.188C762.065 152.328 762.69 151.15 762.977 149.652C763.204 148.454 763.283 147.436 763.211 146.596C763.113 145.587 762.778 144.799 762.205 144.232C761.632 143.66 760.864 143.36 759.9 143.334L757.723 143.324ZM768.162 156H766.404L768.24 145.434H769.998L768.162 156ZM769.617 141.576C769.917 141.563 770.164 141.654 770.359 141.85C770.561 142.038 770.662 142.289 770.662 142.602C770.656 142.908 770.555 143.158 770.359 143.354C770.171 143.549 769.923 143.653 769.617 143.666C769.311 143.679 769.061 143.591 768.865 143.402C768.67 143.214 768.576 142.966 768.582 142.66C768.589 142.354 768.686 142.1 768.875 141.898C769.064 141.697 769.311 141.589 769.617 141.576ZM777.625 147.045L776.795 146.957C775.662 146.957 774.77 147.468 774.119 148.49L772.82 156H771.053L772.889 145.434L774.598 145.424L774.334 146.654C775.083 145.671 775.965 145.193 776.98 145.219C777.195 145.219 777.475 145.268 777.82 145.365L777.625 147.045ZM782.088 156.195C780.773 156.169 779.744 155.684 779.002 154.74C778.26 153.796 777.947 152.589 778.064 151.117L778.113 150.697C778.224 149.649 778.533 148.692 779.041 147.826C779.555 146.96 780.18 146.309 780.916 145.873C781.652 145.43 782.446 145.219 783.299 145.238C784.386 145.264 785.239 145.626 785.857 146.322C786.476 147.019 786.814 147.963 786.873 149.154C786.893 149.577 786.88 150.001 786.834 150.424L786.727 151.234H779.822C779.705 152.191 779.861 153.005 780.291 153.676C780.727 154.346 781.375 154.695 782.234 154.721C783.276 154.747 784.24 154.278 785.125 153.314L786.141 154.174C785.698 154.812 785.125 155.313 784.422 155.678C783.725 156.036 782.947 156.208 782.088 156.195ZM783.211 146.713C782.482 146.693 781.844 146.941 781.297 147.455C780.757 147.969 780.327 148.734 780.008 149.75L785.145 149.76L785.184 149.604C785.288 148.783 785.154 148.103 784.783 147.562C784.419 147.016 783.895 146.732 783.211 146.713ZM792.352 154.73C792.983 154.743 793.553 154.561 794.061 154.184C794.568 153.799 794.9 153.298 795.057 152.68L796.727 152.67C796.629 153.334 796.362 153.939 795.926 154.486C795.496 155.033 794.952 155.46 794.295 155.766C793.637 156.072 792.964 156.215 792.273 156.195C791.395 156.182 790.649 155.954 790.037 155.512C789.432 155.062 788.986 154.441 788.699 153.646C788.413 152.846 788.315 151.947 788.406 150.951L788.455 150.463C788.579 149.447 788.875 148.539 789.344 147.738C789.812 146.938 790.424 146.316 791.18 145.873C791.935 145.424 792.768 145.212 793.68 145.238C794.786 145.264 795.672 145.635 796.336 146.352C797 147.068 797.332 147.976 797.332 149.076L795.682 149.066C795.669 148.376 795.477 147.82 795.105 147.396C794.734 146.967 794.233 146.739 793.602 146.713C792.684 146.693 791.919 147.035 791.307 147.738C790.701 148.441 790.324 149.424 790.174 150.688L790.145 150.941C790.105 151.358 790.099 151.788 790.125 152.23C790.171 152.992 790.385 153.594 790.77 154.037C791.154 154.48 791.681 154.711 792.352 154.73ZM802.811 142.875L802.361 145.434H804.285L804.041 146.83H802.127L801.023 153.402C801.004 153.572 801.001 153.728 801.014 153.871C801.059 154.379 801.336 154.633 801.844 154.633C802.059 154.633 802.345 154.6 802.703 154.535L802.566 156.01C802.143 156.127 801.714 156.186 801.277 156.186C800.574 156.173 800.047 155.915 799.695 155.414C799.344 154.906 799.207 154.226 799.285 153.373L800.359 146.83H798.494L798.738 145.434H800.604L801.053 142.875H802.811ZM810.262 145.238C811.147 145.251 811.906 145.492 812.537 145.961C813.169 146.43 813.634 147.077 813.934 147.904C814.24 148.725 814.344 149.623 814.246 150.6L814.227 150.814C814.103 151.843 813.797 152.774 813.309 153.607C812.82 154.434 812.189 155.079 811.414 155.541C810.639 156.003 809.79 156.221 808.865 156.195C807.986 156.182 807.228 155.941 806.59 155.473C805.958 155.004 805.496 154.366 805.203 153.559C804.91 152.751 804.806 151.863 804.891 150.893C804.988 149.799 805.285 148.816 805.779 147.943C806.274 147.071 806.909 146.397 807.684 145.922C808.465 145.44 809.324 145.212 810.262 145.238ZM806.668 150.902C806.622 151.312 806.622 151.739 806.668 152.182C806.733 152.95 806.961 153.562 807.352 154.018C807.749 154.473 808.276 154.711 808.934 154.73C809.52 154.75 810.06 154.607 810.555 154.301C811.049 153.988 811.466 153.52 811.805 152.895C812.143 152.27 812.361 151.576 812.459 150.814C812.511 150.215 812.521 149.711 812.488 149.301C812.41 148.513 812.173 147.891 811.775 147.436C811.378 146.98 810.851 146.739 810.193 146.713C809.282 146.693 808.507 147.051 807.869 147.787C807.231 148.523 806.837 149.486 806.688 150.678L806.668 150.902ZM822.137 147.045L821.307 146.957C820.174 146.957 819.282 147.468 818.631 148.49L817.332 156H815.564L817.4 145.434L819.109 145.424L818.846 146.654C819.594 145.671 820.477 145.193 821.492 145.219C821.707 145.219 821.987 145.268 822.332 145.365L822.137 147.045Z" fill="black"/>
</svg>
