<svg width="1050" height="600" viewBox="0 0 1050 600" fill="none" xmlns="http://www.w3.org/2000/svg">
<g clip-path="url(#clip0)">
<rect width="1050" height="600" fill="#F0F7FF"/>
<rect y="456" width="1050" height="144" fill="#337CA9"/>
<g filter="url(#filter0_d)">
<rect y="346" width="1050" height="144" fill="#E1EEFD"/>
</g>
<path d="M1333.37 599.998V322.404C1333.37 321.708 1333.5 321.018 1333.77 320.375C1334.04 319.732 1334.43 319.147 1334.92 318.655C1335.41 318.163 1335.99 317.772 1336.63 317.505C1337.28 317.239 1337.96 317.102 1338.66 317.102H1408V580.372C1408 591.167 1399.18 599.998 1388.41 599.998H1333.37ZM693.379 221.908H606V580.372C606 591.167 614.816 599.998 625.591 599.998H698.672V227.21C698.673 226.514 698.536 225.824 698.27 225.181C698.004 224.537 697.614 223.953 697.123 223.46C696.631 222.968 696.047 222.577 695.405 222.311C694.763 222.045 694.075 221.908 693.379 221.908ZM1293.74 113H1068.65C1066.84 113 1065.1 113.72 1063.82 115C1062.55 116.281 1061.83 118.019 1061.83 119.83V600H1300.56V119.83C1300.56 118.933 1300.38 118.045 1300.04 117.216C1299.7 116.388 1299.2 115.635 1298.56 115.001C1297.93 114.366 1297.18 113.863 1296.35 113.52C1295.53 113.177 1294.64 113 1293.74 113ZM971.057 289.697H827.631C826.479 289.697 825.374 290.156 824.559 290.972C823.745 291.788 823.287 292.895 823.287 294.049V600H975.4V294.048C975.4 292.894 974.942 291.787 974.128 290.971C973.313 290.155 972.209 289.697 971.057 289.697Z" fill="#26486B"/>
<path d="M630.627 325.363H616.826C615.811 325.363 614.838 324.96 614.121 324.241C613.403 323.522 613 322.548 613 321.532V279.109C613 278.093 613.403 277.118 614.121 276.4C614.838 275.681 615.811 275.278 616.826 275.278H630.627C631.642 275.278 632.615 275.681 633.332 276.4C634.05 277.118 634.453 278.093 634.453 279.109V321.532C634.453 322.548 634.05 323.522 633.332 324.241C632.615 324.96 631.642 325.363 630.627 325.363ZM674.862 321.533V279.111C674.862 278.095 674.459 277.12 673.742 276.402C673.024 275.683 672.051 275.279 671.036 275.279H657.235C656.221 275.279 655.247 275.683 654.53 276.402C653.812 277.12 653.409 278.095 653.409 279.111V321.533C653.409 322.55 653.812 323.524 654.53 324.243C655.247 324.961 656.221 325.365 657.235 325.365H671.036C672.051 325.364 673.024 324.961 673.741 324.242C674.459 323.524 674.862 322.549 674.862 321.533ZM634.453 400.343V357.92C634.453 356.904 634.05 355.929 633.332 355.211C632.615 354.492 631.642 354.089 630.627 354.089H616.826C615.811 354.089 614.838 354.492 614.121 355.211C613.403 355.929 613 356.904 613 357.92V400.343C613 401.359 613.403 402.333 614.121 403.052C614.838 403.771 615.811 404.174 616.826 404.174H630.627C631.641 404.174 632.614 403.77 633.332 403.052C634.049 402.333 634.453 401.359 634.453 400.343ZM674.862 400.343V357.92C674.862 356.904 674.459 355.929 673.742 355.211C673.024 354.492 672.051 354.089 671.036 354.089H657.235C656.221 354.089 655.247 354.492 654.53 355.211C653.812 355.929 653.409 356.904 653.409 357.92V400.343C653.409 401.359 653.812 402.333 654.53 403.052C655.247 403.771 656.221 404.174 657.235 404.174H671.036C672.051 404.174 673.024 403.77 673.741 403.052C674.459 402.333 674.862 401.359 674.862 400.343ZM634.453 477.359V434.937C634.453 433.92 634.05 432.946 633.332 432.227C632.615 431.509 631.642 431.105 630.627 431.105H616.826C615.811 431.105 614.838 431.509 614.121 432.227C613.403 432.946 613 433.92 613 434.937V477.359C613 478.375 613.403 479.35 614.121 480.068C614.838 480.787 615.811 481.191 616.826 481.191H630.627C631.641 481.19 632.614 480.786 633.332 480.068C634.049 479.349 634.453 478.375 634.453 477.359ZM674.862 477.359V434.937C674.862 433.92 674.459 432.946 673.742 432.227C673.024 431.509 672.051 431.105 671.036 431.105H657.235C656.221 431.105 655.247 431.509 654.53 432.227C653.812 432.946 653.409 433.92 653.409 434.937V477.359C653.409 478.375 653.812 479.35 654.53 480.068C655.247 480.787 656.221 481.191 657.235 481.191H671.036C672.051 481.19 673.024 480.786 673.741 480.068C674.459 479.349 674.862 478.375 674.862 477.359ZM634.453 556.168V513.746C634.453 512.73 634.05 511.755 633.332 511.037C632.615 510.318 631.642 509.914 630.627 509.914H616.826C615.811 509.914 614.838 510.318 614.121 511.037C613.403 511.755 613 512.73 613 513.746V556.168C613 557.185 613.403 558.159 614.121 558.878C614.838 559.596 615.811 560 616.826 560H630.627C631.641 560 632.614 559.596 633.332 558.877C634.049 558.159 634.453 557.184 634.453 556.168ZM674.862 556.168V513.746C674.862 512.73 674.459 511.755 673.742 511.037C673.024 510.318 672.051 509.914 671.036 509.914H657.235C656.221 509.914 655.247 510.318 654.53 511.037C653.812 511.755 653.409 512.73 653.409 513.746V556.168C653.409 557.185 653.812 558.159 654.53 558.878C655.247 559.596 656.221 560 657.235 560H671.036C672.051 560 673.024 559.596 673.741 558.877C674.459 558.159 674.862 557.184 674.862 556.168ZM1166.9 241.578V186.935C1166.9 185.626 1166.38 184.371 1165.46 183.445C1164.54 182.52 1163.28 182 1161.98 182H1144.2C1142.89 182 1141.64 182.52 1140.71 183.445C1139.79 184.371 1139.27 185.626 1139.27 186.935V241.578C1139.27 242.887 1139.79 244.142 1140.71 245.068C1141.64 245.993 1142.89 246.513 1144.2 246.513H1161.98C1163.28 246.513 1164.54 245.993 1165.46 245.068C1166.38 244.142 1166.9 242.887 1166.9 241.578ZM1218.95 241.578V186.935C1218.95 186.287 1218.82 185.645 1218.58 185.047C1218.33 184.448 1217.97 183.904 1217.51 183.445C1217.05 182.987 1216.51 182.624 1215.91 182.376C1215.31 182.128 1214.67 182 1214.02 182H1196.25C1194.94 182 1193.69 182.52 1192.76 183.445C1191.84 184.371 1191.32 185.626 1191.32 186.935V241.578C1191.32 242.887 1191.84 244.142 1192.76 245.068C1193.69 245.993 1194.94 246.513 1196.25 246.513H1214.02C1214.67 246.513 1215.31 246.386 1215.91 246.138C1216.51 245.89 1217.05 245.526 1217.51 245.068C1217.97 244.61 1218.33 244.066 1218.58 243.467C1218.82 242.868 1218.95 242.226 1218.95 241.578ZM1271 241.578V186.935C1271 185.626 1270.48 184.371 1269.56 183.445C1268.63 182.52 1267.38 182 1266.07 182H1248.3C1246.99 182 1245.74 182.52 1244.81 183.445C1243.89 184.371 1243.37 185.626 1243.37 186.935V241.578C1243.37 242.887 1243.89 244.142 1244.81 245.068C1245.74 245.993 1246.99 246.513 1248.3 246.513H1266.07C1266.72 246.513 1267.36 246.386 1267.96 246.138C1268.56 245.89 1269.1 245.526 1269.56 245.068C1270.01 244.61 1270.38 244.066 1270.63 243.467C1270.87 242.868 1271 242.226 1271 241.578ZM1166.9 343.088V288.446C1166.9 287.137 1166.38 285.882 1165.46 284.956C1164.54 284.031 1163.28 283.511 1161.98 283.511H1144.2C1142.89 283.511 1141.64 284.031 1140.71 284.956C1139.79 285.882 1139.27 287.137 1139.27 288.446V343.088C1139.27 344.397 1139.79 345.653 1140.71 346.578C1141.64 347.504 1142.89 348.024 1144.2 348.024H1161.98C1163.28 348.023 1164.54 347.503 1165.46 346.578C1166.38 345.652 1166.9 344.397 1166.9 343.088ZM1218.95 343.088V288.446C1218.95 287.137 1218.43 285.882 1217.51 284.956C1216.58 284.031 1215.33 283.511 1214.02 283.511H1196.25C1194.94 283.511 1193.69 284.031 1192.76 284.956C1191.84 285.882 1191.32 287.137 1191.32 288.446V343.088C1191.32 344.397 1191.84 345.653 1192.76 346.578C1193.69 347.504 1194.94 348.024 1196.25 348.024H1214.02C1215.33 348.024 1216.58 347.504 1217.51 346.578C1218.43 345.653 1218.95 344.397 1218.95 343.088ZM1271 343.088V288.446C1271 287.137 1270.48 285.882 1269.56 284.956C1268.63 284.031 1267.38 283.511 1266.07 283.511H1248.3C1246.99 283.511 1245.74 284.031 1244.81 284.956C1243.89 285.882 1243.37 287.137 1243.37 288.446V343.088C1243.37 344.397 1243.89 345.653 1244.81 346.578C1245.74 347.504 1246.99 348.024 1248.3 348.024H1266.07C1267.38 348.024 1268.63 347.504 1269.56 346.578C1270.48 345.653 1271 344.397 1271 343.088ZM1166.9 442.289V387.646C1166.9 386.337 1166.38 385.082 1165.46 384.156C1164.54 383.231 1163.28 382.711 1161.98 382.711H1144.2C1142.89 382.711 1141.64 383.231 1140.71 384.156C1139.79 385.082 1139.27 386.337 1139.27 387.646V442.289C1139.27 443.598 1139.79 444.853 1140.71 445.778C1141.64 446.704 1142.89 447.224 1144.2 447.224H1161.98C1163.28 447.224 1164.54 446.704 1165.46 445.778C1166.38 444.853 1166.9 443.598 1166.9 442.289ZM1218.95 442.289V387.646C1218.95 386.337 1218.43 385.082 1217.51 384.156C1216.58 383.231 1215.33 382.711 1214.02 382.711H1196.25C1195.6 382.711 1194.96 382.839 1194.36 383.087C1193.76 383.335 1193.22 383.698 1192.76 384.156C1192.31 384.615 1191.94 385.159 1191.69 385.757C1191.45 386.356 1191.32 386.998 1191.32 387.646V442.289C1191.32 442.937 1191.45 443.579 1191.69 444.177C1191.94 444.776 1192.31 445.32 1192.76 445.778C1193.22 446.237 1193.76 446.6 1194.36 446.848C1194.96 447.096 1195.6 447.224 1196.25 447.224H1214.02C1214.67 447.224 1215.31 447.097 1215.91 446.849C1216.51 446.601 1217.05 446.237 1217.51 445.779C1217.97 445.321 1218.33 444.776 1218.58 444.178C1218.82 443.579 1218.95 442.937 1218.95 442.289ZM1166.9 543.799V489.157C1166.9 487.848 1166.38 486.593 1165.46 485.667C1164.54 484.741 1163.28 484.222 1161.98 484.222H1144.2C1142.89 484.222 1141.64 484.741 1140.71 485.667C1139.79 486.593 1139.27 487.848 1139.27 489.157V543.799C1139.27 545.108 1139.79 546.363 1140.71 547.289C1141.64 548.215 1142.89 548.734 1144.2 548.734H1161.98C1163.28 548.734 1164.54 548.214 1165.46 547.289C1166.38 546.363 1166.9 545.108 1166.9 543.799ZM1218.95 543.799V489.157C1218.95 487.848 1218.43 486.593 1217.51 485.667C1216.58 484.741 1215.33 484.222 1214.02 484.222H1196.25C1195.6 484.222 1194.96 484.349 1194.36 484.597C1193.76 484.845 1193.22 485.209 1192.76 485.667C1192.31 486.125 1191.94 486.669 1191.69 487.268C1191.45 487.867 1191.32 488.509 1191.32 489.157V543.799C1191.32 544.447 1191.45 545.089 1191.69 545.688C1191.94 546.287 1192.31 546.831 1192.76 547.289C1193.22 547.747 1193.76 548.111 1194.36 548.359C1194.96 548.607 1195.6 548.734 1196.25 548.734H1214.02C1215.33 548.734 1216.58 548.214 1217.51 547.289C1218.43 546.363 1218.95 545.108 1218.95 543.799Z" fill="#F0F7FF"/>
<path d="M1148.91 181.946V600H940V181.946C940 181.165 940.154 180.392 940.454 179.67C940.753 178.949 941.193 178.293 941.747 177.741C942.301 177.189 942.958 176.751 943.682 176.452C944.406 176.153 945.182 176 945.965 176H1142.94C1143.73 176 1144.5 176.153 1145.23 176.452C1145.95 176.751 1146.61 177.189 1147.16 177.741C1147.72 178.293 1148.15 178.949 1148.45 179.67C1148.75 180.392 1148.91 181.165 1148.91 181.946ZM1372.37 384.202H1199.03C1198.45 384.202 1197.88 384.338 1197.37 384.6C1196.86 384.862 1196.41 385.242 1196.08 385.709C1195.74 386.175 1195.52 386.714 1195.43 387.282C1195.35 387.85 1195.4 388.431 1195.58 388.975L1202.1 408.284C1202.3 408.868 1202.64 409.372 1203.07 409.773C1202.99 410.091 1202.94 410.419 1202.94 410.749V600H1368.46V410.749C1368.46 410.411 1368.4 410.087 1368.32 409.773C1368.75 409.372 1369.09 408.868 1369.29 408.284L1375.81 388.975C1375.99 388.431 1376.05 387.851 1375.96 387.283C1375.87 386.715 1375.65 386.176 1375.32 385.709C1374.98 385.243 1374.54 384.863 1374.03 384.601C1373.51 384.339 1372.95 384.202 1372.37 384.202Z" fill="#337CA9"/>
<path d="M901.884 152.58C903.771 152.58 905.58 151.833 906.914 150.502C908.249 149.172 908.998 147.367 908.998 145.486V128.326C908.998 126.445 908.249 124.64 906.914 123.31C905.58 121.979 903.771 121.232 901.884 121.232H851.786V96.3215C857.362 94.2731 861.347 88.9436 861.347 82.6726V53.5576C861.347 51.6458 860.97 49.7527 860.236 47.9864C859.503 46.2201 858.427 44.6152 857.072 43.2633C855.716 41.9115 854.106 40.8392 852.335 40.1077C850.564 39.3762 848.665 38.9998 846.748 39H716.25C714.333 38.9998 712.435 39.3762 710.663 40.1077C708.892 40.8392 707.282 41.9115 705.927 43.2633C704.571 44.6152 703.496 46.2201 702.762 47.9864C702.029 49.7527 701.651 51.6458 701.651 53.5576V82.6726C701.651 88.9436 705.636 94.2731 711.213 96.3215V121.232H661.115C659.228 121.232 657.418 121.979 656.084 123.31C654.75 124.64 654 126.445 654 128.326V145.486C654 147.367 654.75 149.172 656.084 150.502C657.418 151.833 659.228 152.58 661.115 152.58H664.479V261.748H661.115C660.181 261.748 659.255 261.931 658.392 262.288C657.529 262.645 656.745 263.167 656.084 263.826C655.423 264.485 654.899 265.267 654.542 266.128C654.184 266.988 654 267.911 654 268.843V286.002C654 287.883 654.75 289.688 656.084 291.018C657.418 292.349 659.228 293.096 661.115 293.096H664.479V490.371H661.115C659.228 490.371 657.418 491.118 656.084 492.449C654.75 493.779 654 495.584 654 497.465V514.624C654 516.506 654.75 518.311 656.084 519.641C657.418 520.972 659.228 521.719 661.115 521.719H664.479V600H900.268V521.719H901.885C903.772 521.719 905.582 520.972 906.916 519.641C908.25 518.311 909 516.506 909 514.624V497.465C909 495.584 908.25 493.779 906.916 492.449C905.582 491.118 903.772 490.371 901.885 490.371H900.268V293.098H901.885C903.772 293.098 905.582 292.351 906.916 291.02C908.25 289.69 909 287.885 909 286.003V268.844C909 267.912 908.816 266.99 908.458 266.129C908.101 265.268 907.577 264.486 906.916 263.828C906.255 263.169 905.471 262.646 904.608 262.29C903.745 261.933 902.819 261.75 901.885 261.75H900.268V152.582H901.884V152.58ZM838.953 121.232H724.045V97.2302H838.953V121.232Z" fill="#337CA9"/>
<path d="M983.195 293.49H967.693C966.553 293.49 965.46 293.042 964.654 292.244C963.848 291.446 963.395 290.364 963.395 289.235V242.135C963.395 241.576 963.506 241.023 963.722 240.507C963.938 239.99 964.255 239.521 964.654 239.126C965.053 238.731 965.527 238.418 966.048 238.204C966.57 237.99 967.129 237.88 967.693 237.88H983.195C983.759 237.88 984.318 237.99 984.84 238.204C985.361 238.418 985.835 238.731 986.234 239.126C986.633 239.521 986.95 239.99 987.166 240.507C987.382 241.023 987.493 241.576 987.493 242.135V289.235C987.493 290.364 987.04 291.446 986.234 292.243C985.428 293.041 984.335 293.489 983.195 293.49ZM1032.88 289.235V242.135C1032.88 241.576 1032.77 241.023 1032.55 240.507C1032.34 239.99 1032.02 239.521 1031.62 239.126C1031.22 238.731 1030.75 238.418 1030.23 238.204C1029.71 237.99 1029.15 237.88 1028.58 237.88H1013.08C1012.52 237.88 1011.96 237.99 1011.44 238.204C1010.92 238.418 1010.44 238.731 1010.04 239.126C1009.64 239.521 1009.33 239.99 1009.11 240.507C1008.89 241.023 1008.78 241.576 1008.78 242.135V289.235C1008.78 290.364 1009.24 291.446 1010.04 292.244C1010.85 293.042 1011.94 293.49 1013.08 293.49H1028.58C1029.72 293.49 1030.82 293.042 1031.62 292.244C1032.43 291.446 1032.88 290.364 1032.88 289.235ZM1078.27 289.235V242.135C1078.27 241.576 1078.16 241.023 1077.94 240.507C1077.73 239.99 1077.41 239.521 1077.01 239.126C1076.61 238.731 1076.14 238.418 1075.62 238.204C1075.1 237.99 1074.54 237.88 1073.97 237.88H1058.47C1057.91 237.88 1057.35 237.99 1056.83 238.204C1056.31 238.418 1055.83 238.731 1055.43 239.126C1055.03 239.521 1054.72 239.99 1054.5 240.507C1054.28 241.023 1054.17 241.576 1054.17 242.135V289.235C1054.17 289.794 1054.28 290.347 1054.5 290.864C1054.72 291.38 1055.03 291.849 1055.43 292.244C1055.83 292.639 1056.31 292.952 1056.83 293.166C1057.35 293.38 1057.91 293.49 1058.47 293.49H1073.97C1075.11 293.49 1076.21 293.042 1077.01 292.244C1077.82 291.446 1078.27 290.364 1078.27 289.235ZM1123.66 289.235V242.135C1123.66 241.576 1123.55 241.023 1123.33 240.507C1123.12 239.99 1122.8 239.521 1122.4 239.126C1122 238.731 1121.53 238.418 1121.01 238.204C1120.49 237.99 1119.93 237.88 1119.36 237.88H1103.86C1103.3 237.88 1102.74 237.99 1102.22 238.204C1101.7 238.418 1101.22 238.731 1100.82 239.126C1100.42 239.521 1100.11 239.99 1099.89 240.507C1099.67 241.023 1099.56 241.576 1099.56 242.135V289.235C1099.56 290.364 1100.02 291.446 1100.82 292.244C1101.63 293.042 1102.72 293.49 1103.86 293.49H1119.36C1119.93 293.49 1120.49 293.38 1121.01 293.166C1121.53 292.952 1122 292.639 1122.4 292.244C1122.8 291.849 1123.12 291.38 1123.33 290.864C1123.55 290.347 1123.66 289.794 1123.66 289.235ZM987.491 376.736V329.635C987.491 328.507 987.039 327.425 986.233 326.627C985.427 325.829 984.333 325.381 983.193 325.381H967.692C966.552 325.381 965.458 325.829 964.652 326.627C963.846 327.425 963.394 328.507 963.394 329.635V376.736C963.394 377.865 963.846 378.947 964.652 379.745C965.458 380.543 966.552 380.991 967.692 380.991H983.193C984.333 380.991 985.427 380.543 986.233 379.745C987.039 378.947 987.491 377.865 987.491 376.736ZM1032.88 376.736V329.635C1032.88 328.507 1032.43 327.425 1031.62 326.627C1030.82 325.829 1029.72 325.381 1028.58 325.381H1013.08C1011.94 325.381 1010.85 325.829 1010.04 326.627C1009.24 327.425 1008.78 328.507 1008.78 329.635V376.736C1008.78 377.865 1009.24 378.947 1010.04 379.745C1010.85 380.543 1011.94 380.991 1013.08 380.991H1028.58C1029.72 380.991 1030.82 380.543 1031.62 379.745C1032.43 378.947 1032.88 377.865 1032.88 376.736ZM1078.27 376.736V329.635C1078.27 329.077 1078.16 328.524 1077.94 328.007C1077.73 327.491 1077.41 327.022 1077.01 326.627C1076.61 326.232 1076.14 325.919 1075.62 325.705C1075.1 325.491 1074.54 325.381 1073.97 325.381H1058.47C1057.33 325.381 1056.24 325.829 1055.43 326.627C1054.63 327.425 1054.17 328.507 1054.17 329.635V376.736C1054.17 377.865 1054.63 378.947 1055.43 379.745C1056.24 380.543 1057.33 380.991 1058.47 380.991H1073.97C1075.11 380.99 1076.21 380.542 1077.01 379.744C1077.82 378.946 1078.27 377.865 1078.27 376.736ZM1123.66 376.736V329.635C1123.66 328.507 1123.21 327.425 1122.4 326.627C1121.6 325.829 1120.5 325.381 1119.36 325.381H1103.86C1102.72 325.381 1101.63 325.829 1100.82 326.627C1100.02 327.425 1099.56 328.507 1099.56 329.635V376.736C1099.56 377.865 1100.02 378.947 1100.82 379.745C1101.63 380.543 1102.72 380.991 1103.86 380.991H1119.36C1120.5 380.99 1121.6 380.542 1122.4 379.744C1123.21 378.946 1123.66 377.865 1123.66 376.736ZM987.491 462.246V415.145C987.491 414.017 987.039 412.935 986.233 412.137C985.427 411.339 984.333 410.891 983.193 410.891H967.692C966.552 410.891 965.458 411.339 964.652 412.137C963.846 412.935 963.394 414.017 963.394 415.145V462.246C963.394 463.375 963.846 464.457 964.652 465.255C965.458 466.052 966.552 466.501 967.692 466.501H983.193C984.333 466.501 985.427 466.052 986.233 465.255C987.039 464.457 987.491 463.375 987.491 462.246ZM1032.88 462.246V415.145C1032.88 414.017 1032.43 412.935 1031.62 412.137C1030.82 411.339 1029.72 410.891 1028.58 410.891H1013.08C1012.52 410.891 1011.96 411.001 1011.44 411.215C1010.92 411.429 1010.44 411.742 1010.04 412.137C1009.64 412.532 1009.33 413.001 1009.11 413.517C1008.89 414.034 1008.78 414.587 1008.78 415.145V462.246C1008.78 462.805 1008.89 463.358 1009.11 463.874C1009.33 464.391 1009.64 464.86 1010.04 465.255C1010.44 465.65 1010.92 465.963 1011.44 466.177C1011.96 466.391 1012.52 466.501 1013.08 466.501H1028.58C1029.72 466.501 1030.82 466.052 1031.62 465.255C1032.43 464.457 1032.88 463.375 1032.88 462.246ZM1078.27 462.246V415.145C1078.27 414.017 1077.82 412.935 1077.01 412.137C1076.21 411.339 1075.11 410.891 1073.97 410.891H1058.47C1057.33 410.891 1056.24 411.339 1055.43 412.137C1054.63 412.935 1054.17 414.017 1054.17 415.145V462.246C1054.17 463.375 1054.63 464.457 1055.43 465.255C1056.24 466.052 1057.33 466.501 1058.47 466.501H1073.97C1075.11 466.5 1076.21 466.052 1077.01 465.254C1077.82 464.456 1078.27 463.375 1078.27 462.246ZM1123.66 462.246V415.145C1123.66 414.017 1123.21 412.935 1122.4 412.137C1121.6 411.339 1120.5 410.891 1119.36 410.891H1103.86C1102.72 410.891 1101.63 411.339 1100.82 412.137C1100.02 412.935 1099.56 414.017 1099.56 415.145V462.246C1099.56 463.375 1100.02 464.457 1100.82 465.255C1101.63 466.052 1102.72 466.501 1103.86 466.501H1119.36C1120.5 466.5 1121.6 466.052 1122.4 465.254C1123.21 464.456 1123.66 463.375 1123.66 462.246ZM987.491 549.746V502.645C987.491 502.086 987.38 501.533 987.164 501.017C986.948 500.501 986.632 500.032 986.233 499.637C985.833 499.241 985.36 498.928 984.838 498.714C984.317 498.5 983.758 498.39 983.193 498.39H967.692C967.127 498.39 966.568 498.5 966.047 498.714C965.525 498.928 965.052 499.241 964.652 499.637C964.253 500.032 963.937 500.501 963.721 501.017C963.505 501.533 963.394 502.086 963.394 502.645V549.746C963.394 550.304 963.505 550.858 963.721 551.374C963.937 551.89 964.253 552.359 964.652 552.754C965.052 553.149 965.525 553.462 966.047 553.676C966.568 553.89 967.127 554 967.692 554H983.193C983.758 554 984.317 553.89 984.838 553.676C985.36 553.462 985.833 553.149 986.233 552.754C986.632 552.359 986.948 551.89 987.164 551.374C987.38 550.858 987.491 550.304 987.491 549.746ZM1032.88 549.746V502.645C1032.88 502.086 1032.77 501.533 1032.55 501.017C1032.34 500.501 1032.02 500.032 1031.62 499.637C1031.22 499.241 1030.75 498.928 1030.23 498.714C1029.71 498.5 1029.15 498.39 1028.58 498.39H1013.08C1012.52 498.39 1011.96 498.5 1011.44 498.714C1010.92 498.928 1010.44 499.241 1010.04 499.637C1009.64 500.032 1009.33 500.501 1009.11 501.017C1008.89 501.533 1008.78 502.086 1008.78 502.645V549.746C1008.78 550.304 1008.89 550.858 1009.11 551.374C1009.33 551.89 1009.64 552.359 1010.04 552.754C1010.44 553.149 1010.92 553.462 1011.44 553.676C1011.96 553.89 1012.52 554 1013.08 554H1028.58C1029.15 554 1029.71 553.89 1030.23 553.676C1030.75 553.462 1031.22 553.149 1031.62 552.754C1032.02 552.359 1032.34 551.89 1032.55 551.374C1032.77 550.858 1032.88 550.304 1032.88 549.746ZM1078.27 549.746V502.645C1078.27 502.086 1078.16 501.533 1077.94 501.017C1077.73 500.501 1077.41 500.032 1077.01 499.637C1076.61 499.241 1076.14 498.928 1075.62 498.714C1075.1 498.5 1074.54 498.39 1073.97 498.39H1058.47C1057.91 498.39 1057.35 498.5 1056.83 498.714C1056.31 498.928 1055.83 499.241 1055.43 499.637C1055.03 500.032 1054.72 500.501 1054.5 501.017C1054.28 501.533 1054.17 502.086 1054.17 502.645V549.746C1054.17 550.304 1054.28 550.858 1054.5 551.374C1054.72 551.89 1055.03 552.359 1055.43 552.754C1055.83 553.149 1056.31 553.462 1056.83 553.676C1057.35 553.89 1057.91 554 1058.47 554H1073.97C1074.54 554 1075.1 553.89 1075.62 553.676C1076.14 553.462 1076.61 553.149 1077.01 552.754C1077.41 552.359 1077.73 551.89 1077.94 551.374C1078.16 550.858 1078.27 550.304 1078.27 549.746ZM1123.66 549.746V502.645C1123.66 502.086 1123.55 501.533 1123.33 501.017C1123.12 500.501 1122.8 500.032 1122.4 499.637C1122 499.241 1121.53 498.928 1121.01 498.714C1120.49 498.5 1119.93 498.39 1119.36 498.39H1103.86C1103.3 498.39 1102.74 498.5 1102.22 498.714C1101.7 498.928 1101.22 499.241 1100.82 499.637C1100.42 500.032 1100.11 500.501 1099.89 501.017C1099.67 501.533 1099.56 502.086 1099.56 502.645V549.746C1099.56 550.304 1099.67 550.858 1099.89 551.374C1100.11 551.89 1100.42 552.359 1100.82 552.754C1101.22 553.149 1101.7 553.462 1102.22 553.676C1102.74 553.89 1103.3 554 1103.86 554H1119.36C1119.93 554 1120.49 553.89 1121.01 553.676C1121.53 553.462 1122 553.149 1122.4 552.754C1122.8 552.359 1123.12 551.89 1123.33 551.374C1123.55 550.858 1123.66 550.304 1123.66 549.746ZM710.692 374.522V332.123C710.692 331.107 710.284 330.133 709.559 329.415C708.833 328.697 707.849 328.293 706.823 328.293H692.869C691.843 328.293 690.859 328.697 690.133 329.415C689.408 330.133 689 331.107 689 332.123V374.522C689 375.537 689.408 376.511 690.133 377.23C690.859 377.948 691.843 378.351 692.869 378.351H706.823C707.849 378.351 708.833 377.947 709.558 377.229C710.284 376.511 710.691 375.537 710.692 374.522ZM751.549 374.522V332.123C751.549 331.107 751.142 330.133 750.416 329.415C749.691 328.697 748.707 328.293 747.68 328.293H733.727C732.7 328.293 731.716 328.697 730.991 329.415C730.265 330.133 729.858 331.107 729.858 332.123V374.522C729.858 375.537 730.265 376.511 730.991 377.23C731.716 377.948 732.7 378.351 733.727 378.351H747.68C748.706 378.351 749.69 377.947 750.416 377.229C751.141 376.511 751.549 375.537 751.549 374.522ZM792.407 374.522V332.123C792.407 331.107 791.999 330.133 791.274 329.415C790.548 328.697 789.564 328.293 788.538 328.293H774.584C773.558 328.293 772.574 328.697 771.848 329.415C771.123 330.133 770.715 331.107 770.715 332.123V374.522C770.715 375.537 771.123 376.511 771.848 377.23C772.574 377.948 773.558 378.351 774.584 378.351H788.538C789.564 378.351 790.548 377.947 791.273 377.229C791.999 376.511 792.407 375.537 792.407 374.522ZM833.265 374.522V332.123C833.265 331.107 832.857 330.133 832.132 329.415C831.406 328.697 830.422 328.293 829.396 328.293H815.442C814.416 328.293 813.432 328.697 812.706 329.415C811.981 330.133 811.573 331.107 811.573 332.123V374.522C811.573 375.537 811.981 376.511 812.706 377.23C813.432 377.948 814.416 378.351 815.442 378.351H829.396C830.422 378.351 831.406 377.947 832.131 377.229C832.856 376.511 833.264 375.537 833.265 374.522ZM874.124 374.522V332.123C874.124 331.107 873.716 330.133 872.991 329.415C872.265 328.697 871.281 328.293 870.255 328.293H856.301C855.275 328.293 854.291 328.697 853.565 329.415C852.84 330.133 852.432 331.107 852.432 332.123V374.522C852.432 375.537 852.84 376.511 853.565 377.23C854.291 377.948 855.275 378.351 856.301 378.351H870.255C871.281 378.351 872.265 377.947 872.99 377.229C873.716 376.511 874.124 375.537 874.124 374.522ZM710.692 233.229V190.83C710.692 189.814 710.284 188.84 709.559 188.122C708.833 187.403 707.849 187 706.823 187H692.869C692.361 187 691.858 187.099 691.388 187.292C690.919 187.484 690.492 187.766 690.133 188.122C689.774 188.477 689.489 188.899 689.295 189.364C689.1 189.829 689 190.327 689 190.83V233.229C689 233.732 689.1 234.23 689.295 234.694C689.489 235.159 689.774 235.581 690.133 235.937C690.492 236.292 690.919 236.574 691.388 236.767C691.858 236.959 692.361 237.058 692.869 237.058H706.823C707.849 237.058 708.833 236.654 709.558 235.936C710.284 235.218 710.691 234.244 710.692 233.229ZM751.549 233.229V190.83C751.549 189.814 751.142 188.84 750.416 188.122C749.691 187.403 748.707 187 747.68 187H733.727C732.7 187 731.716 187.403 730.991 188.122C730.265 188.84 729.858 189.814 729.858 190.83V233.229C729.858 233.732 729.958 234.23 730.152 234.694C730.347 235.159 730.632 235.581 730.991 235.937C731.35 236.292 731.777 236.574 732.246 236.767C732.715 236.959 733.218 237.058 733.727 237.058H747.68C748.706 237.058 749.69 236.654 750.416 235.936C751.141 235.218 751.549 234.244 751.549 233.229ZM792.407 233.229V190.83C792.407 189.814 791.999 188.84 791.274 188.122C790.548 187.403 789.564 187 788.538 187H774.584C773.558 187 772.574 187.403 771.848 188.122C771.123 188.84 770.715 189.814 770.715 190.83V233.229C770.715 233.732 770.815 234.23 771.01 234.694C771.204 235.159 771.489 235.581 771.848 235.937C772.208 236.292 772.634 236.574 773.104 236.767C773.573 236.959 774.076 237.058 774.584 237.058H788.538C789.564 237.058 790.548 236.654 791.273 235.936C791.999 235.218 792.407 234.244 792.407 233.229ZM833.265 233.229V190.83C833.265 189.814 832.857 188.84 832.132 188.122C831.406 187.403 830.422 187 829.396 187H815.442C814.416 187 813.432 187.403 812.706 188.122C811.981 188.84 811.573 189.814 811.573 190.83V233.229C811.573 233.732 811.673 234.23 811.867 234.694C812.062 235.159 812.347 235.581 812.706 235.937C813.065 236.292 813.492 236.574 813.961 236.767C814.431 236.959 814.934 237.058 815.442 237.058H829.396C830.422 237.058 831.406 236.654 832.131 235.936C832.856 235.218 833.264 234.244 833.265 233.229ZM874.124 233.229V190.83C874.124 189.814 873.716 188.84 872.991 188.122C872.265 187.403 871.281 187 870.255 187H856.301C855.275 187 854.291 187.403 853.565 188.122C852.84 188.84 852.432 189.814 852.432 190.83V233.229C852.432 233.732 852.532 234.23 852.727 234.694C852.921 235.159 853.206 235.581 853.565 235.937C853.925 236.292 854.351 236.574 854.821 236.767C855.29 236.959 855.793 237.058 856.301 237.058H870.255C871.281 237.058 872.265 236.654 872.99 235.936C873.716 235.218 874.124 234.244 874.124 233.229ZM710.692 453.285V410.886C710.692 409.871 710.284 408.896 709.559 408.178C708.833 407.46 707.849 407.057 706.823 407.057H692.869C691.843 407.057 690.859 407.46 690.133 408.178C689.408 408.896 689 409.871 689 410.886V453.285C689 454.301 689.408 455.275 690.133 455.993C690.859 456.711 691.843 457.115 692.869 457.115H706.823C707.849 457.114 708.833 456.711 709.558 455.993C710.284 455.275 710.691 454.301 710.692 453.285ZM751.549 453.285V410.886C751.549 409.871 751.142 408.896 750.416 408.178C749.691 407.46 748.707 407.057 747.68 407.057H733.727C732.7 407.057 731.716 407.46 730.991 408.178C730.265 408.896 729.858 409.871 729.858 410.886V453.285C729.858 454.301 730.265 455.275 730.991 455.993C731.716 456.711 732.7 457.115 733.727 457.115H747.68C748.706 457.114 749.69 456.711 750.416 455.993C751.141 455.275 751.549 454.301 751.549 453.285ZM792.407 453.285V410.886C792.407 409.871 791.999 408.896 791.274 408.178C790.548 407.46 789.564 407.057 788.538 407.057H774.584C773.558 407.057 772.574 407.46 771.848 408.178C771.123 408.896 770.715 409.871 770.715 410.886V453.285C770.715 454.301 771.123 455.275 771.848 455.993C772.574 456.711 773.558 457.115 774.584 457.115H788.538C789.564 457.114 790.548 456.711 791.273 455.993C791.999 455.275 792.407 454.301 792.407 453.285ZM833.265 453.285V410.886C833.265 409.871 832.857 408.896 832.132 408.178C831.406 407.46 830.422 407.057 829.396 407.057H815.442C814.416 407.057 813.432 407.46 812.706 408.178C811.981 408.896 811.573 409.871 811.573 410.886V453.285C811.573 454.301 811.981 455.275 812.706 455.993C813.432 456.711 814.416 457.115 815.442 457.115H829.396C830.422 457.114 831.406 456.711 832.131 455.993C832.856 455.275 833.264 454.301 833.265 453.285ZM874.124 453.285V410.886C874.124 409.871 873.716 408.896 872.991 408.178C872.265 407.46 871.281 407.057 870.255 407.057H856.301C855.275 407.057 854.291 407.46 853.565 408.178C852.84 408.896 852.432 409.871 852.432 410.886V453.285C852.432 454.301 852.84 455.275 853.565 455.993C854.291 456.711 855.275 457.115 856.301 457.115H870.255C871.281 457.114 872.265 456.711 872.99 455.993C873.716 455.275 874.124 454.301 874.124 453.285ZM1271.34 503.444V457.864C1271.34 455.202 1270.27 452.649 1268.37 450.766C1266.47 448.884 1263.89 447.826 1261.2 447.826H1239.26C1236.57 447.826 1233.99 448.884 1232.09 450.766C1230.19 452.649 1229.12 455.202 1229.12 457.864V503.444C1229.12 506.106 1230.19 508.659 1232.09 510.542C1233.99 512.424 1236.57 513.482 1239.26 513.482H1261.2C1263.89 513.482 1266.47 512.424 1268.37 510.542C1270.27 508.659 1271.34 506.106 1271.34 503.444ZM1344 503.444V457.864C1344 455.202 1342.93 452.649 1341.03 450.766C1339.13 448.884 1336.55 447.826 1333.86 447.826H1311.92C1309.23 447.826 1306.65 448.884 1304.75 450.766C1302.85 452.649 1301.78 455.202 1301.78 457.864V503.444C1301.78 506.106 1302.85 508.659 1304.75 510.542C1306.65 512.424 1309.23 513.482 1311.92 513.482H1333.86C1336.55 513.481 1339.13 512.424 1341.03 510.541C1342.93 508.659 1344 506.106 1344 503.444Z" fill="#F0F7FF"/>
<path d="M1053.7 347H872.304C869.375 347 867 350.043 867 353.796V593.204C867 596.958 869.375 600 872.304 600H1053.7C1056.63 600 1059 600.5 1059 593.204V353.797C1059 350.043 1056.62 347 1053.7 347Z" fill="#26486B"/>
<path d="M940 544H986V600H940V544Z" fill="#597B91"/>
<path d="M1067 350.219V346.781C1067 345.778 1066.59 344.816 1065.87 344.107C1065.14 343.398 1064.15 343 1063.13 343H862.874C861.847 343 860.861 343.398 860.135 344.107C859.408 344.816 859 345.778 859 346.781V350.219C859 351.222 859.408 352.184 860.135 352.893C860.861 353.602 861.847 354 862.874 354H1063.13C1063.63 354 1064.14 353.902 1064.61 353.712C1065.08 353.522 1065.51 353.244 1065.87 352.893C1066.22 352.542 1066.51 352.125 1066.71 351.666C1066.9 351.208 1067 350.716 1067 350.219Z" fill="#597B91"/>
<path d="M987.464 556C991.079 556 993.663 552.56 992.85 548.996C989.712 535.249 977.539 525 963 525C948.461 525 936.288 535.248 933.15 548.996C932.337 552.561 934.921 556 938.536 556H987.464Z" fill="#337CA9"/>
<path d="M940 556H986V567H940V556Z" fill="#466677"/>
<path d="M915.646 425.459H902.844C901.825 425.459 900.847 425.052 900.126 424.327C899.405 423.602 899 422.62 899 421.595V381.864C899 380.839 899.405 379.857 900.126 379.132C900.847 378.407 901.825 378 902.844 378H915.646C916.665 378 917.643 378.407 918.364 379.132C919.085 379.857 919.49 380.839 919.49 381.864V421.595C919.49 422.62 919.085 423.602 918.364 424.327C917.643 425.052 916.665 425.459 915.646 425.459ZM955.327 421.595V381.864C955.327 380.839 954.922 379.857 954.201 379.132C953.48 378.407 952.502 378 951.483 378H938.681C937.662 378 936.684 378.407 935.963 379.132C935.242 379.857 934.837 380.839 934.837 381.864V421.595C934.837 422.62 935.242 423.602 935.963 424.327C936.684 425.052 937.662 425.459 938.681 425.459H951.483C952.502 425.459 953.48 425.052 954.201 424.327C954.922 423.602 955.327 422.62 955.327 421.595ZM991.163 421.595V381.864C991.163 380.839 990.758 379.857 990.038 379.132C989.317 378.407 988.339 378 987.319 378H974.518C973.498 378 972.52 378.407 971.8 379.132C971.079 379.857 970.674 380.839 970.674 381.864V421.595C970.674 422.62 971.079 423.602 971.8 424.327C972.52 425.052 973.498 425.459 974.518 425.459H987.319C988.339 425.459 989.317 425.052 990.038 424.327C990.758 423.602 991.163 422.62 991.163 421.595ZM1027 421.595V381.864C1027 380.839 1026.59 379.857 1025.87 379.132C1025.15 378.407 1024.18 378 1023.16 378H1010.35C1009.33 378 1008.36 378.407 1007.64 379.132C1006.92 379.857 1006.51 380.839 1006.51 381.864V421.595C1006.51 422.62 1006.92 423.602 1007.64 424.327C1008.36 425.052 1009.33 425.459 1010.35 425.459H1023.16C1024.18 425.459 1025.15 425.052 1025.87 424.327C1026.59 423.602 1027 422.62 1027 421.595ZM955.327 469.62V456.866C955.327 455.841 954.922 454.858 954.201 454.133C953.48 453.409 952.502 453.001 951.483 453.001H938.681C937.662 453.001 936.684 453.409 935.963 454.133C935.242 454.858 934.837 455.841 934.837 456.866V469.62C934.837 470.645 935.242 471.628 935.963 472.352C936.684 473.077 937.662 473.484 938.681 473.484H951.483C952.502 473.484 953.48 473.077 954.201 472.352C954.922 471.628 955.327 470.645 955.327 469.62ZM991.163 469.62V456.866C991.163 455.841 990.758 454.858 990.038 454.133C989.317 453.409 988.339 453.001 987.319 453.001H974.518C973.498 453.001 972.52 453.409 971.8 454.133C971.079 454.858 970.674 455.841 970.674 456.866V469.62C970.674 470.645 971.079 471.628 971.8 472.352C972.52 473.077 973.498 473.484 974.518 473.484H987.319C988.339 473.484 989.317 473.077 990.038 472.352C990.758 471.628 991.163 470.645 991.163 469.62ZM955.327 509.136V496.382C955.327 495.357 954.922 494.374 954.201 493.649C953.48 492.924 952.502 492.517 951.483 492.517H938.681C937.662 492.517 936.684 492.924 935.963 493.649C935.242 494.374 934.837 495.357 934.837 496.382V509.136C934.837 510.161 935.242 511.143 935.963 511.868C936.684 512.593 937.662 513 938.681 513H951.483C952.502 513 953.48 512.593 954.201 511.868C954.922 511.143 955.327 510.161 955.327 509.136ZM991.163 509.136V496.382C991.163 495.357 990.758 494.374 990.038 493.649C989.317 492.924 988.339 492.517 987.319 492.517H974.518C973.498 492.517 972.52 492.924 971.8 493.649C971.079 494.374 970.674 495.357 970.674 496.382V509.136C970.674 510.161 971.079 511.143 971.8 511.868C972.52 512.593 973.498 513 974.518 513H987.319C988.339 513 989.317 512.593 990.038 511.868C990.758 511.143 991.163 510.161 991.163 509.136ZM919.49 469.62V456.866C919.49 455.841 919.085 454.858 918.364 454.133C917.643 453.409 916.665 453.001 915.646 453.001H902.844C901.825 453.001 900.847 453.409 900.126 454.133C899.405 454.858 899 455.841 899 456.866V469.62C899 470.645 899.405 471.628 900.126 472.352C900.847 473.077 901.825 473.484 902.844 473.484H915.646C916.665 473.484 917.643 473.077 918.364 472.352C919.085 471.628 919.49 470.645 919.49 469.62ZM1027 469.62V456.866C1027 455.841 1026.59 454.858 1025.87 454.133C1025.15 453.409 1024.18 453.001 1023.16 453.001H1010.35C1009.33 453.001 1008.36 453.409 1007.64 454.133C1006.92 454.858 1006.51 455.841 1006.51 456.866V469.62C1006.51 470.645 1006.92 471.628 1007.64 472.352C1008.36 473.077 1009.33 473.484 1010.35 473.484H1023.16C1024.18 473.484 1025.15 473.077 1025.87 472.352C1026.59 471.628 1027 470.645 1027 469.62ZM919.49 509.136V496.382C919.49 495.357 919.085 494.374 918.364 493.649C917.643 492.924 916.665 492.517 915.646 492.517H902.844C901.825 492.517 900.847 492.924 900.126 493.649C899.405 494.374 899 495.357 899 496.382V509.136C899 510.161 899.405 511.143 900.126 511.868C900.847 512.593 901.825 513 902.844 513H915.646C916.665 513 917.643 512.593 918.364 511.868C919.085 511.143 919.49 510.161 919.49 509.136ZM1027 509.136V496.382C1027 495.357 1026.59 494.374 1025.87 493.649C1025.15 492.924 1024.18 492.517 1023.16 492.517H1010.35C1009.33 492.517 1008.36 492.924 1007.64 493.649C1006.92 494.374 1006.51 495.357 1006.51 496.382V509.136C1006.51 510.161 1006.92 511.143 1007.64 511.868C1008.36 512.593 1009.33 513 1010.35 513H1023.16C1024.18 513 1025.15 512.593 1025.87 511.868C1026.59 511.143 1027 510.161 1027 509.136Z" fill="#F0F7FF"/>
<path d="M918.963 426H898.11C897.701 426 897.297 425.919 896.92 425.761C896.542 425.603 896.2 425.372 895.911 425.08C895.622 424.788 895.393 424.442 895.237 424.061C895.08 423.68 895 423.271 895 422.859V421.141C895 420.729 895.08 420.32 895.237 419.939C895.393 419.558 895.622 419.212 895.911 418.92C896.2 418.628 896.542 418.397 896.92 418.239C897.297 418.081 897.701 418 898.11 418H918.963C919.372 418 919.776 418.081 920.153 418.239C920.531 418.397 920.874 418.628 921.162 418.92C921.451 419.212 921.68 419.558 921.836 419.939C921.993 420.32 922.073 420.729 922.073 421.141V422.859C922.073 423.271 921.993 423.68 921.836 424.061C921.68 424.442 921.451 424.788 921.162 425.08C920.874 425.372 920.531 425.603 920.153 425.761C919.776 425.919 919.372 426 918.963 426ZM958.049 422.859V421.141C958.049 420.729 957.968 420.32 957.812 419.939C957.656 419.558 957.427 419.212 957.138 418.92C956.849 418.628 956.506 418.397 956.129 418.239C955.752 418.081 955.347 418 954.939 418H934.085C933.677 418 933.273 418.081 932.895 418.239C932.518 418.397 932.175 418.628 931.886 418.92C931.598 419.212 931.369 419.558 931.212 419.939C931.056 420.32 930.976 420.729 930.976 421.141V422.859C930.976 423.271 931.056 423.68 931.212 424.061C931.369 424.442 931.598 424.788 931.886 425.08C932.175 425.372 932.518 425.603 932.895 425.761C933.273 425.919 933.677 426 934.085 426H954.939C955.347 426 955.752 425.919 956.129 425.761C956.506 425.603 956.849 425.372 957.138 425.08C957.427 424.788 957.656 424.442 957.812 424.061C957.968 423.68 958.049 423.271 958.049 422.859ZM994.024 422.859V421.141C994.024 420.308 993.697 419.509 993.114 418.92C992.53 418.331 991.739 418 990.915 418H970.061C969.236 418 968.445 418.331 967.862 418.92C967.279 419.509 966.951 420.308 966.951 421.141V422.859C966.951 423.272 967.031 423.68 967.187 424.061C967.344 424.442 967.573 424.789 967.862 425.08C968.151 425.372 968.493 425.603 968.871 425.761C969.248 425.919 969.653 426 970.061 426H990.915C991.739 426 992.53 425.669 993.114 425.08C993.697 424.491 994.024 423.692 994.024 422.859ZM1030 422.859V421.141C1030 420.728 1029.92 420.32 1029.76 419.939C1029.61 419.558 1029.38 419.211 1029.09 418.92C1028.8 418.628 1028.46 418.397 1028.08 418.239C1027.7 418.081 1027.3 418 1026.89 418H1006.04C1005.63 418 1005.22 418.081 1004.85 418.239C1004.47 418.397 1004.13 418.628 1003.84 418.92C1003.55 419.212 1003.32 419.558 1003.16 419.939C1003.01 420.32 1002.93 420.729 1002.93 421.141V422.859C1002.93 423.271 1003.01 423.68 1003.16 424.061C1003.32 424.442 1003.55 424.788 1003.84 425.08C1004.13 425.372 1004.47 425.603 1004.85 425.761C1005.22 425.919 1005.63 426 1006.04 426H1026.89C1027.3 426 1027.7 425.919 1028.08 425.761C1028.46 425.603 1028.8 425.372 1029.09 425.08C1029.38 424.789 1029.61 424.442 1029.76 424.061C1029.92 423.68 1030 423.272 1030 422.859Z" fill="#899396"/>
<path d="M884.436 458.795C884.216 458.602 883.982 458.426 883.735 458.269L821.811 418.845C820.949 418.296 819.947 418.003 818.924 418C817.9 417.997 816.897 418.285 816.032 418.83L753.414 458.254C753.179 458.402 752.965 458.564 752.764 458.733C751.17 459.177 750 460.632 750 462.362V596.229C750 598.312 751.695 600 753.785 600H883.215C885.305 600 887 598.312 887 596.229V462.362C887 460.705 885.927 459.302 884.436 458.795Z" fill="#26486B"/>
<path d="M801 551H839V600H801V551Z" fill="#2B3B47"/>
<path d="M744.813 468H751.072C751.591 468 752.1 467.856 752.543 467.583L818.279 427.136C818.727 426.86 819.243 426.716 819.769 426.719C820.295 426.723 820.809 426.874 821.253 427.155L885.045 467.564C885.494 467.849 886.015 468 886.547 468H892.187C894.978 468 896.06 464.369 893.724 462.84L821.316 415.458C820.865 415.163 820.339 415.004 819.801 415C819.262 414.996 818.734 415.147 818.279 415.435L743.313 462.816C740.934 464.32 741.999 468 744.813 468Z" fill="#26486B"/>
<path d="M787.313 574.24H774.672C773.963 574.24 773.284 573.929 772.783 573.375C772.281 572.822 772 572.071 772 571.288V565.951C772 565.169 772.281 564.418 772.783 563.864C773.284 563.311 773.963 563 774.672 563H787.313C788.022 563 788.701 563.311 789.202 563.864C789.703 564.418 789.985 565.169 789.985 565.951V571.288C789.985 572.071 789.703 572.822 789.202 573.375C788.701 573.929 788.022 574.24 787.313 574.24ZM831.939 574.236C830.248 574.236 828.877 575.75 828.877 577.618C828.877 579.486 830.248 581 831.939 581C833.63 581 835 579.486 835 577.618C835 575.75 833.629 574.236 831.939 574.236Z" fill="#337CA9"/>
<path d="M797.275 476.622V506.378C797.275 507.074 796.992 507.741 796.488 508.232C795.985 508.724 795.302 509 794.59 509H779.684C778.972 509 778.29 508.724 777.786 508.232C777.283 507.741 777 507.074 777 506.378V476.622C777 475.926 777.283 475.259 777.786 474.768C778.29 474.276 778.972 474 779.684 474H794.59C795.302 474 795.985 474.276 796.488 474.768C796.992 475.259 797.275 475.926 797.275 476.622ZM858.316 474H843.41C842.698 474 842.015 474.276 841.512 474.768C841.008 475.259 840.725 475.926 840.725 476.622V506.378C840.725 507.074 841.008 507.741 841.512 508.232C842.015 508.724 842.698 509 843.41 509H858.316C859.028 509 859.71 508.724 860.214 508.232C860.717 507.741 861 507.074 861 506.378V476.622C861 475.926 860.717 475.259 860.214 474.768C859.71 474.276 859.028 474 858.316 474Z" fill="#F0F7FF"/>
<path d="M798.213 515.342H775.699C774.984 515.342 774.297 515.057 773.791 514.551C773.284 514.044 773 513.358 773 512.641V510.7C773 509.984 773.284 509.297 773.791 508.791C774.297 508.284 774.984 508 775.699 508H798.213C798.929 508 799.616 508.284 800.122 508.791C800.628 509.297 800.913 509.984 800.913 510.7V512.641C800.913 513.358 800.628 514.044 800.122 514.551C799.616 515.057 798.929 515.342 798.213 515.342ZM865 512.641V510.7C865 509.984 864.716 509.297 864.209 508.791C863.703 508.284 863.016 508 862.301 508H839.787C839.071 508 838.384 508.284 837.878 508.791C837.372 509.297 837.087 509.984 837.087 510.7V512.641C837.087 513.358 837.372 514.044 837.878 514.551C838.384 515.057 839.071 515.342 839.787 515.342H862.301C863.016 515.342 863.703 515.057 864.209 514.551C864.716 514.044 865 513.358 865 512.641ZM841.829 555C845.191 555 847.594 551.838 846.837 548.562C843.92 535.925 832.6 526.504 819.08 526.504C805.561 526.504 794.24 535.925 791.323 548.562C790.567 551.838 792.969 555 796.331 555H841.829Z" fill="#337CA9"/>
<path d="M733 599.878V580.122C733.006 579.714 732.934 579.31 732.786 578.931C732.639 578.553 732.419 578.208 732.139 577.918C731.86 577.627 731.527 577.396 731.16 577.239C730.793 577.081 730.398 577 730 577C729.602 577 729.207 577.081 728.84 577.239C728.473 577.396 728.14 577.627 727.861 577.918C727.581 578.208 727.361 578.553 727.214 578.931C727.066 579.31 726.994 579.714 727 580.122V599.878C726.994 600.286 727.066 600.69 727.214 601.069C727.361 601.447 727.581 601.792 727.861 602.082C728.14 602.373 728.473 602.604 728.84 602.761C729.207 602.919 729.602 603 730 603C730.398 603 730.793 602.919 731.16 602.761C731.527 602.604 731.86 602.373 732.139 602.082C732.419 601.792 732.639 601.447 732.786 601.069C732.934 600.69 733.006 600.286 733 599.878Z" fill="#26486B"/>
<path d="M730.597 498.174C730.162 498.033 729.704 497.976 729.248 498.009C728.791 498.042 728.346 498.163 727.937 498.365C727.528 498.567 727.164 498.847 726.864 499.188C726.565 499.529 726.337 499.925 726.193 500.353C726.193 500.353 725.834 501.419 725.242 503.285C724.936 504.219 724.599 505.351 724.197 506.651L723.561 508.721L722.888 511.016C722.424 512.616 721.897 514.348 721.386 516.181L719.777 521.946C719.208 523.945 718.676 526.011 718.105 528.111L716.449 534.476C715.912 536.608 715.357 538.741 714.847 540.84C714.332 542.94 713.813 545.006 713.343 547.005C712.869 549.005 712.394 550.938 711.975 552.77L710.781 557.935C710.396 559.534 710.166 561.001 710.067 562.301C709.968 563.6 709.985 564.733 710.076 565.666C710.159 566.599 710.303 567.333 710.431 567.832C710.557 568.332 710.669 568.599 710.669 568.599C712.671 573.322 716.518 577.35 721.696 579.464C732.096 583.711 744.021 578.847 748.331 568.599C748.331 568.599 748.443 568.332 748.569 567.832C748.697 567.333 748.841 566.599 748.924 565.666C749.015 564.733 749.032 563.6 748.932 562.301C748.834 561.001 748.604 559.535 748.219 557.935L747.025 552.77C746.606 550.937 746.131 549.005 745.657 547.005C745.187 545.006 744.667 542.94 744.153 540.84C743.643 538.741 743.088 536.609 742.55 534.476L740.895 528.111C740.324 526.011 739.792 523.945 739.223 521.946L737.614 516.181C737.103 514.348 736.576 512.616 736.112 511.016L735.438 508.721L734.803 506.651C734.4 505.351 734.064 504.219 733.758 503.285C733.165 501.42 732.806 500.353 732.806 500.353C732.469 499.367 731.676 498.527 730.597 498.174Z" fill="#26486B"/>
<path d="M690 603.878V584.122C690.006 583.714 689.934 583.31 689.786 582.931C689.639 582.553 689.419 582.208 689.139 581.918C688.86 581.627 688.527 581.396 688.16 581.239C687.793 581.081 687.398 581 687 581C686.602 581 686.207 581.081 685.84 581.239C685.473 581.396 685.14 581.627 684.861 581.918C684.581 582.208 684.361 582.553 684.214 582.931C684.066 583.31 683.994 583.714 684 584.122V603.878C683.994 604.286 684.066 604.69 684.214 605.069C684.361 605.447 684.581 605.792 684.861 606.082C685.14 606.373 685.473 606.604 685.84 606.761C686.207 606.919 686.602 607 687 607C687.398 607 687.793 606.919 688.16 606.761C688.527 606.604 688.86 606.373 689.139 606.082C689.419 605.792 689.639 605.447 689.786 605.069C689.934 604.69 690.006 604.286 690 603.878Z" fill="#26486B"/>
<path d="M687.597 498.174C687.162 498.033 686.704 497.976 686.248 498.009C685.791 498.042 685.346 498.163 684.937 498.365C684.528 498.567 684.164 498.847 683.864 499.188C683.565 499.529 683.337 499.925 683.193 500.353C683.193 500.353 682.834 501.419 682.242 503.285C681.936 504.219 681.599 505.351 681.197 506.651L680.561 508.721L679.888 511.016C679.424 512.616 678.897 514.348 678.386 516.181L676.777 521.946C676.208 523.945 675.676 526.011 675.105 528.111L673.449 534.476C672.912 536.608 672.357 538.741 671.847 540.84C671.332 542.94 670.813 545.006 670.343 547.005C669.869 549.005 669.394 550.938 668.975 552.77L667.781 557.935C667.396 559.534 667.166 561.001 667.067 562.301C666.968 563.6 666.985 564.733 667.076 565.666C667.159 566.599 667.303 567.333 667.431 567.832C667.557 568.332 667.669 568.599 667.669 568.599C669.671 573.322 673.518 577.35 678.696 579.464C689.096 583.711 701.021 578.847 705.331 568.599C705.331 568.599 705.443 568.332 705.569 567.832C705.697 567.333 705.841 566.599 705.924 565.666C706.015 564.733 706.032 563.6 705.932 562.301C705.834 561.001 705.604 559.535 705.219 557.935L704.025 552.77C703.606 550.937 703.131 549.005 702.657 547.005C702.187 545.006 701.667 542.94 701.153 540.84C700.643 538.741 700.088 536.609 699.55 534.476L697.895 528.111C697.324 526.011 696.792 523.945 696.223 521.946L694.614 516.181C694.103 514.348 693.576 512.616 693.112 511.016L692.438 508.721L691.803 506.651C691.4 505.351 691.064 504.219 690.758 503.285C690.165 501.42 689.806 500.353 689.806 500.353C689.469 499.367 688.676 498.527 687.597 498.174Z" fill="#26486B"/>
<path d="M634 603.878V584.122C634.006 583.714 633.934 583.31 633.786 582.931C633.639 582.553 633.419 582.208 633.139 581.918C632.86 581.627 632.527 581.396 632.16 581.239C631.793 581.081 631.398 581 631 581C630.602 581 630.207 581.081 629.84 581.239C629.473 581.396 629.14 581.627 628.861 581.918C628.581 582.208 628.361 582.553 628.214 582.931C628.066 583.31 627.994 583.714 628 584.122V603.878C627.994 604.286 628.066 604.69 628.214 605.069C628.361 605.447 628.581 605.792 628.861 606.082C629.14 606.373 629.473 606.604 629.84 606.761C630.207 606.919 630.602 607 631 607C631.398 607 631.793 606.919 632.16 606.761C632.527 606.604 632.86 606.373 633.139 606.082C633.419 605.792 633.639 605.447 633.786 605.069C633.934 604.69 634.006 604.286 634 603.878Z" fill="#337CA9"/>
<path d="M631.597 500.174C631.162 500.033 630.704 499.976 630.248 500.009C629.791 500.042 629.346 500.163 628.937 500.365C628.528 500.567 628.164 500.847 627.864 501.188C627.565 501.529 627.337 501.925 627.193 502.353C627.193 502.353 626.834 503.419 626.242 505.285C625.936 506.219 625.599 507.351 625.197 508.651L624.561 510.721L623.888 513.016C623.424 514.616 622.897 516.348 622.386 518.181L620.777 523.946C620.208 525.945 619.676 528.011 619.105 530.111L617.449 536.476C616.912 538.608 616.357 540.741 615.847 542.84C615.332 544.94 614.813 547.006 614.343 549.005C613.869 551.005 613.394 552.938 612.975 554.77L611.781 559.935C611.396 561.534 611.166 563.001 611.067 564.301C610.968 565.6 610.985 566.733 611.076 567.666C611.159 568.599 611.303 569.333 611.431 569.832C611.557 570.332 611.669 570.599 611.669 570.599C613.671 575.322 617.518 579.35 622.696 581.464C633.096 585.711 645.021 580.847 649.331 570.599C649.331 570.599 649.443 570.332 649.569 569.832C649.697 569.333 649.841 568.599 649.924 567.666C650.015 566.733 650.032 565.6 649.932 564.301C649.834 563.001 649.604 561.535 649.219 559.935L648.025 554.77C647.606 552.937 647.131 551.005 646.657 549.005C646.187 547.006 645.667 544.94 645.153 542.84C644.643 540.741 644.088 538.609 643.55 536.476L641.895 530.111C641.324 528.011 640.792 525.945 640.223 523.946L638.614 518.181C638.103 516.348 637.576 514.616 637.112 513.016L636.438 510.721L635.803 508.651C635.4 507.351 635.064 506.219 634.758 505.285C634.165 503.42 633.806 502.353 633.806 502.353C633.469 501.367 632.676 500.527 631.597 500.174Z" fill="#337CA9"/>
<path d="M150.971 422.343C150.722 425.786 149.448 428.496 147.148 430.473C144.863 432.451 141.845 433.439 138.095 433.439C133.994 433.439 130.764 432.062 128.405 429.309C126.062 426.54 124.89 422.746 124.89 417.927V415.971C124.89 412.895 125.432 410.185 126.516 407.841C127.6 405.498 129.145 403.703 131.152 402.458C133.173 401.198 135.517 400.568 138.183 400.568C141.875 400.568 144.848 401.557 147.104 403.535C149.36 405.512 150.664 408.288 151.015 411.862H144.423C144.262 409.797 143.684 408.303 142.688 407.38C141.706 406.442 140.205 405.974 138.183 405.974C135.986 405.974 134.338 406.765 133.239 408.347C132.155 409.914 131.599 412.353 131.569 415.664V418.081C131.569 421.538 132.089 424.064 133.129 425.661C134.184 427.258 135.839 428.056 138.095 428.056C140.131 428.056 141.647 427.595 142.644 426.672C143.654 425.734 144.233 424.292 144.379 422.343H150.971ZM181.579 417.729C181.579 420.878 181.022 423.64 179.909 426.013C178.796 428.386 177.199 430.217 175.119 431.506C173.054 432.795 170.681 433.439 168 433.439C165.349 433.439 162.983 432.802 160.903 431.528C158.823 430.253 157.211 428.437 156.069 426.079C154.926 423.706 154.348 420.981 154.333 417.905V416.323C154.333 413.173 154.897 410.405 156.025 408.017C157.167 405.615 158.771 403.776 160.837 402.502C162.917 401.213 165.29 400.568 167.956 400.568C170.622 400.568 172.988 401.213 175.053 402.502C177.133 403.776 178.737 405.615 179.865 408.017C181.008 410.405 181.579 413.166 181.579 416.301V417.729ZM174.899 416.279C174.899 412.924 174.299 410.375 173.098 408.632C171.896 406.889 170.183 406.018 167.956 406.018C165.744 406.018 164.038 406.882 162.836 408.61C161.635 410.324 161.027 412.844 161.013 416.169V417.729C161.013 420.996 161.613 423.53 162.814 425.332C164.016 427.133 165.744 428.034 168 428.034C170.212 428.034 171.911 427.17 173.098 425.441C174.284 423.698 174.885 421.164 174.899 417.839V416.279ZM194.982 401.008L203.2 424.211L211.374 401.008H220.031V433H213.417V424.255L214.077 409.16L205.441 433H200.915L192.302 409.182L192.961 424.255V433H186.369V401.008H194.982ZM232.38 421.728V433H225.788V401.008H238.269C240.671 401.008 242.78 401.447 244.597 402.326C246.428 403.205 247.834 404.458 248.815 406.083C249.797 407.695 250.288 409.533 250.288 411.599C250.288 414.733 249.211 417.209 247.058 419.025C244.919 420.827 241.953 421.728 238.159 421.728H232.38ZM232.38 416.389H238.269C240.012 416.389 241.337 415.979 242.246 415.158C243.168 414.338 243.63 413.166 243.63 411.643C243.63 410.075 243.168 408.808 242.246 407.841C241.323 406.875 240.048 406.376 238.422 406.347H232.38V416.389ZM268.986 426.408H257.429L255.231 433H248.222L260.131 401.008H266.24L278.215 433H271.206L268.986 426.408ZM259.208 421.069H267.207L263.186 409.094L259.208 421.069ZM307.219 433H300.627L287.795 411.95V433H281.203V401.008H287.795L300.649 422.102V401.008H307.219V433ZM323.391 415.422L330.048 401.008H337.255L326.752 421.398V433H320.051V421.398L309.548 401.008H316.777L323.391 415.422Z" fill="#26486B"/>
<path d="M380.301 433H376.06L359.954 408.347V433H355.713V401.008H359.954L376.104 425.771V401.008H380.301V433ZM405.855 424.65H392.452L389.441 433H385.091L397.308 401.008H400.999L413.238 433H408.909L405.855 424.65ZM393.726 421.179H404.603L399.153 406.215L393.726 421.179ZM422.994 401.008L433.453 427.111L443.912 401.008H449.383V433H445.164V420.542L445.56 407.094L435.057 433H431.827L421.346 407.16L421.763 420.542V433H417.544V401.008H422.994ZM474.915 418.212H461.05V429.55H477.156V433H456.832V401.008H476.937V404.479H461.05V414.763H474.915V418.212Z" fill="#337CA9"/>
<path d="M164.896 160.397L165.238 162.741L165.738 160.629L169.254 148.227H171.231L174.662 160.629L175.15 162.777L175.528 160.385L178.287 148.227H180.643L176.334 166H174.198L170.536 153.048L170.255 151.693L169.974 153.048L166.178 166H164.042L159.745 148.227H162.088L164.896 160.397ZM187.088 160.397L187.43 162.741L187.931 160.629L191.446 148.227H193.424L196.854 160.629L197.342 162.777L197.721 160.385L200.479 148.227H202.835L198.526 166H196.39L192.728 153.048L192.447 151.693L192.167 153.048L188.37 166H186.234L181.937 148.227H184.281L187.088 160.397ZM209.281 160.397L209.623 162.741L210.123 160.629L213.639 148.227H215.616L219.046 160.629L219.535 162.777L219.913 160.385L222.672 148.227H225.028L220.719 166H218.583L214.92 153.048L214.64 151.693L214.359 153.048L210.562 166H208.426L204.129 148.227H206.473L209.281 160.397ZM225.821 164.816C225.821 164.425 225.935 164.1 226.163 163.839C226.399 163.579 226.749 163.449 227.213 163.449C227.677 163.449 228.027 163.579 228.263 163.839C228.507 164.1 228.629 164.425 228.629 164.816C228.629 165.19 228.507 165.504 228.263 165.756C228.027 166.008 227.677 166.134 227.213 166.134C226.749 166.134 226.399 166.008 226.163 165.756C225.935 165.504 225.821 165.19 225.821 164.816ZM236.551 160.397L236.893 162.741L237.394 160.629L240.909 148.227H242.887L246.317 160.629L246.805 162.777L247.184 160.385L249.942 148.227H252.298L247.989 166H245.853L242.191 153.048L241.91 151.693L241.629 153.048L237.833 166H235.697L231.4 148.227H233.744L236.551 160.397ZM264.957 157.785H257.254V164.083H266.202V166H254.911V148.227H266.08V150.155H257.254V155.868H264.957V157.785ZM269.12 166V148.227H274.93C276.859 148.227 278.307 148.625 279.276 149.423C280.252 150.22 280.741 151.4 280.741 152.963C280.741 153.793 280.505 154.529 280.033 155.172C279.561 155.807 278.918 156.299 278.104 156.649C279.064 156.918 279.821 157.431 280.375 158.188C280.936 158.936 281.217 159.831 281.217 160.873C281.217 162.468 280.7 163.721 279.667 164.633C278.633 165.544 277.172 166 275.284 166H269.12ZM271.463 157.687V164.083H275.333C276.424 164.083 277.282 163.803 277.909 163.241C278.543 162.672 278.861 161.89 278.861 160.897C278.861 158.757 277.697 157.687 275.37 157.687H271.463ZM271.463 155.807H275.003C276.029 155.807 276.847 155.551 277.457 155.038C278.076 154.525 278.385 153.83 278.385 152.951C278.385 151.974 278.1 151.266 277.53 150.827C276.961 150.379 276.094 150.155 274.93 150.155H271.463V155.807ZM289.933 158.078C287.923 157.5 286.458 156.792 285.538 155.954C284.627 155.107 284.171 154.066 284.171 152.829C284.171 151.429 284.728 150.273 285.843 149.362C286.966 148.442 288.423 147.982 290.213 147.982C291.434 147.982 292.521 148.218 293.473 148.69C294.433 149.162 295.174 149.813 295.694 150.644C296.223 151.474 296.488 152.381 296.488 153.366H294.132C294.132 152.292 293.79 151.449 293.106 150.839C292.423 150.22 291.458 149.911 290.213 149.911C289.058 149.911 288.154 150.167 287.503 150.68C286.861 151.185 286.539 151.889 286.539 152.792C286.539 153.516 286.844 154.131 287.455 154.635C288.073 155.132 289.119 155.587 290.592 156.002C292.073 156.417 293.229 156.877 294.059 157.382C294.897 157.878 295.515 158.46 295.914 159.127C296.321 159.795 296.524 160.58 296.524 161.483C296.524 162.924 295.963 164.079 294.84 164.95C293.717 165.813 292.215 166.244 290.335 166.244C289.115 166.244 287.975 166.012 286.917 165.548C285.86 165.076 285.042 164.433 284.464 163.62C283.894 162.806 283.609 161.882 283.609 160.849H285.965C285.965 161.923 286.36 162.773 287.149 163.4C287.947 164.018 289.009 164.328 290.335 164.328C291.572 164.328 292.521 164.075 293.18 163.571C293.839 163.066 294.168 162.379 294.168 161.508C294.168 160.637 293.863 159.966 293.253 159.494C292.643 159.014 291.536 158.542 289.933 158.078ZM302.054 166H299.71V148.227H302.054V166ZM318.265 150.155H312.552V166H310.221V150.155H304.52V148.227H318.265V150.155ZM330.948 157.785H323.246V164.083H332.193V166H320.902V148.227H332.071V150.155H323.246V155.868H330.948V157.785ZM348.771 166H346.415L337.467 152.304V166H335.111V148.227H337.467L346.439 161.984V148.227H348.771V166ZM362.967 161.361H355.521L353.849 166H351.432L358.219 148.227H360.27L367.069 166H364.664L362.967 161.361ZM356.229 159.433H362.271L359.244 151.12L356.229 159.433ZM372.489 148.227L378.299 162.729L384.11 148.227H387.149V166H384.806V159.079L385.025 151.608L379.19 166H377.396L371.573 151.645L371.805 159.079V166H369.461V148.227H372.489ZM401.334 157.785H393.631V164.083H402.579V166H391.288V148.227H402.457V150.155H393.631V155.868H401.334V157.785ZM405.191 164.816C405.191 164.425 405.305 164.1 405.533 163.839C405.769 163.579 406.119 163.449 406.583 163.449C407.047 163.449 407.397 163.579 407.633 163.839C407.877 164.1 407.999 164.425 407.999 164.816C407.999 165.19 407.877 165.504 407.633 165.756C407.397 166.008 407.047 166.134 406.583 166.134C406.119 166.134 405.769 166.008 405.533 165.756C405.305 165.504 405.191 165.19 405.191 164.816ZM425.162 160.36C424.942 162.24 424.247 163.693 423.075 164.718C421.911 165.736 420.361 166.244 418.424 166.244C416.324 166.244 414.64 165.491 413.37 163.986C412.109 162.48 411.478 160.466 411.478 157.943V156.234C411.478 154.582 411.771 153.13 412.357 151.876C412.951 150.623 413.789 149.663 414.872 148.996C415.954 148.32 417.207 147.982 418.631 147.982C420.519 147.982 422.033 148.511 423.172 149.569C424.312 150.619 424.975 152.076 425.162 153.939H422.806C422.603 152.523 422.159 151.498 421.476 150.863C420.8 150.229 419.852 149.911 418.631 149.911C417.134 149.911 415.958 150.465 415.104 151.571C414.257 152.678 413.834 154.253 413.834 156.295V158.017C413.834 159.945 414.237 161.479 415.042 162.619C415.848 163.758 416.975 164.328 418.424 164.328C419.726 164.328 420.723 164.035 421.415 163.449C422.114 162.855 422.578 161.825 422.806 160.36H425.162ZM442.044 157.687C442.044 159.429 441.751 160.95 441.166 162.252C440.58 163.546 439.75 164.535 438.675 165.219C437.601 165.902 436.348 166.244 434.916 166.244C433.516 166.244 432.275 165.902 431.192 165.219C430.11 164.527 429.268 163.546 428.666 162.277C428.071 160.999 427.766 159.522 427.75 157.846V156.564C427.75 154.855 428.047 153.345 428.641 152.035C429.235 150.725 430.073 149.724 431.156 149.032C432.246 148.332 433.491 147.982 434.891 147.982C436.315 147.982 437.569 148.328 438.651 149.02C439.741 149.704 440.58 150.701 441.166 152.011C441.751 153.313 442.044 154.831 442.044 156.564V157.687ZM439.713 156.54C439.713 154.432 439.29 152.816 438.443 151.693C437.597 150.562 436.413 149.997 434.891 149.997C433.41 149.997 432.242 150.562 431.388 151.693C430.541 152.816 430.106 154.379 430.082 156.381V157.687C430.082 159.73 430.509 161.337 431.363 162.509C432.226 163.673 433.41 164.254 434.916 164.254C436.429 164.254 437.601 163.705 438.431 162.606C439.261 161.5 439.688 159.917 439.713 157.858V156.54ZM448.587 148.227L454.398 162.729L460.208 148.227H463.248V166H460.904V159.079L461.124 151.608L455.289 166H453.495L447.672 151.645L447.904 159.079V166H445.56V148.227H448.587Z" fill="#337CA9"/>
<path d="M235.186 192.668C234.583 193.531 233.741 194.178 232.659 194.609C231.584 195.033 230.331 195.244 228.899 195.244C227.45 195.244 226.165 194.906 225.042 194.231C223.918 193.547 223.048 192.579 222.429 191.326C221.819 190.072 221.506 188.62 221.489 186.968V185.417C221.489 182.74 222.112 180.665 223.357 179.192C224.61 177.719 226.368 176.982 228.63 176.982C230.486 176.982 231.979 177.458 233.11 178.411C234.242 179.355 234.933 180.697 235.186 182.439H232.842C232.402 180.087 231.003 178.911 228.643 178.911C227.072 178.911 225.88 179.465 225.066 180.571C224.26 181.67 223.853 183.265 223.845 185.356V186.809C223.845 188.803 224.301 190.39 225.212 191.57C226.124 192.742 227.357 193.328 228.911 193.328C229.79 193.328 230.559 193.23 231.218 193.035C231.877 192.839 232.423 192.51 232.854 192.046V188.054H228.74V186.15H235.186V192.668ZM249.15 186.785H241.448V193.083H250.396V195H239.104V177.227H250.273V179.155H241.448V184.868H249.15V186.785ZM266.985 186.687C266.985 188.429 266.692 189.95 266.106 191.252C265.52 192.546 264.69 193.535 263.616 194.219C262.542 194.902 261.288 195.244 259.856 195.244C258.456 195.244 257.215 194.902 256.133 194.219C255.05 193.527 254.208 192.546 253.606 191.277C253.012 189.999 252.707 188.522 252.69 186.846V185.564C252.69 183.855 252.987 182.345 253.582 181.035C254.176 179.725 255.014 178.724 256.096 178.032C257.187 177.332 258.432 176.982 259.832 176.982C261.256 176.982 262.509 177.328 263.591 178.02C264.682 178.704 265.52 179.701 266.106 181.011C266.692 182.313 266.985 183.831 266.985 185.564V186.687ZM264.653 185.54C264.653 183.432 264.23 181.816 263.384 180.693C262.537 179.562 261.353 178.997 259.832 178.997C258.35 178.997 257.183 179.562 256.328 180.693C255.482 181.816 255.046 183.379 255.022 185.381V186.687C255.022 188.73 255.449 190.337 256.304 191.509C257.166 192.673 258.35 193.254 259.856 193.254C261.37 193.254 262.542 192.705 263.372 191.606C264.202 190.5 264.629 188.917 264.653 186.858V185.54ZM268.828 198.54L267.546 197.661C268.311 196.595 268.71 195.496 268.743 194.365V192.327H270.952V194.097C270.952 194.919 270.749 195.741 270.342 196.562C269.943 197.384 269.438 198.044 268.828 198.54ZM292.156 179.155H286.443V195H284.111V179.155H278.411V177.227H292.156V179.155ZM294.792 195V177.227H300.603C302.532 177.227 303.98 177.625 304.949 178.423C305.925 179.22 306.414 180.4 306.414 181.963C306.414 182.793 306.178 183.529 305.706 184.172C305.234 184.807 304.591 185.299 303.777 185.649C304.737 185.918 305.494 186.431 306.047 187.188C306.609 187.936 306.89 188.831 306.89 189.873C306.89 191.468 306.373 192.721 305.339 193.633C304.306 194.544 302.845 195 300.957 195H294.792ZM297.136 186.687V193.083H301.006C302.096 193.083 302.955 192.803 303.582 192.241C304.216 191.672 304.534 190.89 304.534 189.897C304.534 187.757 303.37 186.687 301.042 186.687H297.136ZM297.136 184.807H300.676C301.702 184.807 302.52 184.551 303.13 184.038C303.748 183.525 304.058 182.83 304.058 181.951C304.058 180.974 303.773 180.266 303.203 179.827C302.633 179.379 301.767 179.155 300.603 179.155H297.136V184.807ZM312.883 195H310.54V177.227H312.883V195ZM319.536 193.083H327.959V195H317.18V177.227H319.536V193.083ZM333.147 195H330.803V177.227H333.147V195ZM342.681 187.078C340.671 186.5 339.206 185.792 338.286 184.954C337.375 184.107 336.919 183.066 336.919 181.829C336.919 180.429 337.476 179.273 338.591 178.362C339.714 177.442 341.171 176.982 342.961 176.982C344.182 176.982 345.269 177.218 346.221 177.69C347.181 178.162 347.922 178.813 348.442 179.644C348.971 180.474 349.236 181.381 349.236 182.366H346.88C346.88 181.292 346.538 180.449 345.854 179.839C345.171 179.22 344.207 178.911 342.961 178.911C341.806 178.911 340.903 179.167 340.251 179.68C339.609 180.185 339.287 180.889 339.287 181.792C339.287 182.516 339.592 183.131 340.203 183.635C340.821 184.132 341.867 184.587 343.34 185.002C344.821 185.417 345.977 185.877 346.807 186.382C347.645 186.878 348.263 187.46 348.662 188.127C349.069 188.795 349.272 189.58 349.272 190.483C349.272 191.924 348.711 193.079 347.588 193.95C346.465 194.813 344.963 195.244 343.083 195.244C341.863 195.244 340.723 195.012 339.666 194.548C338.608 194.076 337.79 193.433 337.212 192.62C336.642 191.806 336.357 190.882 336.357 189.849H338.713C338.713 190.923 339.108 191.773 339.897 192.4C340.695 193.018 341.757 193.328 343.083 193.328C344.32 193.328 345.269 193.075 345.928 192.571C346.587 192.066 346.917 191.379 346.917 190.508C346.917 189.637 346.611 188.966 346.001 188.494C345.391 188.014 344.284 187.542 342.681 187.078ZM354.802 195H352.458V177.227H354.802V195ZM372.136 195H369.866V179.949L365.312 181.621V179.57L371.782 177.141H372.136V195ZM390.398 195H378.752V193.376L384.905 186.541C385.816 185.507 386.443 184.669 386.785 184.026C387.135 183.375 387.31 182.703 387.31 182.012C387.31 181.084 387.029 180.323 386.467 179.729C385.906 179.135 385.157 178.838 384.221 178.838C383.098 178.838 382.223 179.159 381.597 179.802C380.978 180.437 380.669 181.324 380.669 182.463H378.411C378.411 180.828 378.936 179.505 379.985 178.496C381.043 177.487 382.455 176.982 384.221 176.982C385.873 176.982 387.179 177.418 388.14 178.289C389.1 179.151 389.58 180.303 389.58 181.743C389.58 183.493 388.465 185.576 386.235 187.993L381.475 193.157H390.398V195ZM396.074 185.015H397.771C398.837 184.998 399.675 184.718 400.286 184.172C400.896 183.627 401.201 182.891 401.201 181.963C401.201 179.88 400.164 178.838 398.088 178.838C397.112 178.838 396.331 179.119 395.745 179.68C395.167 180.234 394.878 180.97 394.878 181.89H392.62C392.62 180.482 393.132 179.314 394.158 178.386C395.191 177.45 396.501 176.982 398.088 176.982C399.765 176.982 401.079 177.426 402.031 178.313C402.983 179.2 403.459 180.433 403.459 182.012C403.459 182.785 403.207 183.534 402.703 184.258C402.206 184.982 401.527 185.523 400.664 185.881C401.641 186.191 402.393 186.703 402.922 187.419C403.459 188.136 403.728 189.01 403.728 190.044C403.728 191.639 403.207 192.904 402.166 193.84C401.124 194.776 399.769 195.244 398.101 195.244C396.432 195.244 395.073 194.792 394.023 193.889C392.982 192.986 392.461 191.794 392.461 190.312H394.731C394.731 191.248 395.037 191.997 395.647 192.559C396.257 193.12 397.075 193.401 398.101 193.401C399.191 193.401 400.025 193.116 400.603 192.546C401.181 191.977 401.47 191.159 401.47 190.093C401.47 189.059 401.152 188.266 400.518 187.712C399.883 187.159 398.967 186.874 397.771 186.858H396.074V185.015Z" fill="#337CA9"/>
<path d="M167.179 214.466H172.135V216.603H167.179V222.218H164.908V216.603H159.952V214.466H164.908V209.278H167.179V214.466ZM183.316 216.188C182.844 216.749 182.279 217.201 181.62 217.542C180.969 217.884 180.252 218.055 179.471 218.055C178.446 218.055 177.551 217.803 176.786 217.298C176.029 216.794 175.443 216.086 175.028 215.174C174.613 214.255 174.405 213.242 174.405 212.135C174.405 210.947 174.629 209.876 175.077 208.924C175.532 207.972 176.175 207.244 177.005 206.739C177.835 206.235 178.804 205.982 179.911 205.982C181.668 205.982 183.052 206.642 184.061 207.96C185.078 209.27 185.587 211.061 185.587 213.331V213.99C185.587 217.449 184.903 219.976 183.536 221.571C182.169 223.158 180.106 223.972 177.347 224.012H176.908V222.108H177.384C179.247 222.075 180.68 221.591 181.681 220.655C182.682 219.711 183.227 218.222 183.316 216.188ZM179.837 216.188C180.594 216.188 181.29 215.956 181.925 215.492C182.568 215.028 183.036 214.454 183.329 213.771V212.867C183.329 211.386 183.007 210.182 182.364 209.254C181.721 208.326 180.908 207.862 179.923 207.862C178.93 207.862 178.132 208.245 177.53 209.01C176.928 209.767 176.627 210.768 176.627 212.013C176.627 213.225 176.916 214.226 177.494 215.016C178.08 215.797 178.861 216.188 179.837 216.188ZM197.354 216.188C196.882 216.749 196.317 217.201 195.658 217.542C195.007 217.884 194.291 218.055 193.509 218.055C192.484 218.055 191.589 217.803 190.824 217.298C190.067 216.794 189.481 216.086 189.066 215.174C188.651 214.255 188.443 213.242 188.443 212.135C188.443 210.947 188.667 209.876 189.115 208.924C189.57 207.972 190.213 207.244 191.043 206.739C191.874 206.235 192.842 205.982 193.949 205.982C195.707 205.982 197.09 206.642 198.099 207.96C199.116 209.27 199.625 211.061 199.625 213.331V213.99C199.625 217.449 198.941 219.976 197.574 221.571C196.207 223.158 194.144 223.972 191.385 224.012H190.946V222.108H191.422C193.285 222.075 194.718 221.591 195.719 220.655C196.72 219.711 197.265 218.222 197.354 216.188ZM193.875 216.188C194.632 216.188 195.328 215.956 195.963 215.492C196.606 215.028 197.074 214.454 197.367 213.771V212.867C197.367 211.386 197.045 210.182 196.402 209.254C195.759 208.326 194.946 207.862 193.961 207.862C192.968 207.862 192.171 208.245 191.568 209.01C190.966 209.767 190.665 210.768 190.665 212.013C190.665 213.225 190.954 214.226 191.532 215.016C192.118 215.797 192.899 216.188 193.875 216.188ZM203.775 215.089L204.679 206.227H213.785V208.314H206.595L206.058 213.16C206.929 212.647 207.918 212.391 209.024 212.391C210.644 212.391 211.93 212.928 212.882 214.002C213.834 215.069 214.31 216.513 214.31 218.336C214.31 220.167 213.814 221.611 212.821 222.669C211.836 223.719 210.457 224.244 208.683 224.244C207.112 224.244 205.83 223.809 204.837 222.938C203.845 222.067 203.279 220.863 203.141 219.325H205.277C205.415 220.342 205.777 221.111 206.363 221.632C206.949 222.145 207.722 222.401 208.683 222.401C209.732 222.401 210.554 222.043 211.148 221.327C211.751 220.611 212.052 219.622 212.052 218.36C212.052 217.172 211.726 216.22 211.075 215.504C210.432 214.78 209.574 214.417 208.5 214.417C207.515 214.417 206.742 214.633 206.18 215.064L205.582 215.553L203.775 215.089ZM234.623 224H222.977V222.376L229.129 215.541C230.041 214.507 230.667 213.669 231.009 213.026C231.359 212.375 231.534 211.703 231.534 211.012C231.534 210.084 231.253 209.323 230.692 208.729C230.13 208.135 229.382 207.838 228.446 207.838C227.323 207.838 226.448 208.159 225.821 208.802C225.203 209.437 224.894 210.324 224.894 211.463H222.635C222.635 209.828 223.16 208.505 224.21 207.496C225.268 206.487 226.68 205.982 228.446 205.982C230.098 205.982 231.404 206.418 232.364 207.289C233.325 208.151 233.805 209.303 233.805 210.743C233.805 212.493 232.69 214.576 230.46 216.993L225.699 222.157H234.623V224ZM240.299 214.015H241.996C243.062 213.998 243.9 213.718 244.51 213.172C245.121 212.627 245.426 211.891 245.426 210.963C245.426 208.88 244.388 207.838 242.313 207.838C241.336 207.838 240.555 208.119 239.969 208.68C239.391 209.234 239.103 209.97 239.103 210.89H236.844C236.844 209.482 237.357 208.314 238.382 207.386C239.416 206.45 240.726 205.982 242.313 205.982C243.989 205.982 245.304 206.426 246.256 207.313C247.208 208.2 247.684 209.433 247.684 211.012C247.684 211.785 247.432 212.534 246.927 213.258C246.431 213.982 245.751 214.523 244.889 214.881C245.865 215.191 246.618 215.703 247.147 216.419C247.684 217.136 247.953 218.01 247.953 219.044C247.953 220.639 247.432 221.904 246.39 222.84C245.348 223.776 243.993 224.244 242.325 224.244C240.657 224.244 239.298 223.792 238.248 222.889C237.206 221.986 236.686 220.794 236.686 219.312H238.956C238.956 220.248 239.261 220.997 239.872 221.559C240.482 222.12 241.3 222.401 242.325 222.401C243.416 222.401 244.25 222.116 244.828 221.546C245.405 220.977 245.694 220.159 245.694 219.093C245.694 218.059 245.377 217.266 244.742 216.712C244.107 216.159 243.192 215.874 241.996 215.858H240.299V214.015ZM260.587 218.031H263.053V219.874H260.587V224H258.316V219.874H250.223V218.543L258.182 206.227H260.587V218.031ZM252.787 218.031H258.316V209.315L258.048 209.803L252.787 218.031ZM282.071 210.865C282.071 211.752 281.835 212.542 281.363 213.233C280.899 213.925 280.269 214.466 279.471 214.857C280.399 215.256 281.131 215.838 281.668 216.603C282.214 217.368 282.486 218.234 282.486 219.203C282.486 220.741 281.965 221.965 280.924 222.877C279.89 223.788 278.527 224.244 276.834 224.244C275.125 224.244 273.754 223.788 272.721 222.877C271.695 221.957 271.183 220.733 271.183 219.203C271.183 218.242 271.443 217.376 271.964 216.603C272.493 215.829 273.221 215.243 274.149 214.845C273.36 214.454 272.737 213.913 272.281 213.221C271.826 212.529 271.598 211.744 271.598 210.865C271.598 209.368 272.078 208.18 273.038 207.301C273.998 206.422 275.264 205.982 276.834 205.982C278.397 205.982 279.658 206.422 280.619 207.301C281.587 208.18 282.071 209.368 282.071 210.865ZM280.228 219.154C280.228 218.161 279.911 217.351 279.276 216.725C278.649 216.098 277.827 215.785 276.81 215.785C275.793 215.785 274.975 216.094 274.356 216.712C273.746 217.331 273.441 218.145 273.441 219.154C273.441 220.163 273.738 220.956 274.332 221.534C274.934 222.112 275.768 222.401 276.834 222.401C277.892 222.401 278.722 222.112 279.325 221.534C279.927 220.948 280.228 220.155 280.228 219.154ZM276.834 207.838C275.947 207.838 275.227 208.115 274.674 208.668C274.129 209.213 273.856 209.958 273.856 210.902C273.856 211.805 274.125 212.538 274.662 213.099C275.207 213.653 275.931 213.929 276.834 213.929C277.738 213.929 278.458 213.653 278.995 213.099C279.54 212.538 279.813 211.805 279.813 210.902C279.813 209.999 279.532 209.262 278.971 208.692C278.409 208.123 277.697 207.838 276.834 207.838ZM294.193 206.214V208.131H293.778C292.02 208.163 290.62 208.684 289.579 209.693C288.537 210.702 287.935 212.123 287.772 213.954C288.708 212.879 289.986 212.342 291.605 212.342C293.151 212.342 294.384 212.888 295.304 213.978C296.231 215.069 296.695 216.476 296.695 218.202C296.695 220.033 296.195 221.498 295.194 222.596C294.201 223.695 292.866 224.244 291.19 224.244C289.489 224.244 288.11 223.593 287.052 222.291C285.994 220.981 285.465 219.296 285.465 217.237V216.371C285.465 213.099 286.161 210.601 287.552 208.875C288.952 207.142 291.031 206.255 293.79 206.214H294.193ZM291.227 214.222C290.453 214.222 289.741 214.454 289.09 214.918C288.439 215.382 287.988 215.964 287.735 216.664V217.494C287.735 218.958 288.065 220.139 288.724 221.034C289.383 221.929 290.205 222.376 291.19 222.376C292.207 222.376 293.005 222.002 293.583 221.253C294.168 220.505 294.461 219.524 294.461 218.312C294.461 217.091 294.164 216.106 293.57 215.357C292.984 214.601 292.203 214.222 291.227 214.222ZM308.023 216.188C307.551 216.749 306.986 217.201 306.327 217.542C305.676 217.884 304.959 218.055 304.178 218.055C303.153 218.055 302.258 217.803 301.493 217.298C300.736 216.794 300.15 216.086 299.735 215.174C299.32 214.255 299.112 213.242 299.112 212.135C299.112 210.947 299.336 209.876 299.784 208.924C300.239 207.972 300.882 207.244 301.712 206.739C302.542 206.235 303.511 205.982 304.618 205.982C306.375 205.982 307.759 206.642 308.768 207.96C309.785 209.27 310.294 211.061 310.294 213.331V213.99C310.294 217.449 309.61 219.976 308.243 221.571C306.876 223.158 304.813 223.972 302.054 224.012H301.615V222.108H302.091C303.954 222.075 305.387 221.591 306.388 220.655C307.389 219.711 307.934 218.222 308.023 216.188ZM304.544 216.188C305.301 216.188 305.997 215.956 306.632 215.492C307.275 215.028 307.743 214.454 308.036 213.771V212.867C308.036 211.386 307.714 210.182 307.071 209.254C306.428 208.326 305.615 207.862 304.63 207.862C303.637 207.862 302.84 208.245 302.237 209.01C301.635 209.767 301.334 210.768 301.334 212.013C301.334 213.225 301.623 214.226 302.201 215.016C302.787 215.797 303.568 216.188 304.544 216.188ZM314.444 215.089L315.348 206.227H324.454V208.314H317.264L316.727 213.16C317.598 212.647 318.587 212.391 319.693 212.391C321.313 212.391 322.599 212.928 323.551 214.002C324.503 215.069 324.979 216.513 324.979 218.336C324.979 220.167 324.483 221.611 323.49 222.669C322.505 223.719 321.126 224.244 319.352 224.244C317.781 224.244 316.499 223.809 315.506 222.938C314.514 222.067 313.948 220.863 313.81 219.325H315.946C316.084 220.342 316.446 221.111 317.032 221.632C317.618 222.145 318.391 222.401 319.352 222.401C320.401 222.401 321.223 222.043 321.817 221.327C322.42 220.611 322.721 219.622 322.721 218.36C322.721 217.172 322.395 216.22 321.744 215.504C321.101 214.78 320.243 214.417 319.168 214.417C318.184 214.417 317.411 214.633 316.849 215.064L316.251 215.553L314.444 215.089ZM336.979 218.031H339.444V219.874H336.979V224H334.708V219.874H326.615V218.543L334.574 206.227H336.979V218.031ZM329.178 218.031H334.708V209.315L334.439 209.803L329.178 218.031ZM344.767 214.015H346.463C347.529 213.998 348.368 213.718 348.978 213.172C349.588 212.627 349.894 211.891 349.894 210.963C349.894 208.88 348.856 207.838 346.781 207.838C345.804 207.838 345.023 208.119 344.437 208.68C343.859 209.234 343.57 209.97 343.57 210.89H341.312C341.312 209.482 341.825 208.314 342.85 207.386C343.884 206.45 345.194 205.982 346.781 205.982C348.457 205.982 349.771 206.426 350.724 207.313C351.676 208.2 352.152 209.433 352.152 211.012C352.152 211.785 351.9 212.534 351.395 213.258C350.899 213.982 350.219 214.523 349.356 214.881C350.333 215.191 351.086 215.703 351.615 216.419C352.152 217.136 352.42 218.01 352.42 219.044C352.42 220.639 351.9 221.904 350.858 222.84C349.816 223.776 348.461 224.244 346.793 224.244C345.125 224.244 343.766 223.792 342.716 222.889C341.674 221.986 341.153 220.794 341.153 219.312H343.424C343.424 220.248 343.729 220.997 344.339 221.559C344.95 222.12 345.768 222.401 346.793 222.401C347.883 222.401 348.718 222.116 349.295 221.546C349.873 220.977 350.162 220.159 350.162 219.093C350.162 218.059 349.845 217.266 349.21 216.712C348.575 216.159 347.66 215.874 346.463 215.858H344.767V214.015ZM367.167 224H355.521V222.376L361.673 215.541C362.585 214.507 363.211 213.669 363.553 213.026C363.903 212.375 364.078 211.703 364.078 211.012C364.078 210.084 363.797 209.323 363.236 208.729C362.674 208.135 361.926 207.838 360.99 207.838C359.867 207.838 358.992 208.159 358.365 208.802C357.747 209.437 357.438 210.324 357.438 211.463H355.179C355.179 209.828 355.704 208.505 356.754 207.496C357.812 206.487 359.224 205.982 360.99 205.982C362.642 205.982 363.948 206.418 364.908 207.289C365.868 208.151 366.349 209.303 366.349 210.743C366.349 212.493 365.234 214.576 363.004 216.993L358.243 222.157H367.167V224ZM370.597 215.089L371.5 206.227H380.606V208.314H373.417L372.879 213.16C373.75 212.647 374.739 212.391 375.846 212.391C377.465 212.391 378.751 212.928 379.703 214.002C380.655 215.069 381.131 216.513 381.131 218.336C381.131 220.167 380.635 221.611 379.642 222.669C378.657 223.719 377.278 224.244 375.504 224.244C373.933 224.244 372.652 223.809 371.659 222.938C370.666 222.067 370.1 220.863 369.962 219.325H372.098C372.236 220.342 372.599 221.111 373.185 221.632C373.771 222.145 374.544 222.401 375.504 222.401C376.554 222.401 377.376 222.043 377.97 221.327C378.572 220.611 378.873 219.622 378.873 218.36C378.873 217.172 378.548 216.22 377.896 215.504C377.254 214.78 376.395 214.417 375.321 214.417C374.336 214.417 373.563 214.633 373.001 215.064L372.403 215.553L370.597 215.089ZM394.376 210.865C394.376 211.752 394.14 212.542 393.668 213.233C393.204 213.925 392.573 214.466 391.776 214.857C392.704 215.256 393.436 215.838 393.973 216.603C394.518 217.368 394.791 218.234 394.791 219.203C394.791 220.741 394.27 221.965 393.229 222.877C392.195 223.788 390.832 224.244 389.139 224.244C387.43 224.244 386.059 223.788 385.025 222.877C384 221.957 383.487 220.733 383.487 219.203C383.487 218.242 383.748 217.376 384.269 216.603C384.798 215.829 385.526 215.243 386.454 214.845C385.664 214.454 385.042 213.913 384.586 213.221C384.13 212.529 383.902 211.744 383.902 210.865C383.902 209.368 384.382 208.18 385.343 207.301C386.303 206.422 387.569 205.982 389.139 205.982C390.702 205.982 391.963 206.422 392.923 207.301C393.892 208.18 394.376 209.368 394.376 210.865ZM392.533 219.154C392.533 218.161 392.215 217.351 391.581 216.725C390.954 216.098 390.132 215.785 389.115 215.785C388.097 215.785 387.28 216.094 386.661 216.712C386.051 217.331 385.746 218.145 385.746 219.154C385.746 220.163 386.043 220.956 386.637 221.534C387.239 222.112 388.073 222.401 389.139 222.401C390.197 222.401 391.027 222.112 391.629 221.534C392.232 220.948 392.533 220.155 392.533 219.154ZM389.139 207.838C388.252 207.838 387.532 208.115 386.979 208.668C386.433 209.213 386.161 209.958 386.161 210.902C386.161 211.805 386.429 212.538 386.966 213.099C387.512 213.653 388.236 213.929 389.139 213.929C390.042 213.929 390.763 213.653 391.3 213.099C391.845 212.538 392.118 211.805 392.118 210.902C392.118 209.999 391.837 209.262 391.275 208.692C390.714 208.123 390.002 207.838 389.139 207.838ZM407.169 218.031H409.635V219.874H407.169V224H404.898V219.874H396.805V218.543L404.764 206.227H407.169V218.031ZM399.369 218.031H404.898V209.315L404.63 209.803L399.369 218.031ZM420.328 216.188C419.856 216.749 419.291 217.201 418.631 217.542C417.98 217.884 417.264 218.055 416.483 218.055C415.458 218.055 414.562 217.803 413.797 217.298C413.041 216.794 412.455 216.086 412.04 215.174C411.625 214.255 411.417 213.242 411.417 212.135C411.417 210.947 411.641 209.876 412.088 208.924C412.544 207.972 413.187 207.244 414.017 206.739C414.847 206.235 415.816 205.982 416.922 205.982C418.68 205.982 420.064 206.642 421.073 207.96C422.09 209.27 422.599 211.061 422.599 213.331V213.99C422.599 217.449 421.915 219.976 420.548 221.571C419.181 223.158 417.118 223.972 414.359 224.012H413.919V222.108H414.396C416.259 222.075 417.691 221.591 418.692 220.655C419.693 219.711 420.239 218.222 420.328 216.188ZM416.849 216.188C417.606 216.188 418.302 215.956 418.937 215.492C419.579 215.028 420.047 214.454 420.34 213.771V212.867C420.34 211.386 420.019 210.182 419.376 209.254C418.733 208.326 417.919 207.862 416.935 207.862C415.942 207.862 415.144 208.245 414.542 209.01C413.94 209.767 413.639 210.768 413.639 212.013C413.639 213.225 413.928 214.226 414.505 215.016C415.091 215.797 415.873 216.188 416.849 216.188ZM434.574 206.214V208.131H434.159C432.401 208.163 431.001 208.684 429.959 209.693C428.918 210.702 428.316 212.123 428.153 213.954C429.089 212.879 430.366 212.342 431.986 212.342C433.532 212.342 434.765 212.888 435.685 213.978C436.612 215.069 437.076 216.476 437.076 218.202C437.076 220.033 436.576 221.498 435.575 222.596C434.582 223.695 433.247 224.244 431.571 224.244C429.87 224.244 428.491 223.593 427.433 222.291C426.375 220.981 425.846 219.296 425.846 217.237V216.371C425.846 213.099 426.542 210.601 427.933 208.875C429.333 207.142 431.412 206.255 434.171 206.214H434.574ZM431.607 214.222C430.834 214.222 430.122 214.454 429.471 214.918C428.82 215.382 428.368 215.964 428.116 216.664V217.494C428.116 218.958 428.446 220.139 429.105 221.034C429.764 221.929 430.586 222.376 431.571 222.376C432.588 222.376 433.386 222.002 433.963 221.253C434.549 220.505 434.842 219.524 434.842 218.312C434.842 217.091 434.545 216.106 433.951 215.357C433.365 214.601 432.584 214.222 431.607 214.222ZM450.895 216.419C450.895 219.064 450.443 221.03 449.54 222.315C448.636 223.601 447.224 224.244 445.304 224.244C443.408 224.244 442.004 223.618 441.092 222.364C440.181 221.103 439.709 219.223 439.676 216.725V213.709C439.676 211.097 440.128 209.156 441.031 207.887C441.935 206.617 443.351 205.982 445.279 205.982C447.192 205.982 448.6 206.597 449.503 207.826C450.406 209.046 450.87 210.934 450.895 213.49V216.419ZM448.636 213.331C448.636 211.419 448.368 210.027 447.831 209.156C447.293 208.277 446.443 207.838 445.279 207.838C444.124 207.838 443.281 208.273 442.752 209.144C442.223 210.015 441.951 211.354 441.935 213.16V216.773C441.935 218.694 442.211 220.114 442.765 221.034C443.326 221.945 444.173 222.401 445.304 222.401C446.419 222.401 447.245 221.97 447.782 221.107C448.327 220.244 448.612 218.885 448.636 217.03V213.331ZM457.071 214.015H458.768C459.834 213.998 460.672 213.718 461.283 213.172C461.893 212.627 462.198 211.891 462.198 210.963C462.198 208.88 461.161 207.838 459.085 207.838C458.109 207.838 457.328 208.119 456.742 208.68C456.164 209.234 455.875 209.97 455.875 210.89H453.617C453.617 209.482 454.129 208.314 455.155 207.386C456.188 206.45 457.499 205.982 459.085 205.982C460.762 205.982 462.076 206.426 463.028 207.313C463.98 208.2 464.457 209.433 464.457 211.012C464.457 211.785 464.204 212.534 463.7 213.258C463.203 213.982 462.524 214.523 461.661 214.881C462.638 215.191 463.39 215.703 463.919 216.419C464.457 217.136 464.725 218.01 464.725 219.044C464.725 220.639 464.204 221.904 463.163 222.84C462.121 223.776 460.766 224.244 459.098 224.244C457.429 224.244 456.07 223.792 455.021 222.889C453.979 221.986 453.458 220.794 453.458 219.312H455.729C455.729 220.248 456.034 220.997 456.644 221.559C457.254 222.12 458.072 222.401 459.098 222.401C460.188 222.401 461.022 222.116 461.6 221.546C462.178 220.977 462.467 220.159 462.467 219.093C462.467 218.059 462.149 217.266 461.515 216.712C460.88 216.159 459.964 215.874 458.768 215.858H457.071V214.015Z" fill="#337CA9"/>
</g>
<defs>
<filter id="filter0_d" x="-26" y="328" width="1102" height="196" filterUnits="userSpaceOnUse" color-interpolation-filters="sRGB">
<feFlood flood-opacity="0" result="BackgroundImageFix"/>
<feColorMatrix in="SourceAlpha" type="matrix" values="0 0 0 0 0 0 0 0 0 0 0 0 0 0 0 0 0 0 127 0"/>
<feOffset dy="8"/>
<feGaussianBlur stdDeviation="13"/>
<feColorMatrix type="matrix" values="0 0 0 0 0 0 0 0 0 0 0 0 0 0 0 0 0 0 0.25 0"/>
<feBlend mode="normal" in2="BackgroundImageFix" result="effect1_dropShadow"/>
<feBlend mode="normal" in="SourceGraphic" in2="effect1_dropShadow" result="shape"/>
</filter>
<clipPath id="clip0">
<rect width="1050" height="600" fill="white"/>
</clipPath>
</defs>
</svg>
