<svg width="1050" height="600" viewBox="0 0 1050 600" fill="none" xmlns="http://www.w3.org/2000/svg">
<rect width="1050" height="600" fill="white"/>
<path d="M898 344C976.75 509.46 969.416 583.608 955.905 600H1050C1016.42 475.037 934.673 377.266 898 344Z" fill="#387BA5"/>
<path d="M1050 360.967V455C968.619 314.467 834.091 231.111 777 207C917.341 240.067 1017.48 323.422 1050 360.967Z" fill="#387BA5"/>
<path d="M679 131.257C844.297 168.688 995.207 141.349 1050 123V223C870.745 211.991 727.977 157.251 679 131.257Z" fill="#387BA5"/>
<path d="M856 136.428C687.194 145.278 613.664 49.1634 598 0H695.671C722.946 101.031 813.921 133.049 856 136.428Z" fill="#387BA5"/>
<path d="M89.6133 286.202C89.2705 289.135 88.1851 291.401 86.3569 293C84.5415 294.587 82.123 295.381 79.1016 295.381C75.8262 295.381 73.1982 294.207 71.2178 291.858C69.25 289.509 68.2661 286.367 68.2661 282.432V279.766C68.2661 277.188 68.7231 274.922 69.6372 272.967C70.564 271.012 71.8716 269.514 73.5601 268.473C75.2485 267.419 77.2036 266.893 79.4253 266.893C82.3706 266.893 84.7319 267.718 86.5093 269.368C88.2866 271.006 89.3213 273.278 89.6133 276.186H85.938C85.6206 273.977 84.9287 272.377 83.8623 271.387C82.8086 270.396 81.3296 269.901 79.4253 269.901C77.0894 269.901 75.2549 270.765 73.9219 272.491C72.6016 274.218 71.9414 276.674 71.9414 279.861V282.546C71.9414 285.555 72.5698 287.948 73.8267 289.725C75.0835 291.502 76.8418 292.391 79.1016 292.391C81.1328 292.391 82.688 291.934 83.7671 291.02C84.8589 290.093 85.5825 288.487 85.938 286.202H89.6133ZM115.95 282.032C115.95 284.749 115.493 287.123 114.579 289.154C113.665 291.172 112.37 292.715 110.694 293.781C109.018 294.848 107.063 295.381 104.829 295.381C102.645 295.381 100.709 294.848 99.0205 293.781C97.332 292.702 96.0181 291.172 95.0786 289.192C94.1519 287.199 93.6758 284.895 93.6504 282.279V280.28C93.6504 277.614 94.1138 275.259 95.0405 273.215C95.9673 271.171 97.2749 269.609 98.9634 268.53C100.665 267.438 102.607 266.893 104.791 266.893C107.012 266.893 108.967 267.432 110.656 268.511C112.357 269.578 113.665 271.133 114.579 273.177C115.493 275.208 115.95 277.576 115.95 280.28V282.032ZM112.312 280.242C112.312 276.954 111.652 274.434 110.332 272.682C109.012 270.917 107.165 270.035 104.791 270.035C102.48 270.035 100.658 270.917 99.3252 272.682C98.0049 274.434 97.3257 276.871 97.2876 279.994V282.032C97.2876 285.218 97.9541 287.726 99.2871 289.554C100.633 291.369 102.48 292.277 104.829 292.277C107.19 292.277 109.018 291.42 110.313 289.706C111.608 287.979 112.274 285.51 112.312 282.298V280.242ZM126.157 267.273L135.221 289.896L144.286 267.273H149.027V295H145.371V284.203L145.714 272.548L136.611 295H133.812L124.729 272.605L125.09 284.203V295H121.434V267.273H126.157ZM159.139 284.146V295H155.483V267.273H165.709C168.743 267.273 171.117 268.048 172.831 269.597C174.558 271.146 175.421 273.196 175.421 275.748C175.421 278.439 174.577 280.515 172.888 281.975C171.212 283.422 168.807 284.146 165.671 284.146H159.139ZM159.139 281.156H165.709C167.664 281.156 169.162 280.699 170.203 279.785C171.244 278.858 171.765 277.525 171.765 275.786C171.765 274.135 171.244 272.815 170.203 271.825C169.162 270.834 167.734 270.32 165.918 270.282H159.139V281.156ZM192.769 287.764H181.153L178.544 295H174.773L185.361 267.273H188.561L199.167 295H195.416L192.769 287.764ZM182.257 284.755H191.684L186.961 271.787L182.257 284.755ZM224.209 295H220.534L206.575 273.634V295H202.9V267.273H206.575L220.572 288.735V267.273H224.209V295ZM238.625 281.194L245.861 267.273H250.012L240.453 284.66V295H236.796V284.66L227.237 267.273H231.426L238.625 281.194ZM284.575 295H280.9L266.941 273.634V295H263.266V267.273H266.941L280.938 288.735V267.273H284.575V295ZM306.722 287.764H295.106L292.497 295H288.727L299.314 267.273H302.514L313.121 295H309.369L306.722 287.764ZM296.21 284.755H305.637L300.914 271.787L296.21 284.755ZM321.576 267.273L330.64 289.896L339.705 267.273H344.446V295H340.79V284.203L341.133 272.548L332.03 295H329.231L320.147 272.605L320.509 284.203V295H316.853V267.273H321.576ZM366.574 282.184H354.558V292.01H368.517V295H350.902V267.273H368.326V270.282H354.558V279.194H366.574V282.184Z" fill="#387BA5"/>
<path d="M75.4829 325.15L80.1216 316.227H82.7827L76.6548 327.372V334H74.311V327.372L68.1831 316.227H70.8687L75.4829 325.15ZM83.3198 327.274C83.3198 325.98 83.5721 324.816 84.0767 323.783C84.5894 322.749 85.2974 321.952 86.2007 321.39C87.1121 320.829 88.1497 320.548 89.3135 320.548C91.112 320.548 92.5646 321.17 93.6714 322.416C94.7863 323.661 95.3438 325.317 95.3438 327.384V327.542C95.3438 328.828 95.0955 329.984 94.5991 331.009C94.1108 332.027 93.4069 332.82 92.4873 333.39C91.5758 333.959 90.526 334.244 89.3379 334.244C87.5475 334.244 86.0949 333.622 84.98 332.376C83.8732 331.131 83.3198 329.483 83.3198 327.433V327.274ZM85.5903 327.542C85.5903 329.007 85.9281 330.183 86.6035 331.07C87.2871 331.957 88.1986 332.401 89.3379 332.401C90.4854 332.401 91.3968 331.953 92.0723 331.058C92.7477 330.155 93.0854 328.893 93.0854 327.274C93.0854 325.825 92.7396 324.653 92.0479 323.758C91.3643 322.855 90.4528 322.403 89.3135 322.403C88.1986 322.403 87.2993 322.847 86.6157 323.734C85.9321 324.621 85.5903 325.89 85.5903 327.542ZM106.33 332.694C105.451 333.727 104.161 334.244 102.46 334.244C101.053 334.244 99.9784 333.837 99.2378 333.023C98.5054 332.201 98.1351 330.989 98.127 329.386V320.792H100.385V329.325C100.385 331.327 101.199 332.328 102.827 332.328C104.552 332.328 105.699 331.685 106.269 330.399V320.792H108.527V334H106.379L106.33 332.694ZM118.354 322.818C118.012 322.761 117.642 322.733 117.243 322.733C115.762 322.733 114.757 323.364 114.228 324.625V334H111.97V320.792H114.167L114.204 322.318C114.944 321.138 115.994 320.548 117.353 320.548C117.792 320.548 118.126 320.605 118.354 320.719V322.818ZM132.233 326.078C130.223 325.5 128.758 324.792 127.839 323.954C126.927 323.107 126.472 322.066 126.472 320.829C126.472 319.429 127.029 318.273 128.144 317.362C129.267 316.442 130.724 315.982 132.514 315.982C133.735 315.982 134.821 316.218 135.773 316.69C136.734 317.162 137.474 317.813 137.995 318.644C138.524 319.474 138.789 320.381 138.789 321.366H136.433C136.433 320.292 136.091 319.449 135.407 318.839C134.724 318.22 133.759 317.911 132.514 317.911C131.359 317.911 130.455 318.167 129.804 318.68C129.161 319.185 128.84 319.889 128.84 320.792C128.84 321.516 129.145 322.131 129.755 322.635C130.374 323.132 131.42 323.587 132.893 324.002C134.374 324.417 135.529 324.877 136.359 325.382C137.198 325.878 137.816 326.46 138.215 327.127C138.622 327.795 138.825 328.58 138.825 329.483C138.825 330.924 138.264 332.079 137.141 332.95C136.018 333.813 134.516 334.244 132.636 334.244C131.416 334.244 130.276 334.012 129.218 333.548C128.16 333.076 127.342 332.433 126.765 331.62C126.195 330.806 125.91 329.882 125.91 328.849H128.266C128.266 329.923 128.661 330.773 129.45 331.4C130.248 332.018 131.31 332.328 132.636 332.328C133.873 332.328 134.821 332.075 135.48 331.571C136.14 331.066 136.469 330.379 136.469 329.508C136.469 328.637 136.164 327.966 135.554 327.494C134.943 327.014 133.837 326.542 132.233 326.078ZM143.94 334H141.682V315.25H143.94V334ZM146.967 327.274C146.967 325.98 147.22 324.816 147.724 323.783C148.237 322.749 148.945 321.952 149.848 321.39C150.76 320.829 151.797 320.548 152.961 320.548C154.759 320.548 156.212 321.17 157.319 322.416C158.434 323.661 158.991 325.317 158.991 327.384V327.542C158.991 328.828 158.743 329.984 158.247 331.009C157.758 332.027 157.054 332.82 156.135 333.39C155.223 333.959 154.174 334.244 152.985 334.244C151.195 334.244 149.742 333.622 148.627 332.376C147.521 331.131 146.967 329.483 146.967 327.433V327.274ZM149.238 327.542C149.238 329.007 149.576 330.183 150.251 331.07C150.935 331.957 151.846 332.401 152.985 332.401C154.133 332.401 155.044 331.953 155.72 331.058C156.395 330.155 156.733 328.893 156.733 327.274C156.733 325.825 156.387 324.653 155.695 323.758C155.012 322.855 154.1 322.403 152.961 322.403C151.846 322.403 150.947 322.847 150.263 323.734C149.58 324.621 149.238 325.89 149.238 327.542ZM161.286 327.286C161.286 325.227 161.762 323.591 162.714 322.379C163.667 321.158 164.928 320.548 166.499 320.548C168.11 320.548 169.367 321.118 170.271 322.257L170.38 320.792H172.443V333.683C172.443 335.392 171.935 336.738 170.917 337.723C169.908 338.708 168.549 339.2 166.84 339.2C165.888 339.2 164.956 338.997 164.045 338.59C163.133 338.183 162.438 337.625 161.958 336.917L163.129 335.562C164.098 336.759 165.282 337.357 166.682 337.357C167.78 337.357 168.635 337.048 169.245 336.429C169.864 335.811 170.173 334.94 170.173 333.817V332.682C169.27 333.723 168.037 334.244 166.474 334.244C164.928 334.244 163.675 333.622 162.714 332.376C161.762 331.131 161.286 329.435 161.286 327.286ZM163.557 327.542C163.557 329.032 163.862 330.204 164.472 331.058C165.083 331.904 165.937 332.328 167.036 332.328C168.46 332.328 169.506 331.681 170.173 330.387V324.356C169.481 323.095 168.444 322.464 167.06 322.464C165.961 322.464 165.103 322.892 164.484 323.746C163.866 324.601 163.557 325.866 163.557 327.542ZM184.016 334C183.885 333.74 183.78 333.276 183.698 332.608C182.648 333.699 181.395 334.244 179.938 334.244C178.636 334.244 177.566 333.878 176.728 333.146C175.898 332.405 175.483 331.469 175.483 330.338C175.483 328.963 176.004 327.896 177.045 327.14C178.095 326.375 179.568 325.992 181.464 325.992H183.662V324.955C183.662 324.165 183.426 323.539 182.954 323.075C182.482 322.603 181.786 322.367 180.866 322.367C180.061 322.367 179.385 322.57 178.84 322.977C178.295 323.384 178.022 323.876 178.022 324.454H175.751C175.751 323.795 175.983 323.16 176.447 322.55C176.919 321.931 177.554 321.443 178.352 321.085C179.157 320.727 180.04 320.548 181 320.548C182.522 320.548 183.715 320.93 184.577 321.695C185.44 322.452 185.887 323.498 185.92 324.833V330.912C185.92 332.124 186.075 333.089 186.384 333.805V334H184.016ZM180.268 332.279C180.976 332.279 181.647 332.096 182.282 331.729C182.917 331.363 183.377 330.887 183.662 330.301V327.591H181.892C179.125 327.591 177.741 328.401 177.741 330.021C177.741 330.729 177.977 331.282 178.449 331.681C178.921 332.079 179.528 332.279 180.268 332.279ZM191.596 320.792L191.669 322.452C192.679 321.183 193.997 320.548 195.625 320.548C198.416 320.548 199.824 322.123 199.848 325.272V334H197.59V325.26C197.582 324.308 197.362 323.604 196.931 323.148C196.507 322.692 195.844 322.464 194.941 322.464C194.208 322.464 193.566 322.66 193.012 323.05C192.459 323.441 192.028 323.954 191.718 324.588V334H189.46V320.792H191.596ZM222.932 331.668C222.329 332.531 221.487 333.178 220.405 333.609C219.331 334.033 218.077 334.244 216.645 334.244C215.196 334.244 213.911 333.906 212.788 333.231C211.665 332.547 210.794 331.579 210.175 330.326C209.565 329.072 209.252 327.62 209.235 325.968V324.417C209.235 321.74 209.858 319.665 211.103 318.192C212.356 316.719 214.114 315.982 216.376 315.982C218.232 315.982 219.725 316.458 220.856 317.411C221.988 318.355 222.679 319.697 222.932 321.439H220.588C220.148 319.087 218.749 317.911 216.389 317.911C214.818 317.911 213.626 318.465 212.812 319.571C212.006 320.67 211.599 322.265 211.591 324.356V325.809C211.591 327.803 212.047 329.39 212.958 330.57C213.87 331.742 215.103 332.328 216.657 332.328C217.536 332.328 218.305 332.23 218.964 332.035C219.624 331.839 220.169 331.51 220.6 331.046V327.054H216.486V325.15H222.932V331.668ZM225.898 327.274C225.898 325.98 226.15 324.816 226.655 323.783C227.167 322.749 227.875 321.952 228.779 321.39C229.69 320.829 230.728 320.548 231.892 320.548C233.69 320.548 235.143 321.17 236.25 322.416C237.364 323.661 237.922 325.317 237.922 327.384V327.542C237.922 328.828 237.674 329.984 237.177 331.009C236.689 332.027 235.985 332.82 235.065 333.39C234.154 333.959 233.104 334.244 231.916 334.244C230.126 334.244 228.673 333.622 227.558 332.376C226.451 331.131 225.898 329.483 225.898 327.433V327.274ZM228.168 327.542C228.168 329.007 228.506 330.183 229.182 331.07C229.865 331.957 230.777 332.401 231.916 332.401C233.063 332.401 233.975 331.953 234.65 331.058C235.326 330.155 235.664 328.893 235.664 327.274C235.664 325.825 235.318 324.653 234.626 323.758C233.942 322.855 233.031 322.403 231.892 322.403C230.777 322.403 229.877 322.847 229.194 323.734C228.51 324.621 228.168 325.89 228.168 327.542ZM246.235 334.244C244.444 334.244 242.988 333.658 241.865 332.486C240.742 331.306 240.18 329.732 240.18 327.762V327.347C240.18 326.037 240.428 324.869 240.925 323.844C241.429 322.81 242.129 322.005 243.024 321.427C243.928 320.841 244.904 320.548 245.954 320.548C247.671 320.548 249.006 321.113 249.958 322.245C250.91 323.376 251.386 324.995 251.386 327.103V328.043H242.438C242.471 329.345 242.849 330.399 243.574 331.205C244.306 332.002 245.234 332.401 246.357 332.401C247.154 332.401 247.83 332.238 248.383 331.913C248.937 331.587 249.421 331.156 249.836 330.619L251.215 331.693C250.109 333.394 248.448 334.244 246.235 334.244ZM245.954 322.403C245.043 322.403 244.278 322.737 243.659 323.404C243.041 324.063 242.658 324.991 242.512 326.188H249.128V326.017C249.063 324.869 248.754 323.982 248.2 323.355C247.647 322.721 246.898 322.403 245.954 322.403ZM261.701 330.497C261.701 329.886 261.469 329.414 261.005 329.081C260.55 328.739 259.748 328.446 258.601 328.202C257.461 327.958 256.554 327.665 255.878 327.323C255.211 326.981 254.715 326.574 254.389 326.102C254.072 325.63 253.913 325.069 253.913 324.417C253.913 323.335 254.369 322.42 255.28 321.671C256.2 320.922 257.372 320.548 258.796 320.548C260.293 320.548 261.506 320.934 262.434 321.708C263.369 322.481 263.837 323.469 263.837 324.674H261.567C261.567 324.055 261.302 323.522 260.773 323.075C260.253 322.627 259.593 322.403 258.796 322.403C257.974 322.403 257.331 322.582 256.867 322.94C256.403 323.299 256.171 323.766 256.171 324.344C256.171 324.889 256.387 325.3 256.818 325.577C257.25 325.854 258.027 326.118 259.15 326.371C260.281 326.623 261.197 326.924 261.896 327.274C262.596 327.624 263.113 328.047 263.447 328.543C263.789 329.032 263.959 329.63 263.959 330.338C263.959 331.518 263.487 332.466 262.543 333.182C261.599 333.89 260.375 334.244 258.869 334.244C257.811 334.244 256.875 334.057 256.062 333.683C255.248 333.308 254.609 332.787 254.145 332.12C253.689 331.445 253.461 330.716 253.461 329.935H255.72C255.76 330.692 256.062 331.294 256.623 331.742C257.193 332.181 257.941 332.401 258.869 332.401C259.724 332.401 260.407 332.23 260.92 331.888C261.441 331.538 261.701 331.074 261.701 330.497ZM275.361 322.391C276.362 321.162 277.664 320.548 279.267 320.548C282.058 320.548 283.466 322.123 283.491 325.272V334H281.232V325.26C281.224 324.308 281.005 323.604 280.573 323.148C280.15 322.692 279.487 322.464 278.583 322.464C277.851 322.464 277.208 322.66 276.655 323.05C276.101 323.441 275.67 323.954 275.361 324.588V334H273.103V315.25H275.361V322.391ZM292.353 334.244C290.563 334.244 289.106 333.658 287.983 332.486C286.86 331.306 286.298 329.732 286.298 327.762V327.347C286.298 326.037 286.547 324.869 287.043 323.844C287.548 322.81 288.247 322.005 289.143 321.427C290.046 320.841 291.022 320.548 292.072 320.548C293.789 320.548 295.124 321.113 296.076 322.245C297.028 323.376 297.504 324.995 297.504 327.103V328.043H288.557C288.589 329.345 288.968 330.399 289.692 331.205C290.424 332.002 291.352 332.401 292.475 332.401C293.273 332.401 293.948 332.238 294.501 331.913C295.055 331.587 295.539 331.156 295.954 330.619L297.333 331.693C296.227 333.394 294.567 334.244 292.353 334.244ZM292.072 322.403C291.161 322.403 290.396 322.737 289.777 323.404C289.159 324.063 288.776 324.991 288.63 326.188H295.246V326.017C295.181 324.869 294.872 323.982 294.318 323.355C293.765 322.721 293.016 322.403 292.072 322.403ZM306.513 322.818C306.171 322.761 305.801 322.733 305.402 322.733C303.921 322.733 302.916 323.364 302.387 324.625V334H300.129V320.792H302.326L302.363 322.318C303.103 321.138 304.153 320.548 305.512 320.548C305.952 320.548 306.285 320.605 306.513 320.719V322.818ZM313.837 334.244C312.047 334.244 310.59 333.658 309.467 332.486C308.344 331.306 307.783 329.732 307.783 327.762V327.347C307.783 326.037 308.031 324.869 308.527 323.844C309.032 322.81 309.732 322.005 310.627 321.427C311.53 320.841 312.507 320.548 313.557 320.548C315.274 320.548 316.608 321.113 317.561 322.245C318.513 323.376 318.989 324.995 318.989 327.103V328.043H310.041C310.074 329.345 310.452 330.399 311.176 331.205C311.909 332.002 312.836 332.401 313.959 332.401C314.757 332.401 315.432 332.238 315.986 331.913C316.539 331.587 317.023 331.156 317.438 330.619L318.818 331.693C317.711 333.394 316.051 334.244 313.837 334.244ZM313.557 322.403C312.645 322.403 311.88 322.737 311.262 323.404C310.643 324.063 310.261 324.991 310.114 326.188H316.73V326.017C316.665 324.869 316.356 323.982 315.803 323.355C315.249 322.721 314.501 322.403 313.557 322.403ZM324.14 328.983H322.102L321.943 316.227H324.311L324.14 328.983ZM321.857 332.865C321.857 332.499 321.967 332.193 322.187 331.949C322.415 331.697 322.749 331.571 323.188 331.571C323.627 331.571 323.961 331.697 324.189 331.949C324.417 332.193 324.531 332.499 324.531 332.865C324.531 333.231 324.417 333.536 324.189 333.78C323.961 334.016 323.627 334.134 323.188 334.134C322.749 334.134 322.415 334.016 322.187 333.78C321.967 333.536 321.857 333.231 321.857 332.865Z" fill="#387BA5"/>
</svg>
