<svg width="1050" height="600" viewBox="0 0 1050 600" fill="none" xmlns="http://www.w3.org/2000/svg">
<rect width="1050" height="600" fill="#FFBA0B"/>
<path fill-rule="evenodd" clip-rule="evenodd" d="M521.356 168.85C522.491 168.291 523.738 168 525.003 168C526.268 168 527.515 168.291 528.65 168.85L627.9 217.856C629.007 218.402 629.978 219.19 630.741 220.161C631.503 221.132 632.038 222.261 632.306 223.466L656.809 333.624C657.072 334.808 657.071 336.035 656.806 337.219C656.541 338.403 656.018 339.513 655.275 340.472L586.599 428.815C585.827 429.808 584.839 430.611 583.709 431.162C582.58 431.714 581.339 432.001 580.082 432H469.924C468.667 432.001 467.426 431.714 466.297 431.162C465.167 430.611 464.178 429.808 463.406 428.815L394.731 340.472C393.988 339.513 393.465 338.403 393.2 337.219C392.934 336.035 392.933 334.808 393.197 333.624L417.7 223.466C417.968 222.261 418.503 221.132 419.265 220.161C420.028 219.19 420.998 218.402 422.106 217.856L521.356 168.866V168.85Z" fill="#565660"/>
<path d="M509.172 222.623C446.832 228.963 429.082 292.183 428 323H622C614.857 232.837 543.805 218.514 509.172 222.623Z" fill="#F1F1F1"/>
<path d="M528.074 246.001C526.462 246.001 525.159 248.64 525.159 249.685V259.514C525.054 259.514 524.948 259.456 524.845 259.456H523.298V249.683C523.298 248.639 521.99 246 520.375 246C518.757 246 517.449 248.639 517.449 249.683V259.454H516.15C516.043 259.454 515.946 259.499 515.841 259.51V249.683C515.841 248.639 514.533 246 512.921 246C511.3 246 510 248.64 510 249.683V270.866C510 276.836 513.808 278.293 516.15 278.293H516.768V328.517C516.768 330.998 518.442 333 520.501 333C522.557 333 524.222 330.998 524.222 328.517V278.294H524.846C527.187 278.294 531 278.294 531 270.868V249.683C531 248.64 529.692 246.001 528.074 246.001Z" fill="#2A2731"/>
<path d="M545 299.915C545 299.915 551.151 248.803 558.5 246C559.693 246.001 560.836 246.467 561.68 247.296C562.523 248.124 562.998 249.247 563 250.418V331.582C562.999 332.753 562.524 333.877 561.681 334.705C560.837 335.534 559.693 335.999 558.5 336C557.909 336 557.324 335.886 556.779 335.664C556.233 335.442 555.737 335.117 555.32 334.706C554.902 334.296 554.571 333.809 554.345 333.273C554.12 332.736 554.004 332.162 554.004 331.582V304.015C550.101 303.542 545.3 302.415 545 299.911" fill="#2A2731"/>
<path d="M495 270C495 261 491.85 246 484.5 246C477.15 246 474 261 474 270C474 277.5 476.8 284 481.7 285.5C479.95 293.5 479.25 308.5 479.25 308.5V318.5C479.25 322.5 481.7 326 484.5 326C487.3 326 489.75 322.5 489.75 318.5V308.5C489.75 305.5 489.05 292.5 487.3 285.5C492.2 284 495 277.5 495 270Z" fill="#2A2731"/>
<rect x="420" y="316" width="210" height="20" fill="#E88712"/>
<path d="M448.299 366.47H457.63V370H443.904V348.672H448.299V366.47ZM476.746 359.819C476.746 361.919 476.375 363.76 475.633 365.342C474.891 366.924 473.826 368.145 472.439 369.004C471.062 369.863 469.48 370.293 467.693 370.293C465.926 370.293 464.349 369.868 462.962 369.019C461.575 368.169 460.501 366.958 459.739 365.386C458.978 363.804 458.592 361.987 458.582 359.937V358.882C458.582 356.782 458.958 354.937 459.71 353.345C460.472 351.743 461.541 350.518 462.918 349.668C464.305 348.809 465.887 348.379 467.664 348.379C469.441 348.379 471.019 348.809 472.396 349.668C473.782 350.518 474.852 351.743 475.604 353.345C476.365 354.937 476.746 356.777 476.746 358.867V359.819ZM472.293 358.853C472.293 356.616 471.893 354.917 471.092 353.755C470.291 352.593 469.148 352.012 467.664 352.012C466.189 352.012 465.052 352.588 464.251 353.74C463.45 354.883 463.045 356.562 463.035 358.779V359.819C463.035 361.997 463.436 363.687 464.236 364.888C465.037 366.089 466.189 366.689 467.693 366.689C469.168 366.689 470.301 366.113 471.092 364.961C471.883 363.799 472.283 362.109 472.293 359.893V358.853ZM496.814 367.305C496.023 368.252 494.905 368.989 493.46 369.517C492.015 370.034 490.413 370.293 488.655 370.293C486.81 370.293 485.188 369.893 483.792 369.092C482.405 368.281 481.331 367.109 480.569 365.576C479.817 364.043 479.432 362.241 479.412 360.171V358.721C479.412 356.592 479.769 354.751 480.481 353.198C481.204 351.636 482.239 350.444 483.587 349.624C484.944 348.794 486.531 348.379 488.348 348.379C490.877 348.379 492.854 348.984 494.28 350.195C495.706 351.396 496.551 353.149 496.814 355.454H492.537C492.342 354.233 491.907 353.34 491.233 352.773C490.569 352.207 489.651 351.924 488.479 351.924C486.985 351.924 485.848 352.485 485.066 353.608C484.285 354.731 483.89 356.401 483.88 358.618V359.98C483.88 362.217 484.305 363.906 485.154 365.049C486.004 366.191 487.249 366.763 488.89 366.763C490.54 366.763 491.717 366.411 492.42 365.708V362.031H488.421V358.794H496.814V367.305ZM517.908 359.819C517.908 361.919 517.537 363.76 516.795 365.342C516.053 366.924 514.988 368.145 513.602 369.004C512.225 369.863 510.643 370.293 508.855 370.293C507.088 370.293 505.511 369.868 504.124 369.019C502.737 368.169 501.663 366.958 500.901 365.386C500.14 363.804 499.754 361.987 499.744 359.937V358.882C499.744 356.782 500.12 354.937 500.872 353.345C501.634 351.743 502.703 350.518 504.08 349.668C505.467 348.809 507.049 348.379 508.826 348.379C510.604 348.379 512.181 348.809 513.558 349.668C514.944 350.518 516.014 351.743 516.766 353.345C517.527 354.937 517.908 356.777 517.908 358.867V359.819ZM513.455 358.853C513.455 356.616 513.055 354.917 512.254 353.755C511.453 352.593 510.311 352.012 508.826 352.012C507.352 352.012 506.214 352.588 505.413 353.74C504.612 354.883 504.207 356.562 504.197 358.779V359.819C504.197 361.997 504.598 363.687 505.398 364.888C506.199 366.089 507.352 366.689 508.855 366.689C510.33 366.689 511.463 366.113 512.254 364.961C513.045 363.799 513.445 362.109 513.455 359.893V358.853Z" fill="#D2C19D"/>
<path d="M543.248 370H538.854L530.299 355.967V370H525.904V348.672H530.299L538.868 362.734V348.672H543.248V370ZM559.391 365.605H551.686L550.221 370H545.548L553.487 348.672H557.56L565.543 370H560.87L559.391 365.605ZM552.872 362.046H558.204L555.523 354.062L552.872 362.046ZM573.277 348.672L578.756 364.141L584.205 348.672H589.977V370H585.567V364.17L586.007 354.106L580.25 370H577.232L571.49 354.121L571.93 364.17V370H567.535V348.672H573.277ZM606.646 360.757H598.209V366.47H608.111V370H593.814V348.672H608.082V352.231H598.209V357.314H606.646V360.757Z" fill="#E7E7E7"/>
</svg>
