<svg width="1050" height="600" viewBox="0 0 1050 600" fill="none" xmlns="http://www.w3.org/2000/svg">
<g clip-path="url(#clip0)">
<rect width="1050" height="600" fill="white"/>
<path d="M525 200V180H546L525 200Z" fill="#448ED9"/>
<g filter="url(#filter0_d)">
<rect width="525" height="600" fill="#303030"/>
</g>
<g filter="url(#filter1_d)">
<rect y="76" width="546" height="104" fill="#66ADFF"/>
</g>
<path d="M364.953 347.631V416.713C364.95 421.907 363.582 427.009 360.985 431.508C358.389 436.007 354.655 439.744 350.159 442.345L345.579 444.983L345.555 445.007H345.531C345.507 445.007 345.483 445.031 345.435 445.055L278.272 483.828C273.768 486.42 268.662 487.784 263.465 487.784C258.268 487.784 253.163 486.42 248.659 483.828L176.82 442.345C171.8 439.45 167.746 435.138 165.166 429.949C165.14 429.897 165.108 429.849 165.07 429.805C165.06 429.777 165.044 429.753 165.022 429.733V429.709C165.009 429.696 165 429.679 164.998 429.661C163.027 425.629 162.002 421.2 162.001 416.713V348.638C161.989 347.354 162.086 346.07 162.289 344.802C174.76 369.374 195.692 388.611 221.227 398.969V399.592L251.728 417.216C255.305 419.278 259.361 420.363 263.489 420.363C267.618 420.363 271.674 419.278 275.251 417.216L305.751 399.592V399.424C331.16 389.424 352.153 370.661 364.929 346.528C364.953 346.912 364.953 347.26 364.953 347.631Z" fill="#444444"/>
<path d="M221.227 347.631V398.968C195.691 388.611 174.759 369.374 162.288 344.801C162.43 343.582 162.646 342.373 162.935 341.181C163.665 338.167 164.845 335.281 166.436 332.62C168.825 328.491 172.186 325.007 176.226 322.47C180.267 319.934 184.866 318.422 189.623 318.066C193.672 317.796 197.732 318.36 201.553 319.724C205.375 321.087 208.875 323.221 211.838 325.993C214.801 328.765 217.163 332.115 218.778 335.838C220.393 339.56 221.226 343.574 221.227 347.631Z" fill="#555555"/>
<path d="M364.928 346.54C352.152 370.673 331.16 389.436 305.75 399.436V348.65C305.659 341.008 308.455 333.614 313.582 327.945C318.708 322.277 325.785 318.753 333.397 318.078C338.791 317.711 344.181 318.831 348.983 321.315C348.989 321.315 348.995 321.317 349 321.322C349.004 321.326 349.007 321.332 349.007 321.339C349.029 321.352 349.054 321.36 349.079 321.363C352.974 323.413 356.365 326.302 359.006 329.823C361.648 333.344 363.474 337.408 364.353 341.72C364.68 343.308 364.873 344.92 364.928 346.54Z" fill="#555555"/>
<g style="mix-blend-mode:multiply" opacity="0.08">
<g style="mix-blend-mode:multiply" opacity="0.08">
<path d="M221.227 375.457V398.98C195.691 388.623 174.759 369.385 162.288 344.813C162.43 343.594 162.646 342.385 162.935 341.192C175.38 350.352 197.596 365.434 221.227 375.457Z" fill="#444444"/>
</g>
</g>
<g style="mix-blend-mode:multiply" opacity="0.08">
<g style="mix-blend-mode:multiply" opacity="0.08">
<path d="M364.929 346.54C352.152 370.673 331.16 389.437 305.751 399.437V375.554C326.446 366.418 346.094 355.075 364.354 341.721C364.681 343.308 364.873 344.92 364.929 346.54Z" fill="#444444"/>
</g>
</g>
<g style="mix-blend-mode:screen" opacity="0.4">
<g style="mix-blend-mode:screen" opacity="0.4">
<path d="M357.759 416.629V416.725C357.749 420.654 356.71 424.513 354.745 427.916C352.781 431.319 349.959 434.149 346.562 436.123L274.675 477.605C271.265 479.569 267.399 480.603 263.465 480.603C259.53 480.603 255.664 479.569 252.255 477.605L196.386 445.355L196.194 445.235L180.416 436.123C177.277 434.305 174.624 431.755 172.683 428.69C170.741 425.626 169.569 422.138 169.266 418.523C195.979 437.564 227.896 447.94 260.699 448.249C293.502 448.558 325.609 438.784 352.676 420.249L352.916 420.082L353.036 420.01C354.654 418.907 356.201 417.78 357.759 416.629Z" fill="#444444"/>
</g>
</g>
<g style="mix-blend-mode:screen" opacity="0.6">
<g style="mix-blend-mode:screen" opacity="0.6">
<path d="M165.023 429.719C165.046 429.742 165.046 429.766 165.07 429.814C165.06 429.787 165.044 429.762 165.023 429.742V429.719Z" fill="#444444"/>
</g>
</g>
<g style="mix-blend-mode:multiply" opacity="0.25">
<g style="mix-blend-mode:multiply" opacity="0.25">
<path d="M345.435 445.064L278.272 483.837C273.768 486.429 268.662 487.794 263.465 487.794C258.268 487.794 253.163 486.429 248.658 483.837L176.819 442.355C171.8 439.459 167.746 435.147 165.166 429.958C165.358 430.294 165.718 430.869 166.245 431.66C167.504 433.456 168.942 435.119 170.537 436.624C173.002 438.921 175.819 440.807 178.882 442.211C182.43 444.033 186.435 446.095 190.751 448.421C199.455 452.977 209.526 458.42 220.244 464.367C225.591 467.364 231.154 470.385 236.741 473.599C239.547 475.205 242.352 476.812 245.182 478.418L249.426 480.84C250.717 481.604 252.063 482.269 253.454 482.83C258.913 485.097 264.972 485.476 270.671 483.909C273.515 483.093 276.234 481.891 278.751 480.336C281.509 478.802 284.218 477.291 286.904 475.805C297.646 469.858 307.717 464.415 316.397 459.859C332.678 451.215 344.068 445.7 345.435 445.064Z" fill="#444444"/>
</g>
</g>
<g style="mix-blend-mode:multiply" opacity="0.25">
<g style="mix-blend-mode:multiply" opacity="0.25">
<path d="M364.929 346.539L362.699 351.095L360.253 355.579L357.591 359.919L354.714 364.139L351.621 368.215L348.36 372.172L344.883 375.96L341.238 379.581L337.426 383.034L333.445 386.319L329.321 389.412L325.053 392.314L320.641 395.023L316.109 397.541L311.457 399.819L308.076 401.281L307.069 401.881C300.259 405.933 293.473 410.033 286.616 414.014L276.281 420.008C272.365 422.193 267.96 423.348 263.476 423.365C261.243 423.355 259.02 423.064 256.858 422.502C255.784 422.212 254.727 421.86 253.693 421.447C252.674 421.037 251.681 420.565 250.72 420.032L240.361 414.014C233.504 410.033 226.718 405.933 219.908 401.905L218.565 401.114V400.682L215.448 399.291L210.796 396.941L206.264 394.352L201.852 391.57L197.584 388.573L193.436 385.408L189.479 382.051L185.691 378.502L182.07 374.809L178.617 370.925L175.38 366.897L172.311 362.748L169.482 358.432L166.844 354.02L164.446 349.464L162.288 344.812L164.95 349.201L167.779 353.421L170.776 357.545L173.918 361.525L177.227 365.362L180.679 369.055L184.3 372.579L188.017 375.96L191.901 379.173L195.93 382.195L200.03 385.072L204.274 387.734L208.614 390.227L213.074 392.529L217.606 394.639L221.227 396.126V399.603L251.727 417.227C255.304 419.289 259.36 420.374 263.488 420.374C267.617 420.374 271.673 419.289 275.25 417.227L305.75 399.603V396.606L309.395 395.143L313.903 393.105L318.339 390.899L322.679 388.477L326.899 385.863L331.023 383.082L335.052 380.133L338.936 377.015L342.677 373.706L346.298 370.253L349.798 366.657L353.131 362.892L356.32 359.008L359.342 354.979L362.219 350.807L364.929 346.539Z" fill="#444444"/>
</g>
</g>
<g style="mix-blend-mode:screen" opacity="0.4">
<g style="mix-blend-mode:screen" opacity="0.4">
<path d="M352.676 420.248L348.072 423.581L342.941 426.938C339.44 429.096 335.883 431.126 332.271 433.028C328.626 434.923 324.901 436.649 321.097 438.208C317.292 439.766 313.439 441.189 309.539 442.476C301.722 445.064 293.701 446.989 285.561 448.231C281.485 448.878 277.384 449.334 273.26 449.645C269.064 449.981 265.083 450.101 260.911 450.077C256.787 450.077 252.663 449.885 248.538 449.573L242.376 448.95L236.261 448.087L230.171 446.96L224.128 445.617L218.158 444.034L212.235 442.188L206.408 440.126L200.678 437.824L195.019 435.306L189.48 432.573L184.085 429.575L178.785 426.386L173.63 423.005L170.729 420.943C171.787 426.46 174.887 431.374 179.409 434.707C180.776 435.666 182.19 436.481 183.629 437.392L187.897 440.006L196.194 445.233L180.416 436.122C177.277 434.303 174.624 431.753 172.683 428.689C170.741 425.625 169.569 422.136 169.266 418.521C195.979 437.562 227.896 447.939 260.699 448.247C293.502 448.556 325.609 438.782 352.676 420.248Z" fill="#444444"/>
</g>
</g>
<g style="mix-blend-mode:screen" opacity="0.5">
<g style="mix-blend-mode:screen" opacity="0.5">
<path d="M221.228 347.631V370.578C221.228 370.578 220.413 364.32 219.862 354.944C219.694 352.618 219.55 350.053 219.43 347.391C219.247 344.765 218.74 342.172 217.919 339.67C216.098 334.284 212.728 329.555 208.232 326.074C205.961 324.331 203.449 322.926 200.775 321.902C198.182 320.977 195.483 320.381 192.742 320.128C191.999 320.128 191.28 320.104 190.56 320.104L189.601 320.08L188.618 320.152C187.336 320.219 186.061 320.387 184.805 320.655C182.465 321.154 180.195 321.935 178.043 322.981C174.754 324.609 171.769 326.791 169.219 329.431C168.284 330.414 167.565 331.206 167.109 331.781C166.774 332.213 166.534 332.501 166.438 332.62C168.827 328.491 172.187 325.007 176.228 322.47C180.269 319.934 184.868 318.422 189.625 318.066C193.673 317.796 197.734 318.36 201.555 319.724C205.376 321.087 208.877 323.221 211.84 325.993C214.803 328.765 217.165 332.115 218.78 335.838C220.395 339.56 221.228 343.574 221.228 347.631Z" fill="#444444"/>
</g>
</g>
<g style="mix-blend-mode:screen" opacity="0.5">
<g style="mix-blend-mode:screen" opacity="0.5">
<path d="M348.983 321.315C348.695 321.219 347.64 320.883 345.962 320.476C343.285 319.826 340.54 319.496 337.785 319.492C335.983 319.501 334.186 319.67 332.414 319.996C331.457 320.146 330.511 320.362 329.584 320.643C329.129 320.787 328.649 320.907 328.17 321.051C327.69 321.195 327.211 321.411 326.731 321.579C324.8 322.365 322.946 323.328 321.192 324.456C319.409 325.658 317.761 327.048 316.276 328.604C314.758 330.128 313.415 331.817 312.272 333.64C311.149 335.422 310.202 337.309 309.443 339.275C309.066 340.205 308.746 341.158 308.483 342.128C308.197 343.039 307.973 343.968 307.812 344.91C307.616 345.844 307.472 346.788 307.38 347.739L307.309 348.434C307.285 348.53 307.261 348.722 307.261 348.722L307.237 349.058C307.189 349.513 307.165 349.969 307.117 350.401C306.541 357.45 305.75 362.126 305.75 362.126V348.65C305.659 341.008 308.455 333.614 313.582 327.945C318.708 322.277 325.785 318.753 333.397 318.078C338.791 317.711 344.181 318.831 348.983 321.315Z" fill="#444444"/>
</g>
</g>
<path d="M1130.15 -125.441L1183.92 11.0807C1187.96 21.3485 1189.23 32.4971 1187.6 43.4092C1185.97 54.3212 1181.5 64.613 1174.64 73.2536L1167.64 82.0311L1167.61 82.0971L1167.56 82.1158C1167.52 82.1345 1167.49 82.2005 1167.41 82.2852L1064.86 211.19C1057.98 219.819 1048.95 226.489 1038.68 230.534C1028.41 234.579 1017.26 235.858 1006.34 234.241L832.078 208.181C819.904 206.367 808.536 200.999 799.398 192.753C799.306 192.672 799.205 192.601 799.096 192.543C799.055 192.497 799.004 192.461 798.946 192.439L798.927 192.391C798.89 192.377 798.86 192.35 798.842 192.315C791.808 185.881 786.335 177.927 782.84 169.059L729.851 34.5275C728.828 31.9975 728.019 29.3864 727.433 26.7216C771.207 65.5746 827.547 87.2989 886.074 87.8908L886.559 89.1229L960.554 100.211C969.228 101.501 978.088 100.488 986.247 97.2748C994.406 94.0611 1001.58 88.7592 1007.04 81.9007L1053.6 23.3296L1053.47 22.9979C1095.9 -16.5432 1122.78 -69.9643 1129.24 -127.602C1129.59 -126.863 1129.86 -126.176 1130.15 -125.441Z" fill="#444444" fill-opacity="0.23"/>
<path d="M846.112 -13.5652L886.073 87.8904C827.546 87.2985 771.205 65.5742 727.432 26.7211C726.763 24.2016 726.249 21.6441 725.893 19.0617C724.989 12.5388 725.075 5.91669 726.148 -0.580537C727.655 -10.6012 731.584 -20.1028 737.595 -28.2607C743.606 -36.4185 751.517 -42.986 760.642 -47.3932C768.432 -51.0777 776.896 -53.1233 785.509 -53.4029C794.123 -53.6826 802.701 -52.1904 810.715 -49.019C818.727 -45.8474 826.004 -41.0643 832.093 -34.9659C838.182 -28.8673 842.953 -21.5833 846.112 -13.5652Z" fill="#555555" fill-opacity="0.23"/>
<path d="M1129.25 -127.578C1122.79 -69.9398 1095.91 -16.519 1053.48 23.0223L1013.94 -77.3434C1007.81 -92.3745 1007.59 -109.165 1013.3 -124.357C1019.02 -139.55 1030.26 -152.023 1044.78 -159.282C1055.16 -164.205 1066.68 -166.188 1078.1 -165.017C1078.12 -165.022 1078.13 -165.022 1078.14 -165.017C1078.16 -165.011 1078.17 -165.001 1078.17 -164.988C1078.22 -164.98 1078.28 -164.983 1078.33 -164.997C1087.62 -163.978 1096.58 -160.906 1104.54 -156.005C1112.5 -151.103 1119.27 -144.494 1124.36 -136.655C1126.25 -133.773 1127.88 -130.736 1129.25 -127.578Z" fill="#555555" fill-opacity="0.23"/>
<g style="mix-blend-mode:multiply" opacity="0.08">
<g style="mix-blend-mode:multiply" opacity="0.08">
<path d="M867.772 41.428L886.082 87.9147C827.555 87.3227 771.215 65.5984 727.441 26.7453C726.772 24.2258 726.258 21.6678 725.902 19.0859C757.626 27.5008 813.27 40.0143 867.772 41.428Z" fill="#444444" fill-opacity="0.23"/>
</g>
</g>
<g style="mix-blend-mode:multiply" opacity="0.08">
<g style="mix-blend-mode:multiply" opacity="0.08">
<path d="M1129.25 -127.578C1122.79 -69.9395 1095.91 -16.5185 1053.48 23.0227L1034.89 -24.1748C1068.67 -58.3392 1098.67 -96.0507 1124.37 -136.655C1126.25 -133.772 1127.88 -130.736 1129.25 -127.578Z" fill="#444444" fill-opacity="0.23"/>
</g>
</g>
<g style="mix-blend-mode:screen" opacity="0.4">
<g style="mix-blend-mode:screen" opacity="0.4">
<path d="M1169.64 16.5156L1169.72 16.7047C1172.75 24.479 1173.7 32.913 1172.47 41.1678C1171.24 49.4231 1167.86 57.2111 1162.69 63.7572L1052.91 201.694C1047.7 208.229 1040.87 213.281 1033.09 216.343C1025.31 219.406 1016.87 220.372 1008.6 219.145L873.087 198.899L872.615 198.811L834.342 193.085C826.723 191.935 819.495 188.961 813.273 184.416C807.051 179.872 802.019 173.891 798.607 166.982C866.22 183.818 937.373 179.48 1002.44 154.557C1067.51 129.633 1123.35 85.3252 1162.41 27.6275L1162.76 27.1096L1162.94 26.8741C1165.28 23.4345 1167.46 20.0034 1169.64 16.5156Z" fill="#444444" fill-opacity="0.23"/>
</g>
</g>
<g style="mix-blend-mode:screen" opacity="0.6">
<g style="mix-blend-mode:screen" opacity="0.6">
<path d="M798.936 192.41C799.001 192.438 799.019 192.485 799.102 192.559C799.062 192.514 799.011 192.479 798.954 192.457L798.936 192.41Z" fill="#444444" fill-opacity="0.23"/>
</g>
</g>
<g style="mix-blend-mode:multiply" opacity="0.25">
<g style="mix-blend-mode:multiply" opacity="0.25">
<path d="M1167.42 82.3056L1064.87 211.21C1057.99 219.839 1048.96 226.51 1038.69 230.555C1028.42 234.6 1017.27 235.878 1006.35 234.261L832.085 208.201C819.911 206.387 808.543 201.02 799.406 192.773C800.046 193.288 801.205 194.145 802.863 195.298C806.749 197.866 810.886 200.033 815.209 201.766C821.868 204.386 828.904 205.921 836.049 206.312C844.48 207.151 853.999 208.109 864.339 209.346C885.087 211.574 909.227 214.492 935.037 217.901C947.938 219.662 961.283 221.303 974.826 223.304C981.62 224.295 988.415 225.286 995.257 226.258L1005.53 227.741C1008.68 228.245 1011.85 228.512 1015.04 228.538C1027.59 228.768 1039.86 224.803 1049.9 217.269C1054.89 213.442 1059.33 208.95 1063.09 203.919C1067.35 198.739 1071.53 193.645 1075.68 188.616C1092.28 168.503 1107.94 149.907 1121.55 134.146C1147 104.39 1165.21 84.6253 1167.42 82.3056Z" fill="#444444" fill-opacity="0.23"/>
</g>
</g>
<g style="mix-blend-mode:multiply" opacity="0.25">
<g style="mix-blend-mode:multiply" opacity="0.25">
<path d="M1129.25 -127.581L1128.39 -116.841L1127.05 -106.076L1125.17 -95.4274L1122.76 -84.8475L1119.82 -74.384L1116.46 -64.0267L1112.54 -53.8332L1108.15 -43.8407L1103.31 -34.0493L1098 -24.4589L1092.25 -15.1356L1086.08 -6.07948L1079.47 2.70957L1072.47 11.2128L1065.05 19.3356L1059.51 24.8579L1057.98 26.8265C1047.68 40.1357 1037.46 53.521 1027.01 66.7253L1011.25 86.6166C1005.21 93.9809 997.406 99.6928 988.559 103.218C984.137 104.935 979.517 106.092 974.808 106.663C972.459 106.926 970.096 107.052 967.732 107.042C965.398 107.025 963.068 106.865 960.755 106.561L935.599 102.73C918.948 100.202 902.345 97.3805 885.752 94.7203L882.482 94.2017L882.146 93.3487L874.903 93.0267L863.881 92.0038L852.909 90.4136L842.025 88.351L831.257 85.75L820.595 82.7239L810.163 79.1694L799.914 75.1051L789.884 70.6259L780.037 65.6369L770.504 60.1956L761.209 54.3868L752.258 48.0596L743.611 41.3935L735.326 34.2564L727.44 26.7432L736.116 33.3432L744.992 39.4809L754.126 45.2984L763.432 50.7195L772.958 55.7257L782.656 60.3356L792.555 64.4831L802.532 68.2716L812.71 71.5978L823.022 74.4329L833.365 76.9277L843.825 78.884L854.343 80.4339L864.949 81.5114L875.547 82.1538L883.86 82.2734L886.566 89.1445L960.561 100.232C969.235 101.523 978.095 100.51 986.254 97.2964C994.413 94.0827 1001.58 88.7809 1007.05 81.9223L1053.61 23.3513L1051.27 17.4279L1057.34 11.7003L1064.66 4.16339L1071.71 -3.64919L1078.4 -11.8136L1084.71 -20.2638L1090.69 -28.971L1096.36 -37.9353L1101.61 -47.1193L1106.42 -56.5704L1110.89 -66.2125L1115.01 -76.0456L1118.67 -86.0798L1121.95 -96.2389L1124.78 -106.552L1127.22 -117.037L1129.25 -127.581Z" fill="#444444" fill-opacity="0.23"/>
</g>
</g>
<g style="mix-blend-mode:screen" opacity="0.4">
<g style="mix-blend-mode:screen" opacity="0.4">
<path d="M1162.41 27.6246L1155.91 37.795L1148.38 48.4235C1143.14 55.4134 1137.69 62.1942 1132.03 68.7656C1126.31 75.3462 1120.29 81.6573 1113.98 87.699C1107.68 93.7406 1101.17 99.551 1094.47 105.13C1081.03 116.329 1066.68 126.377 1051.56 135.168C1044.01 139.62 1036.26 143.712 1028.35 147.539C1020.32 151.469 1012.55 154.804 1004.28 158.004C996.131 161.214 987.831 164.046 979.438 166.64L966.774 170.205L954.019 173.258L941.105 175.772L928.118 177.822L915.087 179.342L901.945 180.303L888.825 180.763L875.708 180.675L862.565 180.104L849.49 179.014L836.495 177.29L823.54 175.113L810.72 172.444L803.381 170.627C809.768 180.705 819.718 188.005 831.249 191.071C834.697 191.902 838.127 192.412 841.679 193.093L852.149 194.936L872.614 198.808L834.34 193.082C826.722 191.932 819.494 188.959 813.272 184.414C807.05 179.869 802.018 173.888 798.605 166.979C866.219 183.815 937.372 179.478 1002.44 154.553C1067.51 129.63 1123.35 85.3223 1162.41 27.6246Z" fill="#444444" fill-opacity="0.23"/>
</g>
</g>
<g style="mix-blend-mode:screen" opacity="0.5">
<g style="mix-blend-mode:screen" opacity="0.5">
<path d="M846.115 -13.5667L863.977 31.7827C863.977 31.7827 857.494 20.0493 849.107 1.95026C846.964 -2.51563 844.683 -7.47405 842.374 -12.6407C839.969 -17.6883 836.947 -22.4187 833.379 -26.7235C825.587 -35.9501 815.246 -42.6733 803.651 -46.0513C797.806 -47.7281 791.747 -48.5501 785.666 -48.492C779.822 -48.3009 774.025 -47.3785 768.411 -45.7459C766.942 -45.1673 765.501 -44.6547 764.08 -44.0948L762.166 -43.3956L760.279 -42.4882C757.797 -41.3576 755.409 -40.0325 753.136 -38.5254C748.9 -35.719 745.02 -32.408 741.583 -28.6653C736.35 -22.8869 732.15 -16.2517 729.166 -9.0496C728.083 -6.3788 727.277 -4.25512 726.825 -2.7632C726.497 -1.64893 726.248 -0.893608 726.151 -0.582013C727.658 -10.6027 731.587 -20.1043 737.598 -28.2621C743.609 -36.42 751.52 -42.9875 760.645 -47.3947C768.435 -51.0792 776.899 -53.1246 785.513 -53.4044C794.126 -53.684 802.705 -52.1919 810.718 -49.0205C818.731 -45.8489 826.007 -41.0658 832.096 -34.9672C838.184 -28.8686 842.956 -21.5848 846.115 -13.5667Z" fill="#444444" fill-opacity="0.23"/>
</g>
</g>
<path d="M224.67 128H222.568L208.264 106.706V128H206.145V103.117H208.264L222.585 124.428V103.117H224.67V128ZM244.733 121.027H233.437L230.874 128H228.669L238.085 103.117H240.085L249.501 128H247.314L244.733 121.027ZM234.086 119.233H244.067L239.077 105.681L234.086 119.233ZM255.961 103.117L265.139 125.078L274.35 103.117H277.153V128H275.051V117.165L275.222 106.057L265.959 128H264.335L255.107 106.142L255.278 117.097V128H253.176V103.117H255.961ZM297.199 116.071H285.561V126.223H298.942V128H283.459V103.117H298.857V104.912H285.561V114.294H297.199V116.071Z" fill="#DEDEDE"/>
<path d="M315.853 124.548H327.149V128H311.529V103.117H315.853V124.548ZM344.735 122.207H335.096L333.08 128H328.585L337.984 103.117H341.864L351.28 128H346.769L344.735 122.207ZM336.31 118.72H343.521L339.916 108.398L336.31 118.72ZM367.123 121.591C367.123 120.498 366.735 119.654 365.96 119.062C365.197 118.47 363.813 117.871 361.808 117.268C359.802 116.664 358.207 115.992 357.022 115.251C354.755 113.827 353.622 111.97 353.622 109.68C353.622 107.674 354.436 106.022 356.065 104.724C357.706 103.425 359.831 102.775 362.44 102.775C364.172 102.775 365.715 103.094 367.071 103.732C368.427 104.37 369.492 105.282 370.267 106.467C371.042 107.64 371.429 108.945 371.429 110.38H367.123C367.123 109.082 366.712 108.068 365.892 107.338C365.083 106.598 363.921 106.228 362.406 106.228C360.993 106.228 359.894 106.529 359.107 107.133C358.333 107.737 357.945 108.58 357.945 109.663C357.945 110.574 358.367 111.337 359.21 111.953C360.053 112.556 361.443 113.149 363.38 113.73C365.317 114.3 366.872 114.955 368.045 115.695C369.219 116.424 370.079 117.268 370.626 118.225C371.173 119.17 371.446 120.281 371.446 121.557C371.446 123.631 370.649 125.283 369.054 126.513C367.47 127.732 365.317 128.342 362.594 128.342C360.794 128.342 359.136 128.011 357.621 127.351C356.117 126.678 354.943 125.756 354.1 124.582C353.268 123.409 352.853 122.041 352.853 120.48H357.176C357.176 121.893 357.643 122.987 358.578 123.762C359.512 124.536 360.851 124.924 362.594 124.924C364.098 124.924 365.226 124.622 365.978 124.018C366.741 123.403 367.123 122.594 367.123 121.591ZM393.219 106.604H385.46V128H381.17V106.604H373.48V103.117H393.219V106.604ZM416.239 128H411.915L400.824 110.346V128H396.5V103.117H400.824L411.949 120.839V103.117H416.239V128ZM435.584 122.207H425.946L423.929 128H419.435L428.834 103.117H432.713L442.13 128H437.618L435.584 122.207ZM427.159 118.72H434.371L430.765 108.398L427.159 118.72ZM450.572 103.117L457.75 122.189L464.911 103.117H470.499V128H466.192V119.797L466.62 108.825L459.271 128H456.178L448.846 108.842L449.273 119.797V128H444.967V103.117H450.572ZM490.169 116.892H479.95V124.548H491.896V128H475.626V103.117H491.776V106.604H479.95V113.474H490.169V116.892Z" fill="white"/>
<path d="M317.865 150.566C317.702 152.064 317.165 153.21 316.254 154.004C315.349 154.798 314.141 155.195 312.631 155.195C311.576 155.195 310.642 154.932 309.828 154.404C309.021 153.877 308.396 153.132 307.953 152.168C307.51 151.198 307.286 150.091 307.279 148.848V147.002C307.279 145.739 307.501 144.619 307.943 143.643C308.386 142.666 309.021 141.914 309.848 141.387C310.681 140.853 311.638 140.586 312.719 140.586C314.242 140.586 315.443 140.999 316.322 141.826C317.208 142.646 317.722 143.783 317.865 145.234H316.654C316.355 142.819 315.043 141.611 312.719 141.611C311.43 141.611 310.401 142.093 309.633 143.057C308.871 144.02 308.49 145.352 308.49 147.051V148.789C308.49 150.43 308.861 151.738 309.604 152.715C310.352 153.691 311.361 154.18 312.631 154.18C313.887 154.18 314.835 153.88 315.473 153.281C316.111 152.676 316.505 151.771 316.654 150.566H317.865ZM326.098 149.082H321.967V155H320.756V140.781H325.375C326.892 140.781 328.077 141.149 328.93 141.885C329.783 142.62 330.209 143.649 330.209 144.971C330.209 145.882 329.942 146.686 329.408 147.383C328.874 148.079 328.158 148.561 327.26 148.828L330.814 154.873V155H329.535L326.098 149.082ZM321.967 148.057H325.648C326.658 148.057 327.468 147.77 328.08 147.197C328.692 146.624 328.998 145.882 328.998 144.971C328.998 143.968 328.679 143.19 328.041 142.637C327.403 142.083 326.508 141.807 325.355 141.807H321.967V148.057ZM341.332 148.184H334.682V153.984H342.328V155H333.48V140.781H342.279V141.807H334.682V147.168H341.332V148.184ZM352.543 151.016H346.088L344.623 155H343.363L348.744 140.781H349.887L355.268 155H354.018L352.543 151.016ZM346.459 149.99H352.162L349.311 142.246L346.459 149.99ZM365.746 141.807H360.873V155H359.672V141.807H354.809V140.781H365.746V141.807ZM369.516 155H368.314V140.781H369.516V155ZM377.67 153.242L377.748 153.545L377.836 153.242L382.309 140.781H383.627L378.334 155H377.182L371.889 140.781H373.197L377.67 153.242ZM393.578 148.184H386.928V153.984H394.574V155H385.727V140.781H394.525V141.807H386.928V147.168H393.578V148.184ZM401.977 155V140.781H405.951C407.117 140.781 408.161 141.048 409.086 141.582C410.01 142.109 410.73 142.868 411.244 143.857C411.765 144.847 412.025 145.973 412.025 147.236V148.545C412.025 149.814 411.768 150.941 411.254 151.924C410.74 152.907 410.014 153.665 409.076 154.199C408.145 154.733 407.074 155 405.863 155H401.977ZM403.178 141.807V153.984H405.873C407.37 153.984 408.572 153.49 409.477 152.5C410.382 151.504 410.834 150.16 410.834 148.467V147.217C410.834 145.583 410.388 144.274 409.496 143.291C408.604 142.308 407.429 141.813 405.971 141.807H403.178ZM416.547 155H415.346V140.781H416.547V155ZM425.727 149.082H421.596V155H420.385V140.781H425.004C426.521 140.781 427.706 141.149 428.559 141.885C429.411 142.62 429.838 143.649 429.838 144.971C429.838 145.882 429.571 146.686 429.037 147.383C428.503 148.079 427.787 148.561 426.889 148.828L430.443 154.873V155H429.164L425.727 149.082ZM421.596 148.057H425.277C426.286 148.057 427.097 147.77 427.709 147.197C428.321 146.624 428.627 145.882 428.627 144.971C428.627 143.968 428.308 143.19 427.67 142.637C427.032 142.083 426.137 141.807 424.984 141.807H421.596V148.057ZM440.961 148.184H434.311V153.984H441.957V155H433.109V140.781H441.908V141.807H434.311V147.168H440.961V148.184ZM454.564 150.566C454.402 152.064 453.865 153.21 452.953 154.004C452.048 154.798 450.84 155.195 449.33 155.195C448.275 155.195 447.341 154.932 446.527 154.404C445.72 153.877 445.095 153.132 444.652 152.168C444.21 151.198 443.985 150.091 443.979 148.848V147.002C443.979 145.739 444.2 144.619 444.643 143.643C445.085 142.666 445.72 141.914 446.547 141.387C447.38 140.853 448.337 140.586 449.418 140.586C450.941 140.586 452.143 140.999 453.021 141.826C453.907 142.646 454.421 143.783 454.564 145.234H453.354C453.054 142.819 451.742 141.611 449.418 141.611C448.129 141.611 447.1 142.093 446.332 143.057C445.57 144.02 445.189 145.352 445.189 147.051V148.789C445.189 150.43 445.561 151.738 446.303 152.715C447.051 153.691 448.061 154.18 449.33 154.18C450.587 154.18 451.534 153.88 452.172 153.281C452.81 152.676 453.204 151.771 453.354 150.566H454.564ZM466.84 141.807H461.967V155H460.766V141.807H455.902V140.781H466.84V141.807ZM479.379 148.662C479.379 149.971 479.151 151.12 478.695 152.109C478.246 153.099 477.602 153.861 476.762 154.395C475.922 154.928 474.952 155.195 473.852 155.195C472.191 155.195 470.85 154.603 469.828 153.418C468.806 152.227 468.295 150.622 468.295 148.604V147.139C468.295 145.843 468.523 144.697 468.979 143.701C469.441 142.699 470.092 141.93 470.932 141.396C471.771 140.856 472.738 140.586 473.832 140.586C474.926 140.586 475.889 140.85 476.723 141.377C477.562 141.904 478.21 142.65 478.666 143.613C479.122 144.577 479.359 145.693 479.379 146.963V148.662ZM478.178 147.119C478.178 145.407 477.79 144.066 477.016 143.096C476.241 142.126 475.18 141.641 473.832 141.641C472.51 141.641 471.456 142.129 470.668 143.105C469.887 144.076 469.496 145.433 469.496 147.178V148.662C469.496 150.348 469.887 151.686 470.668 152.676C471.449 153.659 472.51 154.15 473.852 154.15C475.212 154.15 476.273 153.665 477.035 152.695C477.797 151.719 478.178 150.361 478.178 148.623V147.119ZM487.719 149.082H483.588V155H482.377V140.781H486.996C488.513 140.781 489.698 141.149 490.551 141.885C491.404 142.62 491.83 143.649 491.83 144.971C491.83 145.882 491.563 146.686 491.029 147.383C490.495 148.079 489.779 148.561 488.881 148.828L492.436 154.873V155H491.156L487.719 149.082ZM483.588 148.057H487.27C488.279 148.057 489.089 147.77 489.701 147.197C490.313 146.624 490.619 145.882 490.619 144.971C490.619 143.968 490.3 143.19 489.662 142.637C489.024 142.083 488.129 141.807 486.977 141.807H483.588V148.057Z" fill="#DEDEDE"/>
<path d="M671.907 312.28H674.881V313.562H671.907V316.931H670.545V313.562H667.571V312.28H670.545V309.167H671.907V312.28ZM681.59 313.312C681.307 313.649 680.967 313.92 680.572 314.125C680.181 314.331 679.751 314.433 679.283 314.433C678.667 314.433 678.13 314.282 677.671 313.979C677.217 313.676 676.866 313.251 676.617 312.705C676.368 312.153 676.243 311.545 676.243 310.881C676.243 310.168 676.377 309.526 676.646 308.955C676.919 308.383 677.305 307.946 677.803 307.644C678.301 307.341 678.882 307.189 679.546 307.189C680.601 307.189 681.431 307.585 682.037 308.376C682.647 309.162 682.952 310.236 682.952 311.599V311.994C682.952 314.069 682.542 315.585 681.722 316.542C680.901 317.495 679.664 317.983 678.008 318.007H677.745V316.865H678.03C679.148 316.845 680.008 316.555 680.608 315.993C681.209 315.427 681.536 314.533 681.59 313.312ZM679.502 313.312C679.957 313.312 680.374 313.173 680.755 312.895C681.141 312.617 681.421 312.272 681.597 311.862V311.32C681.597 310.432 681.404 309.709 681.019 309.152C680.633 308.596 680.145 308.317 679.554 308.317C678.958 308.317 678.479 308.547 678.118 309.006C677.757 309.46 677.576 310.061 677.576 310.808C677.576 311.535 677.75 312.136 678.096 312.609C678.448 313.078 678.917 313.312 679.502 313.312ZM690.013 313.312C689.729 313.649 689.39 313.92 688.995 314.125C688.604 314.331 688.174 314.433 687.706 314.433C687.09 314.433 686.553 314.282 686.094 313.979C685.64 313.676 685.289 313.251 685.04 312.705C684.791 312.153 684.666 311.545 684.666 310.881C684.666 310.168 684.8 309.526 685.069 308.955C685.342 308.383 685.728 307.946 686.226 307.644C686.724 307.341 687.305 307.189 687.969 307.189C689.024 307.189 689.854 307.585 690.459 308.376C691.07 309.162 691.375 310.236 691.375 311.599V311.994C691.375 314.069 690.965 315.585 690.145 316.542C689.324 317.495 688.086 317.983 686.431 318.007H686.167V316.865H686.453C687.571 316.845 688.431 316.555 689.031 315.993C689.632 315.427 689.959 314.533 690.013 313.312ZM687.925 313.312C688.379 313.312 688.797 313.173 689.178 312.895C689.563 312.617 689.844 312.272 690.02 311.862V311.32C690.02 310.432 689.827 309.709 689.441 309.152C689.056 308.596 688.567 308.317 687.977 308.317C687.381 308.317 686.902 308.547 686.541 309.006C686.18 309.46 685.999 310.061 685.999 310.808C685.999 311.535 686.172 312.136 686.519 312.609C686.871 313.078 687.339 313.312 687.925 313.312ZM693.865 312.653L694.407 307.336H699.871V308.588H695.557L695.235 311.496C695.757 311.188 696.351 311.035 697.015 311.035C697.986 311.035 698.758 311.357 699.329 312.001C699.9 312.641 700.186 313.508 700.186 314.602C700.186 315.7 699.888 316.567 699.292 317.202C698.702 317.832 697.874 318.146 696.81 318.146C695.867 318.146 695.098 317.885 694.502 317.363C693.907 316.84 693.567 316.118 693.484 315.195H694.766C694.849 315.805 695.066 316.267 695.418 316.579C695.77 316.887 696.233 317.041 696.81 317.041C697.439 317.041 697.933 316.826 698.289 316.396C698.65 315.966 698.831 315.373 698.831 314.616C698.831 313.903 698.636 313.332 698.245 312.902C697.859 312.468 697.344 312.25 696.7 312.25C696.109 312.25 695.645 312.38 695.308 312.639L694.949 312.932L693.865 312.653ZM709.839 318H708.477V308.969L705.745 309.973V308.742L709.627 307.285H709.839V318ZM720.796 318H713.809V317.026L717.5 312.924C718.047 312.304 718.423 311.801 718.628 311.416C718.838 311.025 718.943 310.622 718.943 310.207C718.943 309.65 718.775 309.194 718.438 308.837C718.101 308.481 717.652 308.303 717.09 308.303C716.417 308.303 715.892 308.496 715.516 308.881C715.145 309.262 714.959 309.794 714.959 310.478H713.604C713.604 309.497 713.919 308.703 714.549 308.098C715.184 307.492 716.031 307.189 717.09 307.189C718.082 307.189 718.865 307.451 719.441 307.973C720.018 308.491 720.306 309.182 720.306 310.046C720.306 311.096 719.637 312.346 718.299 313.796L715.442 316.894H720.796V318ZM724.202 312.009H725.22C725.86 311.999 726.363 311.831 726.729 311.503C727.095 311.176 727.278 310.734 727.278 310.178C727.278 308.928 726.656 308.303 725.411 308.303C724.825 308.303 724.356 308.471 724.004 308.808C723.658 309.14 723.484 309.582 723.484 310.134H722.129C722.129 309.289 722.437 308.588 723.052 308.032C723.672 307.47 724.458 307.189 725.411 307.189C726.417 307.189 727.205 307.456 727.776 307.988C728.348 308.52 728.633 309.26 728.633 310.207C728.633 310.671 728.482 311.12 728.179 311.555C727.881 311.989 727.474 312.314 726.956 312.529C727.542 312.714 727.994 313.022 728.311 313.452C728.633 313.881 728.794 314.406 728.794 315.026C728.794 315.983 728.482 316.743 727.857 317.304C727.232 317.866 726.419 318.146 725.418 318.146C724.417 318.146 723.602 317.875 722.972 317.333C722.347 316.792 722.034 316.076 722.034 315.188H723.396C723.396 315.749 723.58 316.198 723.946 316.535C724.312 316.872 724.803 317.041 725.418 317.041C726.072 317.041 726.573 316.87 726.919 316.528C727.266 316.186 727.439 315.695 727.439 315.056C727.439 314.436 727.249 313.959 726.868 313.627C726.487 313.295 725.938 313.125 725.22 313.115H724.202V312.009ZM737.642 318H730.655V317.026L734.346 312.924C734.893 312.304 735.269 311.801 735.474 311.416C735.684 311.025 735.789 310.622 735.789 310.207C735.789 309.65 735.621 309.194 735.284 308.837C734.947 308.481 734.498 308.303 733.936 308.303C733.262 308.303 732.737 308.496 732.361 308.881C731.99 309.262 731.805 309.794 731.805 310.478H730.45C730.45 309.497 730.765 308.703 731.395 308.098C732.029 307.492 732.876 307.189 733.936 307.189C734.927 307.189 735.711 307.451 736.287 307.973C736.863 308.491 737.151 309.182 737.151 310.046C737.151 311.096 736.482 312.346 735.145 313.796L732.288 316.894H737.642V318ZM741.048 312.009H742.066C742.706 311.999 743.208 311.831 743.575 311.503C743.941 311.176 744.124 310.734 744.124 310.178C744.124 308.928 743.501 308.303 742.256 308.303C741.67 308.303 741.202 308.471 740.85 308.808C740.503 309.14 740.33 309.582 740.33 310.134H738.975C738.975 309.289 739.283 308.588 739.898 308.032C740.518 307.47 741.304 307.189 742.256 307.189C743.262 307.189 744.051 307.456 744.622 307.988C745.193 308.52 745.479 309.26 745.479 310.207C745.479 310.671 745.328 311.12 745.025 311.555C744.727 311.989 744.319 312.314 743.802 312.529C744.388 312.714 744.839 313.022 745.157 313.452C745.479 313.881 745.64 314.406 745.64 315.026C745.64 315.983 745.328 316.743 744.703 317.304C744.078 317.866 743.265 318.146 742.264 318.146C741.263 318.146 740.447 317.875 739.817 317.333C739.192 316.792 738.88 316.076 738.88 315.188H740.242C740.242 315.749 740.425 316.198 740.792 316.535C741.158 316.872 741.648 317.041 742.264 317.041C742.918 317.041 743.418 316.87 743.765 316.528C744.112 316.186 744.285 315.695 744.285 315.056C744.285 314.436 744.095 313.959 743.714 313.627C743.333 313.295 742.784 313.125 742.066 313.115H741.048V312.009ZM756.941 314.418H758.421V315.524H756.941V318H755.579V315.524H750.723V314.726L755.499 307.336H756.941V314.418ZM752.261 314.418H755.579V309.189L755.418 309.482L752.261 314.418ZM770.352 318H763.365V317.026L767.056 312.924C767.603 312.304 767.979 311.801 768.184 311.416C768.394 311.025 768.499 310.622 768.499 310.207C768.499 309.65 768.331 309.194 767.994 308.837C767.657 308.481 767.208 308.303 766.646 308.303C765.972 308.303 765.447 308.496 765.071 308.881C764.7 309.262 764.515 309.794 764.515 310.478H763.16C763.16 309.497 763.475 308.703 764.104 308.098C764.739 307.492 765.586 307.189 766.646 307.189C767.637 307.189 768.421 307.451 768.997 307.973C769.573 308.491 769.861 309.182 769.861 310.046C769.861 311.096 769.192 312.346 767.854 313.796L764.998 316.894H770.352V318ZM773.758 312.009H774.776C775.416 311.999 775.918 311.831 776.285 311.503C776.651 311.176 776.834 310.734 776.834 310.178C776.834 308.928 776.211 308.303 774.966 308.303C774.38 308.303 773.912 308.471 773.56 308.808C773.213 309.14 773.04 309.582 773.04 310.134H771.685C771.685 309.289 771.993 308.588 772.608 308.032C773.228 307.47 774.014 307.189 774.966 307.189C775.972 307.189 776.761 307.456 777.332 307.988C777.903 308.52 778.189 309.26 778.189 310.207C778.189 310.671 778.038 311.12 777.735 311.555C777.437 311.989 777.029 312.314 776.512 312.529C777.098 312.714 777.549 313.022 777.867 313.452C778.189 313.881 778.35 314.406 778.35 315.026C778.35 315.983 778.038 316.743 777.413 317.304C776.788 317.866 775.975 318.146 774.974 318.146C773.973 318.146 773.157 317.875 772.527 317.333C771.902 316.792 771.59 316.076 771.59 315.188H772.952C772.952 315.749 773.135 316.198 773.501 316.535C773.868 316.872 774.358 317.041 774.974 317.041C775.628 317.041 776.128 316.87 776.475 316.528C776.822 316.186 776.995 315.695 776.995 315.056C776.995 314.436 776.805 313.959 776.424 313.627C776.043 313.295 775.494 313.125 774.776 313.115H773.758V312.009ZM785.931 314.418H787.41V315.524H785.931V318H784.568V315.524H779.712V314.726L784.488 307.336H785.931V314.418ZM781.25 314.418H784.568V309.189L784.407 309.482L781.25 314.418ZM789.256 312.653L789.798 307.336H795.262V308.588H790.948L790.625 311.496C791.148 311.188 791.741 311.035 792.405 311.035C793.377 311.035 794.148 311.357 794.72 312.001C795.291 312.641 795.577 313.508 795.577 314.602C795.577 315.7 795.279 316.567 794.683 317.202C794.092 317.832 793.265 318.146 792.2 318.146C791.258 318.146 790.489 317.885 789.893 317.363C789.297 316.84 788.958 316.118 788.875 315.195H790.157C790.24 315.805 790.457 316.267 790.809 316.579C791.16 316.887 791.624 317.041 792.2 317.041C792.83 317.041 793.323 316.826 793.68 316.396C794.041 315.966 794.222 315.373 794.222 314.616C794.222 313.903 794.026 313.332 793.636 312.902C793.25 312.468 792.735 312.25 792.09 312.25C791.5 312.25 791.036 312.38 790.699 312.639L790.34 312.932L789.256 312.653ZM806.497 314.418H807.977V315.524H806.497V318H805.135V315.524H800.279V314.726L805.054 307.336H806.497V314.418ZM801.817 314.418H805.135V309.189L804.974 309.482L801.817 314.418ZM811.17 312.009H812.188C812.828 311.999 813.331 311.831 813.697 311.503C814.063 311.176 814.246 310.734 814.246 310.178C814.246 308.928 813.624 308.303 812.378 308.303C811.792 308.303 811.324 308.471 810.972 308.808C810.625 309.14 810.452 309.582 810.452 310.134H809.097C809.097 309.289 809.405 308.588 810.02 308.032C810.64 307.47 811.426 307.189 812.378 307.189C813.384 307.189 814.173 307.456 814.744 307.988C815.315 308.52 815.601 309.26 815.601 310.207C815.601 310.671 815.45 311.12 815.147 311.555C814.849 311.989 814.441 312.314 813.924 312.529C814.51 312.714 814.961 313.022 815.279 313.452C815.601 313.881 815.762 314.406 815.762 315.026C815.762 315.983 815.45 316.743 814.825 317.304C814.2 317.866 813.387 318.146 812.386 318.146C811.385 318.146 810.569 317.875 809.939 317.333C809.314 316.792 809.002 316.076 809.002 315.188H810.364C810.364 315.749 810.547 316.198 810.914 316.535C811.28 316.872 811.771 317.041 812.386 317.041C813.04 317.041 813.541 316.87 813.887 316.528C814.234 316.186 814.407 315.695 814.407 315.056C814.407 314.436 814.217 313.959 813.836 313.627C813.455 313.295 812.906 313.125 812.188 313.115H811.17V312.009Z" fill="#767676"/>
<path d="M671.907 330.28H674.881V331.562H671.907V334.931H670.545V331.562H667.571V330.28H670.545V327.167H671.907V330.28ZM681.59 331.312C681.307 331.649 680.967 331.92 680.572 332.125C680.181 332.331 679.751 332.433 679.283 332.433C678.667 332.433 678.13 332.282 677.671 331.979C677.217 331.676 676.866 331.251 676.617 330.705C676.368 330.153 676.243 329.545 676.243 328.881C676.243 328.168 676.377 327.526 676.646 326.955C676.919 326.383 677.305 325.946 677.803 325.644C678.301 325.341 678.882 325.189 679.546 325.189C680.601 325.189 681.431 325.585 682.037 326.376C682.647 327.162 682.952 328.236 682.952 329.599V329.994C682.952 332.069 682.542 333.585 681.722 334.542C680.901 335.495 679.664 335.983 678.008 336.007H677.745V334.865H678.03C679.148 334.845 680.008 334.555 680.608 333.993C681.209 333.427 681.536 332.533 681.59 331.312ZM679.502 331.312C679.957 331.312 680.374 331.173 680.755 330.895C681.141 330.617 681.421 330.272 681.597 329.862V329.32C681.597 328.432 681.404 327.709 681.019 327.152C680.633 326.596 680.145 326.317 679.554 326.317C678.958 326.317 678.479 326.547 678.118 327.006C677.757 327.46 677.576 328.061 677.576 328.808C677.576 329.535 677.75 330.136 678.096 330.609C678.448 331.078 678.917 331.312 679.502 331.312ZM690.013 331.312C689.729 331.649 689.39 331.92 688.995 332.125C688.604 332.331 688.174 332.433 687.706 332.433C687.09 332.433 686.553 332.282 686.094 331.979C685.64 331.676 685.289 331.251 685.04 330.705C684.791 330.153 684.666 329.545 684.666 328.881C684.666 328.168 684.8 327.526 685.069 326.955C685.342 326.383 685.728 325.946 686.226 325.644C686.724 325.341 687.305 325.189 687.969 325.189C689.024 325.189 689.854 325.585 690.459 326.376C691.07 327.162 691.375 328.236 691.375 329.599V329.994C691.375 332.069 690.965 333.585 690.145 334.542C689.324 335.495 688.086 335.983 686.431 336.007H686.167V334.865H686.453C687.571 334.845 688.431 334.555 689.031 333.993C689.632 333.427 689.959 332.533 690.013 331.312ZM687.925 331.312C688.379 331.312 688.797 331.173 689.178 330.895C689.563 330.617 689.844 330.272 690.02 329.862V329.32C690.02 328.432 689.827 327.709 689.441 327.152C689.056 326.596 688.567 326.317 687.977 326.317C687.381 326.317 686.902 326.547 686.541 327.006C686.18 327.46 685.999 328.061 685.999 328.808C685.999 329.535 686.172 330.136 686.519 330.609C686.871 331.078 687.339 331.312 687.925 331.312ZM693.865 330.653L694.407 325.336H699.871V326.588H695.557L695.235 329.496C695.757 329.188 696.351 329.035 697.015 329.035C697.986 329.035 698.758 329.357 699.329 330.001C699.9 330.641 700.186 331.508 700.186 332.602C700.186 333.7 699.888 334.567 699.292 335.202C698.702 335.832 697.874 336.146 696.81 336.146C695.867 336.146 695.098 335.885 694.502 335.363C693.907 334.84 693.567 334.118 693.484 333.195H694.766C694.849 333.805 695.066 334.267 695.418 334.579C695.77 334.887 696.233 335.041 696.81 335.041C697.439 335.041 697.933 334.826 698.289 334.396C698.65 333.966 698.831 333.373 698.831 332.616C698.831 331.903 698.636 331.332 698.245 330.902C697.859 330.468 697.344 330.25 696.7 330.25C696.109 330.25 695.645 330.38 695.308 330.639L694.949 330.932L693.865 330.653ZM710.579 331.312C710.296 331.649 709.957 331.92 709.561 332.125C709.17 332.331 708.741 332.433 708.272 332.433C707.657 332.433 707.12 332.282 706.661 331.979C706.207 331.676 705.855 331.251 705.606 330.705C705.357 330.153 705.232 329.545 705.232 328.881C705.232 328.168 705.367 327.526 705.635 326.955C705.909 326.383 706.294 325.946 706.792 325.644C707.291 325.341 707.872 325.189 708.536 325.189C709.59 325.189 710.42 325.585 711.026 326.376C711.636 327.162 711.941 328.236 711.941 329.599V329.994C711.941 332.069 711.531 333.585 710.711 334.542C709.891 335.495 708.653 335.983 706.998 336.007H706.734V334.865H707.02C708.138 334.845 708.997 334.555 709.598 333.993C710.198 333.427 710.525 332.533 710.579 331.312ZM708.492 331.312C708.946 331.312 709.363 331.173 709.744 330.895C710.13 330.617 710.411 330.272 710.586 329.862V329.32C710.586 328.432 710.394 327.709 710.008 327.152C709.622 326.596 709.134 326.317 708.543 326.317C707.947 326.317 707.469 326.547 707.107 327.006C706.746 327.46 706.565 328.061 706.565 328.808C706.565 329.535 706.739 330.136 707.085 330.609C707.437 331.078 707.906 331.312 708.492 331.312ZM715.779 330.009H716.797C717.437 329.999 717.94 329.831 718.306 329.503C718.672 329.176 718.855 328.734 718.855 328.178C718.855 326.928 718.233 326.303 716.988 326.303C716.402 326.303 715.933 326.471 715.582 326.808C715.235 327.14 715.062 327.582 715.062 328.134H713.707C713.707 327.289 714.014 326.588 714.629 326.032C715.25 325.47 716.036 325.189 716.988 325.189C717.994 325.189 718.782 325.456 719.354 325.988C719.925 326.52 720.21 327.26 720.21 328.207C720.21 328.671 720.059 329.12 719.756 329.555C719.458 329.989 719.051 330.314 718.533 330.529C719.119 330.714 719.571 331.022 719.888 331.452C720.21 331.881 720.372 332.406 720.372 333.026C720.372 333.983 720.059 334.743 719.434 335.304C718.809 335.866 717.996 336.146 716.995 336.146C715.994 336.146 715.179 335.875 714.549 335.333C713.924 334.792 713.611 334.076 713.611 333.188H714.974C714.974 333.749 715.157 334.198 715.523 334.535C715.889 334.872 716.38 335.041 716.995 335.041C717.649 335.041 718.15 334.87 718.497 334.528C718.843 334.186 719.017 333.695 719.017 333.056C719.017 332.436 718.826 331.959 718.445 331.627C718.064 331.295 717.515 331.125 716.797 331.115H715.779V330.009ZM727.952 332.418H729.432V333.524H727.952V336H726.59V333.524H721.734V332.726L726.509 325.336H727.952V332.418ZM723.272 332.418H726.59V327.189L726.429 327.482L723.272 332.418ZM731.277 330.653L731.819 325.336H737.283V326.588H732.969L732.647 329.496C733.169 329.188 733.763 329.035 734.427 329.035C735.398 329.035 736.17 329.357 736.741 330.001C737.312 330.641 737.598 331.508 737.598 332.602C737.598 333.7 737.3 334.567 736.705 335.202C736.114 335.832 735.286 336.146 734.222 336.146C733.279 336.146 732.51 335.885 731.915 335.363C731.319 334.84 730.979 334.118 730.896 333.195H732.178C732.261 333.805 732.479 334.267 732.83 334.579C733.182 334.887 733.646 335.041 734.222 335.041C734.852 335.041 735.345 334.826 735.701 334.396C736.062 333.966 736.243 333.373 736.243 332.616C736.243 331.903 736.048 331.332 735.657 330.902C735.271 330.468 734.756 330.25 734.112 330.25C733.521 330.25 733.057 330.38 732.72 330.639L732.361 330.932L731.277 330.653ZM745.545 328.119C745.545 328.651 745.403 329.125 745.12 329.54C744.842 329.955 744.463 330.28 743.985 330.514C744.542 330.753 744.981 331.103 745.303 331.562C745.63 332.021 745.794 332.541 745.794 333.122C745.794 334.044 745.481 334.779 744.856 335.326C744.236 335.873 743.418 336.146 742.403 336.146C741.377 336.146 740.555 335.873 739.935 335.326C739.319 334.774 739.012 334.04 739.012 333.122C739.012 332.545 739.168 332.025 739.48 331.562C739.798 331.098 740.235 330.746 740.792 330.507C740.318 330.272 739.944 329.948 739.671 329.533C739.397 329.118 739.261 328.646 739.261 328.119C739.261 327.221 739.549 326.508 740.125 325.98C740.701 325.453 741.46 325.189 742.403 325.189C743.34 325.189 744.097 325.453 744.673 325.98C745.254 326.508 745.545 327.221 745.545 328.119ZM744.439 333.092C744.439 332.497 744.249 332.011 743.868 331.635C743.492 331.259 742.999 331.071 742.388 331.071C741.778 331.071 741.287 331.256 740.916 331.627C740.55 331.999 740.367 332.487 740.367 333.092C740.367 333.698 740.545 334.174 740.901 334.521C741.263 334.867 741.763 335.041 742.403 335.041C743.038 335.041 743.536 334.867 743.897 334.521C744.258 334.169 744.439 333.693 744.439 333.092ZM742.403 326.303C741.871 326.303 741.438 326.469 741.106 326.801C740.779 327.128 740.616 327.575 740.616 328.141C740.616 328.683 740.777 329.123 741.099 329.459C741.426 329.792 741.861 329.958 742.403 329.958C742.945 329.958 743.377 329.792 743.699 329.459C744.026 329.123 744.19 328.683 744.19 328.141C744.19 327.599 744.021 327.157 743.685 326.815C743.348 326.474 742.92 326.303 742.403 326.303ZM756.941 332.418H758.421V333.524H756.941V336H755.579V333.524H750.723V332.726L755.499 325.336H756.941V332.418ZM752.261 332.418H755.579V327.189L755.418 327.482L752.261 332.418ZM760.267 330.653L760.809 325.336H766.272V326.588H761.958L761.636 329.496C762.159 329.188 762.752 329.035 763.416 329.035C764.388 329.035 765.159 329.357 765.73 330.001C766.302 330.641 766.587 331.508 766.587 332.602C766.587 333.7 766.29 334.567 765.694 335.202C765.103 335.832 764.275 336.146 763.211 336.146C762.269 336.146 761.5 335.885 760.904 335.363C760.308 334.84 759.969 334.118 759.886 333.195H761.167C761.25 333.805 761.468 334.267 761.819 334.579C762.171 334.887 762.635 335.041 763.211 335.041C763.841 335.041 764.334 334.826 764.69 334.396C765.052 333.966 765.232 333.373 765.232 332.616C765.232 331.903 765.037 331.332 764.646 330.902C764.261 330.468 763.746 330.25 763.101 330.25C762.51 330.25 762.046 330.38 761.709 330.639L761.351 330.932L760.267 330.653ZM774.534 328.119C774.534 328.651 774.393 329.125 774.109 329.54C773.831 329.955 773.453 330.28 772.974 330.514C773.531 330.753 773.97 331.103 774.292 331.562C774.62 332.021 774.783 332.541 774.783 333.122C774.783 334.044 774.471 334.779 773.846 335.326C773.226 335.873 772.408 336.146 771.392 336.146C770.367 336.146 769.544 335.873 768.924 335.326C768.309 334.774 768.001 334.04 768.001 333.122C768.001 332.545 768.157 332.025 768.47 331.562C768.787 331.098 769.224 330.746 769.781 330.507C769.307 330.272 768.934 329.948 768.66 329.533C768.387 329.118 768.25 328.646 768.25 328.119C768.25 327.221 768.538 326.508 769.114 325.98C769.69 325.453 770.45 325.189 771.392 325.189C772.33 325.189 773.086 325.453 773.663 325.98C774.244 326.508 774.534 327.221 774.534 328.119ZM773.428 333.092C773.428 332.497 773.238 332.011 772.857 331.635C772.481 331.259 771.988 331.071 771.377 331.071C770.767 331.071 770.276 331.256 769.905 331.627C769.539 331.999 769.356 332.487 769.356 333.092C769.356 333.698 769.534 334.174 769.891 334.521C770.252 334.867 770.752 335.041 771.392 335.041C772.027 335.041 772.525 334.867 772.886 334.521C773.248 334.169 773.428 333.693 773.428 333.092ZM771.392 326.303C770.86 326.303 770.428 326.469 770.096 326.801C769.769 327.128 769.605 327.575 769.605 328.141C769.605 328.683 769.766 329.123 770.088 329.459C770.416 329.792 770.85 329.958 771.392 329.958C771.934 329.958 772.366 329.792 772.688 329.459C773.016 329.123 773.179 328.683 773.179 328.141C773.179 327.599 773.011 327.157 772.674 326.815C772.337 326.474 771.91 326.303 771.392 326.303ZM778.46 330.009H779.478C780.118 329.999 780.621 329.831 780.987 329.503C781.353 329.176 781.536 328.734 781.536 328.178C781.536 326.928 780.914 326.303 779.668 326.303C779.083 326.303 778.614 326.471 778.262 326.808C777.916 327.14 777.742 327.582 777.742 328.134H776.387C776.387 327.289 776.695 326.588 777.31 326.032C777.93 325.47 778.716 325.189 779.668 325.189C780.674 325.189 781.463 325.456 782.034 325.988C782.605 326.52 782.891 327.26 782.891 328.207C782.891 328.671 782.74 329.12 782.437 329.555C782.139 329.989 781.731 330.314 781.214 330.529C781.8 330.714 782.251 331.022 782.569 331.452C782.891 331.881 783.052 332.406 783.052 333.026C783.052 333.983 782.74 334.743 782.115 335.304C781.49 335.866 780.677 336.146 779.676 336.146C778.675 336.146 777.859 335.875 777.229 335.333C776.604 334.792 776.292 334.076 776.292 333.188H777.654C777.654 333.749 777.837 334.198 778.204 334.535C778.57 334.872 779.061 335.041 779.676 335.041C780.33 335.041 780.831 334.87 781.177 334.528C781.524 334.186 781.697 333.695 781.697 333.056C781.697 332.436 781.507 331.959 781.126 331.627C780.745 331.295 780.196 331.125 779.478 331.115H778.46V330.009ZM790.633 332.418H792.112V333.524H790.633V336H789.271V333.524H784.415V332.726L789.19 325.336H790.633V332.418ZM785.953 332.418H789.271V327.189L789.109 327.482L785.953 332.418ZM793.958 330.653L794.5 325.336H799.964V326.588H795.65L795.328 329.496C795.85 329.188 796.443 329.035 797.107 329.035C798.079 329.035 798.851 329.357 799.422 330.001C799.993 330.641 800.279 331.508 800.279 332.602C800.279 333.7 799.981 334.567 799.385 335.202C798.794 335.832 797.967 336.146 796.902 336.146C795.96 336.146 795.191 335.885 794.595 335.363C794 334.84 793.66 334.118 793.577 333.195H794.859C794.942 333.805 795.159 334.267 795.511 334.579C795.862 334.887 796.326 335.041 796.902 335.041C797.532 335.041 798.025 334.826 798.382 334.396C798.743 333.966 798.924 333.373 798.924 332.616C798.924 331.903 798.729 331.332 798.338 330.902C797.952 330.468 797.437 330.25 796.792 330.25C796.202 330.25 795.738 330.38 795.401 330.639L795.042 330.932L793.958 330.653ZM812.466 336H805.479V335.026L809.17 330.924C809.717 330.304 810.093 329.801 810.298 329.416C810.508 329.025 810.613 328.622 810.613 328.207C810.613 327.65 810.445 327.194 810.108 326.837C809.771 326.481 809.322 326.303 808.76 326.303C808.086 326.303 807.562 326.496 807.186 326.881C806.814 327.262 806.629 327.794 806.629 328.478H805.274C805.274 327.497 805.589 326.703 806.219 326.098C806.854 325.492 807.701 325.189 808.76 325.189C809.751 325.189 810.535 325.451 811.111 325.973C811.688 326.491 811.976 327.182 811.976 328.046C811.976 329.096 811.307 330.346 809.969 331.796L807.112 334.894H812.466V336ZM820.889 336H813.902V335.026L817.593 330.924C818.14 330.304 818.516 329.801 818.721 329.416C818.931 329.025 819.036 328.622 819.036 328.207C819.036 327.65 818.868 327.194 818.531 326.837C818.194 326.481 817.745 326.303 817.183 326.303C816.509 326.303 815.984 326.496 815.608 326.881C815.237 327.262 815.052 327.794 815.052 328.478H813.697C813.697 327.497 814.012 326.703 814.642 326.098C815.276 325.492 816.124 325.189 817.183 325.189C818.174 325.189 818.958 325.451 819.534 325.973C820.11 326.491 820.398 327.182 820.398 328.046C820.398 329.096 819.729 330.346 818.392 331.796L815.535 334.894H820.889V336Z" fill="#767676"/>
<path d="M669.747 392H668.34V381.336H669.747V392ZM680.521 392H679.107L673.738 383.782V392H672.325V381.336H673.738L679.122 389.59V381.336H680.521V392ZM688.899 387.291H684.424V392H683.018V381.336H689.625V382.493H684.424V386.141H688.899V387.291ZM699.512 387.012C699.512 388.057 699.336 388.97 698.985 389.751C698.633 390.528 698.135 391.121 697.491 391.531C696.846 391.941 696.094 392.146 695.235 392.146C694.395 392.146 693.65 391.941 693.001 391.531C692.352 391.116 691.846 390.528 691.485 389.766C691.128 389 690.945 388.113 690.936 387.107V386.338C690.936 385.313 691.114 384.407 691.47 383.621C691.827 382.835 692.33 382.234 692.979 381.819C693.633 381.399 694.38 381.189 695.22 381.189C696.075 381.189 696.827 381.397 697.476 381.812C698.13 382.222 698.633 382.82 698.985 383.606C699.336 384.388 699.512 385.298 699.512 386.338V387.012ZM698.113 386.324C698.113 385.059 697.859 384.09 697.352 383.416C696.844 382.737 696.133 382.398 695.22 382.398C694.332 382.398 693.631 382.737 693.118 383.416C692.61 384.09 692.349 385.027 692.334 386.229V387.012C692.334 388.238 692.591 389.202 693.104 389.905C693.621 390.604 694.332 390.953 695.235 390.953C696.143 390.953 696.846 390.623 697.344 389.964C697.842 389.3 698.099 388.35 698.113 387.115V386.324ZM713.113 388.323C713.055 389.505 712.762 390.438 712.234 391.121C711.707 391.805 711.001 392.146 710.118 392.146C709.205 392.146 708.619 391.736 708.36 390.916C708.096 391.331 707.793 391.641 707.452 391.846C707.115 392.046 706.766 392.146 706.404 392.146C705.711 392.146 705.186 391.863 704.83 391.297C704.473 390.73 704.341 389.947 704.434 388.946C704.507 388.14 704.69 387.422 704.983 386.792C705.281 386.158 705.662 385.66 706.126 385.298C706.595 384.937 707.085 384.756 707.598 384.756C707.994 384.756 708.348 384.81 708.66 384.917C708.973 385.02 709.324 385.225 709.715 385.533L709.334 389.59C709.241 390.718 709.554 391.282 710.271 391.282C710.823 391.282 711.27 391.009 711.612 390.462C711.954 389.915 712.139 389.202 712.168 388.323C712.261 386.424 711.907 384.976 711.106 383.98C710.311 382.984 709.097 382.486 707.466 382.486C706.485 382.486 705.613 382.73 704.852 383.218C704.09 383.702 703.489 384.402 703.05 385.32C702.61 386.238 702.364 387.298 702.31 388.499C702.251 389.71 702.398 390.762 702.75 391.656C703.101 392.544 703.636 393.223 704.354 393.692C705.076 394.166 705.948 394.402 706.968 394.402C707.408 394.402 707.847 394.349 708.287 394.241C708.731 394.134 709.1 393.995 709.393 393.824L709.664 394.666C709.361 394.856 708.958 395.013 708.455 395.135C707.957 395.257 707.452 395.318 706.939 395.318C705.718 395.318 704.668 395.042 703.79 394.49C702.911 393.943 702.251 393.152 701.812 392.117C701.377 391.087 701.189 389.881 701.248 388.499C701.307 387.156 701.607 385.95 702.149 384.881C702.691 383.807 703.426 382.979 704.354 382.398C705.281 381.812 706.329 381.519 707.496 381.519C708.711 381.519 709.754 381.792 710.623 382.339C711.492 382.886 712.139 383.675 712.564 384.705C712.989 385.735 713.172 386.941 713.113 388.323ZM705.599 388.946C705.53 389.639 705.594 390.171 705.789 390.542C705.989 390.914 706.304 391.099 706.734 391.099C707.027 391.099 707.308 390.975 707.576 390.726C707.85 390.477 708.074 390.12 708.25 389.656L708.257 389.59L708.594 385.906C708.321 385.765 708.028 385.694 707.715 385.694C707.144 385.694 706.67 385.984 706.294 386.565C705.923 387.146 705.691 387.94 705.599 388.946ZM721.126 387.071H716.504V390.85H721.873V392H715.098V381.336H721.8V382.493H716.504V385.921H721.126V387.071ZM725.44 381.336L728.926 390.037L732.413 381.336H734.236V392H732.83V387.847L732.962 383.365L729.461 392H728.384L724.891 383.387L725.03 387.847V392H723.624V381.336H725.44ZM742.74 389.217H738.272L737.269 392H735.818L739.891 381.336H741.121L745.201 392H743.758L742.74 389.217ZM738.697 388.06H742.322L740.506 383.072L738.697 388.06ZM748.145 392H746.739V381.336H748.145V392ZM752.137 390.85H757.19V392H750.723V381.336H752.137V390.85ZM758.611 391.29C758.611 391.055 758.68 390.86 758.816 390.704C758.958 390.547 759.168 390.469 759.446 390.469C759.725 390.469 759.935 390.547 760.076 390.704C760.223 390.86 760.296 391.055 760.296 391.29C760.296 391.514 760.223 391.702 760.076 391.854C759.935 392.005 759.725 392.081 759.446 392.081C759.168 392.081 758.958 392.005 758.816 391.854C758.68 391.702 758.611 391.514 758.611 391.29ZM770.594 388.616C770.462 389.744 770.044 390.616 769.341 391.231C768.643 391.841 767.713 392.146 766.551 392.146C765.291 392.146 764.28 391.695 763.519 390.792C762.762 389.888 762.383 388.68 762.383 387.166V386.141C762.383 385.149 762.559 384.278 762.911 383.526C763.267 382.774 763.77 382.198 764.419 381.797C765.069 381.392 765.821 381.189 766.675 381.189C767.808 381.189 768.716 381.507 769.4 382.142C770.083 382.771 770.481 383.646 770.594 384.764H769.18C769.058 383.914 768.792 383.299 768.382 382.918C767.977 382.537 767.408 382.347 766.675 382.347C765.777 382.347 765.071 382.679 764.559 383.343C764.051 384.007 763.797 384.952 763.797 386.177V387.21C763.797 388.367 764.039 389.288 764.522 389.971C765.005 390.655 765.682 390.997 766.551 390.997C767.332 390.997 767.93 390.821 768.345 390.469C768.765 390.113 769.043 389.495 769.18 388.616H770.594ZM780.723 387.012C780.723 388.057 780.547 388.97 780.196 389.751C779.844 390.528 779.346 391.121 778.702 391.531C778.057 391.941 777.305 392.146 776.446 392.146C775.606 392.146 774.861 391.941 774.212 391.531C773.562 391.116 773.057 390.528 772.696 389.766C772.339 389 772.156 388.113 772.146 387.107V386.338C772.146 385.313 772.325 384.407 772.681 383.621C773.038 382.835 773.541 382.234 774.19 381.819C774.844 381.399 775.591 381.189 776.431 381.189C777.286 381.189 778.038 381.397 778.687 381.812C779.341 382.222 779.844 382.82 780.196 383.606C780.547 384.388 780.723 385.298 780.723 386.338V387.012ZM779.324 386.324C779.324 385.059 779.07 384.09 778.562 383.416C778.055 382.737 777.344 382.398 776.431 382.398C775.542 382.398 774.842 382.737 774.329 383.416C773.821 384.09 773.56 385.027 773.545 386.229V387.012C773.545 388.238 773.802 389.202 774.314 389.905C774.832 390.604 775.542 390.953 776.446 390.953C777.354 390.953 778.057 390.623 778.555 389.964C779.053 389.3 779.31 388.35 779.324 387.115V386.324ZM784.649 381.336L788.135 390.037L791.622 381.336H793.445V392H792.039V387.847L792.171 383.365L788.67 392H787.593L784.1 383.387L784.239 387.847V392H782.833V381.336H784.649Z" fill="#767676"/>
<path d="M671.49 404.69L674.273 399.336H675.87L672.193 406.023V410H670.787V406.023L667.11 399.336H668.721L671.49 404.69ZM685.23 405.012C685.23 406.057 685.054 406.97 684.703 407.751C684.351 408.528 683.853 409.121 683.208 409.531C682.564 409.941 681.812 410.146 680.953 410.146C680.113 410.146 679.368 409.941 678.719 409.531C678.069 409.116 677.564 408.528 677.203 407.766C676.846 407 676.663 406.113 676.653 405.107V404.338C676.653 403.313 676.832 402.407 677.188 401.621C677.544 400.835 678.047 400.234 678.697 399.819C679.351 399.399 680.098 399.189 680.938 399.189C681.792 399.189 682.544 399.397 683.194 399.812C683.848 400.222 684.351 400.82 684.703 401.606C685.054 402.388 685.23 403.298 685.23 404.338V405.012ZM683.831 404.324C683.831 403.059 683.577 402.09 683.069 401.416C682.562 400.737 681.851 400.398 680.938 400.398C680.049 400.398 679.349 400.737 678.836 401.416C678.328 402.09 678.067 403.027 678.052 404.229V405.012C678.052 406.238 678.309 407.202 678.821 407.905C679.339 408.604 680.049 408.953 680.953 408.953C681.861 408.953 682.564 408.623 683.062 407.964C683.56 407.3 683.816 406.35 683.831 405.115V404.324ZM694.847 399.336V406.587C694.842 407.593 694.524 408.416 693.895 409.055C693.27 409.695 692.42 410.054 691.346 410.132L690.972 410.146C689.805 410.146 688.875 409.832 688.182 409.202C687.488 408.572 687.137 407.705 687.127 406.602V399.336H688.519V406.558C688.519 407.329 688.731 407.93 689.156 408.359C689.581 408.784 690.186 408.997 690.972 408.997C691.768 408.997 692.376 408.784 692.796 408.359C693.221 407.935 693.433 407.336 693.433 406.565V399.336H694.847ZM700.977 405.686H698.472V410H697.059V399.336H700.589C701.79 399.336 702.713 399.609 703.357 400.156C704.007 400.703 704.332 401.499 704.332 402.544C704.332 403.208 704.151 403.787 703.79 404.28C703.433 404.773 702.935 405.142 702.295 405.386L704.8 409.912V410H703.292L700.977 405.686ZM698.472 404.536H700.633C701.331 404.536 701.885 404.355 702.295 403.994C702.71 403.633 702.918 403.149 702.918 402.544C702.918 401.885 702.72 401.379 702.325 401.028C701.934 400.676 701.368 400.498 700.625 400.493H698.472V404.536ZM708.609 406.638L708.814 408.044L709.114 406.777L711.224 399.336H712.41L714.468 406.777L714.761 408.066L714.988 406.631L716.644 399.336H718.057L715.472 410H714.19L711.993 402.229L711.824 401.416L711.656 402.229L709.378 410H708.096L705.518 399.336H706.924L708.609 406.638ZM725.652 405.071H721.031V408.85H726.399V410H719.625V399.336H726.326V400.493H721.031V403.921H725.652V405.071ZM728.15 410V399.336H731.636C732.793 399.336 733.663 399.575 734.244 400.054C734.83 400.532 735.123 401.24 735.123 402.178C735.123 402.676 734.981 403.118 734.698 403.503C734.415 403.884 734.029 404.18 733.541 404.39C734.117 404.551 734.571 404.858 734.903 405.312C735.24 405.762 735.408 406.299 735.408 406.924C735.408 407.881 735.098 408.633 734.478 409.18C733.858 409.727 732.981 410 731.849 410H728.15ZM729.556 405.012V408.85H731.878C732.532 408.85 733.047 408.682 733.423 408.345C733.804 408.003 733.995 407.534 733.995 406.938C733.995 405.654 733.296 405.012 731.9 405.012H729.556ZM729.556 403.884H731.68C732.295 403.884 732.786 403.73 733.152 403.423C733.523 403.115 733.709 402.698 733.709 402.17C733.709 401.584 733.538 401.16 733.196 400.896C732.854 400.627 732.334 400.493 731.636 400.493H729.556V403.884ZM740.638 405.247C739.432 404.9 738.553 404.475 738.001 403.972C737.454 403.464 737.181 402.839 737.181 402.097C737.181 401.257 737.515 400.564 738.184 400.017C738.858 399.465 739.732 399.189 740.806 399.189C741.539 399.189 742.19 399.331 742.762 399.614C743.338 399.897 743.782 400.288 744.095 400.786C744.412 401.284 744.571 401.829 744.571 402.419H743.157C743.157 401.775 742.952 401.27 742.542 400.903C742.132 400.532 741.553 400.347 740.806 400.347C740.113 400.347 739.571 400.5 739.18 400.808C738.794 401.111 738.602 401.533 738.602 402.075C738.602 402.51 738.785 402.878 739.151 403.181C739.522 403.479 740.149 403.752 741.033 404.001C741.922 404.25 742.615 404.526 743.113 404.829C743.616 405.127 743.987 405.476 744.227 405.876C744.471 406.277 744.593 406.748 744.593 407.29C744.593 408.154 744.256 408.848 743.582 409.37C742.908 409.888 742.007 410.146 740.879 410.146C740.147 410.146 739.463 410.007 738.829 409.729C738.194 409.446 737.703 409.06 737.356 408.572C737.015 408.083 736.844 407.529 736.844 406.909H738.257C738.257 407.554 738.494 408.064 738.968 408.44C739.446 408.811 740.083 408.997 740.879 408.997C741.622 408.997 742.19 408.845 742.586 408.542C742.981 408.24 743.179 407.827 743.179 407.305C743.179 406.782 742.996 406.379 742.63 406.096C742.264 405.808 741.6 405.525 740.638 405.247ZM747.911 410H746.504V399.336H747.911V410ZM757.637 400.493H754.209V410H752.811V400.493H749.39V399.336H757.637V400.493ZM765.247 405.071H760.625V408.85H765.994V410H759.219V399.336H765.921V400.493H760.625V403.921H765.247V405.071ZM767.562 409.29C767.562 409.055 767.63 408.86 767.767 408.704C767.908 408.547 768.118 408.469 768.396 408.469C768.675 408.469 768.885 408.547 769.026 408.704C769.173 408.86 769.246 409.055 769.246 409.29C769.246 409.514 769.173 409.702 769.026 409.854C768.885 410.005 768.675 410.081 768.396 410.081C768.118 410.081 767.908 410.005 767.767 409.854C767.63 409.702 767.562 409.514 767.562 409.29ZM779.544 406.616C779.412 407.744 778.995 408.616 778.292 409.231C777.593 409.841 776.663 410.146 775.501 410.146C774.241 410.146 773.23 409.695 772.469 408.792C771.712 407.888 771.333 406.68 771.333 405.166V404.141C771.333 403.149 771.509 402.278 771.861 401.526C772.217 400.774 772.72 400.198 773.37 399.797C774.019 399.392 774.771 399.189 775.625 399.189C776.758 399.189 777.667 399.507 778.35 400.142C779.034 400.771 779.432 401.646 779.544 402.764H778.13C778.008 401.914 777.742 401.299 777.332 400.918C776.927 400.537 776.358 400.347 775.625 400.347C774.727 400.347 774.021 400.679 773.509 401.343C773.001 402.007 772.747 402.952 772.747 404.177V405.21C772.747 406.367 772.989 407.288 773.472 407.971C773.956 408.655 774.632 408.997 775.501 408.997C776.282 408.997 776.88 408.821 777.295 408.469C777.715 408.113 777.994 407.495 778.13 406.616H779.544ZM789.673 405.012C789.673 406.057 789.498 406.97 789.146 407.751C788.794 408.528 788.296 409.121 787.652 409.531C787.007 409.941 786.255 410.146 785.396 410.146C784.556 410.146 783.812 409.941 783.162 409.531C782.513 409.116 782.007 408.528 781.646 407.766C781.29 407 781.106 406.113 781.097 405.107V404.338C781.097 403.313 781.275 402.407 781.631 401.621C781.988 400.835 782.491 400.234 783.14 399.819C783.794 399.399 784.542 399.189 785.381 399.189C786.236 399.189 786.988 399.397 787.637 399.812C788.292 400.222 788.794 400.82 789.146 401.606C789.498 402.388 789.673 403.298 789.673 404.338V405.012ZM788.274 404.324C788.274 403.059 788.021 402.09 787.513 401.416C787.005 400.737 786.294 400.398 785.381 400.398C784.493 400.398 783.792 400.737 783.279 401.416C782.771 402.09 782.51 403.027 782.496 404.229V405.012C782.496 406.238 782.752 407.202 783.265 407.905C783.782 408.604 784.493 408.953 785.396 408.953C786.304 408.953 787.007 408.623 787.505 407.964C788.003 407.3 788.26 406.35 788.274 405.115V404.324ZM793.599 399.336L797.085 408.037L800.572 399.336H802.396V410H800.989V405.847L801.121 401.365L797.62 410H796.543L793.05 401.387L793.189 405.847V410H791.783V399.336H793.599Z" fill="#767676"/>
<path d="M672.339 466H670.977V456.969L668.245 457.973V456.742L672.127 455.285H672.339V466ZM683.296 466H676.309V465.026L680 460.924C680.547 460.304 680.923 459.801 681.128 459.416C681.338 459.025 681.443 458.622 681.443 458.207C681.443 457.65 681.275 457.194 680.938 456.837C680.601 456.481 680.152 456.303 679.59 456.303C678.917 456.303 678.392 456.496 678.016 456.881C677.645 457.262 677.459 457.794 677.459 458.478H676.104C676.104 457.497 676.419 456.703 677.049 456.098C677.684 455.492 678.531 455.189 679.59 455.189C680.582 455.189 681.365 455.451 681.941 455.973C682.518 456.491 682.806 457.182 682.806 458.046C682.806 459.096 682.137 460.346 680.799 461.796L677.942 464.894H683.296V466ZM686.702 460.009H687.72C688.36 459.999 688.863 459.831 689.229 459.503C689.595 459.176 689.778 458.734 689.778 458.178C689.778 456.928 689.156 456.303 687.911 456.303C687.325 456.303 686.856 456.471 686.504 456.808C686.158 457.14 685.984 457.582 685.984 458.134H684.629C684.629 457.289 684.937 456.588 685.552 456.032C686.172 455.47 686.958 455.189 687.911 455.189C688.917 455.189 689.705 455.456 690.276 455.988C690.848 456.52 691.133 457.26 691.133 458.207C691.133 458.671 690.982 459.12 690.679 459.555C690.381 459.989 689.974 460.314 689.456 460.529C690.042 460.714 690.494 461.022 690.811 461.452C691.133 461.881 691.294 462.406 691.294 463.026C691.294 463.983 690.982 464.743 690.357 465.304C689.732 465.866 688.919 466.146 687.918 466.146C686.917 466.146 686.102 465.875 685.472 465.333C684.847 464.792 684.534 464.076 684.534 463.188H685.896C685.896 463.749 686.08 464.198 686.446 464.535C686.812 464.872 687.303 465.041 687.918 465.041C688.572 465.041 689.073 464.87 689.419 464.528C689.766 464.186 689.939 463.695 689.939 463.056C689.939 462.436 689.749 461.959 689.368 461.627C688.987 461.295 688.438 461.125 687.72 461.115H686.702V460.009ZM704.302 456.493H700.875V466H699.476V456.493H696.055V455.336H704.302V456.493ZM705.884 466V455.336H709.371C710.528 455.336 711.397 455.575 711.978 456.054C712.564 456.532 712.857 457.24 712.857 458.178C712.857 458.676 712.715 459.118 712.432 459.503C712.149 459.884 711.763 460.18 711.275 460.39C711.851 460.551 712.305 460.858 712.637 461.312C712.974 461.762 713.143 462.299 713.143 462.924C713.143 463.881 712.833 464.633 712.212 465.18C711.592 465.727 710.716 466 709.583 466H705.884ZM707.291 461.012V464.85H709.612C710.267 464.85 710.782 464.682 711.158 464.345C711.539 464.003 711.729 463.534 711.729 462.938C711.729 461.654 711.031 461.012 709.634 461.012H707.291ZM707.291 459.884H709.415C710.03 459.884 710.521 459.73 710.887 459.423C711.258 459.115 711.443 458.698 711.443 458.17C711.443 457.584 711.272 457.16 710.931 456.896C710.589 456.627 710.069 456.493 709.371 456.493H707.291V459.884ZM716.739 466H715.333V455.336H716.739V466ZM720.73 464.85H725.784V466H719.317V455.336H720.73V464.85ZM728.897 466H727.491V455.336H728.897V466ZM734.617 461.247C733.411 460.9 732.532 460.475 731.98 459.972C731.434 459.464 731.16 458.839 731.16 458.097C731.16 457.257 731.495 456.564 732.164 456.017C732.837 455.465 733.711 455.189 734.786 455.189C735.518 455.189 736.17 455.331 736.741 455.614C737.317 455.897 737.762 456.288 738.074 456.786C738.392 457.284 738.55 457.829 738.55 458.419H737.137C737.137 457.775 736.932 457.27 736.521 456.903C736.111 456.532 735.533 456.347 734.786 456.347C734.092 456.347 733.55 456.5 733.16 456.808C732.774 457.111 732.581 457.533 732.581 458.075C732.581 458.51 732.764 458.878 733.13 459.181C733.501 459.479 734.129 459.752 735.013 460.001C735.901 460.25 736.595 460.526 737.093 460.829C737.596 461.127 737.967 461.476 738.206 461.876C738.45 462.277 738.572 462.748 738.572 463.29C738.572 464.154 738.235 464.848 737.562 465.37C736.888 465.888 735.987 466.146 734.859 466.146C734.126 466.146 733.443 466.007 732.808 465.729C732.173 465.446 731.683 465.06 731.336 464.572C730.994 464.083 730.823 463.529 730.823 462.909H732.237C732.237 463.554 732.474 464.064 732.947 464.44C733.426 464.811 734.063 464.997 734.859 464.997C735.601 464.997 736.17 464.845 736.565 464.542C736.961 464.24 737.159 463.827 737.159 463.305C737.159 462.782 736.976 462.379 736.609 462.096C736.243 461.808 735.579 461.525 734.617 461.247ZM741.89 466H740.484V455.336H741.89V466ZM756.062 464.601C755.701 465.119 755.196 465.507 754.546 465.766C753.902 466.02 753.15 466.146 752.291 466.146C751.421 466.146 750.65 465.944 749.976 465.539C749.302 465.128 748.78 464.547 748.409 463.795C748.042 463.043 747.854 462.172 747.845 461.181V460.25C747.845 458.644 748.218 457.399 748.965 456.515C749.717 455.631 750.772 455.189 752.129 455.189C753.243 455.189 754.139 455.475 754.817 456.046C755.496 456.613 755.911 457.418 756.062 458.463H754.656C754.393 457.052 753.553 456.347 752.137 456.347C751.194 456.347 750.479 456.679 749.991 457.343C749.507 458.002 749.263 458.959 749.258 460.214V461.085C749.258 462.282 749.532 463.234 750.079 463.942C750.625 464.645 751.365 464.997 752.298 464.997C752.825 464.997 753.287 464.938 753.682 464.821C754.078 464.704 754.405 464.506 754.664 464.228V461.833H752.195V460.69H756.062V464.601ZM764.441 461.071H759.82V464.85H765.188V466H758.414V455.336H765.115V456.493H759.82V459.921H764.441V461.071ZM775.142 461.012C775.142 462.057 774.966 462.97 774.615 463.751C774.263 464.528 773.765 465.121 773.121 465.531C772.476 465.941 771.724 466.146 770.865 466.146C770.025 466.146 769.28 465.941 768.631 465.531C767.981 465.116 767.476 464.528 767.115 463.766C766.758 463 766.575 462.113 766.565 461.107V460.338C766.565 459.313 766.744 458.407 767.1 457.621C767.457 456.835 767.959 456.234 768.609 455.819C769.263 455.399 770.01 455.189 770.85 455.189C771.705 455.189 772.457 455.397 773.106 455.812C773.76 456.222 774.263 456.82 774.615 457.606C774.966 458.388 775.142 459.298 775.142 460.338V461.012ZM773.743 460.324C773.743 459.059 773.489 458.09 772.981 457.416C772.474 456.737 771.763 456.398 770.85 456.398C769.961 456.398 769.261 456.737 768.748 457.416C768.24 458.09 767.979 459.027 767.964 460.229V461.012C767.964 462.238 768.221 463.202 768.733 463.905C769.251 464.604 769.961 464.953 770.865 464.953C771.773 464.953 772.476 464.623 772.974 463.964C773.472 463.3 773.729 462.35 773.743 461.115V460.324ZM781.163 461.686H778.658V466H777.244V455.336H780.774C781.976 455.336 782.898 455.609 783.543 456.156C784.192 456.703 784.517 457.499 784.517 458.544C784.517 459.208 784.336 459.787 783.975 460.28C783.619 460.773 783.121 461.142 782.481 461.386L784.986 465.912V466H783.477L781.163 461.686ZM778.658 460.536H780.818C781.517 460.536 782.071 460.355 782.481 459.994C782.896 459.633 783.104 459.149 783.104 458.544C783.104 457.885 782.906 457.379 782.51 457.028C782.12 456.676 781.553 456.498 780.811 456.493H778.658V460.536ZM794.368 464.601C794.007 465.119 793.501 465.507 792.852 465.766C792.208 466.02 791.456 466.146 790.596 466.146C789.727 466.146 788.956 465.944 788.282 465.539C787.608 465.128 787.085 464.547 786.714 463.795C786.348 463.043 786.16 462.172 786.15 461.181V460.25C786.15 458.644 786.524 457.399 787.271 456.515C788.023 455.631 789.078 455.189 790.435 455.189C791.548 455.189 792.444 455.475 793.123 456.046C793.802 456.613 794.217 457.418 794.368 458.463H792.962C792.698 457.052 791.858 456.347 790.442 456.347C789.5 456.347 788.785 456.679 788.296 457.343C787.813 458.002 787.569 458.959 787.564 460.214V461.085C787.564 462.282 787.837 463.234 788.384 463.942C788.931 464.645 789.671 464.997 790.604 464.997C791.131 464.997 791.592 464.938 791.988 464.821C792.383 464.704 792.71 464.506 792.969 464.228V461.833H790.501V460.69H794.368V464.601ZM798.228 466H796.822V455.336H798.228V466ZM806.827 463.217H802.359L801.355 466H799.905L803.978 455.336H805.208L809.288 466H807.845L806.827 463.217ZM802.784 462.06H806.409L804.593 457.072L802.784 462.06Z" fill="#767676"/>
<path d="M676.082 480.616C675.95 481.744 675.533 482.616 674.83 483.231C674.131 483.841 673.201 484.146 672.039 484.146C670.779 484.146 669.769 483.695 669.007 482.792C668.25 481.888 667.872 480.68 667.872 479.166V478.141C667.872 477.149 668.047 476.278 668.399 475.526C668.755 474.774 669.258 474.198 669.908 473.797C670.557 473.392 671.309 473.189 672.164 473.189C673.296 473.189 674.205 473.507 674.888 474.142C675.572 474.771 675.97 475.646 676.082 476.764H674.668C674.546 475.914 674.28 475.299 673.87 474.918C673.465 474.537 672.896 474.347 672.164 474.347C671.265 474.347 670.56 474.679 670.047 475.343C669.539 476.007 669.285 476.952 669.285 478.177V479.21C669.285 480.367 669.527 481.288 670.01 481.971C670.494 482.655 671.17 482.997 672.039 482.997C672.82 482.997 673.418 482.821 673.833 482.469C674.253 482.113 674.532 481.495 674.668 480.616H676.082ZM686.204 484H684.791V479.071H679.415V484H678.008V473.336H679.415V477.921H684.791V473.336H686.204V484ZM694.722 481.217H690.254L689.251 484H687.801L691.873 473.336H693.104L697.183 484H695.74L694.722 481.217ZM690.679 480.06H694.305L692.488 475.072L690.679 480.06ZM701.504 482.132L704.551 473.336H706.089L702.134 484H700.889L696.941 473.336H698.472L701.504 482.132ZM715.267 480.616C715.135 481.744 714.717 482.616 714.014 483.231C713.316 483.841 712.386 484.146 711.224 484.146C709.964 484.146 708.953 483.695 708.191 482.792C707.435 481.888 707.056 480.68 707.056 479.166V478.141C707.056 477.149 707.232 476.278 707.583 475.526C707.94 474.774 708.443 474.198 709.092 473.797C709.742 473.392 710.494 473.189 711.348 473.189C712.481 473.189 713.389 473.507 714.073 474.142C714.756 474.771 715.154 475.646 715.267 476.764H713.853C713.731 475.914 713.465 475.299 713.055 474.918C712.649 474.537 712.081 474.347 711.348 474.347C710.45 474.347 709.744 474.679 709.231 475.343C708.724 476.007 708.47 476.952 708.47 478.177V479.21C708.47 480.367 708.711 481.288 709.195 481.971C709.678 482.655 710.354 482.997 711.224 482.997C712.005 482.997 712.603 482.821 713.018 482.469C713.438 482.113 713.716 481.495 713.853 480.616H715.267ZM725.389 484H723.975V479.071H718.599V484H717.193V473.336H718.599V477.921H723.975V473.336H725.389V484ZM733.907 481.217H729.439L728.436 484H726.985L731.058 473.336H732.288L736.368 484H734.925L733.907 481.217ZM729.864 480.06H733.489L731.673 475.072L729.864 480.06ZM740.689 482.132L743.736 473.336H745.274L741.319 484H740.074L736.126 473.336H737.657L740.689 482.132ZM752.042 481.217H747.574L746.57 484H745.12L749.192 473.336H750.423L754.502 484H753.06L752.042 481.217ZM747.999 480.06H751.624L749.808 475.072L747.999 480.06ZM755.938 484V473.336H758.948C759.876 473.336 760.696 473.541 761.409 473.951C762.122 474.361 762.671 474.945 763.057 475.702C763.448 476.458 763.646 477.328 763.65 478.309V478.99C763.65 479.996 763.455 480.877 763.064 481.634C762.679 482.391 762.125 482.972 761.402 483.377C760.684 483.783 759.847 483.99 758.89 484H755.938ZM757.344 474.493V482.85H758.824C759.908 482.85 760.75 482.513 761.351 481.839C761.956 481.166 762.259 480.206 762.259 478.961V478.338C762.259 477.127 761.973 476.188 761.402 475.519C760.835 474.845 760.03 474.503 758.985 474.493H757.344ZM766.661 482.85H772.762V484H764.998V482.945L770.843 474.493H765.093V473.336H772.527V474.369L766.661 482.85ZM780.613 479.071H775.992V482.85H781.36V484H774.585V473.336H781.287V474.493H775.992V477.921H780.613V479.071ZM792.72 481.217H788.252L787.249 484H785.799L789.871 473.336H791.102L795.181 484H793.738L792.72 481.217ZM788.677 480.06H792.303L790.486 475.072L788.677 480.06ZM799.502 482.132L802.549 473.336H804.087L800.132 484H798.887L794.939 473.336H796.47L799.502 482.132ZM811.551 479.071H806.929V482.85H812.298V484H805.523V473.336H812.225V474.493H806.929V477.921H811.551V479.071ZM822.244 484H820.831L815.462 475.782V484H814.048V473.336H815.462L820.845 481.59V473.336H822.244V484ZM832.249 473.336V480.587C832.244 481.593 831.927 482.416 831.297 483.055C830.672 483.695 829.822 484.054 828.748 484.132L828.375 484.146C827.208 484.146 826.277 483.832 825.584 483.202C824.891 482.572 824.539 481.705 824.529 480.602V473.336H825.921V480.558C825.921 481.329 826.133 481.93 826.558 482.359C826.983 482.784 827.588 482.997 828.375 482.997C829.17 482.997 829.778 482.784 830.198 482.359C830.623 481.935 830.835 481.336 830.835 480.565V473.336H832.249ZM840.496 479.071H835.875V482.85H841.243V484H834.468V473.336H841.17V474.493H835.875V477.921H840.496V479.071ZM846.985 478.653L847.527 473.336H852.991V474.588H848.677L848.355 477.496C848.877 477.188 849.471 477.035 850.135 477.035C851.106 477.035 851.878 477.357 852.449 478.001C853.021 478.641 853.306 479.508 853.306 480.602C853.306 481.7 853.008 482.567 852.413 483.202C851.822 483.832 850.994 484.146 849.93 484.146C848.987 484.146 848.218 483.885 847.623 483.363C847.027 482.84 846.688 482.118 846.604 481.195H847.886C847.969 481.805 848.187 482.267 848.538 482.579C848.89 482.887 849.354 483.041 849.93 483.041C850.56 483.041 851.053 482.826 851.409 482.396C851.771 481.966 851.951 481.373 851.951 480.616C851.951 479.903 851.756 479.332 851.365 478.902C850.979 478.468 850.464 478.25 849.82 478.25C849.229 478.25 848.765 478.38 848.428 478.639L848.069 478.932L846.985 478.653Z" fill="#767676"/>
<rect x="594" y="300" width="43" height="43" rx="2" fill="#3C3C3C"/>
<rect x="594" y="374" width="43" height="43" rx="2" fill="#3C3C3C"/>
<rect x="594" y="448" width="43" height="43" rx="2" fill="#3C3C3C"/>
<path d="M602 395.061V395.023C602.339 390.593 603.921 387.271 606.669 385.171C609.381 383.032 612.318 382.001 615.519 382.001C618.87 381.963 621.996 383.108 624.782 385.4C627.607 387.653 629 391.013 629 395.367V395.634C629 400.026 627.607 403.31 624.782 405.563C621.958 407.854 618.833 409 615.481 409H615.331C612.054 408.962 609.042 407.816 606.255 405.525C603.469 403.272 602.038 399.797 602 395.061ZM614.69 389.066V383.032H613.787C613.598 383.261 613.448 383.528 613.297 383.758C613.146 383.987 612.996 384.216 612.845 384.483C612.695 384.712 612.506 385.018 612.393 385.247C612.243 385.476 612.13 385.705 612.017 385.972C611.791 386.354 611.603 386.736 611.452 387.08C611.264 387.424 611.113 387.767 611 388.073C611.226 388.226 611.49 388.417 611.791 388.531C612.13 388.646 612.469 388.76 612.808 388.837C613.184 388.913 613.523 388.951 613.824 388.989C614.163 389.028 614.464 389.066 614.69 389.066ZM616.272 383.032V389.028C616.46 389.028 616.686 389.066 616.912 389.028C617.138 389.028 617.402 388.989 617.628 388.951C618.042 388.875 618.531 388.76 618.908 388.646C619.322 388.493 619.699 388.302 619.962 388.073C619.51 386.965 619.021 386.087 618.531 385.247C618.042 384.407 617.477 383.681 616.874 383.07V383.032H616.272ZM612.205 383.376V383.338C611.941 383.452 611.678 383.643 611.377 383.758C611.113 383.872 610.774 384.025 610.51 384.178C609.983 384.445 609.456 384.75 608.929 385.094C608.439 385.438 607.95 385.82 607.536 386.202C607.686 386.354 607.874 386.507 608.025 386.622C608.176 386.736 608.364 386.889 608.552 387.042C608.703 387.118 608.891 387.233 609.079 387.385C609.268 387.5 609.494 387.653 609.72 387.806C610.021 387.118 610.322 386.393 610.699 385.743C611.075 385.056 611.49 384.407 611.904 383.834C611.941 383.758 611.979 383.681 612.054 383.605C612.092 383.567 612.13 383.452 612.205 383.376ZM623.728 386.202V386.163C622.787 385.438 621.958 384.827 621.13 384.445C620.301 384.063 619.473 383.681 618.72 383.376C619.322 383.987 619.849 384.75 620.188 385.476C620.565 386.24 620.941 387.042 621.243 387.806C621.393 387.729 621.582 387.653 621.808 387.5C621.996 387.385 622.259 387.271 622.485 387.156C622.711 387.004 622.9 386.851 623.126 386.698C623.351 386.507 623.577 386.354 623.728 386.202ZM623.088 394.718H627.418C627.418 393.305 627.117 391.968 626.552 390.593C626.025 389.257 625.272 388.149 624.331 387.195V387.156C624.142 387.462 623.879 387.729 623.615 387.92C623.314 388.111 623.05 388.264 622.749 388.417C622.561 388.531 622.372 388.684 622.184 388.76C621.996 388.875 621.732 388.951 621.544 389.066C621.695 389.371 621.845 389.715 621.996 390.02C622.109 390.364 622.297 390.746 622.372 391.09C622.598 391.701 622.749 392.35 622.9 392.999C623.013 393.572 623.088 394.183 623.088 394.718ZM609.456 389.066V389.028C609.155 388.875 608.816 388.76 608.552 388.607C608.289 388.417 608.025 388.226 607.799 388.073C607.573 387.958 607.347 387.806 607.159 387.653C606.971 387.5 606.82 387.347 606.669 387.195C605.69 388.149 604.975 389.218 604.523 390.479C604.033 391.739 603.695 393.152 603.544 394.679H608.176C608.176 393.61 608.326 392.579 608.59 391.548C608.816 390.479 609.155 389.677 609.456 389.066ZM614.69 394.679V390.288C614.389 390.326 614.013 390.326 613.674 390.288C613.297 390.25 612.921 390.135 612.582 390.02C612.28 389.944 611.904 389.868 611.603 389.753C611.264 389.677 610.925 389.524 610.661 389.371C610.435 389.753 610.247 390.211 610.096 390.708C609.908 391.166 609.795 391.663 609.682 392.121C609.607 392.579 609.569 393.076 609.531 393.496C609.494 393.916 609.456 394.336 609.456 394.679H614.69ZM616.272 390.364V394.679H621.845C621.845 394.45 621.845 394.183 621.808 393.877C621.732 393.61 621.695 393.266 621.657 392.961C621.544 392.503 621.431 392.006 621.28 391.548C621.13 391.128 620.979 390.708 620.791 390.364C620.715 390.173 620.64 389.944 620.565 389.791C620.452 389.6 620.339 389.486 620.264 389.371C619.849 389.677 619.285 389.868 618.607 390.02C617.967 390.173 617.213 390.326 616.536 390.364H616.272ZM608.176 395.94H603.544C603.544 396.589 603.657 397.314 603.845 398.193C604.033 399.109 604.41 399.949 604.824 400.866C605.013 401.324 605.238 401.782 605.464 402.241C605.728 402.661 606.029 403.119 606.331 403.539C606.556 403.386 606.782 403.272 606.971 403.157C607.197 403.043 607.46 402.89 607.686 402.775C607.95 402.661 608.213 402.546 608.515 402.393C608.778 402.279 609.117 402.126 609.456 401.973C609.155 401.019 608.816 400.102 608.59 399.071C608.326 398.078 608.176 397.085 608.176 395.978V395.94ZM614.69 400.408V395.94H609.456C609.456 396.245 609.494 396.703 609.569 397.162C609.607 397.62 609.72 398.116 609.795 398.613C609.946 399.147 610.059 399.682 610.209 400.14C610.36 400.599 610.51 400.98 610.661 401.324C611.339 401.057 612.017 400.866 612.469 400.751C612.958 400.599 613.41 400.484 613.862 400.446H614.276C614.427 400.408 614.577 400.408 614.69 400.408ZM616.272 395.94V400.369C616.536 400.408 616.837 400.446 617.138 400.484C617.477 400.522 617.891 400.599 618.23 400.675L618.795 400.79C618.983 400.866 619.209 400.904 619.397 400.942C619.623 401.019 619.849 401.057 620.075 401.133C620.264 401.21 620.452 401.248 620.603 401.324C621.092 400.064 621.393 399.033 621.582 398.155C621.77 397.314 621.845 396.589 621.845 395.978V395.94H616.272ZM627.418 395.978V395.94H623.088V396.169C623.05 396.894 622.937 397.734 622.787 398.613C622.636 399.453 622.297 400.446 621.845 401.668C622.448 401.973 623.013 402.279 623.464 402.584C623.916 402.89 624.331 403.234 624.632 403.539C625.272 402.89 625.837 402.012 626.326 400.866C626.816 399.758 627.155 398.613 627.343 397.391C627.381 397.162 627.381 396.933 627.418 396.703V395.978ZM614.69 407.587V401.63C613.749 401.782 612.958 401.973 612.356 402.126C611.753 402.279 611.301 402.432 611 402.584C611.226 403.157 611.452 403.654 611.678 404.112C611.904 404.532 612.167 404.99 612.393 405.372C612.469 405.525 612.619 405.678 612.732 405.869C612.845 406.021 612.921 406.212 613.033 406.365C613.146 406.556 613.259 406.785 613.372 407.014C613.523 407.205 613.636 407.434 613.787 407.587H614.69ZM616.272 407.587H617.138C617.477 407.32 617.816 406.938 618.079 406.518C618.381 406.098 618.72 405.601 618.946 405.181C619.209 404.685 619.473 404.226 619.699 403.768C619.925 403.31 620.113 402.89 620.264 402.584C619.849 402.432 619.285 402.279 618.72 402.126C618.155 401.973 617.364 401.821 616.272 401.668V407.587ZM623.728 404.456V404.417C623.653 404.303 623.502 404.15 623.389 404.036C623.276 403.921 623.088 403.768 622.9 403.654C622.749 403.539 622.561 403.425 622.335 403.31C622.109 403.195 621.808 403.043 621.544 402.89C621.393 403.195 621.13 403.73 620.753 404.456C620.414 405.181 619.812 406.06 619.059 407.014C620 406.861 620.828 406.518 621.582 406.06C622.41 405.639 623.126 405.067 623.728 404.456ZM609.72 403.234V403.195C609.456 403.348 609.042 403.539 608.628 403.73C608.176 403.921 607.686 404.15 607.234 404.456C607.498 404.685 607.762 404.914 607.987 405.067C608.213 405.258 608.477 405.41 608.703 405.563C609.117 405.83 609.607 406.098 610.096 406.327C610.586 406.556 611.188 406.785 611.941 407.014C611.678 406.709 611.49 406.327 611.301 406.021C611.113 405.716 610.887 405.41 610.699 405.105C610.51 404.799 610.36 404.456 610.209 404.15C610.021 403.845 609.87 403.539 609.72 403.234Z" fill="white"/>
<path d="M620.001 327.057L622.068 324.989C622.346 324.714 622.698 324.526 623.081 324.447C623.465 324.369 623.862 324.403 624.227 324.546L626.745 325.552C627.113 325.702 627.429 325.957 627.652 326.285C627.875 326.614 627.996 327.001 628 327.398V332.013C627.998 332.283 627.941 332.55 627.833 332.798C627.725 333.046 627.568 333.269 627.372 333.454C627.175 333.64 626.943 333.783 626.69 333.877C626.436 333.97 626.166 334.011 625.896 333.997C608.247 332.899 604.686 317.947 604.012 312.224C603.981 311.943 604.01 311.659 604.096 311.39C604.183 311.121 604.325 310.873 604.514 310.663C604.703 310.453 604.935 310.285 605.193 310.171C605.452 310.056 605.732 309.998 606.014 310H610.471C610.868 310.001 611.256 310.121 611.585 310.345C611.914 310.569 612.168 310.886 612.316 311.255L613.321 313.775C613.469 314.138 613.507 314.536 613.43 314.92C613.353 315.304 613.164 315.657 612.888 315.935L610.821 318.002C610.821 318.002 612.011 326.06 620.001 327.057Z" fill="white"/>
<path d="M615.5 457C621.299 457 626 461.701 626 467.5C626 471.937 622.882 476.772 616.728 482.058C616.385 482.352 615.949 482.513 615.498 482.513C615.047 482.513 614.611 482.35 614.269 482.056L613.862 481.702C607.98 476.555 605 471.838 605 467.5C605 461.701 609.701 457 615.5 457ZM615.5 463.462C614.429 463.462 613.402 463.887 612.644 464.644C611.887 465.402 611.462 466.429 611.462 467.5C611.462 468.571 611.887 469.598 612.644 470.356C613.402 471.113 614.429 471.538 615.5 471.538C616.571 471.538 617.598 471.113 618.356 470.356C619.113 469.598 619.538 468.571 619.538 467.5C619.538 466.429 619.113 465.402 618.356 464.644C617.598 463.887 616.571 463.462 615.5 463.462Z" fill="white"/>
</g>
<defs>
<filter id="filter0_d" x="-1" y="-4" width="533" height="608" filterUnits="userSpaceOnUse" color-interpolation-filters="sRGB">
<feFlood flood-opacity="0" result="BackgroundImageFix"/>
<feColorMatrix in="SourceAlpha" type="matrix" values="0 0 0 0 0 0 0 0 0 0 0 0 0 0 0 0 0 0 127 0"/>
<feOffset dx="3"/>
<feGaussianBlur stdDeviation="2"/>
<feColorMatrix type="matrix" values="0 0 0 0 0 0 0 0 0 0 0 0 0 0 0 0 0 0 0.25 0"/>
<feBlend mode="normal" in2="BackgroundImageFix" result="effect1_dropShadow"/>
<feBlend mode="normal" in="SourceGraphic" in2="effect1_dropShadow" result="shape"/>
</filter>
<filter id="filter1_d" x="-4" y="76" width="554" height="113" filterUnits="userSpaceOnUse" color-interpolation-filters="sRGB">
<feFlood flood-opacity="0" result="BackgroundImageFix"/>
<feColorMatrix in="SourceAlpha" type="matrix" values="0 0 0 0 0 0 0 0 0 0 0 0 0 0 0 0 0 0 127 0"/>
<feOffset dy="5"/>
<feGaussianBlur stdDeviation="2"/>
<feColorMatrix type="matrix" values="0 0 0 0 0 0 0 0 0 0 0 0 0 0 0 0 0 0 0.25 0"/>
<feBlend mode="normal" in2="BackgroundImageFix" result="effect1_dropShadow"/>
<feBlend mode="normal" in="SourceGraphic" in2="effect1_dropShadow" result="shape"/>
</filter>
<clipPath id="clip0">
<rect width="1050" height="600" fill="white"/>
</clipPath>
</defs>
</svg>
