<svg width="1050" height="600" viewBox="0 0 1050 600" fill="none" xmlns="http://www.w3.org/2000/svg">
<g clip-path="url(#clip0)">
<rect width="1050" height="600" fill="white"/>
<path d="M292 0H1050V600L500.5 619.5L292 0Z" fill="black"/>
<path d="M375.183 405L292 0L515 327.857L375.183 405Z" fill="url(#paint0_linear)"/>
<g filter="url(#filter0_d)">
<path d="M476.5 321.5L292 0L603 221L476.5 321.5Z" fill="url(#paint1_linear)"/>
</g>
<g filter="url(#filter1_d)">
<path d="M603 221L520.683 600H97L603 221Z" fill="url(#paint2_linear)"/>
</g>
<g filter="url(#filter2_d)">
<path d="M603 221L546.224 600H254L603 221Z" fill="url(#paint3_linear)"/>
</g>
<path d="M229.095 140.396V197.272C229.092 201.549 227.966 205.75 225.828 209.454C223.69 213.158 220.616 216.235 216.914 218.376L213.143 220.548L213.124 220.567H213.104C213.084 220.567 213.064 220.587 213.025 220.607L157.728 252.529C154.02 254.663 149.816 255.787 145.538 255.787C141.259 255.787 137.056 254.663 133.347 252.529L74.2012 218.376C70.0683 215.992 66.7307 212.442 64.6067 208.17C64.585 208.127 64.5585 208.088 64.5277 208.051C64.5194 208.029 64.5059 208.008 64.4882 207.992V207.972C64.477 207.962 64.4699 207.948 64.4685 207.933C62.8455 204.613 62.0015 200.967 62.0008 197.272V141.226C61.9912 140.168 62.0705 139.111 62.2377 138.067C72.5056 158.298 89.7391 174.136 110.763 182.663V183.177L135.874 197.687C138.819 199.384 142.158 200.278 145.558 200.278C148.957 200.278 152.296 199.384 155.241 197.687L180.352 183.177V183.039C201.272 174.805 218.556 159.357 229.075 139.488C229.095 139.804 229.095 140.09 229.095 140.396Z" fill="#C53423"/>
<path d="M110.762 140.396V182.663C89.7387 174.135 72.5052 158.297 62.2373 138.066C62.354 137.062 62.532 136.067 62.7703 135.085C63.3708 132.604 64.3425 130.228 65.6526 128.037C67.6194 124.637 70.3863 121.769 73.713 119.68C77.0398 117.592 80.8259 116.347 84.7428 116.054C88.0758 115.832 91.4191 116.296 94.5651 117.419C97.7113 118.542 100.593 120.299 103.033 122.581C105.472 124.863 107.417 127.621 108.747 130.686C110.076 133.75 110.762 137.055 110.762 140.396Z" fill="#ED7F25"/>
<path d="M229.074 139.497C218.555 159.366 201.272 174.814 180.352 183.047V141.234C180.276 134.942 182.579 128.854 186.799 124.187C191.02 119.52 196.846 116.619 203.114 116.063C207.554 115.762 211.993 116.683 215.946 118.728C215.951 118.728 215.956 118.731 215.96 118.734C215.964 118.738 215.966 118.743 215.966 118.748C215.984 118.759 216.004 118.766 216.025 118.768C219.232 120.456 222.024 122.835 224.198 125.733C226.373 128.632 227.877 131.978 228.6 135.529C228.87 136.836 229.028 138.163 229.074 139.497Z" fill="#ED7F25"/>
<g style="mix-blend-mode:multiply" opacity="0.08">
<g style="mix-blend-mode:multiply" opacity="0.08">
<path d="M110.762 163.305V182.672C89.7387 174.144 72.5052 158.306 62.2373 138.075C62.354 137.072 62.532 136.076 62.7703 135.094C73.0163 142.636 91.3069 155.053 110.762 163.305Z" fill="#C53423"/>
</g>
</g>
<g style="mix-blend-mode:multiply" opacity="0.08">
<g style="mix-blend-mode:multiply" opacity="0.08">
<path d="M229.075 139.497C218.555 159.367 201.272 174.815 180.352 183.048V163.385C197.391 155.863 213.567 146.524 228.601 135.529C228.87 136.836 229.029 138.164 229.075 139.497Z" fill="#C53423"/>
</g>
</g>
<g style="mix-blend-mode:screen" opacity="0.4">
<g style="mix-blend-mode:screen" opacity="0.4">
<path d="M223.172 197.203V197.282C223.163 200.517 222.308 203.694 220.69 206.496C219.073 209.298 216.75 211.628 213.953 213.253L154.767 247.406C151.96 249.023 148.777 249.874 145.538 249.874C142.298 249.874 139.115 249.023 136.308 247.406L90.3102 220.853L90.1523 220.755L77.1622 213.253C74.5778 211.756 72.3935 209.657 70.7952 207.134C69.1968 204.611 68.2318 201.739 67.9823 198.763C89.9758 214.439 116.253 222.982 143.261 223.237C170.268 223.491 196.702 215.444 218.987 200.184L219.184 200.046L219.283 199.987C220.615 199.079 221.889 198.151 223.172 197.203Z" fill="white"/>
</g>
</g>
<g style="mix-blend-mode:screen" opacity="0.6">
<g style="mix-blend-mode:screen" opacity="0.6">
<path d="M64.4885 207.98C64.5086 208.001 64.5086 208.021 64.5287 208.061C64.5203 208.038 64.5065 208.017 64.4885 208.001V207.98Z" fill="white"/>
</g>
</g>
<g style="mix-blend-mode:multiply" opacity="0.25">
<g style="mix-blend-mode:multiply" opacity="0.25">
<path d="M213.025 220.614L157.728 252.536C154.02 254.67 149.816 255.794 145.538 255.794C141.259 255.794 137.056 254.67 133.347 252.536L74.2011 218.383C70.0682 215.999 66.7307 212.449 64.6066 208.177C64.7646 208.453 65.0607 208.927 65.495 209.578C66.5318 211.056 67.7158 212.426 69.0288 213.665C71.058 215.556 73.3775 217.109 75.8989 218.265C78.8207 219.765 82.1175 221.463 85.671 223.378C92.8373 227.129 101.129 231.61 109.953 236.506C114.356 238.974 118.936 241.461 123.536 244.107C125.845 245.429 128.155 246.752 130.485 248.075L133.979 250.069C135.042 250.697 136.15 251.245 137.296 251.707C141.79 253.573 146.778 253.886 151.47 252.596C153.812 251.923 156.05 250.934 158.123 249.654C160.393 248.391 162.624 247.147 164.835 245.923C173.68 241.027 181.971 236.546 189.118 232.795C202.522 225.678 211.899 221.137 213.025 220.614Z" fill="#C53423"/>
</g>
</g>
<g style="mix-blend-mode:multiply" opacity="0.25">
<g style="mix-blend-mode:multiply" opacity="0.25">
<path d="M229.074 139.496L227.238 143.247L225.225 146.938L223.033 150.511L220.664 153.986L218.118 157.342L215.433 160.6L212.57 163.719L209.57 166.7L206.431 169.543L203.154 172.247L199.758 174.794L196.244 177.183L192.612 179.413L188.88 181.486L185.05 183.362L182.267 184.566L181.438 185.059C175.831 188.396 170.244 191.772 164.598 195.049L156.089 199.984C152.866 201.782 149.239 202.733 145.547 202.748C143.709 202.739 141.878 202.5 140.099 202.037C139.214 201.798 138.344 201.508 137.493 201.169C136.653 200.831 135.836 200.442 135.045 200.004L126.516 195.049C120.87 191.772 115.283 188.396 109.677 185.079L108.571 184.428V184.072L106.005 182.927L102.175 180.993L98.4436 178.861L94.8111 176.571L91.2971 174.103L87.8818 171.497L84.6244 168.733L81.5052 165.811L78.5242 162.771L75.6814 159.573L73.0163 156.256L70.4893 152.841L68.1598 149.288L65.9882 145.655L64.014 141.904L62.2373 138.074L64.4286 141.687L66.7581 145.161L69.2259 148.557L71.812 151.834L74.5364 154.993L77.3792 158.033L80.3602 160.935L83.4201 163.719L86.6183 166.364L89.9349 168.852L93.3107 171.221L96.805 173.412L100.378 175.465L104.05 177.36L107.781 179.097L110.762 180.321V183.184L135.874 197.694C138.819 199.392 142.158 200.285 145.557 200.285C148.956 200.285 152.296 199.392 155.24 197.694L180.352 183.184V180.716L183.353 179.512L187.064 177.834L190.716 176.018L194.29 174.024L197.764 171.872L201.16 169.582L204.476 167.154L207.674 164.587L210.754 161.863L213.735 159.02L216.617 156.059L219.362 152.959L221.987 149.761L224.475 146.445L226.844 143.01L229.074 139.496Z" fill="#C53423"/>
</g>
</g>
<g style="mix-blend-mode:screen" opacity="0.4">
<g style="mix-blend-mode:screen" opacity="0.4">
<path d="M218.987 200.183L215.196 202.927L210.972 205.691C208.089 207.467 205.161 209.139 202.186 210.705C199.186 212.265 196.119 213.686 192.987 214.969C189.854 216.252 186.683 217.424 183.471 218.483C177.035 220.614 170.432 222.199 163.73 223.221C160.374 223.754 156.998 224.129 153.602 224.386C150.147 224.662 146.87 224.761 143.435 224.741C140.04 224.741 136.644 224.583 133.248 224.327L128.175 223.813L123.141 223.103L118.126 222.175L113.151 221.069L108.236 219.766L103.36 218.246L98.5623 216.549L93.844 214.653L89.185 212.58L84.6246 210.33L80.1827 207.862L75.8198 205.237L71.5753 202.453L69.1865 200.755C70.0582 205.297 72.6101 209.343 76.3331 212.087C77.4583 212.877 78.6231 213.548 79.8076 214.298L83.3217 216.45L90.1523 220.753L77.1622 213.252C74.5778 211.755 72.3935 209.655 70.7952 207.132C69.1968 204.609 68.2318 201.737 67.9823 198.761C89.9758 214.438 116.253 222.981 143.261 223.235C170.268 223.489 196.702 215.442 218.987 200.183Z" fill="white"/>
</g>
</g>
<g style="mix-blend-mode:screen" opacity="0.5">
<g style="mix-blend-mode:screen" opacity="0.5">
<path d="M110.764 140.396V159.288C110.764 159.288 110.093 154.136 109.638 146.417C109.5 144.502 109.382 142.389 109.283 140.198C109.133 138.036 108.715 135.901 108.039 133.841C106.54 129.407 103.766 125.513 100.064 122.648C98.1936 121.213 96.1255 120.056 93.9241 119.213C91.7892 118.451 89.5675 117.961 87.3106 117.752C86.6986 117.752 86.1064 117.732 85.5141 117.732L84.7244 117.712L83.915 117.772C82.8594 117.827 81.8098 117.965 80.7761 118.186C78.8496 118.596 76.9802 119.24 75.2089 120.101C72.5007 121.442 70.0433 123.238 67.944 125.412C67.174 126.221 66.5818 126.872 66.2067 127.346C65.9303 127.702 65.7329 127.939 65.6539 128.037C67.6207 124.637 70.3876 121.769 73.7143 119.68C77.0411 117.592 80.8273 116.347 84.7442 116.054C88.0772 115.832 91.4202 116.296 94.5665 117.419C97.7125 118.542 100.595 120.299 103.034 122.581C105.473 124.863 107.418 127.621 108.748 130.686C110.077 133.75 110.764 137.055 110.764 140.396Z" fill="white"/>
</g>
</g>
<g style="mix-blend-mode:screen" opacity="0.5">
<g style="mix-blend-mode:screen" opacity="0.5">
<path d="M215.946 118.728C215.709 118.649 214.84 118.373 213.458 118.037C211.254 117.502 208.995 117.231 206.726 117.228C205.243 117.235 203.763 117.374 202.304 117.643C201.516 117.766 200.738 117.944 199.975 118.176C199.6 118.294 199.205 118.393 198.81 118.511C198.415 118.63 198.02 118.807 197.626 118.946C196.036 119.593 194.509 120.386 193.065 121.315C191.597 122.304 190.24 123.449 189.018 124.73C187.768 125.985 186.662 127.375 185.721 128.876C184.797 130.343 184.017 131.897 183.392 133.515C183.082 134.281 182.818 135.066 182.602 135.864C182.367 136.614 182.182 137.379 182.049 138.154C181.888 138.924 181.769 139.701 181.694 140.484L181.635 141.056C181.615 141.135 181.595 141.293 181.595 141.293L181.576 141.57C181.536 141.945 181.516 142.32 181.477 142.675C181.003 148.479 180.352 152.329 180.352 152.329V141.234C180.276 134.942 182.579 128.854 186.799 124.187C191.02 119.52 196.846 116.619 203.114 116.063C207.554 115.762 211.993 116.683 215.946 118.728Z" fill="white"/>
</g>
</g>
<path d="M69.8564 315V283.008H79.7002C82.5127 283.008 85.0249 283.645 87.2368 284.919C89.4634 286.179 91.1992 287.981 92.4443 290.325C93.6895 292.654 94.312 295.305 94.312 298.279V299.751C94.312 302.725 93.6968 305.369 92.4663 307.683C91.2505 309.998 89.5293 311.792 87.3027 313.066C85.0762 314.341 82.564 314.985 79.7661 315H69.8564ZM76.4482 288.347V309.705H79.6343C82.2124 309.705 84.1826 308.862 85.5449 307.178C86.9072 305.493 87.603 303.083 87.6323 299.949V298.257C87.6323 295.005 86.9585 292.544 85.6108 290.874C84.2632 289.189 82.293 288.347 79.7002 288.347H76.4482ZM118.372 301.135H105.716V309.705H120.569V315H99.124V283.008H120.525V288.347H105.716V295.972H118.372V301.135ZM141.026 306.606C141.026 305.361 140.586 304.409 139.708 303.75C138.829 303.076 137.247 302.373 134.961 301.641C132.676 300.894 130.867 300.161 129.534 299.443C125.901 297.48 124.085 294.836 124.085 291.511C124.085 289.783 124.568 288.245 125.535 286.897C126.517 285.535 127.916 284.473 129.732 283.711C131.563 282.949 133.614 282.568 135.884 282.568C138.169 282.568 140.206 282.986 141.993 283.821C143.78 284.641 145.164 285.806 146.146 287.314C147.142 288.823 147.64 290.537 147.64 292.456H141.048C141.048 290.991 140.586 289.856 139.664 289.05C138.741 288.23 137.444 287.82 135.774 287.82C134.163 287.82 132.911 288.164 132.017 288.853C131.124 289.526 130.677 290.42 130.677 291.533C130.677 292.573 131.197 293.445 132.237 294.148C133.292 294.851 134.837 295.51 136.873 296.125C140.623 297.253 143.355 298.652 145.069 300.322C146.783 301.992 147.64 304.072 147.64 306.562C147.64 309.331 146.592 311.506 144.498 313.088C142.403 314.656 139.583 315.439 136.038 315.439C133.577 315.439 131.336 314.993 129.314 314.099C127.293 313.191 125.748 311.953 124.678 310.386C123.624 308.818 123.096 307.002 123.096 304.937H129.71C129.71 308.467 131.819 310.232 136.038 310.232C137.605 310.232 138.829 309.917 139.708 309.287C140.586 308.643 141.026 307.749 141.026 306.606ZM159.131 315H152.54V283.008H159.131V315ZM190.574 310.957C189.388 312.378 187.71 313.484 185.542 314.275C183.375 315.051 180.972 315.439 178.335 315.439C175.567 315.439 173.135 314.839 171.041 313.638C168.96 312.422 167.349 310.664 166.207 308.364C165.079 306.064 164.5 303.362 164.471 300.256V298.081C164.471 294.888 165.005 292.126 166.075 289.797C167.159 287.454 168.711 285.667 170.733 284.436C172.769 283.191 175.149 282.568 177.874 282.568C181.668 282.568 184.634 283.477 186.773 285.293C188.912 287.095 190.179 289.724 190.574 293.181H184.158C183.865 291.35 183.213 290.01 182.203 289.16C181.207 288.311 179.83 287.886 178.072 287.886C175.831 287.886 174.124 288.728 172.952 290.413C171.78 292.097 171.187 294.602 171.172 297.927V299.971C171.172 303.325 171.81 305.859 173.084 307.573C174.358 309.287 176.226 310.144 178.687 310.144C181.163 310.144 182.928 309.617 183.982 308.562V303.047H177.984V298.191H190.574V310.957ZM221.951 315H215.359L202.527 293.95V315H195.936V283.008H202.527L215.381 304.102V283.008H221.951V315Z" fill="black"/>
<path d="M95.8398 333.662C94.2318 333.2 93.0599 332.633 92.3242 331.963C91.5951 331.286 91.2305 330.452 91.2305 329.463C91.2305 328.343 91.6764 327.419 92.5684 326.689C93.4668 325.954 94.6322 325.586 96.0645 325.586C97.041 325.586 97.9102 325.775 98.6719 326.152C99.4401 326.53 100.033 327.051 100.449 327.715C100.872 328.379 101.084 329.105 101.084 329.893H99.1992C99.1992 329.033 98.9258 328.359 98.3789 327.871C97.832 327.376 97.0605 327.129 96.0645 327.129C95.14 327.129 94.4173 327.334 93.8965 327.744C93.3822 328.148 93.125 328.711 93.125 329.434C93.125 330.013 93.3691 330.505 93.8574 330.908C94.3522 331.305 95.1888 331.67 96.3672 332.002C97.5521 332.334 98.4766 332.702 99.1406 333.105C99.8112 333.503 100.306 333.968 100.625 334.502C100.951 335.036 101.113 335.664 101.113 336.387C101.113 337.539 100.664 338.464 99.7656 339.16C98.8672 339.85 97.666 340.195 96.1621 340.195C95.1855 340.195 94.2741 340.01 93.4277 339.639C92.5814 339.261 91.9271 338.747 91.4648 338.096C91.0091 337.445 90.7812 336.706 90.7812 335.879H92.666C92.666 336.738 92.9818 337.419 93.6133 337.92C94.2513 338.415 95.1009 338.662 96.1621 338.662C97.1517 338.662 97.9102 338.46 98.4375 338.057C98.9648 337.653 99.2285 337.103 99.2285 336.406C99.2285 335.71 98.9844 335.173 98.4961 334.795C98.0078 334.411 97.1224 334.033 95.8398 333.662ZM105.205 340H103.398V325H105.205V340ZM107.627 334.619C107.627 333.584 107.829 332.653 108.232 331.826C108.643 330.999 109.209 330.361 109.932 329.912C110.661 329.463 111.491 329.238 112.422 329.238C113.861 329.238 115.023 329.736 115.908 330.732C116.8 331.729 117.246 333.053 117.246 334.707V334.834C117.246 335.863 117.048 336.787 116.65 337.607C116.26 338.421 115.697 339.056 114.961 339.512C114.232 339.967 113.392 340.195 112.441 340.195C111.009 340.195 109.847 339.697 108.955 338.701C108.07 337.705 107.627 336.387 107.627 334.746V334.619ZM109.443 334.834C109.443 336.006 109.714 336.947 110.254 337.656C110.801 338.366 111.53 338.721 112.441 338.721C113.359 338.721 114.089 338.363 114.629 337.646C115.169 336.924 115.439 335.915 115.439 334.619C115.439 333.46 115.163 332.523 114.609 331.807C114.062 331.084 113.333 330.723 112.422 330.723C111.53 330.723 110.811 331.077 110.264 331.787C109.717 332.497 109.443 333.512 109.443 334.834ZM119.082 334.629C119.082 332.982 119.463 331.673 120.225 330.703C120.986 329.727 121.995 329.238 123.252 329.238C124.541 329.238 125.547 329.694 126.27 330.605L126.357 329.434H128.008V339.746C128.008 341.113 127.601 342.191 126.787 342.979C125.98 343.766 124.893 344.16 123.525 344.16C122.764 344.16 122.018 343.997 121.289 343.672C120.56 343.346 120.003 342.9 119.619 342.334L120.557 341.25C121.331 342.207 122.279 342.686 123.398 342.686C124.277 342.686 124.961 342.438 125.449 341.943C125.944 341.449 126.191 340.752 126.191 339.854V338.945C125.469 339.779 124.482 340.195 123.232 340.195C121.995 340.195 120.993 339.697 120.225 338.701C119.463 337.705 119.082 336.348 119.082 334.629ZM120.898 334.834C120.898 336.025 121.143 336.963 121.631 337.646C122.119 338.324 122.803 338.662 123.682 338.662C124.821 338.662 125.658 338.145 126.191 337.109V332.285C125.638 331.276 124.808 330.771 123.701 330.771C122.822 330.771 122.135 331.113 121.641 331.797C121.146 332.48 120.898 333.493 120.898 334.834ZM137.266 340C137.161 339.792 137.077 339.421 137.012 338.887C136.172 339.759 135.169 340.195 134.004 340.195C132.962 340.195 132.106 339.902 131.436 339.316C130.771 338.724 130.439 337.975 130.439 337.07C130.439 335.97 130.856 335.117 131.689 334.512C132.529 333.9 133.708 333.594 135.225 333.594H136.982V332.764C136.982 332.132 136.794 331.631 136.416 331.26C136.038 330.882 135.482 330.693 134.746 330.693C134.102 330.693 133.561 330.856 133.125 331.182C132.689 331.507 132.471 331.901 132.471 332.363H130.654C130.654 331.836 130.84 331.328 131.211 330.84C131.589 330.345 132.096 329.954 132.734 329.668C133.379 329.382 134.085 329.238 134.854 329.238C136.071 329.238 137.025 329.544 137.715 330.156C138.405 330.762 138.763 331.598 138.789 332.666V337.529C138.789 338.499 138.913 339.271 139.16 339.844V340H137.266ZM134.268 338.623C134.834 338.623 135.371 338.477 135.879 338.184C136.387 337.891 136.755 337.51 136.982 337.041V334.873H135.566C133.353 334.873 132.246 335.521 132.246 336.816C132.246 337.383 132.435 337.826 132.812 338.145C133.19 338.464 133.675 338.623 134.268 338.623ZM143.33 329.434L143.389 330.762C144.196 329.746 145.251 329.238 146.553 329.238C148.786 329.238 149.912 330.498 149.932 333.018V340H148.125V333.008C148.118 332.246 147.943 331.683 147.598 331.318C147.259 330.954 146.729 330.771 146.006 330.771C145.42 330.771 144.906 330.928 144.463 331.24C144.02 331.553 143.675 331.963 143.428 332.471V340H141.621V329.434H143.33ZM159.424 330.713C160.225 329.73 161.266 329.238 162.549 329.238C164.782 329.238 165.908 330.498 165.928 333.018V340H164.121V333.008C164.115 332.246 163.939 331.683 163.594 331.318C163.255 330.954 162.725 330.771 162.002 330.771C161.416 330.771 160.902 330.928 160.459 331.24C160.016 331.553 159.671 331.963 159.424 332.471V340H157.617V325H159.424V330.713ZM173.018 340.195C171.585 340.195 170.42 339.727 169.521 338.789C168.623 337.845 168.174 336.585 168.174 335.01V334.678C168.174 333.63 168.372 332.695 168.77 331.875C169.173 331.048 169.733 330.404 170.449 329.941C171.172 329.473 171.953 329.238 172.793 329.238C174.167 329.238 175.234 329.691 175.996 330.596C176.758 331.501 177.139 332.796 177.139 334.482V335.234H169.98C170.007 336.276 170.309 337.119 170.889 337.764C171.475 338.402 172.217 338.721 173.115 338.721C173.753 338.721 174.294 338.59 174.736 338.33C175.179 338.07 175.566 337.725 175.898 337.295L177.002 338.154C176.117 339.515 174.788 340.195 173.018 340.195ZM172.793 330.723C172.064 330.723 171.452 330.99 170.957 331.523C170.462 332.051 170.156 332.793 170.039 333.75H175.332V333.613C175.28 332.695 175.033 331.986 174.59 331.484C174.147 330.977 173.548 330.723 172.793 330.723ZM184.346 331.055C184.072 331.009 183.776 330.986 183.457 330.986C182.272 330.986 181.468 331.491 181.045 332.5V340H179.238V329.434H180.996L181.025 330.654C181.618 329.71 182.458 329.238 183.545 329.238C183.896 329.238 184.163 329.284 184.346 329.375V331.055ZM190.205 340.195C188.773 340.195 187.607 339.727 186.709 338.789C185.811 337.845 185.361 336.585 185.361 335.01V334.678C185.361 333.63 185.56 332.695 185.957 331.875C186.361 331.048 186.921 330.404 187.637 329.941C188.359 329.473 189.141 329.238 189.98 329.238C191.354 329.238 192.422 329.691 193.184 330.596C193.945 331.501 194.326 332.796 194.326 334.482V335.234H187.168C187.194 336.276 187.497 337.119 188.076 337.764C188.662 338.402 189.404 338.721 190.303 338.721C190.941 338.721 191.481 338.59 191.924 338.33C192.367 338.07 192.754 337.725 193.086 337.295L194.189 338.154C193.304 339.515 191.976 340.195 190.205 340.195ZM189.98 330.723C189.251 330.723 188.639 330.99 188.145 331.523C187.65 332.051 187.344 332.793 187.227 333.75H192.52V333.613C192.467 332.695 192.22 331.986 191.777 331.484C191.335 330.977 190.736 330.723 189.98 330.723Z" fill="black"/>
<path d="M662.456 78H657.329L647.349 61.6279V78H642.222V53.1172H647.349L657.346 69.5234V53.1172H662.456V78ZM681.289 72.873H672.3L670.591 78H665.139L674.402 53.1172H679.153L688.467 78H683.015L681.289 72.873ZM673.684 68.7202H679.905L676.777 59.4062L673.684 68.7202ZM697.49 53.1172L703.882 71.1641L710.239 53.1172H716.973V78H711.829V71.1982L712.341 59.4575L705.625 78H702.104L695.405 59.4746L695.918 71.1982V78H690.791V53.1172H697.49ZM736.421 67.2163H726.577V73.8813H738.13V78H721.45V53.1172H738.096V57.27H726.577V63.2002H736.421V67.2163Z" fill="white"/>
<path d="M758.187 75.3169H769.979V78H754.888V53.1172H758.187V75.3169ZM787.803 71.5059H777.378L775.037 78H771.653L781.155 53.1172H784.026L793.545 78H790.179L787.803 71.5059ZM778.37 68.8057H786.829L782.591 57.1675L778.37 68.8057ZM804.227 66.9087C801.412 66.0998 799.362 65.1086 798.074 63.9351C796.798 62.7502 796.16 61.2918 796.16 59.5601C796.16 57.6004 796.941 55.9826 798.501 54.7065C800.074 53.4191 802.113 52.7754 804.62 52.7754C806.329 52.7754 807.85 53.1058 809.183 53.7666C810.527 54.4274 811.564 55.3389 812.293 56.501C813.034 57.6631 813.404 58.9334 813.404 60.312H810.105C810.105 58.8081 809.627 57.6289 808.67 56.7744C807.713 55.9085 806.363 55.4756 804.62 55.4756C803.002 55.4756 801.737 55.8345 800.826 56.5522C799.926 57.2586 799.476 58.2441 799.476 59.5088C799.476 60.5228 799.903 61.383 800.757 62.0894C801.623 62.7843 803.087 63.4224 805.149 64.0034C807.223 64.5845 808.841 65.2282 810.003 65.9346C811.176 66.6296 812.042 67.4442 812.601 68.3784C813.17 69.3127 813.455 70.4121 813.455 71.6768C813.455 73.6934 812.669 75.3112 811.097 76.5303C809.524 77.738 807.422 78.3418 804.791 78.3418C803.082 78.3418 801.486 78.0171 800.005 77.3677C798.524 76.7069 797.379 75.8068 796.57 74.6675C795.773 73.5282 795.374 72.235 795.374 70.7881H798.672C798.672 72.292 799.225 73.4826 800.33 74.3599C801.447 75.2257 802.933 75.6587 804.791 75.6587C806.522 75.6587 807.85 75.3055 808.772 74.5991C809.695 73.8927 810.157 72.93 810.157 71.7109C810.157 70.4919 809.729 69.5519 808.875 68.8911C808.021 68.2189 806.471 67.5581 804.227 66.9087ZM834.869 55.8174H826.871V78H823.606V55.8174H815.625V53.1172H834.869V55.8174ZM857.684 78H854.385L841.858 58.8252V78H838.56V53.1172H841.858L854.419 72.3774V53.1172H857.684V78ZM877.559 71.5059H867.134L864.793 78H861.409L870.911 53.1172H873.782L883.301 78H879.935L877.559 71.5059ZM868.125 68.8057H876.585L872.347 57.1675L868.125 68.8057ZM890.889 53.1172L899.024 73.4199L907.159 53.1172H911.414V78H908.133V68.3101L908.44 57.8511L900.271 78H897.759L889.607 57.9023L889.932 68.3101V78H886.651V53.1172H890.889ZM931.272 66.4985H920.489V75.3169H933.016V78H917.208V53.1172H932.845V55.8174H920.489V63.8154H931.272V66.4985Z" fill="white"/>
<path d="M652.109 106.488C651.934 107.992 651.377 109.154 650.439 109.975C649.508 110.788 648.268 111.195 646.719 111.195C645.039 111.195 643.691 110.593 642.676 109.389C641.667 108.184 641.162 106.573 641.162 104.555V103.188C641.162 101.866 641.396 100.704 641.865 99.7012C642.34 98.6986 643.011 97.9303 643.877 97.3965C644.743 96.8561 645.745 96.5859 646.885 96.5859C648.395 96.5859 649.606 97.0091 650.518 97.8555C651.429 98.6953 651.96 99.8607 652.109 101.352H650.225C650.062 100.219 649.707 99.3984 649.16 98.8906C648.62 98.3828 647.861 98.1289 646.885 98.1289C645.687 98.1289 644.746 98.5716 644.062 99.457C643.385 100.342 643.047 101.602 643.047 103.236V104.613C643.047 106.156 643.369 107.383 644.014 108.295C644.658 109.206 645.56 109.662 646.719 109.662C647.76 109.662 648.558 109.428 649.111 108.959C649.671 108.484 650.042 107.66 650.225 106.488H652.109ZM653.916 105.619C653.916 104.584 654.118 103.653 654.521 102.826C654.932 101.999 655.498 101.361 656.221 100.912C656.95 100.463 657.78 100.238 658.711 100.238C660.15 100.238 661.312 100.736 662.197 101.732C663.089 102.729 663.535 104.053 663.535 105.707V105.834C663.535 106.863 663.337 107.787 662.939 108.607C662.549 109.421 661.986 110.056 661.25 110.512C660.521 110.967 659.681 111.195 658.73 111.195C657.298 111.195 656.136 110.697 655.244 109.701C654.359 108.705 653.916 107.387 653.916 105.746V105.619ZM655.732 105.834C655.732 107.006 656.003 107.947 656.543 108.656C657.09 109.366 657.819 109.721 658.73 109.721C659.648 109.721 660.378 109.363 660.918 108.646C661.458 107.924 661.729 106.915 661.729 105.619C661.729 104.46 661.452 103.523 660.898 102.807C660.352 102.084 659.622 101.723 658.711 101.723C657.819 101.723 657.1 102.077 656.553 102.787C656.006 103.497 655.732 104.512 655.732 105.834ZM669.561 105.697H664.795V104.223H669.561V105.697ZM679.453 104.721H673.486V111H671.611V96.7812H680.42V98.3242H673.486V103.188H679.453V104.721ZM681.689 105.619C681.689 104.584 681.891 103.653 682.295 102.826C682.705 101.999 683.271 101.361 683.994 100.912C684.723 100.463 685.553 100.238 686.484 100.238C687.923 100.238 689.085 100.736 689.971 101.732C690.863 102.729 691.309 104.053 691.309 105.707V105.834C691.309 106.863 691.11 107.787 690.713 108.607C690.322 109.421 689.759 110.056 689.023 110.512C688.294 110.967 687.454 111.195 686.504 111.195C685.072 111.195 683.91 110.697 683.018 109.701C682.132 108.705 681.689 107.387 681.689 105.746V105.619ZM683.506 105.834C683.506 107.006 683.776 107.947 684.316 108.656C684.863 109.366 685.592 109.721 686.504 109.721C687.422 109.721 688.151 109.363 688.691 108.646C689.232 107.924 689.502 106.915 689.502 105.619C689.502 104.46 689.225 103.523 688.672 102.807C688.125 102.084 687.396 101.723 686.484 101.723C685.592 101.723 684.873 102.077 684.326 102.787C683.779 103.497 683.506 104.512 683.506 105.834ZM700.098 109.955C699.395 110.782 698.363 111.195 697.002 111.195C695.876 111.195 695.016 110.87 694.424 110.219C693.838 109.561 693.542 108.591 693.535 107.309V100.434H695.342V107.26C695.342 108.861 695.993 109.662 697.295 109.662C698.675 109.662 699.593 109.148 700.049 108.119V100.434H701.855V111H700.137L700.098 109.955ZM706.318 100.434L706.377 101.762C707.184 100.746 708.239 100.238 709.541 100.238C711.774 100.238 712.9 101.498 712.92 104.018V111H711.113V104.008C711.107 103.246 710.931 102.683 710.586 102.318C710.247 101.954 709.717 101.771 708.994 101.771C708.408 101.771 707.894 101.928 707.451 102.24C707.008 102.553 706.663 102.963 706.416 103.471V111H704.609V100.434H706.318ZM715.205 105.629C715.205 104.008 715.589 102.706 716.357 101.723C717.126 100.733 718.132 100.238 719.375 100.238C720.612 100.238 721.592 100.661 722.314 101.508V96H724.121V111H722.461L722.373 109.867C721.65 110.753 720.645 111.195 719.355 111.195C718.132 111.195 717.132 110.694 716.357 109.691C715.589 108.689 715.205 107.38 715.205 105.766V105.629ZM717.012 105.834C717.012 107.032 717.259 107.969 717.754 108.646C718.249 109.324 718.932 109.662 719.805 109.662C720.951 109.662 721.787 109.148 722.314 108.119V103.266C721.774 102.27 720.944 101.771 719.824 101.771C718.939 101.771 718.249 102.113 717.754 102.797C717.259 103.48 717.012 104.493 717.012 105.834ZM731.318 111.195C729.886 111.195 728.721 110.727 727.822 109.789C726.924 108.845 726.475 107.585 726.475 106.01V105.678C726.475 104.63 726.673 103.695 727.07 102.875C727.474 102.048 728.034 101.404 728.75 100.941C729.473 100.473 730.254 100.238 731.094 100.238C732.467 100.238 733.535 100.691 734.297 101.596C735.059 102.501 735.439 103.796 735.439 105.482V106.234H728.281C728.307 107.276 728.61 108.119 729.189 108.764C729.775 109.402 730.518 109.721 731.416 109.721C732.054 109.721 732.594 109.59 733.037 109.33C733.48 109.07 733.867 108.725 734.199 108.295L735.303 109.154C734.417 110.515 733.089 111.195 731.318 111.195ZM731.094 101.723C730.365 101.723 729.753 101.99 729.258 102.523C728.763 103.051 728.457 103.793 728.34 104.75H733.633V104.613C733.581 103.695 733.333 102.986 732.891 102.484C732.448 101.977 731.849 101.723 731.094 101.723ZM742.646 102.055C742.373 102.009 742.077 101.986 741.758 101.986C740.573 101.986 739.769 102.491 739.346 103.5V111H737.539V100.434H739.297L739.326 101.654C739.919 100.71 740.758 100.238 741.846 100.238C742.197 100.238 742.464 100.284 742.646 100.375V102.055ZM749.561 111V96.7812H754.209C755.752 96.7812 756.911 97.1003 757.686 97.7383C758.467 98.3763 758.857 99.3203 758.857 100.57C758.857 101.234 758.669 101.824 758.291 102.338C757.913 102.846 757.399 103.24 756.748 103.52C757.516 103.734 758.122 104.145 758.564 104.75C759.014 105.349 759.238 106.065 759.238 106.898C759.238 108.174 758.825 109.177 757.998 109.906C757.171 110.635 756.003 111 754.492 111H749.561ZM751.436 104.35V109.467H754.531C755.404 109.467 756.09 109.242 756.592 108.793C757.1 108.337 757.354 107.712 757.354 106.918C757.354 105.206 756.423 104.35 754.561 104.35H751.436ZM751.436 102.846H754.268C755.088 102.846 755.742 102.641 756.23 102.23C756.725 101.82 756.973 101.264 756.973 100.561C756.973 99.7793 756.745 99.2129 756.289 98.8613C755.833 98.5033 755.14 98.3242 754.209 98.3242H751.436V102.846ZM766.846 102.055C766.572 102.009 766.276 101.986 765.957 101.986C764.772 101.986 763.968 102.491 763.545 103.5V111H761.738V100.434H763.496L763.525 101.654C764.118 100.71 764.958 100.238 766.045 100.238C766.396 100.238 766.663 100.284 766.846 100.375V102.055ZM774.648 111C774.544 110.792 774.46 110.421 774.395 109.887C773.555 110.759 772.552 111.195 771.387 111.195C770.345 111.195 769.489 110.902 768.818 110.316C768.154 109.724 767.822 108.975 767.822 108.07C767.822 106.97 768.239 106.117 769.072 105.512C769.912 104.9 771.09 104.594 772.607 104.594H774.365V103.764C774.365 103.132 774.176 102.631 773.799 102.26C773.421 101.882 772.865 101.693 772.129 101.693C771.484 101.693 770.944 101.856 770.508 102.182C770.072 102.507 769.854 102.901 769.854 103.363H768.037C768.037 102.836 768.223 102.328 768.594 101.84C768.971 101.345 769.479 100.954 770.117 100.668C770.762 100.382 771.468 100.238 772.236 100.238C773.454 100.238 774.408 100.544 775.098 101.156C775.788 101.762 776.146 102.598 776.172 103.666V108.529C776.172 109.499 776.296 110.271 776.543 110.844V111H774.648ZM771.65 109.623C772.217 109.623 772.754 109.477 773.262 109.184C773.77 108.891 774.137 108.51 774.365 108.041V105.873H772.949C770.736 105.873 769.629 106.521 769.629 107.816C769.629 108.383 769.818 108.826 770.195 109.145C770.573 109.464 771.058 109.623 771.65 109.623ZM780.713 100.434L780.771 101.762C781.579 100.746 782.633 100.238 783.936 100.238C786.169 100.238 787.295 101.498 787.314 104.018V111H785.508V104.008C785.501 103.246 785.326 102.683 784.98 102.318C784.642 101.954 784.111 101.771 783.389 101.771C782.803 101.771 782.288 101.928 781.846 102.24C781.403 102.553 781.058 102.963 780.811 103.471V111H779.004V100.434H780.713ZM789.6 105.629C789.6 104.008 789.984 102.706 790.752 101.723C791.52 100.733 792.526 100.238 793.77 100.238C795.007 100.238 795.986 100.661 796.709 101.508V96H798.516V111H796.855L796.768 109.867C796.045 110.753 795.039 111.195 793.75 111.195C792.526 111.195 791.527 110.694 790.752 109.691C789.984 108.689 789.6 107.38 789.6 105.766V105.629ZM791.406 105.834C791.406 107.032 791.654 107.969 792.148 108.646C792.643 109.324 793.327 109.662 794.199 109.662C795.345 109.662 796.182 109.148 796.709 108.119V103.266C796.169 102.27 795.339 101.771 794.219 101.771C793.333 101.771 792.643 102.113 792.148 102.797C791.654 103.48 791.406 104.493 791.406 105.834ZM817.5 111H815.615L808.457 100.043V111H806.572V96.7812H808.457L815.635 107.787V96.7812H817.5V111ZM827.07 111C826.966 110.792 826.882 110.421 826.816 109.887C825.977 110.759 824.974 111.195 823.809 111.195C822.767 111.195 821.911 110.902 821.24 110.316C820.576 109.724 820.244 108.975 820.244 108.07C820.244 106.97 820.661 106.117 821.494 105.512C822.334 104.9 823.512 104.594 825.029 104.594H826.787V103.764C826.787 103.132 826.598 102.631 826.221 102.26C825.843 101.882 825.286 101.693 824.551 101.693C823.906 101.693 823.366 101.856 822.93 102.182C822.493 102.507 822.275 102.901 822.275 103.363H820.459C820.459 102.836 820.645 102.328 821.016 101.84C821.393 101.345 821.901 100.954 822.539 100.668C823.184 100.382 823.89 100.238 824.658 100.238C825.876 100.238 826.829 100.544 827.52 101.156C828.21 101.762 828.568 102.598 828.594 103.666V108.529C828.594 109.499 828.717 110.271 828.965 110.844V111H827.07ZM824.072 109.623C824.639 109.623 825.176 109.477 825.684 109.184C826.191 108.891 826.559 108.51 826.787 108.041V105.873H825.371C823.158 105.873 822.051 106.521 822.051 107.816C822.051 108.383 822.24 108.826 822.617 109.145C822.995 109.464 823.48 109.623 824.072 109.623ZM833.125 100.434L833.174 101.605C833.949 100.694 834.993 100.238 836.309 100.238C837.786 100.238 838.792 100.805 839.326 101.938C839.678 101.43 840.133 101.02 840.693 100.707C841.26 100.395 841.927 100.238 842.695 100.238C845.013 100.238 846.191 101.465 846.23 103.92V111H844.424V104.027C844.424 103.272 844.251 102.709 843.906 102.338C843.561 101.96 842.982 101.771 842.168 101.771C841.497 101.771 840.941 101.973 840.498 102.377C840.055 102.774 839.798 103.311 839.727 103.988V111H837.91V104.076C837.91 102.54 837.158 101.771 835.654 101.771C834.469 101.771 833.659 102.276 833.223 103.285V111H831.416V100.434H833.125ZM853.35 111.195C851.917 111.195 850.752 110.727 849.854 109.789C848.955 108.845 848.506 107.585 848.506 106.01V105.678C848.506 104.63 848.704 103.695 849.102 102.875C849.505 102.048 850.065 101.404 850.781 100.941C851.504 100.473 852.285 100.238 853.125 100.238C854.499 100.238 855.566 100.691 856.328 101.596C857.09 102.501 857.471 103.796 857.471 105.482V106.234H850.312C850.339 107.276 850.641 108.119 851.221 108.764C851.807 109.402 852.549 109.721 853.447 109.721C854.085 109.721 854.626 109.59 855.068 109.33C855.511 109.07 855.898 108.725 856.23 108.295L857.334 109.154C856.449 110.515 855.12 111.195 853.35 111.195ZM853.125 101.723C852.396 101.723 851.784 101.99 851.289 102.523C850.794 103.051 850.488 103.793 850.371 104.75H855.664V104.613C855.612 103.695 855.365 102.986 854.922 102.484C854.479 101.977 853.88 101.723 853.125 101.723Z" fill="white"/>
<path d="M723.119 334H721.303V321.959L717.66 323.297V321.656L722.836 319.713H723.119V334ZM737.729 334H728.412V332.701L733.334 327.232C734.063 326.406 734.564 325.735 734.838 325.221C735.118 324.7 735.258 324.163 735.258 323.609C735.258 322.867 735.033 322.258 734.584 321.783C734.135 321.308 733.536 321.07 732.787 321.07C731.889 321.07 731.189 321.327 730.688 321.842C730.193 322.35 729.945 323.059 729.945 323.971H728.139C728.139 322.662 728.559 321.604 729.398 320.797C730.245 319.99 731.374 319.586 732.787 319.586C734.109 319.586 735.154 319.934 735.922 320.631C736.69 321.321 737.074 322.242 737.074 323.395C737.074 324.794 736.182 326.461 734.398 328.395L730.59 332.525H737.729V334ZM742.27 326.012H743.627C744.48 325.999 745.15 325.774 745.639 325.338C746.127 324.902 746.371 324.312 746.371 323.57C746.371 321.904 745.541 321.07 743.881 321.07C743.1 321.07 742.475 321.295 742.006 321.744C741.544 322.187 741.312 322.776 741.312 323.512H739.506C739.506 322.385 739.916 321.451 740.736 320.709C741.563 319.96 742.611 319.586 743.881 319.586C745.222 319.586 746.273 319.941 747.035 320.65C747.797 321.36 748.178 322.346 748.178 323.609C748.178 324.228 747.976 324.827 747.572 325.406C747.175 325.986 746.632 326.419 745.941 326.705C746.723 326.952 747.325 327.363 747.748 327.936C748.178 328.508 748.393 329.208 748.393 330.035C748.393 331.311 747.976 332.324 747.143 333.072C746.309 333.821 745.225 334.195 743.891 334.195C742.556 334.195 741.469 333.834 740.629 333.111C739.796 332.389 739.379 331.435 739.379 330.25H741.195C741.195 330.999 741.439 331.598 741.928 332.047C742.416 332.496 743.07 332.721 743.891 332.721C744.763 332.721 745.43 332.493 745.893 332.037C746.355 331.581 746.586 330.927 746.586 330.074C746.586 329.247 746.332 328.613 745.824 328.17C745.316 327.727 744.584 327.499 743.627 327.486H742.27V326.012ZM765.736 321.324H761.166V334H759.301V321.324H754.74V319.781H765.736V321.324ZM776.508 328.834C776.508 330.449 776.137 331.747 775.395 332.73C774.652 333.707 773.656 334.195 772.406 334.195C771.072 334.195 770.04 333.723 769.311 332.779L769.223 334H767.562V319H769.369V324.596C770.098 323.691 771.104 323.238 772.387 323.238C773.669 323.238 774.675 323.723 775.404 324.693C776.14 325.663 776.508 326.992 776.508 328.678V328.834ZM774.701 328.629C774.701 327.398 774.464 326.448 773.988 325.777C773.513 325.107 772.829 324.771 771.938 324.771C770.746 324.771 769.89 325.325 769.369 326.432V331.002C769.923 332.109 770.785 332.662 771.957 332.662C772.823 332.662 773.497 332.327 773.979 331.656C774.46 330.986 774.701 329.977 774.701 328.629ZM780.756 334H778.949V323.434H780.756V334ZM778.803 320.631C778.803 320.338 778.891 320.09 779.066 319.889C779.249 319.687 779.516 319.586 779.867 319.586C780.219 319.586 780.486 319.687 780.668 319.889C780.85 320.09 780.941 320.338 780.941 320.631C780.941 320.924 780.85 321.168 780.668 321.363C780.486 321.559 780.219 321.656 779.867 321.656C779.516 321.656 779.249 321.559 779.066 321.363C778.891 321.168 778.803 320.924 778.803 320.631ZM785.619 334H783.812V319H785.619V334ZM790.482 334H788.676V323.434H790.482V334ZM788.529 320.631C788.529 320.338 788.617 320.09 788.793 319.889C788.975 319.687 789.242 319.586 789.594 319.586C789.945 319.586 790.212 319.687 790.395 319.889C790.577 320.09 790.668 320.338 790.668 320.631C790.668 320.924 790.577 321.168 790.395 321.363C790.212 321.559 789.945 321.656 789.594 321.656C789.242 321.656 788.975 321.559 788.793 321.363C788.617 321.168 788.529 320.924 788.529 320.631ZM799.535 331.197C799.535 330.709 799.35 330.331 798.979 330.064C798.614 329.791 797.973 329.557 797.055 329.361C796.143 329.166 795.417 328.932 794.877 328.658C794.343 328.385 793.946 328.059 793.686 327.682C793.432 327.304 793.305 326.855 793.305 326.334C793.305 325.468 793.669 324.736 794.398 324.137C795.134 323.538 796.072 323.238 797.211 323.238C798.409 323.238 799.379 323.548 800.121 324.166C800.87 324.785 801.244 325.576 801.244 326.539H799.428C799.428 326.044 799.216 325.618 798.793 325.26C798.376 324.902 797.849 324.723 797.211 324.723C796.553 324.723 796.039 324.866 795.668 325.152C795.297 325.439 795.111 325.813 795.111 326.275C795.111 326.712 795.284 327.04 795.629 327.262C795.974 327.483 796.596 327.695 797.494 327.896C798.399 328.098 799.132 328.339 799.691 328.619C800.251 328.899 800.665 329.238 800.932 329.635C801.205 330.025 801.342 330.504 801.342 331.07C801.342 332.014 800.964 332.773 800.209 333.346C799.454 333.912 798.474 334.195 797.27 334.195C796.423 334.195 795.674 334.046 795.023 333.746C794.372 333.447 793.861 333.03 793.49 332.496C793.126 331.956 792.943 331.373 792.943 330.748H794.75C794.783 331.354 795.023 331.835 795.473 332.193C795.928 332.545 796.527 332.721 797.27 332.721C797.953 332.721 798.5 332.584 798.91 332.311C799.327 332.031 799.535 331.66 799.535 331.197ZM805.658 334H803.852V323.434H805.658V334ZM803.705 320.631C803.705 320.338 803.793 320.09 803.969 319.889C804.151 319.687 804.418 319.586 804.77 319.586C805.121 319.586 805.388 319.687 805.57 319.889C805.753 320.09 805.844 320.338 805.844 320.631C805.844 320.924 805.753 321.168 805.57 321.363C805.388 321.559 805.121 321.656 804.77 321.656C804.418 321.656 804.151 321.559 803.969 321.363C803.793 321.168 803.705 320.924 803.705 320.631ZM813.09 328.629C813.09 326.982 813.471 325.673 814.232 324.703C814.994 323.727 816.003 323.238 817.26 323.238C818.549 323.238 819.555 323.694 820.277 324.605L820.365 323.434H822.016V333.746C822.016 335.113 821.609 336.191 820.795 336.979C819.988 337.766 818.9 338.16 817.533 338.16C816.771 338.16 816.026 337.997 815.297 337.672C814.568 337.346 814.011 336.9 813.627 336.334L814.564 335.25C815.339 336.207 816.286 336.686 817.406 336.686C818.285 336.686 818.969 336.438 819.457 335.943C819.952 335.449 820.199 334.752 820.199 333.854V332.945C819.477 333.779 818.49 334.195 817.24 334.195C816.003 334.195 815.001 333.697 814.232 332.701C813.471 331.705 813.09 330.348 813.09 328.629ZM814.906 328.834C814.906 330.025 815.15 330.963 815.639 331.646C816.127 332.324 816.811 332.662 817.689 332.662C818.829 332.662 819.665 332.145 820.199 331.109V326.285C819.646 325.276 818.816 324.771 817.709 324.771C816.83 324.771 816.143 325.113 815.648 325.797C815.154 326.48 814.906 327.493 814.906 328.834ZM829.135 334.195C827.702 334.195 826.537 333.727 825.639 332.789C824.74 331.845 824.291 330.585 824.291 329.01V328.678C824.291 327.63 824.49 326.695 824.887 325.875C825.29 325.048 825.85 324.404 826.566 323.941C827.289 323.473 828.07 323.238 828.91 323.238C830.284 323.238 831.352 323.691 832.113 324.596C832.875 325.501 833.256 326.796 833.256 328.482V329.234H826.098C826.124 330.276 826.426 331.119 827.006 331.764C827.592 332.402 828.334 332.721 829.232 332.721C829.87 332.721 830.411 332.59 830.854 332.33C831.296 332.07 831.684 331.725 832.016 331.295L833.119 332.154C832.234 333.515 830.906 334.195 829.135 334.195ZM828.91 324.723C828.181 324.723 827.569 324.99 827.074 325.523C826.579 326.051 826.273 326.793 826.156 327.75H831.449V327.613C831.397 326.695 831.15 325.986 830.707 325.484C830.264 324.977 829.665 324.723 828.91 324.723ZM834.877 328.619C834.877 327.584 835.079 326.653 835.482 325.826C835.893 324.999 836.459 324.361 837.182 323.912C837.911 323.463 838.741 323.238 839.672 323.238C841.111 323.238 842.273 323.736 843.158 324.732C844.05 325.729 844.496 327.053 844.496 328.707V328.834C844.496 329.863 844.298 330.787 843.9 331.607C843.51 332.421 842.947 333.056 842.211 333.512C841.482 333.967 840.642 334.195 839.691 334.195C838.259 334.195 837.097 333.697 836.205 332.701C835.32 331.705 834.877 330.387 834.877 328.746V328.619ZM836.693 328.834C836.693 330.006 836.964 330.947 837.504 331.656C838.051 332.366 838.78 332.721 839.691 332.721C840.609 332.721 841.339 332.363 841.879 331.646C842.419 330.924 842.689 329.915 842.689 328.619C842.689 327.46 842.413 326.523 841.859 325.807C841.312 325.084 840.583 324.723 839.672 324.723C838.78 324.723 838.061 325.077 837.514 325.787C836.967 326.497 836.693 327.512 836.693 328.834ZM851.869 325.055C851.596 325.009 851.299 324.986 850.98 324.986C849.796 324.986 848.992 325.491 848.568 326.5V334H846.762V323.434H848.52L848.549 324.654C849.141 323.71 849.981 323.238 851.068 323.238C851.42 323.238 851.687 323.284 851.869 323.375V325.055ZM852.914 328.629C852.914 326.982 853.295 325.673 854.057 324.703C854.818 323.727 855.827 323.238 857.084 323.238C858.373 323.238 859.379 323.694 860.102 324.605L860.189 323.434H861.84V333.746C861.84 335.113 861.433 336.191 860.619 336.979C859.812 337.766 858.725 338.16 857.357 338.16C856.596 338.16 855.85 337.997 855.121 337.672C854.392 337.346 853.835 336.9 853.451 336.334L854.389 335.25C855.163 336.207 856.111 336.686 857.23 336.686C858.109 336.686 858.793 336.438 859.281 335.943C859.776 335.449 860.023 334.752 860.023 333.854V332.945C859.301 333.779 858.314 334.195 857.064 334.195C855.827 334.195 854.825 333.697 854.057 332.701C853.295 331.705 852.914 330.348 852.914 328.629ZM854.73 328.834C854.73 330.025 854.975 330.963 855.463 331.646C855.951 332.324 856.635 332.662 857.514 332.662C858.653 332.662 859.49 332.145 860.023 331.109V326.285C859.47 325.276 858.64 324.771 857.533 324.771C856.654 324.771 855.967 325.113 855.473 325.797C854.978 326.48 854.73 327.493 854.73 328.834ZM866.537 334H864.73V323.434H866.537V334ZM864.584 320.631C864.584 320.338 864.672 320.09 864.848 319.889C865.03 319.687 865.297 319.586 865.648 319.586C866 319.586 866.267 319.687 866.449 319.889C866.632 320.09 866.723 320.338 866.723 320.631C866.723 320.924 866.632 321.168 866.449 321.363C866.267 321.559 866 321.656 865.648 321.656C865.297 321.656 865.03 321.559 864.848 321.363C864.672 321.168 864.584 320.924 864.584 320.631ZM875.961 334C875.857 333.792 875.772 333.421 875.707 332.887C874.867 333.759 873.865 334.195 872.699 334.195C871.658 334.195 870.801 333.902 870.131 333.316C869.467 332.724 869.135 331.975 869.135 331.07C869.135 329.97 869.551 329.117 870.385 328.512C871.225 327.9 872.403 327.594 873.92 327.594H875.678V326.764C875.678 326.132 875.489 325.631 875.111 325.26C874.734 324.882 874.177 324.693 873.441 324.693C872.797 324.693 872.257 324.856 871.82 325.182C871.384 325.507 871.166 325.901 871.166 326.363H869.35C869.35 325.836 869.535 325.328 869.906 324.84C870.284 324.345 870.792 323.954 871.43 323.668C872.074 323.382 872.781 323.238 873.549 323.238C874.766 323.238 875.72 323.544 876.41 324.156C877.1 324.762 877.458 325.598 877.484 326.666V331.529C877.484 332.499 877.608 333.271 877.855 333.844V334H875.961ZM872.963 332.623C873.529 332.623 874.066 332.477 874.574 332.184C875.082 331.891 875.45 331.51 875.678 331.041V328.873H874.262C872.048 328.873 870.941 329.521 870.941 330.816C870.941 331.383 871.13 331.826 871.508 332.145C871.885 332.464 872.37 332.623 872.963 332.623Z" fill="white"/>
<path d="M722.543 389.373H726.508V391.082H722.543V395.574H720.727V391.082H716.762V389.373H720.727V385.223H722.543V389.373ZM735.453 390.75C735.076 391.199 734.623 391.561 734.096 391.834C733.575 392.107 733.002 392.244 732.377 392.244C731.557 392.244 730.84 392.042 730.229 391.639C729.623 391.235 729.154 390.669 728.822 389.939C728.49 389.204 728.324 388.393 728.324 387.508C728.324 386.557 728.503 385.701 728.861 384.939C729.226 384.178 729.74 383.595 730.404 383.191C731.068 382.788 731.843 382.586 732.729 382.586C734.135 382.586 735.242 383.113 736.049 384.168C736.863 385.216 737.27 386.648 737.27 388.465V388.992C737.27 391.759 736.723 393.781 735.629 395.057C734.535 396.326 732.885 396.977 730.678 397.01H730.326V395.486H730.707C732.198 395.46 733.344 395.073 734.145 394.324C734.945 393.569 735.382 392.378 735.453 390.75ZM732.67 390.75C733.275 390.75 733.832 390.564 734.34 390.193C734.854 389.822 735.229 389.363 735.463 388.816V388.094C735.463 386.909 735.206 385.945 734.691 385.203C734.177 384.461 733.526 384.09 732.738 384.09C731.944 384.09 731.306 384.396 730.824 385.008C730.342 385.613 730.102 386.414 730.102 387.41C730.102 388.38 730.333 389.181 730.795 389.812C731.264 390.438 731.889 390.75 732.67 390.75ZM746.684 390.75C746.306 391.199 745.854 391.561 745.326 391.834C744.805 392.107 744.232 392.244 743.607 392.244C742.787 392.244 742.071 392.042 741.459 391.639C740.854 391.235 740.385 390.669 740.053 389.939C739.721 389.204 739.555 388.393 739.555 387.508C739.555 386.557 739.734 385.701 740.092 384.939C740.456 384.178 740.971 383.595 741.635 383.191C742.299 382.788 743.074 382.586 743.959 382.586C745.365 382.586 746.472 383.113 747.279 384.168C748.093 385.216 748.5 386.648 748.5 388.465V388.992C748.5 391.759 747.953 393.781 746.859 395.057C745.766 396.326 744.115 396.977 741.908 397.01H741.557V395.486H741.938C743.428 395.46 744.574 395.073 745.375 394.324C746.176 393.569 746.612 392.378 746.684 390.75ZM743.9 390.75C744.506 390.75 745.062 390.564 745.57 390.193C746.085 389.822 746.459 389.363 746.693 388.816V388.094C746.693 386.909 746.436 385.945 745.922 385.203C745.408 384.461 744.757 384.09 743.969 384.09C743.174 384.09 742.536 384.396 742.055 385.008C741.573 385.613 741.332 386.414 741.332 387.41C741.332 388.38 741.563 389.181 742.025 389.812C742.494 390.438 743.119 390.75 743.9 390.75ZM751.82 389.871L752.543 382.781H759.828V384.451H754.076L753.646 388.328C754.343 387.918 755.134 387.713 756.02 387.713C757.315 387.713 758.344 388.143 759.105 389.002C759.867 389.855 760.248 391.01 760.248 392.469C760.248 393.934 759.851 395.089 759.057 395.936C758.269 396.775 757.165 397.195 755.746 397.195C754.49 397.195 753.464 396.847 752.67 396.15C751.876 395.454 751.423 394.49 751.312 393.26H753.021C753.132 394.074 753.422 394.689 753.891 395.105C754.359 395.516 754.978 395.721 755.746 395.721C756.586 395.721 757.243 395.434 757.719 394.861C758.201 394.288 758.441 393.497 758.441 392.488C758.441 391.538 758.181 390.776 757.66 390.203C757.146 389.624 756.459 389.334 755.6 389.334C754.812 389.334 754.193 389.507 753.744 389.852L753.266 390.242L751.82 389.871ZM773.119 397H771.303V384.959L767.66 386.297V384.656L772.836 382.713H773.119V397ZM787.729 397H778.412V395.701L783.334 390.232C784.063 389.406 784.564 388.735 784.838 388.221C785.118 387.7 785.258 387.163 785.258 386.609C785.258 385.867 785.033 385.258 784.584 384.783C784.135 384.308 783.536 384.07 782.787 384.07C781.889 384.07 781.189 384.327 780.688 384.842C780.193 385.35 779.945 386.059 779.945 386.971H778.139C778.139 385.662 778.559 384.604 779.398 383.797C780.245 382.99 781.374 382.586 782.787 382.586C784.109 382.586 785.154 382.934 785.922 383.631C786.69 384.321 787.074 385.242 787.074 386.395C787.074 387.794 786.182 389.461 784.398 391.395L780.59 395.525H787.729V397ZM792.27 389.012H793.627C794.48 388.999 795.15 388.774 795.639 388.338C796.127 387.902 796.371 387.312 796.371 386.57C796.371 384.904 795.541 384.07 793.881 384.07C793.1 384.07 792.475 384.295 792.006 384.744C791.544 385.187 791.312 385.776 791.312 386.512H789.506C789.506 385.385 789.916 384.451 790.736 383.709C791.563 382.96 792.611 382.586 793.881 382.586C795.222 382.586 796.273 382.941 797.035 383.65C797.797 384.36 798.178 385.346 798.178 386.609C798.178 387.228 797.976 387.827 797.572 388.406C797.175 388.986 796.632 389.419 795.941 389.705C796.723 389.952 797.325 390.363 797.748 390.936C798.178 391.508 798.393 392.208 798.393 393.035C798.393 394.311 797.976 395.324 797.143 396.072C796.309 396.821 795.225 397.195 793.891 397.195C792.556 397.195 791.469 396.834 790.629 396.111C789.796 395.389 789.379 394.435 789.379 393.25H791.195C791.195 393.999 791.439 394.598 791.928 395.047C792.416 395.496 793.07 395.721 793.891 395.721C794.763 395.721 795.43 395.493 795.893 395.037C796.355 394.581 796.586 393.927 796.586 393.074C796.586 392.247 796.332 391.613 795.824 391.17C795.316 390.727 794.584 390.499 793.627 390.486H792.27V389.012ZM808.5 392.225H810.473V393.699H808.5V397H806.684V393.699H800.209V392.635L806.576 382.781H808.5V392.225ZM802.26 392.225H806.684V385.252L806.469 385.643L802.26 392.225ZM818.041 397H816.225V384.959L812.582 386.297V384.656L817.758 382.713H818.041V397ZM837.611 397H828.295V395.701L833.217 390.232C833.946 389.406 834.447 388.735 834.721 388.221C835.001 387.7 835.141 387.163 835.141 386.609C835.141 385.867 834.916 385.258 834.467 384.783C834.018 384.308 833.419 384.07 832.67 384.07C831.771 384.07 831.072 384.327 830.57 384.842C830.076 385.35 829.828 386.059 829.828 386.971H828.021C828.021 385.662 828.441 384.604 829.281 383.797C830.128 382.99 831.257 382.586 832.67 382.586C833.992 382.586 835.036 382.934 835.805 383.631C836.573 384.321 836.957 385.242 836.957 386.395C836.957 387.794 836.065 389.461 834.281 391.395L830.473 395.525H837.611V397ZM842.152 389.012H843.51C844.363 388.999 845.033 388.774 845.521 388.338C846.01 387.902 846.254 387.312 846.254 386.57C846.254 384.904 845.424 384.07 843.764 384.07C842.982 384.07 842.357 384.295 841.889 384.744C841.426 385.187 841.195 385.776 841.195 386.512H839.389C839.389 385.385 839.799 384.451 840.619 383.709C841.446 382.96 842.494 382.586 843.764 382.586C845.105 382.586 846.156 382.941 846.918 383.65C847.68 384.36 848.061 385.346 848.061 386.609C848.061 387.228 847.859 387.827 847.455 388.406C847.058 388.986 846.514 389.419 845.824 389.705C846.605 389.952 847.208 390.363 847.631 390.936C848.061 391.508 848.275 392.208 848.275 393.035C848.275 394.311 847.859 395.324 847.025 396.072C846.192 396.821 845.108 397.195 843.773 397.195C842.439 397.195 841.352 396.834 840.512 396.111C839.678 395.389 839.262 394.435 839.262 393.25H841.078C841.078 393.999 841.322 394.598 841.811 395.047C842.299 395.496 842.953 395.721 843.773 395.721C844.646 395.721 845.313 395.493 845.775 395.037C846.238 394.581 846.469 393.927 846.469 393.074C846.469 392.247 846.215 391.613 845.707 391.17C845.199 390.727 844.467 390.499 843.51 390.486H842.152V389.012ZM856.693 397H854.877V384.959L851.234 386.297V384.656L856.41 382.713H856.693V397Z" fill="white"/>
<path d="M726.723 534.51L728.754 526.434H730.561L727.484 537H726.02L723.451 528.992L720.951 537H719.486L716.42 526.434H718.217L720.297 534.344L722.758 526.434H724.213L726.723 534.51ZM741.762 534.51L743.793 526.434H745.6L742.523 537H741.059L738.49 528.992L735.99 537H734.525L731.459 526.434H733.256L735.336 534.344L737.797 526.434H739.252L741.762 534.51ZM756.801 534.51L758.832 526.434H760.639L757.562 537H756.098L753.529 528.992L751.029 537H749.564L746.498 526.434H748.295L750.375 534.344L752.836 526.434H754.291L756.801 534.51ZM761.312 536.053C761.312 535.74 761.404 535.48 761.586 535.271C761.775 535.063 762.055 534.959 762.426 534.959C762.797 534.959 763.077 535.063 763.266 535.271C763.461 535.48 763.559 535.74 763.559 536.053C763.559 536.352 763.461 536.603 763.266 536.805C763.077 537.007 762.797 537.107 762.426 537.107C762.055 537.107 761.775 537.007 761.586 536.805C761.404 536.603 761.312 536.352 761.312 536.053ZM775.902 534.51L777.934 526.434H779.74L776.664 537H775.199L772.631 528.992L770.131 537H768.666L765.6 526.434H767.396L769.477 534.344L771.938 526.434H773.393L775.902 534.51ZM785.971 537.195C784.538 537.195 783.373 536.727 782.475 535.789C781.576 534.845 781.127 533.585 781.127 532.01V531.678C781.127 530.63 781.326 529.695 781.723 528.875C782.126 528.048 782.686 527.404 783.402 526.941C784.125 526.473 784.906 526.238 785.746 526.238C787.12 526.238 788.188 526.691 788.949 527.596C789.711 528.501 790.092 529.796 790.092 531.482V532.234H782.934C782.96 533.276 783.262 534.119 783.842 534.764C784.428 535.402 785.17 535.721 786.068 535.721C786.706 535.721 787.247 535.59 787.689 535.33C788.132 535.07 788.52 534.725 788.852 534.295L789.955 535.154C789.07 536.515 787.742 537.195 785.971 537.195ZM785.746 527.723C785.017 527.723 784.405 527.99 783.91 528.523C783.415 529.051 783.109 529.793 782.992 530.75H788.285V530.613C788.233 529.695 787.986 528.986 787.543 528.484C787.1 527.977 786.501 527.723 785.746 527.723ZM801.137 531.834C801.137 533.449 800.766 534.747 800.023 535.73C799.281 536.707 798.285 537.195 797.035 537.195C795.701 537.195 794.669 536.723 793.939 535.779L793.852 537H792.191V522H793.998V527.596C794.727 526.691 795.733 526.238 797.016 526.238C798.298 526.238 799.304 526.723 800.033 527.693C800.769 528.663 801.137 529.992 801.137 531.678V531.834ZM799.33 531.629C799.33 530.398 799.092 529.448 798.617 528.777C798.142 528.107 797.458 527.771 796.566 527.771C795.375 527.771 794.519 528.325 793.998 529.432V534.002C794.551 535.109 795.414 535.662 796.586 535.662C797.452 535.662 798.126 535.327 798.607 534.656C799.089 533.986 799.33 532.977 799.33 531.629ZM809.574 534.197C809.574 533.709 809.389 533.331 809.018 533.064C808.653 532.791 808.012 532.557 807.094 532.361C806.182 532.166 805.456 531.932 804.916 531.658C804.382 531.385 803.985 531.059 803.725 530.682C803.471 530.304 803.344 529.855 803.344 529.334C803.344 528.468 803.708 527.736 804.438 527.137C805.173 526.538 806.111 526.238 807.25 526.238C808.448 526.238 809.418 526.548 810.16 527.166C810.909 527.785 811.283 528.576 811.283 529.539H809.467C809.467 529.044 809.255 528.618 808.832 528.26C808.415 527.902 807.888 527.723 807.25 527.723C806.592 527.723 806.078 527.866 805.707 528.152C805.336 528.439 805.15 528.813 805.15 529.275C805.15 529.712 805.323 530.04 805.668 530.262C806.013 530.483 806.635 530.695 807.533 530.896C808.438 531.098 809.171 531.339 809.73 531.619C810.29 531.899 810.704 532.238 810.971 532.635C811.244 533.025 811.381 533.504 811.381 534.07C811.381 535.014 811.003 535.773 810.248 536.346C809.493 536.912 808.513 537.195 807.309 537.195C806.462 537.195 805.714 537.046 805.062 536.746C804.411 536.447 803.9 536.03 803.529 535.496C803.165 534.956 802.982 534.373 802.982 533.748H804.789C804.822 534.354 805.062 534.835 805.512 535.193C805.967 535.545 806.566 535.721 807.309 535.721C807.992 535.721 808.539 535.584 808.949 535.311C809.366 535.031 809.574 534.66 809.574 534.197ZM815.697 537H813.891V526.434H815.697V537ZM813.744 523.631C813.744 523.338 813.832 523.09 814.008 522.889C814.19 522.687 814.457 522.586 814.809 522.586C815.16 522.586 815.427 522.687 815.609 522.889C815.792 523.09 815.883 523.338 815.883 523.631C815.883 523.924 815.792 524.168 815.609 524.363C815.427 524.559 815.16 524.656 814.809 524.656C814.457 524.656 814.19 524.559 814.008 524.363C813.832 524.168 813.744 523.924 813.744 523.631ZM821.049 523.875V526.434H823.021V527.83H821.049V534.383C821.049 534.806 821.137 535.125 821.312 535.34C821.488 535.548 821.788 535.652 822.211 535.652C822.419 535.652 822.706 535.613 823.07 535.535V537C822.595 537.13 822.133 537.195 821.684 537.195C820.876 537.195 820.268 536.951 819.857 536.463C819.447 535.975 819.242 535.281 819.242 534.383V527.83H817.318V526.434H819.242V523.875H821.049ZM829.525 537.195C828.093 537.195 826.928 536.727 826.029 535.789C825.131 534.845 824.682 533.585 824.682 532.01V531.678C824.682 530.63 824.88 529.695 825.277 528.875C825.681 528.048 826.241 527.404 826.957 526.941C827.68 526.473 828.461 526.238 829.301 526.238C830.674 526.238 831.742 526.691 832.504 527.596C833.266 528.501 833.646 529.796 833.646 531.482V532.234H826.488C826.514 533.276 826.817 534.119 827.396 534.764C827.982 535.402 828.725 535.721 829.623 535.721C830.261 535.721 830.801 535.59 831.244 535.33C831.687 535.07 832.074 534.725 832.406 534.295L833.51 535.154C832.624 536.515 831.296 537.195 829.525 537.195ZM829.301 527.723C828.572 527.723 827.96 527.99 827.465 528.523C826.97 529.051 826.664 529.793 826.547 530.75H831.84V530.613C831.788 529.695 831.54 528.986 831.098 528.484C830.655 527.977 830.056 527.723 829.301 527.723ZM835.785 536.053C835.785 535.74 835.876 535.48 836.059 535.271C836.247 535.063 836.527 534.959 836.898 534.959C837.27 534.959 837.549 535.063 837.738 535.271C837.934 535.48 838.031 535.74 838.031 536.053C838.031 536.352 837.934 536.603 837.738 536.805C837.549 537.007 837.27 537.107 836.898 537.107C836.527 537.107 836.247 537.007 836.059 536.805C835.876 536.603 835.785 536.352 835.785 536.053ZM845.258 535.721C845.902 535.721 846.465 535.525 846.947 535.135C847.429 534.744 847.696 534.256 847.748 533.67H849.457C849.424 534.275 849.216 534.852 848.832 535.398C848.448 535.945 847.934 536.382 847.289 536.707C846.651 537.033 845.974 537.195 845.258 537.195C843.819 537.195 842.673 536.717 841.82 535.76C840.974 534.796 840.551 533.481 840.551 531.814V531.512C840.551 530.483 840.74 529.568 841.117 528.768C841.495 527.967 842.035 527.345 842.738 526.902C843.448 526.46 844.285 526.238 845.248 526.238C846.433 526.238 847.416 526.593 848.197 527.303C848.985 528.012 849.405 528.934 849.457 530.066H847.748C847.696 529.383 847.436 528.823 846.967 528.387C846.505 527.944 845.932 527.723 845.248 527.723C844.33 527.723 843.617 528.055 843.109 528.719C842.608 529.376 842.357 530.33 842.357 531.58V531.922C842.357 533.139 842.608 534.077 843.109 534.734C843.611 535.392 844.327 535.721 845.258 535.721ZM851.01 531.619C851.01 530.584 851.212 529.653 851.615 528.826C852.025 527.999 852.592 527.361 853.314 526.912C854.044 526.463 854.874 526.238 855.805 526.238C857.243 526.238 858.406 526.736 859.291 527.732C860.183 528.729 860.629 530.053 860.629 531.707V531.834C860.629 532.863 860.43 533.787 860.033 534.607C859.643 535.421 859.079 536.056 858.344 536.512C857.615 536.967 856.775 537.195 855.824 537.195C854.392 537.195 853.23 536.697 852.338 535.701C851.452 534.705 851.01 533.387 851.01 531.746V531.619ZM852.826 531.834C852.826 533.006 853.096 533.947 853.637 534.656C854.184 535.366 854.913 535.721 855.824 535.721C856.742 535.721 857.471 535.363 858.012 534.646C858.552 533.924 858.822 532.915 858.822 531.619C858.822 530.46 858.546 529.523 857.992 528.807C857.445 528.084 856.716 527.723 855.805 527.723C854.913 527.723 854.193 528.077 853.646 528.787C853.1 529.497 852.826 530.512 852.826 531.834ZM864.594 526.434L864.643 527.605C865.417 526.694 866.462 526.238 867.777 526.238C869.255 526.238 870.261 526.805 870.795 527.938C871.146 527.43 871.602 527.02 872.162 526.707C872.729 526.395 873.396 526.238 874.164 526.238C876.482 526.238 877.66 527.465 877.699 529.92V537H875.893V530.027C875.893 529.272 875.72 528.709 875.375 528.338C875.03 527.96 874.451 527.771 873.637 527.771C872.966 527.771 872.41 527.973 871.967 528.377C871.524 528.774 871.267 529.311 871.195 529.988V537H869.379V530.076C869.379 528.54 868.627 527.771 867.123 527.771C865.938 527.771 865.128 528.276 864.691 529.285V537H862.885V526.434H864.594Z" fill="white"/>
<path d="M721.752 465.195C720.32 465.195 719.154 464.727 718.256 463.789C717.357 462.845 716.908 461.585 716.908 460.01V459.678C716.908 458.63 717.107 457.695 717.504 456.875C717.908 456.048 718.467 455.404 719.184 454.941C719.906 454.473 720.688 454.238 721.527 454.238C722.901 454.238 723.969 454.691 724.73 455.596C725.492 456.501 725.873 457.796 725.873 459.482V460.234H718.715C718.741 461.276 719.044 462.119 719.623 462.764C720.209 463.402 720.951 463.721 721.85 463.721C722.488 463.721 723.028 463.59 723.471 463.33C723.913 463.07 724.301 462.725 724.633 462.295L725.736 463.154C724.851 464.515 723.523 465.195 721.752 465.195ZM721.527 455.723C720.798 455.723 720.186 455.99 719.691 456.523C719.197 457.051 718.891 457.793 718.773 458.75H724.066V458.613C724.014 457.695 723.767 456.986 723.324 456.484C722.882 455.977 722.283 455.723 721.527 455.723ZM729.672 454.434L729.721 455.605C730.495 454.694 731.54 454.238 732.855 454.238C734.333 454.238 735.339 454.805 735.873 455.938C736.225 455.43 736.68 455.02 737.24 454.707C737.807 454.395 738.474 454.238 739.242 454.238C741.56 454.238 742.738 455.465 742.777 457.92V465H740.971V458.027C740.971 457.272 740.798 456.709 740.453 456.338C740.108 455.96 739.529 455.771 738.715 455.771C738.044 455.771 737.488 455.973 737.045 456.377C736.602 456.774 736.345 457.311 736.273 457.988V465H734.457V458.076C734.457 456.54 733.705 455.771 732.201 455.771C731.016 455.771 730.206 456.276 729.77 457.285V465H727.963V454.434H729.672ZM752.035 465C751.931 464.792 751.846 464.421 751.781 463.887C750.941 464.759 749.939 465.195 748.773 465.195C747.732 465.195 746.876 464.902 746.205 464.316C745.541 463.724 745.209 462.975 745.209 462.07C745.209 460.97 745.626 460.117 746.459 459.512C747.299 458.9 748.477 458.594 749.994 458.594H751.752V457.764C751.752 457.132 751.563 456.631 751.186 456.26C750.808 455.882 750.251 455.693 749.516 455.693C748.871 455.693 748.331 455.856 747.895 456.182C747.458 456.507 747.24 456.901 747.24 457.363H745.424C745.424 456.836 745.609 456.328 745.98 455.84C746.358 455.345 746.866 454.954 747.504 454.668C748.148 454.382 748.855 454.238 749.623 454.238C750.84 454.238 751.794 454.544 752.484 455.156C753.174 455.762 753.533 456.598 753.559 457.666V462.529C753.559 463.499 753.682 464.271 753.93 464.844V465H752.035ZM749.037 463.623C749.604 463.623 750.141 463.477 750.648 463.184C751.156 462.891 751.524 462.51 751.752 462.041V459.873H750.336C748.122 459.873 747.016 460.521 747.016 461.816C747.016 462.383 747.204 462.826 747.582 463.145C747.96 463.464 748.445 463.623 749.037 463.623ZM758.354 465H756.547V454.434H758.354V465ZM756.4 451.631C756.4 451.338 756.488 451.09 756.664 450.889C756.846 450.687 757.113 450.586 757.465 450.586C757.816 450.586 758.083 450.687 758.266 450.889C758.448 451.09 758.539 451.338 758.539 451.631C758.539 451.924 758.448 452.168 758.266 452.363C758.083 452.559 757.816 452.656 757.465 452.656C757.113 452.656 756.846 452.559 756.664 452.363C756.488 452.168 756.4 451.924 756.4 451.631ZM763.217 465H761.41V450H763.217V465ZM781.723 460.098C781.645 461.673 781.254 462.917 780.551 463.828C779.848 464.74 778.907 465.195 777.729 465.195C776.511 465.195 775.73 464.648 775.385 463.555C775.033 464.108 774.63 464.521 774.174 464.795C773.725 465.062 773.259 465.195 772.777 465.195C771.853 465.195 771.153 464.818 770.678 464.062C770.202 463.307 770.027 462.262 770.15 460.928C770.248 459.854 770.492 458.896 770.883 458.057C771.28 457.21 771.788 456.546 772.406 456.064C773.031 455.583 773.686 455.342 774.369 455.342C774.896 455.342 775.368 455.413 775.785 455.557C776.202 455.693 776.671 455.967 777.191 456.377L776.684 461.787C776.56 463.291 776.977 464.043 777.934 464.043C778.669 464.043 779.265 463.678 779.721 462.949C780.176 462.22 780.424 461.27 780.463 460.098C780.587 457.565 780.115 455.635 779.047 454.307C777.986 452.979 776.368 452.314 774.193 452.314C772.885 452.314 771.723 452.64 770.707 453.291C769.691 453.936 768.891 454.87 768.305 456.094C767.719 457.318 767.39 458.73 767.318 460.332C767.24 461.947 767.436 463.35 767.904 464.541C768.373 465.726 769.086 466.631 770.043 467.256C771.007 467.887 772.169 468.203 773.529 468.203C774.115 468.203 774.701 468.132 775.287 467.988C775.88 467.845 776.371 467.66 776.762 467.432L777.123 468.555C776.719 468.809 776.182 469.017 775.512 469.18C774.848 469.342 774.174 469.424 773.49 469.424C771.863 469.424 770.463 469.056 769.291 468.32C768.119 467.591 767.24 466.536 766.654 465.156C766.075 463.783 765.824 462.174 765.902 460.332C765.98 458.542 766.381 456.934 767.104 455.508C767.826 454.076 768.806 452.972 770.043 452.197C771.28 451.416 772.676 451.025 774.232 451.025C775.854 451.025 777.243 451.39 778.402 452.119C779.561 452.848 780.424 453.9 780.99 455.273C781.557 456.647 781.801 458.255 781.723 460.098ZM771.703 460.928C771.612 461.852 771.697 462.562 771.957 463.057C772.224 463.551 772.644 463.799 773.217 463.799C773.607 463.799 773.982 463.633 774.34 463.301C774.704 462.969 775.004 462.493 775.238 461.875L775.248 461.787L775.697 456.875C775.333 456.686 774.942 456.592 774.525 456.592C773.764 456.592 773.132 456.979 772.631 457.754C772.136 458.529 771.827 459.587 771.703 460.928ZM783.656 459.629C783.656 457.982 784.037 456.673 784.799 455.703C785.561 454.727 786.57 454.238 787.826 454.238C789.115 454.238 790.121 454.694 790.844 455.605L790.932 454.434H792.582V464.746C792.582 466.113 792.175 467.191 791.361 467.979C790.554 468.766 789.467 469.16 788.1 469.16C787.338 469.16 786.592 468.997 785.863 468.672C785.134 468.346 784.577 467.9 784.193 467.334L785.131 466.25C785.906 467.207 786.853 467.686 787.973 467.686C788.852 467.686 789.535 467.438 790.023 466.943C790.518 466.449 790.766 465.752 790.766 464.854V463.945C790.043 464.779 789.057 465.195 787.807 465.195C786.57 465.195 785.567 464.697 784.799 463.701C784.037 462.705 783.656 461.348 783.656 459.629ZM785.473 459.834C785.473 461.025 785.717 461.963 786.205 462.646C786.693 463.324 787.377 463.662 788.256 463.662C789.395 463.662 790.232 463.145 790.766 462.109V457.285C790.212 456.276 789.382 455.771 788.275 455.771C787.396 455.771 786.71 456.113 786.215 456.797C785.72 457.48 785.473 458.493 785.473 459.834ZM797.016 454.434L797.064 455.605C797.839 454.694 798.884 454.238 800.199 454.238C801.677 454.238 802.683 454.805 803.217 455.938C803.568 455.43 804.024 455.02 804.584 454.707C805.15 454.395 805.818 454.238 806.586 454.238C808.904 454.238 810.082 455.465 810.121 457.92V465H808.314V458.027C808.314 457.272 808.142 456.709 807.797 456.338C807.452 455.96 806.872 455.771 806.059 455.771C805.388 455.771 804.831 455.973 804.389 456.377C803.946 456.774 803.689 457.311 803.617 457.988V465H801.801V458.076C801.801 456.54 801.049 455.771 799.545 455.771C798.36 455.771 797.549 456.276 797.113 457.285V465H795.307V454.434H797.016ZM819.379 465C819.275 464.792 819.19 464.421 819.125 463.887C818.285 464.759 817.283 465.195 816.117 465.195C815.076 465.195 814.219 464.902 813.549 464.316C812.885 463.724 812.553 462.975 812.553 462.07C812.553 460.97 812.969 460.117 813.803 459.512C814.643 458.9 815.821 458.594 817.338 458.594H819.096V457.764C819.096 457.132 818.907 456.631 818.529 456.26C818.152 455.882 817.595 455.693 816.859 455.693C816.215 455.693 815.674 455.856 815.238 456.182C814.802 456.507 814.584 456.901 814.584 457.363H812.768C812.768 456.836 812.953 456.328 813.324 455.84C813.702 455.345 814.21 454.954 814.848 454.668C815.492 454.382 816.199 454.238 816.967 454.238C818.184 454.238 819.138 454.544 819.828 455.156C820.518 455.762 820.876 456.598 820.902 457.666V462.529C820.902 463.499 821.026 464.271 821.273 464.844V465H819.379ZM816.381 463.623C816.947 463.623 817.484 463.477 817.992 463.184C818.5 462.891 818.868 462.51 819.096 462.041V459.873H817.68C815.466 459.873 814.359 460.521 814.359 461.816C814.359 462.383 814.548 462.826 814.926 463.145C815.303 463.464 815.788 463.623 816.381 463.623ZM825.697 465H823.891V454.434H825.697V465ZM823.744 451.631C823.744 451.338 823.832 451.09 824.008 450.889C824.19 450.687 824.457 450.586 824.809 450.586C825.16 450.586 825.427 450.687 825.609 450.889C825.792 451.09 825.883 451.338 825.883 451.631C825.883 451.924 825.792 452.168 825.609 452.363C825.427 452.559 825.16 452.656 824.809 452.656C824.457 452.656 824.19 452.559 824.008 452.363C823.832 452.168 823.744 451.924 823.744 451.631ZM830.561 465H828.754V450H830.561V465ZM833.5 464.053C833.5 463.74 833.591 463.48 833.773 463.271C833.962 463.063 834.242 462.959 834.613 462.959C834.984 462.959 835.264 463.063 835.453 463.271C835.648 463.48 835.746 463.74 835.746 464.053C835.746 464.352 835.648 464.603 835.453 464.805C835.264 465.007 834.984 465.107 834.613 465.107C834.242 465.107 833.962 465.007 833.773 464.805C833.591 464.603 833.5 464.352 833.5 464.053ZM842.973 463.721C843.617 463.721 844.18 463.525 844.662 463.135C845.144 462.744 845.411 462.256 845.463 461.67H847.172C847.139 462.275 846.931 462.852 846.547 463.398C846.163 463.945 845.648 464.382 845.004 464.707C844.366 465.033 843.689 465.195 842.973 465.195C841.534 465.195 840.388 464.717 839.535 463.76C838.689 462.796 838.266 461.481 838.266 459.814V459.512C838.266 458.483 838.454 457.568 838.832 456.768C839.21 455.967 839.75 455.345 840.453 454.902C841.163 454.46 841.999 454.238 842.963 454.238C844.148 454.238 845.131 454.593 845.912 455.303C846.7 456.012 847.12 456.934 847.172 458.066H845.463C845.411 457.383 845.15 456.823 844.682 456.387C844.219 455.944 843.646 455.723 842.963 455.723C842.045 455.723 841.332 456.055 840.824 456.719C840.323 457.376 840.072 458.33 840.072 459.58V459.922C840.072 461.139 840.323 462.077 840.824 462.734C841.326 463.392 842.042 463.721 842.973 463.721ZM848.725 459.619C848.725 458.584 848.926 457.653 849.33 456.826C849.74 455.999 850.307 455.361 851.029 454.912C851.758 454.463 852.589 454.238 853.52 454.238C854.958 454.238 856.12 454.736 857.006 455.732C857.898 456.729 858.344 458.053 858.344 459.707V459.834C858.344 460.863 858.145 461.787 857.748 462.607C857.357 463.421 856.794 464.056 856.059 464.512C855.329 464.967 854.49 465.195 853.539 465.195C852.107 465.195 850.945 464.697 850.053 463.701C849.167 462.705 848.725 461.387 848.725 459.746V459.619ZM850.541 459.834C850.541 461.006 850.811 461.947 851.352 462.656C851.898 463.366 852.628 463.721 853.539 463.721C854.457 463.721 855.186 463.363 855.727 462.646C856.267 461.924 856.537 460.915 856.537 459.619C856.537 458.46 856.26 457.523 855.707 456.807C855.16 456.084 854.431 455.723 853.52 455.723C852.628 455.723 851.908 456.077 851.361 456.787C850.814 457.497 850.541 458.512 850.541 459.834ZM862.309 454.434L862.357 455.605C863.132 454.694 864.177 454.238 865.492 454.238C866.97 454.238 867.976 454.805 868.51 455.938C868.861 455.43 869.317 455.02 869.877 454.707C870.443 454.395 871.111 454.238 871.879 454.238C874.197 454.238 875.375 455.465 875.414 457.92V465H873.607V458.027C873.607 457.272 873.435 456.709 873.09 456.338C872.745 455.96 872.165 455.771 871.352 455.771C870.681 455.771 870.124 455.973 869.682 456.377C869.239 456.774 868.982 457.311 868.91 457.988V465H867.094V458.076C867.094 456.54 866.342 455.771 864.838 455.771C863.653 455.771 862.842 456.276 862.406 457.285V465H860.6V454.434H862.309Z" fill="white"/>
<rect x="640" y="125" width="291" height="4" fill="#BABABA"/>
<rect x="640" y="125" width="97" height="4" fill="#E65D32"/>
<path d="M681.64 318.459L677.667 314.409V303.75C677.667 303.418 677.553 303.101 677.349 302.866C677.146 302.632 676.871 302.5 676.583 302.5H672.25C671.963 302.5 671.687 302.632 671.484 302.866C671.281 303.101 671.167 303.418 671.167 303.75V307.787L664.313 300.805C663.888 300.36 663.078 300 662.5 300C661.922 300 661.115 300.36 660.689 300.805L643.356 318.461C643.143 318.71 643.016 319.041 643 319.391C643.014 319.696 643.111 319.989 643.277 320.227L644.727 322.086C644.952 322.32 645.237 322.465 645.539 322.5C645.801 322.47 646.051 322.359 646.263 322.179L647.339 321.085V337.5C647.339 338.163 647.568 338.799 647.974 339.268C648.38 339.737 648.931 340 649.506 340H675.5C676.075 340 676.626 339.737 677.032 339.268C677.438 338.799 677.667 338.163 677.667 337.5V321.084L678.744 322.178C678.957 322.358 679.207 322.469 679.47 322.5C679.769 322.464 680.051 322.319 680.273 322.085L681.723 320.225C681.879 319.98 681.974 319.692 682 319.39C681.969 319.043 681.843 318.717 681.64 318.459ZM662.5 313.75C663.357 313.75 664.195 314.043 664.907 314.593C665.62 315.142 666.175 315.923 666.503 316.837C666.831 317.75 666.917 318.756 666.75 319.725C666.583 320.695 666.17 321.586 665.564 322.286C664.958 322.985 664.186 323.461 663.345 323.654C662.505 323.847 661.634 323.748 660.842 323.369C660.05 322.991 659.373 322.35 658.897 321.528C658.421 320.706 658.167 319.739 658.167 318.75C658.167 317.424 658.623 316.152 659.436 315.214C660.249 314.277 661.351 313.75 662.5 313.75ZM670.083 335H654.917C654.629 335 654.354 334.868 654.151 334.634C653.947 334.399 653.833 334.082 653.833 333.75C653.833 331.761 654.518 329.853 655.737 328.447C656.956 327.04 658.609 326.25 660.333 326.25H664.667C666.391 326.25 668.044 327.04 669.263 328.447C670.482 329.853 671.167 331.761 671.167 333.75C671.167 334.082 671.053 334.399 670.849 334.634C670.646 334.868 670.371 335 670.083 335Z" fill="white"/>
<path d="M670.763 395.306L671.202 394.844C672.388 393.7 672.938 393.898 674.058 395.02L680.099 401.003C681.901 402.785 682.757 403.115 681.154 404.809L680.714 405.271L670.763 395.306ZM669.774 396.472L679.44 406.151C677.375 407.691 671.817 411.299 667.709 409.517C664.041 407.911 663.865 407.119 661.119 405.117C656.484 401.047 651.519 395.922 647.784 391.918C645.785 389.146 644.863 389.036 643.391 385.318C641.831 381.359 645.346 375.639 646.818 373.483L656.484 383.162L652.925 385.758C651.914 386.506 653.057 388.398 654.375 389.718C656.681 392.006 661.361 396.714 663.316 398.518C664.612 399.815 666.501 400.981 667.27 399.969L669.774 396.472ZM647.696 372.229L648.158 371.767C649.783 370.271 650.135 371.129 651.892 372.911L657.868 378.939C658.944 380.061 659.186 380.589 658.109 381.733L657.648 382.173L647.696 372.229Z" fill="white"/>
<path d="M640 441V447.509L663 460.71L686 447.509V441H640ZM640 451.672V470.757L651.716 458.395L640 451.672ZM686 451.672L674.284 458.395L686 470.757V451.672ZM654.934 460.244L640 476H686L671.066 460.244L663 464.873L654.934 460.244Z" fill="white"/>
<path d="M640 529.736V529.67C640.603 521.959 643.414 516.175 648.301 512.519C653.121 508.796 658.343 507.002 664.033 507.002C669.992 506.935 675.548 508.929 680.502 512.918C685.523 516.84 688 522.69 688 530.268V530.733C688 538.378 685.523 544.095 680.502 548.017C675.481 552.006 669.925 554 663.967 554H663.699C657.874 553.934 652.519 551.939 647.565 547.951C642.611 544.029 640.067 537.979 640 529.736ZM662.561 519.3V508.796H660.954C660.619 509.195 660.351 509.661 660.084 510.059C659.816 510.458 659.548 510.857 659.28 511.323C659.013 511.721 658.678 512.253 658.477 512.652C658.209 513.051 658.008 513.45 657.808 513.915C657.406 514.58 657.071 515.245 656.803 515.843C656.469 516.441 656.201 517.039 656 517.571C656.402 517.837 656.87 518.17 657.406 518.369C658.008 518.568 658.611 518.768 659.213 518.901C659.883 519.034 660.485 519.1 661.021 519.167C661.623 519.233 662.159 519.3 662.561 519.3ZM665.372 508.796V519.233C665.707 519.233 666.109 519.3 666.51 519.233C666.912 519.233 667.381 519.167 667.782 519.1C668.519 518.967 669.389 518.768 670.059 518.568C670.795 518.302 671.464 517.97 671.933 517.571C671.13 515.643 670.259 514.115 669.389 512.652C668.519 511.19 667.515 509.927 666.444 508.863V508.796H665.372ZM658.142 509.395V509.328C657.674 509.528 657.205 509.86 656.669 510.059C656.201 510.259 655.598 510.525 655.13 510.791C654.192 511.256 653.255 511.788 652.318 512.386C651.448 512.984 650.577 513.649 649.841 514.314C650.109 514.58 650.444 514.846 650.711 515.045C650.979 515.245 651.314 515.511 651.649 515.776C651.916 515.909 652.251 516.109 652.586 516.375C652.921 516.574 653.322 516.84 653.724 517.106C654.259 515.909 654.795 514.646 655.464 513.516C656.134 512.32 656.87 511.19 657.607 510.192C657.674 510.059 657.741 509.927 657.874 509.794C657.941 509.727 658.008 509.528 658.142 509.395ZM678.628 514.314V514.247C676.954 512.984 675.481 511.921 674.008 511.256C672.536 510.591 671.063 509.927 669.724 509.395C670.795 510.458 671.732 511.788 672.335 513.051C673.004 514.38 673.674 515.776 674.209 517.106C674.477 516.973 674.812 516.84 675.213 516.574C675.548 516.375 676.017 516.175 676.418 515.976C676.82 515.71 677.155 515.444 677.556 515.178C677.958 514.846 678.36 514.58 678.628 514.314ZM677.49 529.138H685.188C685.188 526.678 684.653 524.352 683.649 521.959C682.711 519.632 681.372 517.704 679.699 516.042V515.976C679.364 516.508 678.895 516.973 678.427 517.305C677.891 517.638 677.423 517.904 676.887 518.17C676.552 518.369 676.218 518.635 675.883 518.768C675.548 518.967 675.079 519.1 674.745 519.3C675.013 519.831 675.28 520.43 675.548 520.962C675.749 521.56 676.084 522.225 676.218 522.823C676.619 523.886 676.887 525.017 677.155 526.147C677.356 527.144 677.49 528.207 677.49 529.138ZM653.255 519.3V519.233C652.72 518.967 652.117 518.768 651.649 518.502C651.18 518.17 650.711 517.837 650.31 517.571C649.908 517.372 649.506 517.106 649.172 516.84C648.837 516.574 648.569 516.308 648.301 516.042C646.561 517.704 645.289 519.566 644.485 521.759C643.615 523.953 643.013 526.413 642.745 529.072H650.979C650.979 527.21 651.247 525.415 651.715 523.621C652.117 521.759 652.72 520.363 653.255 519.3ZM662.561 529.072V521.427C662.025 521.493 661.356 521.493 660.753 521.427C660.084 521.36 659.414 521.161 658.812 520.962C658.276 520.829 657.607 520.696 657.071 520.496C656.469 520.363 655.866 520.097 655.397 519.831C654.996 520.496 654.661 521.294 654.393 522.158C654.059 522.956 653.858 523.82 653.657 524.618C653.523 525.415 653.456 526.28 653.389 527.011C653.322 527.742 653.255 528.473 653.255 529.072H662.561ZM665.372 521.56V529.072H675.28C675.28 528.673 675.28 528.207 675.213 527.676C675.079 527.21 675.013 526.612 674.946 526.08C674.745 525.282 674.544 524.418 674.276 523.621C674.008 522.889 673.741 522.158 673.406 521.56C673.272 521.227 673.138 520.829 673.004 520.563C672.803 520.23 672.603 520.031 672.469 519.831C671.732 520.363 670.728 520.696 669.523 520.962C668.385 521.227 667.046 521.493 665.841 521.56H665.372ZM650.979 531.265H642.745C642.745 532.395 642.946 533.658 643.28 535.187C643.615 536.783 644.285 538.245 645.021 539.841C645.356 540.638 645.757 541.436 646.159 542.234C646.628 542.965 647.163 543.763 647.699 544.494C648.1 544.228 648.502 544.029 648.837 543.829C649.238 543.63 649.707 543.364 650.109 543.164C650.577 542.965 651.046 542.766 651.582 542.5C652.05 542.3 652.653 542.034 653.255 541.768C652.72 540.107 652.117 538.511 651.715 536.716C651.247 534.988 650.979 533.26 650.979 531.332V531.265ZM662.561 539.043V531.265H653.255C653.255 531.797 653.322 532.595 653.456 533.393C653.523 534.19 653.724 535.054 653.858 535.919C654.126 536.849 654.326 537.78 654.594 538.578C654.862 539.375 655.13 540.04 655.397 540.638C656.603 540.173 657.808 539.841 658.611 539.641C659.481 539.375 660.285 539.176 661.088 539.109H661.824C662.092 539.043 662.36 539.043 662.561 539.043ZM665.372 531.265V538.976C665.841 539.043 666.377 539.109 666.912 539.176C667.515 539.242 668.251 539.375 668.854 539.508L669.858 539.708C670.192 539.841 670.594 539.907 670.929 539.974C671.331 540.107 671.732 540.173 672.134 540.306C672.469 540.439 672.803 540.505 673.071 540.638C673.941 538.445 674.477 536.65 674.812 535.121C675.146 533.658 675.28 532.395 675.28 531.332V531.265H665.372ZM685.188 531.332V531.265H677.49V531.664C677.423 532.927 677.222 534.39 676.954 535.919C676.686 537.381 676.084 539.109 675.28 541.237C676.351 541.768 677.356 542.3 678.159 542.832C678.962 543.364 679.699 543.962 680.234 544.494C681.372 543.364 682.377 541.835 683.247 539.841C684.117 537.913 684.72 535.919 685.054 533.791C685.121 533.393 685.121 532.994 685.188 532.595V531.332ZM662.561 551.54V541.17C660.887 541.436 659.481 541.768 658.41 542.034C657.339 542.3 656.536 542.566 656 542.832C656.402 543.829 656.803 544.693 657.205 545.491C657.607 546.222 658.075 547.02 658.477 547.685C658.611 547.951 658.879 548.217 659.079 548.549C659.28 548.815 659.414 549.147 659.615 549.413C659.816 549.746 660.017 550.144 660.218 550.543C660.485 550.876 660.686 551.274 660.954 551.54H662.561ZM665.372 551.54H666.912C667.515 551.075 668.117 550.41 668.586 549.679C669.121 548.948 669.724 548.084 670.126 547.352C670.594 546.488 671.063 545.691 671.464 544.893C671.866 544.095 672.201 543.364 672.469 542.832C671.732 542.566 670.728 542.3 669.724 542.034C668.72 541.768 667.314 541.503 665.372 541.237V551.54ZM678.628 546.089V546.023C678.494 545.823 678.226 545.558 678.025 545.358C677.824 545.159 677.49 544.893 677.155 544.693C676.887 544.494 676.552 544.295 676.151 544.095C675.749 543.896 675.213 543.63 674.745 543.364C674.477 543.896 674.008 544.826 673.339 546.089C672.736 547.352 671.665 548.881 670.326 550.543C672 550.277 673.473 549.679 674.812 548.881C676.285 548.15 677.556 547.153 678.628 546.089ZM653.724 543.962V543.896C653.255 544.162 652.519 544.494 651.782 544.826C650.979 545.159 650.109 545.558 649.305 546.089C649.774 546.488 650.243 546.887 650.644 547.153C651.046 547.485 651.515 547.751 651.916 548.017C652.653 548.483 653.523 548.948 654.393 549.347C655.264 549.746 656.335 550.144 657.674 550.543C657.205 550.011 656.87 549.347 656.536 548.815C656.201 548.283 655.799 547.751 655.464 547.219C655.13 546.688 654.862 546.089 654.594 545.558C654.259 545.026 653.992 544.494 653.724 543.962Z" fill="white"/>
</g>
<defs>
<filter id="filter0_d" x="284" y="0" width="319" height="329.5" filterUnits="userSpaceOnUse" color-interpolation-filters="sRGB">
<feFlood flood-opacity="0" result="BackgroundImageFix"/>
<feColorMatrix in="SourceAlpha" type="matrix" values="0 0 0 0 0 0 0 0 0 0 0 0 0 0 0 0 0 0 127 0"/>
<feOffset dx="-4" dy="4"/>
<feGaussianBlur stdDeviation="2"/>
<feColorMatrix type="matrix" values="0 0 0 0 0 0 0 0 0 0 0 0 0 0 0 0 0 0 0.25 0"/>
<feBlend mode="normal" in2="BackgroundImageFix" result="effect1_dropShadow"/>
<feBlend mode="normal" in="SourceGraphic" in2="effect1_dropShadow" result="shape"/>
</filter>
<filter id="filter1_d" x="93" y="221" width="514" height="387" filterUnits="userSpaceOnUse" color-interpolation-filters="sRGB">
<feFlood flood-opacity="0" result="BackgroundImageFix"/>
<feColorMatrix in="SourceAlpha" type="matrix" values="0 0 0 0 0 0 0 0 0 0 0 0 0 0 0 0 0 0 127 0"/>
<feOffset dy="4"/>
<feGaussianBlur stdDeviation="2"/>
<feColorMatrix type="matrix" values="0 0 0 0 0 0 0 0 0 0 0 0 0 0 0 0 0 0 0.25 0"/>
<feBlend mode="normal" in2="BackgroundImageFix" result="effect1_dropShadow"/>
<feBlend mode="normal" in="SourceGraphic" in2="effect1_dropShadow" result="shape"/>
</filter>
<filter id="filter2_d" x="242" y="221" width="361" height="387" filterUnits="userSpaceOnUse" color-interpolation-filters="sRGB">
<feFlood flood-opacity="0" result="BackgroundImageFix"/>
<feColorMatrix in="SourceAlpha" type="matrix" values="0 0 0 0 0 0 0 0 0 0 0 0 0 0 0 0 0 0 127 0"/>
<feOffset dx="-8" dy="4"/>
<feGaussianBlur stdDeviation="2"/>
<feColorMatrix type="matrix" values="0 0 0 0 0 0 0 0 0 0 0 0 0 0 0 0 0 0 0.25 0"/>
<feBlend mode="normal" in2="BackgroundImageFix" result="effect1_dropShadow"/>
<feBlend mode="normal" in="SourceGraphic" in2="effect1_dropShadow" result="shape"/>
</filter>
<linearGradient id="paint0_linear" x1="403.5" y1="0" x2="403.5" y2="405" gradientUnits="userSpaceOnUse">
<stop stop-color="#DE7147"/>
<stop offset="1" stop-color="#F3983E"/>
</linearGradient>
<linearGradient id="paint1_linear" x1="447.5" y1="0" x2="447.5" y2="273" gradientUnits="userSpaceOnUse">
<stop stop-color="#FDC908"/>
<stop offset="1" stop-color="#E0433D"/>
</linearGradient>
<linearGradient id="paint2_linear" x1="350" y1="221" x2="350" y2="600" gradientUnits="userSpaceOnUse">
<stop stop-color="#E1AE1D"/>
<stop offset="1" stop-color="#F6C707"/>
</linearGradient>
<linearGradient id="paint3_linear" x1="428.5" y1="221" x2="428.5" y2="600" gradientUnits="userSpaceOnUse">
<stop stop-color="#FBCA0E"/>
<stop offset="1" stop-color="#F39F39"/>
</linearGradient>
<clipPath id="clip0">
<rect width="1050" height="600" fill="white"/>
</clipPath>
</defs>
</svg>
