<svg width="1050" height="600" viewBox="0 0 1050 600" fill="none" xmlns="http://www.w3.org/2000/svg">
<rect width="1050" height="600" fill="#333134"/>
<path fill-rule="evenodd" clip-rule="evenodd" d="M588.299 160.656C588.933 161.048 589.457 161.596 589.82 162.247C590.183 162.899 590.374 163.632 590.374 164.378V295.752C590.374 296.914 589.913 298.028 589.092 298.849C588.27 299.67 587.157 300.132 585.995 300.132H559.72C558.559 300.132 557.445 299.67 556.624 298.849C555.803 298.028 555.341 296.914 555.341 295.752V282.615H546.583V295.752C546.583 296.914 546.121 298.028 545.3 298.849C544.479 299.67 543.365 300.132 542.204 300.132H463.379C462.218 300.132 461.104 299.67 460.283 298.849C459.461 298.028 459 296.914 459 295.752V247.582C459.001 246.663 459.29 245.768 459.828 245.023C460.365 244.278 461.124 243.721 461.995 243.43L511.55 226.912V199.411C511.55 198.599 511.776 197.802 512.203 197.111C512.63 196.419 513.241 195.86 513.967 195.496L584.033 160.463C584.702 160.129 585.444 159.971 586.191 160.004C586.938 160.038 587.663 160.262 588.299 160.656ZM511.55 236.144L467.758 250.735V291.373H511.55V236.144ZM520.308 291.373H537.825V278.236C537.825 277.074 538.286 275.961 539.107 275.139C539.928 274.318 541.042 273.857 542.204 273.857H559.72C560.882 273.857 561.996 274.318 562.817 275.139C563.638 275.961 564.099 277.074 564.099 278.236V291.373H581.616V171.464L520.308 202.118V291.373Z" fill="white"/>
<path d="M476.517 256.342H485.275V265.1H476.517V256.342ZM494.033 256.342H502.791V265.1H494.033V256.342ZM476.517 273.858H485.275V282.617H476.517V273.858ZM494.033 273.858H502.791V282.617H494.033V273.858ZM529.066 238.825H537.825V247.583H529.066V238.825ZM546.583 238.825H555.341V247.583H546.583V238.825ZM529.066 256.342H537.825V265.1H529.066V256.342ZM546.583 256.342H555.341V265.1H546.583V256.342ZM564.099 238.825H572.858V247.583H564.099V238.825ZM564.099 256.342H572.858V265.1H564.099V256.342ZM529.066 221.309H537.825V230.067H529.066V221.309ZM546.583 221.309H555.341V230.067H546.583V221.309ZM564.099 221.309H572.858V230.067H564.099V221.309ZM529.066 203.792H537.825V212.55H529.066V203.792ZM546.583 203.792H555.341V212.55H546.583V203.792ZM564.099 203.792H572.858V212.55H564.099V203.792ZM564.099 186.275H572.858V195.034H564.099V186.275Z" fill="white"/>
<path d="M311 300H738" stroke="white" stroke-width="7"/>
<path d="M343.984 330.906C343.724 333.302 342.865 335.135 341.406 336.406C339.958 337.677 338.026 338.312 335.609 338.312C333.922 338.312 332.427 337.891 331.125 337.047C329.833 336.203 328.833 335.01 328.125 333.469C327.417 331.917 327.057 330.146 327.047 328.156V325.203C327.047 323.182 327.401 321.391 328.109 319.828C328.818 318.266 329.833 317.062 331.156 316.219C332.49 315.365 334.021 314.938 335.75 314.938C338.188 314.938 340.109 315.599 341.516 316.922C342.932 318.234 343.755 320.052 343.984 322.375H342.047C341.568 318.51 339.469 316.578 335.75 316.578C333.688 316.578 332.042 317.349 330.812 318.891C329.594 320.432 328.984 322.562 328.984 325.281V328.062C328.984 330.688 329.578 332.781 330.766 334.344C331.964 335.906 333.578 336.688 335.609 336.688C337.62 336.688 339.135 336.208 340.156 335.25C341.177 334.281 341.807 332.833 342.047 330.906H343.984ZM365.469 327.859C365.469 329.953 365.104 331.792 364.375 333.375C363.656 334.958 362.625 336.177 361.281 337.031C359.938 337.885 358.385 338.312 356.625 338.312C353.969 338.312 351.823 337.365 350.188 335.469C348.552 333.562 347.734 330.995 347.734 327.766V325.422C347.734 323.349 348.099 321.516 348.828 319.922C349.568 318.318 350.609 317.089 351.953 316.234C353.297 315.37 354.844 314.938 356.594 314.938C358.344 314.938 359.885 315.359 361.219 316.203C362.562 317.047 363.599 318.24 364.328 319.781C365.057 321.323 365.438 323.109 365.469 325.141V327.859ZM363.547 325.391C363.547 322.651 362.927 320.505 361.688 318.953C360.448 317.401 358.75 316.625 356.594 316.625C354.479 316.625 352.792 317.406 351.531 318.969C350.281 320.521 349.656 322.693 349.656 325.484V327.859C349.656 330.557 350.281 332.698 351.531 334.281C352.781 335.854 354.479 336.641 356.625 336.641C358.802 336.641 360.5 335.865 361.719 334.312C362.938 332.75 363.547 330.578 363.547 327.797V325.391ZM372.859 315.25L381.25 335.328L389.672 315.25H392.234V338H390.312V328.094L390.469 317.938L382 338H380.516L372.078 318.016L372.234 328.031V338H370.312V315.25H372.859ZM399.922 328.734V338H398V315.25H405.75C408.115 315.25 409.979 315.854 411.344 317.062C412.719 318.271 413.406 319.932 413.406 322.047C413.406 324.182 412.745 325.833 411.422 327C410.109 328.156 408.203 328.734 405.703 328.734H399.922ZM399.922 327.109H405.75C407.615 327.109 409.036 326.667 410.016 325.781C410.995 324.896 411.484 323.661 411.484 322.078C411.484 320.505 410.995 319.255 410.016 318.328C409.047 317.391 407.667 316.911 405.875 316.891H399.922V327.109ZM427.844 331.625H417.516L415.172 338H413.156L421.766 315.25H423.594L432.203 338H430.203L427.844 331.625ZM418.109 329.984H427.234L422.672 317.594L418.109 329.984ZM452.5 338H450.578L437.5 318.531V338H435.562V315.25H437.5L450.594 334.734V315.25H452.5V338ZM464.516 327.656L471.469 315.25H473.688L465.469 329.438V338H463.547V329.438L455.344 315.25H457.625L464.516 327.656Z" fill="white"/>
<path d="M503.812 338H501.891L488.812 318.531V338H486.875V315.25H488.812L501.906 334.734V315.25H503.812V338ZM522.156 331.625H511.828L509.484 338H507.469L516.078 315.25H517.906L526.516 338H524.516L522.156 331.625ZM512.422 329.984H521.547L516.984 317.594L512.422 329.984ZM532.422 315.25L540.812 335.328L549.234 315.25H551.797V338H549.875V328.094L550.031 317.938L541.562 338H540.078L531.641 318.016L531.797 328.031V338H529.875V315.25H532.422ZM570.125 327.094H559.484V336.375H571.719V338H557.562V315.25H571.641V316.891H559.484V325.469H570.125V327.094Z" fill="white"/>
<path d="M594.172 315.25H597.188V331.359C597.188 333.536 596.531 335.24 595.219 336.469C593.917 337.698 592.177 338.312 590 338.312C587.74 338.312 585.979 337.734 584.719 336.578C583.458 335.422 582.828 333.802 582.828 331.719H585.828C585.828 333.021 586.182 334.036 586.891 334.766C587.609 335.495 588.646 335.859 590 335.859C591.24 335.859 592.24 335.469 593 334.688C593.771 333.906 594.161 332.812 594.172 331.406V315.25ZM619.797 327.359C619.797 329.589 619.422 331.536 618.672 333.203C617.922 334.859 616.859 336.125 615.484 337C614.109 337.875 612.505 338.312 610.672 338.312C608.88 338.312 607.292 337.875 605.906 337C604.521 336.115 603.443 334.859 602.672 333.234C601.911 331.599 601.521 329.708 601.5 327.562V325.922C601.5 323.734 601.88 321.802 602.641 320.125C603.401 318.448 604.474 317.167 605.859 316.281C607.255 315.385 608.849 314.938 610.641 314.938C612.464 314.938 614.068 315.38 615.453 316.266C616.849 317.141 617.922 318.417 618.672 320.094C619.422 321.76 619.797 323.703 619.797 325.922V327.359ZM616.812 325.891C616.812 323.193 616.271 321.125 615.188 319.688C614.104 318.24 612.589 317.516 610.641 317.516C608.745 317.516 607.25 318.24 606.156 319.688C605.073 321.125 604.516 323.125 604.484 325.688V327.359C604.484 329.974 605.031 332.031 606.125 333.531C607.229 335.021 608.745 335.766 610.672 335.766C612.609 335.766 614.109 335.062 615.172 333.656C616.234 332.24 616.781 330.214 616.812 327.578V325.891ZM640.312 315.25V330.719C640.302 332.865 639.625 334.62 638.281 335.984C636.948 337.349 635.135 338.115 632.844 338.281L632.047 338.312C629.557 338.312 627.573 337.641 626.094 336.297C624.615 334.953 623.865 333.104 623.844 330.75V315.25H626.812V330.656C626.812 332.302 627.266 333.583 628.172 334.5C629.078 335.406 630.37 335.859 632.047 335.859C633.745 335.859 635.042 335.406 635.938 334.5C636.844 333.594 637.297 332.318 637.297 330.672V315.25H640.312ZM653.391 328.797H648.047V338H645.031V315.25H652.562C655.125 315.25 657.094 315.833 658.469 317C659.854 318.167 660.547 319.865 660.547 322.094C660.547 323.51 660.161 324.745 659.391 325.797C658.63 326.849 657.568 327.635 656.203 328.156L661.547 337.812V338H658.328L653.391 328.797ZM648.047 326.344H652.656C654.146 326.344 655.328 325.958 656.203 325.188C657.089 324.417 657.531 323.385 657.531 322.094C657.531 320.688 657.109 319.609 656.266 318.859C655.432 318.109 654.224 317.729 652.641 317.719H648.047V326.344ZM682.25 338H679.234L667.781 320.469V338H664.766V315.25H667.781L679.266 332.859V315.25H682.25V338ZM700.422 332.062H690.891L688.75 338H685.656L694.344 315.25H696.969L705.672 338H702.594L700.422 332.062ZM691.797 329.594H699.531L695.656 318.953L691.797 329.594ZM711.75 335.547H722.531V338H708.734V315.25H711.75V335.547Z" fill="white"/>
<path d="M429.176 360.194H424.425V367H423.033V350.648H428.345C430.089 350.648 431.452 351.071 432.433 351.917C433.413 352.764 433.904 353.946 433.904 355.466C433.904 356.514 433.597 357.439 432.983 358.24C432.369 359.041 431.545 359.595 430.512 359.902L434.6 366.854V367H433.129L429.176 360.194ZM424.425 359.015H428.659C429.82 359.015 430.752 358.686 431.456 358.027C432.159 357.368 432.511 356.514 432.511 355.466C432.511 354.313 432.144 353.419 431.411 352.782C430.677 352.146 429.647 351.828 428.322 351.828H424.425V359.015ZM442.057 367.225C441.024 367.225 440.088 366.97 439.25 366.461C438.418 365.952 437.771 365.244 437.307 364.338C436.842 363.425 436.61 362.403 436.61 361.272V360.79C436.61 359.622 436.835 358.57 437.284 357.634C437.741 356.698 438.374 355.964 439.182 355.433C439.991 354.894 440.867 354.624 441.81 354.624C443.285 354.624 444.453 355.129 445.314 356.14C446.182 357.143 446.617 358.517 446.617 360.262V361.014H437.947V361.272C437.947 362.65 438.34 363.799 439.126 364.72C439.92 365.634 440.915 366.09 442.113 366.09C442.832 366.09 443.465 365.959 444.011 365.697C444.565 365.435 445.067 365.016 445.516 364.439L446.358 365.08C445.37 366.51 443.936 367.225 442.057 367.225ZM441.81 355.77C440.799 355.77 439.946 356.14 439.25 356.881C438.561 357.623 438.141 358.618 437.992 359.869H445.28V359.723C445.243 358.555 444.91 357.604 444.281 356.87C443.652 356.136 442.828 355.77 441.81 355.77ZM456.904 367C456.769 366.618 456.683 366.053 456.646 365.304C456.174 365.918 455.571 366.394 454.837 366.73C454.111 367.06 453.34 367.225 452.524 367.225C451.356 367.225 450.409 366.899 449.683 366.248C448.964 365.596 448.604 364.773 448.604 363.777C448.604 362.594 449.095 361.658 450.076 360.969C451.064 360.28 452.438 359.936 454.197 359.936H456.634V358.555C456.634 357.686 456.365 357.005 455.826 356.511C455.294 356.009 454.515 355.758 453.49 355.758C452.554 355.758 451.779 355.998 451.165 356.477C450.551 356.956 450.244 357.533 450.244 358.207L448.896 358.195C448.896 357.229 449.346 356.395 450.244 355.691C451.143 354.98 452.247 354.624 453.557 354.624C454.912 354.624 455.979 354.965 456.758 355.646C457.544 356.32 457.948 357.263 457.971 358.476V364.226C457.971 365.402 458.094 366.281 458.341 366.865V367H456.904ZM452.681 366.034C453.58 366.034 454.381 365.817 455.084 365.383C455.796 364.949 456.312 364.368 456.634 363.642V360.969H454.231C452.891 360.984 451.843 361.231 451.086 361.71C450.33 362.182 449.952 362.833 449.952 363.665C449.952 364.346 450.203 364.911 450.705 365.36C451.214 365.81 451.873 366.034 452.681 366.034ZM463.069 367H461.722V349.75H463.069V367ZM481.667 359.161H474.019V365.832H482.812V367H472.638V350.648H482.756V351.828H474.019V357.993H481.667V359.161ZM492.695 363.912C492.695 363.245 492.426 362.71 491.887 362.306C491.355 361.901 490.55 361.587 489.472 361.362C488.394 361.13 487.556 360.868 486.957 360.576C486.365 360.277 485.923 359.914 485.631 359.487C485.347 359.06 485.205 358.543 485.205 357.937C485.205 356.979 485.605 356.189 486.406 355.567C487.207 354.938 488.233 354.624 489.483 354.624C490.839 354.624 491.924 354.961 492.74 355.635C493.564 356.301 493.976 357.173 493.976 358.251H492.628C492.628 357.54 492.328 356.949 491.729 356.477C491.138 356.005 490.389 355.77 489.483 355.77C488.6 355.77 487.889 355.968 487.35 356.365C486.818 356.754 486.552 357.263 486.552 357.892C486.552 358.499 486.773 358.97 487.215 359.307C487.664 359.637 488.476 359.94 489.652 360.217C490.835 360.494 491.718 360.79 492.302 361.104C492.894 361.418 493.332 361.797 493.616 362.238C493.901 362.68 494.043 363.215 494.043 363.844C494.043 364.87 493.627 365.69 492.796 366.304C491.973 366.918 490.895 367.225 489.562 367.225C488.147 367.225 486.998 366.884 486.114 366.203C485.238 365.514 484.8 364.645 484.8 363.597H486.148C486.2 364.383 486.53 364.997 487.136 365.439C487.75 365.873 488.559 366.09 489.562 366.09C490.498 366.09 491.254 365.884 491.831 365.473C492.407 365.061 492.695 364.541 492.695 363.912ZM499.164 351.738V354.849H501.68V355.949H499.164V364.046C499.164 364.72 499.284 365.222 499.523 365.551C499.771 365.881 500.179 366.045 500.748 366.045C500.972 366.045 501.335 366.008 501.837 365.933L501.893 367.034C501.541 367.161 501.062 367.225 500.456 367.225C499.535 367.225 498.865 366.959 498.445 366.427C498.026 365.888 497.816 365.098 497.816 364.058V355.949H495.582V354.849H497.816V351.738H499.164ZM512.135 367C512 366.618 511.914 366.053 511.877 365.304C511.405 365.918 510.803 366.394 510.069 366.73C509.343 367.06 508.571 367.225 507.755 367.225C506.587 367.225 505.64 366.899 504.914 366.248C504.195 365.596 503.836 364.773 503.836 363.777C503.836 362.594 504.326 361.658 505.307 360.969C506.295 360.28 507.669 359.936 509.429 359.936H511.866V358.555C511.866 357.686 511.596 357.005 511.057 356.511C510.526 356.009 509.747 355.758 508.721 355.758C507.785 355.758 507.01 355.998 506.396 356.477C505.783 356.956 505.476 357.533 505.476 358.207L504.128 358.195C504.128 357.229 504.577 356.395 505.476 355.691C506.374 354.98 507.478 354.624 508.789 354.624C510.144 354.624 511.211 354.965 511.989 355.646C512.775 356.32 513.18 357.263 513.202 358.476V364.226C513.202 365.402 513.326 366.281 513.573 366.865V367H512.135ZM507.913 366.034C508.811 366.034 509.612 365.817 510.316 365.383C511.027 364.949 511.544 364.368 511.866 363.642V360.969H509.462C508.122 360.984 507.074 361.231 506.318 361.71C505.562 362.182 505.184 362.833 505.184 363.665C505.184 364.346 505.434 364.911 505.936 365.36C506.445 365.81 507.104 366.034 507.913 366.034ZM518.885 351.738V354.849H521.4V355.949H518.885V364.046C518.885 364.72 519.005 365.222 519.244 365.551C519.491 365.881 519.899 366.045 520.468 366.045C520.693 366.045 521.056 366.008 521.558 365.933L521.614 367.034C521.262 367.161 520.783 367.225 520.176 367.225C519.255 367.225 518.585 366.959 518.166 366.427C517.747 365.888 517.537 365.098 517.537 364.058V355.949H515.302V354.849H517.537V351.738H518.885ZM528.891 367.225C527.858 367.225 526.922 366.97 526.083 366.461C525.252 365.952 524.605 365.244 524.141 364.338C523.676 363.425 523.444 362.403 523.444 361.272V360.79C523.444 359.622 523.669 358.57 524.118 357.634C524.575 356.698 525.208 355.964 526.016 355.433C526.825 354.894 527.701 354.624 528.644 354.624C530.119 354.624 531.287 355.129 532.148 356.14C533.016 357.143 533.451 358.517 533.451 360.262V361.014H524.781V361.272C524.781 362.65 525.174 363.799 525.96 364.72C526.754 365.634 527.749 366.09 528.947 366.09C529.666 366.09 530.299 365.959 530.845 365.697C531.399 365.435 531.901 365.016 532.35 364.439L533.192 365.08C532.204 366.51 530.77 367.225 528.891 367.225ZM528.644 355.77C527.633 355.77 526.78 356.14 526.083 356.881C525.395 357.623 524.975 358.618 524.826 359.869H532.114V359.723C532.077 358.555 531.744 357.604 531.115 356.87C530.486 356.136 529.662 355.77 528.644 355.77ZM553.553 361.901C553.366 363.623 552.748 364.941 551.7 365.854C550.66 366.768 549.271 367.225 547.534 367.225C546.321 367.225 545.246 366.921 544.311 366.315C543.382 365.708 542.663 364.851 542.154 363.743C541.645 362.628 541.387 361.355 541.379 359.925V357.802C541.379 356.35 541.634 355.062 542.143 353.939C542.652 352.816 543.382 351.951 544.333 351.345C545.291 350.731 546.392 350.424 547.635 350.424C549.387 350.424 550.768 350.899 551.779 351.85C552.797 352.793 553.389 354.1 553.553 355.77H552.161C551.816 352.992 550.308 351.603 547.635 351.603C546.152 351.603 544.969 352.157 544.086 353.265C543.21 354.373 542.772 355.904 542.772 357.858V359.857C542.772 361.744 543.199 363.249 544.052 364.372C544.913 365.495 546.074 366.057 547.534 366.057C548.979 366.057 550.068 365.712 550.802 365.023C551.535 364.327 551.988 363.286 552.161 361.901H553.553ZM555.855 360.745C555.855 359.577 556.08 358.525 556.529 357.589C556.986 356.653 557.626 355.927 558.45 355.41C559.281 354.886 560.22 354.624 561.269 354.624C562.886 354.624 564.196 355.193 565.199 356.331C566.202 357.462 566.704 358.963 566.704 360.834V361.115C566.704 362.291 566.476 363.35 566.019 364.293C565.57 365.229 564.933 365.952 564.11 366.461C563.286 366.97 562.347 367.225 561.291 367.225C559.681 367.225 558.371 366.659 557.36 365.529C556.357 364.391 555.855 362.886 555.855 361.014V360.745ZM557.203 361.115C557.203 362.568 557.577 363.762 558.326 364.698C559.082 365.626 560.071 366.09 561.291 366.09C562.504 366.09 563.485 365.626 564.233 364.698C564.99 363.762 565.368 362.53 565.368 361.003V360.745C565.368 359.816 565.195 358.966 564.851 358.195C564.507 357.424 564.024 356.829 563.402 356.41C562.781 355.983 562.07 355.77 561.269 355.77C560.071 355.77 559.094 356.241 558.337 357.185C557.581 358.12 557.203 359.348 557.203 360.868V361.115ZM570.713 354.849L570.758 356.825C571.208 356.091 571.769 355.541 572.443 355.174C573.117 354.807 573.865 354.624 574.689 354.624C576.606 354.624 577.822 355.41 578.339 356.982C578.773 356.226 579.353 355.646 580.08 355.242C580.806 354.83 581.607 354.624 582.483 354.624C585.088 354.624 586.417 356.047 586.47 358.892V367H585.122V358.993C585.115 357.907 584.879 357.102 584.415 356.578C583.958 356.054 583.209 355.792 582.168 355.792C581.203 355.807 580.387 356.121 579.72 356.735C579.054 357.342 578.683 358.083 578.608 358.959V367H577.261V358.892C577.253 357.851 577.006 357.076 576.52 356.567C576.04 356.05 575.299 355.792 574.296 355.792C573.45 355.792 572.724 356.035 572.117 356.522C571.511 357.001 571.062 357.716 570.77 358.667V367H569.422V354.849H570.713ZM599.654 361.048C599.654 362.942 599.235 364.447 598.396 365.562C597.558 366.671 596.435 367.225 595.027 367.225C593.365 367.225 592.092 366.641 591.209 365.473V371.672H589.873V354.849H591.119L591.187 356.567C592.062 355.272 593.332 354.624 594.994 354.624C596.446 354.624 597.584 355.174 598.408 356.275C599.239 357.375 599.654 358.903 599.654 360.857V361.048ZM598.307 360.812C598.307 359.262 597.988 358.038 597.352 357.14C596.716 356.241 595.828 355.792 594.69 355.792C593.867 355.792 593.159 355.99 592.568 356.387C591.976 356.784 591.523 357.361 591.209 358.117V363.945C591.531 364.642 591.991 365.173 592.59 365.54C593.189 365.907 593.897 366.09 594.713 366.09C595.843 366.09 596.723 365.641 597.352 364.743C597.988 363.837 598.307 362.527 598.307 360.812ZM610.312 367C610.177 366.618 610.091 366.053 610.054 365.304C609.582 365.918 608.979 366.394 608.246 366.73C607.519 367.06 606.748 367.225 605.932 367.225C604.764 367.225 603.817 366.899 603.091 366.248C602.372 365.596 602.013 364.773 602.013 363.777C602.013 362.594 602.503 361.658 603.484 360.969C604.472 360.28 605.846 359.936 607.605 359.936H610.042V358.555C610.042 357.686 609.773 357.005 609.234 356.511C608.702 356.009 607.924 355.758 606.898 355.758C605.962 355.758 605.187 355.998 604.573 356.477C603.959 356.956 603.652 357.533 603.652 358.207L602.305 358.195C602.305 357.229 602.754 356.395 603.652 355.691C604.551 354.98 605.655 354.624 606.965 354.624C608.32 354.624 609.387 354.965 610.166 355.646C610.952 356.32 611.356 357.263 611.379 358.476V364.226C611.379 365.402 611.502 366.281 611.75 366.865V367H610.312ZM606.089 366.034C606.988 366.034 607.789 365.817 608.493 365.383C609.204 364.949 609.721 364.368 610.042 363.642V360.969H607.639C606.299 360.984 605.251 361.231 604.495 361.71C603.738 362.182 603.36 362.833 603.36 363.665C603.36 364.346 603.611 364.911 604.113 365.36C604.622 365.81 605.281 366.034 606.089 366.034ZM616.253 354.849L616.298 356.926C616.755 356.178 617.324 355.609 618.005 355.219C618.686 354.822 619.439 354.624 620.262 354.624C621.565 354.624 622.535 354.991 623.171 355.725C623.807 356.458 624.129 357.559 624.137 359.026V367H622.8V359.015C622.793 357.93 622.561 357.121 622.104 356.589C621.655 356.058 620.932 355.792 619.937 355.792C619.105 355.792 618.368 356.054 617.724 356.578C617.088 357.095 616.616 357.795 616.309 358.678V367H614.973V354.849H616.253ZM631.47 365.068L635.019 354.849H636.468L631.279 369.066L631.01 369.695C630.343 371.17 629.314 371.908 627.921 371.908C627.599 371.908 627.255 371.855 626.888 371.75L626.877 370.639L627.573 370.706C628.232 370.706 628.764 370.541 629.168 370.212C629.58 369.89 629.928 369.332 630.212 368.539L630.808 366.899L626.226 354.849H627.697L631.47 365.068Z" fill="white"/>
</svg>
