<svg width="1050" height="600" viewBox="0 0 1050 600" fill="none" xmlns="http://www.w3.org/2000/svg">
<g clip-path="url(#clip0)">
<rect width="1050" height="600" fill="#F5F5F5"/>
<path d="M1001.81 508.875C1001.81 508.875 997.971 521.945 997.418 526.436C996.531 533.658 991.521 539.607 984.247 539.607H755.951C748.677 539.607 743.667 533.658 742.78 526.436C742.227 521.945 738.39 508.875 738.39 508.875" stroke="#F37A81" stroke-width="13" stroke-miterlimit="10" stroke-linecap="round" stroke-linejoin="round"/>
<path d="M991.842 453.229C990.275 446.543 987.728 438.627 987.728 438.627C975.26 408.527 951.302 383.177 918.823 369.726C855.273 343.406 782.636 372.338 754.301 434.417C754.301 434.417 750.876 442.605 749.252 452.952C740.427 455.793 734 463.976 734 473.749C734 479.571 736.313 485.155 740.429 489.271C744.546 493.388 750.13 495.701 755.951 495.701C764.144 495.701 771.203 491.161 774.975 484.51C778.75 491.161 785.81 495.701 794.002 495.701C802.19 495.701 809.258 491.157 813.025 484.506C816.792 491.157 823.861 495.701 832.048 495.701C840.241 495.701 847.305 491.161 851.076 484.51C854.852 491.161 861.907 495.701 870.099 495.701C878.291 495.701 885.351 491.161 889.122 484.51C892.898 491.161 899.958 495.701 908.15 495.701C916.338 495.701 923.406 491.157 927.173 484.506C930.94 491.157 938.008 495.701 946.196 495.701C954.388 495.701 961.452 491.161 965.224 484.51C968.999 491.161 976.055 495.701 984.247 495.701C990.069 495.701 995.652 493.388 999.769 489.271C1003.89 485.155 1006.2 479.571 1006.2 473.749C1006.2 464.31 1000.2 456.324 991.842 453.229Z" stroke="#F37A81" stroke-width="13" stroke-miterlimit="10" stroke-linecap="round" stroke-linejoin="round"/>
<path d="M870.099 434.238V407.896" stroke="#F37A81" stroke-width="13" stroke-miterlimit="10" stroke-linecap="round" stroke-linejoin="round"/>
<path d="M810.585 423.512L831.562 402.531" stroke="#F37A81" stroke-width="13" stroke-miterlimit="10" stroke-linecap="round" stroke-linejoin="round"/>
<path d="M929.619 423.512L908.638 402.531" stroke="#F37A81" stroke-width="13" stroke-miterlimit="10" stroke-linecap="round" stroke-linejoin="round"/>
<path d="M78.2 97.35C75.2133 97.35 72.95 96.51 71.41 94.83C69.87 93.15 69.1 90.7583 69.1 87.655V70.4H74.315V88.005C74.315 89.5917 74.63 90.8517 75.26 91.785C75.9133 92.695 76.8817 93.15 78.165 93.15C79.4483 93.15 80.405 92.7067 81.035 91.82C81.665 90.9333 81.98 89.8717 81.98 88.635C81.98 87.6783 81.8633 86.885 81.63 86.255C81.42 85.625 81.1517 85.0417 80.825 84.505C80.2883 83.665 79.7867 82.7317 79.32 81.705C78.8767 80.655 78.655 79.3833 78.655 77.89H83.87C83.8933 78.9633 84.0917 79.8967 84.465 80.69C84.8617 81.4833 85.34 82.3117 85.9 83.175C86.2967 83.805 86.6233 84.5517 86.88 85.415C87.16 86.2783 87.3 87.2817 87.3 88.425C87.3 90.2217 86.9267 91.7967 86.18 93.15C85.4567 94.48 84.4067 95.5183 83.03 96.265C81.6767 96.9883 80.0667 97.35 78.2 97.35ZM98.955 97.35C97.275 97.35 95.7817 97.07 94.475 96.51C93.1683 95.9267 92.1417 95.0867 91.395 93.99C90.6483 92.8933 90.275 91.5517 90.275 89.965C90.275 89.3117 90.3217 88.7517 90.415 88.285C90.5083 87.795 90.6483 87.3283 90.835 86.885H95.84C95.7233 87.305 95.63 87.7483 95.56 88.215C95.5133 88.6583 95.49 89.1133 95.49 89.58C95.49 90.5367 95.7817 91.3767 96.365 92.1C96.9717 92.8 97.835 93.15 98.955 93.15C100.028 93.15 100.857 92.8 101.44 92.1C102.047 91.4 102.35 90.5833 102.35 89.65C102.35 88.5767 102.07 87.7017 101.51 87.025C100.95 86.3483 100.308 85.6717 99.585 84.995C99.025 84.4583 98.465 83.8867 97.905 83.28C97.345 82.65 96.8783 81.915 96.505 81.075C96.1317 80.2117 95.945 79.15 95.945 77.89H101.16C101.16 78.8467 101.452 79.6867 102.035 80.41C102.618 81.1333 103.283 81.8567 104.03 82.58C104.613 83.14 105.185 83.7467 105.745 84.4C106.305 85.03 106.76 85.765 107.11 86.605C107.483 87.445 107.67 88.4367 107.67 89.58C107.67 91.12 107.308 92.4733 106.585 93.64C105.862 94.8067 104.847 95.7167 103.54 96.37C102.257 97.0233 100.728 97.35 98.955 97.35ZM117.241 105.75C115.421 105.75 113.846 105.4 112.516 104.7C111.186 104.023 110.159 103.102 109.436 101.935C108.736 100.792 108.386 99.5083 108.386 98.085C108.386 97.455 108.433 96.8717 108.526 96.335C108.643 95.7983 108.783 95.32 108.946 94.9H113.951C113.718 95.7167 113.601 96.5683 113.601 97.455C113.601 98.5517 113.893 99.5083 114.476 100.325C115.083 101.142 116.004 101.55 117.241 101.55C118.548 101.55 119.493 101.118 120.076 100.255C120.659 99.3917 120.951 98.2833 120.951 96.93C120.951 95.4367 120.601 94.2583 119.901 93.395C119.224 92.5083 118.244 92.065 116.961 92.065H115.561V88.11H116.961C118.221 88.11 119.096 87.76 119.586 87.06C120.099 86.36 120.356 85.59 120.356 84.75C120.356 83.8633 120.088 83.105 119.551 82.475C119.038 81.845 118.268 81.53 117.241 81.53V77.54C118.968 77.54 120.449 77.8317 121.686 78.415C122.946 78.9983 123.914 79.78 124.591 80.76C125.268 81.74 125.606 82.8367 125.606 84.05C125.606 85.6367 125.151 86.9317 124.241 87.935C123.354 88.915 122.164 89.58 120.671 89.93V90.035C121.651 90.1983 122.561 90.5717 123.401 91.155C124.264 91.7383 124.953 92.5433 125.466 93.57C126.003 94.5733 126.271 95.81 126.271 97.28C126.271 98.96 125.909 100.43 125.186 101.69C124.463 102.973 123.424 103.965 122.071 104.665C120.718 105.388 119.108 105.75 117.241 105.75ZM131.177 97C130.407 95.32 129.835 93.7333 129.462 92.24C129.089 90.7233 128.902 89.0317 128.902 87.165C128.902 85.275 129.194 83.6067 129.777 82.16C130.384 80.7133 131.27 79.5817 132.437 78.765C133.604 77.9483 135.027 77.54 136.707 77.54C138.2 77.54 139.414 77.89 140.347 78.59C141.28 79.2667 141.945 80.1883 142.342 81.355H142.552C142.972 80.165 143.637 79.2317 144.547 78.555C145.48 77.8783 146.67 77.54 148.117 77.54C149.844 77.54 151.29 77.9483 152.457 78.765C153.624 79.5817 154.499 80.7133 155.082 82.16C155.689 83.6067 155.992 85.275 155.992 87.165C155.992 89.0317 155.805 90.7233 155.432 92.24C155.082 93.7333 154.51 95.32 153.717 97H148.607C149.354 95.46 149.89 93.885 150.217 92.275C150.567 90.665 150.742 88.9967 150.742 87.27C150.742 85.66 150.497 84.3417 150.007 83.315C149.54 82.265 148.735 81.74 147.592 81.74C146.659 81.74 145.982 82.1017 145.562 82.825C145.142 83.5483 144.932 84.5983 144.932 85.975V90.91H139.962V85.975C139.962 84.6217 139.752 83.5833 139.332 82.86C138.935 82.1133 138.259 81.74 137.302 81.74C136.275 81.74 135.494 82.1833 134.957 83.07C134.42 83.9333 134.152 85.3567 134.152 87.34C134.152 89.0667 134.315 90.7233 134.642 92.31C134.992 93.8967 135.54 95.46 136.287 97H131.177ZM168.461 97.35C165.638 97.35 163.468 96.51 161.951 94.83C160.435 93.15 159.676 90.7233 159.676 87.55V77.435C159.676 75.7317 160.003 74.3667 160.656 73.34C161.31 72.29 162.173 71.5433 163.246 71.1C164.32 70.6333 165.486 70.4 166.746 70.4H175.706V74.425H167.306C166.583 74.425 166 74.6117 165.556 74.985C165.136 75.3583 164.926 75.9767 164.926 76.84V77.54C164.926 77.9367 164.891 78.4267 164.821 79.01C164.775 79.5933 164.728 80.0833 164.681 80.48H164.821C165.358 79.6867 166.046 79.0567 166.886 78.59C167.726 78.1233 168.835 77.89 170.211 77.89C172.405 77.89 174.178 78.695 175.531 80.305C176.885 81.8917 177.561 84.2833 177.561 87.48C177.561 90.6533 176.745 93.0917 175.111 94.795C173.501 96.4983 171.285 97.35 168.461 97.35ZM168.461 93.15C169.838 93.15 170.806 92.6483 171.366 91.645C171.95 90.6183 172.241 89.265 172.241 87.585C172.241 85.7883 171.915 84.4117 171.261 83.455C170.631 82.475 169.733 81.985 168.566 81.985C167.05 81.985 166.011 82.4633 165.451 83.42C164.891 84.3533 164.611 85.625 164.611 87.235V88.005C164.611 89.615 164.926 90.875 165.556 91.785C166.186 92.695 167.155 93.15 168.461 93.15ZM198.359 105.75C197.775 104.817 197.064 104.047 196.224 103.44C195.407 102.857 194.544 102.413 193.634 102.11C192.747 101.83 191.919 101.69 191.149 101.69C190.192 101.69 189.259 101.818 188.349 102.075C187.462 102.332 186.61 102.682 185.794 103.125L184.219 99.765C184.662 99.5783 185.187 99.38 185.794 99.17C186.4 98.9833 187.205 98.8433 188.209 98.75V98.61C185.945 97.5833 184.125 96.0783 182.749 94.095C181.395 92.1117 180.719 89.7667 180.719 87.06C180.719 85.24 181.01 83.6183 181.594 82.195C182.177 80.7483 183.029 79.6167 184.149 78.8C185.292 77.96 186.68 77.54 188.314 77.54C191.44 77.54 193.482 78.7767 194.439 81.25H194.614C195.104 80.0367 195.909 79.115 197.029 78.485C198.149 77.855 199.42 77.54 200.844 77.54C202.57 77.54 204.075 77.925 205.359 78.695C206.642 79.4417 207.645 80.5383 208.369 81.985C209.092 83.4083 209.454 85.1233 209.454 87.13C209.454 89.16 209.08 90.8983 208.334 92.345C207.587 93.7683 206.549 94.865 205.219 95.635C203.912 96.405 202.419 96.79 200.739 96.79C198.032 96.79 195.885 95.95 194.299 94.27C192.712 92.59 191.919 90.2567 191.919 87.27V86.045C191.919 84.6917 191.674 83.6417 191.184 82.895C190.717 82.125 189.97 81.74 188.944 81.74C187.894 81.74 187.135 82.2417 186.669 83.245C186.202 84.225 185.969 85.485 185.969 87.025C185.969 88.9617 186.295 90.6067 186.949 91.96C187.625 93.3133 188.535 94.445 189.679 95.355C190.822 96.2417 192.105 96.965 193.529 97.525C194.999 98.1083 196.282 98.6917 197.379 99.275C198.475 99.8583 199.409 100.512 200.179 101.235C200.949 101.958 201.602 102.833 202.139 103.86L198.359 105.75ZM200.669 92.59C201.929 92.59 202.815 92.0883 203.329 91.085C203.865 90.0817 204.134 88.7633 204.134 87.13C204.134 85.4967 203.865 84.19 203.329 83.21C202.792 82.23 201.917 81.74 200.704 81.74C199.467 81.74 198.58 82.23 198.044 83.21C197.507 84.19 197.239 85.4967 197.239 87.13C197.239 88.7633 197.495 90.0817 198.009 91.085C198.545 92.0883 199.432 92.59 200.669 92.59ZM214.603 97C213.95 95.4133 213.448 93.885 213.098 92.415C212.772 90.9217 212.608 89.2417 212.608 87.375C212.608 85.415 212.935 83.7 213.588 82.23C214.242 80.7367 215.222 79.5817 216.528 78.765C217.858 77.9483 219.515 77.54 221.498 77.54C223.482 77.54 225.127 77.9483 226.433 78.765C227.763 79.5817 228.755 80.7367 229.408 82.23C230.085 83.7 230.423 85.415 230.423 87.375C230.423 89.2417 230.248 90.9217 229.898 92.415C229.572 93.885 229.07 95.4133 228.393 97H223.388C224.578 93.92 225.173 90.7467 225.173 87.48C225.173 85.5667 224.847 84.1317 224.193 83.175C223.54 82.2183 222.642 81.74 221.498 81.74C220.355 81.74 219.457 82.2067 218.803 83.14C218.173 84.0733 217.858 85.5317 217.858 87.515C217.858 90.7583 218.453 93.92 219.643 97H214.603ZM245.565 105.75C241.739 105.75 238.775 104.513 236.675 102.04C234.599 99.5667 233.56 95.985 233.56 91.295C233.56 87.4683 234.389 84.3883 236.045 82.055C237.725 79.6983 240.152 78.2633 243.325 77.75C243.255 77.3067 243.185 76.8633 243.115 76.42C243.069 75.9767 243.045 75.5567 243.045 75.16V73.515H248.015V75.16C248.015 75.5333 247.98 75.9533 247.91 76.42C247.864 76.8633 247.805 77.295 247.735 77.715C250.955 78.205 253.405 79.64 255.085 82.02C256.765 84.3767 257.605 87.48 257.605 91.33C257.605 95.8567 256.579 99.3917 254.525 101.935C252.472 104.478 249.485 105.75 245.565 105.75ZM245.565 101.55C247.759 101.55 249.427 100.722 250.57 99.065C251.714 97.4083 252.285 94.83 252.285 91.33C252.285 88.4367 251.889 86.1967 251.095 84.61C250.325 83 249.205 81.985 247.735 81.565C247.805 82.0317 247.864 82.5333 247.91 83.07C247.98 83.6067 248.015 84.26 248.015 85.03V91.05H243.045V84.995C243.045 84.2483 243.069 83.63 243.115 83.14C243.185 82.6267 243.255 82.1367 243.325 81.67C241.879 82.0433 240.77 83.035 240 84.645C239.23 86.255 238.845 88.4833 238.845 91.33C238.845 94.8067 239.429 97.3733 240.595 99.03C241.762 100.71 243.419 101.55 245.565 101.55ZM263.007 97C262.237 95.32 261.666 93.71 261.292 92.17C260.942 90.63 260.767 88.9617 260.767 87.165V85.8C260.767 82.93 261.117 80.5033 261.817 78.52C262.541 76.5133 263.707 74.915 265.317 73.725C266.927 72.535 269.062 71.695 271.722 71.205C272.889 70.995 274.149 70.7967 275.502 70.61C276.856 70.4 278.267 70.2133 279.737 70.05L280.297 74.32C278.804 74.53 277.311 74.74 275.817 74.95C274.347 75.1367 273.122 75.3117 272.142 75.475C271.186 75.6383 270.229 75.8717 269.272 76.175C268.316 76.455 267.452 76.875 266.682 77.435C265.936 77.995 265.376 78.7533 265.002 79.71H265.142C265.702 79.01 266.309 78.5433 266.962 78.31C267.616 78.0767 268.269 77.96 268.922 77.96C270.136 77.96 271.186 78.2983 272.072 78.975C272.959 79.6517 273.601 80.5733 273.997 81.74H274.207C274.627 80.55 275.292 79.6283 276.202 78.975C277.112 78.2983 278.279 77.96 279.702 77.96C281.382 77.96 282.794 78.3683 283.937 79.185C285.104 80.0017 285.979 81.1217 286.562 82.545C287.169 83.9683 287.472 85.5783 287.472 87.375C287.472 88.6117 287.391 89.755 287.227 90.805C287.064 91.8317 286.807 92.8467 286.457 93.85C286.131 94.83 285.711 95.88 285.197 97H280.017C280.741 95.46 281.277 93.92 281.627 92.38C281.977 90.84 282.152 89.2067 282.152 87.48C282.152 85.94 281.919 84.6683 281.452 83.665C280.986 82.6617 280.216 82.16 279.142 82.16C278.256 82.16 277.602 82.545 277.182 83.315C276.786 84.0617 276.587 85.1 276.587 86.43V90.84H271.582V86.43C271.582 85.1233 271.384 84.085 270.987 83.315C270.591 82.545 269.961 82.16 269.097 82.16C268.117 82.16 267.359 82.6033 266.822 83.49C266.286 84.3533 266.017 85.695 266.017 87.515C266.017 89.2417 266.181 90.875 266.507 92.415C266.857 93.9317 267.406 95.46 268.152 97H263.007ZM292.881 97C292.111 95.32 291.54 93.7333 291.166 92.24C290.793 90.7233 290.606 89.0317 290.606 87.165C290.606 85.275 290.898 83.6067 291.481 82.16C292.088 80.7133 292.975 79.5817 294.141 78.765C295.308 77.9483 296.731 77.54 298.411 77.54C299.905 77.54 301.118 77.89 302.051 78.59C302.985 79.2667 303.65 80.1883 304.046 81.355H304.256C304.676 80.165 305.341 79.2317 306.251 78.555C307.185 77.8783 308.375 77.54 309.821 77.54C311.548 77.54 312.995 77.9483 314.161 78.765C315.328 79.5817 316.203 80.7133 316.786 82.16C317.393 83.6067 317.696 85.275 317.696 87.165C317.696 89.0317 317.51 90.7233 317.136 92.24C316.786 93.7333 316.215 95.32 315.421 97H310.311C311.058 95.46 311.595 93.885 311.921 92.275C312.271 90.665 312.446 88.9967 312.446 87.27C312.446 85.66 312.201 84.3417 311.711 83.315C311.245 82.265 310.44 81.74 309.296 81.74C308.363 81.74 307.686 82.1017 307.266 82.825C306.846 83.5483 306.636 84.5983 306.636 85.975V90.91H301.666V85.975C301.666 84.6217 301.456 83.5833 301.036 82.86C300.64 82.1133 299.963 81.74 299.006 81.74C297.98 81.74 297.198 82.1833 296.661 83.07C296.125 83.9333 295.856 85.3567 295.856 87.34C295.856 89.0667 296.02 90.7233 296.346 92.31C296.696 93.8967 297.245 95.46 297.991 97H292.881ZM339.047 97.35C336.224 97.35 333.995 96.5217 332.362 94.865C330.752 93.185 329.947 90.8283 329.947 87.795C329.947 84.7383 330.624 82.4283 331.977 80.865C333.33 79.3017 335.104 78.52 337.297 78.52C338.674 78.52 339.782 78.7533 340.622 79.22C341.462 79.6867 342.139 80.3167 342.652 81.11H342.827C342.757 80.7367 342.687 80.3283 342.617 79.885C342.57 79.4183 342.547 78.9167 342.547 78.38V77.015C342.547 76.1283 342.29 75.37 341.777 74.74C341.264 74.11 340.447 73.795 339.327 73.795C338.37 73.795 337.624 74.0283 337.087 74.495C336.574 74.9617 336.317 75.545 336.317 76.245C336.317 76.3617 336.317 76.4783 336.317 76.595C336.34 76.7117 336.364 76.8283 336.387 76.945H331.277C331.207 76.7117 331.16 76.49 331.137 76.28C331.114 76.0467 331.102 75.8367 331.102 75.65C331.102 74.4833 331.464 73.48 332.187 72.64C332.934 71.8 333.925 71.1583 335.162 70.715C336.399 70.2717 337.787 70.05 339.327 70.05C341.077 70.05 342.582 70.3767 343.842 71.03C345.102 71.66 346.07 72.5467 346.747 73.69C347.447 74.8333 347.797 76.1517 347.797 77.645V87.795C347.797 90.8283 347.039 93.185 345.522 94.865C344.029 96.5217 341.87 97.35 339.047 97.35ZM339.047 93.15C340.354 93.15 341.322 92.7067 341.952 91.82C342.582 90.91 342.897 89.7433 342.897 88.32V87.62C342.897 86.1033 342.617 84.8783 342.057 83.945C341.497 83.0117 340.459 82.545 338.942 82.545C337.775 82.545 336.865 83.035 336.212 84.015C335.582 84.9717 335.267 86.2667 335.267 87.9C335.267 89.4167 335.547 90.6767 336.107 91.68C336.69 92.66 337.67 93.15 339.047 93.15ZM359.985 97.35C358.305 97.35 356.812 97.07 355.505 96.51C354.199 95.9267 353.172 95.0867 352.425 93.99C351.679 92.8933 351.305 91.5517 351.305 89.965C351.305 89.3117 351.352 88.7517 351.445 88.285C351.539 87.795 351.679 87.3283 351.865 86.885H356.87C356.754 87.305 356.66 87.7483 356.59 88.215C356.544 88.6583 356.52 89.1133 356.52 89.58C356.52 90.5367 356.812 91.3767 357.395 92.1C358.002 92.8 358.865 93.15 359.985 93.15C361.059 93.15 361.887 92.8 362.47 92.1C363.077 91.4 363.38 90.5833 363.38 89.65C363.38 88.5767 363.1 87.7017 362.54 87.025C361.98 86.3483 361.339 85.6717 360.615 84.995C360.055 84.4583 359.495 83.8867 358.935 83.28C358.375 82.65 357.909 81.915 357.535 81.075C357.162 80.2117 356.975 79.15 356.975 77.89H362.19C362.19 78.8467 362.482 79.6867 363.065 80.41C363.649 81.1333 364.314 81.8567 365.06 82.58C365.644 83.14 366.215 83.7467 366.775 84.4C367.335 85.03 367.79 85.765 368.14 86.605C368.514 87.445 368.7 88.4367 368.7 89.58C368.7 91.12 368.339 92.4733 367.615 93.64C366.892 94.8067 365.877 95.7167 364.57 96.37C363.287 97.0233 361.759 97.35 359.985 97.35ZM388.826 105.75C387.94 104.35 386.855 103.312 385.571 102.635C384.311 101.982 383.086 101.655 381.896 101.655C380.94 101.655 380.006 101.783 379.096 102.04C378.21 102.297 377.358 102.647 376.541 103.09L375.001 99.765C375.468 99.5317 376.005 99.31 376.611 99.1C377.241 98.9133 378.07 98.785 379.096 98.715V98.575C376.763 97.5483 374.966 96.0667 373.706 94.13C372.47 92.17 371.851 89.8717 371.851 87.235C371.851 85.345 372.143 83.6767 372.726 82.23C373.333 80.76 374.196 79.6167 375.316 78.8C376.436 77.96 377.813 77.54 379.446 77.54C380.94 77.54 382.141 77.8783 383.051 78.555C383.985 79.2317 384.65 80.1533 385.046 81.32H385.256C385.676 80.1533 386.341 79.2317 387.251 78.555C388.185 77.8783 389.375 77.54 390.821 77.54C392.455 77.54 393.843 77.9483 394.986 78.765C396.13 79.5817 396.993 80.7133 397.576 82.16C398.183 83.6067 398.486 85.275 398.486 87.165C398.486 88.8217 398.3 90.3383 397.926 91.715C397.576 93.0917 397.028 94.4917 396.281 95.915L391.871 94.305C392.385 93.1617 392.746 92.0183 392.956 90.875C393.166 89.7083 393.271 88.5067 393.271 87.27C393.271 85.7067 393.038 84.4 392.571 83.35C392.105 82.2767 391.335 81.74 390.261 81.74C389.328 81.74 388.651 82.1017 388.231 82.825C387.811 83.525 387.601 84.5283 387.601 85.835V91.015H382.701V85.835C382.701 84.5517 382.491 83.5483 382.071 82.825C381.675 82.1017 381.033 81.74 380.146 81.74C379.166 81.74 378.408 82.195 377.871 83.105C377.335 83.9917 377.066 85.38 377.066 87.27C377.066 89.1367 377.37 90.7233 377.976 92.03C378.583 93.3133 379.423 94.3983 380.496 95.285C381.57 96.1483 382.806 96.86 384.206 97.42C385.676 98.0267 386.936 98.6217 387.986 99.205C389.036 99.8117 389.923 100.477 390.646 101.2C391.393 101.947 392.035 102.845 392.571 103.895L388.826 105.75ZM410.127 97.35C408.447 97.35 406.954 97.07 405.647 96.51C404.34 95.9267 403.314 95.0867 402.567 93.99C401.82 92.8933 401.447 91.5517 401.447 89.965C401.447 89.3117 401.494 88.7517 401.587 88.285C401.68 87.795 401.82 87.3283 402.007 86.885H407.012C406.895 87.305 406.802 87.7483 406.732 88.215C406.685 88.6583 406.662 89.1133 406.662 89.58C406.662 90.5367 406.954 91.3767 407.537 92.1C408.144 92.8 409.007 93.15 410.127 93.15C411.2 93.15 412.029 92.8 412.612 92.1C413.219 91.4 413.522 90.5833 413.522 89.65C413.522 88.5767 413.242 87.7017 412.682 87.025C412.122 86.3483 411.48 85.6717 410.757 84.995C410.197 84.4583 409.637 83.8867 409.077 83.28C408.517 82.65 408.05 81.915 407.677 81.075C407.304 80.2117 407.117 79.15 407.117 77.89H412.332C412.332 78.8467 412.624 79.6867 413.207 80.41C413.79 81.1333 414.455 81.8567 415.202 82.58C415.785 83.14 416.357 83.7467 416.917 84.4C417.477 85.03 417.932 85.765 418.282 86.605C418.655 87.445 418.842 88.4367 418.842 89.58C418.842 91.12 418.48 92.4733 417.757 93.64C417.034 94.8067 416.019 95.7167 414.712 96.37C413.429 97.0233 411.9 97.35 410.127 97.35ZM431.127 97.35C429.4 97.35 427.872 96.9767 426.542 96.23C425.212 95.4833 424.162 94.4217 423.392 93.045C422.645 91.645 422.272 90 422.272 88.11C422.272 86.9667 422.423 85.8933 422.727 84.89C423.053 83.8633 423.555 83.0117 424.232 82.335V82.195C422.808 81.7983 421.7 81.0867 420.907 80.06C420.113 79.0333 419.717 77.7733 419.717 76.28C419.717 75.2067 419.973 74.2033 420.487 73.27C421.023 72.3133 421.817 71.5433 422.867 70.96C423.94 70.3533 425.258 70.05 426.822 70.05C428.315 70.05 429.587 70.33 430.637 70.89C431.687 71.45 432.492 72.1733 433.052 73.06C433.612 73.9467 433.892 74.8567 433.892 75.79C433.892 76.98 433.612 77.9717 433.052 78.765V78.905C433.145 78.905 433.238 78.9167 433.332 78.94C433.448 78.9633 433.553 78.9867 433.647 79.01C435.513 79.4767 437.053 80.4567 438.267 81.95C439.48 83.4433 440.087 85.3917 440.087 87.795C440.087 90.7817 439.282 93.1267 437.672 94.83C436.062 96.51 433.88 97.35 431.127 97.35ZM426.822 79.535C427.638 79.535 428.222 79.255 428.572 78.695C428.945 78.1117 429.132 77.3883 429.132 76.525C429.132 75.8017 428.945 75.16 428.572 74.6C428.222 74.0167 427.627 73.725 426.787 73.725C425.97 73.725 425.375 74.0167 425.002 74.6C424.652 75.16 424.477 75.8017 424.477 76.525C424.477 77.3183 424.652 78.0183 425.002 78.625C425.375 79.2317 425.982 79.535 426.822 79.535ZM431.197 93.15C432.503 93.15 433.425 92.66 433.962 91.68C434.498 90.6767 434.767 89.3817 434.767 87.795C434.767 86.2317 434.487 84.9717 433.927 84.015C433.39 83.035 432.468 82.545 431.162 82.545C429.878 82.545 428.957 83.035 428.397 84.015C427.86 84.9717 427.592 86.2317 427.592 87.795C427.592 89.3817 427.86 90.6767 428.397 91.68C428.957 92.66 429.89 93.15 431.197 93.15ZM445.248 97C444.594 95.4133 444.093 93.885 443.743 92.415C443.416 90.9217 443.253 89.2417 443.253 87.375C443.253 85.415 443.579 83.7 444.233 82.23C444.886 80.7367 445.866 79.5817 447.173 78.765C448.503 77.9483 450.159 77.54 452.143 77.54C454.126 77.54 455.771 77.9483 457.078 78.765C458.408 79.5817 459.399 80.7367 460.053 82.23C460.729 83.7 461.068 85.415 461.068 87.375C461.068 89.2417 460.893 90.9217 460.543 92.415C460.216 93.885 459.714 95.4133 459.038 97H454.033C455.223 93.92 455.818 90.7467 455.818 87.48C455.818 85.5667 455.491 84.1317 454.838 83.175C454.184 82.2183 453.286 81.74 452.143 81.74C450.999 81.74 450.101 82.2067 449.448 83.14C448.818 84.0733 448.503 85.5317 448.503 87.515C448.503 90.7583 449.098 93.92 450.288 97H445.248ZM472.71 97.35C471.03 97.35 469.537 97.07 468.23 96.51C466.923 95.9267 465.897 95.0867 465.15 93.99C464.403 92.8933 464.03 91.5517 464.03 89.965C464.03 89.3117 464.077 88.7517 464.17 88.285C464.263 87.795 464.403 87.3283 464.59 86.885H469.595C469.478 87.305 469.385 87.7483 469.315 88.215C469.268 88.6583 469.245 89.1133 469.245 89.58C469.245 90.5367 469.537 91.3767 470.12 92.1C470.727 92.8 471.59 93.15 472.71 93.15C473.783 93.15 474.612 92.8 475.195 92.1C475.802 91.4 476.105 90.5833 476.105 89.65C476.105 88.5767 475.825 87.7017 475.265 87.025C474.705 86.3483 474.063 85.6717 473.34 84.995C472.78 84.4583 472.22 83.8867 471.66 83.28C471.1 82.65 470.633 81.915 470.26 81.075C469.887 80.2117 469.7 79.15 469.7 77.89H474.915C474.915 78.8467 475.207 79.6867 475.79 80.41C476.373 81.1333 477.038 81.8567 477.785 82.58C478.368 83.14 478.94 83.7467 479.5 84.4C480.06 85.03 480.515 85.765 480.865 86.605C481.238 87.445 481.425 88.4367 481.425 89.58C481.425 91.12 481.063 92.4733 480.34 93.64C479.617 94.8067 478.602 95.7167 477.295 96.37C476.012 97.0233 474.483 97.35 472.71 97.35Z" fill="#F37A81"/>
<rect x="67" y="201" width="53" height="53" rx="7" fill="#F37A81"/>
<rect x="67" y="271" width="53" height="53" rx="7" fill="#F37A81"/>
<rect x="67" y="341" width="53" height="53" rx="7" fill="#F37A81"/>
<rect x="67" y="411" width="53" height="53" rx="7" fill="#F37A81"/>
<path d="M104.158 231.155C104.024 230.221 103.303 229.493 102.375 229.276C98.7669 228.431 97.8625 226.353 97.7099 224.049C97.0701 223.93 95.9319 223.801 93.9999 223.801C92.0679 223.801 90.9297 223.93 90.2899 224.049C90.1373 226.353 89.2329 228.431 85.6251 229.276C84.6969 229.495 83.9759 230.221 83.8415 231.155L83.1457 235.974C82.9007 237.671 84.1467 239.201 85.8799 239.201H102.12C103.852 239.201 105.099 237.671 104.854 235.974L104.158 231.155ZM93.9999 235.69C92.0469 235.69 90.4635 234.122 90.4635 232.19C90.4635 230.258 92.0469 228.69 93.9999 228.69C95.9529 228.69 97.5363 230.258 97.5363 232.19C97.5363 234.122 95.9515 235.69 93.9999 235.69ZM107.93 222.401C107.896 220.301 102.551 216.802 93.9999 216.801C85.4473 216.802 80.1021 220.301 80.0699 222.401C80.0377 224.501 80.0993 227.234 83.6189 226.779C87.7363 226.245 87.4829 224.807 87.4829 222.752C87.4829 221.319 90.8317 220.973 93.9999 220.973C97.1681 220.973 100.516 221.319 100.517 222.752C100.517 224.807 100.264 226.245 104.381 226.779C107.899 227.234 107.962 224.501 107.93 222.401Z" fill="#F5F5F5"/>
<path d="M103.95 292.1C103.761 292.062 103.62 292.043 103.525 292.043C102.827 292.043 102.223 292.279 101.713 292.752C100.561 292.241 99.485 291.826 98.4844 291.504C96.8418 290.975 95.1237 290.541 93.3301 290.2C93.1602 289.747 92.9053 289.369 92.5654 289.066C93.0374 286.836 93.6699 284.814 94.4629 283C96.8418 283.17 99.0272 283.86 101.019 285.069C103.011 286.279 104.62 287.866 105.848 289.832C105.149 290.588 104.517 291.344 103.95 292.1ZM90.8096 288.414C90.3187 288.414 89.8561 288.547 89.4219 288.811C87.8926 287.677 86.3538 286.714 84.8057 285.92C87.1468 284.143 89.7712 283.17 92.6787 283C91.9424 284.644 91.3477 286.449 90.8945 288.414H90.8096ZM80.9824 290.172C81.6243 289.095 82.4362 288.074 83.418 287.11C84.7018 287.772 86.0329 288.585 87.4111 289.548C84.9756 289.492 82.8327 289.7 80.9824 290.172ZM88.0908 291.306C88.1286 291.892 88.3315 292.407 88.6997 292.851C89.0679 293.295 89.5257 293.593 90.0732 293.744C89.96 295.067 89.9033 296.324 89.9033 297.514C89.9033 298.346 89.9316 299.3 89.9883 300.377C89.5729 300.51 89.2048 300.736 88.8838 301.058C87.8643 300.661 86.8825 300.207 85.9385 299.697C86.1462 299.281 86.25 298.856 86.25 298.421C86.25 297.665 85.9857 297.023 85.457 296.494C84.9284 295.964 84.2865 295.7 83.5312 295.7C82.7005 295.7 82.0114 296.021 81.4639 296.664C80.6709 295.946 79.9629 295.199 79.3398 294.424C79.5098 293.612 79.7646 292.808 80.1045 292.015C82.4079 291.372 85.07 291.136 88.0908 291.306ZM80.8408 298.648C80.8975 299.347 81.1854 299.938 81.7046 300.42C82.2238 300.902 82.8327 301.143 83.5312 301.143C83.7389 301.143 83.9655 301.105 84.2109 301.029C85.4193 301.729 86.7126 302.333 88.0908 302.844V302.957C88.0908 303.694 88.341 304.322 88.8413 304.842C89.3416 305.362 89.96 305.641 90.6963 305.678C91.1683 307.984 91.8291 310.091 92.6787 312C90.7907 311.887 89.0065 311.428 87.3262 310.625C85.6458 309.822 84.1968 308.778 82.979 307.493C81.7612 306.208 80.7936 304.696 80.0762 302.957C79.3587 301.218 79 299.404 79 297.514C79 297.495 79.0094 297.24 79.0283 296.749C79.557 297.41 80.1611 298.043 80.8408 298.648ZM93.1885 304.233C94.5479 304.478 95.9167 304.639 97.2949 304.715C97.4271 305.093 97.6348 305.442 97.918 305.763C97.4837 307.748 97.2194 309.675 97.125 311.546C96.1621 311.792 95.2747 311.943 94.4629 312C93.5755 309.978 92.8864 307.691 92.3955 305.14C92.7354 304.913 92.9997 304.611 93.1885 304.233ZM101.968 305.593C102.213 305.291 102.383 304.97 102.478 304.63C103.856 304.516 105.187 304.337 106.471 304.091C105.564 305.867 104.318 307.408 102.732 308.712C102.562 307.729 102.308 306.689 101.968 305.593ZM97.3516 302.9C96.0299 302.825 94.7272 302.655 93.4434 302.39C93.2357 301.445 92.6976 300.793 91.8291 300.434C91.7536 299.319 91.7158 298.346 91.7158 297.514C91.7158 296.267 91.7725 294.972 91.8857 293.63C91.9235 293.63 91.9707 293.612 92.0273 293.574C92.084 293.536 92.1217 293.517 92.1406 293.517C92.877 294.235 93.5189 294.897 94.0664 295.501C95.709 297.316 97.1061 299.376 98.2578 301.681C97.8424 302.003 97.5404 302.409 97.3516 302.9ZM99.8721 306.586C99.9098 306.586 100.014 306.576 100.184 306.557C100.505 307.71 100.741 308.853 100.892 309.987C100.344 310.309 99.6833 310.63 98.9092 310.951C99.0413 309.477 99.2679 308.012 99.5889 306.557C99.7399 306.576 99.8343 306.586 99.8721 306.586ZM99.7305 299.81C99.7116 299.848 99.688 299.905 99.6597 299.98C99.6313 300.056 99.6077 300.113 99.5889 300.151C98.3994 297.996 97.0023 296.04 95.3975 294.283C94.8122 293.621 94.1136 292.903 93.3018 292.128C93.3206 292.128 93.3348 292.114 93.3442 292.086L93.3584 292.043C94.9443 292.364 96.4642 292.761 97.918 293.234C98.8053 293.517 99.7777 293.895 100.835 294.368C100.797 294.557 100.778 294.698 100.778 294.793C100.778 295.36 100.948 295.879 101.288 296.352C100.665 297.543 100.146 298.695 99.7305 299.81ZM101.062 301.455C101.288 300.793 101.401 300.453 101.401 300.434C101.779 299.489 102.251 298.478 102.817 297.401C103.063 297.476 103.299 297.514 103.525 297.514C104.167 297.514 104.743 297.297 105.253 296.862C106.178 297.505 107.084 298.223 107.972 299.017C107.858 300.094 107.632 301.133 107.292 302.135C105.744 302.456 104.111 302.683 102.393 302.815C102.147 302.21 101.703 301.757 101.062 301.455ZM106.244 294.764C106.244 294.141 106.036 293.574 105.621 293.064C106.018 292.553 106.414 292.09 106.811 291.674C107.49 293.224 107.887 294.821 108 296.465C107.377 295.993 106.773 295.568 106.188 295.19C106.225 295.02 106.244 294.878 106.244 294.764Z" fill="#F5F5F5"/>
<path d="M101.172 373.63C103.207 371.594 104.351 368.833 104.351 365.955C104.351 363.076 103.207 360.315 101.172 358.279C100.165 357.271 98.9691 356.472 97.6526 355.926C96.3361 355.38 94.925 355.1 93.5 355.1C92.0749 355.1 90.6638 355.38 89.3473 355.926C88.0309 356.472 86.8348 357.271 85.8275 358.279C83.7925 360.315 82.6493 363.076 82.6493 365.955C82.6493 368.833 83.7925 371.594 85.8275 373.63L88.185 375.954L91.3517 379.031L91.5578 379.213C92.7591 380.187 94.5183 380.125 95.6498 379.031L99.4241 375.357L101.172 373.63ZM93.5 370.6C92.2667 370.6 91.084 370.11 90.2119 369.238C89.3399 368.366 88.85 367.183 88.85 365.95C88.85 364.717 89.3399 363.534 90.2119 362.662C91.084 361.79 92.2667 361.3 93.5 361.3C94.7332 361.3 95.916 361.79 96.788 362.662C97.6601 363.534 98.15 364.717 98.15 365.95C98.15 367.183 97.6601 368.366 96.788 369.238C95.916 370.11 94.7332 370.6 93.5 370.6Z" fill="#F5F5F5"/>
<path d="M99.7207 440.432C99.7207 441.566 100.043 442.018 100.887 442.018C102.768 442.018 103.965 439.622 103.965 435.637C103.965 429.546 99.5263 426.63 93.9846 426.63C88.2835 426.63 83.0982 430.453 83.0982 437.678C83.0982 444.579 87.6342 448.338 94.6002 448.338C96.9654 448.338 98.553 448.078 100.982 447.268L101.503 449.438C99.1051 450.217 96.5428 450.442 94.5678 450.442C85.431 450.442 80.5372 445.42 80.5372 437.677C80.5372 429.868 86.2086 424.555 94.017 424.555C102.149 424.555 106.457 429.415 106.457 435.376C106.457 440.431 104.871 444.286 99.8814 444.286C97.612 444.286 96.123 443.379 95.9286 441.369C95.3454 443.605 93.7902 444.286 91.6828 444.286C88.864 444.286 86.4988 442.114 86.4988 437.741C86.4988 433.335 88.5738 430.613 92.2998 430.613C94.2762 430.613 95.5074 431.391 96.0555 432.622L96.9964 430.905H99.718V440.432H99.7207ZM95.7369 436.155C95.7369 434.375 94.4071 433.628 93.3055 433.628C92.1067 433.628 90.7797 434.599 90.7797 437.451C90.7797 439.719 91.7841 440.983 93.3055 440.983C94.3747 440.983 95.7369 440.302 95.7369 438.423V436.155Z" fill="#F5F5F5"/>
<path d="M141.42 227.24H145.4V228.66H141.42V232.78H139.98V228.66H136V227.24H139.98V223.1H141.42V227.24ZM156.845 226.82C156.845 227.847 156.752 228.86 156.565 229.86C156.392 230.847 156.065 231.747 155.585 232.56C155.119 233.36 154.452 234 153.585 234.48C152.732 234.96 151.632 235.2 150.285 235.2C150.019 235.2 149.705 235.18 149.345 235.14C148.985 235.113 148.699 235.067 148.485 235V233.5C149.005 233.673 149.592 233.76 150.245 233.76C151.179 233.76 151.945 233.607 152.545 233.3C153.159 232.993 153.645 232.58 154.005 232.06C154.365 231.527 154.625 230.913 154.785 230.22C154.945 229.513 155.039 228.773 155.065 228H154.945C154.639 228.453 154.212 228.847 153.665 229.18C153.119 229.5 152.412 229.66 151.545 229.66C150.319 229.66 149.325 229.287 148.565 228.54C147.819 227.78 147.445 226.713 147.445 225.34C147.445 224.34 147.632 223.48 148.005 222.76C148.379 222.04 148.905 221.487 149.585 221.1C150.279 220.713 151.085 220.52 152.005 220.52C152.912 220.52 153.732 220.753 154.465 221.22C155.199 221.673 155.779 222.367 156.205 223.3C156.632 224.22 156.845 225.393 156.845 226.82ZM152.005 222C151.179 222 150.499 222.273 149.965 222.82C149.445 223.367 149.185 224.2 149.185 225.32C149.185 226.24 149.405 226.967 149.845 227.5C150.299 228.02 150.992 228.28 151.925 228.28C152.565 228.28 153.119 228.153 153.585 227.9C154.052 227.633 154.412 227.3 154.665 226.9C154.932 226.5 155.065 226.087 155.065 225.66C155.065 225.087 154.952 224.52 154.725 223.96C154.499 223.4 154.159 222.933 153.705 222.56C153.252 222.187 152.685 222 152.005 222ZM168.291 226.82C168.291 227.847 168.197 228.86 168.011 229.86C167.837 230.847 167.511 231.747 167.031 232.56C166.564 233.36 165.897 234 165.031 234.48C164.177 234.96 163.077 235.2 161.731 235.2C161.464 235.2 161.151 235.18 160.791 235.14C160.431 235.113 160.144 235.067 159.931 235V233.5C160.451 233.673 161.037 233.76 161.691 233.76C162.624 233.76 163.391 233.607 163.991 233.3C164.604 232.993 165.091 232.58 165.451 232.06C165.811 231.527 166.071 230.913 166.231 230.22C166.391 229.513 166.484 228.773 166.511 228H166.391C166.084 228.453 165.657 228.847 165.111 229.18C164.564 229.5 163.857 229.66 162.991 229.66C161.764 229.66 160.771 229.287 160.011 228.54C159.264 227.78 158.891 226.713 158.891 225.34C158.891 224.34 159.077 223.48 159.451 222.76C159.824 222.04 160.351 221.487 161.031 221.1C161.724 220.713 162.531 220.52 163.451 220.52C164.357 220.52 165.177 220.753 165.911 221.22C166.644 221.673 167.224 222.367 167.651 223.3C168.077 224.22 168.291 225.393 168.291 226.82ZM163.451 222C162.624 222 161.944 222.273 161.411 222.82C160.891 223.367 160.631 224.2 160.631 225.32C160.631 226.24 160.851 226.967 161.291 227.5C161.744 228.02 162.437 228.28 163.371 228.28C164.011 228.28 164.564 228.153 165.031 227.9C165.497 227.633 165.857 227.3 166.111 226.9C166.377 226.5 166.511 226.087 166.511 225.66C166.511 225.087 166.397 224.52 166.171 223.96C165.944 223.4 165.604 222.933 165.151 222.56C164.697 222.187 164.131 222 163.451 222ZM174.836 226.24C176.289 226.24 177.449 226.607 178.316 227.34C179.196 228.073 179.636 229.107 179.636 230.44C179.636 231.92 179.163 233.087 178.216 233.94C177.283 234.78 175.976 235.2 174.296 235.2C173.549 235.2 172.856 235.133 172.216 235C171.576 234.867 171.036 234.673 170.596 234.42V232.76C171.076 233.053 171.656 233.287 172.336 233.46C173.029 233.62 173.689 233.7 174.316 233.7C175.369 233.7 176.216 233.453 176.856 232.96C177.509 232.453 177.836 231.673 177.836 230.62C177.836 229.687 177.549 228.973 176.976 228.48C176.403 227.973 175.496 227.72 174.256 227.72C173.883 227.72 173.456 227.753 172.976 227.82C172.496 227.887 172.109 227.953 171.816 228.02L170.936 227.46L171.476 220.72H178.636V222.32H172.976L172.636 226.46C172.863 226.42 173.169 226.373 173.556 226.32C173.943 226.267 174.369 226.24 174.836 226.24ZM195.837 224.06C195.837 225.02 195.563 225.787 195.017 226.36C194.483 226.92 193.77 227.293 192.877 227.48V227.56C194.01 227.693 194.857 228.053 195.417 228.64C195.99 229.227 196.277 229.993 196.277 230.94C196.277 231.78 196.083 232.52 195.697 233.16C195.31 233.8 194.71 234.3 193.897 234.66C193.097 235.02 192.063 235.2 190.797 235.2C190.05 235.2 189.357 235.14 188.717 235.02C188.077 234.913 187.463 234.713 186.877 234.42V232.78C187.477 233.087 188.123 233.32 188.817 233.48C189.51 233.64 190.177 233.72 190.817 233.72C192.097 233.72 193.017 233.473 193.577 232.98C194.15 232.473 194.437 231.78 194.437 230.9C194.437 230.007 194.083 229.367 193.377 228.98C192.683 228.58 191.703 228.38 190.437 228.38H189.057V226.88H190.457C191.63 226.88 192.517 226.633 193.117 226.14C193.73 225.647 194.037 224.993 194.037 224.18C194.037 223.487 193.803 222.953 193.337 222.58C192.87 222.193 192.237 222 191.437 222C190.663 222 190.003 222.113 189.457 222.34C188.91 222.567 188.37 222.853 187.837 223.2L186.957 222C187.463 221.6 188.09 221.253 188.837 220.96C189.597 220.667 190.457 220.52 191.417 220.52C192.91 220.52 194.017 220.853 194.737 221.52C195.47 222.187 195.837 223.033 195.837 224.06ZM208.462 231.76H206.382V235H204.682V231.76H197.842V230.26L204.562 220.64H206.382V230.18H208.462V231.76ZM204.682 230.18V225.68C204.682 224.987 204.689 224.4 204.702 223.92C204.729 223.427 204.755 222.96 204.782 222.52H204.702C204.595 222.773 204.462 223.047 204.302 223.34C204.142 223.633 203.989 223.88 203.842 224.08L199.562 230.18H204.682ZM219.267 235H209.827V233.54L213.567 229.76C214.274 229.04 214.874 228.4 215.367 227.84C215.874 227.28 216.254 226.733 216.507 226.2C216.761 225.667 216.887 225.073 216.887 224.42C216.887 223.633 216.654 223.04 216.187 222.64C215.721 222.227 215.114 222.02 214.367 222.02C213.661 222.02 213.047 222.14 212.527 222.38C212.007 222.62 211.474 222.953 210.927 223.38L209.987 222.2C210.547 221.733 211.187 221.34 211.907 221.02C212.641 220.687 213.461 220.52 214.367 220.52C215.701 220.52 216.754 220.86 217.527 221.54C218.301 222.22 218.687 223.147 218.687 224.32C218.687 225.067 218.534 225.767 218.227 226.42C217.921 227.073 217.494 227.72 216.947 228.36C216.401 229 215.761 229.673 215.027 230.38L212.047 233.32V233.4H219.267V235ZM227.413 235H225.693V225.02C225.693 224.447 225.699 223.987 225.713 223.64C225.726 223.293 225.746 222.933 225.773 222.56C225.559 222.773 225.359 222.953 225.173 223.1C224.999 223.247 224.786 223.433 224.533 223.66L223.013 224.9L222.093 223.72L225.953 220.72H227.413V235ZM241.618 224.06C241.618 225.02 241.344 225.787 240.798 226.36C240.264 226.92 239.551 227.293 238.658 227.48V227.56C239.791 227.693 240.638 228.053 241.198 228.64C241.771 229.227 242.058 229.993 242.058 230.94C242.058 231.78 241.864 232.52 241.478 233.16C241.091 233.8 240.491 234.3 239.678 234.66C238.878 235.02 237.844 235.2 236.578 235.2C235.831 235.2 235.138 235.14 234.498 235.02C233.858 234.913 233.244 234.713 232.658 234.42V232.78C233.258 233.087 233.904 233.32 234.598 233.48C235.291 233.64 235.958 233.72 236.598 233.72C237.878 233.72 238.798 233.473 239.358 232.98C239.931 232.473 240.218 231.78 240.218 230.9C240.218 230.007 239.864 229.367 239.158 228.98C238.464 228.58 237.484 228.38 236.218 228.38H234.838V226.88H236.238C237.411 226.88 238.298 226.633 238.898 226.14C239.511 225.647 239.818 224.993 239.818 224.18C239.818 223.487 239.584 222.953 239.118 222.58C238.651 222.193 238.018 222 237.218 222C236.444 222 235.784 222.113 235.238 222.34C234.691 222.567 234.151 222.853 233.618 223.2L232.738 222C233.244 221.6 233.871 221.253 234.618 220.96C235.378 220.667 236.238 220.52 237.198 220.52C238.691 220.52 239.798 220.853 240.518 221.52C241.251 222.187 241.618 223.033 241.618 224.06ZM254.243 231.76H252.163V235H250.463V231.76H243.623V230.26L250.343 220.64H252.163V230.18H254.243V231.76ZM250.463 230.18V225.68C250.463 224.987 250.47 224.4 250.483 223.92C250.51 223.427 250.536 222.96 250.563 222.52H250.483C250.376 222.773 250.243 223.047 250.083 223.34C249.923 223.633 249.77 223.88 249.623 224.08L245.343 230.18H250.463ZM270.244 235H260.804V233.54L264.544 229.76C265.25 229.04 265.85 228.4 266.344 227.84C266.85 227.28 267.23 226.733 267.484 226.2C267.737 225.667 267.864 225.073 267.864 224.42C267.864 223.633 267.63 223.04 267.164 222.64C266.697 222.227 266.09 222.02 265.344 222.02C264.637 222.02 264.024 222.14 263.504 222.38C262.984 222.62 262.45 222.953 261.904 223.38L260.964 222.2C261.524 221.733 262.164 221.34 262.884 221.02C263.617 220.687 264.437 220.52 265.344 220.52C266.677 220.52 267.73 220.86 268.504 221.54C269.277 222.22 269.664 223.147 269.664 224.32C269.664 225.067 269.51 225.767 269.204 226.42C268.897 227.073 268.47 227.72 267.924 228.36C267.377 229 266.737 229.673 266.004 230.38L263.024 233.32V233.4H270.244V235ZM281.149 224.06C281.149 225.02 280.876 225.787 280.329 226.36C279.796 226.92 279.082 227.293 278.189 227.48V227.56C279.322 227.693 280.169 228.053 280.729 228.64C281.302 229.227 281.589 229.993 281.589 230.94C281.589 231.78 281.396 232.52 281.009 233.16C280.622 233.8 280.022 234.3 279.209 234.66C278.409 235.02 277.376 235.2 276.109 235.2C275.362 235.2 274.669 235.14 274.029 235.02C273.389 234.913 272.776 234.713 272.189 234.42V232.78C272.789 233.087 273.436 233.32 274.129 233.48C274.822 233.64 275.489 233.72 276.129 233.72C277.409 233.72 278.329 233.473 278.889 232.98C279.462 232.473 279.749 231.78 279.749 230.9C279.749 230.007 279.396 229.367 278.689 228.98C277.996 228.58 277.016 228.38 275.749 228.38H274.369V226.88H275.769C276.942 226.88 277.829 226.633 278.429 226.14C279.042 225.647 279.349 224.993 279.349 224.18C279.349 223.487 279.116 222.953 278.649 222.58C278.182 222.193 277.549 222 276.749 222C275.976 222 275.316 222.113 274.769 222.34C274.222 222.567 273.682 222.853 273.149 223.2L272.269 222C272.776 221.6 273.402 221.253 274.149 220.96C274.909 220.667 275.769 220.52 276.729 220.52C278.222 220.52 279.329 220.853 280.049 221.52C280.782 222.187 281.149 223.033 281.149 224.06ZM293.774 231.76H291.694V235H289.994V231.76H283.154V230.26L289.874 220.64H291.694V230.18H293.774V231.76ZM289.994 230.18V225.68C289.994 224.987 290.001 224.4 290.014 223.92C290.041 223.427 290.068 222.96 290.094 222.52H290.014C289.908 222.773 289.774 223.047 289.614 223.34C289.454 223.633 289.301 223.88 289.154 224.08L284.874 230.18H289.994Z" fill="#F37A81"/>
<path d="M145.46 304.98L143.62 298.94C143.447 298.393 143.293 297.86 143.16 297.34C143.027 296.82 142.933 296.407 142.88 296.1H142.8C142.747 296.407 142.66 296.82 142.54 297.34C142.42 297.86 142.267 298.4 142.08 298.96L140.16 304.98H138.16L135.22 294.26H137.04L138.52 299.98C138.667 300.553 138.807 301.133 138.94 301.72C139.073 302.307 139.167 302.793 139.22 303.18H139.3C139.34 302.953 139.4 302.673 139.48 302.34C139.56 302.007 139.647 301.66 139.74 301.3C139.833 300.927 139.927 300.593 140.02 300.3L141.92 294.26H143.84L145.68 300.3C145.813 300.767 145.953 301.267 146.1 301.8C146.247 302.333 146.347 302.787 146.4 303.16H146.48C146.52 302.827 146.607 302.367 146.74 301.78C146.887 301.193 147.04 300.593 147.2 299.98L148.7 294.26H150.5L147.52 304.98H145.46ZM161.183 304.98L159.343 298.94C159.169 298.393 159.016 297.86 158.883 297.34C158.749 296.82 158.656 296.407 158.603 296.1H158.523C158.469 296.407 158.383 296.82 158.263 297.34C158.143 297.86 157.989 298.4 157.803 298.96L155.883 304.98H153.883L150.943 294.26H152.763L154.243 299.98C154.389 300.553 154.529 301.133 154.663 301.72C154.796 302.307 154.889 302.793 154.943 303.18H155.023C155.063 302.953 155.123 302.673 155.203 302.34C155.283 302.007 155.369 301.66 155.463 301.3C155.556 300.927 155.649 300.593 155.743 300.3L157.643 294.26H159.563L161.403 300.3C161.536 300.767 161.676 301.267 161.823 301.8C161.969 302.333 162.069 302.787 162.123 303.16H162.203C162.243 302.827 162.329 302.367 162.463 301.78C162.609 301.193 162.763 300.593 162.923 299.98L164.423 294.26H166.223L163.243 304.98H161.183ZM176.905 304.98L175.065 298.94C174.892 298.393 174.739 297.86 174.605 297.34C174.472 296.82 174.379 296.407 174.325 296.1H174.245C174.192 296.407 174.105 296.82 173.985 297.34C173.865 297.86 173.712 298.4 173.525 298.96L171.605 304.98H169.605L166.665 294.26H168.485L169.965 299.98C170.112 300.553 170.252 301.133 170.385 301.72C170.519 302.307 170.612 302.793 170.665 303.18H170.745C170.785 302.953 170.845 302.673 170.925 302.34C171.005 302.007 171.092 301.66 171.185 301.3C171.279 300.927 171.372 300.593 171.465 300.3L173.365 294.26H175.285L177.125 300.3C177.259 300.767 177.399 301.267 177.545 301.8C177.692 302.333 177.792 302.787 177.845 303.16H177.925C177.965 302.827 178.052 302.367 178.185 301.78C178.332 301.193 178.485 300.593 178.645 299.98L180.145 294.26H181.945L178.965 304.98H176.905ZM182.807 303.92C182.807 303.427 182.927 303.08 183.167 302.88C183.407 302.68 183.694 302.58 184.027 302.58C184.361 302.58 184.654 302.68 184.907 302.88C185.161 303.08 185.287 303.427 185.287 303.92C185.287 304.4 185.161 304.747 184.907 304.96C184.654 305.173 184.361 305.28 184.027 305.28C183.694 305.28 183.407 305.173 183.167 304.96C182.927 304.747 182.807 304.4 182.807 303.92ZM197.179 304.98L195.339 298.94C195.165 298.393 195.012 297.86 194.879 297.34C194.745 296.82 194.652 296.407 194.599 296.1H194.519C194.465 296.407 194.379 296.82 194.259 297.34C194.139 297.86 193.985 298.4 193.799 298.96L191.879 304.98H189.879L186.939 294.26H188.759L190.239 299.98C190.385 300.553 190.525 301.133 190.659 301.72C190.792 302.307 190.885 302.793 190.939 303.18H191.019C191.059 302.953 191.119 302.673 191.199 302.34C191.279 302.007 191.365 301.66 191.459 301.3C191.552 300.927 191.645 300.593 191.739 300.3L193.639 294.26H195.559L197.399 300.3C197.532 300.767 197.672 301.267 197.819 301.8C197.965 302.333 198.065 302.787 198.119 303.16H198.199C198.239 302.827 198.325 302.367 198.459 301.78C198.605 301.193 198.759 300.593 198.919 299.98L200.419 294.26H202.219L199.239 304.98H197.179ZM208.281 294.08C209.188 294.08 209.975 294.28 210.641 294.68C211.308 295.08 211.815 295.647 212.161 296.38C212.521 297.1 212.701 297.947 212.701 298.92V299.98H205.361C205.388 301.193 205.695 302.12 206.281 302.76C206.881 303.387 207.715 303.7 208.781 303.7C209.461 303.7 210.061 303.64 210.581 303.52C211.115 303.387 211.661 303.2 212.221 302.96V304.5C211.675 304.74 211.135 304.913 210.601 305.02C210.068 305.14 209.435 305.2 208.701 305.2C207.675 305.2 206.775 304.993 206.001 304.58C205.228 304.167 204.621 303.553 204.181 302.74C203.755 301.927 203.541 300.92 203.541 299.72C203.541 298.547 203.735 297.54 204.121 296.7C204.521 295.86 205.075 295.213 205.781 294.76C206.501 294.307 207.335 294.08 208.281 294.08ZM208.261 295.52C207.421 295.52 206.755 295.793 206.261 296.34C205.781 296.873 205.495 297.62 205.401 298.58H210.861C210.848 297.673 210.635 296.94 210.221 296.38C209.808 295.807 209.155 295.52 208.261 295.52ZM217.19 289.8V293.5C217.19 293.953 217.177 294.38 217.15 294.78C217.137 295.167 217.117 295.473 217.09 295.7H217.19C217.497 295.247 217.917 294.867 218.45 294.56C218.984 294.253 219.67 294.1 220.51 294.1C221.844 294.1 222.91 294.567 223.71 295.5C224.524 296.42 224.93 297.8 224.93 299.64C224.93 301.48 224.524 302.867 223.71 303.8C222.897 304.733 221.83 305.2 220.51 305.2C219.67 305.2 218.984 305.047 218.45 304.74C217.917 304.433 217.497 304.067 217.19 303.64H217.05L216.69 305H215.43V289.8H217.19ZM220.21 295.56C219.064 295.56 218.27 295.887 217.83 296.54C217.404 297.193 217.19 298.207 217.19 299.58V299.66C217.19 300.98 217.404 301.993 217.83 302.7C218.27 303.393 219.077 303.74 220.25 303.74C221.21 303.74 221.924 303.387 222.39 302.68C222.87 301.973 223.11 300.953 223.11 299.62C223.11 296.913 222.144 295.56 220.21 295.56ZM234.715 302.04C234.715 303.08 234.328 303.867 233.555 304.4C232.782 304.933 231.742 305.2 230.435 305.2C229.688 305.2 229.042 305.14 228.495 305.02C227.962 304.9 227.488 304.733 227.075 304.52V302.92C227.502 303.133 228.015 303.333 228.615 303.52C229.228 303.693 229.848 303.78 230.475 303.78C231.368 303.78 232.015 303.64 232.415 303.36C232.815 303.067 233.015 302.68 233.015 302.2C233.015 301.933 232.942 301.693 232.795 301.48C232.648 301.267 232.382 301.053 231.995 300.84C231.622 300.627 231.082 300.387 230.375 300.12C229.682 299.853 229.088 299.587 228.595 299.32C228.102 299.053 227.722 298.733 227.455 298.36C227.188 297.987 227.055 297.507 227.055 296.92C227.055 296.013 227.422 295.313 228.155 294.82C228.902 294.327 229.875 294.08 231.075 294.08C231.728 294.08 232.335 294.147 232.895 294.28C233.468 294.413 234.002 294.587 234.495 294.8L233.895 296.2C233.442 296.013 232.968 295.853 232.475 295.72C231.982 295.587 231.475 295.52 230.955 295.52C230.235 295.52 229.682 295.64 229.295 295.88C228.922 296.107 228.735 296.42 228.735 296.82C228.735 297.127 228.822 297.38 228.995 297.58C229.168 297.78 229.455 297.98 229.855 298.18C230.268 298.38 230.815 298.607 231.495 298.86C232.175 299.113 232.755 299.373 233.235 299.64C233.715 299.907 234.082 300.233 234.335 300.62C234.588 300.993 234.715 301.467 234.715 302.04ZM238.205 290.26C238.472 290.26 238.705 290.353 238.905 290.54C239.119 290.713 239.225 290.993 239.225 291.38C239.225 291.767 239.119 292.053 238.905 292.24C238.705 292.413 238.472 292.5 238.205 292.5C237.912 292.5 237.665 292.413 237.465 292.24C237.265 292.053 237.165 291.767 237.165 291.38C237.165 290.993 237.265 290.713 237.465 290.54C237.665 290.353 237.912 290.26 238.205 290.26ZM239.065 294.28V305H237.305V294.28H239.065ZM246.042 303.76C246.308 303.76 246.582 303.74 246.862 303.7C247.142 303.66 247.368 303.607 247.542 303.54V304.88C247.355 304.973 247.088 305.047 246.742 305.1C246.395 305.167 246.062 305.2 245.742 305.2C245.182 305.2 244.662 305.107 244.182 304.92C243.715 304.72 243.335 304.38 243.042 303.9C242.748 303.42 242.602 302.747 242.602 301.88V295.64H241.082V294.8L242.622 294.1L243.322 291.82H244.362V294.28H247.462V295.64H244.362V301.84C244.362 302.493 244.515 302.98 244.822 303.3C245.142 303.607 245.548 303.76 246.042 303.76ZM253.828 294.08C254.735 294.08 255.522 294.28 256.188 294.68C256.855 295.08 257.362 295.647 257.708 296.38C258.068 297.1 258.248 297.947 258.248 298.92V299.98H250.908C250.935 301.193 251.242 302.12 251.828 302.76C252.428 303.387 253.262 303.7 254.328 303.7C255.008 303.7 255.608 303.64 256.128 303.52C256.662 303.387 257.208 303.2 257.768 302.96V304.5C257.222 304.74 256.682 304.913 256.148 305.02C255.615 305.14 254.982 305.2 254.248 305.2C253.222 305.2 252.322 304.993 251.548 304.58C250.775 304.167 250.168 303.553 249.728 302.74C249.302 301.927 249.088 300.92 249.088 299.72C249.088 298.547 249.282 297.54 249.668 296.7C250.068 295.86 250.622 295.213 251.328 294.76C252.048 294.307 252.882 294.08 253.828 294.08ZM253.808 295.52C252.968 295.52 252.302 295.793 251.808 296.34C251.328 296.873 251.042 297.62 250.948 298.58H256.408C256.395 297.673 256.182 296.94 255.768 296.38C255.355 295.807 254.702 295.52 253.808 295.52ZM260.717 303.92C260.717 303.427 260.837 303.08 261.077 302.88C261.317 302.68 261.604 302.58 261.937 302.58C262.271 302.58 262.564 302.68 262.817 302.88C263.071 303.08 263.197 303.427 263.197 303.92C263.197 304.4 263.071 304.747 262.817 304.96C262.564 305.173 262.271 305.28 261.937 305.28C261.604 305.28 261.317 305.173 261.077 304.96C260.837 304.747 260.717 304.4 260.717 303.92ZM270.129 294.08C270.836 294.08 271.469 294.213 272.029 294.48C272.602 294.747 273.089 295.153 273.489 295.7H273.589L273.829 294.28H275.229V305.18C275.229 306.713 274.836 307.867 274.049 308.64C273.276 309.413 272.069 309.8 270.429 309.8C268.856 309.8 267.569 309.573 266.569 309.12V307.5C267.622 308.06 268.942 308.34 270.529 308.34C271.449 308.34 272.169 308.067 272.689 307.52C273.222 306.987 273.489 306.253 273.489 305.32V304.9C273.489 304.74 273.496 304.513 273.509 304.22C273.522 303.913 273.536 303.7 273.549 303.58H273.469C272.749 304.66 271.642 305.2 270.149 305.2C268.762 305.2 267.676 304.713 266.889 303.74C266.116 302.767 265.729 301.407 265.729 299.66C265.729 297.953 266.116 296.6 266.889 295.6C267.676 294.587 268.756 294.08 270.129 294.08ZM270.369 295.56C269.476 295.56 268.782 295.92 268.289 296.64C267.796 297.347 267.549 298.36 267.549 299.68C267.549 301 267.789 302.013 268.269 302.72C268.749 303.413 269.462 303.76 270.409 303.76C271.489 303.76 272.276 303.473 272.769 302.9C273.262 302.313 273.509 301.373 273.509 300.08V299.66C273.509 298.207 273.256 297.16 272.749 296.52C272.242 295.88 271.449 295.56 270.369 295.56ZM282.774 294.08C283.68 294.08 284.467 294.28 285.134 294.68C285.8 295.08 286.307 295.647 286.654 296.38C287.014 297.1 287.194 297.947 287.194 298.92V299.98H279.854C279.88 301.193 280.187 302.12 280.774 302.76C281.374 303.387 282.207 303.7 283.274 303.7C283.954 303.7 284.554 303.64 285.074 303.52C285.607 303.387 286.154 303.2 286.714 302.96V304.5C286.167 304.74 285.627 304.913 285.094 305.02C284.56 305.14 283.927 305.2 283.194 305.2C282.167 305.2 281.267 304.993 280.494 304.58C279.72 304.167 279.114 303.553 278.674 302.74C278.247 301.927 278.034 300.92 278.034 299.72C278.034 298.547 278.227 297.54 278.614 296.7C279.014 295.86 279.567 295.213 280.274 294.76C280.994 294.307 281.827 294.08 282.774 294.08ZM282.754 295.52C281.914 295.52 281.247 295.793 280.754 296.34C280.274 296.873 279.987 297.62 279.894 298.58H285.354C285.34 297.673 285.127 296.94 284.714 296.38C284.3 295.807 283.647 295.52 282.754 295.52Z" fill="#F37A81"/>
<path d="M140.44 376.2C139.613 376.2 138.86 376.047 138.18 375.74C137.513 375.433 136.98 374.98 136.58 374.38C136.193 373.78 136 373.033 136 372.14C136 371.847 136.027 371.567 136.08 371.3C136.133 371.02 136.193 370.8 136.26 370.64H137.94C137.887 370.827 137.84 371.047 137.8 371.3C137.773 371.553 137.76 371.833 137.76 372.14C137.76 372.993 138 373.64 138.48 374.08C138.973 374.52 139.627 374.74 140.44 374.74C141.253 374.74 141.893 374.52 142.36 374.08C142.827 373.627 143.06 372.947 143.06 372.04C143.06 371.347 142.907 370.787 142.6 370.36C142.307 369.933 141.973 369.527 141.6 369.14C141.28 368.82 140.96 368.487 140.64 368.14C140.32 367.78 140.053 367.373 139.84 366.92C139.64 366.453 139.54 365.907 139.54 365.28H141.3C141.3 365.867 141.453 366.373 141.76 366.8C142.08 367.227 142.447 367.647 142.86 368.06C143.193 368.393 143.513 368.747 143.82 369.12C144.127 369.48 144.38 369.9 144.58 370.38C144.78 370.847 144.88 371.4 144.88 372.04C144.88 372.867 144.687 373.593 144.3 374.22C143.913 374.847 143.387 375.333 142.72 375.68C142.053 376.027 141.293 376.2 140.44 376.2ZM156.337 381C155.897 380.16 155.297 379.493 154.537 379C153.777 378.507 153.01 378.26 152.237 378.26C151.677 378.26 151.163 378.32 150.697 378.44C150.243 378.56 149.75 378.747 149.217 379L148.617 377.76C148.923 377.613 149.277 377.48 149.677 377.36C150.09 377.24 150.61 377.167 151.237 377.14V377.08C148.463 375.787 147.077 373.6 147.077 370.52C147.077 369.427 147.23 368.473 147.537 367.66C147.843 366.847 148.297 366.213 148.897 365.76C149.497 365.307 150.243 365.08 151.137 365.08C151.883 365.08 152.483 365.253 152.937 365.6C153.403 365.933 153.743 366.393 153.957 366.98H154.057C154.27 366.393 154.617 365.933 155.097 365.6C155.59 365.253 156.19 365.08 156.897 365.08C157.79 365.08 158.537 365.307 159.137 365.76C159.737 366.213 160.19 366.847 160.497 367.66C160.803 368.473 160.957 369.413 160.957 370.48C160.957 371.333 160.863 372.127 160.677 372.86C160.503 373.593 160.23 374.313 159.857 375.02L158.337 374.46C158.643 373.807 158.857 373.173 158.977 372.56C159.097 371.933 159.157 371.233 159.157 370.46C159.157 369.167 158.95 368.193 158.537 367.54C158.123 366.873 157.53 366.54 156.757 366.54C156.157 366.54 155.69 366.767 155.357 367.22C155.023 367.673 154.857 368.313 154.857 369.14V372.36H153.177V369.14C153.177 368.393 153.023 367.773 152.717 367.28C152.41 366.787 151.923 366.54 151.257 366.54C150.497 366.54 149.91 366.873 149.497 367.54C149.083 368.193 148.877 369.173 148.877 370.48C148.877 371.68 149.063 372.673 149.437 373.46C149.81 374.233 150.31 374.867 150.937 375.36C151.563 375.853 152.263 376.267 153.037 376.6C153.81 376.933 154.477 377.253 155.037 377.56C155.61 377.88 156.11 378.253 156.537 378.68C156.963 379.107 157.343 379.64 157.677 380.28L156.337 381ZM167.911 376.2C166.497 376.2 165.351 375.74 164.471 374.82C163.591 373.887 163.151 372.5 163.151 370.66C163.151 368.913 163.551 367.58 164.351 366.66C165.164 365.74 166.237 365.28 167.571 365.28C168.397 365.28 169.071 365.433 169.591 365.74C170.124 366.047 170.557 366.42 170.891 366.86H171.011C170.984 366.713 170.957 366.507 170.931 366.24C170.904 365.973 170.891 365.727 170.891 365.5V364.58C170.891 363.847 170.677 363.233 170.251 362.74C169.824 362.247 169.117 362 168.131 362C167.371 362 166.751 362.167 166.271 362.5C165.791 362.833 165.551 363.273 165.551 363.82C165.551 363.9 165.551 363.98 165.551 364.06C165.564 364.14 165.577 364.22 165.591 364.3H163.891C163.851 364.167 163.824 364.04 163.811 363.92C163.797 363.8 163.791 363.687 163.791 363.58C163.791 362.993 163.984 362.48 164.371 362.04C164.757 361.587 165.277 361.233 165.931 360.98C166.597 360.727 167.331 360.6 168.131 360.6C169.544 360.6 170.651 360.98 171.451 361.74C172.251 362.5 172.651 363.5 172.651 364.74V370.66C172.651 372.5 172.244 373.887 171.431 374.82C170.617 375.74 169.444 376.2 167.911 376.2ZM167.911 374.74C169.004 374.74 169.777 374.4 170.231 373.72C170.684 373.04 170.911 372.133 170.911 371V370.68C170.911 369.453 170.691 368.493 170.251 367.8C169.811 367.093 168.997 366.74 167.811 366.74C166.864 366.74 166.151 367.107 165.671 367.84C165.204 368.573 164.971 369.527 164.971 370.7C164.971 371.98 165.211 372.973 165.691 373.68C166.171 374.387 166.911 374.74 167.911 374.74ZM179.6 376.2C178.773 376.2 178.02 376.047 177.34 375.74C176.673 375.433 176.14 374.98 175.74 374.38C175.353 373.78 175.16 373.033 175.16 372.14C175.16 371.847 175.187 371.567 175.24 371.3C175.293 371.02 175.353 370.8 175.42 370.64H177.1C177.047 370.827 177 371.047 176.96 371.3C176.933 371.553 176.92 371.833 176.92 372.14C176.92 372.993 177.16 373.64 177.64 374.08C178.133 374.52 178.787 374.74 179.6 374.74C180.413 374.74 181.053 374.52 181.52 374.08C181.987 373.627 182.22 372.947 182.22 372.04C182.22 371.347 182.067 370.787 181.76 370.36C181.467 369.933 181.133 369.527 180.76 369.14C180.44 368.82 180.12 368.487 179.8 368.14C179.48 367.78 179.213 367.373 179 366.92C178.8 366.453 178.7 365.907 178.7 365.28H180.46C180.46 365.867 180.613 366.373 180.92 366.8C181.24 367.227 181.607 367.647 182.02 368.06C182.353 368.393 182.673 368.747 182.98 369.12C183.287 369.48 183.54 369.9 183.74 370.38C183.94 370.847 184.04 371.4 184.04 372.04C184.04 372.867 183.847 373.593 183.46 374.22C183.073 374.847 182.547 375.333 181.88 375.68C181.213 376.027 180.453 376.2 179.6 376.2ZM190.997 376.2C190.05 376.2 189.217 376 188.497 375.6C187.79 375.187 187.237 374.587 186.837 373.8C186.437 373 186.237 372.02 186.237 370.86C186.237 369.22 186.637 367.947 187.437 367.04C188.25 366.133 189.323 365.68 190.657 365.68C191.483 365.68 192.157 365.833 192.677 366.14C193.21 366.447 193.643 366.82 193.977 367.26H194.097C194.07 367.113 194.043 366.907 194.017 366.64C193.99 366.373 193.977 366.127 193.977 365.9V363.98C193.977 363.353 193.837 362.867 193.557 362.52C193.277 362.173 192.89 362 192.397 362C191.943 362 191.577 362.133 191.297 362.4C191.017 362.667 190.877 363.047 190.877 363.54V364.38H189.177V363.54C189.177 363.033 189.03 362.66 188.737 362.42C188.457 362.167 188.137 362.04 187.777 362.04C187.523 362.04 187.277 362.073 187.037 362.14C186.81 362.207 186.583 362.273 186.357 362.34L185.917 361C186.17 360.893 186.45 360.8 186.757 360.72C187.063 360.64 187.41 360.6 187.797 360.6C188.21 360.6 188.617 360.693 189.017 360.88C189.417 361.067 189.743 361.46 189.997 362.06H190.057C190.323 361.46 190.69 361.067 191.157 360.88C191.623 360.693 192.083 360.6 192.537 360.6C193.11 360.6 193.637 360.72 194.117 360.96C194.61 361.2 195.003 361.567 195.297 362.06C195.59 362.553 195.737 363.18 195.737 363.94V370.86C195.737 372.607 195.33 373.933 194.517 374.84C193.703 375.747 192.53 376.2 190.997 376.2ZM190.997 374.74C192.09 374.74 192.863 374.407 193.317 373.74C193.77 373.073 193.997 372.227 193.997 371.2V370.88C193.997 370.133 193.903 369.48 193.717 368.92C193.53 368.347 193.21 367.907 192.757 367.6C192.317 367.293 191.697 367.14 190.897 367.14C190.257 367.14 189.723 367.307 189.297 367.64C188.883 367.96 188.57 368.407 188.357 368.98C188.157 369.553 188.057 370.193 188.057 370.9C188.057 372.087 188.297 373.027 188.777 373.72C189.257 374.4 189.997 374.74 190.997 374.74ZM202.475 381C201.555 381 200.749 380.8 200.055 380.4C199.362 380.013 198.822 379.467 198.435 378.76C198.049 378.053 197.855 377.22 197.855 376.26C197.855 375.873 197.889 375.513 197.955 375.18C198.035 374.833 198.122 374.547 198.215 374.32H199.895C199.829 374.533 199.762 374.813 199.695 375.16C199.642 375.493 199.615 375.807 199.615 376.1C199.615 377.073 199.849 377.887 200.315 378.54C200.795 379.207 201.515 379.54 202.475 379.54C203.502 379.54 204.235 379.2 204.675 378.52C205.129 377.84 205.355 376.933 205.355 375.8V369.72C205.355 368.707 205.142 367.927 204.715 367.38C204.302 366.82 203.669 366.54 202.815 366.54C202.042 366.54 201.409 366.76 200.915 367.2C200.435 367.64 200.195 368.287 200.195 369.14C200.195 369.447 200.209 369.727 200.235 369.98C200.275 370.233 200.322 370.453 200.375 370.64H198.695C198.642 370.48 198.582 370.267 198.515 370C198.462 369.72 198.435 369.433 198.435 369.14C198.435 368.247 198.629 367.5 199.015 366.9C199.415 366.3 199.942 365.847 200.595 365.54C201.262 365.233 202.002 365.08 202.815 365.08C204.122 365.08 205.162 365.48 205.935 366.28C206.722 367.067 207.115 368.187 207.115 369.64V375.88C207.115 377.507 206.709 378.767 205.895 379.66C205.082 380.553 203.942 381 202.475 381ZM214.658 376.2C213.125 376.2 211.951 375.74 211.138 374.82C210.325 373.887 209.918 372.5 209.918 370.66V364.44C209.918 363.587 210.071 362.893 210.378 362.36C210.698 361.813 211.131 361.42 211.678 361.18C212.225 360.927 212.838 360.8 213.518 360.8H218.238V362.28H213.758C213.118 362.28 212.611 362.44 212.238 362.76C211.865 363.067 211.678 363.607 211.678 364.38V365.08C211.678 365.28 211.658 365.553 211.618 365.9C211.591 366.233 211.571 366.487 211.558 366.66H211.678C212.011 366.22 212.438 365.847 212.958 365.54C213.491 365.233 214.171 365.08 214.998 365.08C216.331 365.08 217.398 365.553 218.198 366.5C219.011 367.433 219.418 368.82 219.418 370.66C219.418 372.5 218.978 373.887 218.098 374.82C217.218 375.74 216.071 376.2 214.658 376.2ZM214.658 374.74C215.658 374.74 216.398 374.387 216.878 373.68C217.358 372.973 217.598 371.98 217.598 370.7C217.598 369.433 217.358 368.427 216.878 367.68C216.411 366.92 215.705 366.54 214.758 366.54C213.971 366.54 213.351 366.7 212.898 367.02C212.445 367.327 212.125 367.773 211.938 368.36C211.751 368.947 211.658 369.64 211.658 370.44V371C211.658 372.133 211.885 373.04 212.338 373.72C212.791 374.4 213.565 374.74 214.658 374.74ZM225.952 381C225.032 381 224.225 380.8 223.532 380.4C222.839 380.013 222.299 379.467 221.912 378.76C221.525 378.053 221.332 377.22 221.332 376.26C221.332 375.873 221.365 375.513 221.432 375.18C221.512 374.833 221.599 374.547 221.692 374.32H223.372C223.305 374.533 223.239 374.813 223.172 375.16C223.119 375.493 223.092 375.807 223.092 376.1C223.092 377.073 223.325 377.887 223.792 378.54C224.272 379.207 224.992 379.54 225.952 379.54C226.979 379.54 227.712 379.2 228.152 378.52C228.605 377.84 228.832 376.933 228.832 375.8V369.72C228.832 368.707 228.619 367.927 228.192 367.38C227.779 366.82 227.145 366.54 226.292 366.54C225.519 366.54 224.885 366.76 224.392 367.2C223.912 367.64 223.672 368.287 223.672 369.14C223.672 369.447 223.685 369.727 223.712 369.98C223.752 370.233 223.799 370.453 223.852 370.64H222.172C222.119 370.48 222.059 370.267 221.992 370C221.939 369.72 221.912 369.433 221.912 369.14C221.912 368.247 222.105 367.5 222.492 366.9C222.892 366.3 223.419 365.847 224.072 365.54C224.739 365.233 225.479 365.08 226.292 365.08C227.599 365.08 228.639 365.48 229.412 366.28C230.199 367.067 230.592 368.187 230.592 369.64V375.88C230.592 377.507 230.185 378.767 229.372 379.66C228.559 380.553 227.419 381 225.952 381ZM239.29 365.18C240.437 365.407 241.357 365.987 242.05 366.92C242.757 367.853 243.11 369.087 243.11 370.62C243.11 372.393 242.657 373.767 241.75 374.74C240.857 375.713 239.643 376.2 238.11 376.2C237.163 376.2 236.317 375.987 235.57 375.56C234.837 375.12 234.257 374.487 233.83 373.66C233.403 372.82 233.19 371.807 233.19 370.62C233.19 368.953 233.583 367.647 234.37 366.7C235.157 365.753 236.237 365.22 237.61 365.1C237.677 364.98 237.73 364.84 237.77 364.68C237.823 364.52 237.85 364.327 237.85 364.1C237.85 363.847 237.783 363.64 237.65 363.48C237.53 363.307 237.377 363.147 237.19 363C236.91 362.787 236.637 362.52 236.37 362.2C236.103 361.88 235.97 361.413 235.97 360.8H237.73C237.73 361.107 237.803 361.373 237.95 361.6C238.097 361.813 238.277 362.007 238.49 362.18C238.757 362.407 239.003 362.66 239.23 362.94C239.457 363.22 239.57 363.567 239.57 363.98C239.57 364.433 239.477 364.833 239.29 365.18ZM238.15 374.74C239.23 374.74 240.023 374.373 240.53 373.64C241.037 372.893 241.29 371.887 241.29 370.62C241.29 369.353 241.037 368.36 240.53 367.64C240.023 366.92 239.223 366.56 238.13 366.56C237.037 366.56 236.243 366.92 235.75 367.64C235.257 368.36 235.01 369.353 235.01 370.62C235.01 371.887 235.257 372.893 235.75 373.64C236.257 374.373 237.057 374.74 238.15 374.74ZM258.179 381C257.565 380 256.719 379.24 255.639 378.72C254.572 378.2 253.445 377.94 252.259 377.94C251.605 377.94 250.965 378.027 250.339 378.2C249.712 378.387 249.105 378.647 248.519 378.98L247.819 377.7C248.232 377.5 248.672 377.327 249.139 377.18C249.619 377.033 250.092 376.947 250.559 376.92V376.86C249.599 376.553 248.719 376.12 247.919 375.56C247.132 374.987 246.499 374.26 246.019 373.38C245.552 372.487 245.319 371.4 245.319 370.12C245.319 368.6 245.652 367.38 246.319 366.46C246.999 365.54 247.985 365.08 249.279 365.08C250.012 365.08 250.612 365.253 251.079 365.6C251.545 365.933 251.885 366.393 252.099 366.98H252.199C252.425 366.393 252.779 365.933 253.259 365.6C253.739 365.253 254.352 365.08 255.099 365.08C255.872 365.08 256.492 365.253 256.959 365.6C257.439 365.933 257.785 366.393 257.999 366.98H258.099C258.312 366.393 258.659 365.933 259.139 365.6C259.632 365.253 260.232 365.08 260.939 365.08C261.792 365.08 262.512 365.307 263.099 365.76C263.699 366.213 264.145 366.847 264.439 367.66C264.745 368.473 264.899 369.413 264.899 370.48C264.899 371.333 264.805 372.127 264.619 372.86C264.445 373.593 264.172 374.313 263.799 375.02L262.279 374.46C262.585 373.807 262.799 373.173 262.919 372.56C263.039 371.933 263.099 371.233 263.099 370.46C263.099 369.167 262.892 368.193 262.479 367.54C262.079 366.873 261.519 366.54 260.799 366.54C260.199 366.54 259.732 366.767 259.399 367.22C259.065 367.673 258.899 368.313 258.899 369.14V372.36H257.219V369.14C257.219 368.393 257.052 367.773 256.719 367.28C256.399 366.787 255.859 366.54 255.099 366.54C254.405 366.54 253.879 366.767 253.519 367.22C253.172 367.673 252.999 368.313 252.999 369.14V372.36H251.319V369.14C251.319 368.393 251.159 367.773 250.839 367.28C250.532 366.787 250.052 366.54 249.399 366.54C248.692 366.54 248.132 366.833 247.719 367.42C247.319 368.007 247.119 368.907 247.119 370.12C247.119 371.053 247.265 371.867 247.559 372.56C247.865 373.24 248.279 373.82 248.799 374.3C249.319 374.78 249.905 375.173 250.559 375.48C251.225 375.773 251.919 376 252.639 376.16C253.532 376.347 254.432 376.6 255.339 376.92C256.245 377.253 257.065 377.687 257.799 378.22C258.532 378.767 259.105 379.453 259.519 380.28L258.179 381ZM268.316 376C267.903 375.067 267.596 374.173 267.396 373.32C267.196 372.467 267.096 371.52 267.096 370.48C267.096 368.84 267.489 367.533 268.276 366.56C269.076 365.573 270.229 365.08 271.736 365.08C273.269 365.08 274.423 365.573 275.196 366.56C275.983 367.533 276.376 368.84 276.376 370.48C276.376 371.52 276.276 372.467 276.076 373.32C275.876 374.173 275.569 375.067 275.156 376H273.356C273.783 375.067 274.089 374.173 274.276 373.32C274.476 372.467 274.576 371.513 274.576 370.46C274.576 369.167 274.323 368.193 273.816 367.54C273.323 366.873 272.629 366.54 271.736 366.54C270.843 366.54 270.143 366.873 269.636 367.54C269.143 368.193 268.896 369.167 268.896 370.46C268.896 371.513 268.989 372.467 269.176 373.32C269.376 374.173 269.689 375.067 270.116 376H268.316ZM283.72 376.2C282.187 376.2 281.014 375.747 280.2 374.84C279.387 373.92 278.98 372.58 278.98 370.82V360.8H280.74V371C280.74 372.133 280.974 373.04 281.44 373.72C281.907 374.4 282.667 374.74 283.72 374.74C284.387 374.74 284.934 374.593 285.36 374.3C285.8 373.993 286.127 373.587 286.34 373.08C286.554 372.573 286.66 372.007 286.66 371.38C286.66 370.833 286.567 370.36 286.38 369.96C286.207 369.56 285.987 369.173 285.72 368.8C285.4 368.347 285.1 367.853 284.82 367.32C284.554 366.787 284.42 366.107 284.42 365.28H286.18C286.18 365.88 286.3 366.407 286.54 366.86C286.78 367.3 287.06 367.747 287.38 368.2C287.687 368.627 287.947 369.1 288.16 369.62C288.374 370.127 288.48 370.733 288.48 371.44C288.48 372.4 288.28 373.24 287.88 373.96C287.48 374.667 286.92 375.22 286.2 375.62C285.48 376.007 284.654 376.2 283.72 376.2ZM304.385 367.28L303.765 370.48H306.505V371.82H303.505L302.685 376H301.265L302.085 371.82H299.225L298.445 376H297.045L297.805 371.82H295.285V370.48H298.065L298.705 367.28H296.025V365.96H298.945L299.745 361.72H301.185L300.385 365.96H303.265L304.065 361.72H305.445L304.645 365.96H307.185V367.28H304.385ZM299.485 370.48H302.345L302.965 367.28H300.105L299.485 370.48ZM314.815 376H313.095V366.02C313.095 365.447 313.102 364.987 313.115 364.64C313.128 364.293 313.148 363.933 313.175 363.56C312.962 363.773 312.762 363.953 312.575 364.1C312.402 364.247 312.188 364.433 311.935 364.66L310.415 365.9L309.495 364.72L313.355 361.72H314.815V376ZM329.56 376H320.12V374.54L323.86 370.76C324.567 370.04 325.167 369.4 325.66 368.84C326.167 368.28 326.547 367.733 326.8 367.2C327.053 366.667 327.18 366.073 327.18 365.42C327.18 364.633 326.947 364.04 326.48 363.64C326.013 363.227 325.407 363.02 324.66 363.02C323.953 363.02 323.34 363.14 322.82 363.38C322.3 363.62 321.767 363.953 321.22 364.38L320.28 363.2C320.84 362.733 321.48 362.34 322.2 362.02C322.933 361.687 323.753 361.52 324.66 361.52C325.993 361.52 327.047 361.86 327.82 362.54C328.593 363.22 328.98 364.147 328.98 365.32C328.98 366.067 328.827 366.767 328.52 367.42C328.213 368.073 327.787 368.72 327.24 369.36C326.693 370 326.053 370.673 325.32 371.38L322.34 374.32V374.4H329.56V376Z" fill="#F37A81"/>
<path d="M140.84 434.08C141.747 434.08 142.533 434.28 143.2 434.68C143.867 435.08 144.373 435.647 144.72 436.38C145.08 437.1 145.26 437.947 145.26 438.92V439.98H137.92C137.947 441.193 138.253 442.12 138.84 442.76C139.44 443.387 140.273 443.7 141.34 443.7C142.02 443.7 142.62 443.64 143.14 443.52C143.673 443.387 144.22 443.2 144.78 442.96V444.5C144.233 444.74 143.693 444.913 143.16 445.02C142.627 445.14 141.993 445.2 141.26 445.2C140.233 445.2 139.333 444.993 138.56 444.58C137.787 444.167 137.18 443.553 136.74 442.74C136.313 441.927 136.1 440.92 136.1 439.72C136.1 438.547 136.293 437.54 136.68 436.7C137.08 435.86 137.633 435.213 138.34 434.76C139.06 434.307 139.893 434.08 140.84 434.08ZM140.82 435.52C139.98 435.52 139.313 435.793 138.82 436.34C138.34 436.873 138.053 437.62 137.96 438.58H143.42C143.407 437.673 143.193 436.94 142.78 436.38C142.367 435.807 141.713 435.52 140.82 435.52ZM159.749 434.08C160.962 434.08 161.869 434.393 162.469 435.02C163.069 435.647 163.369 436.647 163.369 438.02V445H161.629V438.1C161.629 436.407 160.902 435.56 159.449 435.56C158.409 435.56 157.662 435.86 157.209 436.46C156.769 437.06 156.549 437.933 156.549 439.08V445H154.809V438.1C154.809 436.407 154.076 435.56 152.609 435.56C151.529 435.56 150.782 435.893 150.369 436.56C149.956 437.227 149.749 438.187 149.749 439.44V445H147.989V434.28H149.409L149.669 435.74H149.769C150.102 435.18 150.549 434.767 151.109 434.5C151.682 434.22 152.289 434.08 152.929 434.08C154.609 434.08 155.702 434.68 156.209 435.88H156.309C156.669 435.267 157.156 434.813 157.769 434.52C158.382 434.227 159.042 434.08 159.749 434.08ZM170.74 434.1C172.047 434.1 173.014 434.387 173.64 434.96C174.267 435.533 174.58 436.447 174.58 437.7V445H173.3L172.96 443.48H172.88C172.414 444.067 171.92 444.5 171.4 444.78C170.88 445.06 170.174 445.2 169.28 445.2C168.307 445.2 167.5 444.947 166.86 444.44C166.22 443.92 165.9 443.113 165.9 442.02C165.9 440.953 166.32 440.133 167.16 439.56C168 438.973 169.294 438.653 171.04 438.6L172.86 438.54V437.9C172.86 437.007 172.667 436.387 172.28 436.04C171.894 435.693 171.347 435.52 170.64 435.52C170.08 435.52 169.547 435.607 169.04 435.78C168.534 435.94 168.06 436.127 167.62 436.34L167.08 435.02C167.547 434.767 168.1 434.553 168.74 434.38C169.38 434.193 170.047 434.1 170.74 434.1ZM172.84 439.76L171.26 439.82C169.927 439.873 169 440.087 168.48 440.46C167.974 440.833 167.72 441.36 167.72 442.04C167.72 442.64 167.9 443.08 168.26 443.36C168.634 443.64 169.107 443.78 169.68 443.78C170.574 443.78 171.32 443.533 171.92 443.04C172.534 442.533 172.84 441.76 172.84 440.72V439.76ZM178.791 430.26C179.058 430.26 179.291 430.353 179.491 430.54C179.705 430.713 179.811 430.993 179.811 431.38C179.811 431.767 179.705 432.053 179.491 432.24C179.291 432.413 179.058 432.5 178.791 432.5C178.498 432.5 178.251 432.413 178.051 432.24C177.851 432.053 177.751 431.767 177.751 431.38C177.751 430.993 177.851 430.713 178.051 430.54C178.251 430.353 178.498 430.26 178.791 430.26ZM179.651 434.28V445H177.891V434.28H179.651ZM184.808 445H183.048V429.8H184.808V445ZM203.324 437.86C203.324 438.473 203.251 439.073 203.104 439.66C202.971 440.247 202.757 440.78 202.464 441.26C202.171 441.727 201.811 442.107 201.384 442.4C200.957 442.68 200.451 442.82 199.864 442.82C199.251 442.82 198.764 442.647 198.404 442.3C198.057 441.94 197.844 441.533 197.764 441.08H197.664C197.424 441.573 197.071 441.987 196.604 442.32C196.137 442.653 195.551 442.82 194.844 442.82C193.817 442.82 193.031 442.48 192.484 441.8C191.937 441.12 191.664 440.22 191.664 439.1C191.664 438.233 191.837 437.46 192.184 436.78C192.531 436.1 193.017 435.567 193.644 435.18C194.284 434.793 195.037 434.6 195.904 434.6C196.491 434.6 197.064 434.653 197.624 434.76C198.197 434.853 198.644 434.96 198.964 435.08L198.764 439.14C198.751 439.38 198.744 439.553 198.744 439.66C198.744 439.753 198.744 439.82 198.744 439.86C198.744 440.567 198.864 441.033 199.104 441.26C199.357 441.473 199.651 441.58 199.984 441.58C200.397 441.58 200.744 441.413 201.024 441.08C201.317 440.733 201.537 440.28 201.684 439.72C201.844 439.16 201.924 438.533 201.924 437.84C201.924 436.613 201.671 435.567 201.164 434.7C200.671 433.833 199.984 433.173 199.104 432.72C198.237 432.267 197.251 432.04 196.144 432.04C194.624 432.04 193.337 432.353 192.284 432.98C191.244 433.607 190.451 434.473 189.904 435.58C189.371 436.673 189.104 437.927 189.104 439.34C189.104 441.313 189.624 442.827 190.664 443.88C191.704 444.933 193.204 445.46 195.164 445.46C195.977 445.46 196.751 445.367 197.484 445.18C198.231 445.007 198.891 444.813 199.464 444.6V445.96C198.891 446.2 198.244 446.393 197.524 446.54C196.817 446.7 196.031 446.78 195.164 446.78C193.591 446.78 192.244 446.487 191.124 445.9C190.004 445.313 189.144 444.473 188.544 443.38C187.957 442.273 187.664 440.947 187.664 439.4C187.664 438.16 187.857 437.013 188.244 435.96C188.631 434.893 189.191 433.973 189.924 433.2C190.657 432.413 191.544 431.807 192.584 431.38C193.637 430.94 194.824 430.72 196.144 430.72C197.531 430.72 198.764 431.007 199.844 431.58C200.924 432.153 201.771 432.973 202.384 434.04C203.011 435.107 203.324 436.38 203.324 437.86ZM193.224 439.14C193.224 440.007 193.391 440.633 193.724 441.02C194.057 441.393 194.517 441.58 195.104 441.58C195.851 441.58 196.384 441.3 196.704 440.74C197.037 440.18 197.231 439.453 197.284 438.56L197.404 436.06C197.231 436.007 197.011 435.96 196.744 435.92C196.477 435.88 196.204 435.86 195.924 435.86C195.271 435.86 194.744 436.02 194.344 436.34C193.944 436.66 193.657 437.073 193.484 437.58C193.311 438.073 193.224 438.593 193.224 439.14ZM209.992 434.08C210.699 434.08 211.332 434.213 211.892 434.48C212.466 434.747 212.952 435.153 213.352 435.7H213.452L213.692 434.28H215.092V445.18C215.092 446.713 214.699 447.867 213.912 448.64C213.139 449.413 211.932 449.8 210.292 449.8C208.719 449.8 207.432 449.573 206.432 449.12V447.5C207.486 448.06 208.806 448.34 210.392 448.34C211.312 448.34 212.032 448.067 212.552 447.52C213.086 446.987 213.352 446.253 213.352 445.32V444.9C213.352 444.74 213.359 444.513 213.372 444.22C213.386 443.913 213.399 443.7 213.412 443.58H213.332C212.612 444.66 211.506 445.2 210.012 445.2C208.626 445.2 207.539 444.713 206.752 443.74C205.979 442.767 205.592 441.407 205.592 439.66C205.592 437.953 205.979 436.6 206.752 435.6C207.539 434.587 208.619 434.08 209.992 434.08ZM210.232 435.56C209.339 435.56 208.646 435.92 208.152 436.64C207.659 437.347 207.412 438.36 207.412 439.68C207.412 441 207.652 442.013 208.132 442.72C208.612 443.413 209.326 443.76 210.272 443.76C211.352 443.76 212.139 443.473 212.632 442.9C213.126 442.313 213.372 441.373 213.372 440.08V439.66C213.372 438.207 213.119 437.16 212.612 436.52C212.106 435.88 211.312 435.56 210.232 435.56ZM230.257 434.08C231.47 434.08 232.377 434.393 232.977 435.02C233.577 435.647 233.877 436.647 233.877 438.02V445H232.137V438.1C232.137 436.407 231.41 435.56 229.957 435.56C228.917 435.56 228.17 435.86 227.717 436.46C227.277 437.06 227.057 437.933 227.057 439.08V445H225.317V438.1C225.317 436.407 224.584 435.56 223.117 435.56C222.037 435.56 221.29 435.893 220.877 436.56C220.464 437.227 220.257 438.187 220.257 439.44V445H218.497V434.28H219.917L220.177 435.74H220.277C220.61 435.18 221.057 434.767 221.617 434.5C222.19 434.22 222.797 434.08 223.437 434.08C225.117 434.08 226.21 434.68 226.717 435.88H226.817C227.177 435.267 227.664 434.813 228.277 434.52C228.89 434.227 229.55 434.08 230.257 434.08ZM241.248 434.1C242.555 434.1 243.522 434.387 244.148 434.96C244.775 435.533 245.088 436.447 245.088 437.7V445H243.808L243.468 443.48H243.388C242.922 444.067 242.428 444.5 241.908 444.78C241.388 445.06 240.682 445.2 239.788 445.2C238.815 445.2 238.008 444.947 237.368 444.44C236.728 443.92 236.408 443.113 236.408 442.02C236.408 440.953 236.828 440.133 237.668 439.56C238.508 438.973 239.802 438.653 241.548 438.6L243.368 438.54V437.9C243.368 437.007 243.175 436.387 242.788 436.04C242.402 435.693 241.855 435.52 241.148 435.52C240.588 435.52 240.055 435.607 239.548 435.78C239.042 435.94 238.568 436.127 238.128 436.34L237.588 435.02C238.055 434.767 238.608 434.553 239.248 434.38C239.888 434.193 240.555 434.1 241.248 434.1ZM243.348 439.76L241.768 439.82C240.435 439.873 239.508 440.087 238.988 440.46C238.482 440.833 238.228 441.36 238.228 442.04C238.228 442.64 238.408 443.08 238.768 443.36C239.142 443.64 239.615 443.78 240.188 443.78C241.082 443.78 241.828 443.533 242.428 443.04C243.042 442.533 243.348 441.76 243.348 440.72V439.76ZM249.299 430.26C249.566 430.26 249.799 430.353 249.999 430.54C250.213 430.713 250.319 430.993 250.319 431.38C250.319 431.767 250.213 432.053 249.999 432.24C249.799 432.413 249.566 432.5 249.299 432.5C249.006 432.5 248.759 432.413 248.559 432.24C248.359 432.053 248.259 431.767 248.259 431.38C248.259 430.993 248.359 430.713 248.559 430.54C248.759 430.353 249.006 430.26 249.299 430.26ZM250.159 434.28V445H248.399V434.28H250.159ZM255.315 445H253.555V429.8H255.315V445ZM258.452 443.92C258.452 443.427 258.572 443.08 258.812 442.88C259.052 442.68 259.338 442.58 259.672 442.58C260.005 442.58 260.298 442.68 260.552 442.88C260.805 443.08 260.932 443.427 260.932 443.92C260.932 444.4 260.805 444.747 260.552 444.96C260.298 445.173 260.005 445.28 259.672 445.28C259.338 445.28 259.052 445.173 258.812 444.96C258.572 444.747 258.452 444.4 258.452 443.92ZM268.363 445.2C267.403 445.2 266.557 445.007 265.823 444.62C265.09 444.233 264.51 443.633 264.083 442.82C263.67 442.007 263.463 440.967 263.463 439.7C263.463 438.38 263.677 437.307 264.103 436.48C264.543 435.653 265.143 435.047 265.903 434.66C266.663 434.273 267.523 434.08 268.483 434.08C269.017 434.08 269.537 434.14 270.043 434.26C270.563 434.367 270.983 434.5 271.303 434.66L270.763 436.12C270.443 436 270.07 435.887 269.643 435.78C269.217 435.673 268.817 435.62 268.443 435.62C266.337 435.62 265.283 436.973 265.283 439.68C265.283 440.973 265.537 441.967 266.043 442.66C266.563 443.34 267.33 443.68 268.343 443.68C268.917 443.68 269.43 443.62 269.883 443.5C270.337 443.38 270.75 443.233 271.123 443.06V444.62C270.763 444.807 270.363 444.947 269.923 445.04C269.497 445.147 268.977 445.2 268.363 445.2ZM282.993 439.62C282.993 441.393 282.539 442.767 281.633 443.74C280.739 444.713 279.526 445.2 277.993 445.2C277.046 445.2 276.199 444.987 275.453 444.56C274.719 444.12 274.139 443.487 273.713 442.66C273.286 441.82 273.073 440.807 273.073 439.62C273.073 437.847 273.513 436.48 274.393 435.52C275.286 434.56 276.506 434.08 278.053 434.08C279.013 434.08 279.866 434.3 280.613 434.74C281.359 435.167 281.939 435.793 282.353 436.62C282.779 437.433 282.993 438.433 282.993 439.62ZM274.893 439.62C274.893 440.887 275.139 441.893 275.633 442.64C276.139 443.373 276.939 443.74 278.033 443.74C279.113 443.74 279.906 443.373 280.413 442.64C280.919 441.893 281.173 440.887 281.173 439.62C281.173 438.353 280.919 437.36 280.413 436.64C279.906 435.92 279.106 435.56 278.013 435.56C276.919 435.56 276.126 435.92 275.633 436.64C275.139 437.36 274.893 438.353 274.893 439.62ZM297.542 434.08C298.755 434.08 299.662 434.393 300.262 435.02C300.862 435.647 301.162 436.647 301.162 438.02V445H299.422V438.1C299.422 436.407 298.695 435.56 297.242 435.56C296.202 435.56 295.455 435.86 295.002 436.46C294.562 437.06 294.342 437.933 294.342 439.08V445H292.602V438.1C292.602 436.407 291.869 435.56 290.402 435.56C289.322 435.56 288.575 435.893 288.162 436.56C287.749 437.227 287.542 438.187 287.542 439.44V445H285.782V434.28H287.202L287.462 435.74H287.562C287.895 435.18 288.342 434.767 288.902 434.5C289.475 434.22 290.082 434.08 290.722 434.08C292.402 434.08 293.495 434.68 294.002 435.88H294.102C294.462 435.267 294.949 434.813 295.562 434.52C296.175 434.227 296.835 434.08 297.542 434.08Z" fill="#F37A81"/>
<path d="M1341.76 257.079C1341.76 257.079 1356.16 307.369 1363.59 323.079C1375.55 348.334 1371.51 377.926 1347.91 392.869L607.146 861.799C583.542 876.741 555.068 867.728 537.356 846.116C526.336 832.679 487.04 798.152 487.04 798.152" stroke="#F37A81" stroke-opacity="0.14" stroke-width="8" stroke-miterlimit="10" stroke-linecap="round" stroke-linejoin="round"/>
<path d="M1195.13 96.9936C1176.31 78.5172 1151.79 58.0631 1151.79 58.0631C1049.5 -13.9925 919.698 -47.0348 786.679 -23.9684C526.415 21.1644 350.153 264.242 385.726 523.874C385.726 523.874 391.433 557.475 407.417 594.388C384.619 621.731 380.573 661.487 400.647 693.197C412.605 712.087 431.578 725.454 453.392 730.356C475.205 735.257 498.072 731.293 516.963 719.334C543.545 702.507 557.127 673.277 555.702 643.948C581.615 657.775 613.846 658.004 640.428 641.176C666.996 624.358 680.597 595.095 679.158 565.776C705.042 579.621 737.311 579.846 763.878 563.027C790.46 546.2 804.057 516.961 802.631 487.632C828.545 501.459 860.761 501.697 887.343 484.869C913.925 468.042 927.507 438.812 926.082 409.483C951.995 423.31 984.226 423.539 1010.81 406.711C1037.38 389.893 1050.98 360.63 1049.54 331.311C1075.42 345.156 1107.69 345.381 1134.26 328.562C1160.84 311.735 1174.44 282.496 1173.01 253.167C1198.92 266.994 1231.14 267.232 1257.72 250.404C1276.61 238.446 1289.98 219.473 1294.88 197.659C1299.78 175.846 1295.82 152.979 1283.86 134.088C1264.47 103.46 1228.61 89.8665 1195.13 96.9936Z" stroke="#F37A81" stroke-opacity="0.14" stroke-width="8" stroke-miterlimit="10" stroke-linecap="round" stroke-linejoin="round"/>
<path d="M761.097 285.437L706.99 199.965" stroke="#F37A81" stroke-opacity="0.14" stroke-width="8" stroke-miterlimit="10" stroke-linecap="round" stroke-linejoin="round"/>
<path d="M545.955 372.883L570.923 261.717" stroke="#F37A81" stroke-opacity="0.14" stroke-width="8" stroke-miterlimit="10" stroke-linecap="round" stroke-linejoin="round"/>
<path d="M932.191 128.377L821.015 103.395" stroke="#F37A81" stroke-opacity="0.14" stroke-width="8" stroke-miterlimit="10" stroke-linecap="round" stroke-linejoin="round"/>
</g>
<defs>
<clipPath id="clip0">
<rect width="1050" height="600" fill="white"/>
</clipPath>
</defs>
</svg>
