<svg width="1050" height="600" viewBox="0 0 1050 600" fill="none" xmlns="http://www.w3.org/2000/svg">
<g clip-path="url(#clip0)">
<rect width="1050" height="600" fill="white"/>
<path d="M558 307.725L451.022 600H176.489L152 0H478.089L558 307.725Z" fill="#FD1E23"/>
<g filter="url(#filter0_d)">
<path d="M560 306.432L362 594L404.429 113L560 306.432Z" fill="#FD1E23"/>
</g>
<path d="M518 256.346L360.796 599H0V0H310.542L518 256.346Z" fill="#212C35"/>
<g filter="url(#filter1_d)">
<path d="M560 306.5L310 3H414.503L560 306.5Z" fill="#FD1E23"/>
</g>
<path d="M275.993 201.732V250.063C275.991 253.698 275.034 257.267 273.217 260.415C271.4 263.562 268.788 266.177 265.643 267.997L262.438 269.842L262.422 269.859H262.405C262.388 269.859 262.371 269.876 262.338 269.893L215.348 297.02C212.197 298.833 208.625 299.788 204.989 299.788C201.353 299.788 197.781 298.833 194.629 297.02L144.368 267.997C140.856 265.971 138.02 262.954 136.215 259.324C136.197 259.288 136.174 259.254 136.148 259.223C136.141 259.204 136.129 259.187 136.114 259.173V259.156C136.105 259.147 136.099 259.135 136.098 259.123C134.719 256.302 134.001 253.203 134.001 250.063V202.436C133.993 201.537 134.06 200.639 134.202 199.752C142.927 216.944 157.572 230.403 175.438 237.649V238.085L196.777 250.416C199.279 251.858 202.117 252.617 205.005 252.617C207.894 252.617 210.732 251.858 213.234 250.416L234.573 238.085V237.968C252.351 230.972 267.038 217.844 275.977 200.96C275.993 201.228 275.993 201.472 275.993 201.732Z" fill="#2EEFFA"/>
<path d="M175.437 201.731V237.648C157.572 230.402 142.927 216.943 134.202 199.751C134.301 198.898 134.452 198.053 134.655 197.218C135.165 195.11 135.991 193.091 137.104 191.229C138.775 188.34 141.127 185.902 143.954 184.127C146.781 182.353 149.998 181.295 153.326 181.046C156.159 180.857 159 181.252 161.673 182.206C164.347 183.16 166.796 184.653 168.869 186.592C170.942 188.531 172.594 190.876 173.724 193.48C174.854 196.084 175.437 198.892 175.437 201.731Z" fill="#FD1E23"/>
<path d="M275.976 200.967C267.037 217.852 252.351 230.979 234.573 237.975V202.444C234.509 197.097 236.466 191.924 240.052 187.958C243.639 183.992 248.59 181.526 253.916 181.054C257.689 180.798 261.461 181.581 264.82 183.319C264.825 183.319 264.829 183.321 264.832 183.324C264.835 183.327 264.837 183.331 264.837 183.336C264.852 183.345 264.87 183.35 264.887 183.352C267.612 184.787 269.985 186.808 271.833 189.272C273.681 191.735 274.959 194.578 275.574 197.595C275.803 198.706 275.937 199.834 275.976 200.967Z" fill="#FD1E23"/>
<g style="mix-blend-mode:multiply" opacity="0.08">
<g style="mix-blend-mode:multiply" opacity="0.08">
<path d="M175.437 221.199V237.656C157.572 230.41 142.927 216.95 134.202 199.759C134.301 198.906 134.452 198.06 134.655 197.226C143.361 203.634 158.904 214.186 175.437 221.199Z" fill="#01E4F3"/>
</g>
</g>
<g style="mix-blend-mode:multiply" opacity="0.08">
<g style="mix-blend-mode:multiply" opacity="0.08">
<path d="M275.976 200.968C267.037 217.852 252.35 230.98 234.572 237.976V221.267C249.051 214.875 262.798 206.939 275.573 197.596C275.802 198.707 275.937 199.835 275.976 200.968Z" fill="#01E4F3"/>
</g>
</g>
<g style="mix-blend-mode:screen" opacity="0.4">
<g style="mix-blend-mode:screen" opacity="0.4">
<path d="M270.96 250.005V250.072C270.953 252.821 270.226 255.52 268.851 257.901C267.477 260.283 265.503 262.262 263.126 263.643L212.831 292.666C210.445 294.04 207.741 294.763 204.988 294.763C202.235 294.763 199.531 294.04 197.145 292.666L158.057 270.102L157.923 270.018L146.884 263.643C144.688 262.371 142.832 260.587 141.474 258.443C140.115 256.299 139.295 253.859 139.083 251.33C157.773 264.651 180.103 271.911 203.053 272.127C226.004 272.343 248.467 265.505 267.404 252.538L267.571 252.42L267.655 252.37C268.788 251.598 269.87 250.81 270.96 250.005Z" fill="white"/>
</g>
</g>
<g style="mix-blend-mode:screen" opacity="0.6">
<g style="mix-blend-mode:screen" opacity="0.6">
<path d="M136.115 259.163C136.132 259.18 136.132 259.197 136.148 259.231C136.141 259.211 136.13 259.194 136.115 259.18V259.163Z" fill="white"/>
</g>
</g>
<g style="mix-blend-mode:multiply" opacity="0.25">
<g style="mix-blend-mode:multiply" opacity="0.25">
<path d="M262.338 269.899L215.348 297.026C212.197 298.839 208.625 299.794 204.989 299.794C201.353 299.794 197.781 298.839 194.629 297.026L144.368 268.003C140.856 265.977 138.02 262.96 136.215 259.33C136.349 259.565 136.601 259.967 136.97 260.521C137.851 261.777 138.857 262.941 139.973 263.994C141.697 265.6 143.668 266.92 145.811 267.902C148.294 269.177 151.095 270.62 154.115 272.247C160.205 275.435 167.251 279.243 174.75 283.404C178.491 285.501 182.383 287.614 186.292 289.862C188.254 290.986 190.217 292.11 192.197 293.234L195.166 294.929C196.069 295.463 197.011 295.929 197.985 296.321C201.804 297.907 206.043 298.173 210.03 297.076C212.02 296.505 213.922 295.664 215.683 294.576C217.613 293.503 219.508 292.446 221.387 291.406C228.903 287.245 235.949 283.437 242.022 280.25C253.413 274.202 261.381 270.343 262.338 269.899Z" fill="#01E4F3"/>
</g>
</g>
<g style="mix-blend-mode:multiply" opacity="0.25">
<g style="mix-blend-mode:multiply" opacity="0.25">
<path d="M275.976 200.966L274.416 204.154L272.705 207.291L270.843 210.327L268.83 213.28L266.666 216.132L264.384 218.9L261.952 221.55L259.402 224.084L256.734 226.499L253.949 228.798L251.064 230.962L248.078 232.992L244.991 234.887L241.82 236.649L238.566 238.243L236.2 239.266L235.496 239.685C230.731 242.521 225.984 245.389 221.186 248.174L213.955 252.368C211.216 253.896 208.134 254.704 204.997 254.717C203.434 254.709 201.879 254.506 200.367 254.113C199.615 253.91 198.875 253.663 198.152 253.375C197.439 253.088 196.744 252.757 196.072 252.385L188.825 248.174C184.027 245.389 179.279 242.521 174.515 239.702L173.575 239.149V238.847L171.394 237.874L168.14 236.23L164.969 234.418L161.882 232.472L158.896 230.375L155.994 228.16L153.226 225.812L150.575 223.329L148.042 220.745L145.626 218.027L143.361 215.209L141.214 212.307L139.235 209.287L137.389 206.2L135.712 203.013L134.202 199.758L136.064 202.828L138.043 205.781L140.14 208.666L142.338 211.451L144.653 214.135L147.069 216.719L149.602 219.185L152.202 221.55L154.92 223.798L157.739 225.912L160.607 227.925L163.577 229.787L166.613 231.532L169.733 233.143L172.904 234.619L175.437 235.659V238.092L196.776 250.422C199.279 251.864 202.117 252.624 205.005 252.624C207.894 252.624 210.731 251.864 213.234 250.422L234.573 238.092V235.995L237.123 234.971L240.277 233.545L243.38 232.002L246.417 230.308L249.37 228.479L252.255 226.533L255.073 224.469L257.791 222.289L260.408 219.973L262.941 217.558L265.391 215.041L267.723 212.407L269.954 209.69L272.068 206.871L274.081 203.952L275.976 200.966Z" fill="#01E4F3"/>
</g>
</g>
<g style="mix-blend-mode:screen" opacity="0.4">
<g style="mix-blend-mode:screen" opacity="0.4">
<path d="M267.404 252.536L264.183 254.868L260.593 257.217C258.143 258.727 255.655 260.147 253.127 261.478C250.577 262.803 247.971 264.011 245.31 265.102C242.648 266.192 239.952 267.188 237.223 268.088C231.754 269.898 226.143 271.245 220.447 272.114C217.595 272.567 214.727 272.886 211.841 273.104C208.905 273.339 206.121 273.423 203.202 273.406C200.316 273.406 197.431 273.272 194.545 273.054L190.234 272.617L185.956 272.014L181.695 271.225L177.467 270.286L173.29 269.178L169.146 267.887L165.07 266.444L161.06 264.833L157.101 263.072L153.226 261.159L149.451 259.062L145.743 256.831L142.137 254.466L140.107 253.023C140.847 256.883 143.016 260.321 146.18 262.652C147.136 263.324 148.126 263.894 149.132 264.531L152.118 266.36L157.923 270.017L146.884 263.642C144.688 262.37 142.832 260.586 141.474 258.442C140.115 256.298 139.295 253.858 139.083 251.329C157.773 264.65 180.103 271.91 203.053 272.126C226.004 272.342 248.467 265.504 267.404 252.536Z" fill="white"/>
</g>
</g>
<g style="mix-blend-mode:screen" opacity="0.5">
<g style="mix-blend-mode:screen" opacity="0.5">
<path d="M175.438 201.731V217.786C175.438 217.786 174.867 213.407 174.482 206.848C174.364 205.22 174.263 203.425 174.18 201.563C174.052 199.726 173.697 197.911 173.123 196.161C171.848 192.393 169.491 189.084 166.345 186.649C164.756 185.43 162.999 184.446 161.128 183.73C159.314 183.083 157.426 182.666 155.508 182.489C154.988 182.489 154.484 182.472 153.981 182.472L153.31 182.455L152.622 182.505C151.725 182.552 150.833 182.67 149.955 182.858C148.318 183.206 146.729 183.753 145.224 184.485C142.923 185.624 140.834 187.151 139.05 188.998C138.396 189.686 137.893 190.239 137.574 190.642C137.339 190.944 137.172 191.145 137.104 191.229C138.776 188.34 141.127 185.902 143.954 184.127C146.781 182.353 149.998 181.295 153.327 181.046C156.159 180.857 159 181.252 161.674 182.206C164.347 183.16 166.796 184.653 168.869 186.592C170.942 188.531 172.595 190.876 173.725 193.48C174.854 196.084 175.438 198.892 175.438 201.731Z" fill="white"/>
</g>
</g>
<g style="mix-blend-mode:screen" opacity="0.5">
<g style="mix-blend-mode:screen" opacity="0.5">
<path d="M264.82 183.319C264.619 183.252 263.881 183.017 262.706 182.732C260.834 182.277 258.913 182.046 256.986 182.044C255.725 182.05 254.468 182.168 253.228 182.396C252.558 182.501 251.897 182.652 251.248 182.849C250.93 182.95 250.594 183.034 250.259 183.134C249.923 183.235 249.588 183.386 249.252 183.503C247.901 184.054 246.604 184.728 245.377 185.517C244.129 186.357 242.976 187.33 241.938 188.419C240.876 189.485 239.936 190.667 239.136 191.942C238.35 193.189 237.687 194.509 237.157 195.884C236.893 196.536 236.669 197.202 236.485 197.881C236.285 198.518 236.128 199.168 236.016 199.827C235.879 200.48 235.778 201.141 235.714 201.806L235.663 202.293C235.647 202.36 235.63 202.494 235.63 202.494L235.613 202.729C235.58 203.048 235.563 203.366 235.529 203.668C235.127 208.601 234.573 211.872 234.573 211.872V202.444C234.509 197.097 236.466 191.924 240.052 187.958C243.639 183.992 248.59 181.526 253.916 181.054C257.689 180.798 261.461 181.581 264.82 183.319Z" fill="white"/>
</g>
</g>
<path d="M124.918 370.316C124.785 372.152 124.105 373.598 122.879 374.652C121.66 375.707 120.051 376.234 118.051 376.234C115.863 376.234 114.141 375.5 112.883 374.031C111.633 372.555 111.008 370.531 111.008 367.961V366.918C111.008 365.277 111.297 363.832 111.875 362.582C112.453 361.332 113.277 360.375 114.348 359.711C115.426 359.039 116.676 358.703 118.098 358.703C120.066 358.703 121.652 359.23 122.855 360.285C124.059 361.34 124.754 362.82 124.941 364.727H121.426C121.34 363.625 121.031 362.828 120.5 362.336C119.977 361.836 119.176 361.586 118.098 361.586C116.926 361.586 116.047 362.008 115.461 362.852C114.883 363.688 114.586 364.988 114.57 366.754V368.043C114.57 369.887 114.848 371.234 115.402 372.086C115.965 372.938 116.848 373.363 118.051 373.363C119.137 373.363 119.945 373.117 120.477 372.625C121.016 372.125 121.324 371.355 121.402 370.316H124.918ZM141.242 367.855C141.242 369.535 140.945 371.008 140.352 372.273C139.758 373.539 138.906 374.516 137.797 375.203C136.695 375.891 135.43 376.234 134 376.234C132.586 376.234 131.324 375.895 130.215 375.215C129.105 374.535 128.246 373.566 127.637 372.309C127.027 371.043 126.719 369.59 126.711 367.949V367.105C126.711 365.426 127.012 363.949 127.613 362.676C128.223 361.395 129.078 360.414 130.18 359.734C131.289 359.047 132.555 358.703 133.977 358.703C135.398 358.703 136.66 359.047 137.762 359.734C138.871 360.414 139.727 361.395 140.328 362.676C140.938 363.949 141.242 365.422 141.242 367.094V367.855ZM137.68 367.082C137.68 365.293 137.359 363.934 136.719 363.004C136.078 362.074 135.164 361.609 133.977 361.609C132.797 361.609 131.887 362.07 131.246 362.992C130.605 363.906 130.281 365.25 130.273 367.023V367.855C130.273 369.598 130.594 370.949 131.234 371.91C131.875 372.871 132.797 373.352 134 373.352C135.18 373.352 136.086 372.891 136.719 371.969C137.352 371.039 137.672 369.688 137.68 367.914V367.082ZM148.391 358.938L152.773 371.312L157.133 358.938H161.75V376H158.223V371.336L158.574 363.285L153.969 376H151.555L146.961 363.297L147.312 371.336V376H143.797V358.938H148.391ZM168.336 369.988V376H164.82V358.938H171.477C172.758 358.938 173.883 359.172 174.852 359.641C175.828 360.109 176.578 360.777 177.102 361.645C177.625 362.504 177.887 363.484 177.887 364.586C177.887 366.258 177.312 367.578 176.164 368.547C175.023 369.508 173.441 369.988 171.418 369.988H168.336ZM168.336 367.141H171.477C172.406 367.141 173.113 366.922 173.598 366.484C174.09 366.047 174.336 365.422 174.336 364.609C174.336 363.773 174.09 363.098 173.598 362.582C173.105 362.066 172.426 361.801 171.559 361.785H168.336V367.141ZM187.859 372.484H181.695L180.523 376H176.785L183.137 358.938H186.395L192.781 376H189.043L187.859 372.484ZM182.645 369.637H186.91L184.766 363.25L182.645 369.637ZM208.25 376H204.734L197.891 364.773V376H194.375V358.938H197.891L204.746 370.188V358.938H208.25V376ZM216.875 366.625L220.426 358.938H224.27L218.668 369.812V376H215.094V369.812L209.492 358.938H213.348L216.875 366.625ZM245.68 376H242.164L235.32 364.773V376H231.805V358.938H235.32L242.176 370.188V358.938H245.68V376ZM258.594 372.484H252.43L251.258 376H247.52L253.871 358.938H257.129L263.516 376H259.777L258.594 372.484ZM253.379 369.637H257.645L255.5 363.25L253.379 369.637ZM269.703 358.938L274.086 371.312L278.445 358.938H283.062V376H279.535V371.336L279.887 363.285L275.281 376H272.867L268.273 363.297L268.625 371.336V376H265.109V358.938H269.703ZM296.398 368.605H289.648V373.176H297.57V376H286.133V358.938H297.547V361.785H289.648V365.852H296.398V368.605Z" fill="white"/>
<path d="M648.022 103H642.31L631.188 84.7568V103H625.476V75.2734H631.188L642.329 93.5547V75.2734H648.022V103ZM669.008 97.2871H658.991L657.087 103H651.012L661.333 75.2734H666.627L677.006 103H670.931L669.008 97.2871ZM660.534 92.6597H667.465L663.98 82.2812L660.534 92.6597ZM687.061 75.2734L694.183 95.3828L701.267 75.2734H708.77V103H703.038V95.4209L703.609 82.3384L696.125 103H692.202L684.737 82.3574L685.309 95.4209V103H679.596V75.2734H687.061ZM730.44 90.9839H719.472V98.4106H732.345V103H713.759V75.2734H732.307V79.9009H719.472V86.5088H730.44V90.9839Z" fill="#FD1E23"/>
<path d="M760.853 95.7256C760.853 94.6465 760.472 93.8213 759.71 93.25C758.949 92.666 757.578 92.0566 755.597 91.4219C753.617 90.7744 752.049 90.1396 750.894 89.5176C747.745 87.8164 746.171 85.5249 746.171 82.6431C746.171 81.145 746.59 79.812 747.428 78.644C748.278 77.4634 749.491 76.543 751.065 75.8828C752.652 75.2227 754.429 74.8926 756.397 74.8926C758.377 74.8926 760.142 75.2544 761.691 75.978C763.24 76.689 764.439 77.6982 765.29 79.0059C766.153 80.3135 766.585 81.7988 766.585 83.4619H760.872C760.872 82.1924 760.472 81.2085 759.672 80.5103C758.873 79.7993 757.749 79.4438 756.302 79.4438C754.905 79.4438 753.82 79.7422 753.045 80.3389C752.271 80.9229 751.884 81.6973 751.884 82.6621C751.884 83.5635 752.334 84.3188 753.236 84.9282C754.15 85.5376 755.489 86.1089 757.254 86.6421C760.504 87.6196 762.872 88.832 764.357 90.2793C765.842 91.7266 766.585 93.5293 766.585 95.6875C766.585 98.0869 765.677 99.9722 763.862 101.343C762.046 102.702 759.603 103.381 756.53 103.381C754.397 103.381 752.455 102.994 750.703 102.219C748.951 101.432 747.612 100.359 746.685 99.001C745.771 97.6426 745.314 96.0684 745.314 94.2783H751.046C751.046 97.3379 752.874 98.8677 756.53 98.8677C757.889 98.8677 758.949 98.5947 759.71 98.0488C760.472 97.4902 760.853 96.7158 760.853 95.7256ZM791.455 75.2734V93.5356C791.455 96.5698 790.503 98.9692 788.599 100.734C786.707 102.499 784.117 103.381 780.829 103.381C777.592 103.381 775.021 102.524 773.117 100.81C771.212 99.0962 770.241 96.7412 770.203 93.7451V75.2734H775.916V93.5737C775.916 95.3892 776.348 96.7158 777.211 97.5537C778.087 98.3789 779.293 98.7915 780.829 98.7915C784.041 98.7915 785.672 97.103 785.723 93.7261V75.2734H791.455ZM806.404 92.8501H801.853V103H796.14V75.2734H806.442C809.717 75.2734 812.244 76.0034 814.021 77.4634C815.798 78.9233 816.687 80.9863 816.687 83.6523C816.687 85.5439 816.274 87.1245 815.449 88.394C814.637 89.6509 813.399 90.6538 811.736 91.4028L817.734 102.733V103H811.603L806.404 92.8501ZM801.853 88.2227H806.461C807.896 88.2227 809.006 87.8608 809.793 87.1372C810.581 86.4009 810.974 85.3916 810.974 84.1094C810.974 82.8018 810.6 81.7734 809.851 81.0244C809.114 80.2754 807.978 79.9009 806.442 79.9009H801.853V88.2227ZM843.595 103H837.882L826.761 84.7568V103H821.048V75.2734H826.761L837.901 93.5547V75.2734H843.595V103ZM864.58 97.2871H854.563L852.659 103H846.584L856.906 75.2734H862.2L872.578 103H866.503L864.58 97.2871ZM856.106 92.6597H863.038L859.553 82.2812L856.106 92.6597ZM882.633 75.2734L889.755 95.3828L896.839 75.2734H904.342V103H898.61V95.4209L899.181 82.3384L891.697 103H887.774L880.31 82.3574L880.881 95.4209V103H875.168V75.2734H882.633ZM926.013 90.9839H915.044V98.4106H927.917V103H909.331V75.2734H927.879V79.9009H915.044V86.5088H926.013V90.9839Z" fill="#212C35"/>
<path d="M154.32 398.979C154.32 398.074 154.002 397.359 153.366 396.834C152.729 396.303 151.565 395.801 149.873 395.33C148.181 394.85 146.946 394.33 146.167 393.769C145.059 392.975 144.505 391.934 144.505 390.646C144.505 389.396 145.018 388.382 146.043 387.603C147.077 386.817 148.394 386.424 149.997 386.424C151.082 386.424 152.052 386.633 152.905 387.053C153.766 387.472 154.433 388.056 154.904 388.805C155.376 389.553 155.612 390.388 155.612 391.309H154.219C154.219 390.194 153.837 389.299 153.074 388.625C152.31 387.944 151.284 387.603 149.997 387.603C148.746 387.603 147.75 387.884 147.009 388.445C146.268 388.999 145.897 389.726 145.897 390.624C145.897 391.455 146.231 392.133 146.897 392.657C147.563 393.181 148.63 393.645 150.098 394.049C151.565 394.446 152.677 394.862 153.433 395.296C154.189 395.723 154.758 396.236 155.14 396.834C155.522 397.433 155.713 398.141 155.713 398.957C155.713 400.245 155.196 401.278 154.163 402.057C153.137 402.835 151.782 403.225 150.098 403.225C148.945 403.225 147.885 403.019 146.919 402.607C145.961 402.195 145.231 401.619 144.729 400.877C144.235 400.136 143.988 399.286 143.988 398.328H145.37C145.37 399.481 145.8 400.391 146.661 401.057C147.522 401.723 148.668 402.057 150.098 402.057C151.37 402.057 152.392 401.776 153.164 401.214C153.935 400.653 154.32 399.908 154.32 398.979ZM159.891 403H158.543V385.75H159.891V403ZM162.811 396.745C162.811 395.577 163.035 394.525 163.484 393.589C163.941 392.653 164.581 391.927 165.405 391.41C166.236 390.886 167.175 390.624 168.224 390.624C169.841 390.624 171.151 391.193 172.154 392.331C173.158 393.462 173.659 394.963 173.659 396.834V397.115C173.659 398.291 173.431 399.35 172.974 400.293C172.525 401.229 171.889 401.952 171.065 402.461C170.241 402.97 169.302 403.225 168.246 403.225C166.636 403.225 165.326 402.659 164.315 401.529C163.312 400.391 162.811 398.886 162.811 397.014V396.745ZM164.158 397.115C164.158 398.568 164.533 399.762 165.281 400.698C166.037 401.626 167.026 402.09 168.246 402.09C169.459 402.09 170.44 401.626 171.188 400.698C171.945 399.762 172.323 398.53 172.323 397.003V396.745C172.323 395.816 172.151 394.966 171.806 394.195C171.462 393.424 170.979 392.829 170.357 392.41C169.736 391.983 169.025 391.77 168.224 391.77C167.026 391.77 166.049 392.241 165.292 393.185C164.536 394.12 164.158 395.348 164.158 396.868V397.115ZM175.905 396.812C175.905 394.91 176.325 393.405 177.163 392.297C178.009 391.182 179.155 390.624 180.6 390.624C182.254 390.624 183.512 391.283 184.373 392.601L184.44 390.849H185.698V402.753C185.698 404.318 185.26 405.557 184.384 406.47C183.508 407.384 182.322 407.84 180.824 407.84C179.978 407.84 179.17 407.649 178.398 407.268C177.635 406.893 177.032 406.392 176.59 405.763L177.343 404.954C178.294 406.122 179.424 406.706 180.734 406.706C181.857 406.706 182.733 406.373 183.362 405.707C183.991 405.048 184.317 404.131 184.339 402.955V401.428C183.478 402.626 182.224 403.225 180.577 403.225C179.17 403.225 178.039 402.663 177.186 401.54C176.332 400.417 175.905 398.901 175.905 396.992V396.812ZM177.264 397.048C177.264 398.598 177.575 399.822 178.196 400.72C178.818 401.611 179.694 402.057 180.824 402.057C182.479 402.057 183.651 401.315 184.339 399.833V394.184C184.025 393.405 183.572 392.814 182.98 392.41C182.389 391.998 181.678 391.792 180.847 391.792C179.716 391.792 178.836 392.237 178.208 393.128C177.579 394.012 177.264 395.318 177.264 397.048ZM196.873 403C196.738 402.618 196.652 402.053 196.614 401.304C196.143 401.918 195.54 402.394 194.806 402.73C194.08 403.06 193.309 403.225 192.493 403.225C191.325 403.225 190.378 402.899 189.651 402.248C188.933 401.596 188.573 400.773 188.573 399.777C188.573 398.594 189.064 397.658 190.044 396.969C191.033 396.28 192.407 395.936 194.166 395.936H196.603V394.555C196.603 393.686 196.333 393.005 195.794 392.511C195.263 392.009 194.484 391.758 193.458 391.758C192.523 391.758 191.748 391.998 191.134 392.477C190.52 392.956 190.213 393.533 190.213 394.207L188.865 394.195C188.865 393.229 189.314 392.395 190.213 391.691C191.111 390.98 192.216 390.624 193.526 390.624C194.881 390.624 195.948 390.965 196.727 391.646C197.513 392.32 197.917 393.263 197.939 394.476V400.226C197.939 401.402 198.063 402.281 198.31 402.865V403H196.873ZM192.65 402.034C193.548 402.034 194.349 401.817 195.053 401.383C195.764 400.949 196.281 400.368 196.603 399.642V396.969H194.2C192.86 396.984 191.811 397.231 191.055 397.71C190.299 398.182 189.921 398.833 189.921 399.665C189.921 400.346 190.172 400.911 190.673 401.36C191.182 401.81 191.841 402.034 192.65 402.034ZM202.813 390.849L202.858 392.926C203.315 392.178 203.884 391.609 204.565 391.219C205.247 390.822 205.999 390.624 206.823 390.624C208.125 390.624 209.095 390.991 209.731 391.725C210.368 392.458 210.69 393.559 210.697 395.026V403H209.361V395.015C209.353 393.93 209.121 393.121 208.665 392.589C208.215 392.058 207.493 391.792 206.497 391.792C205.666 391.792 204.929 392.054 204.285 392.578C203.648 393.095 203.177 393.795 202.87 394.678V403H201.533V390.849H202.813ZM232.204 403H230.811V395.161H221.467V403H220.086V386.648H221.467V393.993H230.811V386.648H232.204V403ZM240.761 403.225C239.728 403.225 238.792 402.97 237.954 402.461C237.123 401.952 236.475 401.244 236.011 400.338C235.547 399.425 235.314 398.403 235.314 397.272V396.79C235.314 395.622 235.539 394.57 235.988 393.634C236.445 392.698 237.078 391.964 237.886 391.433C238.695 390.894 239.571 390.624 240.514 390.624C241.989 390.624 243.157 391.129 244.018 392.14C244.887 393.143 245.321 394.517 245.321 396.262V397.014H236.651V397.272C236.651 398.65 237.044 399.799 237.83 400.72C238.624 401.634 239.619 402.09 240.817 402.09C241.536 402.09 242.169 401.959 242.715 401.697C243.269 401.435 243.771 401.016 244.22 400.439L245.062 401.08C244.074 402.51 242.64 403.225 240.761 403.225ZM240.514 391.77C239.503 391.77 238.65 392.14 237.954 392.881C237.265 393.623 236.846 394.618 236.696 395.869H243.984V395.723C243.947 394.555 243.614 393.604 242.985 392.87C242.356 392.136 241.532 391.77 240.514 391.77ZM253.553 391.994C253.268 391.942 252.965 391.916 252.643 391.916C251.805 391.916 251.093 392.151 250.509 392.623C249.933 393.087 249.521 393.765 249.274 394.656V403H247.938V390.849H249.251L249.274 392.78C249.985 391.343 251.127 390.624 252.699 390.624C253.074 390.624 253.369 390.673 253.586 390.77L253.553 391.994ZM260.167 403.225C259.134 403.225 258.198 402.97 257.36 402.461C256.529 401.952 255.881 401.244 255.417 400.338C254.953 399.425 254.721 398.403 254.721 397.272V396.79C254.721 395.622 254.945 394.57 255.395 393.634C255.851 392.698 256.484 391.964 257.292 391.433C258.101 390.894 258.977 390.624 259.92 390.624C261.395 390.624 262.563 391.129 263.424 392.14C264.293 393.143 264.727 394.517 264.727 396.262V397.014H256.057V397.272C256.057 398.65 256.45 399.799 257.236 400.72C258.03 401.634 259.026 402.09 260.224 402.09C260.942 402.09 261.575 401.959 262.122 401.697C262.676 401.435 263.177 401.016 263.626 400.439L264.469 401.08C263.48 402.51 262.047 403.225 260.167 403.225ZM259.92 391.77C258.91 391.77 258.056 392.14 257.36 392.881C256.671 393.623 256.252 394.618 256.102 395.869H263.391V395.723C263.353 394.555 263.02 393.604 262.391 392.87C261.762 392.136 260.939 391.77 259.92 391.77Z" fill="white"/>
<path d="M627.497 132.313V141H625.695V119.672H632.961C635.178 119.672 636.926 120.238 638.205 121.371C639.494 122.504 640.139 124.062 640.139 126.044C640.139 128.046 639.519 129.594 638.278 130.688C637.048 131.771 635.261 132.313 632.917 132.313H627.497ZM627.497 130.79H632.961C634.709 130.79 636.042 130.375 636.96 129.545C637.878 128.715 638.337 127.558 638.337 126.073C638.337 124.599 637.878 123.427 636.96 122.558C636.052 121.679 634.758 121.229 633.078 121.21H627.497V130.79ZM651.096 126.645C650.725 126.576 650.329 126.542 649.909 126.542C648.815 126.542 647.888 126.85 647.126 127.465C646.374 128.07 645.837 128.954 645.515 130.116V141H643.771V125.15H645.485L645.515 127.67C646.442 125.795 647.932 124.857 649.982 124.857C650.471 124.857 650.856 124.921 651.14 125.048L651.096 126.645ZM652.619 132.841C652.619 131.317 652.912 129.945 653.498 128.725C654.094 127.504 654.929 126.557 656.003 125.883C657.087 125.199 658.312 124.857 659.68 124.857C661.789 124.857 663.498 125.6 664.807 127.084C666.115 128.559 666.77 130.517 666.77 132.958V133.324C666.77 134.857 666.472 136.239 665.876 137.47C665.29 138.69 664.46 139.633 663.386 140.297C662.312 140.961 661.086 141.293 659.709 141.293C657.609 141.293 655.9 140.556 654.582 139.081C653.273 137.597 652.619 135.634 652.619 133.192V132.841ZM654.377 133.324C654.377 135.219 654.865 136.776 655.842 137.997C656.828 139.208 658.117 139.813 659.709 139.813C661.291 139.813 662.57 139.208 663.547 137.997C664.533 136.776 665.026 135.17 665.026 133.178V132.841C665.026 131.63 664.802 130.521 664.353 129.516C663.903 128.51 663.273 127.733 662.463 127.187C661.652 126.63 660.725 126.352 659.68 126.352C658.117 126.352 656.843 126.967 655.856 128.197C654.87 129.418 654.377 131.02 654.377 133.002V133.324ZM672.292 125.15V142.89C672.292 144.354 671.94 145.473 671.237 146.244C670.534 147.016 669.499 147.401 668.132 147.401C667.604 147.401 667.092 147.309 666.594 147.123L666.623 145.673C667.053 145.8 667.492 145.863 667.941 145.863C669.68 145.863 670.549 144.862 670.549 142.86V125.15H672.292ZM671.428 119.379C671.809 119.379 672.106 119.496 672.321 119.73C672.536 119.955 672.644 120.233 672.644 120.565C672.644 120.897 672.536 121.176 672.321 121.4C672.106 121.625 671.809 121.737 671.428 121.737C671.057 121.737 670.764 121.625 670.549 121.4C670.344 121.176 670.241 120.897 670.241 120.565C670.241 120.233 670.344 119.955 670.549 119.73C670.764 119.496 671.057 119.379 671.428 119.379ZM683.396 141.293C682.048 141.293 680.827 140.961 679.733 140.297C678.649 139.633 677.805 138.71 677.199 137.528C676.594 136.337 676.291 135.004 676.291 133.529V132.899C676.291 131.376 676.584 130.004 677.17 128.783C677.766 127.562 678.591 126.605 679.646 125.912C680.7 125.209 681.843 124.857 683.073 124.857C684.997 124.857 686.521 125.517 687.644 126.835C688.776 128.144 689.343 129.936 689.343 132.211V133.192H678.034V133.529C678.034 135.326 678.547 136.825 679.572 138.026C680.607 139.218 681.906 139.813 683.469 139.813C684.406 139.813 685.231 139.643 685.944 139.301C686.667 138.959 687.321 138.412 687.907 137.66L689.006 138.495C687.717 140.36 685.847 141.293 683.396 141.293ZM683.073 126.352C681.755 126.352 680.642 126.835 679.733 127.802C678.835 128.769 678.288 130.067 678.093 131.698H687.6V131.508C687.551 129.984 687.116 128.744 686.296 127.787C685.476 126.83 684.401 126.352 683.073 126.352ZM698.615 139.813C699.836 139.813 700.856 139.472 701.677 138.788C702.507 138.095 702.956 137.201 703.024 136.107H704.709C704.66 137.074 704.357 137.958 703.801 138.759C703.244 139.55 702.502 140.17 701.574 140.619C700.656 141.068 699.67 141.293 698.615 141.293C696.535 141.293 694.885 140.57 693.664 139.125C692.453 137.68 691.848 135.736 691.848 133.295V132.768C691.848 131.205 692.121 129.823 692.668 128.622C693.215 127.421 693.996 126.493 695.012 125.839C696.037 125.185 697.233 124.857 698.601 124.857C700.339 124.857 701.77 125.375 702.893 126.41C704.025 127.445 704.631 128.808 704.709 130.497H703.024C702.946 129.257 702.497 128.256 701.677 127.494C700.866 126.732 699.841 126.352 698.601 126.352C697.019 126.352 695.788 126.923 694.909 128.065C694.04 129.208 693.605 130.81 693.605 132.87V133.383C693.605 135.404 694.04 136.981 694.909 138.114C695.788 139.247 697.023 139.813 698.615 139.813ZM710.949 121.093V125.15H714.23V126.586H710.949V137.147C710.949 138.026 711.105 138.681 711.418 139.11C711.74 139.54 712.272 139.755 713.015 139.755C713.308 139.755 713.781 139.706 714.436 139.608L714.509 141.044C714.05 141.21 713.425 141.293 712.634 141.293C711.433 141.293 710.559 140.946 710.012 140.253C709.465 139.55 709.191 138.52 709.191 137.162V126.586H706.276V125.15H709.191V121.093H710.949ZM727.956 119.672L735.822 138.495L743.718 119.672H746.12V141H744.318V131.713L744.465 122.191L736.525 141H735.134L727.224 122.265L727.37 131.654V141H725.568V119.672H727.956ZM761.12 141C760.944 140.502 760.832 139.765 760.783 138.788C760.168 139.589 759.382 140.209 758.425 140.648C757.478 141.078 756.472 141.293 755.407 141.293C753.884 141.293 752.648 140.868 751.701 140.019C750.764 139.169 750.295 138.095 750.295 136.796C750.295 135.253 750.935 134.032 752.214 133.134C753.503 132.235 755.295 131.786 757.59 131.786H760.769V129.984C760.769 128.852 760.417 127.963 759.714 127.318C759.021 126.664 758.005 126.337 756.667 126.337C755.446 126.337 754.436 126.649 753.635 127.274C752.834 127.899 752.434 128.651 752.434 129.53L750.676 129.516C750.676 128.256 751.262 127.167 752.434 126.249C753.605 125.321 755.046 124.857 756.755 124.857C758.522 124.857 759.914 125.302 760.93 126.19C761.955 127.069 762.482 128.3 762.512 129.882V137.382C762.512 138.915 762.673 140.062 762.995 140.824V141H761.12ZM755.612 139.74C756.784 139.74 757.829 139.457 758.747 138.891C759.675 138.324 760.349 137.567 760.769 136.62V133.134H757.634C755.886 133.153 754.519 133.476 753.532 134.101C752.546 134.716 752.053 135.565 752.053 136.649C752.053 137.538 752.38 138.275 753.034 138.861C753.698 139.447 754.558 139.74 755.612 139.74ZM768.869 125.15L768.928 127.86C769.523 126.884 770.266 126.142 771.154 125.634C772.043 125.116 773.024 124.857 774.099 124.857C775.798 124.857 777.062 125.336 777.893 126.293C778.723 127.25 779.143 128.686 779.152 130.6V141H777.409V130.585C777.399 129.169 777.097 128.114 776.501 127.421C775.915 126.728 774.973 126.381 773.674 126.381C772.59 126.381 771.628 126.723 770.788 127.406C769.958 128.08 769.343 128.993 768.942 130.146V141H767.199V125.15H768.869ZM793.698 141C793.522 140.502 793.41 139.765 793.361 138.788C792.746 139.589 791.96 140.209 791.003 140.648C790.056 141.078 789.05 141.293 787.985 141.293C786.462 141.293 785.227 140.868 784.279 140.019C783.342 139.169 782.873 138.095 782.873 136.796C782.873 135.253 783.513 134.032 784.792 133.134C786.081 132.235 787.873 131.786 790.168 131.786H793.347V129.984C793.347 128.852 792.995 127.963 792.292 127.318C791.599 126.664 790.583 126.337 789.245 126.337C788.024 126.337 787.014 126.649 786.213 127.274C785.412 127.899 785.012 128.651 785.012 129.53L783.254 129.516C783.254 128.256 783.84 127.167 785.012 126.249C786.184 125.321 787.624 124.857 789.333 124.857C791.101 124.857 792.492 125.302 793.508 126.19C794.533 127.069 795.061 128.3 795.09 129.882V137.382C795.09 138.915 795.251 140.062 795.573 140.824V141H793.698ZM788.19 139.74C789.362 139.74 790.407 139.457 791.325 138.891C792.253 138.324 792.927 137.567 793.347 136.62V133.134H790.212C788.464 133.153 787.097 133.476 786.11 134.101C785.124 134.716 784.631 135.565 784.631 136.649C784.631 137.538 784.958 138.275 785.612 138.861C786.276 139.447 787.136 139.74 788.19 139.74ZM799.074 132.929C799.074 130.448 799.621 128.485 800.715 127.04C801.818 125.585 803.312 124.857 805.197 124.857C807.355 124.857 808.996 125.717 810.119 127.436L810.207 125.15H811.848V140.678C811.848 142.719 811.276 144.335 810.134 145.526C808.991 146.718 807.443 147.313 805.49 147.313C804.387 147.313 803.332 147.064 802.326 146.566C801.33 146.078 800.544 145.424 799.968 144.604L800.949 143.549C802.189 145.072 803.664 145.834 805.373 145.834C806.838 145.834 807.98 145.399 808.801 144.53C809.621 143.671 810.046 142.475 810.075 140.941V138.949C808.952 140.512 807.316 141.293 805.168 141.293C803.332 141.293 801.857 140.561 800.744 139.096C799.631 137.631 799.074 135.653 799.074 133.163V132.929ZM800.847 133.236C800.847 135.258 801.252 136.854 802.062 138.026C802.873 139.188 804.016 139.77 805.49 139.77C807.648 139.77 809.177 138.803 810.075 136.869V129.501C809.665 128.485 809.074 127.714 808.303 127.187C807.531 126.649 806.604 126.381 805.52 126.381C804.045 126.381 802.897 126.962 802.077 128.124C801.257 129.276 800.847 130.98 800.847 133.236ZM822.556 141.293C821.208 141.293 819.987 140.961 818.894 140.297C817.81 139.633 816.965 138.71 816.359 137.528C815.754 136.337 815.451 135.004 815.451 133.529V132.899C815.451 131.376 815.744 130.004 816.33 128.783C816.926 127.562 817.751 126.605 818.806 125.912C819.86 125.209 821.003 124.857 822.233 124.857C824.157 124.857 825.681 125.517 826.804 126.835C827.937 128.144 828.503 129.936 828.503 132.211V133.192H817.194V133.529C817.194 135.326 817.707 136.825 818.732 138.026C819.768 139.218 821.066 139.813 822.629 139.813C823.566 139.813 824.392 139.643 825.104 139.301C825.827 138.959 826.481 138.412 827.067 137.66L828.166 138.495C826.877 140.36 825.007 141.293 822.556 141.293ZM822.233 126.352C820.915 126.352 819.802 126.835 818.894 127.802C817.995 128.769 817.448 130.067 817.253 131.698H826.76V131.508C826.711 129.984 826.276 128.744 825.456 127.787C824.636 126.83 823.562 126.352 822.233 126.352ZM839.24 126.645C838.869 126.576 838.474 126.542 838.054 126.542C836.96 126.542 836.032 126.85 835.271 127.465C834.519 128.07 833.981 128.954 833.659 130.116V141H831.916V125.15H833.63L833.659 127.67C834.587 125.795 836.076 124.857 838.127 124.857C838.615 124.857 839.001 124.921 839.284 125.048L839.24 126.645Z" fill="#212C35"/>
<path d="M698.516 282V262.094H704.08C705.712 262.094 707.174 262.467 708.469 263.215C709.763 263.953 710.77 265.015 711.49 266.4C712.219 267.786 712.584 269.363 712.584 271.131V272.963C712.584 274.74 712.224 276.317 711.504 277.693C710.784 279.07 709.768 280.132 708.455 280.879C707.152 281.626 705.652 282 703.957 282H698.516ZM700.197 263.529V280.578H703.971C706.067 280.578 707.749 279.885 709.016 278.5C710.283 277.105 710.916 275.223 710.916 272.854V271.104C710.916 268.816 710.292 266.984 709.043 265.607C707.794 264.231 706.149 263.538 704.107 263.529H700.197ZM723.316 268.602C722.97 268.538 722.601 268.506 722.209 268.506C721.188 268.506 720.322 268.793 719.611 269.367C718.91 269.932 718.408 270.757 718.107 271.842V282H716.48V267.207H718.08L718.107 269.559C718.973 267.809 720.363 266.934 722.277 266.934C722.733 266.934 723.093 266.993 723.357 267.111L723.316 268.602ZM724.068 281.016C724.068 280.697 724.169 280.428 724.369 280.209C724.579 279.981 724.866 279.867 725.23 279.867C725.595 279.867 725.882 279.981 726.092 280.209C726.301 280.428 726.406 280.697 726.406 281.016C726.406 281.335 726.301 281.599 726.092 281.809C725.882 282.009 725.595 282.109 725.23 282.109C724.866 282.109 724.579 282.009 724.369 281.809C724.169 281.599 724.068 281.335 724.068 281.016ZM743.947 272.949L750.031 262.094H751.973L744.781 274.508V282H743.1V274.508L735.922 262.094H737.918L743.947 272.949ZM752.684 274.385C752.684 272.963 752.957 271.682 753.504 270.543C754.06 269.404 754.839 268.52 755.842 267.891C756.854 267.253 757.997 266.934 759.273 266.934C761.242 266.934 762.837 267.626 764.059 269.012C765.28 270.388 765.891 272.215 765.891 274.494V274.836C765.891 276.267 765.613 277.557 765.057 278.705C764.51 279.844 763.735 280.724 762.732 281.344C761.73 281.964 760.586 282.273 759.301 282.273C757.341 282.273 755.746 281.585 754.516 280.209C753.294 278.824 752.684 276.992 752.684 274.713V274.385ZM754.324 274.836C754.324 276.604 754.78 278.058 755.691 279.197C756.612 280.327 757.815 280.893 759.301 280.893C760.777 280.893 761.971 280.327 762.883 279.197C763.803 278.058 764.264 276.559 764.264 274.699V274.385C764.264 273.255 764.054 272.22 763.635 271.281C763.215 270.342 762.628 269.618 761.871 269.107C761.115 268.588 760.249 268.328 759.273 268.328C757.815 268.328 756.626 268.902 755.705 270.051C754.785 271.19 754.324 272.685 754.324 274.535V274.836ZM778.797 280.127C777.812 281.558 776.24 282.273 774.08 282.273C772.503 282.273 771.305 281.818 770.484 280.906C769.664 279.986 769.245 278.628 769.227 276.832V267.207H770.854V276.627C770.854 279.443 771.993 280.852 774.271 280.852C776.641 280.852 778.141 279.872 778.77 277.912V267.207H780.41V282H778.824L778.797 280.127ZM791.512 268.602C791.165 268.538 790.796 268.506 790.404 268.506C789.383 268.506 788.518 268.793 787.807 269.367C787.105 269.932 786.604 270.757 786.303 271.842V282H784.676V267.207H786.275L786.303 269.559C787.169 267.809 788.559 266.934 790.473 266.934C790.928 266.934 791.288 266.993 791.553 267.111L791.512 268.602ZM816.121 282H814.439L802.996 264.965V282H801.301V262.094H802.996L814.453 279.143V262.094H816.121V282ZM830.135 282C829.971 281.535 829.866 280.847 829.82 279.936C829.246 280.683 828.512 281.262 827.619 281.672C826.735 282.073 825.796 282.273 824.803 282.273C823.381 282.273 822.228 281.877 821.344 281.084C820.469 280.291 820.031 279.288 820.031 278.076C820.031 276.636 820.628 275.497 821.822 274.658C823.025 273.82 824.698 273.4 826.84 273.4H829.807V271.719C829.807 270.661 829.479 269.832 828.822 269.23C828.175 268.62 827.227 268.314 825.979 268.314C824.839 268.314 823.896 268.606 823.148 269.189C822.401 269.773 822.027 270.475 822.027 271.295L820.387 271.281C820.387 270.105 820.934 269.089 822.027 268.232C823.121 267.367 824.465 266.934 826.061 266.934C827.71 266.934 829.009 267.348 829.957 268.178C830.914 268.998 831.406 270.146 831.434 271.623V278.623C831.434 280.054 831.584 281.125 831.885 281.836V282H830.135ZM824.994 280.824C826.088 280.824 827.063 280.56 827.92 280.031C828.786 279.503 829.415 278.796 829.807 277.912V274.658H826.881C825.249 274.676 823.973 274.977 823.053 275.561C822.132 276.135 821.672 276.928 821.672 277.939C821.672 278.769 821.977 279.457 822.588 280.004C823.208 280.551 824.01 280.824 824.994 280.824ZM837.299 267.207L837.354 269.613C837.9 268.72 838.584 268.05 839.404 267.604C840.225 267.157 841.136 266.934 842.139 266.934C844.472 266.934 845.953 267.891 846.582 269.805C847.111 268.884 847.817 268.178 848.701 267.686C849.585 267.184 850.561 266.934 851.627 266.934C854.799 266.934 856.417 268.665 856.48 272.129V282H854.84V272.252C854.831 270.93 854.544 269.951 853.979 269.312C853.423 268.674 852.511 268.355 851.244 268.355C850.068 268.374 849.075 268.757 848.264 269.504C847.452 270.242 847.001 271.145 846.91 272.211V282H845.27V272.129C845.26 270.862 844.96 269.919 844.367 269.299C843.784 268.67 842.882 268.355 841.66 268.355C840.63 268.355 839.746 268.652 839.008 269.244C838.27 269.827 837.723 270.698 837.367 271.855V282H835.727V267.207H837.299ZM866.365 282.273C865.107 282.273 863.968 281.964 862.947 281.344C861.936 280.724 861.147 279.863 860.582 278.76C860.017 277.648 859.734 276.404 859.734 275.027V274.439C859.734 273.018 860.008 271.737 860.555 270.598C861.111 269.458 861.881 268.565 862.865 267.918C863.85 267.262 864.916 266.934 866.064 266.934C867.86 266.934 869.282 267.549 870.33 268.779C871.387 270.001 871.916 271.673 871.916 273.797V274.713H861.361V275.027C861.361 276.704 861.84 278.104 862.797 279.225C863.763 280.337 864.975 280.893 866.434 280.893C867.309 280.893 868.079 280.733 868.744 280.414C869.419 280.095 870.029 279.585 870.576 278.883L871.602 279.662C870.398 281.403 868.653 282.273 866.365 282.273ZM866.064 268.328C864.834 268.328 863.795 268.779 862.947 269.682C862.109 270.584 861.598 271.796 861.416 273.318H870.289V273.141C870.243 271.719 869.838 270.561 869.072 269.668C868.307 268.775 867.304 268.328 866.064 268.328Z" fill="#212C35"/>
<path d="M638 250.921C638 259.148 644.73 265.842 653 265.842C661.27 265.842 668 259.148 668 250.921C668 242.695 661.27 236 653 236C644.73 236 638 242.695 638 250.921ZM679.667 299H683V295.684C683 282.889 672.53 272.474 659.667 272.474H646.333C633.467 272.474 623 282.889 623 295.684V299H679.667Z" fill="#FD1E23"/>
<path d="M709.604 352.221C709.604 353.251 709.303 354.176 708.701 354.996C708.1 355.807 707.307 356.404 706.322 356.787C707.471 357.179 708.391 357.812 709.084 358.688C709.777 359.562 710.123 360.574 710.123 361.723C710.123 363.427 709.544 364.781 708.387 365.783C707.229 366.777 705.698 367.273 703.793 367.273C701.87 367.273 700.329 366.777 699.172 365.783C698.023 364.79 697.449 363.436 697.449 361.723C697.449 360.592 697.782 359.585 698.447 358.701C699.113 357.817 700.024 357.179 701.182 356.787C700.197 356.404 699.413 355.807 698.83 354.996C698.247 354.176 697.955 353.251 697.955 352.221C697.955 350.571 698.484 349.258 699.541 348.283C700.607 347.308 702.016 346.82 703.766 346.82C705.516 346.82 706.924 347.312 707.99 348.297C709.066 349.281 709.604 350.589 709.604 352.221ZM708.482 361.736C708.482 360.497 708.04 359.48 707.156 358.688C706.272 357.885 705.142 357.484 703.766 357.484C702.389 357.484 701.264 357.876 700.389 358.66C699.514 359.444 699.076 360.469 699.076 361.736C699.076 363.003 699.5 364.015 700.348 364.771C701.195 365.519 702.344 365.893 703.793 365.893C705.206 365.893 706.34 365.519 707.197 364.771C708.054 364.024 708.482 363.012 708.482 361.736ZM707.963 352.207C707.963 351.068 707.566 350.12 706.773 349.363C705.99 348.598 704.987 348.215 703.766 348.215C702.526 348.215 701.519 348.584 700.744 349.322C699.979 350.051 699.596 351.013 699.596 352.207C699.596 353.374 699.979 354.312 700.744 355.023C701.519 355.734 702.531 356.09 703.779 356.09C705.01 356.09 706.012 355.734 706.787 355.023C707.571 354.303 707.963 353.365 707.963 352.207ZM725.873 367H713.404V365.742L720.227 358.004C721.357 356.701 722.141 355.625 722.578 354.777C723.016 353.93 723.234 353.105 723.234 352.303C723.234 351.045 722.865 350.051 722.127 349.322C721.389 348.584 720.372 348.215 719.078 348.215C717.738 348.215 716.654 348.643 715.824 349.5C715.004 350.357 714.594 351.469 714.594 352.836H712.967C712.967 351.715 713.217 350.694 713.719 349.773C714.229 348.853 714.949 348.133 715.879 347.613C716.818 347.085 717.884 346.82 719.078 346.82C720.901 346.82 722.323 347.299 723.344 348.256C724.374 349.213 724.889 350.516 724.889 352.166C724.889 353.096 724.597 354.112 724.014 355.215C723.439 356.318 722.423 357.694 720.965 359.344L715.414 365.619H725.873V367ZM732.572 356.158H734.268C735.206 356.158 736.027 355.994 736.729 355.666C737.43 355.329 737.964 354.873 738.328 354.299C738.702 353.715 738.889 353.046 738.889 352.289C738.889 351.013 738.529 350.015 737.809 349.295C737.089 348.575 736.054 348.215 734.705 348.215C733.429 348.215 732.381 348.593 731.561 349.35C730.749 350.097 730.344 351.086 730.344 352.316H728.703C728.703 351.286 728.963 350.348 729.482 349.5C730.002 348.643 730.722 347.982 731.643 347.518C732.563 347.053 733.584 346.82 734.705 346.82C736.51 346.82 737.932 347.312 738.971 348.297C740.01 349.281 740.529 350.63 740.529 352.344C740.529 353.301 740.224 354.185 739.613 354.996C739.012 355.798 738.182 356.4 737.125 356.801C738.365 357.147 739.303 357.744 739.941 358.592C740.579 359.43 740.898 360.433 740.898 361.6C740.898 363.304 740.342 364.676 739.23 365.715C738.118 366.754 736.633 367.273 734.773 367.273C733.589 367.273 732.499 367.036 731.506 366.562C730.521 366.089 729.756 365.428 729.209 364.58C728.671 363.723 728.402 362.73 728.402 361.6H730.043C730.043 362.867 730.485 363.901 731.369 364.703C732.253 365.496 733.388 365.893 734.773 365.893C736.186 365.893 737.285 365.533 738.068 364.812C738.861 364.083 739.258 363.031 739.258 361.654C739.258 360.324 738.829 359.307 737.973 358.605C737.125 357.904 735.872 357.553 734.213 357.553H732.572V356.158ZM754.516 360.588H757.619V361.969H754.516V367H752.875V361.969H743.51V361.039L752.725 347.094H754.516V360.588ZM745.52 360.588H752.875V349.213L752.15 350.471L745.52 360.588ZM778.537 352.221C778.537 353.251 778.236 354.176 777.635 354.996C777.033 355.807 776.24 356.404 775.256 356.787C776.404 357.179 777.325 357.812 778.018 358.688C778.71 359.562 779.057 360.574 779.057 361.723C779.057 363.427 778.478 364.781 777.32 365.783C776.163 366.777 774.632 367.273 772.727 367.273C770.803 367.273 769.263 366.777 768.105 365.783C766.957 364.79 766.383 363.436 766.383 361.723C766.383 360.592 766.715 359.585 767.381 358.701C768.046 357.817 768.958 357.179 770.115 356.787C769.131 356.404 768.347 355.807 767.764 354.996C767.18 354.176 766.889 353.251 766.889 352.221C766.889 350.571 767.417 349.258 768.475 348.283C769.541 347.308 770.949 346.82 772.699 346.82C774.449 346.82 775.857 347.312 776.924 348.297C777.999 349.281 778.537 350.589 778.537 352.221ZM777.416 361.736C777.416 360.497 776.974 359.48 776.09 358.688C775.206 357.885 774.076 357.484 772.699 357.484C771.323 357.484 770.197 357.876 769.322 358.66C768.447 359.444 768.01 360.469 768.01 361.736C768.01 363.003 768.434 364.015 769.281 364.771C770.129 365.519 771.277 365.893 772.727 365.893C774.139 365.893 775.274 365.519 776.131 364.771C776.988 364.024 777.416 363.012 777.416 361.736ZM776.896 352.207C776.896 351.068 776.5 350.12 775.707 349.363C774.923 348.598 773.921 348.215 772.699 348.215C771.46 348.215 770.452 348.584 769.678 349.322C768.912 350.051 768.529 351.013 768.529 352.207C768.529 353.374 768.912 354.312 769.678 355.023C770.452 355.734 771.464 356.09 772.713 356.09C773.943 356.09 774.946 355.734 775.721 355.023C776.505 354.303 776.896 353.365 776.896 352.207ZM785.975 356.158H787.67C788.609 356.158 789.429 355.994 790.131 355.666C790.833 355.329 791.366 354.873 791.73 354.299C792.104 353.715 792.291 353.046 792.291 352.289C792.291 351.013 791.931 350.015 791.211 349.295C790.491 348.575 789.456 348.215 788.107 348.215C786.831 348.215 785.783 348.593 784.963 349.35C784.152 350.097 783.746 351.086 783.746 352.316H782.105C782.105 351.286 782.365 350.348 782.885 349.5C783.404 348.643 784.124 347.982 785.045 347.518C785.965 347.053 786.986 346.82 788.107 346.82C789.912 346.82 791.334 347.312 792.373 348.297C793.412 349.281 793.932 350.63 793.932 352.344C793.932 353.301 793.626 354.185 793.016 354.996C792.414 355.798 791.585 356.4 790.527 356.801C791.767 357.147 792.706 357.744 793.344 358.592C793.982 359.43 794.301 360.433 794.301 361.6C794.301 363.304 793.745 364.676 792.633 365.715C791.521 366.754 790.035 367.273 788.176 367.273C786.991 367.273 785.902 367.036 784.908 366.562C783.924 366.089 783.158 365.428 782.611 364.58C782.074 363.723 781.805 362.73 781.805 361.6H783.445C783.445 362.867 783.887 363.901 784.771 364.703C785.656 365.496 786.79 365.893 788.176 365.893C789.589 365.893 790.687 365.533 791.471 364.812C792.264 364.083 792.66 363.031 792.66 361.654C792.66 360.324 792.232 359.307 791.375 358.605C790.527 357.904 789.274 357.553 787.615 357.553H785.975V356.158ZM807.918 360.588H811.021V361.969H807.918V367H806.277V361.969H796.912V361.039L806.127 347.094H807.918V360.588ZM798.922 360.588H806.277V349.213L805.553 350.471L798.922 360.588ZM832.678 367H820.209V365.742L827.031 358.004C828.161 356.701 828.945 355.625 829.383 354.777C829.82 353.93 830.039 353.105 830.039 352.303C830.039 351.045 829.67 350.051 828.932 349.322C828.193 348.584 827.177 348.215 825.883 348.215C824.543 348.215 823.458 348.643 822.629 349.5C821.809 350.357 821.398 351.469 821.398 352.836H819.771C819.771 351.715 820.022 350.694 820.523 349.773C821.034 348.853 821.754 348.133 822.684 347.613C823.622 347.085 824.689 346.82 825.883 346.82C827.706 346.82 829.128 347.299 830.148 348.256C831.178 349.213 831.693 350.516 831.693 352.166C831.693 353.096 831.402 354.112 830.818 355.215C830.244 356.318 829.228 357.694 827.77 359.344L822.219 365.619H832.678V367ZM839.377 356.158H841.072C842.011 356.158 842.831 355.994 843.533 355.666C844.235 355.329 844.768 354.873 845.133 354.299C845.507 353.715 845.693 353.046 845.693 352.289C845.693 351.013 845.333 350.015 844.613 349.295C843.893 348.575 842.859 348.215 841.51 348.215C840.234 348.215 839.186 348.593 838.365 349.35C837.554 350.097 837.148 351.086 837.148 352.316H835.508C835.508 351.286 835.768 350.348 836.287 349.5C836.807 348.643 837.527 347.982 838.447 347.518C839.368 347.053 840.389 346.82 841.51 346.82C843.314 346.82 844.736 347.312 845.775 348.297C846.814 349.281 847.334 350.63 847.334 352.344C847.334 353.301 847.029 354.185 846.418 354.996C845.816 355.798 844.987 356.4 843.93 356.801C845.169 357.147 846.108 357.744 846.746 358.592C847.384 359.43 847.703 360.433 847.703 361.6C847.703 363.304 847.147 364.676 846.035 365.715C844.923 366.754 843.438 367.273 841.578 367.273C840.393 367.273 839.304 367.036 838.311 366.562C837.326 366.089 836.561 365.428 836.014 364.58C835.476 363.723 835.207 362.73 835.207 361.6H836.848C836.848 362.867 837.29 363.901 838.174 364.703C839.058 365.496 840.193 365.893 841.578 365.893C842.991 365.893 844.089 365.533 844.873 364.812C845.666 364.083 846.062 363.031 846.062 361.654C846.062 360.324 845.634 359.307 844.777 358.605C843.93 357.904 842.676 357.553 841.018 357.553H839.377V356.158Z" fill="#212C35"/>
<path d="M709.508 438.457H700.197V446.578H710.902V448H698.516V428.094H710.834V429.529H700.197V437.035H709.508V438.457ZM715.564 433.207L715.619 435.613C716.166 434.72 716.85 434.05 717.67 433.604C718.49 433.157 719.402 432.934 720.404 432.934C722.738 432.934 724.219 433.891 724.848 435.805C725.376 434.884 726.083 434.178 726.967 433.686C727.851 433.184 728.826 432.934 729.893 432.934C733.064 432.934 734.682 434.665 734.746 438.129V448H733.105V438.252C733.096 436.93 732.809 435.951 732.244 435.312C731.688 434.674 730.777 434.355 729.51 434.355C728.334 434.374 727.34 434.757 726.529 435.504C725.718 436.242 725.267 437.145 725.176 438.211V448H723.535V438.129C723.526 436.862 723.225 435.919 722.633 435.299C722.049 434.67 721.147 434.355 719.926 434.355C718.896 434.355 718.012 434.652 717.273 435.244C716.535 435.827 715.988 436.698 715.633 437.855V448H713.992V433.207H715.564ZM748.24 448C748.076 447.535 747.971 446.847 747.926 445.936C747.352 446.683 746.618 447.262 745.725 447.672C744.84 448.073 743.902 448.273 742.908 448.273C741.486 448.273 740.333 447.877 739.449 447.084C738.574 446.291 738.137 445.288 738.137 444.076C738.137 442.636 738.734 441.497 739.928 440.658C741.131 439.82 742.803 439.4 744.945 439.4H747.912V437.719C747.912 436.661 747.584 435.832 746.928 435.23C746.281 434.62 745.333 434.314 744.084 434.314C742.945 434.314 742.001 434.606 741.254 435.189C740.507 435.773 740.133 436.475 740.133 437.295L738.492 437.281C738.492 436.105 739.039 435.089 740.133 434.232C741.227 433.367 742.571 432.934 744.166 432.934C745.816 432.934 747.115 433.348 748.062 434.178C749.02 434.998 749.512 436.146 749.539 437.623V444.623C749.539 446.054 749.689 447.125 749.99 447.836V448H748.24ZM743.1 446.824C744.193 446.824 745.169 446.56 746.025 446.031C746.891 445.503 747.52 444.796 747.912 443.912V440.658H744.986C743.355 440.676 742.079 440.977 741.158 441.561C740.238 442.135 739.777 442.928 739.777 443.939C739.777 444.769 740.083 445.457 740.693 446.004C741.313 446.551 742.115 446.824 743.1 446.824ZM755.746 448H754.105V433.207H755.746V448ZM753.818 428.928C753.818 428.618 753.919 428.358 754.119 428.148C754.32 427.93 754.593 427.82 754.939 427.82C755.286 427.82 755.559 427.93 755.76 428.148C755.969 428.358 756.074 428.618 756.074 428.928C756.074 429.238 755.969 429.497 755.76 429.707C755.559 429.917 755.286 430.021 754.939 430.021C754.593 430.021 754.32 429.917 754.119 429.707C753.919 429.497 753.818 429.238 753.818 428.928ZM762.035 448H760.395V427H762.035V448ZM788.34 440.986C788.294 442.326 788.048 443.57 787.602 444.719C787.155 445.858 786.535 446.738 785.742 447.357C784.958 447.968 784.047 448.273 783.008 448.273C782.124 448.273 781.404 448.041 780.848 447.576C780.292 447.111 779.923 446.46 779.74 445.621C778.756 447.389 777.398 448.273 775.666 448.273C774.39 448.273 773.438 447.722 772.809 446.619C772.18 445.516 771.947 444.031 772.111 442.162C772.248 440.676 772.585 439.355 773.123 438.197C773.67 437.031 774.376 436.124 775.242 435.477C776.117 434.82 777.051 434.492 778.045 434.492C778.747 434.492 779.362 434.592 779.891 434.793C780.419 434.984 781.035 435.376 781.736 435.969L781.039 443.762C780.948 444.819 781.08 445.639 781.436 446.223C781.8 446.806 782.379 447.098 783.172 447.098C784.293 447.098 785.2 446.551 785.893 445.457C786.594 444.354 786.986 442.864 787.068 440.986C787.242 437.295 786.54 434.52 784.963 432.66C783.386 430.792 780.998 429.857 777.799 429.857C775.876 429.857 774.139 430.34 772.59 431.307C771.049 432.264 769.833 433.622 768.939 435.381C768.046 437.14 767.545 439.168 767.436 441.465C767.326 443.762 767.627 445.785 768.338 447.535C769.058 449.276 770.138 450.616 771.578 451.555C773.027 452.493 774.75 452.963 776.746 452.963C777.585 452.963 778.41 452.863 779.221 452.662C780.032 452.462 780.711 452.202 781.258 451.883L781.682 452.977C781.162 453.323 780.438 453.61 779.508 453.838C778.578 454.075 777.639 454.193 776.691 454.193C774.413 454.193 772.453 453.678 770.812 452.648C769.172 451.628 767.941 450.151 767.121 448.219C766.31 446.296 765.959 444.044 766.068 441.465C766.178 438.931 766.734 436.689 767.736 434.738C768.748 432.779 770.129 431.266 771.879 430.199C773.629 429.124 775.62 428.586 777.854 428.586C780.178 428.586 782.146 429.074 783.76 430.049C785.373 431.015 786.567 432.432 787.342 434.301C788.117 436.169 788.449 438.398 788.34 440.986ZM773.561 444.09C773.661 445.001 773.916 445.708 774.326 446.209C774.736 446.701 775.279 446.947 775.953 446.947C777.639 446.947 778.883 445.785 779.686 443.461L780.301 436.406C779.69 435.96 778.97 435.736 778.141 435.736C777.129 435.736 776.249 436.142 775.502 436.953C774.764 437.755 774.221 438.867 773.875 440.289C773.529 441.702 773.424 442.969 773.561 444.09ZM791.402 440.467C791.402 438.152 791.913 436.32 792.934 434.971C793.964 433.613 795.358 432.934 797.117 432.934C799.132 432.934 800.663 433.736 801.711 435.34L801.793 433.207H803.324V447.699C803.324 449.604 802.791 451.113 801.725 452.225C800.658 453.337 799.214 453.893 797.391 453.893C796.361 453.893 795.376 453.66 794.438 453.195C793.508 452.74 792.774 452.129 792.236 451.363L793.152 450.379C794.31 451.801 795.686 452.512 797.281 452.512C798.648 452.512 799.715 452.106 800.48 451.295C801.246 450.493 801.643 449.376 801.67 447.945V446.086C800.622 447.544 799.095 448.273 797.09 448.273C795.376 448.273 794 447.59 792.961 446.223C791.922 444.855 791.402 443.01 791.402 440.686V440.467ZM793.057 440.754C793.057 442.641 793.435 444.131 794.191 445.225C794.948 446.309 796.014 446.852 797.391 446.852C799.405 446.852 800.831 445.949 801.67 444.145V437.268C801.287 436.32 800.736 435.6 800.016 435.107C799.296 434.606 798.43 434.355 797.418 434.355C796.042 434.355 794.971 434.898 794.205 435.982C793.439 437.058 793.057 438.648 793.057 440.754ZM809.08 433.207L809.135 435.613C809.682 434.72 810.365 434.05 811.186 433.604C812.006 433.157 812.917 432.934 813.92 432.934C816.253 432.934 817.734 433.891 818.363 435.805C818.892 434.884 819.598 434.178 820.482 433.686C821.367 433.184 822.342 432.934 823.408 432.934C826.58 432.934 828.198 434.665 828.262 438.129V448H826.621V438.252C826.612 436.93 826.325 435.951 825.76 435.312C825.204 434.674 824.292 434.355 823.025 434.355C821.85 434.374 820.856 434.757 820.045 435.504C819.234 436.242 818.783 437.145 818.691 438.211V448H817.051V438.129C817.042 436.862 816.741 435.919 816.148 435.299C815.565 434.67 814.663 434.355 813.441 434.355C812.411 434.355 811.527 434.652 810.789 435.244C810.051 435.827 809.504 436.698 809.148 437.855V448H807.508V433.207H809.08ZM841.756 448C841.592 447.535 841.487 446.847 841.441 445.936C840.867 446.683 840.133 447.262 839.24 447.672C838.356 448.073 837.417 448.273 836.424 448.273C835.002 448.273 833.849 447.877 832.965 447.084C832.09 446.291 831.652 445.288 831.652 444.076C831.652 442.636 832.249 441.497 833.443 440.658C834.646 439.82 836.319 439.4 838.461 439.4H841.428V437.719C841.428 436.661 841.1 435.832 840.443 435.23C839.796 434.62 838.848 434.314 837.6 434.314C836.46 434.314 835.517 434.606 834.77 435.189C834.022 435.773 833.648 436.475 833.648 437.295L832.008 437.281C832.008 436.105 832.555 435.089 833.648 434.232C834.742 433.367 836.087 432.934 837.682 432.934C839.331 432.934 840.63 433.348 841.578 434.178C842.535 434.998 843.027 436.146 843.055 437.623V444.623C843.055 446.054 843.205 447.125 843.506 447.836V448H841.756ZM836.615 446.824C837.709 446.824 838.684 446.56 839.541 446.031C840.407 445.503 841.036 444.796 841.428 443.912V440.658H838.502C836.87 440.676 835.594 440.977 834.674 441.561C833.753 442.135 833.293 442.928 833.293 443.939C833.293 444.769 833.598 445.457 834.209 446.004C834.829 446.551 835.631 446.824 836.615 446.824ZM849.262 448H847.621V433.207H849.262V448ZM847.334 428.928C847.334 428.618 847.434 428.358 847.635 428.148C847.835 427.93 848.109 427.82 848.455 427.82C848.801 427.82 849.075 427.93 849.275 428.148C849.485 428.358 849.59 428.618 849.59 428.928C849.59 429.238 849.485 429.497 849.275 429.707C849.075 429.917 848.801 430.021 848.455 430.021C848.109 430.021 847.835 429.917 847.635 429.707C847.434 429.497 847.334 429.238 847.334 428.928ZM855.551 448H853.91V427H855.551V448ZM859.857 447.016C859.857 446.697 859.958 446.428 860.158 446.209C860.368 445.981 860.655 445.867 861.02 445.867C861.384 445.867 861.671 445.981 861.881 446.209C862.09 446.428 862.195 446.697 862.195 447.016C862.195 447.335 862.09 447.599 861.881 447.809C861.671 448.009 861.384 448.109 861.02 448.109C860.655 448.109 860.368 448.009 860.158 447.809C859.958 447.599 859.857 447.335 859.857 447.016ZM872.176 446.893C873.315 446.893 874.268 446.574 875.033 445.936C875.808 445.288 876.227 444.454 876.291 443.434H877.863C877.818 444.336 877.535 445.161 877.016 445.908C876.496 446.646 875.803 447.225 874.938 447.645C874.081 448.064 873.16 448.273 872.176 448.273C870.234 448.273 868.694 447.599 867.555 446.25C866.424 444.901 865.859 443.087 865.859 440.809V440.316C865.859 438.858 866.115 437.568 866.625 436.447C867.135 435.326 867.865 434.46 868.812 433.85C869.77 433.239 870.886 432.934 872.162 432.934C873.785 432.934 875.12 433.417 876.168 434.383C877.225 435.349 877.79 436.62 877.863 438.197H876.291C876.218 437.04 875.799 436.105 875.033 435.395C874.277 434.684 873.32 434.328 872.162 434.328C870.686 434.328 869.537 434.861 868.717 435.928C867.906 436.994 867.5 438.489 867.5 440.412V440.891C867.5 442.777 867.906 444.249 868.717 445.307C869.537 446.364 870.69 446.893 872.176 446.893ZM880.242 440.385C880.242 438.963 880.516 437.682 881.062 436.543C881.618 435.404 882.398 434.52 883.4 433.891C884.412 433.253 885.556 432.934 886.832 432.934C888.801 432.934 890.396 433.626 891.617 435.012C892.839 436.388 893.449 438.215 893.449 440.494V440.836C893.449 442.267 893.171 443.557 892.615 444.705C892.068 445.844 891.294 446.724 890.291 447.344C889.288 447.964 888.145 448.273 886.859 448.273C884.9 448.273 883.305 447.585 882.074 446.209C880.853 444.824 880.242 442.992 880.242 440.713V440.385ZM881.883 440.836C881.883 442.604 882.339 444.058 883.25 445.197C884.171 446.327 885.374 446.893 886.859 446.893C888.336 446.893 889.53 446.327 890.441 445.197C891.362 444.058 891.822 442.559 891.822 440.699V440.385C891.822 439.255 891.613 438.22 891.193 437.281C890.774 436.342 890.186 435.618 889.43 435.107C888.673 434.588 887.807 434.328 886.832 434.328C885.374 434.328 884.184 434.902 883.264 436.051C882.343 437.19 881.883 438.685 881.883 440.535V440.836ZM898.33 433.207L898.385 435.613C898.932 434.72 899.615 434.05 900.436 433.604C901.256 433.157 902.167 432.934 903.17 432.934C905.503 432.934 906.984 433.891 907.613 435.805C908.142 434.884 908.848 434.178 909.732 433.686C910.617 433.184 911.592 432.934 912.658 432.934C915.83 432.934 917.448 434.665 917.512 438.129V448H915.871V438.252C915.862 436.93 915.575 435.951 915.01 435.312C914.454 434.674 913.542 434.355 912.275 434.355C911.1 434.374 910.106 434.757 909.295 435.504C908.484 436.242 908.033 437.145 907.941 438.211V448H906.301V438.129C906.292 436.862 905.991 435.919 905.398 435.299C904.815 434.67 903.913 434.355 902.691 434.355C901.661 434.355 900.777 434.652 900.039 435.244C899.301 435.827 898.754 436.698 898.398 437.855V448H896.758V433.207H898.33Z" fill="#212C35"/>
<path d="M701.674 525.596L701.92 526.867L702.248 525.527L705.803 514.207H707.197L710.711 525.432L711.094 526.99L711.408 525.555L714.443 514.207H716.139L711.832 529H710.438L706.637 517.27L706.459 516.463L706.281 517.283L702.549 529H701.154L696.861 514.207H698.543L701.674 525.596ZM722.783 525.596L723.029 526.867L723.357 525.527L726.912 514.207H728.307L731.82 525.432L732.203 526.99L732.518 525.555L735.553 514.207H737.248L732.941 529H731.547L727.746 517.27L727.568 516.463L727.391 517.283L723.658 529H722.264L717.971 514.207H719.652L722.783 525.596ZM743.893 525.596L744.139 526.867L744.467 525.527L748.021 514.207H749.416L752.93 525.432L753.312 526.99L753.627 525.555L756.662 514.207H758.357L754.051 529H752.656L748.855 517.27L748.678 516.463L748.5 517.283L744.768 529H743.373L739.08 514.207H740.762L743.893 525.596ZM759.615 528.016C759.615 527.697 759.715 527.428 759.916 527.209C760.126 526.981 760.413 526.867 760.777 526.867C761.142 526.867 761.429 526.981 761.639 527.209C761.848 527.428 761.953 527.697 761.953 528.016C761.953 528.335 761.848 528.599 761.639 528.809C761.429 529.009 761.142 529.109 760.777 529.109C760.413 529.109 760.126 529.009 759.916 528.809C759.715 528.599 759.615 528.335 759.615 528.016ZM770.006 525.596L770.252 526.867L770.58 525.527L774.135 514.207H775.529L779.043 525.432L779.426 526.99L779.74 525.555L782.775 514.207H784.471L780.164 529H778.77L774.969 517.27L774.791 516.463L774.613 517.283L770.881 529H769.486L765.193 514.207H766.875L770.006 525.596ZM793.303 529.273C792.045 529.273 790.906 528.964 789.885 528.344C788.873 527.724 788.085 526.863 787.52 525.76C786.954 524.648 786.672 523.404 786.672 522.027V521.439C786.672 520.018 786.945 518.737 787.492 517.598C788.048 516.458 788.818 515.565 789.803 514.918C790.787 514.262 791.854 513.934 793.002 513.934C794.798 513.934 796.219 514.549 797.268 515.779C798.325 517.001 798.854 518.673 798.854 520.797V521.713H788.299V522.027C788.299 523.704 788.777 525.104 789.734 526.225C790.701 527.337 791.913 527.893 793.371 527.893C794.246 527.893 795.016 527.733 795.682 527.414C796.356 527.095 796.967 526.585 797.514 525.883L798.539 526.662C797.336 528.403 795.59 529.273 793.303 529.273ZM793.002 515.328C791.771 515.328 790.732 515.779 789.885 516.682C789.046 517.584 788.536 518.796 788.354 520.318H797.227V520.141C797.181 518.719 796.775 517.561 796.01 516.668C795.244 515.775 794.242 515.328 793.002 515.328ZM813.947 521.754C813.947 524.06 813.437 525.892 812.416 527.25C811.395 528.599 810.023 529.273 808.301 529.273C806.241 529.273 804.682 528.508 803.625 526.977L803.557 529H802.025V508H803.652V516.354C804.691 514.74 806.232 513.934 808.273 513.934C810.023 513.934 811.404 514.604 812.416 515.943C813.437 517.274 813.947 519.129 813.947 521.508V521.754ZM812.307 521.467C812.307 519.516 811.928 518.012 811.172 516.955C810.415 515.889 809.349 515.355 807.973 515.355C806.924 515.355 806.036 515.615 805.307 516.135C804.577 516.645 804.026 517.397 803.652 518.391V525.062C804.473 526.922 805.922 527.852 808 527.852C809.349 527.852 810.402 527.318 811.158 526.252C811.924 525.186 812.307 523.59 812.307 521.467ZM817.42 528.016C817.42 527.697 817.52 527.428 817.721 527.209C817.93 526.981 818.217 526.867 818.582 526.867C818.947 526.867 819.234 526.981 819.443 527.209C819.653 527.428 819.758 527.697 819.758 528.016C819.758 528.335 819.653 528.599 819.443 528.809C819.234 529.009 818.947 529.109 818.582 529.109C818.217 529.109 817.93 529.009 817.721 528.809C817.52 528.599 817.42 528.335 817.42 528.016ZM829.738 527.893C830.878 527.893 831.83 527.574 832.596 526.936C833.37 526.288 833.79 525.454 833.854 524.434H835.426C835.38 525.336 835.098 526.161 834.578 526.908C834.059 527.646 833.366 528.225 832.5 528.645C831.643 529.064 830.723 529.273 829.738 529.273C827.797 529.273 826.257 528.599 825.117 527.25C823.987 525.901 823.422 524.087 823.422 521.809V521.316C823.422 519.858 823.677 518.568 824.188 517.447C824.698 516.326 825.427 515.46 826.375 514.85C827.332 514.239 828.449 513.934 829.725 513.934C831.347 513.934 832.682 514.417 833.73 515.383C834.788 516.349 835.353 517.62 835.426 519.197H833.854C833.781 518.04 833.361 517.105 832.596 516.395C831.839 515.684 830.882 515.328 829.725 515.328C828.248 515.328 827.1 515.861 826.279 516.928C825.468 517.994 825.062 519.489 825.062 521.412V521.891C825.062 523.777 825.468 525.249 826.279 526.307C827.1 527.364 828.253 527.893 829.738 527.893ZM837.805 521.385C837.805 519.963 838.078 518.682 838.625 517.543C839.181 516.404 839.96 515.52 840.963 514.891C841.975 514.253 843.118 513.934 844.395 513.934C846.363 513.934 847.958 514.626 849.18 516.012C850.401 517.388 851.012 519.215 851.012 521.494V521.836C851.012 523.267 850.734 524.557 850.178 525.705C849.631 526.844 848.856 527.724 847.854 528.344C846.851 528.964 845.707 529.273 844.422 529.273C842.462 529.273 840.867 528.585 839.637 527.209C838.415 525.824 837.805 523.992 837.805 521.713V521.385ZM839.445 521.836C839.445 523.604 839.901 525.058 840.812 526.197C841.733 527.327 842.936 527.893 844.422 527.893C845.898 527.893 847.092 527.327 848.004 526.197C848.924 525.058 849.385 523.559 849.385 521.699V521.385C849.385 520.255 849.175 519.22 848.756 518.281C848.337 517.342 847.749 516.618 846.992 516.107C846.236 515.588 845.37 515.328 844.395 515.328C842.936 515.328 841.747 515.902 840.826 517.051C839.906 518.19 839.445 519.685 839.445 521.535V521.836ZM855.893 514.207L855.947 516.613C856.494 515.72 857.178 515.05 857.998 514.604C858.818 514.157 859.73 513.934 860.732 513.934C863.066 513.934 864.547 514.891 865.176 516.805C865.704 515.884 866.411 515.178 867.295 514.686C868.179 514.184 869.154 513.934 870.221 513.934C873.393 513.934 875.01 515.665 875.074 519.129V529H873.434V519.252C873.424 517.93 873.137 516.951 872.572 516.312C872.016 515.674 871.105 515.355 869.838 515.355C868.662 515.374 867.669 515.757 866.857 516.504C866.046 517.242 865.595 518.145 865.504 519.211V529H863.863V519.129C863.854 517.862 863.553 516.919 862.961 516.299C862.378 515.67 861.475 515.355 860.254 515.355C859.224 515.355 858.34 515.652 857.602 516.244C856.863 516.827 856.316 517.698 855.961 518.855V529H854.32V514.207H855.893Z" fill="#212C35"/>
<path d="M649.523 339.662L640.22 328.924C639.148 327.687 637.181 327.692 635.936 328.94L628.286 336.604C626.009 338.884 625.357 342.269 626.674 344.983C634.543 361.276 647.683 374.434 663.965 382.326C666.676 383.643 670.059 382.991 672.335 380.712L680.057 372.976C681.308 371.725 681.311 369.748 680.062 368.676L669.283 359.422C668.156 358.454 666.404 358.581 665.274 359.714L661.523 363.47C661.331 363.671 661.078 363.804 660.804 363.848C660.529 363.891 660.247 363.844 660.002 363.712C653.871 360.182 648.786 355.089 645.263 348.954C645.131 348.708 645.084 348.426 645.127 348.151C645.171 347.876 645.304 347.623 645.505 347.43L649.245 343.688C650.378 342.549 650.502 340.79 649.523 339.659V339.662Z" stroke="#FD1E23" stroke-width="4" stroke-linecap="round" stroke-linejoin="round"/>
<path d="M624 412V420.554L654.5 437.905L685 420.554V412H624ZM624 426.026V451.11L639.537 434.863L624 426.026ZM685 426.026L669.463 434.863L685 451.11V426.026ZM643.803 437.292L624 458H685L665.197 437.292L654.5 443.376L643.803 437.292Z" fill="#FD1E23"/>
<path d="M626 514.09V514.011C626.715 504.823 630.054 497.932 635.858 493.576C641.582 489.14 647.782 487.002 654.54 487.002C661.615 486.923 668.213 489.299 674.096 494.051C680.059 498.724 683 505.694 683 514.724V515.278C683 524.387 680.059 531.198 674.096 535.872C668.134 540.624 661.536 543 654.46 543H654.142C647.226 542.921 640.866 540.545 634.983 535.792C629.1 531.119 626.079 523.912 626 514.09ZM652.791 501.655V489.14H650.883C650.485 489.616 650.167 490.17 649.849 490.645C649.531 491.121 649.213 491.596 648.895 492.15C648.577 492.625 648.18 493.259 647.941 493.734C647.623 494.21 647.385 494.685 647.146 495.239C646.669 496.031 646.272 496.823 645.954 497.536C645.556 498.249 645.238 498.962 645 499.596C645.477 499.912 646.033 500.308 646.669 500.546C647.385 500.784 648.1 501.021 648.816 501.18C649.611 501.338 650.326 501.417 650.962 501.496C651.678 501.576 652.314 501.655 652.791 501.655ZM656.13 489.14V501.576C656.527 501.576 657.004 501.655 657.481 501.576C657.958 501.576 658.515 501.496 658.992 501.417C659.866 501.259 660.9 501.021 661.695 500.784C662.569 500.467 663.364 500.071 663.921 499.596C662.967 497.299 661.933 495.477 660.9 493.734C659.866 491.992 658.674 490.487 657.402 489.22V489.14H656.13ZM647.544 489.853V489.774C646.987 490.012 646.431 490.408 645.795 490.645C645.238 490.883 644.523 491.2 643.967 491.517C642.854 492.071 641.741 492.705 640.628 493.418C639.594 494.13 638.561 494.922 637.686 495.714C638.004 496.031 638.402 496.348 638.72 496.586C639.038 496.823 639.435 497.14 639.833 497.457C640.151 497.615 640.548 497.853 640.946 498.17C641.343 498.407 641.82 498.724 642.297 499.041C642.933 497.615 643.569 496.111 644.364 494.764C645.159 493.338 646.033 491.992 646.908 490.804C646.987 490.645 647.067 490.487 647.226 490.329C647.305 490.249 647.385 490.012 647.544 489.853ZM671.87 495.714V495.635C669.883 494.13 668.134 492.863 666.385 492.071C664.636 491.279 662.887 490.487 661.297 489.853C662.569 491.121 663.682 492.705 664.397 494.21C665.192 495.794 665.987 497.457 666.623 499.041C666.941 498.883 667.339 498.724 667.816 498.407C668.213 498.17 668.77 497.932 669.247 497.695C669.724 497.378 670.121 497.061 670.598 496.744C671.075 496.348 671.552 496.031 671.87 495.714ZM670.519 513.377H679.661C679.661 510.447 679.025 507.674 677.833 504.823C676.72 502.051 675.13 499.754 673.142 497.774V497.695C672.745 498.328 672.188 498.883 671.632 499.279C670.996 499.675 670.439 499.992 669.803 500.308C669.406 500.546 669.008 500.863 668.611 501.021C668.213 501.259 667.657 501.417 667.259 501.655C667.577 502.289 667.895 503.001 668.213 503.635C668.452 504.348 668.849 505.14 669.008 505.853C669.485 507.12 669.803 508.467 670.121 509.813C670.36 511.001 670.519 512.268 670.519 513.377ZM641.741 501.655V501.576C641.105 501.259 640.389 501.021 639.833 500.704C639.276 500.308 638.72 499.912 638.243 499.596C637.766 499.358 637.289 499.041 636.891 498.724C636.494 498.407 636.176 498.091 635.858 497.774C633.791 499.754 632.28 501.972 631.326 504.585C630.293 507.199 629.577 510.13 629.259 513.298H639.038C639.038 511.08 639.356 508.942 639.912 506.803C640.389 504.585 641.105 502.922 641.741 501.655ZM652.791 513.298V504.189C652.155 504.269 651.36 504.269 650.644 504.189C649.849 504.11 649.054 503.873 648.339 503.635C647.703 503.477 646.908 503.318 646.272 503.081C645.556 502.922 644.841 502.605 644.285 502.289C643.808 503.081 643.41 504.031 643.092 505.061C642.695 506.011 642.456 507.041 642.218 507.991C642.059 508.942 641.979 509.971 641.9 510.843C641.82 511.714 641.741 512.585 641.741 513.298H652.791ZM656.13 504.348V513.298H667.895C667.895 512.823 667.895 512.268 667.816 511.635C667.657 511.08 667.577 510.367 667.498 509.734C667.259 508.783 667.021 507.754 666.703 506.803C666.385 505.932 666.067 505.061 665.669 504.348C665.51 503.952 665.351 503.477 665.192 503.16C664.954 502.764 664.715 502.526 664.556 502.289C663.682 502.922 662.49 503.318 661.059 503.635C659.707 503.952 658.117 504.269 656.686 504.348H656.13ZM639.038 515.912H629.259C629.259 517.258 629.498 518.763 629.895 520.585C630.293 522.486 631.088 524.228 631.962 526.129C632.36 527.08 632.837 528.03 633.314 528.981C633.87 529.852 634.506 530.802 635.142 531.674C635.619 531.357 636.096 531.119 636.494 530.882C636.971 530.644 637.527 530.327 638.004 530.09C638.561 529.852 639.117 529.614 639.753 529.298C640.31 529.06 641.025 528.743 641.741 528.426C641.105 526.446 640.389 524.545 639.912 522.407C639.356 520.347 639.038 518.288 639.038 515.991V515.912ZM652.791 525.179V515.912H641.741C641.741 516.545 641.82 517.496 641.979 518.446C642.059 519.397 642.297 520.427 642.456 521.456C642.774 522.565 643.013 523.674 643.331 524.624C643.649 525.575 643.967 526.367 644.285 527.08C645.715 526.525 647.146 526.129 648.1 525.892C649.134 525.575 650.088 525.337 651.042 525.258H651.916C652.234 525.179 652.552 525.179 652.791 525.179ZM656.13 515.912V525.1C656.686 525.179 657.322 525.258 657.958 525.337C658.674 525.416 659.548 525.575 660.264 525.733L661.456 525.971C661.854 526.129 662.331 526.208 662.728 526.288C663.205 526.446 663.682 526.525 664.159 526.684C664.556 526.842 664.954 526.921 665.272 527.08C666.305 524.466 666.941 522.327 667.339 520.506C667.736 518.763 667.895 517.258 667.895 515.991V515.912H656.13ZM679.661 515.991V515.912H670.519V516.387C670.439 517.892 670.201 519.634 669.883 521.456C669.565 523.199 668.849 525.258 667.895 527.793C669.167 528.426 670.36 529.06 671.314 529.694C672.268 530.327 673.142 531.04 673.778 531.674C675.13 530.327 676.322 528.505 677.356 526.129C678.389 523.832 679.105 521.456 679.502 518.922C679.582 518.446 679.582 517.971 679.661 517.496V515.991ZM652.791 540.069V527.713C650.803 528.03 649.134 528.426 647.862 528.743C646.59 529.06 645.636 529.377 645 529.694C645.477 530.882 645.954 531.911 646.431 532.862C646.908 533.733 647.464 534.683 647.941 535.476C648.1 535.792 648.418 536.109 648.657 536.505C648.895 536.822 649.054 537.218 649.293 537.535C649.531 537.931 649.77 538.406 650.008 538.881C650.326 539.277 650.565 539.753 650.883 540.069H652.791ZM656.13 540.069H657.958C658.674 539.515 659.389 538.723 659.946 537.852C660.582 536.98 661.297 535.951 661.774 535.079C662.331 534.05 662.887 533.099 663.364 532.149C663.841 531.198 664.238 530.327 664.556 529.694C663.682 529.377 662.49 529.06 661.297 528.743C660.105 528.426 658.435 528.109 656.13 527.793V540.069ZM671.87 533.575V533.495C671.711 533.258 671.393 532.941 671.155 532.703C670.916 532.466 670.519 532.149 670.121 531.911C669.803 531.674 669.406 531.436 668.929 531.198C668.452 530.961 667.816 530.644 667.259 530.327C666.941 530.961 666.385 532.07 665.59 533.575C664.874 535.079 663.603 536.901 662.013 538.881C664 538.565 665.749 537.852 667.339 536.901C669.088 536.03 670.598 534.842 671.87 533.575ZM642.297 531.04V530.961C641.741 531.278 640.866 531.674 639.992 532.07C639.038 532.466 638.004 532.941 637.05 533.575C637.607 534.05 638.163 534.525 638.64 534.842C639.117 535.238 639.674 535.555 640.151 535.872C641.025 536.426 642.059 536.98 643.092 537.456C644.126 537.931 645.397 538.406 646.987 538.881C646.431 538.248 646.033 537.456 645.636 536.822C645.238 536.188 644.762 535.555 644.364 534.921C643.967 534.287 643.649 533.575 643.331 532.941C642.933 532.307 642.615 531.674 642.297 531.04Z" fill="#FD1E23"/>
</g>
<defs>
<filter id="filter0_d" x="362" y="113" width="206" height="489" filterUnits="userSpaceOnUse" color-interpolation-filters="sRGB">
<feFlood flood-opacity="0" result="BackgroundImageFix"/>
<feColorMatrix in="SourceAlpha" type="matrix" values="0 0 0 0 0 0 0 0 0 0 0 0 0 0 0 0 0 0 127 0"/>
<feOffset dx="4" dy="4"/>
<feGaussianBlur stdDeviation="2"/>
<feColorMatrix type="matrix" values="0 0 0 0 0 0 0 0 0 0 0 0 0 0 0 0 0 0 0.25 0"/>
<feBlend mode="normal" in2="BackgroundImageFix" result="effect1_dropShadow"/>
<feBlend mode="normal" in="SourceGraphic" in2="effect1_dropShadow" result="shape"/>
</filter>
<filter id="filter1_d" x="310" y="3" width="261" height="311.5" filterUnits="userSpaceOnUse" color-interpolation-filters="sRGB">
<feFlood flood-opacity="0" result="BackgroundImageFix"/>
<feColorMatrix in="SourceAlpha" type="matrix" values="0 0 0 0 0 0 0 0 0 0 0 0 0 0 0 0 0 0 127 0"/>
<feOffset dx="7" dy="4"/>
<feGaussianBlur stdDeviation="2"/>
<feColorMatrix type="matrix" values="0 0 0 0 0 0 0 0 0 0 0 0 0 0 0 0 0 0 0.25 0"/>
<feBlend mode="normal" in2="BackgroundImageFix" result="effect1_dropShadow"/>
<feBlend mode="normal" in="SourceGraphic" in2="effect1_dropShadow" result="shape"/>
</filter>
<clipPath id="clip0">
<rect width="1050" height="600" fill="white"/>
</clipPath>
</defs>
</svg>
