<svg width="1050" height="600" viewBox="0 0 1050 600" fill="none" xmlns="http://www.w3.org/2000/svg">
<rect width="1050" height="600" fill="white"/>
<rect y="413" width="1050" height="187" fill="#F47123"/>
<path d="M359.098 504.533H370.23V511.037H359.098V523.723H352.184V511.037H340.992V504.533H352.184V492.668H359.098V504.533ZM395.836 510.158C393.453 512.678 390.67 513.938 387.486 513.938C383.736 513.938 380.748 512.629 378.521 510.012C376.295 507.375 375.182 503.918 375.182 499.641C375.182 496.828 375.748 494.279 376.881 491.994C378.014 489.709 379.625 487.932 381.715 486.662C383.805 485.393 386.227 484.758 388.98 484.758C393.277 484.758 396.686 486.359 399.205 489.562C401.725 492.766 402.984 497.053 402.984 502.424V504.416C402.984 512.111 401.246 517.98 397.77 522.023C394.293 526.066 389.107 528.117 382.213 528.176H381.363V522.287H382.389C386.588 522.229 389.811 521.223 392.057 519.27C394.303 517.297 395.562 514.26 395.836 510.158ZM388.98 508.371C390.406 508.371 391.744 507.961 392.994 507.141C394.244 506.32 395.211 505.188 395.895 503.742V500.959C395.895 497.814 395.25 495.285 393.961 493.371C392.672 491.457 391.002 490.5 388.951 490.5C386.9 490.5 385.26 491.35 384.029 493.049C382.818 494.729 382.213 496.857 382.213 499.436C382.213 502.111 382.828 504.27 384.059 505.91C385.289 507.551 386.93 508.371 388.98 508.371ZM429.938 510.158C427.555 512.678 424.771 513.938 421.588 513.938C417.838 513.938 414.85 512.629 412.623 510.012C410.396 507.375 409.283 503.918 409.283 499.641C409.283 496.828 409.85 494.279 410.982 491.994C412.115 489.709 413.727 487.932 415.816 486.662C417.906 485.393 420.328 484.758 423.082 484.758C427.379 484.758 430.787 486.359 433.307 489.562C435.826 492.766 437.086 497.053 437.086 502.424V504.416C437.086 512.111 435.348 517.98 431.871 522.023C428.395 526.066 423.209 528.117 416.314 528.176H415.465V522.287H416.49C420.689 522.229 423.912 521.223 426.158 519.27C428.404 517.297 429.664 514.26 429.938 510.158ZM423.082 508.371C424.508 508.371 425.846 507.961 427.096 507.141C428.346 506.32 429.312 505.188 429.996 503.742V500.959C429.996 497.814 429.352 495.285 428.062 493.371C426.773 491.457 425.104 490.5 423.053 490.5C421.002 490.5 419.361 491.35 418.131 493.049C416.92 494.729 416.314 496.857 416.314 499.436C416.314 502.111 416.93 504.27 418.16 505.91C419.391 507.551 421.031 508.371 423.082 508.371ZM445.758 506.848L448.072 485.344H470.982V491.496H453.99L452.818 501.691C454.791 500.559 457.018 499.992 459.498 499.992C463.561 499.992 466.715 501.291 468.961 503.889C471.227 506.486 472.359 509.982 472.359 514.377C472.359 518.713 471.109 522.17 468.609 524.748C466.109 527.307 462.682 528.586 458.326 528.586C454.42 528.586 451.178 527.482 448.6 525.275C446.041 523.049 444.654 520.119 444.439 516.486H451.324C451.598 518.557 452.34 520.148 453.551 521.262C454.762 522.355 456.344 522.902 458.297 522.902C460.484 522.902 462.184 522.121 463.395 520.559C464.625 518.996 465.24 516.867 465.24 514.172C465.24 511.574 464.566 509.523 463.219 508.02C461.871 506.496 460.016 505.734 457.652 505.734C456.363 505.734 455.27 505.91 454.371 506.262C453.473 506.594 452.496 507.258 451.441 508.254L445.758 506.848ZM520.699 510.041C520.699 516.174 519.547 520.803 517.242 523.928C514.957 527.033 511.471 528.586 506.783 528.586C502.174 528.586 498.697 527.072 496.354 524.045C494.029 520.998 492.838 516.496 492.779 510.539V503.156C492.779 497.023 493.922 492.424 496.207 489.357C498.512 486.291 502.018 484.758 506.725 484.758C511.393 484.758 514.869 486.252 517.154 489.24C519.459 492.229 520.641 496.701 520.699 502.658V510.041ZM513.58 502.072C513.58 498.068 513.033 495.139 511.939 493.283C510.846 491.408 509.107 490.471 506.725 490.471C504.4 490.471 502.691 491.359 501.598 493.137C500.504 494.895 499.928 497.648 499.869 501.398V511.066C499.869 515.051 500.426 518.02 501.539 519.973C502.652 521.926 504.4 522.902 506.783 522.902C509.068 522.902 510.758 522.004 511.852 520.207C512.945 518.391 513.521 515.559 513.58 511.711V502.072ZM554.801 510.041C554.801 516.174 553.648 520.803 551.344 523.928C549.059 527.033 545.572 528.586 540.885 528.586C536.275 528.586 532.799 527.072 530.455 524.045C528.131 520.998 526.939 516.496 526.881 510.539V503.156C526.881 497.023 528.023 492.424 530.309 489.357C532.613 486.291 536.119 484.758 540.826 484.758C545.494 484.758 548.971 486.252 551.256 489.24C553.561 492.229 554.742 496.701 554.801 502.658V510.041ZM547.682 502.072C547.682 498.068 547.135 495.139 546.041 493.283C544.947 491.408 543.209 490.471 540.826 490.471C538.502 490.471 536.793 491.359 535.699 493.137C534.605 494.895 534.029 497.648 533.971 501.398V511.066C533.971 515.051 534.527 518.02 535.641 519.973C536.754 521.926 538.502 522.902 540.885 522.902C543.17 522.902 544.859 522.004 545.953 520.207C547.047 518.391 547.623 515.559 547.682 511.711V502.072ZM588.902 510.041C588.902 516.174 587.75 520.803 585.445 523.928C583.16 527.033 579.674 528.586 574.986 528.586C570.377 528.586 566.9 527.072 564.557 524.045C562.232 520.998 561.041 516.496 560.982 510.539V503.156C560.982 497.023 562.125 492.424 564.41 489.357C566.715 486.291 570.221 484.758 574.928 484.758C579.596 484.758 583.072 486.252 585.357 489.24C587.662 492.229 588.844 496.701 588.902 502.658V510.041ZM581.783 502.072C581.783 498.068 581.236 495.139 580.143 493.283C579.049 491.408 577.311 490.471 574.928 490.471C572.604 490.471 570.895 491.359 569.801 493.137C568.707 494.895 568.131 497.648 568.072 501.398V511.066C568.072 515.051 568.629 518.02 569.742 519.973C570.855 521.926 572.604 522.902 574.986 522.902C577.271 522.902 578.961 522.004 580.055 520.207C581.148 518.391 581.725 515.559 581.783 511.711V502.072ZM637.945 510.041C637.945 516.174 636.793 520.803 634.488 523.928C632.203 527.033 628.717 528.586 624.029 528.586C619.42 528.586 615.943 527.072 613.6 524.045C611.275 520.998 610.084 516.496 610.025 510.539V503.156C610.025 497.023 611.168 492.424 613.453 489.357C615.758 486.291 619.264 484.758 623.971 484.758C628.639 484.758 632.115 486.252 634.4 489.24C636.705 492.229 637.887 496.701 637.945 502.658V510.041ZM630.826 502.072C630.826 498.068 630.279 495.139 629.186 493.283C628.092 491.408 626.354 490.471 623.971 490.471C621.646 490.471 619.938 491.359 618.844 493.137C617.75 494.895 617.174 497.648 617.115 501.398V511.066C617.115 515.051 617.672 518.02 618.785 519.973C619.898 521.926 621.646 522.902 624.029 522.902C626.314 522.902 628.004 522.004 629.098 520.207C630.191 518.391 630.768 515.559 630.826 511.711V502.072ZM672.047 510.041C672.047 516.174 670.895 520.803 668.59 523.928C666.305 527.033 662.818 528.586 658.131 528.586C653.521 528.586 650.045 527.072 647.701 524.045C645.377 520.998 644.186 516.496 644.127 510.539V503.156C644.127 497.023 645.27 492.424 647.555 489.357C649.859 486.291 653.365 484.758 658.072 484.758C662.74 484.758 666.217 486.252 668.502 489.24C670.807 492.229 671.988 496.701 672.047 502.658V510.041ZM664.928 502.072C664.928 498.068 664.381 495.139 663.287 493.283C662.193 491.408 660.455 490.471 658.072 490.471C655.748 490.471 654.039 491.359 652.945 493.137C651.852 494.895 651.275 497.648 651.217 501.398V511.066C651.217 515.051 651.773 518.02 652.887 519.973C654 521.926 655.748 522.902 658.131 522.902C660.416 522.902 662.105 522.004 663.199 520.207C664.293 518.391 664.869 515.559 664.928 511.711V502.072ZM706.148 510.041C706.148 516.174 704.996 520.803 702.691 523.928C700.406 527.033 696.92 528.586 692.232 528.586C687.623 528.586 684.146 527.072 681.803 524.045C679.479 520.998 678.287 516.496 678.229 510.539V503.156C678.229 497.023 679.371 492.424 681.656 489.357C683.961 486.291 687.467 484.758 692.174 484.758C696.842 484.758 700.318 486.252 702.604 489.24C704.908 492.229 706.09 496.701 706.148 502.658V510.041ZM699.029 502.072C699.029 498.068 698.482 495.139 697.389 493.283C696.295 491.408 694.557 490.471 692.174 490.471C689.85 490.471 688.141 491.359 687.047 493.137C685.953 494.895 685.377 497.648 685.318 501.398V511.066C685.318 515.051 685.875 518.02 686.988 519.973C688.102 521.926 689.85 522.902 692.232 522.902C694.518 522.902 696.207 522.004 697.301 520.207C698.395 518.391 698.971 515.559 699.029 511.711V502.072Z" fill="white"/>
<path d="M110.395 68.75C108.692 68.75 107.198 68.4 105.915 67.7C104.655 67.0233 103.675 66.0667 102.975 64.83C102.298 63.5933 101.96 62.135 101.96 60.455C101.96 59.7783 102.018 59.1483 102.135 58.565C102.275 57.9583 102.427 57.4567 102.59 57.06H105.53C105.413 57.4333 105.297 57.9233 105.18 58.53C105.087 59.1133 105.04 59.6617 105.04 60.175C105.04 61.8783 105.472 63.3017 106.335 64.445C107.198 65.6117 108.552 66.195 110.395 66.195C112.192 66.195 113.475 65.6 114.245 64.41C115.038 63.22 115.435 61.6333 115.435 59.65V47.295C115.435 46.0583 115.202 45.1133 114.735 44.46C114.292 43.7833 113.592 43.445 112.635 43.445C111.748 43.445 111.06 43.7833 110.57 44.46C110.103 45.1133 109.87 46.035 109.87 47.225V51.74H106.93V47.295C106.93 44.845 105.973 43.62 104.06 43.62H101.435V41.065H103.955C105.098 41.065 106.032 41.31 106.755 41.8C107.502 42.2667 108.038 43.0483 108.365 44.145H108.505C109.322 41.975 110.827 40.89 113.02 40.89C114.747 40.89 116.088 41.4383 117.045 42.535C118.025 43.6317 118.515 45.0433 118.515 46.77V59.79C118.515 62.6367 117.803 64.8417 116.38 66.405C114.957 67.9683 112.962 68.75 110.395 68.75ZM139.323 68.75C137.433 68.75 135.765 68.4933 134.318 67.98C132.895 67.4667 131.775 66.7317 130.958 65.775C130.165 64.8183 129.768 63.6633 129.768 62.31C129.768 62.0767 129.78 61.8433 129.803 61.61C129.826 61.3767 129.861 61.1433 129.908 60.91H132.813C132.79 61.0967 132.766 61.2717 132.743 61.435C132.743 61.5983 132.743 61.7617 132.743 61.925C132.743 63.395 133.338 64.4683 134.528 65.145C135.718 65.845 137.316 66.195 139.323 66.195C141.33 66.195 142.835 65.6933 143.838 64.69C144.865 63.71 145.378 62.4967 145.378 61.05C145.378 60.3033 145.238 59.6033 144.958 58.95C144.678 58.2733 144.223 57.725 143.593 57.305C142.986 56.8617 142.17 56.64 141.143 56.64H140.268V54.085H141.878C142.648 54.085 143.36 53.8633 144.013 53.42C144.666 52.9533 145.191 52.3117 145.588 51.495C145.985 50.6783 146.183 49.6983 146.183 48.555C146.183 46.9917 145.856 45.755 145.203 44.845C144.573 43.9117 143.686 43.445 142.543 43.445C141.353 43.445 140.385 43.8767 139.638 44.74C138.891 45.58 138.518 46.8983 138.518 48.695V49.535C138.518 51.2617 138.191 52.7783 137.538 54.085C136.885 55.3917 135.975 56.4183 134.808 57.165C133.641 57.8883 132.288 58.25 130.748 58.25C129.208 58.25 127.855 57.8883 126.688 57.165C125.545 56.4183 124.646 55.3917 123.993 54.085C123.363 52.7783 123.048 51.2617 123.048 49.535C123.048 47.8317 123.363 46.3267 123.993 45.02C124.646 43.7133 125.556 42.6983 126.723 41.975C127.89 41.2517 129.243 40.89 130.783 40.89C131.996 40.89 133.175 41.2167 134.318 41.87C135.461 42.5233 136.278 43.515 136.768 44.845H136.978C137.375 43.6317 138.04 42.675 138.973 41.975C139.93 41.2517 141.155 40.89 142.648 40.89C144.048 40.89 145.238 41.24 146.218 41.94C147.221 42.6167 147.98 43.515 148.493 44.635C149.006 45.7317 149.263 46.91 149.263 48.17C149.263 50.3167 148.808 51.9617 147.898 53.105C147.011 54.2483 145.833 54.9717 144.363 55.275V55.415C147.163 56.1383 148.563 58.0633 148.563 61.19C148.563 62.6367 148.178 63.92 147.408 65.04C146.638 66.1833 145.565 67.0817 144.188 67.735C142.811 68.4117 141.19 68.75 139.323 68.75ZM130.818 55.695C131.845 55.695 132.696 55.415 133.373 54.855C134.05 54.295 134.551 53.5483 134.878 52.615C135.228 51.6817 135.403 50.655 135.403 49.535C135.403 48.3917 135.228 47.365 134.878 46.455C134.551 45.545 134.038 44.8217 133.338 44.285C132.661 43.7483 131.81 43.48 130.783 43.48C129.733 43.48 128.858 43.7483 128.158 44.285C127.481 44.8217 126.98 45.545 126.653 46.455C126.326 47.365 126.163 48.3917 126.163 49.535C126.163 50.655 126.326 51.6817 126.653 52.615C127.003 53.5483 127.516 54.295 128.193 54.855C128.893 55.415 129.768 55.695 130.818 55.695ZM160.038 60.35C158.591 60.35 157.273 60.0817 156.083 59.545C154.916 59.0083 153.983 58.215 153.283 57.165C152.606 56.115 152.268 54.8083 152.268 53.245C152.268 52.7317 152.314 52.2417 152.408 51.775C152.501 51.285 152.606 50.9 152.723 50.62H155.663C155.569 50.9467 155.488 51.3317 155.418 51.775C155.371 52.2183 155.348 52.7083 155.348 53.245C155.348 54.7383 155.768 55.87 156.608 56.64C157.471 57.41 158.614 57.795 160.038 57.795C161.461 57.795 162.581 57.41 163.398 56.64C164.214 55.8467 164.623 54.6567 164.623 53.07C164.623 51.8567 164.354 50.8767 163.818 50.13C163.304 49.3833 162.721 48.6717 162.068 47.995C161.508 47.435 160.948 46.8517 160.388 46.245C159.828 45.615 159.361 44.9033 158.988 44.11C158.638 43.2933 158.463 42.3367 158.463 41.24H161.543C161.543 42.2667 161.811 43.1533 162.348 43.9C162.908 44.6467 163.549 45.3817 164.273 46.105C164.856 46.6883 165.416 47.3067 165.953 47.96C166.489 48.59 166.933 49.325 167.283 50.165C167.633 50.9817 167.808 51.95 167.808 53.07C167.808 54.5167 167.469 55.7883 166.793 56.885C166.116 57.9817 165.194 58.8333 164.028 59.44C162.861 60.0467 161.531 60.35 160.038 60.35ZM180.647 60.35C177.963 60.35 175.91 59.5567 174.487 57.97C173.063 56.36 172.352 54.015 172.352 50.935V33.4H175.432V51.25C175.432 53.2333 175.84 54.82 176.657 56.01C177.473 57.2 178.803 57.795 180.647 57.795C181.813 57.795 182.77 57.5383 183.517 57.025C184.287 56.4883 184.858 55.7767 185.232 54.89C185.605 54.0033 185.792 53.0117 185.792 51.915C185.792 50.9583 185.628 50.13 185.302 49.43C184.998 48.73 184.613 48.0533 184.147 47.4C183.587 46.6067 183.062 45.7433 182.572 44.81C182.105 43.8767 181.872 42.6867 181.872 41.24H184.952C184.952 42.29 185.162 43.2117 185.582 44.005C186.002 44.775 186.492 45.5567 187.052 46.35C187.588 47.0967 188.043 47.925 188.417 48.835C188.79 49.7217 188.977 50.7833 188.977 52.02C188.977 53.7 188.627 55.17 187.927 56.43C187.227 57.6667 186.247 58.635 184.987 59.335C183.727 60.0117 182.28 60.35 180.647 60.35ZM194.978 60C194.255 58.3667 193.718 56.8033 193.368 55.31C193.018 53.8167 192.843 52.16 192.843 50.34C192.843 48.4733 193.111 46.8283 193.648 45.405C194.185 43.9817 194.978 42.8733 196.028 42.08C197.078 41.2867 198.385 40.89 199.948 40.89C201.255 40.89 202.305 41.1933 203.098 41.8C203.915 42.3833 204.51 43.1883 204.883 44.215H205.058C205.431 43.1883 206.038 42.3833 206.878 41.8C207.741 41.1933 208.791 40.89 210.028 40.89C211.591 40.89 212.898 41.2867 213.948 42.08C214.998 42.8733 215.791 43.9817 216.328 45.405C216.865 46.8283 217.133 48.4733 217.133 50.34C217.133 52.16 216.958 53.8167 216.608 55.31C216.258 56.8033 215.721 58.3667 214.998 60H211.848C212.595 58.3667 213.131 56.8033 213.458 55.31C213.808 53.8167 213.983 52.1483 213.983 50.305C213.983 48.0417 213.621 46.3383 212.898 45.195C212.175 44.0283 211.136 43.445 209.783 43.445C208.733 43.445 207.916 43.8417 207.333 44.635C206.75 45.4283 206.458 46.5483 206.458 47.995V53.63H203.518V47.995C203.518 46.6883 203.25 45.6033 202.713 44.74C202.176 43.8767 201.325 43.445 200.158 43.445C198.828 43.445 197.801 44.0283 197.078 45.195C196.355 46.3383 195.993 48.0417 195.993 50.305C195.993 52.1483 196.156 53.8167 196.483 55.31C196.833 56.8033 197.381 58.3667 198.128 60H194.978ZM238.395 60.35C235.921 60.35 233.915 59.545 232.375 57.935C230.835 56.3017 230.065 53.875 230.065 50.655C230.065 47.5983 230.765 45.265 232.165 43.655C233.588 42.045 235.466 41.24 237.8 41.24C239.246 41.24 240.425 41.5083 241.335 42.045C242.268 42.5817 243.026 43.235 243.61 44.005H243.82C243.773 43.7483 243.726 43.3867 243.68 42.92C243.633 42.4533 243.61 42.0217 243.61 41.625V40.015C243.61 38.7317 243.236 37.6583 242.49 36.795C241.743 35.9317 240.506 35.5 238.78 35.5C237.45 35.5 236.365 35.7917 235.525 36.375C234.685 36.9583 234.265 37.7283 234.265 38.685C234.265 38.825 234.265 38.965 234.265 39.105C234.288 39.245 234.311 39.385 234.335 39.525H231.36C231.29 39.2917 231.243 39.07 231.22 38.86C231.196 38.65 231.185 38.4517 231.185 38.265C231.185 37.2383 231.523 36.34 232.2 35.57C232.876 34.7767 233.786 34.1583 234.93 33.715C236.096 33.2717 237.38 33.05 238.78 33.05C241.253 33.05 243.19 33.715 244.59 35.045C245.99 36.375 246.69 38.125 246.69 40.295V50.655C246.69 53.875 245.978 56.3017 244.555 57.935C243.131 59.545 241.078 60.35 238.395 60.35ZM238.395 57.795C240.308 57.795 241.661 57.2 242.455 56.01C243.248 54.82 243.645 53.2333 243.645 51.25V50.69C243.645 48.5433 243.26 46.8633 242.49 45.65C241.72 44.4133 240.296 43.795 238.22 43.795C236.563 43.795 235.315 44.4367 234.475 45.72C233.658 47.0033 233.25 48.6717 233.25 50.725C233.25 52.965 233.67 54.7033 234.51 55.94C235.35 57.1767 236.645 57.795 238.395 57.795ZM253.391 60C252.668 58.3667 252.131 56.8033 251.781 55.31C251.431 53.8167 251.256 52.16 251.256 50.34C251.256 47.47 251.944 45.1833 253.321 43.48C254.721 41.7533 256.739 40.89 259.376 40.89C262.059 40.89 264.078 41.7533 265.431 43.48C266.808 45.1833 267.496 47.47 267.496 50.34C267.496 52.16 267.321 53.8167 266.971 55.31C266.621 56.8033 266.084 58.3667 265.361 60H262.211C262.958 58.3667 263.494 56.8033 263.821 55.31C264.171 53.8167 264.346 52.1483 264.346 50.305C264.346 48.0417 263.903 46.3383 263.016 45.195C262.153 44.0283 260.939 43.445 259.376 43.445C257.813 43.445 256.588 44.0283 255.701 45.195C254.838 46.3383 254.406 48.0417 254.406 50.305C254.406 52.1483 254.569 53.8167 254.896 55.31C255.246 56.8033 255.794 58.3667 256.541 60H253.391ZM282.869 68.75C279.182 68.75 276.335 67.5367 274.329 65.11C272.345 62.6833 271.354 59.1717 271.354 54.575C271.354 50.585 272.24 47.4117 274.014 45.055C275.81 42.675 278.307 41.3217 281.504 40.995C281.457 40.5517 281.41 40.1083 281.364 39.665C281.34 39.2217 281.329 38.8483 281.329 38.545V36.9H284.409V38.475C284.409 39.1517 284.35 39.98 284.234 40.96C287.43 41.2867 289.915 42.64 291.689 45.02C293.485 47.4 294.384 50.5967 294.384 54.61C294.384 57.4567 293.94 59.93 293.054 62.03C292.19 64.1533 290.895 65.7983 289.169 66.965C287.465 68.155 285.365 68.75 282.869 68.75ZM282.869 66.195C285.575 66.195 287.64 65.215 289.064 63.255C290.487 61.295 291.199 58.4133 291.199 54.61C291.199 47.8433 288.877 44.11 284.234 43.41C284.28 43.9 284.315 44.4017 284.339 44.915C284.385 45.405 284.409 45.895 284.409 46.385V53.63H281.329V46.315C281.329 45.8483 281.34 45.37 281.364 44.88C281.41 44.39 281.457 43.9117 281.504 43.445C276.86 44.145 274.539 47.8667 274.539 54.61C274.539 58.39 275.25 61.26 276.674 63.22C278.12 65.2033 280.185 66.195 282.869 66.195ZM305.814 60.35C304.367 60.35 303.049 60.0817 301.859 59.545C300.692 59.0083 299.759 58.215 299.059 57.165C298.382 56.115 298.044 54.8083 298.044 53.245C298.044 52.7317 298.091 52.2417 298.184 51.775C298.277 51.285 298.382 50.9 298.499 50.62H301.439C301.346 50.9467 301.264 51.3317 301.194 51.775C301.147 52.2183 301.124 52.7083 301.124 53.245C301.124 54.7383 301.544 55.87 302.384 56.64C303.247 57.41 304.391 57.795 305.814 57.795C307.237 57.795 308.357 57.41 309.174 56.64C309.991 55.8467 310.399 54.6567 310.399 53.07C310.399 51.8567 310.131 50.8767 309.594 50.13C309.081 49.3833 308.497 48.6717 307.844 47.995C307.284 47.435 306.724 46.8517 306.164 46.245C305.604 45.615 305.137 44.9033 304.764 44.11C304.414 43.2933 304.239 42.3367 304.239 41.24H307.319C307.319 42.2667 307.587 43.1533 308.124 43.9C308.684 44.6467 309.326 45.3817 310.049 46.105C310.632 46.6883 311.192 47.3067 311.729 47.96C312.266 48.59 312.709 49.325 313.059 50.165C313.409 50.9817 313.584 51.95 313.584 53.07C313.584 54.5167 313.246 55.7883 312.569 56.885C311.892 57.9817 310.971 58.8333 309.804 59.44C308.637 60.0467 307.307 60.35 305.814 60.35ZM326.423 60.35C323.74 60.35 321.686 59.545 320.263 57.935C318.84 56.3017 318.128 53.875 318.128 50.655V39.77C318.128 38.2767 318.396 37.0633 318.933 36.13C319.493 35.1733 320.251 34.485 321.208 34.065C322.165 33.6217 323.238 33.4 324.428 33.4H332.688V35.99H324.848C323.728 35.99 322.841 36.27 322.188 36.83C321.535 37.3667 321.208 38.3117 321.208 39.665V40.89C321.208 41.24 321.173 41.7183 321.103 42.325C321.056 42.9083 321.021 43.3517 320.998 43.655H321.208C321.791 42.885 322.538 42.2317 323.448 41.695C324.381 41.1583 325.571 40.89 327.018 40.89C329.351 40.89 331.218 41.7183 332.618 43.375C334.041 45.0083 334.753 47.435 334.753 50.655C334.753 53.875 333.983 56.3017 332.443 57.935C330.903 59.545 328.896 60.35 326.423 60.35ZM326.423 57.795C328.173 57.795 329.468 57.1767 330.308 55.94C331.148 54.7033 331.568 52.965 331.568 50.725C331.568 48.5083 331.148 46.7467 330.308 45.44C329.491 44.11 328.255 43.445 326.598 43.445C325.221 43.445 324.136 43.725 323.343 44.285C322.55 44.8217 321.99 45.6033 321.663 46.63C321.336 47.6567 321.173 48.87 321.173 50.27V51.25C321.173 53.2333 321.57 54.82 322.363 56.01C323.156 57.2 324.51 57.795 326.423 57.795ZM340.754 60C340.031 58.3667 339.494 56.8033 339.144 55.31C338.794 53.8167 338.619 52.16 338.619 50.34C338.619 47.47 339.308 45.1833 340.684 43.48C342.084 41.7533 344.103 40.89 346.739 40.89C349.423 40.89 351.441 41.7533 352.794 43.48C354.171 45.1833 354.859 47.47 354.859 50.34C354.859 52.16 354.684 53.8167 354.334 55.31C353.984 56.8033 353.448 58.3667 352.724 60H349.574C350.321 58.3667 350.858 56.8033 351.184 55.31C351.534 53.8167 351.709 52.1483 351.709 50.305C351.709 48.0417 351.266 46.3383 350.379 45.195C349.516 44.0283 348.303 43.445 346.739 43.445C345.176 43.445 343.951 44.0283 343.064 45.195C342.201 46.3383 341.769 48.0417 341.769 50.305C341.769 52.1483 341.933 53.8167 342.259 55.31C342.609 56.8033 343.158 58.3667 343.904 60H340.754ZM367.712 60.35C365.029 60.35 362.975 59.5567 361.552 57.97C360.129 56.36 359.417 54.015 359.417 50.935V33.4H362.497V51.25C362.497 53.2333 362.905 54.82 363.722 56.01C364.539 57.2 365.869 57.795 367.712 57.795C368.879 57.795 369.835 57.5383 370.582 57.025C371.352 56.4883 371.924 55.7767 372.297 54.89C372.67 54.0033 372.857 53.0117 372.857 51.915C372.857 50.9583 372.694 50.13 372.367 49.43C372.064 48.73 371.679 48.0533 371.212 47.4C370.652 46.6067 370.127 45.7433 369.637 44.81C369.17 43.8767 368.937 42.6867 368.937 41.24H372.017C372.017 42.29 372.227 43.2117 372.647 44.005C373.067 44.775 373.557 45.5567 374.117 46.35C374.654 47.0967 375.109 47.925 375.482 48.835C375.855 49.7217 376.042 50.7833 376.042 52.02C376.042 53.7 375.692 55.17 374.992 56.43C374.292 57.6667 373.312 58.635 372.052 59.335C370.792 60.0117 369.345 60.35 367.712 60.35ZM397.995 60.35C395.312 60.35 393.259 59.5567 391.835 57.97C390.412 56.36 389.7 54.015 389.7 50.935V33.4H392.78V51.25C392.78 53.2333 393.189 54.82 394.005 56.01C394.822 57.2 396.152 57.795 397.995 57.795C399.162 57.795 400.119 57.5383 400.865 57.025C401.635 56.4883 402.207 55.7767 402.58 54.89C402.954 54.0033 403.14 53.0117 403.14 51.915C403.14 50.9583 402.977 50.13 402.65 49.43C402.347 48.73 401.962 48.0533 401.495 47.4C400.935 46.6067 400.41 45.7433 399.92 44.81C399.454 43.8767 399.22 42.6867 399.22 41.24H402.3C402.3 42.29 402.51 43.2117 402.93 44.005C403.35 44.775 403.84 45.5567 404.4 46.35C404.937 47.0967 405.392 47.925 405.765 48.835C406.139 49.7217 406.325 50.7833 406.325 52.02C406.325 53.7 405.975 55.17 405.275 56.43C404.575 57.6667 403.595 58.635 402.335 59.335C401.075 60.0117 399.629 60.35 397.995 60.35ZM417.418 68.75C415.808 68.75 414.396 68.4 413.183 67.7C411.97 67.0233 411.025 66.0667 410.348 64.83C409.671 63.5933 409.333 62.135 409.333 60.455C409.333 59.7783 409.391 59.1483 409.508 58.565C409.648 57.9583 409.8 57.4567 409.963 57.06H412.903C412.786 57.4333 412.67 57.9233 412.553 58.53C412.46 59.1133 412.413 59.6617 412.413 60.175C412.413 61.8783 412.821 63.3017 413.638 64.445C414.478 65.6117 415.738 66.195 417.418 66.195C419.215 66.195 420.498 65.6 421.268 64.41C422.061 63.22 422.458 61.6333 422.458 59.65V49.01C422.458 47.2367 422.085 45.8717 421.338 44.915C420.615 43.935 419.506 43.445 418.013 43.445C416.66 43.445 415.551 43.83 414.688 44.6C413.848 45.37 413.428 46.5017 413.428 47.995C413.428 48.5317 413.451 49.0217 413.498 49.465C413.568 49.9083 413.65 50.2933 413.743 50.62H410.803C410.71 50.34 410.605 49.9667 410.488 49.5C410.395 49.01 410.348 48.5083 410.348 47.995C410.348 46.4317 410.686 45.125 411.363 44.075C412.063 43.025 412.985 42.2317 414.128 41.695C415.295 41.1583 416.59 40.89 418.013 40.89C420.3 40.89 422.12 41.59 423.473 42.99C424.85 44.3667 425.538 46.3267 425.538 48.87V59.79C425.538 62.6367 424.826 64.8417 423.403 66.405C421.98 67.9683 419.985 68.75 417.418 68.75ZM432.149 60C431.426 58.3667 430.901 56.8033 430.574 55.31C430.248 53.8167 430.084 52.16 430.084 50.34V49.01C430.084 44.6933 430.843 41.3683 432.359 39.035C433.899 36.6783 436.233 35.1617 439.359 34.485C440.666 34.205 441.973 33.9483 443.279 33.715C444.586 33.4817 445.869 33.26 447.129 33.05L447.654 35.745C446.838 35.8617 445.939 36.0017 444.959 36.165C444.003 36.305 443.081 36.4567 442.194 36.62C441.308 36.76 440.561 36.9 439.954 37.04C438.998 37.2733 438.064 37.6 437.154 38.02C436.244 38.44 435.428 39.0583 434.704 39.875C433.981 40.6917 433.409 41.8117 432.989 43.235H433.094C433.771 42.255 434.459 41.625 435.159 41.345C435.859 41.0417 436.583 40.89 437.329 40.89C438.519 40.89 439.511 41.1933 440.304 41.8C441.098 42.3833 441.681 43.1883 442.054 44.215H442.229C442.603 43.1883 443.209 42.3833 444.049 41.8C444.913 41.1933 445.963 40.89 447.199 40.89C448.763 40.89 450.069 41.2867 451.119 42.08C452.169 42.8733 452.963 43.9817 453.499 45.405C454.036 46.8283 454.304 48.4733 454.304 50.34C454.304 52.16 454.129 53.8167 453.779 55.31C453.429 56.8033 452.893 58.3667 452.169 60H449.019C449.766 58.3667 450.303 56.8033 450.629 55.31C450.979 53.8167 451.154 52.1483 451.154 50.305C451.154 48.0417 450.793 46.3383 450.069 45.195C449.346 44.0283 448.308 43.445 446.954 43.445C445.904 43.445 445.088 43.8417 444.504 44.635C443.921 45.4283 443.629 46.5483 443.629 47.995V53.63H440.689V47.995C440.689 46.6883 440.421 45.6033 439.884 44.74C439.348 43.8767 438.496 43.445 437.329 43.445C435.999 43.445 434.973 44.0283 434.249 45.195C433.526 46.3383 433.164 48.0417 433.164 50.305C433.164 52.1483 433.328 53.8167 433.654 55.31C434.004 56.8033 434.553 58.3667 435.299 60H432.149ZM466.064 68.75C464.361 68.75 462.867 68.4117 461.584 67.735C460.324 67.0817 459.344 66.1833 458.644 65.04C457.967 63.8967 457.629 62.6017 457.629 61.155C457.629 60.4783 457.687 59.8483 457.804 59.265C457.944 58.6583 458.096 58.1567 458.259 57.76H461.199C461.082 58.1333 460.966 58.6233 460.849 59.23C460.756 59.8133 460.709 60.3617 460.709 60.875C460.709 61.785 460.896 62.6483 461.269 63.465C461.642 64.2817 462.226 64.935 463.019 65.425C463.812 65.9383 464.827 66.195 466.064 66.195C467.254 66.195 468.234 65.9267 469.004 65.39C469.774 64.8767 470.346 64.1767 470.719 63.29C471.092 62.4033 471.279 61.4233 471.279 60.35C471.279 58.7633 470.836 57.4567 469.949 56.43C469.062 55.4033 467.674 54.89 465.784 54.89H464.419V52.335H466.029C467.686 52.335 468.876 51.88 469.599 50.97C470.322 50.0367 470.684 48.94 470.684 47.68C470.684 46.5367 470.299 45.545 469.529 44.705C468.782 43.865 467.697 43.445 466.274 43.445C464.827 43.445 463.719 43.8183 462.949 44.565C462.202 45.2883 461.829 46.2917 461.829 47.575C461.829 47.8783 461.852 48.1933 461.899 48.52C461.946 48.8467 462.016 49.1967 462.109 49.57H459.099C458.982 49.1967 458.889 48.8233 458.819 48.45C458.772 48.0533 458.749 47.68 458.749 47.33C458.749 46.1167 459.064 45.02 459.694 44.04C460.347 43.06 461.234 42.29 462.354 41.73C463.497 41.17 464.804 40.89 466.274 40.89C467.744 40.89 469.039 41.1817 470.159 41.765C471.279 42.3483 472.154 43.1417 472.784 44.145C473.437 45.1483 473.764 46.2567 473.764 47.47C473.764 49.1033 473.309 50.445 472.399 51.495C471.512 52.545 470.334 53.2217 468.864 53.525V53.665C469.844 53.8283 470.754 54.19 471.594 54.75C472.457 55.2867 473.146 56.0333 473.659 56.99C474.196 57.9467 474.464 59.1133 474.464 60.49C474.464 62.17 474.114 63.6283 473.414 64.865C472.714 66.1017 471.734 67.0583 470.474 67.735C469.237 68.4117 467.767 68.75 466.064 68.75ZM479.934 60C479.211 58.3667 478.674 56.8033 478.324 55.31C477.974 53.8167 477.799 52.16 477.799 50.34C477.799 47.47 478.487 45.1833 479.864 43.48C481.264 41.7533 483.282 40.89 485.919 40.89C488.602 40.89 490.621 41.7533 491.974 43.48C493.351 45.1833 494.039 47.47 494.039 50.34C494.039 52.16 493.864 53.8167 493.514 55.31C493.164 56.8033 492.627 58.3667 491.904 60H488.754C489.501 58.3667 490.037 56.8033 490.364 55.31C490.714 53.8167 490.889 52.1483 490.889 50.305C490.889 48.0417 490.446 46.3383 489.559 45.195C488.696 44.0283 487.482 43.445 485.919 43.445C484.356 43.445 483.131 44.0283 482.244 45.195C481.381 46.3383 480.949 48.0417 480.949 50.305C480.949 52.1483 481.112 53.8167 481.439 55.31C481.789 56.8033 482.337 58.3667 483.084 60H479.934ZM506.892 60.35C504.208 60.35 502.155 59.5567 500.732 57.97C499.308 56.36 498.597 54.015 498.597 50.935V33.4H501.677V51.25C501.677 53.2333 502.085 54.82 502.902 56.01C503.718 57.2 505.048 57.795 506.892 57.795C508.058 57.795 509.015 57.5383 509.762 57.025C510.532 56.4883 511.103 55.7767 511.477 54.89C511.85 54.0033 512.037 53.0117 512.037 51.915C512.037 50.9583 511.873 50.13 511.547 49.43C511.243 48.73 510.858 48.0533 510.392 47.4C509.832 46.6067 509.307 45.7433 508.817 44.81C508.35 43.8767 508.117 42.6867 508.117 41.24H511.197C511.197 42.29 511.407 43.2117 511.827 44.005C512.247 44.775 512.737 45.5567 513.297 46.35C513.833 47.0967 514.288 47.925 514.662 48.835C515.035 49.7217 515.222 50.7833 515.222 52.02C515.222 53.7 514.872 55.17 514.172 56.43C513.472 57.6667 512.492 58.635 511.232 59.335C509.972 60.0117 508.525 60.35 506.892 60.35ZM521.223 60C520.5 58.3667 519.963 56.8033 519.613 55.31C519.263 53.8167 519.088 52.16 519.088 50.34C519.088 47.47 519.776 45.1833 521.153 43.48C522.553 41.7533 524.571 40.89 527.208 40.89C529.891 40.89 531.91 41.7533 533.263 43.48C534.64 45.1833 535.328 47.47 535.328 50.34C535.328 52.16 535.153 53.8167 534.803 55.31C534.453 56.8033 533.916 58.3667 533.193 60H530.043C530.79 58.3667 531.326 56.8033 531.653 55.31C532.003 53.8167 532.178 52.1483 532.178 50.305C532.178 48.0417 531.735 46.3383 530.848 45.195C529.985 44.0283 528.771 43.445 527.208 43.445C525.645 43.445 524.42 44.0283 523.533 45.195C522.67 46.3383 522.238 48.0417 522.238 50.305C522.238 52.1483 522.401 53.8167 522.728 55.31C523.078 56.8033 523.626 58.3667 524.373 60H521.223ZM556.223 60.35C554.729 60.35 553.376 59.9767 552.163 59.23C550.973 58.46 550.028 57.3517 549.328 55.905C548.628 54.435 548.278 52.6617 548.278 50.585C548.278 47.4817 549.001 45.09 550.448 43.41C551.918 41.73 553.854 40.89 556.258 40.89C557.564 40.89 558.789 41.2167 559.933 41.87C561.099 42.5233 561.928 43.515 562.418 44.845H562.628C563.421 42.2083 565.369 40.89 568.473 40.89C569.919 40.89 571.144 41.2867 572.148 42.08C573.174 42.85 573.944 43.9233 574.458 45.3C574.994 46.6533 575.263 48.2167 575.263 49.99C575.263 51.9967 575.088 53.7583 574.738 55.275C574.388 56.7917 573.851 58.3667 573.128 60H569.978C570.701 58.3667 571.238 56.8033 571.588 55.31C571.938 53.8167 572.113 52.1483 572.113 50.305C572.113 48.0417 571.763 46.3383 571.063 45.195C570.363 44.0283 569.406 43.445 568.193 43.445C567.003 43.445 566.046 43.8767 565.323 44.74C564.599 45.58 564.238 46.8983 564.238 48.695V50.585C564.238 53.6883 563.503 56.0917 562.033 57.795C560.586 59.4983 558.649 60.35 556.223 60.35ZM556.293 57.795C557.926 57.795 559.128 57.1533 559.898 55.87C560.668 54.5633 561.053 52.8017 561.053 50.585C561.053 48.3683 560.668 46.63 559.898 45.37C559.128 44.11 557.914 43.48 556.258 43.48C554.601 43.48 553.388 44.11 552.618 45.37C551.848 46.63 551.463 48.3683 551.463 50.585C551.463 52.8017 551.848 54.5633 552.618 55.87C553.411 57.1533 554.636 57.795 556.293 57.795ZM589.783 41.065C591.789 41.4617 593.399 42.4767 594.613 44.11C595.849 45.7433 596.468 47.9017 596.468 50.585C596.468 53.6883 595.674 56.0917 594.088 57.795C592.524 59.4983 590.401 60.35 587.718 60.35C586.061 60.35 584.579 59.9767 583.273 59.23C581.989 58.46 580.974 57.3517 580.228 55.905C579.481 54.435 579.108 52.6617 579.108 50.585C579.108 47.6683 579.796 45.3817 581.173 43.725C582.549 42.0683 584.439 41.135 586.843 40.925C586.959 40.715 587.053 40.47 587.123 40.19C587.216 39.91 587.263 39.5717 587.263 39.175C587.263 38.7317 587.146 38.37 586.913 38.09C586.703 37.7867 586.434 37.5067 586.108 37.25C585.618 36.8767 585.139 36.41 584.673 35.85C584.206 35.29 583.973 34.4733 583.973 33.4H587.053C587.053 33.9367 587.181 34.4033 587.438 34.8C587.694 35.1733 588.009 35.5117 588.383 35.815C588.849 36.2117 589.281 36.655 589.678 37.145C590.074 37.635 590.273 38.2417 590.273 38.965C590.273 39.7583 590.109 40.4583 589.783 41.065ZM587.788 57.795C589.678 57.795 591.066 57.1533 591.953 55.87C592.839 54.5633 593.283 52.8017 593.283 50.585C593.283 48.3683 592.839 46.63 591.953 45.37C591.066 44.11 589.666 43.48 587.753 43.48C585.839 43.48 584.451 44.11 583.588 45.37C582.724 46.63 582.293 48.3683 582.293 50.585C582.293 52.8017 582.724 54.5633 583.588 55.87C584.474 57.1533 585.874 57.795 587.788 57.795ZM602.468 60C601.745 58.3667 601.208 56.8033 600.858 55.31C600.508 53.8167 600.333 52.16 600.333 50.34C600.333 47.47 601.022 45.1833 602.398 43.48C603.798 41.7533 605.817 40.89 608.453 40.89C611.137 40.89 613.155 41.7533 614.508 43.48C615.885 45.1833 616.573 47.47 616.573 50.34C616.573 52.16 616.398 53.8167 616.048 55.31C615.698 56.8033 615.162 58.3667 614.438 60H611.288C612.035 58.3667 612.572 56.8033 612.898 55.31C613.248 53.8167 613.423 52.1483 613.423 50.305C613.423 48.0417 612.98 46.3383 612.093 45.195C611.23 44.0283 610.017 43.445 608.453 43.445C606.89 43.445 605.665 44.0283 604.778 45.195C603.915 46.3383 603.483 48.0417 603.483 50.305C603.483 52.1483 603.647 53.8167 603.973 55.31C604.323 56.8033 604.872 58.3667 605.618 60H602.468ZM642.936 68.75C641.863 67 640.381 65.67 638.491 64.76C636.624 63.85 634.653 63.395 632.576 63.395C631.433 63.395 630.313 63.5467 629.216 63.85C628.119 64.1767 627.058 64.6317 626.031 65.215L624.806 62.975C625.529 62.625 626.299 62.3217 627.116 62.065C627.956 61.8083 628.784 61.6567 629.601 61.61V61.505C627.921 60.9683 626.381 60.21 624.981 59.23C623.604 58.2267 622.496 56.955 621.656 55.415C620.839 53.8517 620.431 51.95 620.431 49.71C620.431 47.05 621.014 44.915 622.181 43.305C623.371 41.695 625.098 40.89 627.361 40.89C628.644 40.89 629.694 41.1933 630.511 41.8C631.328 42.3833 631.923 43.1883 632.296 44.215H632.471C632.868 43.1883 633.486 42.3833 634.326 41.8C635.166 41.1933 636.239 40.89 637.546 40.89C638.899 40.89 639.984 41.1933 640.801 41.8C641.641 42.3833 642.248 43.1883 642.621 44.215H642.796C643.169 43.1883 643.776 42.3833 644.616 41.8C645.479 41.1933 646.529 40.89 647.766 40.89C649.259 40.89 650.519 41.2867 651.546 42.08C652.596 42.8733 653.378 43.9817 653.891 45.405C654.428 46.8283 654.696 48.4733 654.696 50.34C654.696 51.8333 654.533 53.2217 654.206 54.505C653.903 55.7883 653.424 57.0483 652.771 58.285L650.111 57.305C650.648 56.1617 651.021 55.0533 651.231 53.98C651.441 52.8833 651.546 51.6583 651.546 50.305C651.546 48.0417 651.184 46.3383 650.461 45.195C649.761 44.0283 648.781 43.445 647.521 43.445C646.471 43.445 645.654 43.8417 645.071 44.635C644.488 45.4283 644.196 46.5483 644.196 47.995V53.63H641.256V47.995C641.256 46.6883 640.964 45.6033 640.381 44.74C639.821 43.8767 638.876 43.445 637.546 43.445C636.333 43.445 635.411 43.8417 634.781 44.635C634.174 45.4283 633.871 46.5483 633.871 47.995V53.63H630.931V47.995C630.931 46.6883 630.651 45.6033 630.091 44.74C629.554 43.8767 628.714 43.445 627.571 43.445C626.334 43.445 625.354 43.9583 624.631 44.985C623.931 46.0117 623.581 47.5867 623.581 49.71C623.581 51.3433 623.838 52.7667 624.351 53.98C624.888 55.17 625.611 56.185 626.521 57.025C627.431 57.865 628.458 58.5533 629.601 59.09C630.768 59.6033 631.981 60 633.241 60.28C634.804 60.6067 636.379 61.05 637.966 61.61C639.553 62.1933 640.988 62.9517 642.271 63.885C643.554 64.8417 644.558 66.0433 645.281 67.49L642.936 68.75ZM660.676 60C659.953 58.3667 659.416 56.8033 659.066 55.31C658.716 53.8167 658.541 52.16 658.541 50.34C658.541 47.47 659.23 45.1833 660.606 43.48C662.006 41.7533 664.025 40.89 666.661 40.89C669.345 40.89 671.363 41.7533 672.716 43.48C674.093 45.1833 674.781 47.47 674.781 50.34C674.781 52.16 674.606 53.8167 674.256 55.31C673.906 56.8033 673.37 58.3667 672.646 60H669.496C670.243 58.3667 670.78 56.8033 671.106 55.31C671.456 53.8167 671.631 52.1483 671.631 50.305C671.631 48.0417 671.188 46.3383 670.301 45.195C669.438 44.0283 668.225 43.445 666.661 43.445C665.098 43.445 663.873 44.0283 662.986 45.195C662.123 46.3383 661.691 48.0417 661.691 50.305C661.691 52.1483 661.855 53.8167 662.181 55.31C662.531 56.8033 663.08 58.3667 663.826 60H660.676ZM687.634 60.35C684.951 60.35 682.897 59.5567 681.474 57.97C680.051 56.36 679.339 54.015 679.339 50.935V33.4H682.419V51.25C682.419 53.2333 682.827 54.82 683.644 56.01C684.461 57.2 685.791 57.795 687.634 57.795C688.801 57.795 689.757 57.5383 690.504 57.025C691.274 56.4883 691.846 55.7767 692.219 54.89C692.592 54.0033 692.779 53.0117 692.779 51.915C692.779 50.9583 692.616 50.13 692.289 49.43C691.986 48.73 691.601 48.0533 691.134 47.4C690.574 46.6067 690.049 45.7433 689.559 44.81C689.092 43.8767 688.859 42.6867 688.859 41.24H691.939C691.939 42.29 692.149 43.2117 692.569 44.005C692.989 44.775 693.479 45.5567 694.039 46.35C694.576 47.0967 695.031 47.925 695.404 48.835C695.777 49.7217 695.964 50.7833 695.964 52.02C695.964 53.7 695.614 55.17 694.914 56.43C694.214 57.6667 693.234 58.635 691.974 59.335C690.714 60.0117 689.267 60.35 687.634 60.35ZM701.965 60C701.242 58.3667 700.705 56.8033 700.355 55.31C700.005 53.8167 699.83 52.16 699.83 50.34C699.83 47.47 700.519 45.1833 701.895 43.48C703.295 41.7533 705.314 40.89 707.95 40.89C710.634 40.89 712.652 41.7533 714.005 43.48C715.382 45.1833 716.07 47.47 716.07 50.34C716.07 52.16 715.895 53.8167 715.545 55.31C715.195 56.8033 714.659 58.3667 713.935 60H710.785C711.532 58.3667 712.069 56.8033 712.395 55.31C712.745 53.8167 712.92 52.1483 712.92 50.305C712.92 48.0417 712.477 46.3383 711.59 45.195C710.727 44.0283 709.514 43.445 707.95 43.445C706.387 43.445 705.162 44.0283 704.275 45.195C703.412 46.3383 702.98 48.0417 702.98 50.305C702.98 52.1483 703.144 53.8167 703.47 55.31C703.82 56.8033 704.369 58.3667 705.115 60H701.965ZM728.923 60.35C726.24 60.35 724.186 59.5567 722.763 57.97C721.34 56.36 720.628 54.015 720.628 50.935V33.4H723.708V51.25C723.708 53.2333 724.116 54.82 724.933 56.01C725.75 57.2 727.08 57.795 728.923 57.795C730.09 57.795 731.046 57.5383 731.793 57.025C732.563 56.4883 733.135 55.7767 733.508 54.89C733.881 54.0033 734.068 53.0117 734.068 51.915C734.068 50.9583 733.905 50.13 733.578 49.43C733.275 48.73 732.89 48.0533 732.423 47.4C731.863 46.6067 731.338 45.7433 730.848 44.81C730.381 43.8767 730.148 42.6867 730.148 41.24H733.228C733.228 42.29 733.438 43.2117 733.858 44.005C734.278 44.775 734.768 45.5567 735.328 46.35C735.865 47.0967 736.32 47.925 736.693 48.835C737.066 49.7217 737.253 50.7833 737.253 52.02C737.253 53.7 736.903 55.17 736.203 56.43C735.503 57.6667 734.523 58.635 733.263 59.335C732.003 60.0117 730.556 60.35 728.923 60.35ZM758.541 60.35C756.068 60.35 754.061 59.545 752.521 57.935C750.981 56.3017 750.211 53.875 750.211 50.655C750.211 47.5983 750.911 45.265 752.311 43.655C753.734 42.045 755.613 41.24 757.946 41.24C759.393 41.24 760.571 41.5083 761.481 42.045C762.414 42.5817 763.173 43.235 763.756 44.005H763.966C763.919 43.7483 763.873 43.3867 763.826 42.92C763.779 42.4533 763.756 42.0217 763.756 41.625V40.015C763.756 38.7317 763.383 37.6583 762.636 36.795C761.889 35.9317 760.653 35.5 758.926 35.5C757.596 35.5 756.511 35.7917 755.671 36.375C754.831 36.9583 754.411 37.7283 754.411 38.685C754.411 38.825 754.411 38.965 754.411 39.105C754.434 39.245 754.458 39.385 754.481 39.525H751.506C751.436 39.2917 751.389 39.07 751.366 38.86C751.343 38.65 751.331 38.4517 751.331 38.265C751.331 37.2383 751.669 36.34 752.346 35.57C753.023 34.7767 753.933 34.1583 755.076 33.715C756.243 33.2717 757.526 33.05 758.926 33.05C761.399 33.05 763.336 33.715 764.736 35.045C766.136 36.375 766.836 38.125 766.836 40.295V50.655C766.836 53.875 766.124 56.3017 764.701 57.935C763.278 59.545 761.224 60.35 758.541 60.35ZM758.541 57.795C760.454 57.795 761.808 57.2 762.601 56.01C763.394 54.82 763.791 53.2333 763.791 51.25V50.69C763.791 48.5433 763.406 46.8633 762.636 45.65C761.866 44.4133 760.443 43.795 758.366 43.795C756.709 43.795 755.461 44.4367 754.621 45.72C753.804 47.0033 753.396 48.6717 753.396 50.725C753.396 52.965 753.816 54.7033 754.656 55.94C755.496 57.1767 756.791 57.795 758.541 57.795ZM778.998 60.35C777.551 60.35 776.233 60.0817 775.043 59.545C773.876 59.0083 772.943 58.215 772.243 57.165C771.566 56.115 771.228 54.8083 771.228 53.245C771.228 52.7317 771.274 52.2417 771.368 51.775C771.461 51.285 771.566 50.9 771.683 50.62H774.623C774.529 50.9467 774.448 51.3317 774.378 51.775C774.331 52.2183 774.308 52.7083 774.308 53.245C774.308 54.7383 774.728 55.87 775.568 56.64C776.431 57.41 777.574 57.795 778.998 57.795C780.421 57.795 781.541 57.41 782.358 56.64C783.174 55.8467 783.583 54.6567 783.583 53.07C783.583 51.8567 783.314 50.8767 782.778 50.13C782.264 49.3833 781.681 48.6717 781.028 47.995C780.468 47.435 779.908 46.8517 779.348 46.245C778.788 45.615 778.321 44.9033 777.948 44.11C777.598 43.2933 777.423 42.3367 777.423 41.24H780.503C780.503 42.2667 780.771 43.1533 781.308 43.9C781.868 44.6467 782.509 45.3817 783.233 46.105C783.816 46.6883 784.376 47.3067 784.913 47.96C785.449 48.59 785.893 49.325 786.243 50.165C786.593 50.9817 786.768 51.95 786.768 53.07C786.768 54.5167 786.429 55.7883 785.753 56.885C785.076 57.9817 784.154 58.8333 782.988 59.44C781.821 60.0467 780.491 60.35 778.998 60.35ZM799.607 60.35C796.923 60.35 794.87 59.5567 793.447 57.97C792.023 56.36 791.312 54.015 791.312 50.935V33.4H794.392V51.25C794.392 53.2333 794.8 54.82 795.617 56.01C796.433 57.2 797.763 57.795 799.607 57.795C800.773 57.795 801.73 57.5383 802.477 57.025C803.247 56.4883 803.818 55.7767 804.192 54.89C804.565 54.0033 804.752 53.0117 804.752 51.915C804.752 50.9583 804.588 50.13 804.262 49.43C803.958 48.73 803.573 48.0533 803.107 47.4C802.547 46.6067 802.022 45.7433 801.532 44.81C801.065 43.8767 800.832 42.6867 800.832 41.24H803.912C803.912 42.29 804.122 43.2117 804.542 44.005C804.962 44.775 805.452 45.5567 806.012 46.35C806.548 47.0967 807.003 47.925 807.377 48.835C807.75 49.7217 807.937 50.7833 807.937 52.02C807.937 53.7 807.587 55.17 806.887 56.43C806.187 57.6667 805.207 58.635 803.947 59.335C802.687 60.0117 801.24 60.35 799.607 60.35ZM820.133 60.35C818.476 60.35 817.018 60 815.758 59.3C814.521 58.5767 813.553 57.5267 812.853 56.15C812.153 54.75 811.803 53.035 811.803 51.005C811.803 48.135 812.503 45.9067 813.903 44.32C815.326 42.7333 817.205 41.94 819.538 41.94C820.985 41.94 822.163 42.2083 823.073 42.745C824.006 43.2817 824.765 43.935 825.348 44.705H825.558C825.511 44.4483 825.465 44.0867 825.418 43.62C825.371 43.1533 825.348 42.7217 825.348 42.325V38.965C825.348 37.8683 825.103 37.0167 824.613 36.41C824.123 35.8033 823.446 35.5 822.583 35.5C821.79 35.5 821.148 35.7333 820.658 36.2C820.168 36.6667 819.923 37.3317 819.923 38.195V39.665H816.948V38.195C816.948 37.3083 816.691 36.655 816.178 36.235C815.688 35.7917 815.128 35.57 814.498 35.57C814.055 35.57 813.623 35.6283 813.203 35.745C812.806 35.8617 812.41 35.9783 812.013 36.095L811.243 33.75C811.686 33.5633 812.176 33.4 812.713 33.26C813.25 33.12 813.856 33.05 814.533 33.05C815.256 33.05 815.968 33.2133 816.668 33.54C817.368 33.8667 817.94 34.555 818.383 35.605H818.488C818.955 34.555 819.596 33.8667 820.413 33.54C821.23 33.2133 822.035 33.05 822.828 33.05C823.831 33.05 824.753 33.26 825.593 33.68C826.456 34.1 827.145 34.7417 827.658 35.605C828.171 36.4683 828.428 37.565 828.428 38.895V51.005C828.428 54.0617 827.716 56.3833 826.293 57.97C824.87 59.5567 822.816 60.35 820.133 60.35ZM820.133 57.795C822.046 57.795 823.4 57.2117 824.193 56.045C824.986 54.8783 825.383 53.3967 825.383 51.6V51.04C825.383 49.7333 825.22 48.59 824.893 47.61C824.566 46.6067 824.006 45.8367 823.213 45.3C822.443 44.7633 821.358 44.495 819.958 44.495C818.838 44.495 817.905 44.7867 817.158 45.37C816.435 45.93 815.886 46.7117 815.513 47.715C815.163 48.7183 814.988 49.8383 814.988 51.075C814.988 53.1517 815.408 54.7967 816.248 56.01C817.088 57.2 818.383 57.795 820.133 57.795ZM844.168 68.75C840.481 68.75 837.634 67.5367 835.628 65.11C833.644 62.6833 832.653 59.1717 832.653 54.575C832.653 50.585 833.539 47.4117 835.313 45.055C837.109 42.675 839.606 41.3217 842.803 40.995C842.756 40.5517 842.709 40.1083 842.663 39.665C842.639 39.2217 842.628 38.8483 842.628 38.545V36.9H845.708V38.475C845.708 39.1517 845.649 39.98 845.533 40.96C848.729 41.2867 851.214 42.64 852.988 45.02C854.784 47.4 855.683 50.5967 855.683 54.61C855.683 57.4567 855.239 59.93 854.353 62.03C853.489 64.1533 852.194 65.7983 850.468 66.965C848.764 68.155 846.664 68.75 844.168 68.75ZM844.168 66.195C846.874 66.195 848.939 65.215 850.363 63.255C851.786 61.295 852.498 58.4133 852.498 54.61C852.498 47.8433 850.176 44.11 845.533 43.41C845.579 43.9 845.614 44.4017 845.638 44.915C845.684 45.405 845.708 45.895 845.708 46.385V53.63H842.628V46.315C842.628 45.8483 842.639 45.37 842.663 44.88C842.709 44.39 842.756 43.9117 842.803 43.445C838.159 44.145 835.838 47.8667 835.838 54.61C835.838 58.39 836.549 61.26 837.973 63.22C839.419 65.2033 841.484 66.195 844.168 66.195ZM867.113 60.35C865.666 60.35 864.348 60.0817 863.158 59.545C861.991 59.0083 861.058 58.215 860.358 57.165C859.681 56.115 859.343 54.8083 859.343 53.245C859.343 52.7317 859.389 52.2417 859.483 51.775C859.576 51.285 859.681 50.9 859.798 50.62H862.738C862.644 50.9467 862.563 51.3317 862.493 51.775C862.446 52.2183 862.423 52.7083 862.423 53.245C862.423 54.7383 862.843 55.87 863.683 56.64C864.546 57.41 865.689 57.795 867.113 57.795C868.536 57.795 869.656 57.41 870.473 56.64C871.289 55.8467 871.698 54.6567 871.698 53.07C871.698 51.8567 871.429 50.8767 870.893 50.13C870.379 49.3833 869.796 48.6717 869.143 47.995C868.583 47.435 868.023 46.8517 867.463 46.245C866.903 45.615 866.436 44.9033 866.063 44.11C865.713 43.2933 865.538 42.3367 865.538 41.24H868.618C868.618 42.2667 868.886 43.1533 869.423 43.9C869.983 44.6467 870.624 45.3817 871.348 46.105C871.931 46.6883 872.491 47.3067 873.028 47.96C873.564 48.59 874.008 49.325 874.358 50.165C874.708 50.9817 874.883 51.95 874.883 53.07C874.883 54.5167 874.544 55.7883 873.868 56.885C873.191 57.9817 872.269 58.8333 871.103 59.44C869.936 60.0467 868.606 60.35 867.113 60.35ZM889.402 41.065C891.408 41.4617 893.018 42.4767 894.232 44.11C895.468 45.7433 896.087 47.9017 896.087 50.585C896.087 53.6883 895.293 56.0917 893.707 57.795C892.143 59.4983 890.02 60.35 887.337 60.35C885.68 60.35 884.198 59.9767 882.892 59.23C881.608 58.46 880.593 57.3517 879.847 55.905C879.1 54.435 878.727 52.6617 878.727 50.585C878.727 47.6683 879.415 45.3817 880.792 43.725C882.168 42.0683 884.058 41.135 886.462 40.925C886.578 40.715 886.672 40.47 886.742 40.19C886.835 39.91 886.882 39.5717 886.882 39.175C886.882 38.7317 886.765 38.37 886.532 38.09C886.322 37.7867 886.053 37.5067 885.727 37.25C885.237 36.8767 884.758 36.41 884.292 35.85C883.825 35.29 883.592 34.4733 883.592 33.4H886.672C886.672 33.9367 886.8 34.4033 887.057 34.8C887.313 35.1733 887.628 35.5117 888.002 35.815C888.468 36.2117 888.9 36.655 889.297 37.145C889.693 37.635 889.892 38.2417 889.892 38.965C889.892 39.7583 889.728 40.4583 889.402 41.065ZM887.407 57.795C889.297 57.795 890.685 57.1533 891.572 55.87C892.458 54.5633 892.902 52.8017 892.902 50.585C892.902 48.3683 892.458 46.63 891.572 45.37C890.685 44.11 889.285 43.48 887.372 43.48C885.458 43.48 884.07 44.11 883.207 45.37C882.343 46.63 881.912 48.3683 881.912 50.585C881.912 52.8017 882.343 54.5633 883.207 55.87C884.093 57.1533 885.493 57.795 887.407 57.795ZM902.087 60C901.364 58.3667 900.827 56.8033 900.477 55.31C900.127 53.8167 899.952 52.16 899.952 50.34C899.952 47.47 900.641 45.1833 902.017 43.48C903.417 41.7533 905.436 40.89 908.072 40.89C910.756 40.89 912.774 41.7533 914.127 43.48C915.504 45.1833 916.192 47.47 916.192 50.34C916.192 52.16 916.017 53.8167 915.667 55.31C915.317 56.8033 914.781 58.3667 914.057 60H910.907C911.654 58.3667 912.191 56.8033 912.517 55.31C912.867 53.8167 913.042 52.1483 913.042 50.305C913.042 48.0417 912.599 46.3383 911.712 45.195C910.849 44.0283 909.636 43.445 908.072 43.445C906.509 43.445 905.284 44.0283 904.397 45.195C903.534 46.3383 903.102 48.0417 903.102 50.305C903.102 52.1483 903.266 53.8167 903.592 55.31C903.942 56.8033 904.491 58.3667 905.237 60H902.087ZM927.995 60.35C926.502 60.35 925.148 59.9767 923.935 59.23C922.745 58.46 921.8 57.3517 921.1 55.905C920.4 54.435 920.05 52.6617 920.05 50.585C920.05 47.4817 920.773 45.09 922.22 43.41C923.69 41.73 925.627 40.89 928.03 40.89C929.337 40.89 930.562 41.2167 931.705 41.87C932.872 42.5233 933.7 43.515 934.19 44.845H934.4C935.193 42.2083 937.142 40.89 940.245 40.89C941.692 40.89 942.917 41.2867 943.92 42.08C944.947 42.85 945.717 43.9233 946.23 45.3C946.767 46.6533 947.035 48.2167 947.035 49.99C947.035 51.9967 946.86 53.7583 946.51 55.275C946.16 56.7917 945.623 58.3667 944.9 60H941.75C942.473 58.3667 943.01 56.8033 943.36 55.31C943.71 53.8167 943.885 52.1483 943.885 50.305C943.885 48.0417 943.535 46.3383 942.835 45.195C942.135 44.0283 941.178 43.445 939.965 43.445C938.775 43.445 937.818 43.8767 937.095 44.74C936.372 45.58 936.01 46.8983 936.01 48.695V50.585C936.01 53.6883 935.275 56.0917 933.805 57.795C932.358 59.4983 930.422 60.35 927.995 60.35ZM928.065 57.795C929.698 57.795 930.9 57.1533 931.67 55.87C932.44 54.5633 932.825 52.8017 932.825 50.585C932.825 48.3683 932.44 46.63 931.67 45.37C930.9 44.11 929.687 43.48 928.03 43.48C926.373 43.48 925.16 44.11 924.39 45.37C923.62 46.63 923.235 48.3683 923.235 50.585C923.235 52.8017 923.62 54.5633 924.39 55.87C925.183 57.1533 926.408 57.795 928.065 57.795Z" fill="black"/>
<path d="M360.195 214.969L364.57 193.562H369.473L362.91 222H358.184L352.773 201.238L347.246 222H342.5L335.938 193.562H340.84L345.254 214.93L350.684 193.562H354.824L360.195 214.969ZM395.391 214.969L399.766 193.562H404.668L398.105 222H393.379L387.969 201.238L382.441 222H377.695L371.133 193.562H376.035L380.449 214.93L385.879 193.562H390.02L395.391 214.969ZM430.586 214.969L434.961 193.562H439.863L433.301 222H428.574L423.164 201.238L417.637 222H412.891L406.328 193.562H411.23L415.645 214.93L421.074 193.562H425.215L430.586 214.969ZM443.164 217C444.049 217 444.733 217.254 445.215 217.762C445.697 218.257 445.938 218.882 445.938 219.637C445.938 220.379 445.697 220.997 445.215 221.492C444.733 221.974 444.049 222.215 443.164 222.215C442.318 222.215 441.647 221.974 441.152 221.492C440.658 221.01 440.41 220.392 440.41 219.637C440.41 218.882 440.651 218.257 441.133 217.762C441.615 217.254 442.292 217 443.164 217ZM474.141 214.969L478.516 193.562H483.418L476.855 222H472.129L466.719 201.238L461.191 222H456.445L449.883 193.562H454.785L459.199 214.93L464.629 193.562H468.77L474.141 214.969ZM503.652 209.305H491.973V218.055H505.625V222H487.031V193.562H505.488V197.547H491.973V205.398H503.652V209.305ZM509.648 222V193.562H519.395C522.611 193.562 525.059 194.207 526.738 195.496C528.418 196.785 529.258 198.706 529.258 201.258C529.258 202.56 528.906 203.732 528.203 204.773C527.5 205.815 526.471 206.622 525.117 207.195C526.654 207.612 527.839 208.4 528.672 209.559C529.518 210.704 529.941 212.085 529.941 213.699C529.941 216.368 529.082 218.419 527.363 219.852C525.658 221.284 523.21 222 520.02 222H509.648ZM514.59 209.168V218.055H520.078C521.628 218.055 522.839 217.671 523.711 216.902C524.583 216.134 525.02 215.066 525.02 213.699C525.02 210.743 523.509 209.233 520.488 209.168H514.59ZM514.59 205.535H519.434C520.97 205.535 522.168 205.19 523.027 204.5C523.9 203.797 524.336 202.807 524.336 201.531C524.336 200.125 523.932 199.109 523.125 198.484C522.331 197.859 521.087 197.547 519.395 197.547H514.59V205.535ZM549.746 214.676C549.746 213.426 549.303 212.462 548.418 211.785C547.546 211.108 545.964 210.424 543.672 209.734C541.38 209.044 539.557 208.276 538.203 207.43C535.612 205.802 534.316 203.68 534.316 201.062C534.316 198.771 535.247 196.883 537.109 195.398C538.984 193.914 541.413 193.172 544.395 193.172C546.374 193.172 548.138 193.536 549.688 194.266C551.237 194.995 552.454 196.036 553.34 197.391C554.225 198.732 554.668 200.223 554.668 201.863H549.746C549.746 200.379 549.277 199.22 548.34 198.387C547.415 197.54 546.087 197.117 544.355 197.117C542.741 197.117 541.484 197.462 540.586 198.152C539.701 198.842 539.258 199.806 539.258 201.043C539.258 202.085 539.74 202.957 540.703 203.66C541.667 204.35 543.255 205.027 545.469 205.691C547.682 206.342 549.46 207.091 550.801 207.938C552.142 208.771 553.125 209.734 553.75 210.828C554.375 211.909 554.688 213.178 554.688 214.637C554.688 217.007 553.776 218.895 551.953 220.301C550.143 221.694 547.682 222.391 544.57 222.391C542.513 222.391 540.618 222.013 538.887 221.258C537.168 220.49 535.827 219.435 534.863 218.094C533.913 216.753 533.438 215.19 533.438 213.406H538.379C538.379 215.021 538.913 216.271 539.98 217.156C541.048 218.042 542.578 218.484 544.57 218.484C546.289 218.484 547.578 218.139 548.438 217.449C549.31 216.746 549.746 215.822 549.746 214.676ZM564.238 222H559.316V193.562H564.238V222ZM590.273 197.547H581.406V222H576.504V197.547H567.715V193.562H590.273V197.547ZM610.645 209.305H598.965V218.055H612.617V222H594.023V193.562H612.48V197.547H598.965V205.398H610.645V209.305ZM619.141 217C620.026 217 620.71 217.254 621.191 217.762C621.673 218.257 621.914 218.882 621.914 219.637C621.914 220.379 621.673 220.997 621.191 221.492C620.71 221.974 620.026 222.215 619.141 222.215C618.294 222.215 617.624 221.974 617.129 221.492C616.634 221.01 616.387 220.392 616.387 219.637C616.387 218.882 616.628 218.257 617.109 217.762C617.591 217.254 618.268 217 619.141 217ZM649.512 212.742C649.225 215.776 648.105 218.146 646.152 219.852C644.199 221.544 641.602 222.391 638.359 222.391C636.094 222.391 634.095 221.857 632.363 220.789C630.645 219.708 629.316 218.178 628.379 216.199C627.441 214.22 626.953 211.922 626.914 209.305V206.648C626.914 203.966 627.389 201.603 628.34 199.559C629.29 197.514 630.651 195.939 632.422 194.832C634.206 193.725 636.263 193.172 638.594 193.172C641.732 193.172 644.258 194.025 646.172 195.73C648.086 197.436 649.199 199.845 649.512 202.957H644.59C644.355 200.913 643.757 199.441 642.793 198.543C641.842 197.632 640.443 197.176 638.594 197.176C636.445 197.176 634.792 197.964 633.633 199.539C632.487 201.102 631.901 203.4 631.875 206.434V208.953C631.875 212.026 632.422 214.37 633.516 215.984C634.622 217.599 636.237 218.406 638.359 218.406C640.299 218.406 641.758 217.97 642.734 217.098C643.711 216.225 644.329 214.773 644.59 212.742H649.512ZM676.641 208.523C676.641 211.31 676.159 213.758 675.195 215.867C674.232 217.964 672.852 219.578 671.055 220.711C669.271 221.831 667.214 222.391 664.883 222.391C662.578 222.391 660.521 221.831 658.711 220.711C656.914 219.578 655.521 217.97 654.531 215.887C653.555 213.803 653.06 211.401 653.047 208.68V207.078C653.047 204.305 653.535 201.857 654.512 199.734C655.501 197.612 656.888 195.991 658.672 194.871C660.469 193.738 662.526 193.172 664.844 193.172C667.161 193.172 669.212 193.732 670.996 194.852C672.793 195.958 674.18 197.56 675.156 199.656C676.133 201.74 676.628 204.168 676.641 206.941V208.523ZM671.699 207.039C671.699 203.888 671.1 201.473 669.902 199.793C668.717 198.113 667.031 197.273 664.844 197.273C662.708 197.273 661.035 198.113 659.824 199.793C658.626 201.46 658.014 203.823 657.988 206.883V208.523C657.988 211.648 658.594 214.064 659.805 215.77C661.029 217.475 662.721 218.328 664.883 218.328C667.07 218.328 668.75 217.495 669.922 215.828C671.107 214.161 671.699 211.727 671.699 208.523V207.039ZM687.969 193.562L696.172 215.359L704.355 193.562H710.742V222H705.82V212.625L706.309 200.086L697.91 222H694.375L685.996 200.105L686.484 212.625V222H681.562V193.562H687.969Z" fill="#F47123"/>
<path d="M401.885 258.071H390.247V268.223H403.628V270H388.145V245.117H403.542V246.912H390.247V256.294H401.885V258.071ZM409.456 251.509L409.524 254.517C410.208 253.4 411.062 252.563 412.087 252.004C413.113 251.446 414.252 251.167 415.505 251.167C418.422 251.167 420.273 252.363 421.06 254.756C421.72 253.605 422.603 252.722 423.708 252.107C424.814 251.48 426.033 251.167 427.366 251.167C431.331 251.167 433.353 253.332 433.433 257.661V270H431.382V257.815C431.37 256.163 431.012 254.938 430.305 254.141C429.61 253.343 428.471 252.944 426.887 252.944C425.417 252.967 424.176 253.446 423.162 254.38C422.148 255.303 421.584 256.431 421.47 257.764V270H419.419V257.661C419.408 256.077 419.032 254.898 418.291 254.124C417.562 253.337 416.434 252.944 414.907 252.944C413.62 252.944 412.515 253.315 411.592 254.055C410.669 254.784 409.985 255.872 409.541 257.319V270H407.49V251.509H409.456ZM450.3 270C450.095 269.419 449.964 268.559 449.907 267.419C449.189 268.354 448.272 269.077 447.156 269.59C446.051 270.091 444.877 270.342 443.635 270.342C441.858 270.342 440.417 269.846 439.312 268.855C438.218 267.864 437.671 266.611 437.671 265.095C437.671 263.295 438.417 261.871 439.91 260.823C441.414 259.775 443.504 259.25 446.182 259.25H449.89V257.148C449.89 255.827 449.48 254.79 448.66 254.038C447.851 253.275 446.666 252.893 445.105 252.893C443.681 252.893 442.502 253.258 441.567 253.987C440.633 254.716 440.166 255.593 440.166 256.619L438.115 256.602C438.115 255.132 438.799 253.861 440.166 252.791C441.533 251.708 443.214 251.167 445.208 251.167C447.27 251.167 448.893 251.685 450.078 252.722C451.274 253.748 451.89 255.183 451.924 257.029V265.779C451.924 267.568 452.112 268.906 452.488 269.795V270H450.3ZM443.875 268.53C445.242 268.53 446.461 268.2 447.532 267.539C448.614 266.878 449.4 265.995 449.89 264.89V260.823H446.233C444.194 260.846 442.598 261.222 441.448 261.951C440.297 262.668 439.722 263.66 439.722 264.924C439.722 265.961 440.103 266.821 440.867 267.505C441.641 268.188 442.644 268.53 443.875 268.53ZM459.683 270H457.632V251.509H459.683V270ZM457.273 246.16C457.273 245.772 457.398 245.448 457.649 245.186C457.9 244.912 458.241 244.775 458.674 244.775C459.107 244.775 459.449 244.912 459.7 245.186C459.962 245.448 460.093 245.772 460.093 246.16C460.093 246.547 459.962 246.872 459.7 247.134C459.449 247.396 459.107 247.527 458.674 247.527C458.241 247.527 457.9 247.396 457.649 247.134C457.398 246.872 457.273 246.547 457.273 246.16ZM467.544 270H465.493V243.75H467.544V270ZM500.425 261.233C500.368 262.908 500.06 264.463 499.502 265.898C498.944 267.323 498.169 268.422 497.178 269.197C496.198 269.96 495.059 270.342 493.76 270.342C492.655 270.342 491.755 270.051 491.06 269.47C490.365 268.889 489.903 268.075 489.675 267.026C488.445 269.237 486.747 270.342 484.583 270.342C482.987 270.342 481.797 269.653 481.011 268.274C480.225 266.895 479.934 265.038 480.139 262.703C480.31 260.846 480.732 259.194 481.404 257.747C482.087 256.288 482.97 255.155 484.053 254.346C485.146 253.525 486.314 253.115 487.556 253.115C488.433 253.115 489.202 253.241 489.863 253.491C490.524 253.73 491.293 254.22 492.17 254.961L491.299 264.702C491.185 266.024 491.35 267.049 491.794 267.778C492.25 268.507 492.974 268.872 493.965 268.872C495.366 268.872 496.5 268.188 497.366 266.821C498.243 265.443 498.733 263.58 498.835 261.233C499.052 256.619 498.175 253.149 496.204 250.825C494.233 248.49 491.248 247.322 487.249 247.322C484.845 247.322 482.674 247.926 480.737 249.133C478.812 250.33 477.291 252.027 476.174 254.226C475.058 256.425 474.431 258.96 474.294 261.831C474.158 264.702 474.534 267.231 475.422 269.419C476.322 271.595 477.673 273.27 479.473 274.443C481.284 275.617 483.438 276.204 485.933 276.204C486.981 276.204 488.012 276.078 489.026 275.828C490.04 275.577 490.889 275.252 491.572 274.854L492.102 276.221C491.453 276.654 490.547 277.013 489.385 277.297C488.223 277.594 487.049 277.742 485.864 277.742C483.016 277.742 480.566 277.098 478.516 275.811C476.465 274.535 474.927 272.689 473.901 270.273C472.887 267.869 472.449 265.055 472.585 261.831C472.722 258.664 473.417 255.861 474.67 253.423C475.935 250.973 477.661 249.082 479.849 247.749C482.036 246.405 484.526 245.732 487.317 245.732C490.222 245.732 492.683 246.342 494.7 247.561C496.716 248.769 498.209 250.54 499.177 252.876C500.146 255.212 500.562 257.997 500.425 261.233ZM481.951 265.112C482.076 266.252 482.395 267.135 482.908 267.761C483.42 268.376 484.098 268.684 484.941 268.684C487.049 268.684 488.604 267.231 489.607 264.326L490.376 255.508C489.613 254.95 488.713 254.67 487.676 254.67C486.411 254.67 485.312 255.177 484.377 256.191C483.455 257.194 482.777 258.584 482.344 260.361C481.911 262.127 481.78 263.711 481.951 265.112ZM504.253 260.583C504.253 257.69 504.891 255.4 506.167 253.713C507.454 252.016 509.198 251.167 511.396 251.167C513.914 251.167 515.828 252.17 517.139 254.175L517.241 251.509H519.155V269.624C519.155 272.005 518.489 273.891 517.156 275.281C515.823 276.671 514.017 277.366 511.738 277.366C510.451 277.366 509.22 277.075 508.047 276.494C506.885 275.924 505.968 275.161 505.295 274.204L506.44 272.974C507.887 274.751 509.608 275.64 511.602 275.64C513.311 275.64 514.644 275.133 515.601 274.119C516.558 273.116 517.053 271.72 517.087 269.932V267.607C515.777 269.43 513.869 270.342 511.362 270.342C509.22 270.342 507.5 269.487 506.201 267.778C504.902 266.069 504.253 263.762 504.253 260.857V260.583ZM506.321 260.942C506.321 263.301 506.794 265.164 507.739 266.531C508.685 267.887 510.018 268.564 511.738 268.564C514.256 268.564 516.039 267.437 517.087 265.181V256.584C516.609 255.4 515.92 254.5 515.02 253.884C514.119 253.258 513.037 252.944 511.772 252.944C510.052 252.944 508.713 253.622 507.756 254.978C506.799 256.322 506.321 258.311 506.321 260.942ZM526.35 251.509L526.418 254.517C527.102 253.4 527.957 252.563 528.982 252.004C530.007 251.446 531.147 251.167 532.4 251.167C535.317 251.167 537.168 252.363 537.954 254.756C538.615 253.605 539.498 252.722 540.603 252.107C541.708 251.48 542.927 251.167 544.26 251.167C548.225 251.167 550.247 253.332 550.327 257.661V270H548.276V257.815C548.265 256.163 547.906 254.938 547.2 254.141C546.505 253.343 545.365 252.944 543.782 252.944C542.312 252.967 541.07 253.446 540.056 254.38C539.042 255.303 538.478 256.431 538.364 257.764V270H536.313V257.661C536.302 256.077 535.926 254.898 535.186 254.124C534.456 253.337 533.328 252.944 531.802 252.944C530.514 252.944 529.409 253.315 528.486 254.055C527.563 254.784 526.88 255.872 526.436 257.319V270H524.385V251.509H526.35ZM567.195 270C566.99 269.419 566.859 268.559 566.802 267.419C566.084 268.354 565.167 269.077 564.05 269.59C562.945 270.091 561.772 270.342 560.53 270.342C558.752 270.342 557.311 269.846 556.206 268.855C555.112 267.864 554.565 266.611 554.565 265.095C554.565 263.295 555.312 261.871 556.804 260.823C558.308 259.775 560.399 259.25 563.076 259.25H566.785V257.148C566.785 255.827 566.375 254.79 565.554 254.038C564.745 253.275 563.56 252.893 562 252.893C560.575 252.893 559.396 253.258 558.462 253.987C557.528 254.716 557.061 255.593 557.061 256.619L555.01 256.602C555.01 255.132 555.693 253.861 557.061 252.791C558.428 251.708 560.108 251.167 562.102 251.167C564.164 251.167 565.788 251.685 566.973 252.722C568.169 253.748 568.784 255.183 568.818 257.029V265.779C568.818 267.568 569.006 268.906 569.382 269.795V270H567.195ZM560.769 268.53C562.136 268.53 563.355 268.2 564.426 267.539C565.509 266.878 566.295 265.995 566.785 264.89V260.823H563.127C561.088 260.846 559.493 261.222 558.342 261.951C557.192 262.668 556.616 263.66 556.616 264.924C556.616 265.961 556.998 266.821 557.761 267.505C558.536 268.188 559.539 268.53 560.769 268.53ZM576.577 270H574.526V251.509H576.577V270ZM574.167 246.16C574.167 245.772 574.293 245.448 574.543 245.186C574.794 244.912 575.136 244.775 575.569 244.775C576.002 244.775 576.344 244.912 576.594 245.186C576.856 245.448 576.987 245.772 576.987 246.16C576.987 246.547 576.856 246.872 576.594 247.134C576.344 247.396 576.002 247.527 575.569 247.527C575.136 247.527 574.794 247.396 574.543 247.134C574.293 246.872 574.167 246.547 574.167 246.16ZM584.438 270H582.388V243.75H584.438V270ZM589.822 268.77C589.822 268.371 589.947 268.035 590.198 267.761C590.46 267.476 590.819 267.334 591.274 267.334C591.73 267.334 592.089 267.476 592.351 267.761C592.613 268.035 592.744 268.371 592.744 268.77C592.744 269.168 592.613 269.499 592.351 269.761C592.089 270.011 591.73 270.137 591.274 270.137C590.819 270.137 590.46 270.011 590.198 269.761C589.947 269.499 589.822 269.168 589.822 268.77ZM605.22 268.616C606.644 268.616 607.834 268.217 608.792 267.419C609.76 266.611 610.284 265.568 610.364 264.292H612.329C612.272 265.42 611.919 266.451 611.27 267.385C610.62 268.308 609.754 269.032 608.672 269.556C607.601 270.08 606.45 270.342 605.22 270.342C602.793 270.342 600.868 269.499 599.443 267.812C598.031 266.126 597.324 263.859 597.324 261.011V260.396C597.324 258.573 597.643 256.96 598.281 255.559C598.919 254.158 599.831 253.075 601.016 252.312C602.212 251.549 603.608 251.167 605.203 251.167C607.231 251.167 608.9 251.771 610.21 252.979C611.532 254.186 612.238 255.776 612.329 257.747H610.364C610.273 256.3 609.749 255.132 608.792 254.243C607.846 253.354 606.65 252.91 605.203 252.91C603.357 252.91 601.921 253.577 600.896 254.91C599.882 256.243 599.375 258.111 599.375 260.515V261.113C599.375 263.472 599.882 265.312 600.896 266.633C601.921 267.955 603.363 268.616 605.22 268.616ZM615.303 260.481C615.303 258.704 615.645 257.103 616.328 255.679C617.023 254.255 617.997 253.149 619.25 252.363C620.515 251.566 621.945 251.167 623.54 251.167C626.001 251.167 627.995 252.033 629.521 253.765C631.048 255.485 631.812 257.769 631.812 260.618V261.045C631.812 262.834 631.464 264.446 630.769 265.881C630.085 267.306 629.117 268.405 627.864 269.18C626.611 269.954 625.181 270.342 623.574 270.342C621.125 270.342 619.131 269.482 617.593 267.761C616.066 266.029 615.303 263.739 615.303 260.891V260.481ZM617.354 261.045C617.354 263.255 617.923 265.072 619.062 266.497C620.213 267.909 621.717 268.616 623.574 268.616C625.42 268.616 626.912 267.909 628.052 266.497C629.202 265.072 629.778 263.198 629.778 260.874V260.481C629.778 259.068 629.516 257.775 628.992 256.602C628.468 255.428 627.733 254.522 626.787 253.884C625.841 253.235 624.759 252.91 623.54 252.91C621.717 252.91 620.23 253.628 619.08 255.063C617.929 256.488 617.354 258.356 617.354 260.669V261.045ZM637.913 251.509L637.981 254.517C638.665 253.4 639.519 252.563 640.544 252.004C641.57 251.446 642.709 251.167 643.962 251.167C646.879 251.167 648.73 252.363 649.517 254.756C650.177 253.605 651.06 252.722 652.166 252.107C653.271 251.48 654.49 251.167 655.823 251.167C659.788 251.167 661.81 253.332 661.89 257.661V270H659.839V257.815C659.827 256.163 659.469 254.938 658.762 254.141C658.067 253.343 656.928 252.944 655.344 252.944C653.875 252.967 652.633 253.446 651.619 254.38C650.605 255.303 650.041 256.431 649.927 257.764V270H647.876V257.661C647.865 256.077 647.489 254.898 646.748 254.124C646.019 253.337 644.891 252.944 643.364 252.944C642.077 252.944 640.972 253.315 640.049 254.055C639.126 254.784 638.442 255.872 637.998 257.319V270H635.947V251.509H637.913Z" fill="#7C7C7C"/>
</svg>
