<svg width="1050" height="600" viewBox="0 0 1050 600" fill="none" xmlns="http://www.w3.org/2000/svg">
<rect width="1050" height="600" fill="white"/>
<rect x="587" width="463" height="600" fill="#1D191A"/>
<rect x="535" y="179" width="52" height="373" fill="#1D191A"/>
<rect x="475" y="217" width="112" height="297" fill="#FFC739"/>
<path d="M625.699 256.178H629.41V258.346H625.699V262.574H623.395V258.346H619.664V256.178H623.395V252.223H625.699V256.178ZM642.926 258.053C642.132 258.893 641.204 259.312 640.143 259.312C638.893 259.312 637.896 258.876 637.154 258.004C636.412 257.125 636.041 255.973 636.041 254.547C636.041 253.609 636.23 252.76 636.607 251.998C636.985 251.236 637.522 250.644 638.219 250.221C638.915 249.798 639.723 249.586 640.641 249.586C642.073 249.586 643.209 250.12 644.049 251.188C644.889 252.255 645.309 253.684 645.309 255.475V256.139C645.309 258.704 644.729 260.66 643.57 262.008C642.411 263.355 640.683 264.039 638.385 264.059H638.102V262.096H638.443C639.843 262.076 640.917 261.741 641.666 261.09C642.415 260.432 642.835 259.42 642.926 258.053ZM640.641 257.457C641.116 257.457 641.562 257.32 641.979 257.047C642.395 256.773 642.717 256.396 642.945 255.914V254.986C642.945 253.938 642.73 253.095 642.301 252.457C641.871 251.819 641.314 251.5 640.631 251.5C639.947 251.5 639.4 251.783 638.99 252.35C638.587 252.91 638.385 253.619 638.385 254.479C638.385 255.37 638.59 256.09 639 256.637C639.41 257.184 639.957 257.457 640.641 257.457ZM654.293 258.053C653.499 258.893 652.571 259.312 651.51 259.312C650.26 259.312 649.264 258.876 648.521 258.004C647.779 257.125 647.408 255.973 647.408 254.547C647.408 253.609 647.597 252.76 647.975 251.998C648.352 251.236 648.889 250.644 649.586 250.221C650.283 249.798 651.09 249.586 652.008 249.586C653.44 249.586 654.576 250.12 655.416 251.188C656.256 252.255 656.676 253.684 656.676 255.475V256.139C656.676 258.704 656.096 260.66 654.938 262.008C653.779 263.355 652.05 264.039 649.752 264.059H649.469V262.096H649.811C651.21 262.076 652.285 261.741 653.033 261.09C653.782 260.432 654.202 259.42 654.293 258.053ZM652.008 257.457C652.483 257.457 652.929 257.32 653.346 257.047C653.762 256.773 654.085 256.396 654.312 255.914V254.986C654.312 253.938 654.098 253.095 653.668 252.457C653.238 251.819 652.682 251.5 651.998 251.5C651.314 251.5 650.768 251.783 650.357 252.35C649.954 252.91 649.752 253.619 649.752 254.479C649.752 255.37 649.957 256.09 650.367 256.637C650.777 257.184 651.324 257.457 652.008 257.457ZM659.566 256.949L660.338 249.781H667.975V251.832H662.311L661.92 255.23C662.577 254.853 663.32 254.664 664.146 254.664C665.501 254.664 666.552 255.097 667.301 255.963C668.056 256.829 668.434 257.994 668.434 259.459C668.434 260.904 668.017 262.057 667.184 262.916C666.35 263.769 665.208 264.195 663.756 264.195C662.454 264.195 661.373 263.827 660.514 263.092C659.661 262.35 659.199 261.373 659.127 260.162H661.422C661.513 260.852 661.76 261.383 662.164 261.754C662.568 262.118 663.095 262.301 663.746 262.301C664.475 262.301 665.042 262.04 665.445 261.52C665.855 260.999 666.061 260.289 666.061 259.391C666.061 258.525 665.836 257.841 665.387 257.34C664.938 256.832 664.319 256.578 663.531 256.578C663.102 256.578 662.737 256.637 662.438 256.754C662.138 256.865 661.812 257.086 661.461 257.418L659.566 256.949ZM681.705 264H679.342V252.584L675.855 253.775V251.773L681.402 249.732H681.705V264ZM696.207 264H686.646V262.369L691.383 257.203C692.066 256.441 692.551 255.807 692.838 255.299C693.131 254.785 693.277 254.27 693.277 253.756C693.277 253.079 693.085 252.532 692.701 252.115C692.324 251.699 691.812 251.49 691.168 251.49C690.4 251.49 689.804 251.725 689.381 252.193C688.958 252.662 688.746 253.303 688.746 254.117H686.373C686.373 253.251 686.568 252.473 686.959 251.783C687.356 251.087 687.919 250.546 688.648 250.162C689.384 249.778 690.23 249.586 691.188 249.586C692.568 249.586 693.655 249.934 694.449 250.631C695.25 251.321 695.65 252.278 695.65 253.502C695.65 254.212 695.449 254.957 695.045 255.738C694.648 256.513 693.993 257.395 693.082 258.385L689.605 262.105H696.207V264ZM700.758 255.807H702.203C702.932 255.8 703.508 255.611 703.932 255.24C704.361 254.869 704.576 254.332 704.576 253.629C704.576 252.952 704.397 252.428 704.039 252.057C703.688 251.679 703.147 251.49 702.418 251.49C701.78 251.49 701.256 251.676 700.846 252.047C700.436 252.411 700.23 252.89 700.23 253.482H697.857C697.857 252.753 698.049 252.089 698.434 251.49C698.824 250.891 699.365 250.426 700.055 250.094C700.751 249.755 701.529 249.586 702.389 249.586C703.808 249.586 704.921 249.944 705.729 250.66C706.542 251.37 706.949 252.359 706.949 253.629C706.949 254.267 706.744 254.869 706.334 255.436C705.93 255.995 705.406 256.419 704.762 256.705C705.543 256.972 706.135 257.392 706.539 257.965C706.949 258.538 707.154 259.221 707.154 260.016C707.154 261.292 706.715 262.307 705.836 263.062C704.964 263.818 703.814 264.195 702.389 264.195C701.021 264.195 699.902 263.831 699.029 263.102C698.157 262.372 697.721 261.402 697.721 260.191H700.094C700.094 260.816 700.302 261.324 700.719 261.715C701.142 262.105 701.708 262.301 702.418 262.301C703.154 262.301 703.733 262.105 704.156 261.715C704.579 261.324 704.791 260.758 704.791 260.016C704.791 259.267 704.57 258.691 704.127 258.287C703.684 257.883 703.027 257.682 702.154 257.682H700.758V255.807ZM718.941 264H709.381V262.369L714.117 257.203C714.801 256.441 715.286 255.807 715.572 255.299C715.865 254.785 716.012 254.27 716.012 253.756C716.012 253.079 715.82 252.532 715.436 252.115C715.058 251.699 714.547 251.49 713.902 251.49C713.134 251.49 712.538 251.725 712.115 252.193C711.692 252.662 711.48 253.303 711.48 254.117H709.107C709.107 253.251 709.303 252.473 709.693 251.783C710.09 251.087 710.654 250.546 711.383 250.162C712.118 249.778 712.965 249.586 713.922 249.586C715.302 249.586 716.389 249.934 717.184 250.631C717.984 251.321 718.385 252.278 718.385 253.502C718.385 254.212 718.183 254.957 717.779 255.738C717.382 256.513 716.728 257.395 715.816 258.385L712.34 262.105H718.941V264ZM723.492 255.807H724.938C725.667 255.8 726.243 255.611 726.666 255.24C727.096 254.869 727.311 254.332 727.311 253.629C727.311 252.952 727.132 252.428 726.773 252.057C726.422 251.679 725.882 251.49 725.152 251.49C724.514 251.49 723.99 251.676 723.58 252.047C723.17 252.411 722.965 252.89 722.965 253.482H720.592C720.592 252.753 720.784 252.089 721.168 251.49C721.559 250.891 722.099 250.426 722.789 250.094C723.486 249.755 724.264 249.586 725.123 249.586C726.542 249.586 727.656 249.944 728.463 250.66C729.277 251.37 729.684 252.359 729.684 253.629C729.684 254.267 729.479 254.869 729.068 255.436C728.665 255.995 728.141 256.419 727.496 256.705C728.277 256.972 728.87 257.392 729.273 257.965C729.684 258.538 729.889 259.221 729.889 260.016C729.889 261.292 729.449 262.307 728.57 263.062C727.698 263.818 726.549 264.195 725.123 264.195C723.756 264.195 722.636 263.831 721.764 263.102C720.891 262.372 720.455 261.402 720.455 260.191H722.828C722.828 260.816 723.036 261.324 723.453 261.715C723.876 262.105 724.443 262.301 725.152 262.301C725.888 262.301 726.467 262.105 726.891 261.715C727.314 261.324 727.525 260.758 727.525 260.016C727.525 259.267 727.304 258.691 726.861 258.287C726.419 257.883 725.761 257.682 724.889 257.682H723.492V255.807ZM745.123 258.932H746.891V260.836H745.123V264H742.75V260.836H736.607L736.539 259.391L742.672 249.781H745.123V258.932ZM739.029 258.932H742.75V252.994L742.574 253.307L739.029 258.932ZM758.023 264H748.463V262.369L753.199 257.203C753.883 256.441 754.368 255.807 754.654 255.299C754.947 254.785 755.094 254.27 755.094 253.756C755.094 253.079 754.902 252.532 754.518 252.115C754.14 251.699 753.629 251.49 752.984 251.49C752.216 251.49 751.62 251.725 751.197 252.193C750.774 252.662 750.562 253.303 750.562 254.117H748.189C748.189 253.251 748.385 252.473 748.775 251.783C749.173 251.087 749.736 250.546 750.465 250.162C751.201 249.778 752.047 249.586 753.004 249.586C754.384 249.586 755.471 249.934 756.266 250.631C757.066 251.321 757.467 252.278 757.467 253.502C757.467 254.212 757.265 254.957 756.861 255.738C756.464 256.513 755.81 257.395 754.898 258.385L751.422 262.105H758.023V264ZM766.256 264H763.893V252.584L760.406 253.775V251.773L765.953 249.732H766.256V264ZM780.758 264H771.197V262.369L775.934 257.203C776.617 256.441 777.102 255.807 777.389 255.299C777.682 254.785 777.828 254.27 777.828 253.756C777.828 253.079 777.636 252.532 777.252 252.115C776.874 251.699 776.363 251.49 775.719 251.49C774.951 251.49 774.355 251.725 773.932 252.193C773.508 252.662 773.297 253.303 773.297 254.117H770.924C770.924 253.251 771.119 252.473 771.51 251.783C771.907 251.087 772.47 250.546 773.199 250.162C773.935 249.778 774.781 249.586 775.738 249.586C777.118 249.586 778.206 249.934 779 250.631C779.801 251.321 780.201 252.278 780.201 253.502C780.201 254.212 779.999 254.957 779.596 255.738C779.199 256.513 778.544 257.395 777.633 258.385L774.156 262.105H780.758V264Z" fill="#FFC739"/>
<path d="M625.699 280.178H629.41V282.346H625.699V286.574H623.395V282.346H619.664V280.178H623.395V276.223H625.699V280.178ZM642.926 282.053C642.132 282.893 641.204 283.312 640.143 283.312C638.893 283.312 637.896 282.876 637.154 282.004C636.412 281.125 636.041 279.973 636.041 278.547C636.041 277.609 636.23 276.76 636.607 275.998C636.985 275.236 637.522 274.644 638.219 274.221C638.915 273.798 639.723 273.586 640.641 273.586C642.073 273.586 643.209 274.12 644.049 275.188C644.889 276.255 645.309 277.684 645.309 279.475V280.139C645.309 282.704 644.729 284.66 643.57 286.008C642.411 287.355 640.683 288.039 638.385 288.059H638.102V286.096H638.443C639.843 286.076 640.917 285.741 641.666 285.09C642.415 284.432 642.835 283.42 642.926 282.053ZM640.641 281.457C641.116 281.457 641.562 281.32 641.979 281.047C642.395 280.773 642.717 280.396 642.945 279.914V278.986C642.945 277.938 642.73 277.095 642.301 276.457C641.871 275.819 641.314 275.5 640.631 275.5C639.947 275.5 639.4 275.783 638.99 276.35C638.587 276.91 638.385 277.619 638.385 278.479C638.385 279.37 638.59 280.09 639 280.637C639.41 281.184 639.957 281.457 640.641 281.457ZM654.293 282.053C653.499 282.893 652.571 283.312 651.51 283.312C650.26 283.312 649.264 282.876 648.521 282.004C647.779 281.125 647.408 279.973 647.408 278.547C647.408 277.609 647.597 276.76 647.975 275.998C648.352 275.236 648.889 274.644 649.586 274.221C650.283 273.798 651.09 273.586 652.008 273.586C653.44 273.586 654.576 274.12 655.416 275.188C656.256 276.255 656.676 277.684 656.676 279.475V280.139C656.676 282.704 656.096 284.66 654.938 286.008C653.779 287.355 652.05 288.039 649.752 288.059H649.469V286.096H649.811C651.21 286.076 652.285 285.741 653.033 285.09C653.782 284.432 654.202 283.42 654.293 282.053ZM652.008 281.457C652.483 281.457 652.929 281.32 653.346 281.047C653.762 280.773 654.085 280.396 654.312 279.914V278.986C654.312 277.938 654.098 277.095 653.668 276.457C653.238 275.819 652.682 275.5 651.998 275.5C651.314 275.5 650.768 275.783 650.357 276.35C649.954 276.91 649.752 277.619 649.752 278.479C649.752 279.37 649.957 280.09 650.367 280.637C650.777 281.184 651.324 281.457 652.008 281.457ZM659.566 280.949L660.338 273.781H667.975V275.832H662.311L661.92 279.23C662.577 278.853 663.32 278.664 664.146 278.664C665.501 278.664 666.552 279.097 667.301 279.963C668.056 280.829 668.434 281.994 668.434 283.459C668.434 284.904 668.017 286.057 667.184 286.916C666.35 287.769 665.208 288.195 663.756 288.195C662.454 288.195 661.373 287.827 660.514 287.092C659.661 286.35 659.199 285.373 659.127 284.162H661.422C661.513 284.852 661.76 285.383 662.164 285.754C662.568 286.118 663.095 286.301 663.746 286.301C664.475 286.301 665.042 286.04 665.445 285.52C665.855 284.999 666.061 284.289 666.061 283.391C666.061 282.525 665.836 281.841 665.387 281.34C664.938 280.832 664.319 280.578 663.531 280.578C663.102 280.578 662.737 280.637 662.438 280.754C662.138 280.865 661.812 281.086 661.461 281.418L659.566 280.949ZM675.914 280.949L676.686 273.781H684.322V275.832H678.658L678.268 279.23C678.925 278.853 679.667 278.664 680.494 278.664C681.848 278.664 682.9 279.097 683.648 279.963C684.404 280.829 684.781 281.994 684.781 283.459C684.781 284.904 684.365 286.057 683.531 286.916C682.698 287.769 681.555 288.195 680.104 288.195C678.801 288.195 677.721 287.827 676.861 287.092C676.008 286.35 675.546 285.373 675.475 284.162H677.77C677.861 284.852 678.108 285.383 678.512 285.754C678.915 286.118 679.443 286.301 680.094 286.301C680.823 286.301 681.389 286.04 681.793 285.52C682.203 284.999 682.408 284.289 682.408 283.391C682.408 282.525 682.184 281.841 681.734 281.34C681.285 280.832 680.667 280.578 679.879 280.578C679.449 280.578 679.085 280.637 678.785 280.754C678.486 280.865 678.16 281.086 677.809 281.418L675.914 280.949ZM696.207 288H686.646V286.369L691.383 281.203C692.066 280.441 692.551 279.807 692.838 279.299C693.131 278.785 693.277 278.27 693.277 277.756C693.277 277.079 693.085 276.532 692.701 276.115C692.324 275.699 691.812 275.49 691.168 275.49C690.4 275.49 689.804 275.725 689.381 276.193C688.958 276.662 688.746 277.303 688.746 278.117H686.373C686.373 277.251 686.568 276.473 686.959 275.783C687.356 275.087 687.919 274.546 688.648 274.162C689.384 273.778 690.23 273.586 691.188 273.586C692.568 273.586 693.655 273.934 694.449 274.631C695.25 275.321 695.65 276.278 695.65 277.502C695.65 278.212 695.449 278.957 695.045 279.738C694.648 280.513 693.993 281.395 693.082 282.385L689.605 286.105H696.207V288ZM700.758 279.807H702.203C702.932 279.8 703.508 279.611 703.932 279.24C704.361 278.869 704.576 278.332 704.576 277.629C704.576 276.952 704.397 276.428 704.039 276.057C703.688 275.679 703.147 275.49 702.418 275.49C701.78 275.49 701.256 275.676 700.846 276.047C700.436 276.411 700.23 276.89 700.23 277.482H697.857C697.857 276.753 698.049 276.089 698.434 275.49C698.824 274.891 699.365 274.426 700.055 274.094C700.751 273.755 701.529 273.586 702.389 273.586C703.808 273.586 704.921 273.944 705.729 274.66C706.542 275.37 706.949 276.359 706.949 277.629C706.949 278.267 706.744 278.869 706.334 279.436C705.93 279.995 705.406 280.419 704.762 280.705C705.543 280.972 706.135 281.392 706.539 281.965C706.949 282.538 707.154 283.221 707.154 284.016C707.154 285.292 706.715 286.307 705.836 287.062C704.964 287.818 703.814 288.195 702.389 288.195C701.021 288.195 699.902 287.831 699.029 287.102C698.157 286.372 697.721 285.402 697.721 284.191H700.094C700.094 284.816 700.302 285.324 700.719 285.715C701.142 286.105 701.708 286.301 702.418 286.301C703.154 286.301 703.733 286.105 704.156 285.715C704.579 285.324 704.791 284.758 704.791 284.016C704.791 283.267 704.57 282.691 704.127 282.287C703.684 281.883 703.027 281.682 702.154 281.682H700.758V279.807ZM717.408 282.932H719.176V284.836H717.408V288H715.035V284.836H708.893L708.824 283.391L714.957 273.781H717.408V282.932ZM711.314 282.932H715.035V276.994L714.859 277.307L711.314 282.932ZM733.756 282.932H735.523V284.836H733.756V288H731.383V284.836H725.24L725.172 283.391L731.305 273.781H733.756V282.932ZM727.662 282.932H731.383V276.994L731.207 277.307L727.662 282.932ZM739.84 279.807H741.285C742.014 279.8 742.59 279.611 743.014 279.24C743.443 278.869 743.658 278.332 743.658 277.629C743.658 276.952 743.479 276.428 743.121 276.057C742.77 275.679 742.229 275.49 741.5 275.49C740.862 275.49 740.338 275.676 739.928 276.047C739.518 276.411 739.312 276.89 739.312 277.482H736.939C736.939 276.753 737.132 276.089 737.516 275.49C737.906 274.891 738.447 274.426 739.137 274.094C739.833 273.755 740.611 273.586 741.471 273.586C742.89 273.586 744.003 273.944 744.811 274.66C745.624 275.37 746.031 276.359 746.031 277.629C746.031 278.267 745.826 278.869 745.416 279.436C745.012 279.995 744.488 280.419 743.844 280.705C744.625 280.972 745.217 281.392 745.621 281.965C746.031 282.538 746.236 283.221 746.236 284.016C746.236 285.292 745.797 286.307 744.918 287.062C744.046 287.818 742.896 288.195 741.471 288.195C740.104 288.195 738.984 287.831 738.111 287.102C737.239 286.372 736.803 285.402 736.803 284.191H739.176C739.176 284.816 739.384 285.324 739.801 285.715C740.224 286.105 740.79 286.301 741.5 286.301C742.236 286.301 742.815 286.105 743.238 285.715C743.661 285.324 743.873 284.758 743.873 284.016C743.873 283.267 743.652 282.691 743.209 282.287C742.766 281.883 742.109 281.682 741.236 281.682H739.84V279.807ZM751.207 279.807H752.652C753.382 279.8 753.958 279.611 754.381 279.24C754.811 278.869 755.025 278.332 755.025 277.629C755.025 276.952 754.846 276.428 754.488 276.057C754.137 275.679 753.596 275.49 752.867 275.49C752.229 275.49 751.705 275.676 751.295 276.047C750.885 276.411 750.68 276.89 750.68 277.482H748.307C748.307 276.753 748.499 276.089 748.883 275.49C749.273 274.891 749.814 274.426 750.504 274.094C751.201 273.755 751.979 273.586 752.838 273.586C754.257 273.586 755.37 273.944 756.178 274.66C756.992 275.37 757.398 276.359 757.398 277.629C757.398 278.267 757.193 278.869 756.783 279.436C756.38 279.995 755.855 280.419 755.211 280.705C755.992 280.972 756.585 281.392 756.988 281.965C757.398 282.538 757.604 283.221 757.604 284.016C757.604 285.292 757.164 286.307 756.285 287.062C755.413 287.818 754.264 288.195 752.838 288.195C751.471 288.195 750.351 287.831 749.479 287.102C748.606 286.372 748.17 285.402 748.17 284.191H750.543C750.543 284.816 750.751 285.324 751.168 285.715C751.591 286.105 752.158 286.301 752.867 286.301C753.603 286.301 754.182 286.105 754.605 285.715C755.029 285.324 755.24 284.758 755.24 284.016C755.24 283.267 755.019 282.691 754.576 282.287C754.133 281.883 753.476 281.682 752.604 281.682H751.207V279.807ZM769.391 288H759.83V286.369L764.566 281.203C765.25 280.441 765.735 279.807 766.021 279.299C766.314 278.785 766.461 278.27 766.461 277.756C766.461 277.079 766.269 276.532 765.885 276.115C765.507 275.699 764.996 275.49 764.352 275.49C763.583 275.49 762.988 275.725 762.564 276.193C762.141 276.662 761.93 277.303 761.93 278.117H759.557C759.557 277.251 759.752 276.473 760.143 275.783C760.54 275.087 761.103 274.546 761.832 274.162C762.568 273.778 763.414 273.586 764.371 273.586C765.751 273.586 766.839 273.934 767.633 274.631C768.434 275.321 768.834 276.278 768.834 277.502C768.834 278.212 768.632 278.957 768.229 279.738C767.831 280.513 767.177 281.395 766.266 282.385L762.789 286.105H769.391V288ZM779.225 282.932H780.992V284.836H779.225V288H776.852V284.836H770.709L770.641 283.391L776.773 273.781H779.225V282.932ZM773.131 282.932H776.852V276.994L776.676 277.307L773.131 282.932Z" fill="#FFC739"/>
<path d="M623.053 356H620.592V341.781H623.053V356ZM637.369 356H634.898L628.561 345.912V356H626.09V341.781H628.561L634.918 351.908V341.781H637.369V356ZM648.482 349.975H642.76V356H640.289V341.781H649.322V343.773H642.76V348.002H648.482V349.975ZM662.633 349.262C662.633 350.655 662.392 351.879 661.91 352.934C661.428 353.982 660.738 354.789 659.84 355.355C658.948 355.915 657.919 356.195 656.754 356.195C655.602 356.195 654.573 355.915 653.668 355.355C652.77 354.789 652.073 353.985 651.578 352.943C651.09 351.902 650.842 350.701 650.836 349.34V348.539C650.836 347.152 651.08 345.928 651.568 344.867C652.063 343.806 652.757 342.995 653.648 342.436C654.547 341.869 655.576 341.586 656.734 341.586C657.893 341.586 658.919 341.866 659.811 342.426C660.709 342.979 661.402 343.78 661.891 344.828C662.379 345.87 662.626 347.084 662.633 348.471V349.262ZM660.162 348.52C660.162 346.944 659.863 345.736 659.264 344.896C658.671 344.057 657.828 343.637 656.734 343.637C655.667 343.637 654.83 344.057 654.225 344.896C653.626 345.73 653.32 346.911 653.307 348.441V349.262C653.307 350.824 653.609 352.032 654.215 352.885C654.827 353.738 655.673 354.164 656.754 354.164C657.848 354.164 658.688 353.747 659.273 352.914C659.866 352.081 660.162 350.863 660.162 349.262V348.52ZM680.65 350.941C680.572 352.569 680.172 353.855 679.449 354.799C678.727 355.736 677.747 356.205 676.51 356.205C675.331 356.205 674.544 355.704 674.146 354.701C673.814 355.196 673.427 355.567 672.984 355.814C672.548 356.062 672.089 356.186 671.607 356.186C670.657 356.186 669.934 355.795 669.439 355.014C668.951 354.232 668.766 353.188 668.883 351.879C668.987 350.818 669.244 349.861 669.654 349.008C670.071 348.155 670.595 347.497 671.227 347.035C671.865 346.566 672.542 346.332 673.258 346.332C673.805 346.332 674.286 346.4 674.703 346.537C675.126 346.674 675.621 346.957 676.188 347.387L675.68 352.885C675.556 354.174 675.927 354.818 676.793 354.818C677.457 354.818 678.001 354.464 678.424 353.754C678.854 353.038 679.088 352.113 679.127 350.98C679.238 348.578 678.772 346.739 677.73 345.463C676.695 344.187 675.136 343.549 673.053 343.549C671.777 343.549 670.644 343.868 669.654 344.506C668.671 345.144 667.89 346.068 667.311 347.279C666.731 348.484 666.412 349.857 666.354 351.4C666.275 352.969 666.461 354.324 666.91 355.463C667.366 356.596 668.059 357.458 668.99 358.051C669.928 358.643 671.07 358.939 672.418 358.939C672.965 358.939 673.535 358.874 674.127 358.744C674.726 358.614 675.234 358.438 675.65 358.217L676.021 359.555C675.624 359.815 675.087 360.023 674.41 360.18C673.74 360.342 673.062 360.424 672.379 360.424C670.725 360.424 669.306 360.072 668.121 359.369C666.936 358.673 666.048 357.66 665.455 356.332C664.843 354.958 664.573 353.314 664.645 351.4C664.723 349.617 665.123 348.015 665.846 346.596C666.568 345.17 667.555 344.063 668.805 343.275C670.061 342.488 671.49 342.094 673.092 342.094C674.713 342.094 676.106 342.452 677.271 343.168C678.443 343.878 679.319 344.903 679.898 346.244C680.478 347.579 680.729 349.145 680.65 350.941ZM670.797 351.879C670.712 352.764 670.79 353.438 671.031 353.9C671.272 354.356 671.656 354.584 672.184 354.584C672.535 354.584 672.867 354.431 673.18 354.125C673.492 353.812 673.746 353.386 673.941 352.846L674.381 348.031C674.055 347.908 673.74 347.846 673.434 347.846C672.711 347.846 672.122 348.188 671.666 348.871C671.21 349.548 670.921 350.551 670.797 351.879ZM693.834 351.371C693.691 352.888 693.131 354.073 692.154 354.926C691.178 355.772 689.879 356.195 688.258 356.195C687.125 356.195 686.126 355.928 685.26 355.395C684.4 354.854 683.736 354.089 683.268 353.1C682.799 352.11 682.555 350.961 682.535 349.652V348.324C682.535 346.983 682.773 345.801 683.248 344.779C683.723 343.757 684.404 342.969 685.289 342.416C686.181 341.863 687.21 341.586 688.375 341.586C689.944 341.586 691.207 342.012 692.164 342.865C693.121 343.718 693.678 344.923 693.834 346.479H691.373C691.256 345.456 690.956 344.721 690.475 344.271C689.999 343.816 689.299 343.588 688.375 343.588C687.301 343.588 686.474 343.982 685.895 344.77C685.322 345.551 685.029 346.7 685.016 348.217V349.477C685.016 351.013 685.289 352.185 685.836 352.992C686.389 353.799 687.197 354.203 688.258 354.203C689.228 354.203 689.957 353.985 690.445 353.549C690.934 353.113 691.243 352.387 691.373 351.371H693.834ZM707.398 349.262C707.398 350.655 707.158 351.879 706.676 352.934C706.194 353.982 705.504 354.789 704.605 355.355C703.714 355.915 702.685 356.195 701.52 356.195C700.367 356.195 699.339 355.915 698.434 355.355C697.535 354.789 696.839 353.985 696.344 352.943C695.855 351.902 695.608 350.701 695.602 349.34V348.539C695.602 347.152 695.846 345.928 696.334 344.867C696.829 343.806 697.522 342.995 698.414 342.436C699.312 341.869 700.341 341.586 701.5 341.586C702.659 341.586 703.684 341.866 704.576 342.426C705.475 342.979 706.168 343.78 706.656 344.828C707.145 345.87 707.392 347.084 707.398 348.471V349.262ZM704.928 348.52C704.928 346.944 704.628 345.736 704.029 344.896C703.437 344.057 702.594 343.637 701.5 343.637C700.432 343.637 699.596 344.057 698.99 344.896C698.391 345.73 698.085 346.911 698.072 348.441V349.262C698.072 350.824 698.375 352.032 698.98 352.885C699.592 353.738 700.439 354.164 701.52 354.164C702.613 354.164 703.453 353.747 704.039 352.914C704.632 352.081 704.928 350.863 704.928 349.262V348.52ZM713.062 341.781L717.164 352.68L721.256 341.781H724.449V356H721.988V351.312L722.232 345.043L718.033 356H716.266L712.076 345.053L712.32 351.312V356H709.859V341.781H713.062ZM735.514 352.689H730.006L728.854 356H726.285L731.656 341.781H733.873L739.254 356H736.676L735.514 352.689ZM730.699 350.697H734.82L732.76 344.799L730.699 350.697ZM743.346 350.717V356H740.875V341.781H746.314C747.903 341.781 749.163 342.195 750.094 343.021C751.031 343.848 751.5 344.942 751.5 346.303C751.5 347.696 751.041 348.78 750.123 349.555C749.212 350.329 747.932 350.717 746.285 350.717H743.346ZM743.346 348.734H746.314C747.193 348.734 747.864 348.529 748.326 348.119C748.788 347.702 749.02 347.104 749.02 346.322C749.02 345.554 748.785 344.942 748.316 344.486C747.848 344.024 747.203 343.786 746.383 343.773H743.346V348.734ZM759.889 352.689H754.381L753.229 356H750.66L756.031 341.781H758.248L763.629 356H761.051L759.889 352.689ZM755.074 350.697H759.195L757.135 344.799L755.074 350.697ZM776.529 356H774.059L767.721 345.912V356H765.25V341.781H767.721L774.078 351.908V341.781H776.529V356ZM783.814 348.52L787.086 341.781H789.82L785.055 350.766V356H782.574V350.766L777.799 341.781H780.543L783.814 348.52ZM802.643 356H800.172L793.834 345.912V356H791.363V341.781H793.834L800.191 351.908V341.781H802.643V356ZM813.697 352.689H808.189L807.037 356H804.469L809.84 341.781H812.057L817.438 356H814.859L813.697 352.689ZM808.883 350.697H813.004L810.943 344.799L808.883 350.697ZM822.262 341.781L826.363 352.68L830.455 341.781H833.648V356H831.188V351.312L831.432 345.043L827.232 356H825.465L821.275 345.053L821.52 351.312V356H819.059V341.781H822.262ZM844.889 349.652H839.049V354.027H845.875V356H836.578V341.781H845.807V343.773H839.049V347.699H844.889V349.652ZM849.137 353.5C849.579 353.5 849.921 353.627 850.162 353.881C850.403 354.128 850.523 354.441 850.523 354.818C850.523 355.189 850.403 355.499 850.162 355.746C849.921 355.987 849.579 356.107 849.137 356.107C848.714 356.107 848.378 355.987 848.131 355.746C847.883 355.505 847.76 355.196 847.76 354.818C847.76 354.441 847.88 354.128 848.121 353.881C848.362 353.627 848.701 353.5 849.137 353.5ZM864.322 351.371C864.179 352.888 863.619 354.073 862.643 354.926C861.666 355.772 860.367 356.195 858.746 356.195C857.613 356.195 856.614 355.928 855.748 355.395C854.889 354.854 854.225 354.089 853.756 353.1C853.287 352.11 853.043 350.961 853.023 349.652V348.324C853.023 346.983 853.261 345.801 853.736 344.779C854.212 343.757 854.892 342.969 855.777 342.416C856.669 341.863 857.698 341.586 858.863 341.586C860.432 341.586 861.695 342.012 862.652 342.865C863.609 343.718 864.166 344.923 864.322 346.479H861.861C861.744 345.456 861.445 344.721 860.963 344.271C860.488 343.816 859.788 343.588 858.863 343.588C857.789 343.588 856.962 343.982 856.383 344.77C855.81 345.551 855.517 346.7 855.504 348.217V349.477C855.504 351.013 855.777 352.185 856.324 352.992C856.878 353.799 857.685 354.203 858.746 354.203C859.716 354.203 860.445 353.985 860.934 353.549C861.422 353.113 861.731 352.387 861.861 351.371H864.322ZM877.887 349.262C877.887 350.655 877.646 351.879 877.164 352.934C876.682 353.982 875.992 354.789 875.094 355.355C874.202 355.915 873.173 356.195 872.008 356.195C870.855 356.195 869.827 355.915 868.922 355.355C868.023 354.789 867.327 353.985 866.832 352.943C866.344 351.902 866.096 350.701 866.09 349.34V348.539C866.09 347.152 866.334 345.928 866.822 344.867C867.317 343.806 868.01 342.995 868.902 342.436C869.801 341.869 870.829 341.586 871.988 341.586C873.147 341.586 874.173 341.866 875.064 342.426C875.963 342.979 876.656 343.78 877.145 344.828C877.633 345.87 877.88 347.084 877.887 348.471V349.262ZM875.416 348.52C875.416 346.944 875.117 345.736 874.518 344.896C873.925 344.057 873.082 343.637 871.988 343.637C870.921 343.637 870.084 344.057 869.479 344.896C868.88 345.73 868.574 346.911 868.561 348.441V349.262C868.561 350.824 868.863 352.032 869.469 352.885C870.081 353.738 870.927 354.164 872.008 354.164C873.102 354.164 873.941 353.747 874.527 352.914C875.12 352.081 875.416 350.863 875.416 349.262V348.52ZM883.551 341.781L887.652 352.68L891.744 341.781H894.938V356H892.477V351.312L892.721 345.043L888.521 356H886.754L882.564 345.053L882.809 351.312V356H880.348V341.781H883.551Z" fill="#FFC739"/>
<path d="M631.598 380.484L633.785 369.781H636.236L632.955 384H630.592L627.887 373.619L625.123 384H622.75L619.469 369.781H621.92L624.127 380.465L626.842 369.781H628.912L631.598 380.484ZM649.195 380.484L651.383 369.781H653.834L650.553 384H648.189L645.484 373.619L642.721 384H640.348L637.066 369.781H639.518L641.725 380.465L644.439 369.781H646.51L649.195 380.484ZM666.793 380.484L668.98 369.781H671.432L668.15 384H665.787L663.082 373.619L660.318 384H657.945L654.664 369.781H657.115L659.322 380.465L662.037 369.781H664.107L666.793 380.484ZM673.082 381.5C673.525 381.5 673.867 381.627 674.107 381.881C674.348 382.128 674.469 382.441 674.469 382.818C674.469 383.189 674.348 383.499 674.107 383.746C673.867 383.987 673.525 384.107 673.082 384.107C672.659 384.107 672.324 383.987 672.076 383.746C671.829 383.505 671.705 383.196 671.705 382.818C671.705 382.441 671.826 382.128 672.066 381.881C672.307 381.627 672.646 381.5 673.082 381.5ZM688.268 379.371C688.124 380.888 687.564 382.073 686.588 382.926C685.611 383.772 684.312 384.195 682.691 384.195C681.559 384.195 680.559 383.928 679.693 383.395C678.834 382.854 678.17 382.089 677.701 381.1C677.232 380.11 676.988 378.961 676.969 377.652V376.324C676.969 374.983 677.206 373.801 677.682 372.779C678.157 371.757 678.837 370.969 679.723 370.416C680.615 369.863 681.643 369.586 682.809 369.586C684.378 369.586 685.641 370.012 686.598 370.865C687.555 371.718 688.111 372.923 688.268 374.479H685.807C685.689 373.456 685.39 372.721 684.908 372.271C684.433 371.816 683.733 371.588 682.809 371.588C681.734 371.588 680.908 371.982 680.328 372.77C679.755 373.551 679.462 374.7 679.449 376.217V377.477C679.449 379.013 679.723 380.185 680.27 380.992C680.823 381.799 681.63 382.203 682.691 382.203C683.661 382.203 684.391 381.985 684.879 381.549C685.367 381.113 685.676 380.387 685.807 379.371H688.268ZM701.832 377.262C701.832 378.655 701.591 379.879 701.109 380.934C700.628 381.982 699.938 382.789 699.039 383.355C698.147 383.915 697.118 384.195 695.953 384.195C694.801 384.195 693.772 383.915 692.867 383.355C691.969 382.789 691.272 381.985 690.777 380.943C690.289 379.902 690.042 378.701 690.035 377.34V376.539C690.035 375.152 690.279 373.928 690.768 372.867C691.262 371.806 691.956 370.995 692.848 370.436C693.746 369.869 694.775 369.586 695.934 369.586C697.092 369.586 698.118 369.866 699.01 370.426C699.908 370.979 700.602 371.78 701.09 372.828C701.578 373.87 701.826 375.084 701.832 376.471V377.262ZM699.361 376.52C699.361 374.944 699.062 373.736 698.463 372.896C697.87 372.057 697.027 371.637 695.934 371.637C694.866 371.637 694.029 372.057 693.424 372.896C692.825 373.73 692.519 374.911 692.506 376.441V377.262C692.506 378.824 692.809 380.032 693.414 380.885C694.026 381.738 694.872 382.164 695.953 382.164C697.047 382.164 697.887 381.747 698.473 380.914C699.065 380.081 699.361 378.863 699.361 377.262V376.52ZM707.496 369.781L711.598 380.68L715.689 369.781H718.883V384H716.422V379.312L716.666 373.043L712.467 384H710.699L706.51 373.053L706.754 379.312V384H704.293V369.781H707.496ZM724.283 378.717V384H721.812V369.781H727.252C728.84 369.781 730.1 370.195 731.031 371.021C731.969 371.848 732.438 372.942 732.438 374.303C732.438 375.696 731.979 376.78 731.061 377.555C730.149 378.329 728.87 378.717 727.223 378.717H724.283ZM724.283 376.734H727.252C728.131 376.734 728.801 376.529 729.264 376.119C729.726 375.702 729.957 375.104 729.957 374.322C729.957 373.554 729.723 372.942 729.254 372.486C728.785 372.024 728.141 371.786 727.32 371.773H724.283V376.734ZM740.826 380.689H735.318L734.166 384H731.598L736.969 369.781H739.186L744.566 384H741.988L740.826 380.689ZM736.012 378.697H740.133L738.072 372.799L736.012 378.697ZM757.467 384H754.996L748.658 373.912V384H746.188V369.781H748.658L755.016 379.908V369.781H757.467V384ZM764.752 376.52L768.023 369.781H770.758L765.992 378.766V384H763.512V378.766L758.736 369.781H761.48L764.752 376.52ZM775.191 378.912H770.064V376.998H775.191V378.912ZM788.658 384H786.188L779.85 373.912V384H777.379V369.781H779.85L786.207 379.908V369.781H788.658V384ZM799.713 380.689H794.205L793.053 384H790.484L795.855 369.781H798.072L803.453 384H800.875L799.713 380.689ZM794.898 378.697H799.02L796.959 372.799L794.898 378.697ZM808.277 369.781L812.379 380.68L816.471 369.781H819.664V384H817.203V379.312L817.447 373.043L813.248 384H811.48L807.291 373.053L807.535 379.312V384H805.074V369.781H808.277ZM830.904 377.652H825.064V382.027H831.891V384H822.594V369.781H831.822V371.773H825.064V375.699H830.904V377.652ZM835.152 381.5C835.595 381.5 835.937 381.627 836.178 381.881C836.419 382.128 836.539 382.441 836.539 382.818C836.539 383.189 836.419 383.499 836.178 383.746C835.937 383.987 835.595 384.107 835.152 384.107C834.729 384.107 834.394 383.987 834.146 383.746C833.899 383.505 833.775 383.196 833.775 382.818C833.775 382.441 833.896 382.128 834.137 381.881C834.378 381.627 834.716 381.5 835.152 381.5ZM850.338 379.371C850.195 380.888 849.635 382.073 848.658 382.926C847.682 383.772 846.383 384.195 844.762 384.195C843.629 384.195 842.63 383.928 841.764 383.395C840.904 382.854 840.24 382.089 839.771 381.1C839.303 380.11 839.059 378.961 839.039 377.652V376.324C839.039 374.983 839.277 373.801 839.752 372.779C840.227 371.757 840.908 370.969 841.793 370.416C842.685 369.863 843.714 369.586 844.879 369.586C846.448 369.586 847.711 370.012 848.668 370.865C849.625 371.718 850.182 372.923 850.338 374.479H847.877C847.76 373.456 847.46 372.721 846.979 372.271C846.503 371.816 845.803 371.588 844.879 371.588C843.805 371.588 842.978 371.982 842.398 372.77C841.826 373.551 841.533 374.7 841.52 376.217V377.477C841.52 379.013 841.793 380.185 842.34 380.992C842.893 381.799 843.701 382.203 844.762 382.203C845.732 382.203 846.461 381.985 846.949 381.549C847.438 381.113 847.747 380.387 847.877 379.371H850.338ZM863.902 377.262C863.902 378.655 863.661 379.879 863.18 380.934C862.698 381.982 862.008 382.789 861.109 383.355C860.217 383.915 859.189 384.195 858.023 384.195C856.871 384.195 855.842 383.915 854.938 383.355C854.039 382.789 853.342 381.985 852.848 380.943C852.359 379.902 852.112 378.701 852.105 377.34V376.539C852.105 375.152 852.35 373.928 852.838 372.867C853.333 371.806 854.026 370.995 854.918 370.436C855.816 369.869 856.845 369.586 858.004 369.586C859.163 369.586 860.188 369.866 861.08 370.426C861.979 370.979 862.672 371.78 863.16 372.828C863.648 373.87 863.896 375.084 863.902 376.471V377.262ZM861.432 376.52C861.432 374.944 861.132 373.736 860.533 372.896C859.941 372.057 859.098 371.637 858.004 371.637C856.936 371.637 856.1 372.057 855.494 372.896C854.895 373.73 854.589 374.911 854.576 376.441V377.262C854.576 378.824 854.879 380.032 855.484 380.885C856.096 381.738 856.943 382.164 858.023 382.164C859.117 382.164 859.957 381.747 860.543 380.914C861.135 380.081 861.432 378.863 861.432 377.262V376.52ZM869.566 369.781L873.668 380.68L877.76 369.781H880.953V384H878.492V379.312L878.736 373.043L874.537 384H872.77L868.58 373.053L868.824 379.312V384H866.363V369.781H869.566Z" fill="#FFC739"/>
<path d="M625.084 449.52L628.355 442.781H631.09L626.324 451.766V457H623.844V451.766L619.068 442.781H621.812L625.084 449.52ZM643.688 450.262C643.688 451.655 643.447 452.879 642.965 453.934C642.483 454.982 641.793 455.789 640.895 456.355C640.003 456.915 638.974 457.195 637.809 457.195C636.656 457.195 635.628 456.915 634.723 456.355C633.824 455.789 633.128 454.985 632.633 453.943C632.145 452.902 631.897 451.701 631.891 450.34V449.539C631.891 448.152 632.135 446.928 632.623 445.867C633.118 444.806 633.811 443.995 634.703 443.436C635.602 442.869 636.63 442.586 637.789 442.586C638.948 442.586 639.973 442.866 640.865 443.426C641.764 443.979 642.457 444.78 642.945 445.828C643.434 446.87 643.681 448.084 643.688 449.471V450.262ZM641.217 449.52C641.217 447.944 640.917 446.736 640.318 445.896C639.726 445.057 638.883 444.637 637.789 444.637C636.721 444.637 635.885 445.057 635.279 445.896C634.68 446.73 634.374 447.911 634.361 449.441V450.262C634.361 451.824 634.664 453.032 635.27 453.885C635.882 454.738 636.728 455.164 637.809 455.164C638.902 455.164 639.742 454.747 640.328 453.914C640.921 453.081 641.217 451.863 641.217 450.262V449.52ZM656.549 442.781V452.283C656.549 453.794 656.064 454.992 655.094 455.877C654.13 456.756 652.844 457.195 651.236 457.195C649.609 457.195 648.316 456.762 647.359 455.896C646.402 455.024 645.924 453.816 645.924 452.273V442.781H648.385V452.293C648.385 453.243 648.626 453.969 649.107 454.471C649.589 454.972 650.299 455.223 651.236 455.223C653.137 455.223 654.088 454.22 654.088 452.215V442.781H656.549ZM664.42 451.521H661.666V457H659.195V442.781H664.195C665.836 442.781 667.102 443.149 667.994 443.885C668.886 444.62 669.332 445.685 669.332 447.078C669.332 448.029 669.101 448.826 668.639 449.471C668.183 450.109 667.545 450.6 666.725 450.945L669.918 456.873V457H667.271L664.42 451.521ZM661.666 449.539H664.205C665.038 449.539 665.689 449.331 666.158 448.914C666.627 448.491 666.861 447.915 666.861 447.186C666.861 446.424 666.643 445.835 666.207 445.418C665.777 445.001 665.133 444.786 664.273 444.773H661.666V449.539ZM684.615 453.689H679.107L677.955 457H675.387L680.758 442.781H682.975L688.355 457H685.777L684.615 453.689ZM679.801 451.697H683.922L681.861 445.799L679.801 451.697ZM689.977 457V442.781H694.176C695.432 442.781 696.546 443.061 697.516 443.621C698.492 444.181 699.247 444.975 699.781 446.004C700.315 447.033 700.582 448.211 700.582 449.539V450.252C700.582 451.6 700.312 452.785 699.771 453.807C699.238 454.829 698.473 455.617 697.477 456.17C696.487 456.723 695.351 457 694.068 457H689.977ZM692.447 444.773V455.027H694.059C695.354 455.027 696.347 454.624 697.037 453.816C697.734 453.003 698.089 451.837 698.102 450.32V449.529C698.102 447.986 697.766 446.808 697.096 445.994C696.425 445.18 695.452 444.773 694.176 444.773H692.447ZM703.043 457V442.781H707.242C708.499 442.781 709.612 443.061 710.582 443.621C711.559 444.181 712.314 444.975 712.848 446.004C713.382 447.033 713.648 448.211 713.648 449.539V450.252C713.648 451.6 713.378 452.785 712.838 453.807C712.304 454.829 711.539 455.617 710.543 456.17C709.553 456.723 708.417 457 707.135 457H703.043ZM705.514 444.773V455.027H707.125C708.421 455.027 709.413 454.624 710.104 453.816C710.8 453.003 711.155 451.837 711.168 450.32V449.529C711.168 447.986 710.833 446.808 710.162 445.994C709.492 445.18 708.518 444.773 707.242 444.773H705.514ZM721.334 451.521H718.58V457H716.109V442.781H721.109C722.75 442.781 724.016 443.149 724.908 443.885C725.8 444.62 726.246 445.685 726.246 447.078C726.246 448.029 726.015 448.826 725.553 449.471C725.097 450.109 724.459 450.6 723.639 450.945L726.832 456.873V457H724.186L721.334 451.521ZM718.58 449.539H721.119C721.952 449.539 722.604 449.331 723.072 448.914C723.541 448.491 723.775 447.915 723.775 447.186C723.775 446.424 723.557 445.835 723.121 445.418C722.691 445.001 722.047 444.786 721.188 444.773H718.58V449.539ZM736.9 450.652H731.061V455.027H737.887V457H728.59V442.781H737.818V444.773H731.061V448.699H736.9V450.652ZM747.33 453.338C747.33 452.713 747.109 452.231 746.666 451.893C746.23 451.554 745.439 451.212 744.293 450.867C743.147 450.522 742.236 450.138 741.559 449.715C740.263 448.901 739.615 447.84 739.615 446.531C739.615 445.385 740.081 444.441 741.012 443.699C741.949 442.957 743.163 442.586 744.654 442.586C745.644 442.586 746.526 442.768 747.301 443.133C748.076 443.497 748.684 444.018 749.127 444.695C749.57 445.366 749.791 446.111 749.791 446.932H747.33C747.33 446.189 747.096 445.61 746.627 445.193C746.165 444.77 745.501 444.559 744.635 444.559C743.827 444.559 743.199 444.731 742.75 445.076C742.307 445.421 742.086 445.903 742.086 446.521C742.086 447.042 742.327 447.479 742.809 447.83C743.29 448.175 744.085 448.514 745.191 448.846C746.298 449.171 747.187 449.546 747.857 449.969C748.528 450.385 749.02 450.867 749.332 451.414C749.645 451.954 749.801 452.589 749.801 453.318C749.801 454.503 749.345 455.447 748.434 456.15C747.529 456.847 746.298 457.195 744.742 457.195C743.714 457.195 742.766 457.007 741.9 456.629C741.041 456.245 740.37 455.717 739.889 455.047C739.413 454.376 739.176 453.595 739.176 452.703H741.646C741.646 453.51 741.913 454.135 742.447 454.578C742.981 455.021 743.746 455.242 744.742 455.242C745.602 455.242 746.246 455.07 746.676 454.725C747.112 454.373 747.33 453.911 747.33 453.338ZM759.4 453.338C759.4 452.713 759.179 452.231 758.736 451.893C758.3 451.554 757.509 451.212 756.363 450.867C755.217 450.522 754.306 450.138 753.629 449.715C752.333 448.901 751.686 447.84 751.686 446.531C751.686 445.385 752.151 444.441 753.082 443.699C754.02 442.957 755.234 442.586 756.725 442.586C757.714 442.586 758.596 442.768 759.371 443.133C760.146 443.497 760.755 444.018 761.197 444.695C761.64 445.366 761.861 446.111 761.861 446.932H759.4C759.4 446.189 759.166 445.61 758.697 445.193C758.235 444.77 757.571 444.559 756.705 444.559C755.898 444.559 755.27 444.731 754.82 445.076C754.378 445.421 754.156 445.903 754.156 446.521C754.156 447.042 754.397 447.479 754.879 447.83C755.361 448.175 756.155 448.514 757.262 448.846C758.368 449.171 759.257 449.546 759.928 449.969C760.598 450.385 761.09 450.867 761.402 451.414C761.715 451.954 761.871 452.589 761.871 453.318C761.871 454.503 761.415 455.447 760.504 456.15C759.599 456.847 758.368 457.195 756.812 457.195C755.784 457.195 754.837 457.007 753.971 456.629C753.111 456.245 752.441 455.717 751.959 455.047C751.484 454.376 751.246 453.595 751.246 452.703H753.717C753.717 453.51 753.984 454.135 754.518 454.578C755.051 455.021 755.816 455.242 756.812 455.242C757.672 455.242 758.316 455.07 758.746 454.725C759.182 454.373 759.4 453.911 759.4 453.338ZM631.295 475.371C631.152 476.888 630.592 478.073 629.615 478.926C628.639 479.772 627.34 480.195 625.719 480.195C624.586 480.195 623.587 479.928 622.721 479.395C621.861 478.854 621.197 478.089 620.729 477.1C620.26 476.11 620.016 474.961 619.996 473.652V472.324C619.996 470.983 620.234 469.801 620.709 468.779C621.184 467.757 621.865 466.969 622.75 466.416C623.642 465.863 624.671 465.586 625.836 465.586C627.405 465.586 628.668 466.012 629.625 466.865C630.582 467.718 631.139 468.923 631.295 470.479H628.834C628.717 469.456 628.417 468.721 627.936 468.271C627.46 467.816 626.76 467.588 625.836 467.588C624.762 467.588 623.935 467.982 623.355 468.77C622.783 469.551 622.49 470.7 622.477 472.217V473.477C622.477 475.013 622.75 476.185 623.297 476.992C623.85 477.799 624.658 478.203 625.719 478.203C626.689 478.203 627.418 477.985 627.906 477.549C628.395 477.113 628.704 476.387 628.834 475.371H631.295ZM644.801 480H642.34V473.682H635.982V480H633.512V465.781H635.982V471.699H642.34V465.781H644.801V480ZM655.865 476.689H650.357L649.205 480H646.637L652.008 465.781H654.225L659.605 480H657.027L655.865 476.689ZM651.051 474.697H655.172L653.111 468.799L651.051 474.697ZM665.475 476.904L669.088 465.781H671.803L666.686 480H664.293L659.195 465.781H661.9L665.475 476.904ZM684.127 475.371C683.984 476.888 683.424 478.073 682.447 478.926C681.471 479.772 680.172 480.195 678.551 480.195C677.418 480.195 676.419 479.928 675.553 479.395C674.693 478.854 674.029 478.089 673.561 477.1C673.092 476.11 672.848 474.961 672.828 473.652V472.324C672.828 470.983 673.066 469.801 673.541 468.779C674.016 467.757 674.697 466.969 675.582 466.416C676.474 465.863 677.503 465.586 678.668 465.586C680.237 465.586 681.5 466.012 682.457 466.865C683.414 467.718 683.971 468.923 684.127 470.479H681.666C681.549 469.456 681.249 468.721 680.768 468.271C680.292 467.816 679.592 467.588 678.668 467.588C677.594 467.588 676.767 467.982 676.188 468.77C675.615 469.551 675.322 470.7 675.309 472.217V473.477C675.309 475.013 675.582 476.185 676.129 476.992C676.682 477.799 677.49 478.203 678.551 478.203C679.521 478.203 680.25 477.985 680.738 477.549C681.227 477.113 681.536 476.387 681.666 475.371H684.127ZM697.633 480H695.172V473.682H688.814V480H686.344V465.781H688.814V471.699H695.172V465.781H697.633V480ZM708.697 476.689H703.189L702.037 480H699.469L704.84 465.781H707.057L712.438 480H709.859L708.697 476.689ZM703.883 474.697H708.004L705.943 468.799L703.883 474.697ZM718.307 476.904L721.92 465.781H724.635L719.518 480H717.125L712.027 465.781H714.732L718.307 476.904ZM733.463 476.689H727.955L726.803 480H724.234L729.605 465.781H731.822L737.203 480H734.625L733.463 476.689ZM728.648 474.697H732.77L730.709 468.799L728.648 474.697ZM738.824 480V465.781H743.023C744.28 465.781 745.393 466.061 746.363 466.621C747.34 467.181 748.095 467.975 748.629 469.004C749.163 470.033 749.43 471.211 749.43 472.539V473.252C749.43 474.6 749.16 475.785 748.619 476.807C748.085 477.829 747.32 478.617 746.324 479.17C745.335 479.723 744.199 480 742.916 480H738.824ZM741.295 467.773V478.027H742.906C744.202 478.027 745.195 477.624 745.885 476.816C746.581 476.003 746.936 474.837 746.949 473.32V472.529C746.949 470.986 746.614 469.808 745.943 468.994C745.273 468.18 744.299 467.773 743.023 467.773H741.295ZM760.201 473.652H754.361V478.027H761.188V480H751.891V465.781H761.119V467.773H754.361V471.699H760.201V473.652ZM775.611 476.338C775.611 475.713 775.39 475.231 774.947 474.893C774.511 474.554 773.72 474.212 772.574 473.867C771.428 473.522 770.517 473.138 769.84 472.715C768.544 471.901 767.896 470.84 767.896 469.531C767.896 468.385 768.362 467.441 769.293 466.699C770.23 465.957 771.445 465.586 772.936 465.586C773.925 465.586 774.807 465.768 775.582 466.133C776.357 466.497 776.965 467.018 777.408 467.695C777.851 468.366 778.072 469.111 778.072 469.932H775.611C775.611 469.189 775.377 468.61 774.908 468.193C774.446 467.77 773.782 467.559 772.916 467.559C772.109 467.559 771.48 467.731 771.031 468.076C770.589 468.421 770.367 468.903 770.367 469.521C770.367 470.042 770.608 470.479 771.09 470.83C771.572 471.175 772.366 471.514 773.473 471.846C774.579 472.171 775.468 472.546 776.139 472.969C776.809 473.385 777.301 473.867 777.613 474.414C777.926 474.954 778.082 475.589 778.082 476.318C778.082 477.503 777.626 478.447 776.715 479.15C775.81 479.847 774.579 480.195 773.023 480.195C771.995 480.195 771.048 480.007 770.182 479.629C769.322 479.245 768.652 478.717 768.17 478.047C767.695 477.376 767.457 476.595 767.457 475.703H769.928C769.928 476.51 770.195 477.135 770.729 477.578C771.262 478.021 772.027 478.242 773.023 478.242C773.883 478.242 774.527 478.07 774.957 477.725C775.393 477.373 775.611 476.911 775.611 476.338ZM790.523 467.773H786.09V480H783.639V467.773H779.244V465.781H790.523V467.773ZM797.623 474.521H794.869V480H792.398V465.781H797.398C799.039 465.781 800.305 466.149 801.197 466.885C802.089 467.62 802.535 468.685 802.535 470.078C802.535 471.029 802.304 471.826 801.842 472.471C801.386 473.109 800.748 473.6 799.928 473.945L803.121 479.873V480H800.475L797.623 474.521ZM794.869 472.539H797.408C798.242 472.539 798.893 472.331 799.361 471.914C799.83 471.491 800.064 470.915 800.064 470.186C800.064 469.424 799.846 468.835 799.41 468.418C798.98 468.001 798.336 467.786 797.477 467.773H794.869V472.539ZM813.189 473.652H807.35V478.027H814.176V480H804.879V465.781H814.107V467.773H807.35V471.699H813.189V473.652ZM824.498 473.652H818.658V478.027H825.484V480H816.188V465.781H825.416V467.773H818.658V471.699H824.498V473.652ZM837.965 467.773H833.531V480H831.08V467.773H826.686V465.781H837.965V467.773ZM853.414 480H843.854V478.369L848.59 473.203C849.273 472.441 849.758 471.807 850.045 471.299C850.338 470.785 850.484 470.27 850.484 469.756C850.484 469.079 850.292 468.532 849.908 468.115C849.531 467.699 849.02 467.49 848.375 467.49C847.607 467.49 847.011 467.725 846.588 468.193C846.165 468.662 845.953 469.303 845.953 470.117H843.58C843.58 469.251 843.775 468.473 844.166 467.783C844.563 467.087 845.126 466.546 845.855 466.162C846.591 465.778 847.438 465.586 848.395 465.586C849.775 465.586 850.862 465.934 851.656 466.631C852.457 467.321 852.857 468.278 852.857 469.502C852.857 470.212 852.656 470.957 852.252 471.738C851.855 472.513 851.201 473.395 850.289 474.385L846.812 478.105H853.414V480ZM861.646 480H859.283V468.584L855.797 469.775V467.773L861.344 465.732H861.646V480ZM876.148 480H866.588V478.369L871.324 473.203C872.008 472.441 872.493 471.807 872.779 471.299C873.072 470.785 873.219 470.27 873.219 469.756C873.219 469.079 873.027 468.532 872.643 468.115C872.265 467.699 871.754 467.49 871.109 467.49C870.341 467.49 869.745 467.725 869.322 468.193C868.899 468.662 868.688 469.303 868.688 470.117H866.314C866.314 469.251 866.51 468.473 866.9 467.783C867.298 467.087 867.861 466.546 868.59 466.162C869.326 465.778 870.172 465.586 871.129 465.586C872.509 465.586 873.596 465.934 874.391 466.631C875.191 467.321 875.592 468.278 875.592 469.502C875.592 470.212 875.39 470.957 874.986 471.738C874.589 472.513 873.935 473.395 873.023 474.385L869.547 478.105H876.148V480ZM891.275 476.689H885.768L884.615 480H882.047L887.418 465.781H889.635L895.016 480H892.438L891.275 476.689ZM886.461 474.697H890.582L888.521 468.799L886.461 474.697ZM900.885 476.904L904.498 465.781H907.213L902.096 480H899.703L894.605 465.781H897.311L900.885 476.904ZM917.135 473.652H911.295V478.027H918.121V480H908.824V465.781H918.053V467.773H911.295V471.699H917.135V473.652Z" fill="#FFC739"/>
<path d="M536.001 274.321L538.585 271.736C538.933 271.393 539.373 271.157 539.852 271.059C540.331 270.961 540.828 271.004 541.283 271.183L544.432 272.44C544.891 272.627 545.286 272.946 545.565 273.356C545.844 273.767 545.995 274.251 546 274.748V280.516C545.997 280.854 545.926 281.188 545.791 281.497C545.656 281.807 545.46 282.086 545.214 282.318C544.969 282.55 544.679 282.729 544.362 282.846C544.045 282.963 543.708 283.014 543.371 282.997C521.309 281.624 516.857 262.934 516.015 255.781C515.976 255.429 516.012 255.074 516.12 254.737C516.228 254.401 516.406 254.091 516.643 253.828C516.879 253.566 517.169 253.356 517.492 253.213C517.815 253.071 518.165 252.998 518.518 253H524.088C524.585 253.002 525.07 253.152 525.482 253.431C525.893 253.711 526.211 254.107 526.395 254.569L527.652 257.719C527.837 258.172 527.884 258.67 527.787 259.15C527.691 259.63 527.455 260.072 527.11 260.418L524.526 263.003C524.526 263.003 526.014 273.075 536.001 274.321Z" fill="#1D191A"/>
<path d="M544.241 347.759C542.439 345.94 540.296 344.495 537.935 343.507C535.574 342.518 533.04 342.006 530.48 342C527.92 341.994 525.384 342.493 523.018 343.47C520.652 344.447 518.502 345.881 516.692 347.692C514.881 349.502 513.447 351.652 512.47 354.018C511.493 356.384 510.994 358.92 511 361.48C511.006 364.04 511.518 366.574 512.507 368.935C513.495 371.296 514.94 373.439 516.759 375.241C518.561 377.06 520.704 378.505 523.065 379.493C525.426 380.482 527.96 380.994 530.52 381C533.08 381.006 535.616 380.507 537.982 379.53C540.348 378.553 542.498 377.119 544.308 375.308C546.119 373.498 547.553 371.348 548.53 368.982C549.507 366.616 550.006 364.08 550 361.52C549.994 358.96 549.482 356.426 548.493 354.065C547.505 351.704 546.06 349.561 544.241 347.759ZM513.844 361.5C513.843 360.026 514.039 358.558 514.425 357.136C515.062 358.506 515.986 359.69 516.615 361.097C517.428 362.905 519.611 362.403 520.575 363.987C521.43 365.393 520.517 367.172 521.157 368.643C521.622 369.711 522.718 369.944 523.475 370.725C524.248 371.513 524.231 372.592 524.349 373.619C524.482 374.826 524.698 376.022 524.996 377.199C524.996 377.208 524.996 377.218 525.003 377.226C518.511 374.947 513.844 368.759 513.844 361.5ZM530.5 378.156C529.57 378.156 528.641 378.078 527.724 377.924C527.733 377.689 527.738 377.469 527.761 377.317C527.972 375.937 528.663 374.588 529.594 373.556C530.515 372.537 531.776 371.849 532.553 370.693C533.315 369.565 533.543 368.047 533.229 366.729C532.767 364.783 530.122 364.133 528.696 363.077C527.876 362.47 527.146 361.531 526.07 361.455C525.573 361.42 525.158 361.527 524.666 361.4C524.215 361.283 523.861 361.04 523.38 361.104C522.482 361.222 521.916 362.181 520.951 362.051C520.036 361.929 519.093 360.857 518.885 359.985C518.618 358.864 519.504 358.501 520.454 358.401C520.851 358.36 521.296 358.314 521.676 358.46C522.178 358.646 522.415 359.137 522.865 359.385C523.709 359.848 523.88 359.108 523.751 358.359C523.557 357.236 523.332 356.779 524.333 356.006C525.027 355.473 525.62 355.088 525.509 354.131C525.443 353.569 525.135 353.315 525.422 352.755C525.64 352.329 526.238 351.945 526.627 351.691C527.633 351.035 530.935 351.084 529.586 349.248C529.189 348.709 528.458 347.746 527.764 347.615C526.896 347.451 526.511 348.419 525.907 348.846C525.282 349.287 524.066 349.789 523.44 349.106C522.599 348.187 523.998 347.886 524.308 347.244C524.451 346.945 524.308 346.529 524.067 346.138C524.379 346.006 524.697 345.884 525.021 345.771C525.223 345.921 525.464 346.011 525.715 346.031C526.295 346.069 526.843 345.755 527.349 346.151C527.911 346.585 528.316 347.133 529.063 347.268C529.784 347.399 530.549 346.979 530.727 346.24C530.836 345.79 530.727 345.316 530.623 344.851C533.868 344.87 537.035 345.842 539.732 347.646C539.559 347.58 539.351 347.588 539.095 347.706C538.569 347.951 537.823 348.574 537.761 349.192C537.691 349.893 538.725 349.992 539.216 349.992C539.953 349.992 540.7 349.662 540.463 348.81C540.359 348.44 540.219 348.056 539.992 347.824C540.537 348.201 541.058 348.611 541.554 349.05C541.546 349.058 541.538 349.065 541.53 349.074C541.031 349.594 540.45 350.006 540.109 350.64C539.867 351.085 539.596 351.297 539.107 351.413C538.839 351.476 538.531 351.499 538.306 351.68C537.678 352.174 538.035 353.363 538.63 353.719C539.382 354.169 540.498 353.958 541.065 353.315C541.509 352.812 541.77 351.938 542.567 351.939C542.918 351.938 543.255 352.076 543.506 352.322C543.835 352.663 543.77 352.983 543.841 353.41C543.965 354.168 544.634 353.757 545.04 353.374C545.337 353.902 545.605 354.445 545.842 355.002C545.394 355.647 545.039 356.35 543.962 355.598C543.318 355.148 542.921 354.495 542.112 354.292C541.405 354.118 540.68 354.299 539.982 354.419C539.188 354.557 538.247 354.618 537.645 355.219C537.063 355.799 536.755 356.574 536.135 357.156C534.937 358.284 534.432 359.515 535.207 361.11C535.953 362.643 537.514 363.474 539.198 363.365C540.852 363.255 542.571 362.296 542.523 364.699C542.506 365.55 542.683 366.139 542.945 366.93C543.187 367.658 543.17 368.365 543.226 369.117C543.278 369.998 543.416 370.871 543.637 371.725C542.082 373.727 540.09 375.348 537.813 376.462C535.536 377.577 533.035 378.156 530.5 378.156Z" fill="#1D191A"/>
<path d="M538.983 466.943C538.983 466.116 538.944 465.34 538.864 464.614C538.785 463.889 538.633 463.16 538.41 462.427C538.186 461.694 537.901 461.071 537.555 460.556C537.209 460.04 536.748 459.62 536.171 459.293C535.594 458.967 534.938 458.804 534.202 458.804C534.115 458.862 533.874 459.01 533.477 459.25C533.081 459.489 532.774 459.667 532.558 459.783C532.341 459.899 532.049 460.044 531.681 460.218C531.314 460.392 530.96 460.516 530.621 460.588C530.282 460.661 529.947 460.697 529.615 460.697C529.284 460.697 528.948 460.661 528.609 460.588C528.27 460.516 527.917 460.392 527.549 460.218C527.181 460.044 526.889 459.899 526.673 459.783C526.457 459.667 526.15 459.489 525.754 459.25C525.357 459.01 525.115 458.862 525.029 458.804C524.293 458.804 523.637 458.967 523.06 459.293C522.483 459.62 522.022 460.04 521.675 460.556C521.329 461.071 521.044 461.694 520.821 462.427C520.597 463.16 520.446 463.889 520.367 464.614C520.287 465.34 520.248 466.116 520.248 466.943C520.248 468.002 520.55 468.884 521.156 469.587C521.762 470.291 522.505 470.643 523.385 470.643H535.846C536.726 470.643 537.469 470.291 538.075 469.587C538.68 468.884 538.983 468.002 538.983 466.943ZM535.24 454.016C535.24 452.449 534.689 451.114 533.585 450.011C532.482 448.908 531.159 448.357 529.615 448.357C528.072 448.357 526.749 448.908 525.645 450.011C524.542 451.114 523.99 452.449 523.99 454.016C523.99 455.568 524.542 456.896 525.645 457.998C526.749 459.101 528.072 459.652 529.615 459.652C531.159 459.652 532.482 459.101 533.585 457.998C534.689 456.896 535.24 455.568 535.24 454.016ZM549 465.768V469.946C549 470.15 548.935 470.316 548.805 470.447C548.675 470.578 548.51 470.643 548.308 470.643H546.231V475.518C546.231 476.475 545.892 477.295 545.214 477.977C544.536 478.659 543.721 479 542.769 479H516.462C515.51 479 514.695 478.659 514.017 477.977C513.339 477.295 513 476.475 513 475.518V443.482C513 442.525 513.339 441.705 514.017 441.023C514.695 440.341 515.51 440 516.462 440H542.769C543.721 440 544.536 440.341 545.214 441.023C545.892 441.705 546.231 442.525 546.231 443.482V448.357H548.308C548.51 448.357 548.675 448.422 548.805 448.553C548.935 448.684 549 448.85 549 449.054V453.232C549 453.435 548.935 453.602 548.805 453.733C548.675 453.863 548.51 453.929 548.308 453.929H546.231V456.714H548.308C548.51 456.714 548.675 456.78 548.805 456.91C548.935 457.041 549 457.208 549 457.411V461.589C549 461.792 548.935 461.959 548.805 462.09C548.675 462.22 548.51 462.286 548.308 462.286H546.231V465.071H548.308C548.51 465.071 548.675 465.137 548.805 465.267C548.935 465.398 549 465.565 549 465.768Z" fill="#1D191A"/>
<path d="M357.85 277.661V351.472C357.847 357.022 356.385 362.474 353.61 367.281C350.836 372.088 346.847 376.081 342.042 378.86L337.149 381.678L337.123 381.704H337.098C337.072 381.704 337.047 381.73 336.995 381.755L265.233 423.183C260.421 425.953 254.965 427.41 249.413 427.41C243.86 427.41 238.405 425.953 233.592 423.183L156.834 378.86C151.471 375.767 147.139 371.159 144.383 365.615C144.355 365.56 144.32 365.508 144.28 365.461C144.27 365.431 144.252 365.405 144.229 365.384V365.358C144.215 365.345 144.205 365.327 144.204 365.307C142.097 360.999 141.002 356.267 141.001 351.472V278.737C140.989 277.364 141.092 275.993 141.308 274.637C154.634 300.892 176.999 321.447 204.283 332.513V333.18L236.872 352.01C240.693 354.213 245.027 355.373 249.438 355.373C253.85 355.373 258.183 354.213 262.005 352.01L294.594 333.18V333C321.743 322.316 344.173 302.268 357.824 276.482C357.85 276.892 357.85 277.264 357.85 277.661Z" fill="#1D191A"/>
<path d="M204.283 277.66V332.513C176.999 321.446 154.634 300.891 141.308 274.637C141.46 273.334 141.691 272.042 142 270.768C142.779 267.548 144.04 264.465 145.741 261.622C148.293 257.209 151.884 253.486 156.201 250.776C160.519 248.066 165.432 246.451 170.515 246.07C174.841 245.782 179.18 246.385 183.262 247.842C187.345 249.299 191.085 251.579 194.251 254.54C197.417 257.502 199.941 261.082 201.667 265.059C203.392 269.036 204.282 273.325 204.283 277.66Z" fill="url(#paint0_linear)"/>
<path d="M357.824 276.494C344.172 302.279 321.743 322.327 294.593 333.012V278.748C294.496 270.583 297.484 262.682 302.961 256.626C308.438 250.569 316 246.804 324.133 246.083C329.896 245.691 335.656 246.888 340.786 249.541C340.793 249.541 340.8 249.544 340.804 249.549C340.809 249.554 340.812 249.56 340.812 249.567C340.835 249.581 340.862 249.589 340.889 249.593C345.051 251.783 348.674 254.871 351.496 258.632C354.318 262.394 356.27 266.736 357.209 271.344C357.559 273.04 357.764 274.763 357.824 276.494Z" fill="url(#paint1_linear)"/>
<g style="mix-blend-mode:multiply" opacity="0.08">
<g style="mix-blend-mode:multiply" opacity="0.08">
<path d="M204.283 307.391V332.524C176.999 321.458 154.634 300.903 141.308 274.648C141.46 273.346 141.691 272.054 142 270.78C155.297 280.566 179.034 296.682 204.283 307.391Z" fill="black"/>
</g>
</g>
<g style="mix-blend-mode:multiply" opacity="0.08">
<g style="mix-blend-mode:multiply" opacity="0.08">
<path d="M357.824 276.494C344.173 302.28 321.743 322.328 294.594 333.013V307.495C316.706 297.733 337.699 285.613 357.209 271.345C357.559 273.041 357.765 274.764 357.824 276.494Z" fill="black"/>
</g>
</g>
<g style="mix-blend-mode:screen" opacity="0.4">
<g style="mix-blend-mode:screen" opacity="0.4">
<path d="M350.163 351.383V351.485C350.152 355.684 349.042 359.806 346.943 363.443C344.844 367.079 341.829 370.102 338.199 372.212L261.39 416.534C257.746 418.633 253.616 419.737 249.412 419.737C245.208 419.737 241.078 418.633 237.435 416.534L177.74 382.075L177.535 381.947L160.677 372.212C157.323 370.269 154.488 367.544 152.414 364.27C150.339 360.996 149.087 357.269 148.763 353.406C177.306 373.751 211.408 384.838 246.457 385.168C281.506 385.498 315.812 375.055 344.732 355.251L344.988 355.072L345.116 354.995C346.846 353.816 348.498 352.612 350.163 351.383Z" fill="white"/>
</g>
</g>
<g style="mix-blend-mode:screen" opacity="0.6">
<g style="mix-blend-mode:screen" opacity="0.6">
<path d="M144.23 365.369C144.256 365.395 144.256 365.421 144.282 365.472C144.271 365.443 144.253 365.416 144.23 365.395V365.369Z" fill="white"/>
</g>
</g>
<g style="mix-blend-mode:multiply" opacity="0.25">
<g style="mix-blend-mode:multiply" opacity="0.25">
<path d="M336.996 381.765L265.234 423.193C260.421 425.962 254.966 427.42 249.413 427.42C243.861 427.42 238.405 425.962 233.593 423.193L156.835 378.87C151.471 375.776 147.14 371.168 144.384 365.624C144.589 365.983 144.973 366.598 145.536 367.443C146.882 369.361 148.418 371.138 150.122 372.746C152.756 375.2 155.766 377.216 159.038 378.716C162.83 380.663 167.109 382.866 171.72 385.352C181.02 390.219 191.781 396.035 203.233 402.389C208.946 405.591 214.89 408.82 220.86 412.253C223.857 413.969 226.855 415.686 229.878 417.402L234.413 419.99C235.792 420.806 237.231 421.517 238.717 422.116C244.549 424.538 251.023 424.944 257.112 423.269C260.151 422.397 263.056 421.113 265.746 419.452C268.693 417.812 271.588 416.198 274.457 414.61C285.935 408.256 296.695 402.44 305.97 397.572C323.366 388.336 335.536 382.444 336.996 381.765Z" fill="black"/>
</g>
</g>
<g style="mix-blend-mode:multiply" opacity="0.25">
<g style="mix-blend-mode:multiply" opacity="0.25">
<path d="M357.824 276.492L355.442 281.36L352.828 286.151L349.985 290.788L346.91 295.297L343.605 299.653L340.121 303.88L336.406 307.928L332.512 311.797L328.438 315.486L324.185 318.996L319.778 322.301L315.218 325.401L310.504 328.296L305.662 330.986L300.691 333.42L297.079 334.983L296.003 335.623C288.727 339.953 281.476 344.334 274.149 348.587L263.107 354.992C258.923 357.326 254.216 358.56 249.425 358.579C247.039 358.568 244.664 358.258 242.354 357.657C241.206 357.347 240.077 356.97 238.972 356.53C237.883 356.091 236.822 355.587 235.795 355.018L224.728 348.587C217.4 344.334 210.15 339.953 202.874 335.649L201.439 334.804V334.342L198.108 332.856L193.138 330.346L188.296 327.579L183.582 324.607L179.021 321.404L174.589 318.022L170.362 314.436L166.314 310.644L162.445 306.698L158.756 302.548L155.297 298.244L152.018 293.811L148.994 289.2L146.176 284.486L143.614 279.618L141.308 274.647L144.152 279.336L147.175 283.845L150.378 288.252L153.734 292.505L157.27 296.604L160.959 300.549L164.828 304.316L168.799 307.928L172.949 311.361L177.253 314.589L181.634 317.664L186.169 320.508L190.806 323.172L195.572 325.632L200.414 327.886L204.283 329.475V333.19L236.872 352.02C240.693 354.223 245.027 355.383 249.438 355.383C253.85 355.383 258.183 354.223 262.005 352.02L294.594 333.19V329.987L298.488 328.424L303.305 326.246L308.044 323.889L312.682 321.302L317.191 318.509L321.597 315.537L325.902 312.386L330.052 309.055L334.049 305.52L337.917 301.83L341.658 297.987L345.219 293.965L348.627 289.815L351.855 285.51L354.929 281.053L357.824 276.492Z" fill="black"/>
</g>
</g>
<g style="mix-blend-mode:screen" opacity="0.4">
<g style="mix-blend-mode:screen" opacity="0.4">
<path d="M344.732 355.249L339.813 358.81L334.33 362.397C330.59 364.703 326.789 366.872 322.929 368.905C319.035 370.929 315.055 372.773 310.99 374.439C306.925 376.104 302.809 377.624 298.641 378.999C290.289 381.764 281.719 383.821 273.021 385.148C268.666 385.84 264.285 386.326 259.878 386.66C255.394 387.018 251.141 387.146 246.684 387.121C242.277 387.121 237.87 386.916 233.464 386.583L226.879 385.917L220.346 384.994L213.838 383.79L207.382 382.355L201.003 380.664L194.675 378.692L188.449 376.488L182.326 374.029L176.279 371.339L170.361 368.418L164.596 365.215L158.934 361.808L153.426 358.196L150.326 355.992C151.457 361.886 154.769 367.137 159.601 370.698C161.061 371.723 162.572 372.594 164.11 373.568L168.67 376.36L177.535 381.945L160.677 372.21C157.323 370.267 154.488 367.543 152.414 364.268C150.339 360.994 149.087 357.267 148.763 353.405C177.306 373.749 211.408 384.836 246.457 385.166C281.506 385.496 315.812 375.053 344.732 355.249Z" fill="white"/>
</g>
</g>
<g style="mix-blend-mode:screen" opacity="0.5">
<g style="mix-blend-mode:screen" opacity="0.5">
<path d="M204.284 277.66V302.178C204.284 302.178 203.412 295.491 202.823 285.474C202.644 282.989 202.49 280.247 202.362 277.404C202.167 274.598 201.625 271.827 200.748 269.154C198.802 263.399 195.201 258.346 190.397 254.627C187.97 252.765 185.286 251.263 182.43 250.169C179.659 249.181 176.776 248.544 173.847 248.273C173.053 248.273 172.284 248.248 171.515 248.248L170.491 248.222L169.44 248.299C168.07 248.371 166.708 248.551 165.367 248.837C162.866 249.37 160.44 250.204 158.142 251.322C154.627 253.062 151.438 255.393 148.713 258.214C147.714 259.264 146.946 260.11 146.459 260.725C146.1 261.186 145.844 261.493 145.741 261.622C148.294 257.209 151.885 253.486 156.202 250.776C160.519 248.066 165.433 246.451 170.516 246.07C174.842 245.782 179.18 246.385 183.263 247.842C187.346 249.299 191.086 251.579 194.252 254.54C197.418 257.502 199.942 261.082 201.667 265.059C203.393 269.036 204.283 273.325 204.284 277.66Z" fill="white"/>
</g>
</g>
<g style="mix-blend-mode:screen" opacity="0.5">
<g style="mix-blend-mode:screen" opacity="0.5">
<path d="M340.786 249.541C340.479 249.439 339.352 249.08 337.558 248.645C334.698 247.95 331.765 247.598 328.822 247.594C326.897 247.604 324.976 247.784 323.083 248.132C322.06 248.292 321.05 248.523 320.06 248.824C319.573 248.978 319.06 249.106 318.548 249.26C318.036 249.413 317.523 249.644 317.011 249.823C314.948 250.663 312.966 251.693 311.093 252.898C309.187 254.182 307.427 255.668 305.84 257.33C304.218 258.958 302.783 260.763 301.562 262.71C300.362 264.615 299.35 266.631 298.539 268.731C298.136 269.726 297.794 270.744 297.514 271.78C297.208 272.753 296.969 273.746 296.796 274.752C296.587 275.75 296.433 276.759 296.335 277.775L296.258 278.518C296.233 278.62 296.207 278.825 296.207 278.825L296.182 279.184C296.13 279.671 296.105 280.158 296.053 280.619C295.439 288.151 294.593 293.147 294.593 293.147V278.748C294.496 270.583 297.484 262.682 302.961 256.626C308.438 250.569 316 246.804 324.133 246.083C329.896 245.691 335.656 246.888 340.786 249.541Z" fill="white"/>
</g>
</g>
<path d="M71.5195 108.461H89.0732V111H68.4922V75.4531H71.5195V108.461ZM114.537 101.039H98.3994L94.7373 111H91.5879L105.04 75.4531H107.896L121.349 111H118.224L114.537 101.039ZM99.3271 98.4756H113.585L106.456 79.1152L99.3271 98.4756ZM146.715 102.26C146.715 100.29 146.023 98.736 144.64 97.5967C143.256 96.4411 140.725 95.3506 137.047 94.3252C133.368 93.2835 130.683 92.1523 128.99 90.9316C126.581 89.2064 125.377 86.944 125.377 84.1445C125.377 81.4264 126.492 79.221 128.722 77.5283C130.968 75.8193 133.832 74.9648 137.315 74.9648C139.675 74.9648 141.783 75.4206 143.639 76.332C145.51 77.2435 146.959 78.513 147.984 80.1406C149.01 81.7682 149.522 83.583 149.522 85.585H146.495C146.495 83.1598 145.665 81.2148 144.005 79.75C142.345 78.2689 140.115 77.5283 137.315 77.5283C134.597 77.5283 132.433 78.1387 130.821 79.3594C129.21 80.5638 128.404 82.1426 128.404 84.0957C128.404 85.9023 129.129 87.3753 130.577 88.5146C132.026 89.654 134.345 90.6631 137.535 91.542C140.725 92.4046 143.142 93.3079 144.786 94.252C146.43 95.1797 147.667 96.2946 148.497 97.5967C149.327 98.8988 149.742 100.437 149.742 102.211C149.742 105.01 148.619 107.257 146.373 108.949C144.143 110.642 141.197 111.488 137.535 111.488C135.029 111.488 132.726 111.041 130.626 110.146C128.543 109.25 126.956 107.997 125.865 106.386C124.791 104.774 124.254 102.927 124.254 100.844H127.257C127.257 103.35 128.193 105.328 130.064 106.776C131.936 108.225 134.426 108.949 137.535 108.949C140.302 108.949 142.524 108.339 144.2 107.118C145.877 105.897 146.715 104.278 146.715 102.26ZM180.357 78.0166H168.175V111H165.172V78.0166H153.014V75.4531H180.357V78.0166ZM212.584 111H209.581L189.146 80.5801V111H186.119V75.4531H189.146L209.605 105.897V75.4531H212.584V111ZM241.246 101.039H225.108L221.446 111H218.297L231.749 75.4531H234.605L248.058 111H244.933L241.246 101.039ZM226.036 98.4756H240.294L233.165 79.1152L226.036 98.4756ZM257.286 75.4531L270.396 106.825L283.556 75.4531H287.56V111H284.557V95.5215L284.801 79.6523L271.568 111H269.249L256.065 79.7744L256.31 95.4238V111H253.307V75.4531H257.286ZM316.197 93.959H299.571V108.461H318.688V111H296.568V75.4531H318.565V78.0166H299.571V91.4199H316.197V93.959Z" fill="#1D191A"/>
<path d="M364.812 111H358.635L342.79 85.7803V111H336.613V75.4531H342.79L358.684 100.771V75.4531H364.812V111ZM392.448 102.724H378.679L375.798 111H369.377L382.805 75.4531H388.347L401.799 111H395.354L392.448 102.724ZM380.412 97.7432H390.715L385.563 82.9971L380.412 97.7432ZM413.859 75.4531L424.113 102.699L434.343 75.4531H442.326V111H436.174V99.2812L436.784 83.6074L426.286 111H421.867L411.394 83.6318L412.004 99.2812V111H405.852V75.4531H413.859ZM470.427 95.1309H455.827V106.068H472.893V111H449.65V75.4531H472.722V80.4336H455.827V90.248H470.427V95.1309Z" fill="#1D191A"/>
<path d="M244.76 149.493C242.348 148.8 240.59 147.95 239.486 146.944C238.393 145.929 237.846 144.679 237.846 143.194C237.846 141.515 238.515 140.128 239.853 139.034C241.2 137.931 242.948 137.379 245.097 137.379C246.562 137.379 247.865 137.662 249.008 138.229C250.16 138.795 251.049 139.576 251.674 140.572C252.309 141.568 252.626 142.657 252.626 143.839H249.799C249.799 142.55 249.389 141.539 248.568 140.807C247.748 140.064 246.591 139.693 245.097 139.693C243.71 139.693 242.626 140.001 241.845 140.616C241.073 141.222 240.688 142.066 240.688 143.15C240.688 144.02 241.054 144.757 241.786 145.362C242.528 145.958 243.783 146.505 245.551 147.003C247.328 147.501 248.715 148.053 249.711 148.658C250.717 149.254 251.459 149.952 251.938 150.753C252.426 151.554 252.67 152.496 252.67 153.58C252.67 155.309 251.996 156.695 250.648 157.74C249.301 158.775 247.499 159.293 245.243 159.293C243.778 159.293 242.411 159.015 241.142 158.458C239.872 157.892 238.891 157.12 238.197 156.144C237.514 155.167 237.172 154.059 237.172 152.818H239.999C239.999 154.107 240.473 155.128 241.42 155.88C242.377 156.622 243.651 156.993 245.243 156.993C246.728 156.993 247.865 156.69 248.656 156.085C249.447 155.479 249.843 154.654 249.843 153.609C249.843 152.564 249.477 151.759 248.744 151.192C248.012 150.616 246.684 150.05 244.76 149.493ZM268.065 153.434H259.13L257.123 159H254.223L262.367 137.672H264.828L272.987 159H270.102L268.065 153.434ZM259.979 151.119H267.23L263.598 141.144L259.979 151.119ZM278.686 156.7H288.793V159H275.858V137.672H278.686V156.7ZM304.057 149.142H294.813V156.7H305.551V159H292.001V137.672H305.404V139.986H294.813V146.842H304.057V149.142ZM315.336 149.493C312.924 148.8 311.166 147.95 310.062 146.944C308.969 145.929 308.422 144.679 308.422 143.194C308.422 141.515 309.091 140.128 310.429 139.034C311.776 137.931 313.524 137.379 315.673 137.379C317.138 137.379 318.441 137.662 319.584 138.229C320.736 138.795 321.625 139.576 322.25 140.572C322.885 141.568 323.202 142.657 323.202 143.839H320.375C320.375 142.55 319.965 141.539 319.145 140.807C318.324 140.064 317.167 139.693 315.673 139.693C314.286 139.693 313.202 140.001 312.421 140.616C311.649 141.222 311.264 142.066 311.264 143.15C311.264 144.02 311.63 144.757 312.362 145.362C313.104 145.958 314.359 146.505 316.127 147.003C317.904 147.501 319.291 148.053 320.287 148.658C321.293 149.254 322.035 149.952 322.514 150.753C323.002 151.554 323.246 152.496 323.246 153.58C323.246 155.309 322.572 156.695 321.225 157.74C319.877 158.775 318.075 159.293 315.819 159.293C314.354 159.293 312.987 159.015 311.718 158.458C310.448 157.892 309.467 157.12 308.773 156.144C308.09 155.167 307.748 154.059 307.748 152.818H310.575C310.575 154.107 311.049 155.128 311.996 155.88C312.953 156.622 314.228 156.993 315.819 156.993C317.304 156.993 318.441 156.69 319.232 156.085C320.023 155.479 320.419 154.654 320.419 153.609C320.419 152.564 320.053 151.759 319.32 151.192C318.588 150.616 317.26 150.05 315.336 149.493ZM337.938 137.672L344.911 155.074L351.884 137.672H355.531V159H352.719V150.694L352.982 141.729L345.98 159H343.827L336.84 141.773L337.118 150.694V159H334.306V137.672H337.938ZM372.538 153.434H363.603L361.596 159H358.695L366.84 137.672H369.301L377.46 159H374.574L372.538 153.434ZM364.452 151.119H371.703L368.07 141.144L364.452 151.119ZM396.723 159H393.896L383.158 142.564V159H380.331V137.672H383.158L393.925 154.181V137.672H396.723V159ZM413.759 153.434H404.823L402.816 159H399.916L408.061 137.672H410.521L418.681 159H415.795L413.759 153.434ZM405.673 151.119H412.924L409.291 141.144L405.673 151.119ZM437.123 156.202C436.4 157.237 435.39 158.014 434.091 158.531C432.802 159.039 431.298 159.293 429.579 159.293C427.841 159.293 426.298 158.888 424.95 158.077C423.603 157.257 422.558 156.095 421.815 154.591C421.083 153.087 420.707 151.344 420.688 149.361V147.501C420.688 144.288 421.435 141.798 422.929 140.03C424.433 138.263 426.542 137.379 429.257 137.379C431.483 137.379 433.275 137.95 434.633 139.093C435.99 140.226 436.82 141.837 437.123 143.927H434.311C433.783 141.104 432.104 139.693 429.271 139.693C427.387 139.693 425.956 140.357 424.979 141.686C424.013 143.004 423.524 144.918 423.515 147.428V149.171C423.515 151.563 424.062 153.468 425.155 154.884C426.249 156.29 427.729 156.993 429.594 156.993C430.648 156.993 431.571 156.876 432.362 156.642C433.153 156.407 433.808 156.012 434.325 155.455V150.665H429.389V148.38H437.123V156.202ZM453.881 149.142H444.638V156.7H455.375V159H441.825V137.672H455.229V139.986H444.638V146.842H453.881V149.142ZM466.698 150.372H461.688V159H458.861V137.672H465.922C468.324 137.672 470.17 138.219 471.459 139.312C472.758 140.406 473.407 141.998 473.407 144.088C473.407 145.416 473.046 146.573 472.323 147.56C471.61 148.546 470.614 149.283 469.335 149.771L474.345 158.824V159H471.327L466.698 150.372ZM461.688 148.072H466.01C467.406 148.072 468.515 147.711 469.335 146.988C470.165 146.266 470.58 145.299 470.58 144.088C470.58 142.77 470.185 141.759 469.394 141.056C468.612 140.353 467.479 139.996 465.995 139.986H461.688V148.072Z" fill="#1D191A"/>
<defs>
<linearGradient id="paint0_linear" x1="172.795" y1="247.384" x2="172.795" y2="337.271" gradientUnits="userSpaceOnUse">
<stop stop-color="#1D191A"/>
<stop offset="1" stop-color="#F8A700"/>
</linearGradient>
<linearGradient id="paint1_linear" x1="326.207" y1="247.402" x2="326.207" y2="337.275" gradientUnits="userSpaceOnUse">
<stop stop-color="#1D191A"/>
<stop offset="1" stop-color="#F8A700"/>
</linearGradient>
</defs>
</svg>
