<svg width="1050" height="600" viewBox="0 0 1050 600" fill="none" xmlns="http://www.w3.org/2000/svg">
<rect width="1050" height="600" fill="#3C3C3C"/>
<rect y="458" width="1050" height="142" fill="#DF7D10"/>
<rect y="430" width="1050" height="28" fill="#CCCBCB"/>
<path d="M632.102 111.551V185.108C632.098 190.639 630.641 196.072 627.876 200.862C625.111 205.652 621.136 209.631 616.349 212.401L611.472 215.21L611.446 215.235H611.421C611.395 215.235 611.37 215.261 611.319 215.286L539.804 256.571C535.008 259.331 529.572 260.784 524.039 260.784C518.505 260.784 513.069 259.331 508.273 256.571L431.78 212.401C426.435 209.318 422.118 204.726 419.371 199.201C419.343 199.146 419.309 199.095 419.269 199.048C419.258 199.019 419.241 198.993 419.218 198.971V198.946C419.203 198.933 419.194 198.915 419.192 198.895C417.094 194.602 416.002 189.886 416.001 185.108V112.623C415.989 111.255 416.091 109.889 416.307 108.538C429.587 134.702 451.875 155.186 479.064 166.214V166.878L511.541 185.644C515.349 187.839 519.668 188.995 524.064 188.995C528.46 188.995 532.779 187.839 536.587 185.644L569.064 166.878V166.699C596.119 156.052 618.471 136.073 632.076 110.376C632.102 110.785 632.102 111.155 632.102 111.551Z" fill="#DF7D10"/>
<path d="M479.064 111.551V166.214C451.874 155.186 429.586 134.702 416.307 108.538C416.458 107.24 416.688 105.952 416.996 104.682C417.773 101.474 419.03 98.4009 420.724 95.5676C423.267 91.1704 426.846 87.4605 431.148 84.7598C435.451 82.059 440.347 80.4492 445.413 80.0699C449.724 79.7825 454.047 80.3834 458.116 81.8354C462.185 83.2873 465.912 85.5594 469.067 88.5108C472.222 91.4622 474.737 95.0299 476.457 98.9931C478.176 102.956 479.064 107.23 479.064 111.551Z" fill="#CCCBCB"/>
<path d="M632.075 110.389C618.471 136.086 596.119 156.065 569.063 166.712V112.636C568.966 104.499 571.944 96.6255 577.402 90.5899C582.86 84.5543 590.395 80.8018 598.501 80.0831C604.244 79.6931 609.984 80.8852 615.097 83.5299C615.103 83.5299 615.11 83.5326 615.115 83.5374C615.12 83.5422 615.122 83.5487 615.122 83.5554C615.146 83.5691 615.172 83.5779 615.199 83.581C619.346 85.7637 622.957 88.8407 625.769 92.5895C628.582 96.3382 630.527 100.665 631.462 105.257C631.811 106.948 632.016 108.664 632.075 110.389Z" fill="#CCCBCB"/>
<g style="mix-blend-mode:multiply" opacity="0.08">
<g style="mix-blend-mode:multiply" opacity="0.08">
<path d="M479.064 141.179V166.226C451.874 155.197 429.586 134.714 416.307 108.55C416.458 107.252 416.688 105.964 416.996 104.694C430.247 114.447 453.902 130.507 479.064 141.179Z" fill="#DF7D10"/>
</g>
</g>
<g style="mix-blend-mode:multiply" opacity="0.08">
<g style="mix-blend-mode:multiply" opacity="0.08">
<path d="M632.076 110.39C618.471 136.086 596.119 156.065 569.063 166.713V141.283C591.099 131.555 612.02 119.477 631.463 105.258C631.812 106.948 632.016 108.665 632.076 110.39Z" fill="#DF7D10"/>
</g>
</g>
<g style="mix-blend-mode:screen" opacity="0.4">
<g style="mix-blend-mode:screen" opacity="0.4">
<path d="M624.442 185.019V185.12C624.431 189.305 623.324 193.413 621.232 197.037C619.141 200.661 616.136 203.674 612.518 205.776L535.974 249.945C532.344 252.037 528.228 253.137 524.038 253.137C519.849 253.137 515.733 252.037 512.102 249.945L452.613 215.605L452.409 215.478L435.609 205.776C432.267 203.84 429.442 201.124 427.375 197.862C425.308 194.599 424.06 190.884 423.737 187.035C452.181 207.31 486.165 218.358 521.094 218.687C556.022 219.016 590.209 208.609 619.029 188.874L619.284 188.695L619.412 188.619C621.135 187.444 622.782 186.244 624.442 185.019Z" fill="#DF7D10"/>
</g>
</g>
<g style="mix-blend-mode:screen" opacity="0.6">
<g style="mix-blend-mode:screen" opacity="0.6">
<path d="M419.218 198.957C419.244 198.982 419.244 199.008 419.269 199.059C419.259 199.03 419.241 199.004 419.218 198.982V198.957Z" fill="#DF7D10"/>
</g>
</g>
<g style="mix-blend-mode:multiply" opacity="0.25">
<g style="mix-blend-mode:multiply" opacity="0.25">
<path d="M611.319 215.296L539.804 256.581C535.008 259.341 529.572 260.793 524.038 260.793C518.505 260.793 513.068 259.341 508.273 256.581L431.779 212.411C426.434 209.328 422.118 204.736 419.371 199.211C419.575 199.568 419.958 200.181 420.52 201.024C421.861 202.935 423.392 204.706 425.09 206.309C427.714 208.754 430.714 210.763 433.975 212.258C437.754 214.198 442.018 216.394 446.613 218.87C455.881 223.721 466.605 229.517 478.017 235.849C483.711 239.04 489.634 242.257 495.583 245.679C498.57 247.389 501.558 249.1 504.57 250.811L509.09 253.389C510.464 254.202 511.898 254.911 513.379 255.508C519.191 257.922 525.643 258.326 531.711 256.657C534.739 255.788 537.634 254.508 540.315 252.853C543.251 251.219 546.136 249.611 548.996 248.028C560.434 241.696 571.157 235.9 580.4 231.049C597.736 221.845 609.863 215.973 611.319 215.296Z" fill="#DF7D10"/>
</g>
</g>
<g style="mix-blend-mode:multiply" opacity="0.25">
<g style="mix-blend-mode:multiply" opacity="0.25">
<path d="M632.075 110.388L629.701 115.239L627.097 120.014L624.263 124.635L621.199 129.128L617.905 133.469L614.433 137.682L610.731 141.716L606.85 145.571L602.791 149.247L598.552 152.745L594.161 156.039L589.616 159.128L584.918 162.013L580.093 164.694L575.14 167.12L571.54 168.677L570.467 169.315C563.216 173.63 555.991 177.996 548.689 182.234L537.685 188.617C533.516 190.943 528.825 192.173 524.051 192.192C521.673 192.18 519.305 191.871 517.004 191.273C515.86 190.964 514.734 190.588 513.634 190.149C512.548 189.713 511.491 189.21 510.468 188.643L499.438 182.234C492.136 177.996 484.911 173.63 477.66 169.341L476.23 168.498V168.039L472.911 166.558L467.958 164.056L463.132 161.298L458.434 158.337L453.89 155.145L449.473 151.775L445.26 148.201L441.226 144.422L437.371 140.49L433.694 136.354L430.247 132.065L426.979 127.648L423.966 123.052L421.158 118.354L418.605 113.503L416.307 108.55L419.141 113.222L422.154 117.716L425.345 122.107L428.69 126.345L432.213 130.43L435.89 134.362L439.745 138.116L443.702 141.716L447.839 145.137L452.128 148.354L456.494 151.418L461.013 154.252L465.634 156.907L470.383 159.358L475.209 161.605L479.064 163.188V166.89L511.54 185.656C515.349 187.851 519.667 189.006 524.063 189.006C528.46 189.006 532.778 187.851 536.587 185.656L569.063 166.89V163.698L572.944 162.141L577.744 159.971L582.467 157.622L587.089 155.043L591.582 152.26L595.974 149.298L600.263 146.158L604.399 142.839L608.382 139.316L612.237 135.639L615.965 131.809L619.514 127.801L622.91 123.665L626.127 119.375L629.19 114.933L632.075 110.388Z" fill="#DF7D10"/>
</g>
</g>
<g style="mix-blend-mode:screen" opacity="0.4">
<g style="mix-blend-mode:screen" opacity="0.4">
<path d="M619.029 188.871L614.127 192.42L608.663 195.995C604.936 198.293 601.148 200.454 597.302 202.48C593.421 204.497 589.455 206.335 585.404 207.995C581.353 209.654 577.251 211.169 573.098 212.539C564.774 215.295 556.233 217.344 547.566 218.667C543.225 219.356 538.859 219.841 534.468 220.173C530 220.531 525.762 220.658 521.319 220.633C516.928 220.633 512.536 220.429 508.145 220.097L501.583 219.433L495.073 218.514L488.587 217.314L482.153 215.884L475.796 214.199L469.49 212.233L463.286 210.037L457.183 207.586L451.158 204.905L445.26 201.995L439.515 198.803L433.873 195.408L428.384 191.808L425.294 189.612C426.422 195.486 429.722 200.719 434.537 204.267C435.992 205.288 437.498 206.156 439.03 207.127L443.575 209.91L452.409 215.476L435.609 205.773C432.267 203.837 429.442 201.122 427.375 197.859C425.308 194.596 424.06 190.882 423.737 187.033C452.181 207.307 486.165 218.356 521.094 218.685C556.022 219.014 590.209 208.607 619.029 188.871Z" fill="#DF7D10"/>
</g>
</g>
<g style="mix-blend-mode:screen" opacity="0.5">
<g style="mix-blend-mode:screen" opacity="0.5">
<path d="M479.066 111.551V135.984C479.066 135.984 478.197 129.321 477.61 119.338C477.432 116.861 477.278 114.129 477.151 111.295C476.956 108.499 476.416 105.737 475.542 103.074C473.603 97.3388 470.015 92.3032 465.227 88.5975C462.809 86.7414 460.134 85.245 457.287 84.1549C454.526 83.1704 451.653 82.5356 448.734 82.2656C447.942 82.2656 447.176 82.2401 446.41 82.2401L445.389 82.2145L444.342 82.2911C442.977 82.3625 441.62 82.5418 440.283 82.8273C437.791 83.358 435.374 84.1896 433.083 85.3039C429.58 87.0377 426.402 89.3609 423.687 92.1719C422.691 93.2187 421.925 94.0612 421.44 94.674C421.083 95.1336 420.828 95.44 420.726 95.5676C423.269 91.1704 426.847 87.4605 431.15 84.7598C435.452 82.059 440.349 80.4492 445.415 80.0699C449.725 79.7825 454.049 80.3834 458.118 81.8354C462.187 83.2873 465.914 85.5594 469.069 88.5108C472.224 91.4622 474.739 95.0299 476.458 98.9931C478.178 102.956 479.065 107.23 479.066 111.551Z" fill="#DF7D10"/>
</g>
</g>
<g style="mix-blend-mode:screen" opacity="0.5">
<g style="mix-blend-mode:screen" opacity="0.5">
<path d="M615.097 83.5299C614.79 83.4278 613.667 83.0703 611.88 82.6363C609.029 81.9442 606.107 81.5928 603.173 81.5895C601.255 81.5989 599.341 81.7783 597.454 82.1256C596.435 82.2851 595.428 82.5155 594.441 82.815C593.956 82.9682 593.446 83.0959 592.935 83.249C592.424 83.4022 591.914 83.632 591.403 83.8107C589.347 84.6481 587.373 85.6737 585.505 86.8746C583.607 88.154 581.852 89.635 580.271 91.2915C578.655 92.9143 577.225 94.7127 576.007 96.6532C574.812 98.5512 573.803 100.561 572.995 102.653C572.594 103.644 572.253 104.659 571.973 105.691C571.669 106.661 571.43 107.651 571.259 108.653C571.05 109.648 570.897 110.654 570.799 111.666L570.722 112.406C570.697 112.508 570.671 112.713 570.671 112.713L570.646 113.07C570.595 113.555 570.569 114.04 570.518 114.5C569.905 122.006 569.063 126.985 569.063 126.985V112.636C568.966 104.499 571.944 96.6255 577.402 90.5899C582.86 84.5543 590.395 80.8018 598.501 80.0831C604.244 79.6931 609.984 80.8852 615.097 83.5299Z" fill="#DF7D10"/>
</g>
</g>
<path d="M417 281H632" stroke="white" stroke-width="5"/>
<path d="M436.9 297.25L427.4 318.75V330H423.15V318.75L413.65 297.25H418.5L425.3 314.25L432.15 297.25H436.9ZM450.203 296.65C453.936 296.65 456.686 297.583 458.453 299.45C460.219 301.317 461.103 303.967 461.103 307.4V319.85C461.103 323.283 460.219 325.933 458.453 327.8C456.686 329.667 453.936 330.6 450.203 330.6C446.469 330.6 443.719 329.667 441.953 327.8C440.186 325.933 439.303 323.283 439.303 319.85V307.4C439.303 303.967 440.186 301.317 441.953 299.45C443.719 297.583 446.469 296.65 450.203 296.65ZM450.203 300.4C448.003 300.4 446.336 300.95 445.203 302.05C444.103 303.15 443.553 304.767 443.553 306.9V320.3C443.553 322.433 444.103 324.067 445.203 325.2C446.336 326.3 448.003 326.85 450.203 326.85C452.403 326.85 454.053 326.3 455.153 325.2C456.286 324.067 456.853 322.433 456.853 320.3V306.95C456.853 304.817 456.286 303.2 455.153 302.1C454.053 300.967 452.403 300.4 450.203 300.4ZM489.661 319.65C489.661 323.183 488.761 325.9 486.961 327.8C485.161 329.667 482.511 330.6 479.011 330.6C475.545 330.6 472.895 329.683 471.061 327.85C469.261 326.017 468.361 323.317 468.361 319.75V297.25H472.611V320.3C472.611 322.433 473.161 324.067 474.261 325.2C475.395 326.3 476.978 326.85 479.011 326.85C481.078 326.85 482.661 326.3 483.761 325.2C484.861 324.067 485.411 322.433 485.411 320.3V297.25H489.661V319.65ZM505.87 296.65C509.803 296.65 512.703 297.417 514.57 298.95C516.437 300.483 517.37 302.633 517.37 305.4V306.65C517.37 308.583 516.837 310.3 515.77 311.8C514.703 313.267 513.17 314.3 511.17 314.9L519.67 330H514.92L506.97 315.8C506.703 315.833 506.17 315.85 505.37 315.85C504.037 315.85 502.72 315.8 501.42 315.7V330H497.17V296.85C500.903 296.717 503.803 296.65 505.87 296.65ZM505.77 300.25C504.67 300.25 503.22 300.283 501.42 300.35V312.15C503.22 312.317 504.72 312.4 505.92 312.4C510.72 312.4 513.12 310.45 513.12 306.55V305.55C513.12 303.75 512.537 302.417 511.37 301.55C510.203 300.683 508.337 300.25 505.77 300.25ZM537.406 297.25V326.25H550.406V330H533.156V297.25H537.406ZM564.802 296.65C568.536 296.65 571.286 297.583 573.052 299.45C574.819 301.317 575.702 303.967 575.702 307.4V319.85C575.702 323.283 574.819 325.933 573.052 327.8C571.286 329.667 568.536 330.6 564.802 330.6C561.069 330.6 558.319 329.667 556.552 327.8C554.786 325.933 553.902 323.283 553.902 319.85V307.4C553.902 303.967 554.786 301.317 556.552 299.45C558.319 297.583 561.069 296.65 564.802 296.65ZM564.802 300.4C562.602 300.4 560.936 300.95 559.802 302.05C558.702 303.15 558.152 304.767 558.152 306.9V320.3C558.152 322.433 558.702 324.067 559.802 325.2C560.936 326.3 562.602 326.85 564.802 326.85C567.002 326.85 568.652 326.3 569.752 325.2C570.886 324.067 571.452 322.433 571.452 320.3V306.95C571.452 304.817 570.886 303.2 569.752 302.1C568.652 300.967 567.002 300.4 564.802 300.4ZM593.361 296.65C594.594 296.65 596.011 296.767 597.611 297C599.211 297.2 600.678 297.433 602.011 297.7L601.911 301.45C598.144 300.717 595.294 300.35 593.361 300.35C591.061 300.35 589.411 300.817 588.411 301.75C587.444 302.65 586.961 304.167 586.961 306.3V320.8C586.961 322.933 587.444 324.483 588.411 325.45C589.411 326.383 591.061 326.85 593.361 326.85C594.861 326.85 596.811 326.617 599.211 326.15V315.1H592.961V311.1H603.461V328.75C599.461 329.983 596.094 330.6 593.361 330.6C589.528 330.6 586.794 329.783 585.161 328.15C583.528 326.517 582.711 323.967 582.711 320.5V306.75C582.711 303.217 583.544 300.65 585.211 299.05C586.878 297.45 589.594 296.65 593.361 296.65ZM621.345 296.65C625.079 296.65 627.829 297.583 629.595 299.45C631.362 301.317 632.245 303.967 632.245 307.4V319.85C632.245 323.283 631.362 325.933 629.595 327.8C627.829 329.667 625.079 330.6 621.345 330.6C617.612 330.6 614.862 329.667 613.095 327.8C611.329 325.933 610.445 323.283 610.445 319.85V307.4C610.445 303.967 611.329 301.317 613.095 299.45C614.862 297.583 617.612 296.65 621.345 296.65ZM621.345 300.4C619.145 300.4 617.479 300.95 616.345 302.05C615.245 303.15 614.695 304.767 614.695 306.9V320.3C614.695 322.433 615.245 324.067 616.345 325.2C617.479 326.3 619.145 326.85 621.345 326.85C623.545 326.85 625.195 326.3 626.295 325.2C627.429 324.067 627.995 322.433 627.995 320.3V306.95C627.995 304.817 627.429 303.2 626.295 302.1C625.195 300.967 623.545 300.4 621.345 300.4Z" fill="white"/>
</svg>
