<svg width="1050" height="600" viewBox="0 0 1050 600" fill="none" xmlns="http://www.w3.org/2000/svg">
<g clip-path="url(#clip0)">
<rect width="1050" height="600" fill="white"/>
<path d="M401.219 159.188V222.573C401.216 227.34 399.961 232.021 397.578 236.149C395.196 240.277 391.77 243.706 387.644 246.093L383.442 248.513L383.42 248.535H383.398C383.376 248.535 383.354 248.557 383.31 248.579L321.685 284.155C317.552 286.533 312.867 287.785 308.099 287.785C303.331 287.785 298.646 286.533 294.513 284.155L228.598 246.093C223.992 243.436 220.272 239.479 217.905 234.718C217.881 234.671 217.851 234.627 217.817 234.586C217.808 234.561 217.793 234.538 217.773 234.52V234.498C217.76 234.487 217.753 234.471 217.751 234.454C215.942 230.755 215.002 226.691 215.001 222.573V160.112C214.99 158.933 215.079 157.756 215.265 156.592C226.708 179.138 245.914 196.789 269.344 206.293V206.865L297.329 223.035C300.611 224.927 304.333 225.923 308.121 225.923C311.909 225.923 315.631 224.927 318.913 223.035L346.898 206.865V206.711C370.213 197.535 389.474 180.319 401.197 158.176C401.219 158.528 401.219 158.847 401.219 159.188Z" fill="#0F73EF"/>
<path d="M269.343 159.188V206.292C245.913 196.789 226.708 179.138 215.264 156.592C215.395 155.473 215.593 154.364 215.858 153.269C216.528 150.504 217.611 147.856 219.071 145.415C221.263 141.626 224.346 138.429 228.054 136.102C231.761 133.774 235.981 132.387 240.346 132.06C244.06 131.813 247.786 132.33 251.292 133.582C254.799 134.833 258.01 136.791 260.729 139.334C263.448 141.877 265.615 144.952 267.097 148.367C268.579 151.782 269.343 155.465 269.343 159.188Z" fill="black"/>
<path d="M401.196 158.187C389.473 180.33 370.212 197.546 346.897 206.721V160.123C346.814 153.111 349.38 146.326 354.083 141.125C358.787 135.924 365.28 132.69 372.265 132.071C377.214 131.735 382.16 132.762 386.566 135.041C386.572 135.041 386.577 135.044 386.581 135.048C386.585 135.052 386.588 135.057 386.588 135.063C386.608 135.075 386.63 135.083 386.654 135.085C390.227 136.966 393.339 139.618 395.763 142.848C398.186 146.079 399.862 149.807 400.668 153.764C400.969 155.221 401.145 156.7 401.196 158.187Z" fill="black"/>
<g style="mix-blend-mode:multiply" opacity="0.08">
<g style="mix-blend-mode:multiply" opacity="0.08">
<path d="M269.343 184.719V206.302C245.913 196.799 226.708 179.148 215.264 156.602C215.395 155.483 215.593 154.373 215.858 153.279C227.277 161.684 247.661 175.523 269.343 184.719Z" fill="#0F73EF"/>
</g>
</g>
<g style="mix-blend-mode:multiply" opacity="0.08">
<g style="mix-blend-mode:multiply" opacity="0.08">
<path d="M401.197 158.187C389.474 180.33 370.212 197.546 346.898 206.722V184.808C365.887 176.426 383.915 166.017 400.669 153.765C400.969 155.221 401.146 156.701 401.197 158.187Z" fill="#0F73EF"/>
</g>
</g>
<g style="mix-blend-mode:screen" opacity="0.4">
<g style="mix-blend-mode:screen" opacity="0.4">
<path d="M394.619 222.497V222.585C394.609 226.191 393.656 229.731 391.853 232.853C390.051 235.976 387.462 238.572 384.344 240.384L318.384 278.446C315.256 280.248 311.709 281.196 308.099 281.196C304.489 281.196 300.942 280.248 297.813 278.446L246.55 248.854L246.374 248.744L231.898 240.384C229.017 238.715 226.583 236.376 224.802 233.564C223.021 230.752 221.945 227.552 221.667 224.235C246.178 241.706 275.463 251.227 305.561 251.51C335.66 251.793 365.119 242.825 389.954 225.819L390.174 225.665L390.284 225.599C391.769 224.587 393.189 223.553 394.619 222.497Z" fill="#0F73EF"/>
</g>
</g>
<g style="mix-blend-mode:screen" opacity="0.6">
<g style="mix-blend-mode:screen" opacity="0.6">
<path d="M217.773 234.508C217.795 234.53 217.795 234.552 217.817 234.596C217.808 234.571 217.793 234.548 217.773 234.53V234.508Z" fill="#0F73EF"/>
</g>
</g>
<g style="mix-blend-mode:multiply" opacity="0.25">
<g style="mix-blend-mode:multiply" opacity="0.25">
<path d="M383.31 248.587L321.685 284.163C317.552 286.542 312.867 287.793 308.099 287.793C303.331 287.793 298.646 286.542 294.513 284.163L228.597 246.101C223.992 243.445 220.272 239.488 217.905 234.727C218.081 235.035 218.411 235.563 218.895 236.289C220.05 237.936 221.37 239.462 222.833 240.843C225.095 242.95 227.68 244.681 230.49 245.969C233.746 247.641 237.42 249.533 241.38 251.668C249.367 255.848 258.607 260.842 268.442 266.298C273.348 269.048 278.452 271.821 283.579 274.769C286.153 276.243 288.727 277.717 291.323 279.191L295.217 281.413C296.402 282.114 297.637 282.724 298.913 283.239C303.922 285.319 309.481 285.667 314.71 284.229C317.32 283.48 319.815 282.377 322.125 280.951C324.655 279.543 327.141 278.157 329.605 276.793C339.462 271.337 348.702 266.342 356.667 262.162C371.605 254.231 382.056 249.17 383.31 248.587Z" fill="#0F73EF"/>
</g>
</g>
<g style="mix-blend-mode:multiply" opacity="0.25">
<g style="mix-blend-mode:multiply" opacity="0.25">
<path d="M401.197 158.186L399.151 162.366L396.907 166.48L394.464 170.462L391.824 174.335L388.986 178.075L385.994 181.705L382.804 185.181L379.46 188.503L375.961 191.672L372.309 194.686L368.525 197.524L364.609 200.186L360.561 202.672L356.402 204.982L352.134 207.072L349.032 208.414L348.108 208.964C341.859 212.683 335.633 216.445 329.341 220.097L319.858 225.597C316.266 227.601 312.223 228.661 308.11 228.678C306.06 228.668 304.02 228.401 302.037 227.886C301.051 227.619 300.082 227.296 299.133 226.917C298.198 226.541 297.287 226.108 296.405 225.619L286.9 220.097C280.608 216.445 274.382 212.683 268.133 208.986L266.901 208.26V207.864L264.041 206.588L259.773 204.432L255.615 202.056L251.566 199.504L247.65 196.754L243.844 193.85L240.214 190.769L236.738 187.513L233.415 184.125L230.247 180.561L227.277 176.865L224.461 173.058L221.865 169.098L219.445 165.05L217.245 160.87L215.264 156.602L217.707 160.628L220.303 164.5L223.053 168.284L225.935 171.936L228.971 175.457L232.139 178.845L235.462 182.079L238.872 185.181L242.436 188.129L246.132 190.901L249.894 193.542L253.789 195.984L257.771 198.272L261.863 200.384L266.021 202.32L269.343 203.684V206.874L297.329 223.045C300.611 224.937 304.332 225.933 308.121 225.933C311.909 225.933 315.63 224.937 318.912 223.045L346.898 206.874V204.124L350.242 202.782L354.378 200.912L358.448 198.888L362.431 196.666L366.303 194.268L370.087 191.716L373.783 189.009L377.347 186.149L380.78 183.113L384.102 179.945L387.314 176.645L390.372 173.19L393.298 169.626L396.07 165.93L398.711 162.102L401.197 158.186Z" fill="#0F73EF"/>
</g>
</g>
<g style="mix-blend-mode:screen" opacity="0.4">
<g style="mix-blend-mode:screen" opacity="0.4">
<path d="M389.954 225.817L385.73 228.876L381.022 231.956C377.81 233.936 374.546 235.799 371.231 237.544C367.887 239.282 364.47 240.866 360.979 242.296C357.488 243.726 353.953 245.032 350.374 246.213C343.202 248.587 335.842 250.353 328.373 251.493C324.633 252.087 320.871 252.505 317.086 252.791C313.236 253.099 309.584 253.209 305.756 253.187C301.972 253.187 298.187 253.011 294.403 252.725L288.749 252.153L283.138 251.361L277.55 250.327L272.006 249.095L266.528 247.643L261.093 245.949L255.747 244.056L250.489 241.944L245.296 239.634L240.214 237.126L235.264 234.376L230.401 231.45L225.671 228.348L223.009 226.456C223.981 231.517 226.824 236.026 230.974 239.084C232.228 239.964 233.526 240.712 234.846 241.548L238.762 243.946L246.374 248.743L231.898 240.382C229.017 238.714 226.583 236.374 224.802 233.563C223.021 230.751 221.945 227.55 221.667 224.233C246.178 241.704 275.463 251.225 305.561 251.508C335.66 251.792 365.119 242.824 389.954 225.817Z" fill="#0F73EF"/>
</g>
</g>
<g style="mix-blend-mode:screen" opacity="0.5">
<g style="mix-blend-mode:screen" opacity="0.5">
<path d="M269.345 159.188V180.243C269.345 180.243 268.597 174.501 268.091 165.898C267.937 163.764 267.805 161.41 267.695 158.968C267.527 156.558 267.062 154.178 266.309 151.883C264.638 146.941 261.546 142.602 257.42 139.409C255.336 137.809 253.031 136.52 250.578 135.58C248.199 134.732 245.723 134.185 243.207 133.952C242.525 133.952 241.865 133.93 241.205 133.93L240.325 133.908L239.423 133.974C238.247 134.036 237.077 134.19 235.925 134.436C233.778 134.894 231.695 135.61 229.721 136.57C226.703 138.065 223.964 140.066 221.624 142.489C220.766 143.391 220.106 144.117 219.688 144.645C219.38 145.041 219.16 145.305 219.072 145.415C221.264 141.626 224.347 138.429 228.055 136.102C231.763 133.774 235.982 132.387 240.347 132.06C244.062 131.813 247.787 132.33 251.294 133.582C254.8 134.833 258.012 136.791 260.731 139.334C263.449 141.877 265.616 144.952 267.098 148.367C268.58 151.782 269.345 155.465 269.345 159.188Z" fill="#0F73EF"/>
</g>
</g>
<g style="mix-blend-mode:screen" opacity="0.5">
<g style="mix-blend-mode:screen" opacity="0.5">
<path d="M386.566 135.041C386.302 134.953 385.334 134.645 383.793 134.271C381.337 133.675 378.819 133.372 376.291 133.369C374.638 133.377 372.989 133.532 371.363 133.831C370.485 133.969 369.617 134.167 368.767 134.425C368.349 134.557 367.909 134.667 367.469 134.799C367.028 134.931 366.588 135.129 366.148 135.283C364.377 136.005 362.675 136.889 361.066 137.923C359.43 139.026 357.918 140.302 356.556 141.73C355.163 143.128 353.931 144.678 352.882 146.35C351.851 147.985 350.982 149.717 350.286 151.52C349.94 152.374 349.646 153.249 349.406 154.138C349.143 154.974 348.937 155.827 348.789 156.691C348.61 157.548 348.478 158.415 348.393 159.287L348.327 159.925C348.305 160.013 348.283 160.189 348.283 160.189L348.261 160.497C348.217 160.915 348.195 161.333 348.151 161.729C347.623 168.197 346.897 172.487 346.897 172.487V160.123C346.814 153.111 349.38 146.326 354.083 141.125C358.787 135.924 365.28 132.69 372.265 132.071C377.214 131.735 382.16 132.762 386.566 135.041Z" fill="#0F73EF"/>
</g>
</g>
<path d="M218.349 346.881H229.235V351H213.222V326.117H218.349V346.881ZM251.537 339.123C251.537 341.572 251.104 343.72 250.238 345.565C249.372 347.411 248.131 348.835 246.513 349.838C244.906 350.84 243.061 351.342 240.976 351.342C238.913 351.342 237.073 350.846 235.456 349.855C233.838 348.864 232.584 347.451 231.696 345.617C230.807 343.771 230.357 341.652 230.346 339.259V338.029C230.346 335.579 230.784 333.426 231.662 331.569C232.55 329.7 233.798 328.271 235.404 327.279C237.022 326.277 238.868 325.775 240.941 325.775C243.015 325.775 244.855 326.277 246.461 327.279C248.079 328.271 249.327 329.7 250.204 331.569C251.093 333.426 251.537 335.574 251.537 338.012V339.123ZM246.342 337.995C246.342 335.386 245.875 333.403 244.94 332.047C244.006 330.692 242.673 330.014 240.941 330.014C239.221 330.014 237.894 330.686 236.959 332.03C236.025 333.363 235.552 335.323 235.541 337.909V339.123C235.541 341.663 236.008 343.634 236.942 345.036C237.877 346.437 239.221 347.138 240.976 347.138C242.696 347.138 244.018 346.465 244.94 345.121C245.863 343.765 246.33 341.794 246.342 339.208V337.995ZM274.95 347.855C274.027 348.961 272.723 349.821 271.037 350.436C269.35 351.04 267.482 351.342 265.431 351.342C263.278 351.342 261.387 350.875 259.757 349.94C258.139 348.995 256.886 347.628 255.998 345.839C255.12 344.05 254.67 341.948 254.647 339.533V337.841C254.647 335.357 255.063 333.209 255.895 331.398C256.738 329.575 257.946 328.185 259.518 327.228C261.102 326.26 262.953 325.775 265.072 325.775C268.023 325.775 270.33 326.482 271.994 327.895C273.657 329.296 274.643 331.341 274.95 334.03H269.96C269.732 332.606 269.225 331.563 268.439 330.902C267.664 330.242 266.593 329.911 265.226 329.911C263.483 329.911 262.156 330.566 261.244 331.876C260.333 333.187 259.871 335.135 259.86 337.721V339.311C259.86 341.92 260.355 343.891 261.347 345.224C262.338 346.557 263.791 347.223 265.705 347.223C267.63 347.223 269.003 346.813 269.823 345.993V341.703H265.158V337.926H274.95V347.855ZM299.56 339.123C299.56 341.572 299.127 343.72 298.261 345.565C297.395 347.411 296.153 348.835 294.535 349.838C292.929 350.84 291.083 351.342 288.998 351.342C286.936 351.342 285.096 350.846 283.478 349.855C281.86 348.864 280.607 347.451 279.718 345.617C278.83 343.771 278.38 341.652 278.368 339.259V338.029C278.368 335.579 278.807 333.426 279.684 331.569C280.573 329.7 281.82 328.271 283.427 327.279C285.045 326.277 286.89 325.775 288.964 325.775C291.037 325.775 292.877 326.277 294.484 327.279C296.102 328.271 297.349 329.7 298.227 331.569C299.115 333.426 299.56 335.574 299.56 338.012V339.123ZM294.364 337.995C294.364 335.386 293.897 333.403 292.963 332.047C292.029 330.692 290.696 330.014 288.964 330.014C287.243 330.014 285.916 330.686 284.982 332.03C284.048 333.363 283.575 335.323 283.563 337.909V339.123C283.563 341.663 284.031 343.634 284.965 345.036C285.899 346.437 287.243 347.138 288.998 347.138C290.718 347.138 292.04 346.465 292.963 345.121C293.886 343.765 294.353 341.794 294.364 339.208V337.995Z" fill="#0F73EF"/>
<path d="M327.012 351H323.713L311.187 331.825V351H307.888V326.117H311.187L323.748 345.377V326.117H327.012V351ZM346.887 344.506H336.462L334.121 351H330.737L340.239 326.117H343.11L352.629 351H349.263L346.887 344.506ZM337.454 341.806H345.913L341.675 330.167L337.454 341.806ZM360.217 326.117L368.352 346.42L376.487 326.117H380.742V351H377.461V341.31L377.769 330.851L369.6 351H367.087L358.936 330.902L359.26 341.31V351H355.979V326.117H360.217ZM400.601 339.499H389.817V348.317H402.344V351H386.536V326.117H402.173V328.817H389.817V336.815H400.601V339.499Z" fill="black"/>
<path d="M260.383 371.378C260.383 370.787 260.175 370.321 259.76 369.979C259.345 369.632 258.586 369.305 257.482 368.998C256.379 368.685 255.573 368.346 255.065 367.979C254.343 367.462 253.981 366.783 253.981 365.943C253.981 365.128 254.316 364.466 254.985 363.958C255.659 363.446 256.518 363.189 257.563 363.189C258.271 363.189 258.903 363.326 259.46 363.6C260.021 363.873 260.456 364.254 260.764 364.742C261.071 365.23 261.225 365.775 261.225 366.375H260.317C260.317 365.648 260.068 365.064 259.57 364.625C259.072 364.181 258.403 363.958 257.563 363.958C256.748 363.958 256.098 364.142 255.615 364.508C255.131 364.869 254.89 365.343 254.89 365.929C254.89 366.471 255.107 366.913 255.542 367.254C255.976 367.596 256.672 367.899 257.629 368.163C258.586 368.421 259.311 368.692 259.804 368.976C260.297 369.254 260.668 369.588 260.917 369.979C261.167 370.37 261.291 370.831 261.291 371.363C261.291 372.203 260.954 372.877 260.28 373.385C259.611 373.893 258.728 374.146 257.629 374.146C256.877 374.146 256.186 374.012 255.556 373.744C254.931 373.475 254.455 373.099 254.128 372.616C253.806 372.132 253.645 371.578 253.645 370.953H254.545C254.545 371.705 254.826 372.298 255.388 372.733C255.949 373.167 256.696 373.385 257.629 373.385C258.459 373.385 259.125 373.202 259.628 372.835C260.131 372.469 260.383 371.983 260.383 371.378ZM264.147 373.238H269.414V374H263.239V363.336H264.147V373.238ZM278.547 369.247C278.547 370.228 278.376 371.09 278.034 371.832C277.697 372.574 277.214 373.146 276.584 373.546C275.954 373.946 275.227 374.146 274.401 374.146C273.156 374.146 272.15 373.702 271.384 372.813C270.617 371.92 270.234 370.716 270.234 369.203V368.104C270.234 367.132 270.405 366.273 270.747 365.526C271.093 364.774 271.582 364.198 272.211 363.797C272.841 363.392 273.566 363.189 274.387 363.189C275.207 363.189 275.93 363.387 276.555 363.783C277.185 364.178 277.67 364.737 278.012 365.46C278.354 366.183 278.532 367.02 278.547 367.972V369.247ZM277.646 368.089C277.646 366.805 277.355 365.799 276.774 365.072C276.193 364.344 275.397 363.98 274.387 363.98C273.396 363.98 272.604 364.347 272.014 365.079C271.428 365.807 271.135 366.825 271.135 368.133V369.247C271.135 370.511 271.428 371.515 272.014 372.257C272.6 372.994 273.396 373.363 274.401 373.363C275.422 373.363 276.218 372.999 276.789 372.271C277.36 371.539 277.646 370.521 277.646 369.217V368.089ZM288.515 372.733C288.203 373.177 287.712 373.524 287.043 373.773C286.379 374.022 285.634 374.146 284.809 374.146C283.974 374.146 283.232 373.946 282.583 373.546C281.933 373.146 281.43 372.579 281.074 371.847C280.717 371.114 280.537 370.274 280.532 369.327V367.979C280.532 366.5 280.905 365.333 281.652 364.479C282.399 363.619 283.403 363.189 284.663 363.189C285.761 363.189 286.645 363.47 287.314 364.032C287.983 364.588 288.381 365.357 288.508 366.339H287.607C287.475 365.558 287.155 364.967 286.647 364.566C286.145 364.161 285.485 363.958 284.67 363.958C283.674 363.958 282.885 364.312 282.304 365.021C281.723 365.729 281.433 366.727 281.433 368.016V369.276C281.433 370.086 281.569 370.804 281.843 371.429C282.121 372.049 282.517 372.53 283.029 372.872C283.547 373.214 284.14 373.385 284.809 373.385C285.585 373.385 286.252 373.263 286.809 373.019C287.17 372.857 287.438 372.669 287.614 372.455V369.701H284.75V368.939H288.515V372.733ZM296.828 371.012H291.987L290.888 374H289.943L293.979 363.336H294.836L298.872 374H297.934L296.828 371.012ZM292.265 370.243H296.542L294.404 364.435L292.265 370.243ZM308.386 374H307.485L301.354 364.874V374H300.446V363.336H301.354L307.492 372.469V363.336H308.386V374ZM322.646 374H321.738V368.888H315.644V374H314.743V363.336H315.644V368.126H321.738V363.336H322.646V374ZM331.252 368.888H326.264V373.238H331.999V374H325.363V363.336H331.962V364.105H326.264V368.126H331.252V368.888ZM337.888 369.562H334.79V374H333.881V363.336H337.346C338.483 363.336 339.372 363.612 340.012 364.164C340.651 364.715 340.971 365.487 340.971 366.478C340.971 367.162 340.771 367.765 340.371 368.287C339.97 368.81 339.433 369.171 338.759 369.371L341.425 373.905V374H340.466L337.888 369.562ZM334.79 368.792H337.551C338.308 368.792 338.916 368.578 339.375 368.148C339.833 367.718 340.063 367.162 340.063 366.478C340.063 365.726 339.824 365.143 339.345 364.728C338.867 364.312 338.195 364.105 337.331 364.105H334.79V368.792ZM349.313 368.888H344.326V373.238H350.061V374H343.425V363.336H350.024V364.105H344.326V368.126H349.313V368.888Z" fill="black"/>
<path d="M709.456 160H704.329L694.349 143.628V160H689.222V135.117H694.349L704.346 151.523V135.117H709.456V160ZM728.289 154.873H719.3L717.591 160H712.139L721.402 135.117H726.153L735.467 160H730.015L728.289 154.873ZM720.684 150.72H726.905L723.777 141.406L720.684 150.72ZM744.49 135.117L750.882 153.164L757.239 135.117H763.973V160H758.829V153.198L759.341 141.458L752.625 160H749.104L742.405 141.475L742.918 153.198V160H737.791V135.117H744.49ZM783.421 149.216H773.577V155.881H785.13V160H768.45V135.117H785.096V139.27H773.577V145.2H783.421V149.216Z" fill="#0F73EF"/>
<path d="M799.187 157.317H810.979V160H795.888V135.117H799.187V157.317ZM828.803 153.506H818.378L816.037 160H812.653L822.155 135.117H825.026L834.545 160H831.179L828.803 153.506ZM819.37 150.806H827.829L823.591 139.167L819.37 150.806ZM845.227 148.909C842.412 148.1 840.362 147.109 839.074 145.935C837.798 144.75 837.16 143.292 837.16 141.56C837.16 139.6 837.941 137.983 839.501 136.707C841.074 135.419 843.113 134.775 845.62 134.775C847.329 134.775 848.85 135.106 850.183 135.767C851.527 136.427 852.564 137.339 853.293 138.501C854.034 139.663 854.404 140.933 854.404 142.312H851.105C851.105 140.808 850.627 139.629 849.67 138.774C848.713 137.909 847.363 137.476 845.62 137.476C844.002 137.476 842.737 137.834 841.826 138.552C840.926 139.259 840.476 140.244 840.476 141.509C840.476 142.523 840.903 143.383 841.757 144.089C842.623 144.784 844.087 145.422 846.149 146.003C848.223 146.584 849.841 147.228 851.003 147.935C852.176 148.63 853.042 149.444 853.601 150.378C854.17 151.313 854.455 152.412 854.455 153.677C854.455 155.693 853.669 157.311 852.097 158.53C850.524 159.738 848.422 160.342 845.791 160.342C844.082 160.342 842.486 160.017 841.005 159.368C839.524 158.707 838.379 157.807 837.57 156.667C836.773 155.528 836.374 154.235 836.374 152.788H839.672C839.672 154.292 840.225 155.483 841.33 156.36C842.447 157.226 843.933 157.659 845.791 157.659C847.522 157.659 848.85 157.306 849.772 156.599C850.695 155.893 851.157 154.93 851.157 153.711C851.157 152.492 850.729 151.552 849.875 150.891C849.021 150.219 847.471 149.558 845.227 148.909ZM875.869 137.817H867.871V160H864.606V137.817H856.625V135.117H875.869V137.817ZM898.684 160H895.385L882.858 140.825V160H879.56V135.117H882.858L895.419 154.377V135.117H898.684V160ZM918.559 153.506H908.134L905.793 160H902.409L911.911 135.117H914.782L924.301 160H920.935L918.559 153.506ZM909.125 150.806H917.585L913.347 139.167L909.125 150.806ZM931.889 135.117L940.024 155.42L948.159 135.117H952.414V160H949.133V150.31L949.44 139.851L941.271 160H938.759L930.607 139.902L930.932 150.31V160H927.651V135.117H931.889ZM972.272 148.499H961.489V157.317H974.016V160H958.208V135.117H973.845V137.817H961.489V145.815H972.272V148.499Z" fill="black"/>
<path d="M832.629 180.359H825.998V187H824.797V172.781H833.605V173.807H825.998V179.334H832.629V180.359ZM834.914 181.561C834.914 180.545 835.109 179.63 835.5 178.816C835.897 178.003 836.454 177.371 837.17 176.922C837.893 176.466 838.71 176.238 839.621 176.238C841.027 176.238 842.167 176.733 843.039 177.723C843.911 178.706 844.348 180.011 844.348 181.639V181.883C844.348 182.905 844.149 183.826 843.752 184.646C843.361 185.46 842.808 186.089 842.092 186.531C841.376 186.974 840.559 187.195 839.641 187.195C838.241 187.195 837.102 186.704 836.223 185.721C835.35 184.731 834.914 183.423 834.914 181.795V181.561ZM836.086 181.883C836.086 183.146 836.411 184.184 837.062 184.998C837.72 185.805 838.579 186.209 839.641 186.209C840.695 186.209 841.548 185.805 842.199 184.998C842.857 184.184 843.186 183.113 843.186 181.785V181.561C843.186 180.753 843.036 180.014 842.736 179.344C842.437 178.673 842.017 178.156 841.477 177.791C840.936 177.42 840.318 177.234 839.621 177.234C838.579 177.234 837.73 177.645 837.072 178.465C836.415 179.279 836.086 180.346 836.086 181.668V181.883ZM853.566 185.662C852.863 186.684 851.74 187.195 850.197 187.195C849.071 187.195 848.215 186.87 847.629 186.219C847.043 185.561 846.743 184.591 846.73 183.309V176.434H847.893V183.162C847.893 185.174 848.706 186.18 850.334 186.18C852.027 186.18 853.098 185.48 853.547 184.08V176.434H854.719V187H853.586L853.566 185.662ZM858.879 176.434L858.918 178.24C859.315 177.589 859.81 177.094 860.402 176.756C860.995 176.411 861.649 176.238 862.365 176.238C863.498 176.238 864.341 176.557 864.895 177.195C865.448 177.833 865.728 178.79 865.734 180.066V187H864.572V180.057C864.566 179.113 864.364 178.41 863.967 177.947C863.576 177.485 862.948 177.254 862.082 177.254C861.359 177.254 860.718 177.482 860.158 177.938C859.605 178.387 859.195 178.995 858.928 179.764V187H857.766V176.434H858.879ZM868.293 181.619C868.293 179.979 868.658 178.673 869.387 177.703C870.122 176.727 871.118 176.238 872.375 176.238C873.801 176.238 874.888 176.801 875.637 177.928V172H876.799V187H875.705L875.656 185.594C874.908 186.661 873.807 187.195 872.355 187.195C871.138 187.195 870.155 186.707 869.406 185.73C868.664 184.747 868.293 183.423 868.293 181.756V181.619ZM869.475 181.824C869.475 183.172 869.745 184.236 870.285 185.018C870.826 185.792 871.587 186.18 872.57 186.18C874.009 186.18 875.031 185.545 875.637 184.275V179.314C875.031 177.941 874.016 177.254 872.59 177.254C871.607 177.254 870.842 177.641 870.295 178.416C869.748 179.184 869.475 180.32 869.475 181.824ZM883.967 187.195C883.068 187.195 882.255 186.974 881.525 186.531C880.803 186.089 880.24 185.473 879.836 184.686C879.432 183.891 879.23 183.003 879.23 182.02V181.6C879.23 180.584 879.426 179.669 879.816 178.855C880.214 178.042 880.764 177.404 881.467 176.941C882.17 176.473 882.932 176.238 883.752 176.238C885.035 176.238 886.05 176.678 886.799 177.557C887.554 178.429 887.932 179.624 887.932 181.141V181.795H880.393V182.02C880.393 183.217 880.734 184.217 881.418 185.018C882.108 185.812 882.974 186.209 884.016 186.209C884.641 186.209 885.191 186.095 885.666 185.867C886.148 185.639 886.584 185.275 886.975 184.773L887.707 185.33C886.848 186.574 885.601 187.195 883.967 187.195ZM883.752 177.234C882.873 177.234 882.131 177.557 881.525 178.201C880.926 178.846 880.562 179.712 880.432 180.799H886.77V180.672C886.737 179.656 886.447 178.829 885.9 178.191C885.354 177.553 884.637 177.234 883.752 177.234ZM895.09 177.43C894.842 177.384 894.579 177.361 894.299 177.361C893.57 177.361 892.951 177.566 892.443 177.977C891.942 178.38 891.584 178.969 891.369 179.744V187H890.207V176.434H891.35L891.369 178.113C891.988 176.863 892.98 176.238 894.348 176.238C894.673 176.238 894.93 176.281 895.119 176.365L895.09 177.43ZM908.479 187C908.361 186.668 908.286 186.176 908.254 185.525C907.844 186.059 907.32 186.473 906.682 186.766C906.05 187.052 905.38 187.195 904.67 187.195C903.654 187.195 902.831 186.912 902.199 186.346C901.574 185.779 901.262 185.063 901.262 184.197C901.262 183.169 901.688 182.355 902.541 181.756C903.4 181.157 904.595 180.857 906.125 180.857H908.244V179.656C908.244 178.901 908.01 178.309 907.541 177.879C907.079 177.443 906.402 177.225 905.51 177.225C904.696 177.225 904.022 177.433 903.488 177.85C902.954 178.266 902.688 178.768 902.688 179.354L901.516 179.344C901.516 178.504 901.906 177.778 902.688 177.166C903.469 176.548 904.429 176.238 905.568 176.238C906.747 176.238 907.674 176.535 908.352 177.127C909.035 177.713 909.387 178.533 909.406 179.588V184.588C909.406 185.61 909.514 186.375 909.729 186.883V187H908.479ZM904.807 186.16C905.588 186.16 906.285 185.971 906.896 185.594C907.515 185.216 907.964 184.712 908.244 184.08V181.756H906.154C904.989 181.769 904.077 181.984 903.42 182.4C902.762 182.811 902.434 183.377 902.434 184.1C902.434 184.692 902.652 185.184 903.088 185.574C903.531 185.965 904.104 186.16 904.807 186.16ZM913.645 176.434L913.684 178.24C914.081 177.589 914.576 177.094 915.168 176.756C915.76 176.411 916.415 176.238 917.131 176.238C918.264 176.238 919.107 176.557 919.66 177.195C920.214 177.833 920.493 178.79 920.5 180.066V187H919.338V180.057C919.331 179.113 919.13 178.41 918.732 177.947C918.342 177.485 917.714 177.254 916.848 177.254C916.125 177.254 915.484 177.482 914.924 177.938C914.37 178.387 913.96 178.995 913.693 179.764V187H912.531V176.434H913.645ZM923.059 181.619C923.059 179.979 923.423 178.673 924.152 177.703C924.888 176.727 925.884 176.238 927.141 176.238C928.566 176.238 929.654 176.801 930.402 177.928V172H931.564V187H930.471L930.422 185.594C929.673 186.661 928.573 187.195 927.121 187.195C925.904 187.195 924.921 186.707 924.172 185.73C923.43 184.747 923.059 183.423 923.059 181.756V181.619ZM924.24 181.824C924.24 183.172 924.51 184.236 925.051 185.018C925.591 185.792 926.353 186.18 927.336 186.18C928.775 186.18 929.797 185.545 930.402 184.275V179.314C929.797 177.941 928.781 177.254 927.355 177.254C926.372 177.254 925.607 177.641 925.061 178.416C924.514 179.184 924.24 180.32 924.24 181.824ZM949.846 182.566C949.683 184.064 949.146 185.21 948.234 186.004C947.329 186.798 946.122 187.195 944.611 187.195C943.557 187.195 942.622 186.932 941.809 186.404C941.001 185.877 940.376 185.132 939.934 184.168C939.491 183.198 939.266 182.091 939.26 180.848V179.002C939.26 177.739 939.481 176.619 939.924 175.643C940.367 174.666 941.001 173.914 941.828 173.387C942.661 172.853 943.618 172.586 944.699 172.586C946.223 172.586 947.424 172.999 948.303 173.826C949.188 174.646 949.702 175.783 949.846 177.234H948.635C948.335 174.819 947.023 173.611 944.699 173.611C943.41 173.611 942.382 174.093 941.613 175.057C940.852 176.02 940.471 177.352 940.471 179.051V180.789C940.471 182.43 940.842 183.738 941.584 184.715C942.333 185.691 943.342 186.18 944.611 186.18C945.868 186.18 946.815 185.88 947.453 185.281C948.091 184.676 948.485 183.771 948.635 182.566H949.846ZM960.617 180.184H953.967V185.984H961.613V187H952.766V172.781H961.564V173.807H953.967V179.168H960.617V180.184ZM974.66 180.662C974.66 181.971 974.432 183.12 973.977 184.109C973.527 185.099 972.883 185.861 972.043 186.395C971.203 186.928 970.233 187.195 969.133 187.195C967.473 187.195 966.132 186.603 965.109 185.418C964.087 184.227 963.576 182.622 963.576 180.604V179.139C963.576 177.843 963.804 176.697 964.26 175.701C964.722 174.699 965.373 173.93 966.213 173.396C967.053 172.856 968.02 172.586 969.113 172.586C970.207 172.586 971.171 172.85 972.004 173.377C972.844 173.904 973.492 174.65 973.947 175.613C974.403 176.577 974.641 177.693 974.66 178.963V180.662ZM973.459 179.119C973.459 177.407 973.072 176.066 972.297 175.096C971.522 174.126 970.461 173.641 969.113 173.641C967.792 173.641 966.737 174.129 965.949 175.105C965.168 176.076 964.777 177.433 964.777 179.178V180.662C964.777 182.348 965.168 183.686 965.949 184.676C966.73 185.659 967.792 186.15 969.133 186.15C970.493 186.15 971.555 185.665 972.316 184.695C973.078 183.719 973.459 182.361 973.459 180.623V179.119Z" fill="#787878"/>
<path d="M743.152 305.773H747.479V306.867H743.152V311.574H741.971V306.867H737.732V305.773H741.971V301.223H743.152V305.773ZM756.922 306.418C756.505 307.03 755.988 307.505 755.369 307.844C754.751 308.176 754.08 308.342 753.357 308.342C752.55 308.342 751.837 308.133 751.219 307.717C750.6 307.3 750.122 306.724 749.783 305.988C749.445 305.253 749.275 304.449 749.275 303.576C749.275 302.639 749.454 301.786 749.812 301.018C750.177 300.249 750.682 299.654 751.326 299.23C751.977 298.801 752.726 298.586 753.572 298.586C754.998 298.586 756.108 299.087 756.902 300.09C757.697 301.086 758.094 302.502 758.094 304.338V305.393C758.094 307.958 757.547 309.885 756.453 311.174C755.359 312.463 753.689 313.107 751.443 313.107H751.229L751.238 312.092H751.648C753.348 312.066 754.64 311.584 755.525 310.646C756.411 309.709 756.876 308.299 756.922 306.418ZM753.504 307.336C754.285 307.336 754.985 307.105 755.604 306.643C756.229 306.174 756.671 305.568 756.932 304.826V304.152C756.932 302.707 756.629 301.587 756.023 300.793C755.424 299.992 754.614 299.592 753.592 299.592C752.667 299.592 751.909 299.966 751.316 300.715C750.724 301.457 750.428 302.395 750.428 303.527C750.428 304.615 750.711 305.523 751.277 306.252C751.85 306.975 752.592 307.336 753.504 307.336ZM768.016 306.418C767.599 307.03 767.081 307.505 766.463 307.844C765.844 308.176 765.174 308.342 764.451 308.342C763.644 308.342 762.931 308.133 762.312 307.717C761.694 307.3 761.215 306.724 760.877 305.988C760.538 305.253 760.369 304.449 760.369 303.576C760.369 302.639 760.548 301.786 760.906 301.018C761.271 300.249 761.775 299.654 762.42 299.23C763.071 298.801 763.82 298.586 764.666 298.586C766.092 298.586 767.202 299.087 767.996 300.09C768.79 301.086 769.188 302.502 769.188 304.338V305.393C769.188 307.958 768.641 309.885 767.547 311.174C766.453 312.463 764.783 313.107 762.537 313.107H762.322L762.332 312.092H762.742C764.441 312.066 765.734 311.584 766.619 310.646C767.505 309.709 767.97 308.299 768.016 306.418ZM764.598 307.336C765.379 307.336 766.079 307.105 766.697 306.643C767.322 306.174 767.765 305.568 768.025 304.826V304.152C768.025 302.707 767.723 301.587 767.117 300.793C766.518 299.992 765.708 299.592 764.686 299.592C763.761 299.592 763.003 299.966 762.41 300.715C761.818 301.457 761.521 302.395 761.521 303.527C761.521 304.615 761.805 305.523 762.371 306.252C762.944 306.975 763.686 307.336 764.598 307.336ZM772.605 305.715L773.299 298.781H780.408V299.865H774.305L773.807 304.67C774.568 304.149 775.46 303.889 776.482 303.889C777.765 303.889 778.787 304.305 779.549 305.139C780.311 305.972 780.691 307.082 780.691 308.469C780.691 309.966 780.32 311.128 779.578 311.955C778.836 312.782 777.791 313.195 776.443 313.195C775.206 313.195 774.204 312.85 773.436 312.16C772.667 311.47 772.228 310.503 772.117 309.26H773.24C773.351 310.23 773.68 310.965 774.227 311.467C774.773 311.962 775.512 312.209 776.443 312.209C777.459 312.209 778.224 311.887 778.738 311.242C779.259 310.598 779.52 309.68 779.52 308.488C779.52 307.447 779.23 306.597 778.65 305.939C778.071 305.282 777.28 304.953 776.277 304.953C775.724 304.953 775.242 305.025 774.832 305.168C774.422 305.305 773.989 305.575 773.533 305.979L772.605 305.715ZM796.678 313H787.771V312.102L792.645 306.574C793.452 305.643 794.012 304.875 794.324 304.27C794.637 303.664 794.793 303.075 794.793 302.502C794.793 301.604 794.529 300.894 794.002 300.373C793.475 299.846 792.749 299.582 791.824 299.582C790.867 299.582 790.092 299.888 789.5 300.5C788.914 301.112 788.621 301.906 788.621 302.883H787.459C787.459 302.082 787.638 301.353 787.996 300.695C788.361 300.038 788.875 299.523 789.539 299.152C790.21 298.775 790.971 298.586 791.824 298.586C793.126 298.586 794.142 298.928 794.871 299.611C795.607 300.295 795.975 301.226 795.975 302.404C795.975 303.068 795.766 303.794 795.35 304.582C794.939 305.37 794.214 306.353 793.172 307.531L789.207 312.014H796.678V313ZM801.463 305.256H802.674C803.344 305.256 803.93 305.139 804.432 304.904C804.933 304.663 805.314 304.338 805.574 303.928C805.841 303.511 805.975 303.033 805.975 302.492C805.975 301.581 805.717 300.868 805.203 300.354C804.689 299.839 803.95 299.582 802.986 299.582C802.075 299.582 801.326 299.852 800.74 300.393C800.161 300.926 799.871 301.633 799.871 302.512H798.699C798.699 301.776 798.885 301.105 799.256 300.5C799.627 299.888 800.141 299.416 800.799 299.084C801.456 298.752 802.186 298.586 802.986 298.586C804.275 298.586 805.291 298.938 806.033 299.641C806.775 300.344 807.146 301.307 807.146 302.531C807.146 303.215 806.928 303.846 806.492 304.426C806.062 304.999 805.47 305.428 804.715 305.715C805.6 305.962 806.271 306.389 806.727 306.994C807.182 307.593 807.41 308.309 807.41 309.143C807.41 310.36 807.013 311.34 806.219 312.082C805.424 312.824 804.363 313.195 803.035 313.195C802.189 313.195 801.411 313.026 800.701 312.688C799.998 312.349 799.451 311.877 799.061 311.271C798.676 310.66 798.484 309.95 798.484 309.143H799.656C799.656 310.048 799.972 310.786 800.604 311.359C801.235 311.926 802.046 312.209 803.035 312.209C804.044 312.209 804.829 311.952 805.389 311.438C805.955 310.917 806.238 310.165 806.238 309.182C806.238 308.231 805.932 307.505 805.32 307.004C804.715 306.503 803.82 306.252 802.635 306.252H801.463V305.256ZM817.137 308.42H819.354V309.406H817.137V313H815.965V309.406H809.275V308.742L815.857 298.781H817.137V308.42ZM810.711 308.42H815.965V300.295L815.447 301.193L810.711 308.42ZM829.959 313H821.053V312.102L825.926 306.574C826.733 305.643 827.293 304.875 827.605 304.27C827.918 303.664 828.074 303.075 828.074 302.502C828.074 301.604 827.811 300.894 827.283 300.373C826.756 299.846 826.03 299.582 825.105 299.582C824.148 299.582 823.374 299.888 822.781 300.5C822.195 301.112 821.902 301.906 821.902 302.883H820.74C820.74 302.082 820.919 301.353 821.277 300.695C821.642 300.038 822.156 299.523 822.82 299.152C823.491 298.775 824.253 298.586 825.105 298.586C826.408 298.586 827.423 298.928 828.152 299.611C828.888 300.295 829.256 301.226 829.256 302.404C829.256 303.068 829.048 303.794 828.631 304.582C828.221 305.37 827.495 306.353 826.453 307.531L822.488 312.014H829.959V313ZM834.744 305.256H835.955C836.626 305.256 837.212 305.139 837.713 304.904C838.214 304.663 838.595 304.338 838.855 303.928C839.122 303.511 839.256 303.033 839.256 302.492C839.256 301.581 838.999 300.868 838.484 300.354C837.97 299.839 837.231 299.582 836.268 299.582C835.356 299.582 834.607 299.852 834.021 300.393C833.442 300.926 833.152 301.633 833.152 302.512H831.98C831.98 301.776 832.166 301.105 832.537 300.5C832.908 299.888 833.423 299.416 834.08 299.084C834.738 298.752 835.467 298.586 836.268 298.586C837.557 298.586 838.572 298.938 839.314 299.641C840.057 300.344 840.428 301.307 840.428 302.531C840.428 303.215 840.21 303.846 839.773 304.426C839.344 304.999 838.751 305.428 837.996 305.715C838.882 305.962 839.552 306.389 840.008 306.994C840.464 307.593 840.691 308.309 840.691 309.143C840.691 310.36 840.294 311.34 839.5 312.082C838.706 312.824 837.645 313.195 836.316 313.195C835.47 313.195 834.692 313.026 833.982 312.688C833.279 312.349 832.732 311.877 832.342 311.271C831.958 310.66 831.766 309.95 831.766 309.143H832.938C832.938 310.048 833.253 310.786 833.885 311.359C834.516 311.926 835.327 312.209 836.316 312.209C837.326 312.209 838.11 311.952 838.67 311.438C839.236 310.917 839.52 310.165 839.52 309.182C839.52 308.231 839.214 307.505 838.602 307.004C837.996 306.503 837.101 306.252 835.916 306.252H834.744V305.256ZM855.281 308.42H857.498V309.406H855.281V313H854.109V309.406H847.42V308.742L854.002 298.781H855.281V308.42ZM848.855 308.42H854.109V300.295L853.592 301.193L848.855 308.42ZM868.104 313H859.197V312.102L864.07 306.574C864.878 305.643 865.438 304.875 865.75 304.27C866.062 303.664 866.219 303.075 866.219 302.502C866.219 301.604 865.955 300.894 865.428 300.373C864.9 299.846 864.174 299.582 863.25 299.582C862.293 299.582 861.518 299.888 860.926 300.5C860.34 301.112 860.047 301.906 860.047 302.883H858.885C858.885 302.082 859.064 301.353 859.422 300.695C859.786 300.038 860.301 299.523 860.965 299.152C861.635 298.775 862.397 298.586 863.25 298.586C864.552 298.586 865.568 298.928 866.297 299.611C867.033 300.295 867.4 301.226 867.4 302.404C867.4 303.068 867.192 303.794 866.775 304.582C866.365 305.37 865.639 306.353 864.598 307.531L860.633 312.014H868.104V313ZM877.469 308.42H879.686V309.406H877.469V313H876.297V309.406H869.607V308.742L876.189 298.781H877.469V308.42ZM871.043 308.42H876.297V300.295L875.779 301.193L871.043 308.42ZM890.291 313H881.385V312.102L886.258 306.574C887.065 305.643 887.625 304.875 887.938 304.27C888.25 303.664 888.406 303.075 888.406 302.502C888.406 301.604 888.143 300.894 887.615 300.373C887.088 299.846 886.362 299.582 885.438 299.582C884.48 299.582 883.706 299.888 883.113 300.5C882.527 301.112 882.234 301.906 882.234 302.883H881.072C881.072 302.082 881.251 301.353 881.609 300.695C881.974 300.038 882.488 299.523 883.152 299.152C883.823 298.775 884.585 298.586 885.438 298.586C886.74 298.586 887.755 298.928 888.484 299.611C889.22 300.295 889.588 301.226 889.588 302.404C889.588 303.068 889.38 303.794 888.963 304.582C888.553 305.37 887.827 306.353 886.785 307.531L882.82 312.014H890.291V313ZM895.076 305.256H896.287C896.958 305.256 897.544 305.139 898.045 304.904C898.546 304.663 898.927 304.338 899.188 303.928C899.454 303.511 899.588 303.033 899.588 302.492C899.588 301.581 899.331 300.868 898.816 300.354C898.302 299.839 897.563 299.582 896.6 299.582C895.688 299.582 894.939 299.852 894.354 300.393C893.774 300.926 893.484 301.633 893.484 302.512H892.312C892.312 301.776 892.498 301.105 892.869 300.5C893.24 299.888 893.755 299.416 894.412 299.084C895.07 298.752 895.799 298.586 896.6 298.586C897.889 298.586 898.904 298.938 899.646 299.641C900.389 300.344 900.76 301.307 900.76 302.531C900.76 303.215 900.542 303.846 900.105 304.426C899.676 304.999 899.083 305.428 898.328 305.715C899.214 305.962 899.884 306.389 900.34 306.994C900.796 307.593 901.023 308.309 901.023 309.143C901.023 310.36 900.626 311.34 899.832 312.082C899.038 312.824 897.977 313.195 896.648 313.195C895.802 313.195 895.024 313.026 894.314 312.688C893.611 312.349 893.064 311.877 892.674 311.271C892.29 310.66 892.098 309.95 892.098 309.143H893.27C893.27 310.048 893.585 310.786 894.217 311.359C894.848 311.926 895.659 312.209 896.648 312.209C897.658 312.209 898.442 311.952 899.002 311.438C899.568 310.917 899.852 310.165 899.852 309.182C899.852 308.231 899.546 307.505 898.934 307.004C898.328 306.503 897.433 306.252 896.248 306.252H895.076V305.256ZM910.75 308.42H912.967V309.406H910.75V313H909.578V309.406H902.889V308.742L909.471 298.781H910.75V308.42ZM904.324 308.42H909.578V300.295L909.061 301.193L904.324 308.42Z" fill="#787878"/>
<path d="M743.152 329.773H747.479V330.867H743.152V335.574H741.971V330.867H737.732V329.773H741.971V325.223H743.152V329.773ZM756.922 330.418C756.505 331.03 755.988 331.505 755.369 331.844C754.751 332.176 754.08 332.342 753.357 332.342C752.55 332.342 751.837 332.133 751.219 331.717C750.6 331.3 750.122 330.724 749.783 329.988C749.445 329.253 749.275 328.449 749.275 327.576C749.275 326.639 749.454 325.786 749.812 325.018C750.177 324.249 750.682 323.654 751.326 323.23C751.977 322.801 752.726 322.586 753.572 322.586C754.998 322.586 756.108 323.087 756.902 324.09C757.697 325.086 758.094 326.502 758.094 328.338V329.393C758.094 331.958 757.547 333.885 756.453 335.174C755.359 336.463 753.689 337.107 751.443 337.107H751.229L751.238 336.092H751.648C753.348 336.066 754.64 335.584 755.525 334.646C756.411 333.709 756.876 332.299 756.922 330.418ZM753.504 331.336C754.285 331.336 754.985 331.105 755.604 330.643C756.229 330.174 756.671 329.568 756.932 328.826V328.152C756.932 326.707 756.629 325.587 756.023 324.793C755.424 323.992 754.614 323.592 753.592 323.592C752.667 323.592 751.909 323.966 751.316 324.715C750.724 325.457 750.428 326.395 750.428 327.527C750.428 328.615 750.711 329.523 751.277 330.252C751.85 330.975 752.592 331.336 753.504 331.336ZM768.016 330.418C767.599 331.03 767.081 331.505 766.463 331.844C765.844 332.176 765.174 332.342 764.451 332.342C763.644 332.342 762.931 332.133 762.312 331.717C761.694 331.3 761.215 330.724 760.877 329.988C760.538 329.253 760.369 328.449 760.369 327.576C760.369 326.639 760.548 325.786 760.906 325.018C761.271 324.249 761.775 323.654 762.42 323.23C763.071 322.801 763.82 322.586 764.666 322.586C766.092 322.586 767.202 323.087 767.996 324.09C768.79 325.086 769.188 326.502 769.188 328.338V329.393C769.188 331.958 768.641 333.885 767.547 335.174C766.453 336.463 764.783 337.107 762.537 337.107H762.322L762.332 336.092H762.742C764.441 336.066 765.734 335.584 766.619 334.646C767.505 333.709 767.97 332.299 768.016 330.418ZM764.598 331.336C765.379 331.336 766.079 331.105 766.697 330.643C767.322 330.174 767.765 329.568 768.025 328.826V328.152C768.025 326.707 767.723 325.587 767.117 324.793C766.518 323.992 765.708 323.592 764.686 323.592C763.761 323.592 763.003 323.966 762.41 324.715C761.818 325.457 761.521 326.395 761.521 327.527C761.521 328.615 761.805 329.523 762.371 330.252C762.944 330.975 763.686 331.336 764.598 331.336ZM772.605 329.715L773.299 322.781H780.408V323.865H774.305L773.807 328.67C774.568 328.149 775.46 327.889 776.482 327.889C777.765 327.889 778.787 328.305 779.549 329.139C780.311 329.972 780.691 331.082 780.691 332.469C780.691 333.966 780.32 335.128 779.578 335.955C778.836 336.782 777.791 337.195 776.443 337.195C775.206 337.195 774.204 336.85 773.436 336.16C772.667 335.47 772.228 334.503 772.117 333.26H773.24C773.351 334.23 773.68 334.965 774.227 335.467C774.773 335.962 775.512 336.209 776.443 336.209C777.459 336.209 778.224 335.887 778.738 335.242C779.259 334.598 779.52 333.68 779.52 332.488C779.52 331.447 779.23 330.597 778.65 329.939C778.071 329.282 777.28 328.953 776.277 328.953C775.724 328.953 775.242 329.025 774.832 329.168C774.422 329.305 773.989 329.575 773.533 329.979L772.605 329.715ZM796.15 326.443C796.15 327.179 795.936 327.84 795.506 328.426C795.076 329.005 794.51 329.432 793.807 329.705C794.627 329.985 795.285 330.438 795.779 331.062C796.274 331.688 796.521 332.41 796.521 333.23C796.521 334.448 796.108 335.415 795.281 336.131C794.454 336.84 793.361 337.195 792 337.195C790.626 337.195 789.526 336.84 788.699 336.131C787.879 335.421 787.469 334.454 787.469 333.23C787.469 332.423 787.706 331.704 788.182 331.072C788.657 330.441 789.308 329.985 790.135 329.705C789.432 329.432 788.872 329.005 788.455 328.426C788.038 327.84 787.83 327.179 787.83 326.443C787.83 325.265 788.208 324.327 788.963 323.631C789.725 322.934 790.73 322.586 791.98 322.586C793.23 322.586 794.236 322.938 794.998 323.641C795.766 324.344 796.15 325.278 796.15 326.443ZM795.35 333.24C795.35 332.355 795.034 331.629 794.402 331.062C793.771 330.49 792.964 330.203 791.98 330.203C790.997 330.203 790.193 330.483 789.568 331.043C788.943 331.603 788.631 332.335 788.631 333.24C788.631 334.145 788.934 334.868 789.539 335.408C790.145 335.942 790.965 336.209 792 336.209C793.009 336.209 793.82 335.942 794.432 335.408C795.044 334.874 795.35 334.152 795.35 333.24ZM794.979 326.434C794.979 325.62 794.695 324.943 794.129 324.402C793.569 323.855 792.853 323.582 791.98 323.582C791.095 323.582 790.376 323.846 789.822 324.373C789.275 324.894 789.002 325.581 789.002 326.434C789.002 327.267 789.275 327.938 789.822 328.445C790.376 328.953 791.098 329.207 791.99 329.207C792.869 329.207 793.585 328.953 794.139 328.445C794.699 327.931 794.979 327.26 794.979 326.434ZM805.76 322.674V323.699H805.623C803.924 323.699 802.586 324.201 801.609 325.203C800.633 326.199 800.092 327.586 799.988 329.363C800.379 328.823 800.877 328.406 801.482 328.113C802.088 327.814 802.765 327.664 803.514 327.664C804.764 327.664 805.757 328.097 806.492 328.963C807.234 329.822 807.605 330.949 807.605 332.342C807.605 333.266 807.433 334.1 807.088 334.842C806.743 335.584 806.248 336.163 805.604 336.58C804.959 336.99 804.223 337.195 803.396 337.195C802.036 337.195 800.929 336.704 800.076 335.721C799.223 334.731 798.797 333.455 798.797 331.893V330.721C798.797 328.175 799.376 326.206 800.535 324.812C801.694 323.413 803.338 322.7 805.467 322.674H805.76ZM803.328 328.67C802.586 328.67 801.893 328.891 801.248 329.334C800.61 329.77 800.184 330.327 799.969 331.004V332C799.969 333.237 800.285 334.246 800.916 335.027C801.554 335.809 802.381 336.199 803.396 336.199C804.308 336.199 805.044 335.838 805.604 335.115C806.17 334.393 806.453 333.481 806.453 332.381C806.453 331.261 806.17 330.363 805.604 329.686C805.044 329.008 804.285 328.67 803.328 328.67ZM810.75 329.715L811.443 322.781H818.553V323.865H812.449L811.951 328.67C812.713 328.149 813.605 327.889 814.627 327.889C815.91 327.889 816.932 328.305 817.693 329.139C818.455 329.972 818.836 331.082 818.836 332.469C818.836 333.966 818.465 335.128 817.723 335.955C816.98 336.782 815.936 337.195 814.588 337.195C813.351 337.195 812.348 336.85 811.58 336.16C810.812 335.47 810.372 334.503 810.262 333.26H811.385C811.495 334.23 811.824 334.965 812.371 335.467C812.918 335.962 813.657 336.209 814.588 336.209C815.604 336.209 816.368 335.887 816.883 335.242C817.404 334.598 817.664 333.68 817.664 332.488C817.664 331.447 817.374 330.597 816.795 329.939C816.215 329.282 815.424 328.953 814.422 328.953C813.868 328.953 813.387 329.025 812.977 329.168C812.566 329.305 812.133 329.575 811.678 329.979L810.75 329.715ZM828.23 332.42H830.447V333.406H828.23V337H827.059V333.406H820.369V332.742L826.951 322.781H828.23V332.42ZM821.805 332.42H827.059V324.295L826.541 325.193L821.805 332.42ZM839.041 322.674V323.699H838.904C837.205 323.699 835.867 324.201 834.891 325.203C833.914 326.199 833.374 327.586 833.27 329.363C833.66 328.823 834.158 328.406 834.764 328.113C835.369 327.814 836.046 327.664 836.795 327.664C838.045 327.664 839.038 328.097 839.773 328.963C840.516 329.822 840.887 330.949 840.887 332.342C840.887 333.266 840.714 334.1 840.369 334.842C840.024 335.584 839.529 336.163 838.885 336.58C838.24 336.99 837.505 337.195 836.678 337.195C835.317 337.195 834.21 336.704 833.357 335.721C832.505 334.731 832.078 333.455 832.078 331.893V330.721C832.078 328.175 832.658 326.206 833.816 324.812C834.975 323.413 836.619 322.7 838.748 322.674H839.041ZM836.609 328.67C835.867 328.67 835.174 328.891 834.529 329.334C833.891 329.77 833.465 330.327 833.25 331.004V332C833.25 333.237 833.566 334.246 834.197 335.027C834.835 335.809 835.662 336.199 836.678 336.199C837.589 336.199 838.325 335.838 838.885 335.115C839.451 334.393 839.734 333.481 839.734 332.381C839.734 331.261 839.451 330.363 838.885 329.686C838.325 329.008 837.566 328.67 836.609 328.67ZM848.895 329.715L849.588 322.781H856.697V323.865H850.594L850.096 328.67C850.857 328.149 851.749 327.889 852.771 327.889C854.054 327.889 855.076 328.305 855.838 329.139C856.6 329.972 856.98 331.082 856.98 332.469C856.98 333.966 856.609 335.128 855.867 335.955C855.125 336.782 854.08 337.195 852.732 337.195C851.495 337.195 850.493 336.85 849.725 336.16C848.956 335.47 848.517 334.503 848.406 333.26H849.529C849.64 334.23 849.969 334.965 850.516 335.467C851.062 335.962 851.801 336.209 852.732 336.209C853.748 336.209 854.513 335.887 855.027 335.242C855.548 334.598 855.809 333.68 855.809 332.488C855.809 331.447 855.519 330.597 854.939 329.939C854.36 329.282 853.569 328.953 852.566 328.953C852.013 328.953 851.531 329.025 851.121 329.168C850.711 329.305 850.278 329.575 849.822 329.979L848.895 329.715ZM866.375 332.42H868.592V333.406H866.375V337H865.203V333.406H858.514V332.742L865.096 322.781H866.375V332.42ZM859.949 332.42H865.203V324.295L864.686 325.193L859.949 332.42ZM877.469 332.42H879.686V333.406H877.469V337H876.297V333.406H869.607V332.742L876.189 322.781H877.469V332.42ZM871.043 332.42H876.297V324.295L875.779 325.193L871.043 332.42ZM882.176 329.715L882.869 322.781H889.979V323.865H883.875L883.377 328.67C884.139 328.149 885.031 327.889 886.053 327.889C887.335 327.889 888.357 328.305 889.119 329.139C889.881 329.972 890.262 331.082 890.262 332.469C890.262 333.966 889.891 335.128 889.148 335.955C888.406 336.782 887.361 337.195 886.014 337.195C884.777 337.195 883.774 336.85 883.006 336.16C882.238 335.47 881.798 334.503 881.688 333.26H882.811C882.921 334.23 883.25 334.965 883.797 335.467C884.344 335.962 885.083 336.209 886.014 336.209C887.029 336.209 887.794 335.887 888.309 335.242C888.829 334.598 889.09 333.68 889.09 332.488C889.09 331.447 888.8 330.597 888.221 329.939C887.641 329.282 886.85 328.953 885.848 328.953C885.294 328.953 884.812 329.025 884.402 329.168C883.992 329.305 883.559 329.575 883.104 329.979L882.176 329.715ZM899.373 322.674V323.699H899.236C897.537 323.699 896.199 324.201 895.223 325.203C894.246 326.199 893.706 327.586 893.602 329.363C893.992 328.823 894.49 328.406 895.096 328.113C895.701 327.814 896.378 327.664 897.127 327.664C898.377 327.664 899.37 328.097 900.105 328.963C900.848 329.822 901.219 330.949 901.219 332.342C901.219 333.266 901.046 334.1 900.701 334.842C900.356 335.584 899.861 336.163 899.217 336.58C898.572 336.99 897.837 337.195 897.01 337.195C895.649 337.195 894.542 336.704 893.689 335.721C892.837 334.731 892.41 333.455 892.41 331.893V330.721C892.41 328.175 892.99 326.206 894.148 324.812C895.307 323.413 896.951 322.7 899.08 322.674H899.373ZM896.941 328.67C896.199 328.67 895.506 328.891 894.861 329.334C894.223 329.77 893.797 330.327 893.582 331.004V332C893.582 333.237 893.898 334.246 894.529 335.027C895.167 335.809 895.994 336.199 897.01 336.199C897.921 336.199 898.657 335.838 899.217 335.115C899.783 334.393 900.066 333.481 900.066 332.381C900.066 331.261 899.783 330.363 899.217 329.686C898.657 329.008 897.898 328.67 896.941 328.67ZM911.951 326.443C911.951 327.179 911.736 327.84 911.307 328.426C910.877 329.005 910.311 329.432 909.607 329.705C910.428 329.985 911.085 330.438 911.58 331.062C912.075 331.688 912.322 332.41 912.322 333.23C912.322 334.448 911.909 335.415 911.082 336.131C910.255 336.84 909.161 337.195 907.801 337.195C906.427 337.195 905.327 336.84 904.5 336.131C903.68 335.421 903.27 334.454 903.27 333.23C903.27 332.423 903.507 331.704 903.982 331.072C904.458 330.441 905.109 329.985 905.936 329.705C905.232 329.432 904.673 329.005 904.256 328.426C903.839 327.84 903.631 327.179 903.631 326.443C903.631 325.265 904.008 324.327 904.764 323.631C905.525 322.934 906.531 322.586 907.781 322.586C909.031 322.586 910.037 322.938 910.799 323.641C911.567 324.344 911.951 325.278 911.951 326.443ZM911.15 333.24C911.15 332.355 910.835 331.629 910.203 331.062C909.572 330.49 908.764 330.203 907.781 330.203C906.798 330.203 905.994 330.483 905.369 331.043C904.744 331.603 904.432 332.335 904.432 333.24C904.432 334.145 904.734 334.868 905.34 335.408C905.945 335.942 906.766 336.209 907.801 336.209C908.81 336.209 909.62 335.942 910.232 335.408C910.844 334.874 911.15 334.152 911.15 333.24ZM910.779 326.434C910.779 325.62 910.496 324.943 909.93 324.402C909.37 323.855 908.654 323.582 907.781 323.582C906.896 323.582 906.176 323.846 905.623 324.373C905.076 324.894 904.803 325.581 904.803 326.434C904.803 327.267 905.076 327.938 905.623 328.445C906.176 328.953 906.899 329.207 907.791 329.207C908.67 329.207 909.386 328.953 909.939 328.445C910.499 327.931 910.779 327.26 910.779 326.434Z" fill="#787878"/>
<path d="M760.615 398.195C759.717 398.195 758.903 397.974 758.174 397.531C757.451 397.089 756.888 396.473 756.484 395.686C756.081 394.891 755.879 394.003 755.879 393.02V392.6C755.879 391.584 756.074 390.669 756.465 389.855C756.862 389.042 757.412 388.404 758.115 387.941C758.818 387.473 759.58 387.238 760.4 387.238C761.683 387.238 762.699 387.678 763.447 388.557C764.202 389.429 764.58 390.624 764.58 392.141V392.795H757.041V393.02C757.041 394.217 757.383 395.217 758.066 396.018C758.757 396.812 759.622 397.209 760.664 397.209C761.289 397.209 761.839 397.095 762.314 396.867C762.796 396.639 763.232 396.275 763.623 395.773L764.355 396.33C763.496 397.574 762.249 398.195 760.615 398.195ZM760.4 388.234C759.521 388.234 758.779 388.557 758.174 389.201C757.575 389.846 757.21 390.712 757.08 391.799H763.418V391.672C763.385 390.656 763.096 389.829 762.549 389.191C762.002 388.553 761.286 388.234 760.4 388.234ZM767.92 387.434L767.959 389.152C768.35 388.514 768.838 388.036 769.424 387.717C770.01 387.398 770.661 387.238 771.377 387.238C773.044 387.238 774.102 387.922 774.551 389.289C774.928 388.632 775.433 388.127 776.064 387.775C776.696 387.417 777.393 387.238 778.154 387.238C780.42 387.238 781.576 388.475 781.621 390.949V398H780.449V391.037C780.443 390.093 780.238 389.393 779.834 388.938C779.437 388.482 778.786 388.254 777.881 388.254C777.041 388.267 776.331 388.54 775.752 389.074C775.173 389.602 774.85 390.246 774.785 391.008V398H773.613V390.949C773.607 390.044 773.392 389.37 772.969 388.928C772.552 388.479 771.908 388.254 771.035 388.254C770.299 388.254 769.668 388.465 769.141 388.889C768.613 389.305 768.223 389.927 767.969 390.754V398H766.797V387.434H767.92ZM791.26 398C791.143 397.668 791.068 397.176 791.035 396.525C790.625 397.059 790.101 397.473 789.463 397.766C788.831 398.052 788.161 398.195 787.451 398.195C786.436 398.195 785.612 397.912 784.98 397.346C784.355 396.779 784.043 396.063 784.043 395.197C784.043 394.169 784.469 393.355 785.322 392.756C786.182 392.157 787.376 391.857 788.906 391.857H791.025V390.656C791.025 389.901 790.791 389.309 790.322 388.879C789.86 388.443 789.183 388.225 788.291 388.225C787.477 388.225 786.803 388.433 786.27 388.85C785.736 389.266 785.469 389.768 785.469 390.354L784.297 390.344C784.297 389.504 784.688 388.778 785.469 388.166C786.25 387.548 787.21 387.238 788.35 387.238C789.528 387.238 790.456 387.535 791.133 388.127C791.816 388.713 792.168 389.533 792.188 390.588V395.588C792.188 396.61 792.295 397.375 792.51 397.883V398H791.26ZM787.588 397.16C788.369 397.16 789.066 396.971 789.678 396.594C790.296 396.216 790.745 395.712 791.025 395.08V392.756H788.936C787.77 392.769 786.859 392.984 786.201 393.4C785.544 393.811 785.215 394.377 785.215 395.1C785.215 395.692 785.433 396.184 785.869 396.574C786.312 396.965 786.885 397.16 787.588 397.16ZM796.621 398H795.449V387.434H796.621V398ZM795.244 384.377C795.244 384.156 795.316 383.97 795.459 383.82C795.602 383.664 795.798 383.586 796.045 383.586C796.292 383.586 796.488 383.664 796.631 383.82C796.781 383.97 796.855 384.156 796.855 384.377C796.855 384.598 796.781 384.784 796.631 384.934C796.488 385.083 796.292 385.158 796.045 385.158C795.798 385.158 795.602 385.083 795.459 384.934C795.316 384.784 795.244 384.598 795.244 384.377ZM801.113 398H799.941V383H801.113V398ZM819.902 392.99C819.87 393.947 819.694 394.836 819.375 395.656C819.056 396.47 818.613 397.098 818.047 397.541C817.487 397.977 816.836 398.195 816.094 398.195C815.462 398.195 814.948 398.029 814.551 397.697C814.154 397.365 813.89 396.9 813.76 396.301C813.057 397.564 812.087 398.195 810.85 398.195C809.938 398.195 809.258 397.801 808.809 397.014C808.359 396.226 808.193 395.165 808.311 393.83C808.408 392.769 808.649 391.825 809.033 390.998C809.424 390.165 809.928 389.517 810.547 389.055C811.172 388.586 811.839 388.352 812.549 388.352C813.05 388.352 813.49 388.423 813.867 388.566C814.245 388.703 814.684 388.983 815.186 389.406L814.688 394.973C814.622 395.728 814.717 396.314 814.971 396.73C815.231 397.147 815.645 397.355 816.211 397.355C817.012 397.355 817.66 396.965 818.154 396.184C818.656 395.396 818.936 394.331 818.994 392.99C819.118 390.354 818.617 388.371 817.49 387.043C816.364 385.708 814.658 385.041 812.373 385.041C810.999 385.041 809.759 385.386 808.652 386.076C807.552 386.76 806.683 387.73 806.045 388.986C805.407 390.243 805.049 391.691 804.971 393.332C804.893 394.973 805.107 396.418 805.615 397.668C806.13 398.911 806.901 399.868 807.93 400.539C808.965 401.21 810.195 401.545 811.621 401.545C812.22 401.545 812.809 401.473 813.389 401.33C813.968 401.187 814.453 401.001 814.844 400.773L815.146 401.555C814.775 401.802 814.258 402.007 813.594 402.17C812.93 402.339 812.259 402.424 811.582 402.424C809.954 402.424 808.555 402.056 807.383 401.32C806.211 400.591 805.332 399.536 804.746 398.156C804.167 396.783 803.916 395.174 803.994 393.332C804.072 391.522 804.469 389.921 805.186 388.527C805.908 387.128 806.895 386.047 808.145 385.285C809.395 384.517 810.817 384.133 812.412 384.133C814.072 384.133 815.479 384.481 816.631 385.178C817.783 385.868 818.636 386.88 819.189 388.215C819.743 389.549 819.98 391.141 819.902 392.99ZM809.346 395.207C809.417 395.858 809.6 396.363 809.893 396.721C810.186 397.072 810.573 397.248 811.055 397.248C812.259 397.248 813.148 396.418 813.721 394.758L814.16 389.719C813.724 389.4 813.21 389.24 812.617 389.24C811.895 389.24 811.266 389.53 810.732 390.109C810.205 390.682 809.818 391.477 809.57 392.492C809.323 393.501 809.248 394.406 809.346 395.207ZM822.09 392.619C822.09 390.965 822.454 389.657 823.184 388.693C823.919 387.723 824.915 387.238 826.172 387.238C827.611 387.238 828.704 387.811 829.453 388.957L829.512 387.434H830.605V397.785C830.605 399.146 830.225 400.223 829.463 401.018C828.701 401.812 827.669 402.209 826.367 402.209C825.632 402.209 824.928 402.043 824.258 401.711C823.594 401.385 823.07 400.949 822.686 400.402L823.34 399.699C824.167 400.715 825.15 401.223 826.289 401.223C827.266 401.223 828.027 400.933 828.574 400.354C829.121 399.781 829.404 398.983 829.424 397.961V396.633C828.675 397.674 827.585 398.195 826.152 398.195C824.928 398.195 823.945 397.707 823.203 396.73C822.461 395.754 822.09 394.436 822.09 392.775V392.619ZM823.271 392.824C823.271 394.172 823.542 395.236 824.082 396.018C824.622 396.792 825.384 397.18 826.367 397.18C827.806 397.18 828.825 396.535 829.424 395.246V390.334C829.15 389.657 828.757 389.143 828.242 388.791C827.728 388.433 827.109 388.254 826.387 388.254C825.404 388.254 824.639 388.641 824.092 389.416C823.545 390.184 823.271 391.32 823.271 392.824ZM834.717 387.434L834.756 389.152C835.146 388.514 835.635 388.036 836.221 387.717C836.807 387.398 837.458 387.238 838.174 387.238C839.84 387.238 840.898 387.922 841.348 389.289C841.725 388.632 842.23 388.127 842.861 387.775C843.493 387.417 844.189 387.238 844.951 387.238C847.217 387.238 848.372 388.475 848.418 390.949V398H847.246V391.037C847.24 390.093 847.035 389.393 846.631 388.938C846.234 388.482 845.583 388.254 844.678 388.254C843.838 388.267 843.128 388.54 842.549 389.074C841.969 389.602 841.647 390.246 841.582 391.008V398H840.41V390.949C840.404 390.044 840.189 389.37 839.766 388.928C839.349 388.479 838.704 388.254 837.832 388.254C837.096 388.254 836.465 388.465 835.938 388.889C835.41 389.305 835.02 389.927 834.766 390.754V398H833.594V387.434H834.717ZM858.057 398C857.939 397.668 857.865 397.176 857.832 396.525C857.422 397.059 856.898 397.473 856.26 397.766C855.628 398.052 854.958 398.195 854.248 398.195C853.232 398.195 852.409 397.912 851.777 397.346C851.152 396.779 850.84 396.063 850.84 395.197C850.84 394.169 851.266 393.355 852.119 392.756C852.979 392.157 854.173 391.857 855.703 391.857H857.822V390.656C857.822 389.901 857.588 389.309 857.119 388.879C856.657 388.443 855.98 388.225 855.088 388.225C854.274 388.225 853.6 388.433 853.066 388.85C852.533 389.266 852.266 389.768 852.266 390.354L851.094 390.344C851.094 389.504 851.484 388.778 852.266 388.166C853.047 387.548 854.007 387.238 855.146 387.238C856.325 387.238 857.253 387.535 857.93 388.127C858.613 388.713 858.965 389.533 858.984 390.588V395.588C858.984 396.61 859.092 397.375 859.307 397.883V398H858.057ZM854.385 397.16C855.166 397.16 855.863 396.971 856.475 396.594C857.093 396.216 857.542 395.712 857.822 395.08V392.756H855.732C854.567 392.769 853.656 392.984 852.998 393.4C852.34 393.811 852.012 394.377 852.012 395.1C852.012 395.692 852.23 396.184 852.666 396.574C853.109 396.965 853.682 397.16 854.385 397.16ZM863.418 398H862.246V387.434H863.418V398ZM862.041 384.377C862.041 384.156 862.113 383.97 862.256 383.82C862.399 383.664 862.594 383.586 862.842 383.586C863.089 383.586 863.285 383.664 863.428 383.82C863.577 383.97 863.652 384.156 863.652 384.377C863.652 384.598 863.577 384.784 863.428 384.934C863.285 385.083 863.089 385.158 862.842 385.158C862.594 385.158 862.399 385.083 862.256 384.934C862.113 384.784 862.041 384.598 862.041 384.377ZM867.91 398H866.738V383H867.91V398ZM870.986 397.297C870.986 397.069 871.058 396.877 871.201 396.721C871.351 396.558 871.556 396.477 871.816 396.477C872.077 396.477 872.282 396.558 872.432 396.721C872.581 396.877 872.656 397.069 872.656 397.297C872.656 397.525 872.581 397.714 872.432 397.863C872.282 398.007 872.077 398.078 871.816 398.078C871.556 398.078 871.351 398.007 871.201 397.863C871.058 397.714 870.986 397.525 870.986 397.297ZM879.785 397.209C880.599 397.209 881.279 396.981 881.826 396.525C882.38 396.063 882.679 395.467 882.725 394.738H883.848C883.815 395.383 883.613 395.972 883.242 396.506C882.871 397.033 882.376 397.447 881.758 397.746C881.146 398.046 880.488 398.195 879.785 398.195C878.398 398.195 877.298 397.714 876.484 396.75C875.677 395.786 875.273 394.491 875.273 392.863V392.512C875.273 391.47 875.456 390.549 875.82 389.748C876.185 388.947 876.706 388.329 877.383 387.893C878.066 387.456 878.864 387.238 879.775 387.238C880.934 387.238 881.888 387.583 882.637 388.273C883.392 388.964 883.796 389.872 883.848 390.998H882.725C882.673 390.171 882.373 389.504 881.826 388.996C881.286 388.488 880.602 388.234 879.775 388.234C878.721 388.234 877.9 388.615 877.314 389.377C876.735 390.139 876.445 391.206 876.445 392.58V392.922C876.445 394.27 876.735 395.321 877.314 396.076C877.9 396.831 878.724 397.209 879.785 397.209ZM885.547 392.561C885.547 391.545 885.742 390.63 886.133 389.816C886.53 389.003 887.087 388.371 887.803 387.922C888.525 387.466 889.342 387.238 890.254 387.238C891.66 387.238 892.799 387.733 893.672 388.723C894.544 389.706 894.98 391.011 894.98 392.639V392.883C894.98 393.905 894.782 394.826 894.385 395.646C893.994 396.46 893.441 397.089 892.725 397.531C892.008 397.974 891.191 398.195 890.273 398.195C888.874 398.195 887.734 397.704 886.855 396.721C885.983 395.731 885.547 394.423 885.547 392.795V392.561ZM886.719 392.883C886.719 394.146 887.044 395.184 887.695 395.998C888.353 396.805 889.212 397.209 890.273 397.209C891.328 397.209 892.181 396.805 892.832 395.998C893.49 395.184 893.818 394.113 893.818 392.785V392.561C893.818 391.753 893.669 391.014 893.369 390.344C893.07 389.673 892.65 389.156 892.109 388.791C891.569 388.42 890.951 388.234 890.254 388.234C889.212 388.234 888.363 388.645 887.705 389.465C887.048 390.279 886.719 391.346 886.719 392.668V392.883ZM898.467 387.434L898.506 389.152C898.896 388.514 899.385 388.036 899.971 387.717C900.557 387.398 901.208 387.238 901.924 387.238C903.59 387.238 904.648 387.922 905.098 389.289C905.475 388.632 905.98 388.127 906.611 387.775C907.243 387.417 907.939 387.238 908.701 387.238C910.967 387.238 912.122 388.475 912.168 390.949V398H910.996V391.037C910.99 390.093 910.785 389.393 910.381 388.938C909.984 388.482 909.333 388.254 908.428 388.254C907.588 388.267 906.878 388.54 906.299 389.074C905.719 389.602 905.397 390.246 905.332 391.008V398H904.16V390.949C904.154 390.044 903.939 389.37 903.516 388.928C903.099 388.479 902.454 388.254 901.582 388.254C900.846 388.254 900.215 388.465 899.688 388.889C899.16 389.305 898.77 389.927 898.516 390.754V398H897.344V387.434H898.467Z" fill="#787878"/>
<path d="M779.777 460H778.605V447.188L774.738 448.623V447.529L779.582 445.732H779.777V460ZM794.338 460H785.432V459.102L790.305 453.574C791.112 452.643 791.672 451.875 791.984 451.27C792.297 450.664 792.453 450.075 792.453 449.502C792.453 448.604 792.189 447.894 791.662 447.373C791.135 446.846 790.409 446.582 789.484 446.582C788.527 446.582 787.753 446.888 787.16 447.5C786.574 448.112 786.281 448.906 786.281 449.883H785.119C785.119 449.082 785.298 448.353 785.656 447.695C786.021 447.038 786.535 446.523 787.199 446.152C787.87 445.775 788.632 445.586 789.484 445.586C790.786 445.586 791.802 445.928 792.531 446.611C793.267 447.295 793.635 448.226 793.635 449.404C793.635 450.068 793.426 450.794 793.01 451.582C792.6 452.37 791.874 453.353 790.832 454.531L786.867 459.014H794.338V460ZM799.123 452.256H800.334C801.005 452.256 801.59 452.139 802.092 451.904C802.593 451.663 802.974 451.338 803.234 450.928C803.501 450.511 803.635 450.033 803.635 449.492C803.635 448.581 803.378 447.868 802.863 447.354C802.349 446.839 801.61 446.582 800.646 446.582C799.735 446.582 798.986 446.852 798.4 447.393C797.821 447.926 797.531 448.633 797.531 449.512H796.359C796.359 448.776 796.545 448.105 796.916 447.5C797.287 446.888 797.801 446.416 798.459 446.084C799.117 445.752 799.846 445.586 800.646 445.586C801.936 445.586 802.951 445.938 803.693 446.641C804.436 447.344 804.807 448.307 804.807 449.531C804.807 450.215 804.589 450.846 804.152 451.426C803.723 451.999 803.13 452.428 802.375 452.715C803.26 452.962 803.931 453.389 804.387 453.994C804.842 454.593 805.07 455.309 805.07 456.143C805.07 457.36 804.673 458.34 803.879 459.082C803.085 459.824 802.023 460.195 800.695 460.195C799.849 460.195 799.071 460.026 798.361 459.688C797.658 459.349 797.111 458.877 796.721 458.271C796.337 457.66 796.145 456.95 796.145 456.143H797.316C797.316 457.048 797.632 457.786 798.264 458.359C798.895 458.926 799.706 459.209 800.695 459.209C801.704 459.209 802.489 458.952 803.049 458.438C803.615 457.917 803.898 457.165 803.898 456.182C803.898 455.231 803.592 454.505 802.98 454.004C802.375 453.503 801.48 453.252 800.295 453.252H799.123V452.256ZM822.199 446.807H817.326V460H816.125V446.807H811.262V445.781H822.199V446.807ZM832.736 454.824C832.736 456.471 832.372 457.78 831.643 458.75C830.913 459.714 829.934 460.195 828.703 460.195C827.232 460.195 826.118 459.648 825.363 458.555L825.314 460H824.221V445H825.383V450.967C826.125 449.814 827.225 449.238 828.684 449.238C829.934 449.238 830.92 449.717 831.643 450.674C832.372 451.624 832.736 452.949 832.736 454.648V454.824ZM831.564 454.619C831.564 453.226 831.294 452.152 830.754 451.396C830.214 450.635 829.452 450.254 828.469 450.254C827.72 450.254 827.085 450.439 826.564 450.811C826.044 451.175 825.65 451.712 825.383 452.422V457.188C825.969 458.516 827.004 459.18 828.488 459.18C829.452 459.18 830.204 458.799 830.744 458.037C831.291 457.275 831.564 456.136 831.564 454.619ZM836.633 460H835.461V449.434H836.633V460ZM835.256 446.377C835.256 446.156 835.327 445.97 835.471 445.82C835.614 445.664 835.809 445.586 836.057 445.586C836.304 445.586 836.499 445.664 836.643 445.82C836.792 445.97 836.867 446.156 836.867 446.377C836.867 446.598 836.792 446.784 836.643 446.934C836.499 447.083 836.304 447.158 836.057 447.158C835.809 447.158 835.614 447.083 835.471 446.934C835.327 446.784 835.256 446.598 835.256 446.377ZM841.125 460H839.953V445H841.125V460ZM845.617 460H844.445V449.434H845.617V460ZM844.24 446.377C844.24 446.156 844.312 445.97 844.455 445.82C844.598 445.664 844.794 445.586 845.041 445.586C845.288 445.586 845.484 445.664 845.627 445.82C845.777 445.97 845.852 446.156 845.852 446.377C845.852 446.598 845.777 446.784 845.627 446.934C845.484 447.083 845.288 447.158 845.041 447.158C844.794 447.158 844.598 447.083 844.455 446.934C844.312 446.784 844.24 446.598 844.24 446.377ZM855.129 457.314C855.129 456.735 854.895 456.27 854.426 455.918C853.964 455.566 853.264 455.293 852.326 455.098C851.389 454.896 850.66 454.668 850.139 454.414C849.624 454.154 849.24 453.838 848.986 453.467C848.739 453.096 848.615 452.646 848.615 452.119C848.615 451.286 848.964 450.599 849.66 450.059C850.357 449.512 851.249 449.238 852.336 449.238C853.514 449.238 854.458 449.531 855.168 450.117C855.884 450.697 856.242 451.455 856.242 452.393H855.07C855.07 451.774 854.81 451.26 854.289 450.85C853.775 450.439 853.124 450.234 852.336 450.234C851.568 450.234 850.949 450.407 850.48 450.752C850.018 451.09 849.787 451.533 849.787 452.08C849.787 452.607 849.979 453.018 850.363 453.311C850.754 453.597 851.46 453.861 852.482 454.102C853.511 454.342 854.279 454.6 854.787 454.873C855.301 455.146 855.682 455.475 855.93 455.859C856.177 456.243 856.301 456.709 856.301 457.256C856.301 458.148 855.939 458.861 855.217 459.395C854.501 459.928 853.563 460.195 852.404 460.195C851.174 460.195 850.174 459.899 849.406 459.307C848.645 458.708 848.264 457.952 848.264 457.041H849.436C849.481 457.725 849.768 458.258 850.295 458.643C850.829 459.02 851.532 459.209 852.404 459.209C853.218 459.209 853.876 459.03 854.377 458.672C854.878 458.314 855.129 457.861 855.129 457.314ZM860.246 460H859.074V449.434H860.246V460ZM858.869 446.377C858.869 446.156 858.941 445.97 859.084 445.82C859.227 445.664 859.423 445.586 859.67 445.586C859.917 445.586 860.113 445.664 860.256 445.82C860.406 445.97 860.48 446.156 860.48 446.377C860.48 446.598 860.406 446.784 860.256 446.934C860.113 447.083 859.917 447.158 859.67 447.158C859.423 447.158 859.227 447.083 859.084 446.934C858.941 446.784 858.869 446.598 858.869 446.377ZM874.963 460C874.846 459.668 874.771 459.176 874.738 458.525C874.328 459.059 873.804 459.473 873.166 459.766C872.535 460.052 871.864 460.195 871.154 460.195C870.139 460.195 869.315 459.912 868.684 459.346C868.059 458.779 867.746 458.063 867.746 457.197C867.746 456.169 868.173 455.355 869.025 454.756C869.885 454.157 871.079 453.857 872.609 453.857H874.729V452.656C874.729 451.901 874.494 451.309 874.025 450.879C873.563 450.443 872.886 450.225 871.994 450.225C871.18 450.225 870.507 450.433 869.973 450.85C869.439 451.266 869.172 451.768 869.172 452.354L868 452.344C868 451.504 868.391 450.778 869.172 450.166C869.953 449.548 870.913 449.238 872.053 449.238C873.231 449.238 874.159 449.535 874.836 450.127C875.52 450.713 875.871 451.533 875.891 452.588V457.588C875.891 458.61 875.998 459.375 876.213 459.883V460H874.963ZM871.291 459.16C872.072 459.16 872.769 458.971 873.381 458.594C873.999 458.216 874.449 457.712 874.729 457.08V454.756H872.639C871.473 454.769 870.562 454.984 869.904 455.4C869.247 455.811 868.918 456.377 868.918 457.1C868.918 457.692 869.136 458.184 869.572 458.574C870.015 458.965 870.588 459.16 871.291 459.16ZM882.15 458.389L885.363 449.434H886.564L882.619 460H881.672L877.707 449.434H878.908L882.15 458.389ZM892.443 460.195C891.545 460.195 890.731 459.974 890.002 459.531C889.279 459.089 888.716 458.473 888.312 457.686C887.909 456.891 887.707 456.003 887.707 455.02V454.6C887.707 453.584 887.902 452.669 888.293 451.855C888.69 451.042 889.24 450.404 889.943 449.941C890.646 449.473 891.408 449.238 892.229 449.238C893.511 449.238 894.527 449.678 895.275 450.557C896.031 451.429 896.408 452.624 896.408 454.141V454.795H888.869V455.02C888.869 456.217 889.211 457.217 889.895 458.018C890.585 458.812 891.451 459.209 892.492 459.209C893.117 459.209 893.667 459.095 894.143 458.867C894.624 458.639 895.061 458.275 895.451 457.773L896.184 458.33C895.324 459.574 894.077 460.195 892.443 460.195ZM892.229 450.234C891.35 450.234 890.607 450.557 890.002 451.201C889.403 451.846 889.038 452.712 888.908 453.799H895.246V453.672C895.214 452.656 894.924 451.829 894.377 451.191C893.83 450.553 893.114 450.234 892.229 450.234ZM908.801 460H907.629V447.188L903.762 448.623V447.529L908.605 445.732H908.801V460Z" fill="#787878"/>
<path d="M757.865 478.566C757.702 480.064 757.165 481.21 756.254 482.004C755.349 482.798 754.141 483.195 752.631 483.195C751.576 483.195 750.642 482.932 749.828 482.404C749.021 481.877 748.396 481.132 747.953 480.168C747.51 479.198 747.286 478.091 747.279 476.848V475.002C747.279 473.739 747.501 472.619 747.943 471.643C748.386 470.666 749.021 469.914 749.848 469.387C750.681 468.853 751.638 468.586 752.719 468.586C754.242 468.586 755.443 468.999 756.322 469.826C757.208 470.646 757.722 471.783 757.865 473.234H756.654C756.355 470.819 755.043 469.611 752.719 469.611C751.43 469.611 750.401 470.093 749.633 471.057C748.871 472.02 748.49 473.352 748.49 475.051V476.789C748.49 478.43 748.861 479.738 749.604 480.715C750.352 481.691 751.361 482.18 752.631 482.18C753.887 482.18 754.835 481.88 755.473 481.281C756.111 480.676 756.505 479.771 756.654 478.566H757.865ZM761.674 474.221C762.058 473.589 762.549 473.101 763.148 472.756C763.747 472.411 764.402 472.238 765.111 472.238C766.244 472.238 767.087 472.557 767.641 473.195C768.194 473.833 768.474 474.79 768.48 476.066V483H767.318V476.057C767.312 475.113 767.11 474.41 766.713 473.947C766.322 473.485 765.694 473.254 764.828 473.254C764.105 473.254 763.464 473.482 762.904 473.938C762.351 474.387 761.941 474.995 761.674 475.764V483H760.512V468H761.674V474.221ZM778.158 483C778.041 482.668 777.966 482.176 777.934 481.525C777.523 482.059 776.999 482.473 776.361 482.766C775.73 483.052 775.059 483.195 774.35 483.195C773.334 483.195 772.51 482.912 771.879 482.346C771.254 481.779 770.941 481.063 770.941 480.197C770.941 479.169 771.368 478.355 772.221 477.756C773.08 477.157 774.275 476.857 775.805 476.857H777.924V475.656C777.924 474.901 777.689 474.309 777.221 473.879C776.758 473.443 776.081 473.225 775.189 473.225C774.376 473.225 773.702 473.433 773.168 473.85C772.634 474.266 772.367 474.768 772.367 475.354L771.195 475.344C771.195 474.504 771.586 473.778 772.367 473.166C773.148 472.548 774.109 472.238 775.248 472.238C776.426 472.238 777.354 472.535 778.031 473.127C778.715 473.713 779.066 474.533 779.086 475.588V480.588C779.086 481.61 779.193 482.375 779.408 482.883V483H778.158ZM774.486 482.16C775.268 482.16 775.964 481.971 776.576 481.594C777.195 481.216 777.644 480.712 777.924 480.08V477.756H775.834C774.669 477.769 773.757 477.984 773.1 478.4C772.442 478.811 772.113 479.377 772.113 480.1C772.113 480.692 772.331 481.184 772.768 481.574C773.21 481.965 773.783 482.16 774.486 482.16ZM785.346 481.389L788.559 472.434H789.76L785.814 483H784.867L780.902 472.434H782.104L785.346 481.389ZM795.453 482.209C796.267 482.209 796.947 481.981 797.494 481.525C798.048 481.063 798.347 480.467 798.393 479.738H799.516C799.483 480.383 799.281 480.972 798.91 481.506C798.539 482.033 798.044 482.447 797.426 482.746C796.814 483.046 796.156 483.195 795.453 483.195C794.066 483.195 792.966 482.714 792.152 481.75C791.345 480.786 790.941 479.491 790.941 477.863V477.512C790.941 476.47 791.124 475.549 791.488 474.748C791.853 473.947 792.374 473.329 793.051 472.893C793.734 472.456 794.532 472.238 795.443 472.238C796.602 472.238 797.556 472.583 798.305 473.273C799.06 473.964 799.464 474.872 799.516 475.998H798.393C798.34 475.171 798.041 474.504 797.494 473.996C796.954 473.488 796.27 473.234 795.443 473.234C794.389 473.234 793.568 473.615 792.982 474.377C792.403 475.139 792.113 476.206 792.113 477.58V477.922C792.113 479.27 792.403 480.321 792.982 481.076C793.568 481.831 794.392 482.209 795.453 482.209ZM803.021 474.221C803.406 473.589 803.897 473.101 804.496 472.756C805.095 472.411 805.749 472.238 806.459 472.238C807.592 472.238 808.435 472.557 808.988 473.195C809.542 473.833 809.822 474.79 809.828 476.066V483H808.666V476.057C808.66 475.113 808.458 474.41 808.061 473.947C807.67 473.485 807.042 473.254 806.176 473.254C805.453 473.254 804.812 473.482 804.252 473.938C803.699 474.387 803.288 474.995 803.021 475.764V483H801.859V468H803.021V474.221ZM819.506 483C819.389 482.668 819.314 482.176 819.281 481.525C818.871 482.059 818.347 482.473 817.709 482.766C817.077 483.052 816.407 483.195 815.697 483.195C814.682 483.195 813.858 482.912 813.227 482.346C812.602 481.779 812.289 481.063 812.289 480.197C812.289 479.169 812.715 478.355 813.568 477.756C814.428 477.157 815.622 476.857 817.152 476.857H819.271V475.656C819.271 474.901 819.037 474.309 818.568 473.879C818.106 473.443 817.429 473.225 816.537 473.225C815.723 473.225 815.049 473.433 814.516 473.85C813.982 474.266 813.715 474.768 813.715 475.354L812.543 475.344C812.543 474.504 812.934 473.778 813.715 473.166C814.496 472.548 815.456 472.238 816.596 472.238C817.774 472.238 818.702 472.535 819.379 473.127C820.062 473.713 820.414 474.533 820.434 475.588V480.588C820.434 481.61 820.541 482.375 820.756 482.883V483H819.506ZM815.834 482.16C816.615 482.16 817.312 481.971 817.924 481.594C818.542 481.216 818.992 480.712 819.271 480.08V477.756H817.182C816.016 477.769 815.105 477.984 814.447 478.4C813.79 478.811 813.461 479.377 813.461 480.1C813.461 480.692 813.679 481.184 814.115 481.574C814.558 481.965 815.131 482.16 815.834 482.16ZM826.693 481.389L829.906 472.434H831.107L827.162 483H826.215L822.25 472.434H823.451L826.693 481.389ZM839.545 483C839.428 482.668 839.353 482.176 839.32 481.525C838.91 482.059 838.386 482.473 837.748 482.766C837.117 483.052 836.446 483.195 835.736 483.195C834.721 483.195 833.897 482.912 833.266 482.346C832.641 481.779 832.328 481.063 832.328 480.197C832.328 479.169 832.755 478.355 833.607 477.756C834.467 477.157 835.661 476.857 837.191 476.857H839.311V475.656C839.311 474.901 839.076 474.309 838.607 473.879C838.145 473.443 837.468 473.225 836.576 473.225C835.762 473.225 835.089 473.433 834.555 473.85C834.021 474.266 833.754 474.768 833.754 475.354L832.582 475.344C832.582 474.504 832.973 473.778 833.754 473.166C834.535 472.548 835.495 472.238 836.635 472.238C837.813 472.238 838.741 472.535 839.418 473.127C840.102 473.713 840.453 474.533 840.473 475.588V480.588C840.473 481.61 840.58 482.375 840.795 482.883V483H839.545ZM835.873 482.16C836.654 482.16 837.351 481.971 837.963 481.594C838.581 481.216 839.031 480.712 839.311 480.08V477.756H837.221C836.055 477.769 835.144 477.984 834.486 478.4C833.829 478.811 833.5 479.377 833.5 480.1C833.5 480.692 833.718 481.184 834.154 481.574C834.597 481.965 835.17 482.16 835.873 482.16ZM843.129 477.619C843.129 475.979 843.493 474.673 844.223 473.703C844.958 472.727 845.954 472.238 847.211 472.238C848.637 472.238 849.724 472.801 850.473 473.928V468H851.635V483H850.541L850.492 481.594C849.743 482.661 848.643 483.195 847.191 483.195C845.974 483.195 844.991 482.707 844.242 481.73C843.5 480.747 843.129 479.423 843.129 477.756V477.619ZM844.311 477.824C844.311 479.172 844.581 480.236 845.121 481.018C845.661 481.792 846.423 482.18 847.406 482.18C848.845 482.18 849.867 481.545 850.473 480.275V475.314C849.867 473.941 848.852 473.254 847.426 473.254C846.443 473.254 845.678 473.641 845.131 474.416C844.584 475.184 844.311 476.32 844.311 477.824ZM855.482 482.014H862.348V483H854.037V482.141L860.443 473.439H854.232V472.434H861.918V473.303L855.482 482.014ZM868.373 483.195C867.475 483.195 866.661 482.974 865.932 482.531C865.209 482.089 864.646 481.473 864.242 480.686C863.839 479.891 863.637 479.003 863.637 478.02V477.6C863.637 476.584 863.832 475.669 864.223 474.855C864.62 474.042 865.17 473.404 865.873 472.941C866.576 472.473 867.338 472.238 868.158 472.238C869.441 472.238 870.456 472.678 871.205 473.557C871.96 474.429 872.338 475.624 872.338 477.141V477.795H864.799V478.02C864.799 479.217 865.141 480.217 865.824 481.018C866.514 481.812 867.38 482.209 868.422 482.209C869.047 482.209 869.597 482.095 870.072 481.867C870.554 481.639 870.99 481.275 871.381 480.773L872.113 481.33C871.254 482.574 870.007 483.195 868.373 483.195ZM868.158 473.234C867.279 473.234 866.537 473.557 865.932 474.201C865.333 474.846 864.968 475.712 864.838 476.799H871.176V476.672C871.143 475.656 870.854 474.829 870.307 474.191C869.76 473.553 869.044 473.234 868.158 473.234ZM884.73 483H883.559V470.188L879.691 471.623V470.529L884.535 468.732H884.73V483ZM899.291 483H890.385V482.102L895.258 476.574C896.065 475.643 896.625 474.875 896.938 474.27C897.25 473.664 897.406 473.075 897.406 472.502C897.406 471.604 897.143 470.894 896.615 470.373C896.088 469.846 895.362 469.582 894.438 469.582C893.48 469.582 892.706 469.888 892.113 470.5C891.527 471.112 891.234 471.906 891.234 472.883H890.072C890.072 472.082 890.251 471.353 890.609 470.695C890.974 470.038 891.488 469.523 892.152 469.152C892.823 468.775 893.585 468.586 894.438 468.586C895.74 468.586 896.755 468.928 897.484 469.611C898.22 470.295 898.588 471.226 898.588 472.404C898.588 473.068 898.38 473.794 897.963 474.582C897.553 475.37 896.827 476.353 895.785 477.531L891.82 482.014H899.291V483ZM904.076 475.256H905.287C905.958 475.256 906.544 475.139 907.045 474.904C907.546 474.663 907.927 474.338 908.188 473.928C908.454 473.511 908.588 473.033 908.588 472.492C908.588 471.581 908.331 470.868 907.816 470.354C907.302 469.839 906.563 469.582 905.6 469.582C904.688 469.582 903.939 469.852 903.354 470.393C902.774 470.926 902.484 471.633 902.484 472.512H901.312C901.312 471.776 901.498 471.105 901.869 470.5C902.24 469.888 902.755 469.416 903.412 469.084C904.07 468.752 904.799 468.586 905.6 468.586C906.889 468.586 907.904 468.938 908.646 469.641C909.389 470.344 909.76 471.307 909.76 472.531C909.76 473.215 909.542 473.846 909.105 474.426C908.676 474.999 908.083 475.428 907.328 475.715C908.214 475.962 908.884 476.389 909.34 476.994C909.796 477.593 910.023 478.309 910.023 479.143C910.023 480.36 909.626 481.34 908.832 482.082C908.038 482.824 906.977 483.195 905.648 483.195C904.802 483.195 904.024 483.026 903.314 482.688C902.611 482.349 902.064 481.877 901.674 481.271C901.29 480.66 901.098 479.95 901.098 479.143H902.27C902.27 480.048 902.585 480.786 903.217 481.359C903.848 481.926 904.659 482.209 905.648 482.209C906.658 482.209 907.442 481.952 908.002 481.438C908.568 480.917 908.852 480.165 908.852 479.182C908.852 478.231 908.546 477.505 907.934 477.004C907.328 476.503 906.433 476.252 905.248 476.252H904.076V475.256Z" fill="#787878"/>
<rect x="685" y="205" width="291" height="4" fill="#BABABA"/>
<rect x="823" y="205" width="153" height="4" fill="#0F73EF"/>
<rect x="931" y="295" width="45" height="44" rx="5" fill="#0F73EF"/>
<rect x="931" y="443" width="45" height="44" rx="5" fill="#0F73EF"/>
<rect x="931" y="369" width="45" height="44" rx="5" fill="#0F73EF"/>
<rect x="1024" y="300" width="38" height="188" fill="#0F73EF"/>
<path d="M958.343 322.48L960.583 320.24C960.885 319.942 961.267 319.738 961.682 319.653C962.097 319.568 962.529 319.605 962.923 319.76L965.653 320.85C966.052 321.012 966.394 321.288 966.636 321.644C966.878 322 967.009 322.42 967.013 322.85V327.85C967.011 328.143 966.949 328.432 966.832 328.7C966.715 328.969 966.545 329.211 966.332 329.412C966.119 329.612 965.868 329.768 965.593 329.869C965.318 329.97 965.026 330.015 964.733 330C945.603 328.81 941.743 312.61 941.013 306.41C940.979 306.106 941.01 305.797 941.104 305.506C941.198 305.214 941.352 304.946 941.557 304.718C941.762 304.49 942.013 304.309 942.293 304.185C942.574 304.061 942.877 303.998 943.183 304H948.013C948.444 304.001 948.865 304.132 949.222 304.374C949.578 304.616 949.854 304.96 950.013 305.36L951.103 308.09C951.264 308.483 951.304 308.915 951.221 309.331C951.137 309.747 950.933 310.129 950.633 310.43L948.393 312.67C948.393 312.67 949.683 321.4 958.343 322.48Z" fill="white"/>
<path d="M967.47 386.934C967.683 386.765 968 386.923 968 387.191V398.375C968 399.824 966.824 401 965.375 401H942.625C941.176 401 940 399.824 940 398.375V387.197C940 386.923 940.312 386.77 940.53 386.94C941.755 387.891 943.38 389.1 948.958 393.152C950.112 393.995 952.059 395.766 954 395.755C955.952 395.772 957.938 393.962 959.048 393.152C964.626 389.1 966.245 387.886 967.47 386.934ZM954 394C955.269 394.022 957.095 392.403 958.014 391.736C965.271 386.47 965.823 386.01 967.497 384.698C967.814 384.452 968 384.069 968 383.664V382.625C968 381.176 966.824 380 965.375 380H942.625C941.176 380 940 381.176 940 382.625V383.664C940 384.069 940.186 384.446 940.503 384.698C942.177 386.005 942.729 386.47 949.986 391.736C950.905 392.403 952.731 394.022 954 394Z" fill="white"/>
<path d="M953.5 452C959.299 452 964 456.701 964 462.5C964 466.937 960.882 471.772 954.728 477.058C954.385 477.352 953.949 477.513 953.498 477.513C953.047 477.513 952.611 477.35 952.269 477.056L951.862 476.702C945.98 471.555 943 466.838 943 462.5C943 456.701 947.701 452 953.5 452ZM953.5 458.462C952.429 458.462 951.402 458.887 950.644 459.644C949.887 460.402 949.462 461.429 949.462 462.5C949.462 463.571 949.887 464.598 950.644 465.356C951.402 466.113 952.429 466.538 953.5 466.538C954.571 466.538 955.598 466.113 956.356 465.356C957.113 464.598 957.538 463.571 957.538 462.5C957.538 461.429 957.113 460.402 956.356 459.644C955.598 458.887 954.571 458.462 953.5 458.462Z" fill="white"/>
<rect y="549" width="645" height="51" fill="black"/>
<path d="M552.19 517L461 601L1050 599.849V517H552.19Z" fill="#0F73EF"/>
</g>
<defs>
<clipPath id="clip0">
<rect width="1050" height="600" fill="white"/>
</clipPath>
</defs>
</svg>
