<svg width="1050" height="600" viewBox="0 0 1050 600" fill="none" xmlns="http://www.w3.org/2000/svg">
<rect width="1050" height="600" fill="#E6653B"/>
<path d="M748.793 178.233V330.313C748.786 341.748 745.774 352.981 740.057 362.885C734.341 372.789 726.122 381.016 716.224 386.742L706.141 392.549L706.088 392.602H706.036C705.983 392.602 705.93 392.655 705.824 392.707L557.967 478.064C548.052 483.771 536.812 486.774 525.371 486.774C513.931 486.774 502.691 483.771 492.775 478.064L334.625 386.742C323.574 380.368 314.649 370.875 308.97 359.451C308.912 359.338 308.841 359.232 308.759 359.135C308.737 359.074 308.701 359.02 308.653 358.976V358.923C308.623 358.896 308.604 358.859 308.6 358.818C304.261 349.942 302.004 340.192 302.002 330.313V180.45C301.977 177.622 302.189 174.796 302.636 172.004C330.091 226.099 376.171 268.449 432.387 291.25V292.623L499.532 331.421C507.406 335.96 516.335 338.349 525.424 338.349C534.513 338.349 543.442 335.96 551.316 331.421L618.462 292.623V292.253C674.4 270.239 720.613 228.932 748.74 175.805C748.793 176.649 748.793 177.415 748.793 178.233Z" fill="#404155"/>
<path d="M432.385 178.231V291.249C376.17 268.447 330.09 226.097 302.634 172.002C302.947 169.319 303.422 166.657 304.06 164.031C305.665 157.398 308.264 151.044 311.767 145.186C317.026 136.095 324.424 128.425 333.319 122.841C342.215 117.257 352.338 113.929 362.812 113.144C371.724 112.55 380.663 113.793 389.076 116.795C397.488 119.797 405.194 124.494 411.717 130.596C418.239 136.698 423.44 144.075 426.995 152.269C430.551 160.462 432.385 169.299 432.385 178.231Z" fill="#F7BC94"/>
<path d="M748.738 175.828C720.611 228.956 674.398 270.262 618.46 292.277V180.473C618.258 163.65 624.416 147.371 635.7 134.892C646.985 122.414 662.565 114.656 679.323 113.17C691.197 112.363 703.064 114.828 713.635 120.296C713.649 120.296 713.662 120.302 713.672 120.311C713.682 120.321 713.688 120.335 713.688 120.349C713.736 120.377 713.791 120.395 713.846 120.402C722.421 124.914 729.886 131.276 735.701 139.027C741.516 146.777 745.537 155.723 747.472 165.218C748.192 168.712 748.616 172.262 748.738 175.828Z" fill="#F7BC94"/>
<g style="mix-blend-mode:multiply" opacity="0.08">
<g style="mix-blend-mode:multiply" opacity="0.08">
<path d="M432.385 239.488V291.272C376.17 268.471 330.09 226.12 302.634 172.026C302.947 169.342 303.422 166.68 304.06 164.055C331.456 184.219 380.364 217.423 432.385 239.488Z" fill="black"/>
</g>
</g>
<g style="mix-blend-mode:multiply" opacity="0.08">
<g style="mix-blend-mode:multiply" opacity="0.08">
<path d="M748.74 175.83C720.612 228.958 674.399 270.264 618.461 292.279V239.703C664.02 219.59 707.274 194.618 747.473 165.22C748.193 168.714 748.617 172.264 748.74 175.83Z" fill="black"/>
</g>
</g>
<g style="mix-blend-mode:screen" opacity="0.4">
<g style="mix-blend-mode:screen" opacity="0.4">
<path d="M732.957 330.129V330.34C732.934 338.991 730.646 347.485 726.321 354.977C721.996 362.47 715.785 368.699 708.305 373.045L550.049 464.367C542.543 468.69 534.033 470.966 525.371 470.966C516.709 470.966 508.199 468.69 500.693 464.367L377.699 393.368L377.276 393.104L342.542 373.045C335.632 369.042 329.791 363.429 325.517 356.682C321.244 349.936 318.663 342.257 317.996 334.299C376.804 376.216 447.068 399.06 519.283 399.74C591.497 400.42 662.179 378.903 721.766 338.1L722.294 337.731L722.558 337.572C726.121 335.144 729.525 332.663 732.957 330.129Z" fill="white"/>
</g>
</g>
<g style="mix-blend-mode:screen" opacity="0.6">
<g style="mix-blend-mode:screen" opacity="0.6">
<path d="M308.654 358.945C308.707 358.998 308.707 359.05 308.76 359.156C308.737 359.096 308.701 359.041 308.654 358.998V358.945Z" fill="white"/>
</g>
</g>
<g style="mix-blend-mode:multiply" opacity="0.25">
<g style="mix-blend-mode:multiply" opacity="0.25">
<path d="M705.824 392.727L557.967 478.084C548.052 483.79 536.812 486.793 525.371 486.793C513.93 486.793 502.69 483.79 492.775 478.084L334.624 386.762C323.573 380.388 314.649 370.894 308.97 359.471C309.392 360.21 310.184 361.477 311.345 363.219C314.117 367.171 317.283 370.832 320.794 374.146C326.22 379.202 332.422 383.354 339.164 386.445C346.977 390.457 355.792 394.997 365.294 400.117C384.455 410.146 406.626 422.129 430.222 435.22C441.994 441.819 454.24 448.47 466.54 455.543C472.716 459.08 478.892 462.617 485.121 466.154L494.464 471.485C497.306 473.166 500.27 474.631 503.332 475.867C515.349 480.856 528.688 481.692 541.234 478.242C547.495 476.445 553.48 473.798 559.023 470.377C565.093 466.998 571.058 463.673 576.971 460.4C600.619 447.309 622.79 435.326 641.899 425.296C677.741 406.267 702.815 394.126 705.824 392.727Z" fill="black"/>
</g>
</g>
<g style="mix-blend-mode:multiply" opacity="0.25">
<g style="mix-blend-mode:multiply" opacity="0.25">
<path d="M748.739 175.826L743.83 185.856L738.446 195.727L732.586 205.281L726.252 214.572L719.442 223.546L712.263 232.256L704.609 240.596L696.585 248.567L688.192 256.168L679.43 263.4L670.35 270.21L660.954 276.597L651.241 282.562L641.264 288.104L631.024 293.119L623.581 296.339L621.364 297.659C606.372 306.58 591.433 315.607 576.336 324.369L553.585 337.566C544.965 342.375 535.267 344.917 525.396 344.956C520.48 344.933 515.585 344.294 510.827 343.056C508.462 342.417 506.135 341.641 503.859 340.733C501.615 339.831 499.429 338.791 497.314 337.619L474.51 324.369C459.412 315.607 444.474 306.58 429.482 297.712L426.526 295.97V295.02L419.664 291.958L409.423 286.785L399.446 281.084L389.733 274.96L380.337 268.362L371.205 261.394L362.495 254.004L354.155 246.191L346.184 238.062L338.583 229.511L331.456 220.642L324.699 211.51L318.471 202.009L312.664 192.296L307.385 182.266L302.634 172.025L308.494 181.685L314.723 190.976L321.321 200.055L328.236 208.818L335.521 217.264L343.122 225.393L351.093 233.153L359.275 240.596L367.827 247.669L376.695 254.321L385.721 260.655L395.065 266.515L404.619 272.004L414.438 277.072L424.415 281.717L432.385 284.99V292.644L499.531 331.443C507.405 335.981 516.334 338.371 525.423 338.371C534.512 338.371 543.441 335.981 551.315 331.443L618.46 292.644V286.046L626.484 282.826L636.408 278.339L646.174 273.482L655.728 268.151L665.019 262.397L674.098 256.274L682.966 249.781L691.518 242.919L699.753 235.634L707.724 228.033L715.431 220.115L722.768 211.827L729.789 203.275L736.44 194.407L742.774 185.222L748.739 175.826Z" fill="black"/>
</g>
</g>
<g style="mix-blend-mode:screen" opacity="0.4">
<g style="mix-blend-mode:screen" opacity="0.4">
<path d="M721.766 338.095L711.631 345.433L700.334 352.823C692.627 357.574 684.797 362.043 676.844 366.231C668.82 370.401 660.621 374.202 652.245 377.633C643.869 381.064 635.388 384.196 626.802 387.029C609.592 392.726 591.935 396.963 574.014 399.698C565.041 401.123 556.014 402.126 546.934 402.812C537.697 403.551 528.934 403.815 519.749 403.762C510.67 403.762 501.59 403.34 492.511 402.654L478.945 401.281L465.484 399.381L452.076 396.9L438.773 393.944L425.629 390.46L412.591 386.395L399.764 381.856L387.148 376.788L374.69 371.245L362.496 365.228L350.619 358.629L338.953 351.609L327.603 344.166L321.216 339.626C323.547 351.77 330.37 362.589 340.325 369.926C343.334 372.037 346.448 373.832 349.616 375.838L359.012 381.592L377.276 393.099L342.542 373.04C335.632 369.037 329.791 363.424 325.517 356.678C321.244 349.932 318.663 342.253 317.996 334.294C376.804 376.212 447.068 399.055 519.283 399.735C591.497 400.415 662.179 378.898 721.766 338.095Z" fill="white"/>
</g>
</g>
<g style="mix-blend-mode:screen" opacity="0.5">
<g style="mix-blend-mode:screen" opacity="0.5">
<path d="M432.389 178.231V228.749C432.389 228.749 430.594 214.971 429.38 194.331C429.011 189.211 428.694 183.563 428.43 177.703C428.028 171.922 426.911 166.213 425.104 160.706C421.095 148.848 413.677 138.437 403.778 130.775C398.778 126.938 393.248 123.844 387.362 121.59C381.653 119.555 375.712 118.242 369.678 117.684C368.041 117.684 366.458 117.631 364.874 117.631L362.763 117.579L360.598 117.737C357.776 117.885 354.969 118.255 352.205 118.845C347.054 119.943 342.055 121.662 337.319 123.966C330.078 127.55 323.507 132.354 317.894 138.166C315.835 140.33 314.251 142.072 313.248 143.339C312.509 144.289 311.981 144.922 311.77 145.186C317.029 136.095 324.427 128.425 333.323 122.841C342.218 117.257 352.342 113.929 362.816 113.144C371.728 112.55 380.667 113.793 389.079 116.795C397.491 119.797 405.198 124.494 411.721 130.596C418.243 136.698 423.443 144.075 426.998 152.269C430.554 160.462 432.389 169.299 432.389 178.231Z" fill="white"/>
</g>
</g>
<g style="mix-blend-mode:screen" opacity="0.5">
<g style="mix-blend-mode:screen" opacity="0.5">
<path d="M713.635 120.296C713.002 120.085 710.679 119.346 706.984 118.448C701.091 117.017 695.048 116.291 688.983 116.284C685.017 116.304 681.06 116.675 677.159 117.393C675.052 117.722 672.971 118.199 670.93 118.818C669.927 119.135 668.871 119.399 667.816 119.715C666.76 120.032 665.704 120.507 664.648 120.877C660.397 122.608 656.315 124.728 652.455 127.211C648.529 129.856 644.901 132.918 641.633 136.343C638.291 139.698 635.334 143.417 632.818 147.429C630.346 151.353 628.26 155.507 626.589 159.834C625.76 161.883 625.054 163.981 624.477 166.115C623.848 168.121 623.354 170.167 622.999 172.239C622.568 174.296 622.251 176.375 622.049 178.468L621.891 179.998C621.838 180.21 621.785 180.632 621.785 180.632L621.732 181.371C621.627 182.374 621.574 183.377 621.468 184.327C620.202 199.846 618.46 210.14 618.46 210.14V180.473C618.258 163.65 624.416 147.371 635.7 134.892C646.985 122.414 662.565 114.656 679.323 113.17C691.197 112.363 703.064 114.828 713.635 120.296Z" fill="white"/>
</g>
</g>
</svg>
