<svg width="1050" height="600" viewBox="0 0 1050 600" fill="none" xmlns="http://www.w3.org/2000/svg">
<g clip-path="url(#clip0)">
<rect width="1050" height="600" fill="#292F38"/>
<g filter="url(#filter0_i)">
<path d="M0 274.5C23.683 376.265 145.402 604.17 319.5 604.17L368.643 602.497L371.5 623.5L342.5 613L319.5 604.17L-28 616L-11.7762 300.723L0 274.5Z" fill="#03ADEC"/>
</g>
<g filter="url(#filter1_i)">
<path d="M904.5 600.5C1008.9 592.9 1044.67 509.667 1049.5 469C1061.33 475.667 1086.4 493.6 1092 512C1099 535 1103.5 532.5 1120 565.5C1136.5 598.5 1115 604 1103.5 633C1056.17 632.667 951.7 631.5 912.5 629.5C873.3 627.5 890.833 611.667 904.5 604C861 606 800.1 608.1 904.5 600.5Z" fill="#03ADEC"/>
</g>
<path d="M616.829 172.84V235.412C616.826 240.116 615.587 244.738 613.234 248.813C610.883 252.888 607.501 256.273 603.428 258.629L599.28 261.018L599.258 261.04H599.237C599.215 261.04 599.193 261.061 599.15 261.083L538.315 296.202C534.236 298.55 529.611 299.786 524.904 299.786C520.197 299.786 515.572 298.55 511.493 296.202L446.423 258.629C441.876 256.006 438.204 252.1 435.868 247.4C435.844 247.354 435.815 247.31 435.781 247.27C435.772 247.245 435.757 247.223 435.737 247.205V247.183C435.725 247.172 435.717 247.156 435.716 247.14C433.93 243.488 433.002 239.476 433.001 235.412V173.752C432.99 172.588 433.078 171.426 433.261 170.277C444.558 192.534 463.517 209.958 486.646 219.34V219.904L514.273 235.868C517.512 237.735 521.186 238.718 524.926 238.718C528.665 238.718 532.339 237.735 535.579 235.868L563.205 219.904V219.752C586.22 210.695 605.234 193.699 616.807 171.841C616.829 172.188 616.829 172.503 616.829 172.84Z" fill="#0088C9"/>
<path d="M486.646 172.839V219.339C463.517 209.957 444.557 192.533 433.261 170.276C433.389 169.172 433.585 168.077 433.847 166.996C434.508 164.267 435.577 161.653 437.018 159.243C439.182 155.502 442.226 152.346 445.886 150.049C449.546 147.752 453.711 146.382 458.02 146.059C461.687 145.815 465.365 146.326 468.826 147.561C472.288 148.796 475.458 150.729 478.142 153.24C480.826 155.75 482.965 158.785 484.428 162.157C485.891 165.528 486.646 169.164 486.646 172.839Z" fill="white"/>
<path d="M616.806 171.85C605.233 193.709 586.22 210.704 563.204 219.762V173.761C563.121 166.84 565.655 160.142 570.298 155.008C574.941 149.873 581.351 146.681 588.246 146.07C593.131 145.738 598.014 146.752 602.363 149.002C602.369 149.002 602.374 149.004 602.379 149.008C602.383 149.012 602.385 149.018 602.385 149.024C602.405 149.035 602.427 149.043 602.45 149.045C605.978 150.902 609.049 153.52 611.442 156.709C613.835 159.897 615.489 163.578 616.285 167.485C616.581 168.922 616.756 170.383 616.806 171.85Z" fill="white"/>
<g style="mix-blend-mode:multiply" opacity="0.08">
<g style="mix-blend-mode:multiply" opacity="0.08">
<path d="M486.646 198.043V219.349C463.517 209.967 444.557 192.543 433.261 170.286C433.389 169.182 433.585 168.086 433.847 167.006C445.119 175.303 465.242 188.964 486.646 198.043Z" fill="#0088C9"/>
</g>
</g>
<g style="mix-blend-mode:multiply" opacity="0.08">
<g style="mix-blend-mode:multiply" opacity="0.08">
<path d="M616.807 171.851C605.234 193.71 586.22 210.705 563.205 219.763V198.131C581.95 189.855 599.746 179.581 616.285 167.485C616.582 168.923 616.756 170.384 616.807 171.851Z" fill="#0088C9"/>
</g>
</g>
<g style="mix-blend-mode:screen" opacity="0.4">
<g style="mix-blend-mode:screen" opacity="0.4">
<path d="M610.313 235.335V235.422C610.304 238.982 609.362 242.476 607.583 245.559C605.803 248.642 603.248 251.205 600.17 252.993L535.057 290.566C531.969 292.345 528.468 293.281 524.904 293.281C521.34 293.281 517.838 292.345 514.75 290.566L464.145 261.354L463.972 261.246L449.681 252.993C446.837 251.346 444.434 249.036 442.676 246.26C440.918 243.485 439.856 240.325 439.581 237.051C463.778 254.297 492.687 263.696 522.399 263.976C552.111 264.256 581.192 255.403 605.709 238.615L605.926 238.463L606.034 238.398C607.5 237.399 608.901 236.378 610.313 235.335Z" fill="white"/>
</g>
</g>
<g style="mix-blend-mode:screen" opacity="0.6">
<g style="mix-blend-mode:screen" opacity="0.6">
<path d="M435.738 247.192C435.76 247.214 435.76 247.236 435.781 247.279C435.772 247.254 435.757 247.232 435.738 247.214V247.192Z" fill="white"/>
</g>
</g>
<g style="mix-blend-mode:multiply" opacity="0.25">
<g style="mix-blend-mode:multiply" opacity="0.25">
<path d="M599.15 261.091L538.315 296.21C534.236 298.558 529.611 299.794 524.904 299.794C520.197 299.794 515.572 298.558 511.492 296.21L446.423 258.637C441.876 256.014 438.204 252.108 435.868 247.408C436.041 247.712 436.367 248.234 436.845 248.95C437.986 250.576 439.288 252.083 440.733 253.446C442.965 255.526 445.517 257.235 448.291 258.507C451.505 260.157 455.132 262.025 459.042 264.132C466.926 268.258 476.047 273.188 485.756 278.575C490.599 281.29 495.638 284.026 500.698 286.936C503.239 288.392 505.78 289.847 508.343 291.302L512.188 293.495C513.357 294.187 514.576 294.79 515.836 295.298C520.781 297.351 526.268 297.695 531.43 296.275C534.006 295.536 536.469 294.447 538.75 293.039C541.247 291.649 543.701 290.281 546.134 288.935C555.864 283.548 564.986 278.618 572.848 274.492C587.595 266.662 597.912 261.667 599.15 261.091Z" fill="#0088C9"/>
</g>
</g>
<g style="mix-blend-mode:multiply" opacity="0.25">
<g style="mix-blend-mode:multiply" opacity="0.25">
<path d="M616.807 171.849L614.787 175.975L612.571 180.037L610.161 183.968L607.554 187.79L604.753 191.483L601.799 195.066L598.65 198.498L595.348 201.777L591.895 204.905L588.29 207.88L584.554 210.682L580.688 213.31L576.692 215.764L572.587 218.045L568.374 220.108L565.311 221.433L564.399 221.976C558.231 225.646 552.085 229.36 545.873 232.966L536.512 238.395C532.966 240.374 528.975 241.42 524.914 241.436C522.891 241.426 520.878 241.163 518.92 240.654C517.947 240.391 516.989 240.072 516.053 239.698C515.13 239.327 514.23 238.899 513.36 238.417L503.977 232.966C497.766 229.36 491.619 225.646 485.451 221.998L484.235 221.281V220.89L481.412 219.63L477.198 217.502L473.093 215.156L469.097 212.637L465.231 209.922L461.474 207.055L457.89 204.014L454.459 200.8L451.179 197.455L448.052 193.937L445.119 190.288L442.339 186.531L439.777 182.621L437.388 178.625L435.216 174.499L433.261 170.285L435.672 174.26L438.235 178.082L440.949 181.818L443.795 185.423L446.792 188.898L449.919 192.243L453.199 195.436L456.565 198.498L460.084 201.408L463.732 204.145L467.446 206.751L471.291 209.162L475.222 211.421L479.261 213.506L483.366 215.417L486.646 216.763V219.913L514.272 235.876C517.512 237.743 521.186 238.726 524.925 238.726C528.665 238.726 532.338 237.743 535.578 235.876L563.205 219.913V217.198L566.506 215.873L570.589 214.027L574.607 212.029L578.538 209.835L582.361 207.468L586.096 204.948L589.745 202.277L593.263 199.453L596.651 196.456L599.931 193.329L603.102 190.071L606.121 186.661L609.009 183.143L611.746 179.494L614.352 175.715L616.807 171.849Z" fill="#0088C9"/>
</g>
</g>
<g style="mix-blend-mode:screen" opacity="0.4">
<g style="mix-blend-mode:screen" opacity="0.4">
<path d="M605.709 238.613L601.539 241.632L596.891 244.673C593.72 246.627 590.498 248.466 587.226 250.189C583.925 251.905 580.551 253.469 577.105 254.88C573.659 256.292 570.169 257.581 566.636 258.746C559.556 261.09 552.291 262.834 544.918 263.959C541.225 264.545 537.512 264.958 533.776 265.24C529.975 265.544 526.37 265.653 522.591 265.631C518.855 265.631 515.119 265.457 511.384 265.175L505.802 264.61L500.264 263.829L494.747 262.808L489.274 261.592L483.866 260.158L478.502 258.486L473.224 256.618L468.033 254.533L462.907 252.252L457.89 249.777L453.004 247.062L448.204 244.173L443.534 241.111L440.906 239.243C441.865 244.24 444.673 248.691 448.768 251.71C450.006 252.578 451.288 253.317 452.591 254.142L456.457 256.509L463.972 261.244L449.681 252.991C446.837 251.344 444.434 249.034 442.676 246.259C440.918 243.483 439.856 240.324 439.581 237.049C463.778 254.296 492.687 263.695 522.399 263.974C552.111 264.254 581.192 255.401 605.709 238.613Z" fill="white"/>
</g>
</g>
<g style="mix-blend-mode:screen" opacity="0.5">
<g style="mix-blend-mode:screen" opacity="0.5">
<path d="M486.647 172.839V193.624C486.647 193.624 485.909 187.955 485.409 179.463C485.257 177.356 485.127 175.032 485.018 172.622C484.853 170.243 484.393 167.894 483.65 165.628C482 160.749 478.948 156.466 474.876 153.314C472.818 151.735 470.543 150.462 468.121 149.534C465.772 148.697 463.328 148.157 460.845 147.927C460.172 147.927 459.521 147.906 458.869 147.906L458 147.884L457.11 147.949C455.948 148.01 454.794 148.162 453.656 148.405C451.537 148.857 449.48 149.564 447.532 150.512C444.552 151.987 441.849 153.963 439.539 156.354C438.692 157.245 438.041 157.961 437.628 158.483C437.324 158.873 437.107 159.134 437.02 159.243C439.184 155.502 442.228 152.346 445.887 150.049C449.547 147.752 453.713 146.382 458.022 146.059C461.689 145.815 465.367 146.326 468.828 147.561C472.289 148.796 475.46 150.729 478.144 153.24C480.827 155.75 482.967 158.785 484.429 162.157C485.892 165.528 486.647 169.164 486.647 172.839Z" fill="white"/>
</g>
</g>
<g style="mix-blend-mode:screen" opacity="0.5">
<g style="mix-blend-mode:screen" opacity="0.5">
<path d="M602.363 149.002C602.102 148.915 601.147 148.611 599.627 148.242C597.202 147.653 594.716 147.354 592.22 147.351C590.588 147.359 588.96 147.512 587.355 147.807C586.489 147.943 585.632 148.139 584.793 148.394C584.38 148.524 583.946 148.633 583.511 148.763C583.077 148.893 582.642 149.089 582.208 149.241C580.459 149.953 578.78 150.826 577.191 151.847C575.576 152.935 574.083 154.195 572.739 155.604C571.364 156.985 570.147 158.515 569.112 160.165C568.095 161.78 567.236 163.489 566.549 165.269C566.208 166.112 565.917 166.976 565.68 167.854C565.421 168.679 565.218 169.521 565.072 170.373C564.894 171.22 564.764 172.075 564.681 172.936L564.616 173.566C564.594 173.653 564.572 173.827 564.572 173.827L564.551 174.131C564.507 174.543 564.486 174.956 564.442 175.347C563.921 181.732 563.204 185.967 563.204 185.967V173.761C563.121 166.84 565.655 160.142 570.298 155.008C574.941 149.873 581.351 146.681 588.246 146.07C593.131 145.738 598.014 146.752 602.363 149.002Z" fill="white"/>
</g>
</g>
<path d="M414.764 342.241C414.479 344.862 413.539 346.867 411.944 348.257C410.361 349.647 408.247 350.342 405.604 350.342C403.758 350.342 402.123 349.88 400.699 348.958C399.286 348.035 398.193 346.73 397.418 345.044C396.643 343.346 396.25 341.41 396.239 339.233V336.003C396.239 333.793 396.626 331.833 397.401 330.125C398.176 328.416 399.286 327.1 400.733 326.177C402.192 325.243 403.867 324.775 405.758 324.775C408.424 324.775 410.526 325.499 412.064 326.946C413.613 328.381 414.514 330.369 414.764 332.91H412.645C412.121 328.683 409.825 326.57 405.758 326.57C403.502 326.57 401.702 327.413 400.357 329.099C399.024 330.785 398.358 333.115 398.358 336.089V339.131C398.358 342.002 399.007 344.292 400.306 346.001C401.616 347.71 403.382 348.564 405.604 348.564C407.803 348.564 409.461 348.04 410.577 346.992C411.694 345.933 412.383 344.349 412.645 342.241H414.764ZM438.263 338.909C438.263 341.199 437.864 343.21 437.066 344.941C436.28 346.673 435.152 348.006 433.683 348.94C432.213 349.875 430.515 350.342 428.59 350.342C425.685 350.342 423.338 349.305 421.549 347.231C419.76 345.146 418.866 342.338 418.866 338.806V336.243C418.866 333.975 419.264 331.97 420.062 330.227C420.871 328.472 422.01 327.128 423.48 326.194C424.95 325.248 426.642 324.775 428.556 324.775C430.47 324.775 432.156 325.237 433.614 326.16C435.084 327.083 436.218 328.387 437.015 330.073C437.813 331.759 438.229 333.713 438.263 335.935V338.909ZM436.161 336.208C436.161 333.212 435.483 330.865 434.127 329.167C432.771 327.47 430.914 326.621 428.556 326.621C426.243 326.621 424.397 327.476 423.019 329.185C421.651 330.882 420.968 333.258 420.968 336.311V338.909C420.968 341.86 421.651 344.201 423.019 345.933C424.386 347.653 426.243 348.513 428.59 348.513C430.971 348.513 432.828 347.664 434.161 345.967C435.494 344.258 436.161 341.882 436.161 338.84V336.208ZM446.346 325.117L455.523 347.078L464.735 325.117H467.538V350H465.436V339.165L465.606 328.057L456.344 350H454.72L445.492 328.142L445.663 339.097V350H443.561V325.117H446.346ZM475.946 339.866V350H473.844V325.117H482.32C484.907 325.117 486.946 325.778 488.438 327.1C489.942 328.421 490.694 330.238 490.694 332.551C490.694 334.887 489.971 336.693 488.524 337.969C487.088 339.233 485.003 339.866 482.269 339.866H475.946ZM475.946 338.088H482.32C484.36 338.088 485.915 337.604 486.986 336.636C488.057 335.667 488.592 334.317 488.592 332.585C488.592 330.865 488.057 329.498 486.986 328.484C485.926 327.458 484.417 326.934 482.457 326.912H475.946V338.088ZM506.485 343.027H495.189L492.625 350H490.421L499.837 325.117H501.837L511.253 350H509.066L506.485 343.027ZM495.838 341.233H505.819L500.829 327.681L495.838 341.233ZM533.453 350H531.351L517.047 328.706V350H514.928V325.117H517.047L531.368 346.428V325.117H533.453V350ZM546.595 338.687L554.2 325.117H556.627L547.638 340.635V350H545.536V340.635L536.563 325.117H539.059L546.595 338.687ZM570.88 348.223H583.167V350H568.761V325.117H570.88V348.223ZM604.479 338.909C604.479 341.199 604.08 343.21 603.282 344.941C602.496 346.673 601.368 348.006 599.898 348.94C598.429 349.875 596.731 350.342 594.806 350.342C591.9 350.342 589.553 349.305 587.765 347.231C585.976 345.146 585.082 342.338 585.082 338.806V336.243C585.082 333.975 585.48 331.97 586.278 330.227C587.087 328.472 588.226 327.128 589.696 326.194C591.166 325.248 592.857 324.775 594.771 324.775C596.686 324.775 598.372 325.237 599.83 326.16C601.3 327.083 602.433 328.387 603.231 330.073C604.028 331.759 604.444 333.713 604.479 335.935V338.909ZM602.376 336.208C602.376 333.212 601.699 330.865 600.343 329.167C598.987 327.47 597.13 326.621 594.771 326.621C592.459 326.621 590.613 327.476 589.234 329.185C587.867 330.882 587.184 333.258 587.184 336.311V338.909C587.184 341.86 587.867 344.201 589.234 345.933C590.602 347.653 592.459 348.513 594.806 348.513C597.187 348.513 599.044 347.664 600.377 345.967C601.71 344.258 602.376 341.882 602.376 338.84V336.208ZM627.738 347.043C627.009 348.08 625.864 348.889 624.303 349.47C622.753 350.051 621.016 350.342 619.09 350.342C617.142 350.342 615.41 349.875 613.895 348.94C612.38 348.006 611.206 346.685 610.375 344.976C609.543 343.267 609.121 341.307 609.11 339.097V335.952C609.11 332.5 609.981 329.777 611.725 327.783C613.468 325.778 615.809 324.775 618.749 324.775C621.312 324.775 623.374 325.431 624.935 326.741C626.496 328.04 627.424 329.834 627.721 332.124H625.619C625.311 330.301 624.565 328.923 623.38 327.988C622.206 327.043 620.668 326.57 618.766 326.57C616.441 326.57 614.601 327.396 613.246 329.048C611.89 330.7 611.212 333.03 611.212 336.038V338.977C611.212 340.868 611.531 342.543 612.169 344.001C612.818 345.448 613.741 346.571 614.938 347.368C616.145 348.166 617.529 348.564 619.09 348.564C620.902 348.564 622.457 348.28 623.756 347.71C624.599 347.334 625.226 346.895 625.636 346.394V339.968H618.954V338.191H627.738V347.043ZM652.091 338.909C652.091 341.199 651.692 343.21 650.895 344.941C650.108 346.673 648.98 348.006 647.511 348.94C646.041 349.875 644.343 350.342 642.418 350.342C639.513 350.342 637.166 349.305 635.377 347.231C633.588 345.146 632.694 342.338 632.694 338.806V336.243C632.694 333.975 633.093 331.97 633.89 330.227C634.699 328.472 635.838 327.128 637.308 326.194C638.778 325.248 640.47 324.775 642.384 324.775C644.298 324.775 645.984 325.237 647.442 326.16C648.912 327.083 650.046 328.387 650.843 330.073C651.641 331.759 652.057 333.713 652.091 335.935V338.909ZM649.989 336.208C649.989 333.212 649.311 330.865 647.955 329.167C646.599 327.47 644.742 326.621 642.384 326.621C640.071 326.621 638.225 327.476 636.847 329.185C635.479 330.882 634.796 333.258 634.796 336.311V338.909C634.796 341.86 635.479 344.201 636.847 345.933C638.214 347.653 640.071 348.513 642.418 348.513C644.799 348.513 646.656 347.664 647.989 345.967C649.322 344.258 649.989 341.882 649.989 338.84V336.208Z" fill="white"/>
<path d="M414.844 373.504C414.844 372.716 414.567 372.094 414.014 371.639C413.46 371.176 412.448 370.74 410.977 370.33C409.505 369.913 408.431 369.461 407.754 368.973C406.79 368.283 406.309 367.378 406.309 366.258C406.309 365.171 406.755 364.288 407.646 363.611C408.545 362.928 409.691 362.586 411.084 362.586C412.028 362.586 412.871 362.768 413.613 363.133C414.362 363.497 414.941 364.005 415.352 364.656C415.762 365.307 415.967 366.033 415.967 366.834H414.756C414.756 365.864 414.424 365.086 413.76 364.5C413.096 363.908 412.204 363.611 411.084 363.611C409.997 363.611 409.131 363.855 408.486 364.344C407.842 364.826 407.52 365.457 407.52 366.238C407.52 366.961 407.809 367.55 408.389 368.006C408.968 368.462 409.896 368.865 411.172 369.217C412.448 369.562 413.415 369.923 414.072 370.301C414.73 370.672 415.225 371.118 415.557 371.639C415.889 372.16 416.055 372.775 416.055 373.484C416.055 374.604 415.605 375.503 414.707 376.18C413.815 376.857 412.637 377.195 411.172 377.195C410.169 377.195 409.248 377.016 408.408 376.658C407.575 376.3 406.94 375.799 406.504 375.154C406.074 374.51 405.859 373.771 405.859 372.938H407.061C407.061 373.94 407.435 374.731 408.184 375.311C408.932 375.89 409.928 376.18 411.172 376.18C412.279 376.18 413.167 375.936 413.838 375.447C414.508 374.959 414.844 374.311 414.844 373.504ZM424.727 375.984H431.748V377H423.516V362.781H424.727V375.984ZM449.434 370.662C449.434 371.971 449.206 373.12 448.75 374.109C448.301 375.099 447.656 375.861 446.816 376.395C445.977 376.928 445.007 377.195 443.906 377.195C442.246 377.195 440.905 376.603 439.883 375.418C438.861 374.227 438.35 372.622 438.35 370.604V369.139C438.35 367.843 438.577 366.697 439.033 365.701C439.495 364.699 440.146 363.93 440.986 363.396C441.826 362.856 442.793 362.586 443.887 362.586C444.98 362.586 445.944 362.85 446.777 363.377C447.617 363.904 448.265 364.65 448.721 365.613C449.176 366.577 449.414 367.693 449.434 368.963V370.662ZM448.232 369.119C448.232 367.407 447.845 366.066 447.07 365.096C446.296 364.126 445.234 363.641 443.887 363.641C442.565 363.641 441.51 364.129 440.723 365.105C439.941 366.076 439.551 367.433 439.551 369.178V370.662C439.551 372.348 439.941 373.686 440.723 374.676C441.504 375.659 442.565 376.15 443.906 376.15C445.267 376.15 446.328 375.665 447.09 374.695C447.852 373.719 448.232 372.361 448.232 370.623V369.119ZM467.588 375.311C467.171 375.903 466.517 376.365 465.625 376.697C464.74 377.029 463.747 377.195 462.646 377.195C461.533 377.195 460.544 376.928 459.678 376.395C458.812 375.861 458.141 375.105 457.666 374.129C457.191 373.152 456.95 372.033 456.943 370.77V368.973C456.943 367 457.441 365.444 458.438 364.305C459.434 363.159 460.771 362.586 462.451 362.586C463.916 362.586 465.094 362.96 465.986 363.709C466.878 364.451 467.409 365.477 467.578 366.785H466.377C466.201 365.743 465.775 364.956 465.098 364.422C464.427 363.882 463.548 363.611 462.461 363.611C461.133 363.611 460.081 364.083 459.307 365.027C458.532 365.971 458.145 367.303 458.145 369.021V370.701C458.145 371.782 458.327 372.739 458.691 373.572C459.062 374.399 459.59 375.04 460.273 375.496C460.964 375.952 461.755 376.18 462.646 376.18C463.682 376.18 464.57 376.017 465.312 375.691C465.794 375.477 466.152 375.226 466.387 374.939V371.268H462.568V370.252H467.588V375.311ZM483.535 373.016H477.08L475.615 377H474.355L479.736 362.781H480.879L486.26 377H485.01L483.535 373.016ZM477.451 371.99H483.154L480.303 364.246L477.451 371.99ZM503.809 377H502.607L494.434 364.832V377H493.223V362.781H494.434L502.617 374.959V362.781H503.809V377ZM522.549 375.311C522.132 375.903 521.478 376.365 520.586 376.697C519.701 377.029 518.708 377.195 517.607 377.195C516.494 377.195 515.505 376.928 514.639 376.395C513.773 375.861 513.102 375.105 512.627 374.129C512.152 373.152 511.911 372.033 511.904 370.77V368.973C511.904 367 512.402 365.444 513.398 364.305C514.395 363.159 515.732 362.586 517.412 362.586C518.877 362.586 520.055 362.96 520.947 363.709C521.839 364.451 522.37 365.477 522.539 366.785H521.338C521.162 365.743 520.736 364.956 520.059 364.422C519.388 363.882 518.509 363.611 517.422 363.611C516.094 363.611 515.042 364.083 514.268 365.027C513.493 365.971 513.105 367.303 513.105 369.021V370.701C513.105 371.782 513.288 372.739 513.652 373.572C514.023 374.399 514.551 375.04 515.234 375.496C515.924 375.952 516.715 376.18 517.607 376.18C518.643 376.18 519.531 376.017 520.273 375.691C520.755 375.477 521.113 375.226 521.348 374.939V371.268H517.529V370.252H522.549V375.311ZM541.328 370.662C541.328 371.971 541.1 373.12 540.645 374.109C540.195 375.099 539.551 375.861 538.711 376.395C537.871 376.928 536.901 377.195 535.801 377.195C534.141 377.195 532.799 376.603 531.777 375.418C530.755 374.227 530.244 372.622 530.244 370.604V369.139C530.244 367.843 530.472 366.697 530.928 365.701C531.39 364.699 532.041 363.93 532.881 363.396C533.721 362.856 534.688 362.586 535.781 362.586C536.875 362.586 537.839 362.85 538.672 363.377C539.512 363.904 540.16 364.65 540.615 365.613C541.071 366.577 541.309 367.693 541.328 368.963V370.662ZM540.127 369.119C540.127 367.407 539.74 366.066 538.965 365.096C538.19 364.126 537.129 363.641 535.781 363.641C534.46 363.641 533.405 364.129 532.617 365.105C531.836 366.076 531.445 367.433 531.445 369.178V370.662C531.445 372.348 531.836 373.686 532.617 374.676C533.398 375.659 534.46 376.15 535.801 376.15C537.161 376.15 538.223 375.665 538.984 374.695C539.746 373.719 540.127 372.361 540.127 370.623V369.119ZM557.07 370.184H550.42V375.984H558.066V377H549.219V362.781H558.018V363.807H550.42V369.168H557.07V370.184ZM573.516 373.504C573.516 372.716 573.239 372.094 572.686 371.639C572.132 371.176 571.12 370.74 569.648 370.33C568.177 369.913 567.103 369.461 566.426 368.973C565.462 368.283 564.98 367.378 564.98 366.258C564.98 365.171 565.426 364.288 566.318 363.611C567.217 362.928 568.363 362.586 569.756 362.586C570.7 362.586 571.543 362.768 572.285 363.133C573.034 363.497 573.613 364.005 574.023 364.656C574.434 365.307 574.639 366.033 574.639 366.834H573.428C573.428 365.864 573.096 365.086 572.432 364.5C571.768 363.908 570.876 363.611 569.756 363.611C568.669 363.611 567.803 363.855 567.158 364.344C566.514 364.826 566.191 365.457 566.191 366.238C566.191 366.961 566.481 367.55 567.061 368.006C567.64 368.462 568.568 368.865 569.844 369.217C571.12 369.562 572.087 369.923 572.744 370.301C573.402 370.672 573.896 371.118 574.229 371.639C574.561 372.16 574.727 372.775 574.727 373.484C574.727 374.604 574.277 375.503 573.379 376.18C572.487 376.857 571.309 377.195 569.844 377.195C568.841 377.195 567.92 377.016 567.08 376.658C566.247 376.3 565.612 375.799 565.176 375.154C564.746 374.51 564.531 373.771 564.531 372.938H565.732C565.732 373.94 566.107 374.731 566.855 375.311C567.604 375.89 568.6 376.18 569.844 376.18C570.951 376.18 571.839 375.936 572.51 375.447C573.18 374.959 573.516 374.311 573.516 373.504ZM592.725 377H591.514V370.184H583.389V377H582.188V362.781H583.389V369.168H591.514V362.781H592.725V377ZM609.062 370.184H602.412V375.984H610.059V377H601.211V362.781H610.01V363.807H602.412V369.168H609.062V370.184ZM622.773 371.082H618.643V377H617.432V362.781H622.051C623.568 362.781 624.753 363.149 625.605 363.885C626.458 364.62 626.885 365.649 626.885 366.971C626.885 367.882 626.618 368.686 626.084 369.383C625.55 370.079 624.834 370.561 623.936 370.828L627.49 376.873V377H626.211L622.773 371.082ZM618.643 370.057H622.324C623.333 370.057 624.144 369.77 624.756 369.197C625.368 368.624 625.674 367.882 625.674 366.971C625.674 365.968 625.355 365.19 624.717 364.637C624.079 364.083 623.184 363.807 622.031 363.807H618.643V370.057ZM642.871 370.184H636.221V375.984H643.867V377H635.02V362.781H643.818V363.807H636.221V369.168H642.871V370.184Z" fill="white"/>
</g>
<defs>
<filter id="filter0_i" x="-28" y="274.5" width="399.5" height="353" filterUnits="userSpaceOnUse" color-interpolation-filters="sRGB">
<feFlood flood-opacity="0" result="BackgroundImageFix"/>
<feBlend mode="normal" in="SourceGraphic" in2="BackgroundImageFix" result="shape"/>
<feColorMatrix in="SourceAlpha" type="matrix" values="0 0 0 0 0 0 0 0 0 0 0 0 0 0 0 0 0 0 127 0" result="hardAlpha"/>
<feOffset dy="9"/>
<feGaussianBlur stdDeviation="2"/>
<feComposite in2="hardAlpha" operator="arithmetic" k2="-1" k3="1"/>
<feColorMatrix type="matrix" values="0 0 0 0 0.447059 0 0 0 0 0.792157 0 0 0 0 0.917647 0 0 0 0.69 0"/>
<feBlend mode="normal" in2="shape" result="effect1_innerShadow"/>
</filter>
<filter id="filter1_i" x="846.855" y="469" width="283.152" height="168" filterUnits="userSpaceOnUse" color-interpolation-filters="sRGB">
<feFlood flood-opacity="0" result="BackgroundImageFix"/>
<feBlend mode="normal" in="SourceGraphic" in2="BackgroundImageFix" result="shape"/>
<feColorMatrix in="SourceAlpha" type="matrix" values="0 0 0 0 0 0 0 0 0 0 0 0 0 0 0 0 0 0 127 0" result="hardAlpha"/>
<feOffset dx="8" dy="4"/>
<feGaussianBlur stdDeviation="2"/>
<feComposite in2="hardAlpha" operator="arithmetic" k2="-1" k3="1"/>
<feColorMatrix type="matrix" values="0 0 0 0 0 0 0 0 0 0 0 0 0 0 0 0 0 0 0.25 0"/>
<feBlend mode="normal" in2="shape" result="effect1_innerShadow"/>
</filter>
<clipPath id="clip0">
<rect width="1050" height="600" fill="white"/>
</clipPath>
</defs>
</svg>
